<?xml version="1.0" encoding="utf-8"?>
<!-- Generator: Adobe Illustrator 24.1.2, SVG Export Plug-In . SVG Version: 6.00 Build 0)  -->
<svg version="1.1" id="Layer_1" xmlns="http://www.w3.org/2000/svg" xmlns:xlink="http://www.w3.org/1999/xlink" x="0px" y="0px"
	 viewBox="0 0 1000 1000" style="enable-background:new 0 0 1000 1000;" xml:space="preserve">
<style type="text/css">
	.st0{fill:#1F1D1D;}
	.st1{fill:#807876;}
	.st2{fill:#ECE5DC;}
	.st3{fill:#625D5A;}
	.st4{fill:#FFFFFF;}
	.st5{fill:#ACA39D;}
	.st6{fill:#CACACA;}
	.st7{fill:#342F31;}
	.st8{fill:#4A5485;}
	.st9{fill:#494140;}
	.st10{fill:#5B5550;}
	.st11{fill:#332D2F;}
	.st12{fill:#90877F;}
	.st13{fill:#CFCCCC;}
	.st14{fill:#7E7471;}
	.st15{fill:#443A37;}
	.st16{fill:#665959;}
	.st17{fill:#B6B0AC;}
	.st18{fill:#817973;}
</style>
<g>
	<path class="st0" d="M499.38,254.45c-14.19,0.17-33.42,1.19-35.8,8.68c-2.38,7.49,2.04,18.82-8.68,19.02
		c-10.72,0.21-30.64-1.68-61.11,8.88c-30.47,10.56-65.78,18.39-109.53,7.84c-43.75-10.55-73.28-39.83-77.53-41.87
		c-4.26-2.04-9.7,2.04-14.81-0.85s-32.68-32.85-37.62-38.3s-9.19,4.26-16.51,2.72c-7.32-1.53-35.4-25.53-49.87-43.91
		s-19.57-28.09-26.38-28.77c-6.81-0.68-6.3,6.13-8.51,12.94c-2.21,6.81-10.38,11.06-17.87,3.06s-14.13-8-12.26,5.28
		c1.87,13.28,21.79,43.6,29.45,56.69s0.85,11.73-1.19,16.16c-2.04,4.43,7.83,24.51,17.7,36.94s15.15,19.07,12.6,22.98
		c-2.55,3.91-2.04,13.74,8.85,27.64c10.89,13.89,37.11,32.46,42.21,36.03c5.11,3.57,2.55,10.08,4.6,12.95
		c2.04,2.87,18.04,14.65,31.83,20.25c13.79,5.6,28.09,8.84,32.68,14.45c4.6,5.62,15.32,20.84,29.79,24.63
		c14.47,3.79,19.91,2.09,23.32,4.14c3.4,2.04,5.79,9.87,3.74,12.43s-3.4,5.11-4.26,11.57c-0.85,6.47-4.81,45.28-4.81,45.28
		l-170.93,1.06c0,0-1.15-1.91-4.34-1.91H24.21c-5.71,0-10.34,4.63-10.34,10.34v12.77c0,5.71,4.63,10.34,10.34,10.34h49.4
		c1.4,0,3.96-2.43,3.96-2.43h172.6l-2.55,3.32c0,0-1.53,0-4.21,0s-4.98,0.93-4.98,6.4c0,5.47,3.19,8.03,5.87,8.03s5.62,0,5.62,0
		s6.51,5.84,9.7,5.84c3.19,0,3.06,0,6.51,0s5.49-2.14,5.23-5.84c-0.26-3.7,3.45-10.21,9.96-10.21c6.51,0,11.15,4.47,11.15,13.15
		s3.15,18,12.73,22.59c9.57,4.6,12.49,2.68,15.95-1.02s14.75-6.89,19.44-1.02c4.7,5.87,5.84,8.55,11.97,12.51s11.73,9.7,6.82,15.32
		c-4.91,5.62-20.22,21.57-19.58,22.6c0.64,1.02,8.93,9.06,3.95,14.43c-4.98,5.36-44.09,50.64-60.6,87.74c-1.87,5.28,1.36,2.72,6.3,0
		c4.94-2.72,82.89-46.47,124.77-63.66c3.91-1.53,0.85-5.96-3.23-8.85c-4.09-2.89-5.45-11.91,3.23-18.89
		c8.68-6.98,14.13-10.72,18.55-13.45s8.51-0.26,11.23,3.95c2.72,4.21,3.06,7.28,7.15,5.24s11.23-7.83,16.17-7.66
		c4.94,0.17,9.36,6.47,9.36,17.36s0,38.47,0,57.53s6.12,41.19,10.89,79.32c4.77,38.13-2.55,67.74,3.24,65.87
		c5.79-1.87,24.17-19.23,35.23-38.81s17.36-42.21,17.36-42.21s23.23,4.81,27.06,4.17s15.83-10.72,17.36-14.17
		c1.53-3.45,17.89-81.91,21.83-111.83c2-1.15,6.13-5.96,6.13-10.51c14.68-1.37,46.47-2.26,52.47-2.26s8.55,10.6,6.77,16.34
		c-1.79,5.74-1.91,12,4.6,12.26s10.47,5.23,12,8.3c1.53,3.06,11.26,17.87,11.95,21.96c0.69,4.09-2.37,4.6-1.1,10.09
		c1.28,5.49,6.64,9.32,17.11,6.38s46.09-12.64,52.72-16.09c6.64-3.45,2.55-9.7-2.17-16.09c-4.72-6.38-8.94-10.85-7.28-15.19
		c1.66-4.34,4.34-7.02,4.21-10.72c-0.13-3.7,1.28-17.49,9.45-16.21s14.94,2.43,14.94-2.81c0-5.23,0-12.47,0-16.07
		s-1.79-9.72,2.04-13.42c3.83-3.7,10.21-2.04,14.94,0c4.72,2.04,13.02,1.83,16.47-2.08c3.45-3.92,8.94-3.61,13.79,0
		c4.85,3.61,23.36,16.7,28.98,17.95c5.62,1.24,7.53-5.39,13.91-5.14s18.64,19.65,19.53,23.23s-9.19,10.98-10.09,17.62
		c-0.89,6.64,2.81,10.98,10.98,9.57c8.17-1.4,9.19-6.64,14.55-5.62c5.36,1.02,12.51-0.51,13.66-14.81s7.66-118.72,7.4-133.15
		s-7.79-13.53-13.66-10.6c-5.87,2.94-37.79,3.83-62.68,4.98c-24.89,1.15-70.34,3.19-70.34,3.19s-16.21-16.85-26.81-21.96
		c-10.6-5.11-13.02-7.66-13.66-13.28c-0.64-5.62,5.1-7.15,9.57-10.6c4.47-3.45,9.7-7.91,9.7-7.91s42.13-1.53,60.77-9.45
		s16.85-23.23,21.19-26.94c4.34-3.7,30.04-7.28,42.91-24.64c2.79-3.32-4.1-9.57,2.53-15.7s37.66-26.81,43.91-34.09
		c6.26-7.28,2.17-15.83,3.83-19.4c1.66-3.57,18.64-19.02,23.74-30.38c5.11-11.36,0.13-13.28-3.7-19.02
		c-3.83-5.74,4.6-12.26,14.55-28.6s8.04-27.19-1.28-31.02s-1.28-16.85,1.91-27.19c3.19-10.34,9.45-33.45,1.02-34.85
		c-8.43-1.4-24.64,25.15-39.96,45.06s-35.62,38.17-38.81,38.81c-3.19,0.64-8.55-2.68-13.15-2.04c-4.6,0.64-41.62,38.43-54.77,41.36
		s-8.94-3.96-15.57-6.26c-6.64-2.3-30,18.77-67.28,24.26s-70.48,4.28-115.94-8.93c-45.46-13.2-79.34-7.07-87.68-6.73
		c-8.34,0.34-10.56-3.18-12.26-9.42C534.04,265.17,527.69,254.11,499.38,254.45z"/>
	<g>
		<path class="st1" d="M471.74,304.18c-1.79,8.33-3.35,15.69-4.09,19.22c-0.29,1.4-1.2,2.58-2.47,3.23l-12.93,6.63l2.3-7.66
			c0,0-7.02,7.15-16.85,12.13c-4.08-1.91-11.36-3.19-11.36-3.19l-1.53-4.34l-2.94,3.06c-40.08-10.98-80.42,3.32-143.23-13.27
			c-55.89-14.77-70.94-47.74-73.58-54.82c-0.08-0.21,0.02-0.39,0.17-0.48c31.56,43.83,89.92,54.21,91.75,54.52
			c-0.75-0.33-11.86-5.21-23.45-11.86c38.43,16.34,77.75,16.08,109.15,6.89c31.4-9.19,55.53-7.4,55.53-7.4s-4.98-4.22-16.98-5.37
			C447.18,298.27,465.19,302.3,471.74,304.18z"/>
		<path class="st1" d="M473.4,296.51c-0.31,1.45-0.63,2.89-0.94,4.31c-1.3-1.73-3.47-3.94-7.06-6.49
			C469.2,294.51,471.77,295.51,473.4,296.51z"/>
		<path class="st2" d="M473.81,294.64c-0.14,0.62-0.27,1.25-0.41,1.87c-1.63-1-4.2-2-8-2.18c3.59,2.55,5.76,4.76,7.06,6.49
			c-0.24,1.13-0.48,2.26-0.72,3.36c-6.55-1.88-24.56-5.91-50.51-2.71c12,1.15,16.98,5.37,16.98,5.37s-24.13-1.79-55.53,7.4
			c-31.4,9.19-70.72,9.45-109.15-6.89c11.59,6.65,22.7,11.53,23.45,11.86c-1.83-0.31-60.19-10.69-91.75-54.52
			c0.14-0.09,0.32-0.09,0.47,0.03c26.78,21.86,47.52,32.7,93.11,44.03c46.21,11.49,72-1.79,111.83-13.79
			c31.53-9.5,53.14-6.03,60.78-4.18C473.13,291.2,474.19,292.92,473.81,294.64z"/>
		<path class="st2" d="M379.62,353.05c0,0,3.7,1.28,7.53,1.66c-9.45,4.08-14.68,4.98-14.68,4.98l4.98,1.27
			c0,0-20.68,8.81-43.28,8.05c2.44,1.85,3.64,4.47,4.21,6.35c-18.38-0.75-32.86-7.4-39.57-13.76c34.08,7.92,73.4-1.02,93.32-23.23
			l9.21,0.64C397.9,342.55,390.43,349.54,379.62,353.05z"/>
		<path class="st1" d="M405.02,339.26c0,0-7.79,23.75-38.81,32.68c-9.86,2.84-19.27,3.77-27.83,3.42c-0.57-1.88-1.77-4.5-4.21-6.35
			c22.6,0.76,43.28-8.05,43.28-8.05l-4.98-1.27c0,0,5.23-0.9,14.68-4.98c-3.83-0.38-7.53-1.66-7.53-1.66
			c10.81-3.51,18.28-10.5,21.72-14.04L405.02,339.26z"/>
		<path class="st2" d="M371.19,339.65c-0.16,7.19-12.65,12.35-30.95,13.72c8.08-1.91,15.84-5.15,18.31-8.45
			c-43.46,6.62-69.7-5.53-84.93-9.96c8.65,4.79,11.56,9.65,11.73,9.95c-0.62-0.21-25.64-9.19-35.48-17.44
			c-9.96-8.34-24.42-14.8-24.42-14.8s4.68,0.85,10.72,3.4c-4.51-6.13-26.21-10.64-26.21-10.64h17.87
			C284,347.56,371.19,339.65,371.19,339.65z"/>
		<path class="st1" d="M358.55,344.92c-2.47,3.3-10.23,6.54-18.31,8.45c-16.56,1.24-37.87-0.6-59.13-6.83
			c-44.77-13.11-71.15-41.11-71.15-41.11s21.7,4.51,26.21,10.64c-6.04-2.55-10.72-3.4-10.72-3.4s14.46,6.46,24.42,14.8
			c9.84,8.25,34.86,17.23,35.48,17.44c-0.17-0.3-3.08-5.16-11.73-9.95C288.85,339.39,315.09,351.54,358.55,344.92z"/>
		<path class="st2" d="M214.06,296.72c-1.09-0.24-2.17-0.5-3.24-0.78c-3.56-8.51-10.18-14.25-10.18-14.25l1.26,6.11
			c-0.27-0.48-4.64-8.23-14.28-18.5c-9.96-10.59-19.15-17.48-19.15-17.48s0.25,3.95,5.49,14.04c-13.19-12.4-22.26-33.3-24.32-38.34
			c0.18-0.25,0.56-0.34,0.85-0.12c22.88,17.76,57.24,59.46,64.3,68.14C215.23,296.07,214.74,296.87,214.06,296.72z"/>
		<path class="st1" d="M210.82,295.94c-34.15-9.01-54.79-38.75-61.29-67.93c-0.04-0.19,0.01-0.36,0.11-0.49
			c2.06,5.04,11.13,25.94,24.32,38.34c-5.24-10.09-5.49-14.04-5.49-14.04s9.19,6.89,19.15,17.48c9.64,10.27,14.01,18.02,14.28,18.5
			l-1.26-6.11C200.64,281.69,207.26,287.43,210.82,295.94z"/>
		<path class="st1" d="M161.56,275.93C70.55,234.36,62.51,155.3,62.51,155.3s0,0.01,0.01,0.02c0.18,0.65,6.31,21.71,15.52,33.94
			C76,179.73,76,179.73,76,179.73s15.15,22.64,20.43,38.98c0-6.47-0.86-8.68-0.86-8.68s11.41,9.19,13.79,13.96
			c2.38,4.76,5.96,12.59,5.96,12.59s1.4-6.81,0-15.15c0,0,12.93,16.34,24.51,19.75c4.9,9.01,9.7,16.22,13.75,21.69
			C157.92,270.94,161.37,275.67,161.56,275.93z"/>
		<path class="st2" d="M153.58,262.87c-4.05-5.47-8.85-12.68-13.75-21.69c-11.58-3.41-24.51-19.75-24.51-19.75
			c1.4,8.34,0,15.15,0,15.15s-3.58-7.83-5.96-12.59c-2.38-4.77-13.79-13.96-13.79-13.96s0.86,2.21,0.86,8.68
			C91.15,202.37,76,179.73,76,179.73s0,0,2.04,9.53c-9.21-12.23-15.34-33.29-15.52-33.94c25.63,41.41,68.78,71.95,77.46,77.84
			c1.02,0.69,1.75,1.7,2.13,2.86C145.62,246.88,149.92,256.06,153.58,262.87z"/>
		<path class="st1" d="M144.43,292.17c0,0-35.07-18.99-68.26-51.67c-30.47-30-44.44-66.6-46.53-72.4c-0.03-0.07-0.02-0.14,0.03-0.19
			c10.61,20.96,20.97,27.14,20.97,27.14s-0.85-4.6,0-3.75c0.85,0.86,19.4,25.03,19.4,25.03s3.41,7.83,15.66,23.83
			c12.26,16,27.9,26.89,27.9,26.89v-4l30.81,29.1L144.43,292.17z"/>
		<path class="st2" d="M144.41,292.15l-30.81-29.1v4c0,0-15.64-10.89-27.9-26.89c-12.25-16-15.66-23.83-15.66-23.83
			s-18.55-24.17-19.4-25.03c-0.85-0.85,0,3.75,0,3.75s-10.36-6.18-20.97-27.14c0.05-0.11,0.21-0.16,0.33-0.06
			c3.36,2.96,19.99,18.02,46.17,49.5c29.45,35.4,53.11,51.74,53.11,51.74C136.87,283.77,143.97,291.67,144.41,292.15z"/>
		<path class="st1" d="M140.95,319.78l-0.45,3.36c-0.17,1.28-1.49,2.06-2.69,1.59c-10.61-4.18-54.57-24.22-81.57-78.14
			c-0.07-0.14-0.07-0.28-0.01-0.41l14.15,16.87v-4l21.96,26.54l-1.87-7.14c0,0,7.15,7.07,22.3,21.24
			c15.14,14.17,22.46,14.68,22.46,14.68l-5.59-8.92C130.01,305.85,135.45,311.7,140.95,319.78z"/>
		<path class="st2" d="M140.95,319.78c-5.5-8.08-10.94-13.93-11.31-14.33l5.59,8.92c0,0-7.32-0.51-22.46-14.68
			c-15.15-14.17-22.3-21.24-22.3-21.24l1.87,7.14l-21.96-26.54v4l-14.15-16.87c0.08-0.21,0.32-0.35,0.57-0.28l12.55,3.53
			c1.75,0.49,3.34,1.45,4.58,2.77c7.13,7.56,34.06,34.86,67.73,52.59c0.74,0.39,1.16,1.19,1.05,2.02L140.95,319.78z"/>
		<path class="st2" d="M198.6,315.39c-7.54-4.98-32.94-19.15-32.94-19.15l1.66,3.45l-13.91-8.57c-4.39-5.5-7.27-9.67-7.44-9.93
			c0.59,0.31,22.11,11.91,46.8,18.5c7.08,8.4,16.18,16.79,23.42,23.01c-11.46-7.64-25.54-18.83-26.13-19.29
			C190.33,303.74,193.93,308.15,198.6,315.39z"/>
		<path class="st1" d="M228.51,332.75c0,0-27.4-0.85-51.91-18.38c-8.53-5.89-17.25-15.79-23.19-23.25l13.91,8.57l-1.66-3.45
			c0,0,25.4,14.17,32.94,19.15c-4.67-7.24-8.27-11.65-8.54-11.98c0.59,0.46,14.67,11.65,26.13,19.29
			C223.22,328.74,228.51,332.75,228.51,332.75z"/>
		<path class="st2" d="M287.69,365.61c-7.04-1.63-18.08-4.52-27.01-8.35c-14.3-6.13-37.45-12.76-39.66-12.78
			c-2.21-0.02,5.28,8.19,8.51,10.36c3.24,2.17,18.04,10.25,18.04,10.25s-13.44-3.74-22.63-7.32c-9.2-3.57-26.39-20.04-38.56-23.66
			c4.61,3.36,7.49,10.15,7.57,10.36c-0.47-0.3-15.46-9.88-25.01-11.72c-5.05-0.97-10.79-5.36-15.14-9.34
			c-1.85-2.98-3.4-5.93-4.67-8.8c-0.32-0.71,0.46-1.41,1.13-1.01c9.97,5.97,53.76,30.77,91.17,29.37c2.04-0.08,4.08,0.4,5.88,1.38
			c14.84,8.07,28.61,12.76,36.83,15.14C286.95,360.3,288.29,363.12,287.69,365.61z"/>
		<path class="st1" d="M287.69,365.61c-0.25,1.06-0.86,2.07-1.85,2.82c-7.29,5.52-22.32,11.52-51.54,6.02
			c-40.64-7.64-67.6-30.16-80.5-51.04c4.35,3.98,10.09,8.37,15.14,9.34c9.55,1.84,24.54,11.42,25.01,11.72
			c-0.08-0.21-2.96-7-7.57-10.36c12.17,3.62,29.36,20.09,38.56,23.66c9.19,3.58,22.63,7.32,22.63,7.32s-14.8-8.08-18.04-10.25
			c-3.23-2.17-10.72-10.38-8.51-10.36c2.21,0.02,25.36,6.65,39.66,12.78C269.61,361.09,280.65,363.98,287.69,365.61z"/>
		<path class="st1" d="M173.06,360.51c-0.16,0.34-0.51,0.58-0.96,0.55c-12.35-0.99-64.9-7.59-86.14-49.46
			c-0.16-0.32,0.06-0.7,0.42-0.7c0.52-0.01,1.28,0.01,2.21,0.08c2.75,4.12,7.84,11.24,13.11,15.9c-1.15-4.17-1.15-4.17-1.15-4.17
			s19.15,15.15,26.94,18.47c-4.49-4.13-4.6-5.61-4.6-5.74c0,0,14.3,9.06,33.58,13.27C162.06,353.42,168.56,358.21,173.06,360.51z"/>
		<path class="st2" d="M232.35,403.06c-0.84-0.02-1.84-0.06-3-0.12c-9.87-5.1-23.9-14.1-25.39-15.01c-2.05-1.25,2.04,2.27,1.07,2.27
			c-0.97,0-24.69-10.98-25.97-11.24c-1.25-0.25,14.7,11.63,15.18,11.99c-0.58-0.2-19.02-6.78-27.69-8.92
			c-5.24-1.29-11.61-2.63-16.02-3.47c-2.45-1.63-4.85-3.36-7.21-5.21c-2.47-1.94,27.83,1.49,56.01,6.86
			c2.24,0.42,4.34,1.42,6.1,2.87c11.66,9.56,22.53,16,27.28,18.65C233.36,402.09,233.09,403.08,232.35,403.06z"/>
		<path class="st1" d="M229.35,402.94c-13.73-0.71-48.94-4.49-78.82-24.38c4.41,0.84,10.78,2.18,16.02,3.47
			c8.67,2.14,27.11,8.72,27.69,8.92c-0.48-0.36-16.43-12.24-15.18-11.99c1.28,0.26,25,11.24,25.97,11.24c0.97,0-3.12-3.52-1.07-2.27
			C205.45,388.84,219.48,397.84,229.35,402.94z"/>
		<path class="st2" d="M173.06,360.51c-4.5-2.3-11-7.09-16.59-11.8c-19.28-4.21-33.58-13.27-33.58-13.27c0,0.13,0.11,1.61,4.6,5.74
			c-7.79-3.32-26.94-18.47-26.94-18.47s0,0,1.15,4.17c-5.27-4.66-10.36-11.78-13.11-15.9c2.01,0.15,4.8,0.59,7.62,1.73
			c5.27,2.13,36.62,24.57,56.73,27.43c0.71,0.11,1.38,0.42,1.89,0.94l18.05,18.27C173.21,359.69,173.24,360.15,173.06,360.51z"/>
		<path class="st2" d="M334.29,389.07c-5.6-4.93-15.39-6.63-20.04-5.77c-5.48,1.03-10.97,2.69-22.59,0
			c3.71,2.97,12.33,5.91,12.86,6.09c-0.47-0.07-6.44-0.94-20.27,0.01c-14.42,0.99-44.59-1.54-44.59-1.54s2.21,2.34,6.47,3.79
			c-5.61-0.61-12.36-2.58-17.69-4.36c-2.21-1.38-4.17-2.81-5.84-4.26c-0.57-0.5-0.15-1.42,0.59-1.32
			c58.18,7.83,71.29-7.09,75.62-7.09c4.78,0,23.64,4.52,31.99,7.47C333.66,383.1,335.25,386.21,334.29,389.07z"/>
		<path class="st1" d="M334.29,389.07c-0.01,0.03-0.02,0.06-0.03,0.09c-2.98,8.45-16.56,14.09-39.54,14.95
			c-22.88,0.86-50.67-6.97-66.28-16.82c5.33,1.78,12.08,3.75,17.69,4.36c-4.26-1.45-6.47-3.79-6.47-3.79s30.17,2.53,44.59,1.54
			c13.83-0.95,19.8-0.08,20.27-0.01c-0.53-0.18-9.15-3.12-12.86-6.09c11.62,2.69,17.11,1.03,22.59,0
			C318.9,382.44,328.69,384.14,334.29,389.07z"/>
		<path class="st2" d="M279.69,430.33c-5.55-3.79-17.74-15.01-19.31-15.24c-1.78-0.25,5.24,7.28,2.81,6.92
			c-2.42-0.36-21.83-5.77-22.98-5.26s13.53,10.72,14.17,12.13c0.64,1.4-22.08-10.21-25.02-10.6c-2.93-0.38,1.92,2.68,2.94,3.73
			c0.8,0.82-5.71-0.82-10.97-1.65c-1.02-1.04-1.98-2.15-2.89-3.35c-0.81-1.07,36.45-7.54,40.79-6.51
			c4.34,1.02,17.49,14.04,22.34,18.51C281.67,429.33,280.99,429.81,279.69,430.33z"/>
		<path class="st1" d="M279.69,430.33c-8.12,3.29-40.43,8.57-58.36-9.97c5.26,0.83,11.77,2.47,10.97,1.65
			c-1.02-1.05-5.87-4.11-2.94-3.73c2.94,0.39,25.66,12,25.02,10.6c-0.64-1.41-15.32-11.62-14.17-12.13s20.56,4.9,22.98,5.26
			c2.43,0.36-4.59-7.17-2.81-6.92C261.95,415.32,274.14,426.54,279.69,430.33z"/>
		<path class="st2" d="M354.85,408.45c0,0-4.6,0-7.66,0s-9.45,2.05-21.96,6.64c-12.51,4.58-23.61,1.25-23.61,1.25
			s1.66,3.35,3.95,4.37c-8.69,0.61-18.57-2.65-25.22-5.38c-3.03-2.96-4.17-5.19-3.5-4.94c37.66,6.78,62.68-11.38,63.96-11.38
			c1.27,0,16.59-1.02,16.34,1.53c-0.06,0.6-0.04,1.72,0.03,3.09c-3.5-0.85-11.46-0.59-11.14,0.55
			C346.43,405.52,354.85,408.45,354.85,408.45z"/>
		<path class="st1" d="M357.15,415.86c-8.04,3.57-19.02,13.4-44.94,12.25c-16.27-0.72-26.76-7.79-31.86-12.78
			c6.65,2.73,16.53,5.99,25.22,5.38c-2.29-1.02-3.95-4.37-3.95-4.37s11.1,3.33,23.61-1.25c12.51-4.59,18.9-6.64,21.96-6.64
			s7.66,0,7.66,0s-8.42-2.93-8.81-4.27c-0.32-1.14,7.64-1.4,11.14-0.55C357.38,408.1,357.96,415.27,357.15,415.86z"/>
		<path class="st2" d="M345.19,439.72c-2.55-1.4-6.77-2.46-10.62-1.39c-5.09,1.4-8.44,2.29-10.36,2.29c-1.91,0,0.13,2.17,0.9,2.94
			c0.76,0.76-21.96-1.15-25.41,0c-3.45,1.14-1.27,2.43-1.27,2.43s-12.95-1.28-20.49-0.47c0.34-1.57,19.78-7.7,28.27-7.7
			c8.94,0,20.04,3.06,26.56-2.81c1.4-1.37,12.63,1.78,13.14,2.93C346.01,438.16,345.78,438.81,345.19,439.72z"/>
		<path class="st1" d="M345.19,439.72c-2.45,3.78-11.2,12.03-28.89,12.65c-21.96,0.76-34.39-4.21-38.26-6.64
			c-0.09-0.06-0.12-0.12-0.1-0.21c7.54-0.81,20.49,0.47,20.49,0.47s-2.18-1.29,1.27-2.43c3.45-1.15,26.17,0.76,25.41,0
			c-0.77-0.77-2.81-2.94-0.9-2.94c1.92,0,5.27-0.89,10.36-2.29C338.42,437.26,342.64,438.32,345.19,439.72z"/>
		<path class="st2" d="M363.53,433.64c-2.04,3.28-9.45,1.3-14.17,0c-1.7-0.48-0.89-1.82,0.64-2.21c1.53-0.38,10.34-6.25,10.85-6.25
			S365.57,430.35,363.53,433.64z"/>
		<path class="st2" d="M369.53,380.75c-2.55,3.45-6.76,9.96-8.3,11.3c-1.53,1.33-6.89-2.75-11.87-3.38
			c-4.98-0.64-8.55-4.22-7.66-4.22c0.9,0,4.21,0.39,12.9-1.36C363.28,381.34,369.91,380.24,369.53,380.75z"/>
		<path class="st3" d="M301.53,508.84c0,0,0.43-2.47,0.26-3.58c-0.17-1.1-17.28-26.81-19.41-28.93c-2.13-2.13-18.64-2.73-22.21-1.11
			c0,0,0-4.17,0-9.02c0-4.85,5.28-7.92,8.43-7.92c3.14,0,9.78,4.26,18.46,17.79c8.68,13.53,18.98,28.51,19.41,29.02
			C306.89,505.6,301.53,508.84,301.53,508.84z"/>
		<rect x="262.72" y="478.54" class="st2" width="6.81" height="10.72"/>
		<path class="st4" d="M295.36,506.56c-1.47,0.32-25.83-0.57-25.83-2.23v-7.66c0-3,1-2.49,4.07-2.49c3.06,0,3.31-0.07,3.31-2.36
			v-8.26c0-2.51,1.01-4.37,2.43-2.6c3.13,3.9,10.09,14.37,13.72,19.41C296.7,505.41,296.83,506.24,295.36,506.56z"/>
		<path class="st4" d="M333.11,476.58c-7.07,4.09-6.56,5.87-10.98,11.15c-5.46,6.51-12.26,9.28-16.6,2.72
			c-4.34-6.55-12.42-13.87-13.02-20.68c-0.6-6.81,4.85-10.38,12.6-8.59c7.74,1.78,18.29-1.79,25.61,0.25S340.17,472.5,333.11,476.58
			z"/>
		<path class="st4" d="M311,576.13c-3.5,1.39-7.79-5.74-8.43-9.31c-0.63-3.58,3.83-2.05,6,0.38
			C310.74,569.62,314.06,574.92,311,576.13z"/>
		<path class="st4" d="M300.02,554.24c-3.45,0.7-4.47-1.72-4.21-3.83c0.25-2.11,3.46-2.97,5.68-1.98
			C303.91,549.52,303.47,553.54,300.02,554.24z"/>
		<path class="st2" d="M359.32,490.54c-0.15,0.22-1.28,1.36-2.95,3.39c-8.19,0.93-27.41,28.66-27.94,49.72
			c-0.3,11.72,5.76,17.84,8.92,20.23c1.06,5.86,2.62,9.47,3.16,11.25c0,0-6.08-2-8.51-8.51c-7.72,0.82-10.4-5.61-10.01-13.28
			c1.05-0.99,2.33-1.99,3.88-2.97c-0.4-0.93-2.61-0.95-4.86,0.1c-0.81-2.21-3.95-12.03,1.1-19.09c2.98-1.53,5.63-2.12,5.63-2.12
			s-2.12-1.21-5.47-0.76c-0.06-3.47,0.2-15.07,6.16-19.97c5.62-0.71,11.13,0.25,11.65,0.31c0.86,0.08,1.71-0.6,0-1.37
			c-1.23-0.55-6.21-1.59-11.67-1.19c0.08-2.82,0.88-11.38,7.5-14.83c5.47-0.2,10.67,1.47,11.24,1.64c0.6,0.18,0.48-1.87-5.51-3.13
			c1.05-1.61,4.4-5.82,11.03-7.02C357.72,485.59,359.74,489.93,359.32,490.54z"/>
		<path class="st4" d="M321.01,550.47c-1.04,0.47-2.08,1.17-2.97,2.11c-2.81,2.98-5.87-4.25-3.83-12.51
			c1.06-4.29,4.68-7.04,7.9-8.69C317.06,538.44,320.2,548.26,321.01,550.47z"/>
		<path class="st4" d="M322.27,528.5c-1.76,0.22-3.87,0.9-6.19,2.46c-3.31,2.39-3.4-12.42,2.9-18.55c2.41-2.35,5.96-3.44,9.45-3.88
			C322.47,513.43,322.21,525.03,322.27,528.5z"/>
		<path class="st4" d="M335.91,491.45c-6.62,3.45-7.42,12.01-7.5,14.83c-2.08,0.15-4.24,0.51-6.28,1.19
			c-2.98,0.77-0.85-9.84,6.12-14.03C330.53,492.07,333.25,491.54,335.91,491.45z"/>
		<path class="st4" d="M331.49,569.26c-6.28,4.35-20.26-5.73-9.5-15.92c-0.39,7.67,2.29,14.1,10.01,13.28
			c2.43,6.51,8.51,8.51,8.51,8.51C341.33,577.82,334.81,578.11,331.49,569.26z"/>
		<path class="st4" d="M352.67,482.94c-6.63,1.2-9.98,5.41-11.03,7.02c-2.44-0.52-5.85-0.9-10.58-0.95c-2.63,0,3.75-8.77,14.22-8.09
			C348.23,481.11,350.69,481.9,352.67,482.94z"/>
		<path class="st3" d="M338.3,532.41c-2.79,14.2-2.23,24.45-0.95,31.47c-3.16-2.39-9.22-8.51-8.92-20.23
			c0.53-21.06,19.75-48.79,27.94-49.72C351.53,499.8,342.09,513.05,338.3,532.41z"/>
		<path class="st4" d="M360.34,537.2c-1.55,1.76-4.22,5.87-5.91,9.82c-0.19-1.89-0.2-4.57,0.8-6.5
			c-14.36,3.89-12.38,24.57-13.21,24.18c-0.95-0.29-1.68-1.28-2.23-2.34c-0.46-3.9-0.28-8.57,1.27-13.74
			C345.46,533.91,363.6,533.5,360.34,537.2z"/>
		<path class="st4" d="M368.37,566.35c-0.31,3.51-1.84,7.32-4.26,8.78c0.95-10.51-8.88-18.91-8.88-18.91
			C361.02,557.32,366.65,560.1,368.37,566.35z"/>
		<path class="st4" d="M368.42,589.72c-1.07,0.79-2.35,1.53-3.74,1.86c-3.51,0.83-9.96-1.72-8.43-3.13c1.61-1.33,2.85-2.64,3.68-3.7
			C362.79,587.03,366.6,588.89,368.42,589.72z"/>
		<path class="st4" d="M380.31,592.13c-2.17,2.17-3.93,3.84-4.52,4.17c-1.73,0.96-8.85-0.3-8.24-0.89c2.45-2.36,3.55-4.6,3.96-6.15
			C375.49,591.29,378.76,591.93,380.31,592.13z"/>
		<path class="st5" d="M391.81,580.28c-1.6,1.64-7.31,7.67-11.5,11.85c-1.55-0.2-4.82-0.84-8.8-2.87v-0.01c0.34-1.3,0.2-2.1,0-2.07
			c-0.27,0.04-1.43,1.34-3.09,2.54c-1.82-0.83-5.63-2.69-8.49-4.97c1.06-1.33,1.49-2.26,1.24-2.3c-0.45-0.06-6.45,2.43-8.81,2.88
			c-2.36,0.44-6.89-5.88-6.06-6.26c4.15-1.21,3.44-3.45,2.61-3.94c-0.83-0.48-3.83-0.14-4.72-0.66c-0.58-0.33-3.57-4.92-4.4-12.11
			c0.55,1.06,1.28,2.05,2.23,2.34c0.83,0.39-1.15-20.29,13.21-24.18c-1,1.93-0.99,4.61-0.8,6.5c-1.87,4.38-2.55,8.56,0.8,9.2
			c0,0,9.83,8.4,8.88,18.91c2.42-1.46,3.95-5.27,4.26-8.78c0.17,0.65,0.31,1.34,0.4,2.06c0.95,7.72,4.21,6.96,12.19,6.72
			C388.94,574.9,394.23,577.79,391.81,580.28z"/>
		<path class="st2" d="M378.85,532.5c-1.91,4.78-5.72,12.64-10.42,13.36c-4.56,0.69-6.64-1.77-7.52-3.46
			c1.97-3.3,4.14-6.35,5.47-7.16c-0.51-1.58-5.58-1.92-10.81-1.63c-2.66-17.35,5.72-30.5,8.45-34.25
			c3.97,11.85,12.28,18.3,14.28,21.82C379.68,524.28,379.6,528.36,378.85,532.5z"/>
		<path class="st4" d="M355.57,533.61c-4.29,0.24-8.7,0.89-10.8,1.63c-0.86-1.25,0.68-9.64,1.44-10.49
			c0.77-0.85,6.13-4.68,6.13-4.68s-2.64-0.6-4.68-0.6c0.77-4.51,6.21-14.89,7.57-15.4c1.37-0.51,3.41-0.51,3.41-0.51
			s-0.6-1.11-2.26-2.3c2.34-5.36,6.28-6.73,6.94-4.25c0.22,0.81,0.45,1.59,0.7,2.35C361.29,503.11,352.91,516.26,355.57,533.61z"/>
		<path class="st3" d="M385.19,568.24c-3.49,0-10.64,1.53-11.15,1.28c-0.51-0.26-4.25-9.96-5.61-11.07
			c-1.36-1.1-11.24-4.93-11.92-6.29c-0.38-0.77,1.84-5.48,4.4-9.76c0.88,1.69,2.96,4.15,7.52,3.46c4.7-0.72,8.51-8.58,10.42-13.36
			c-1.59,8.91-6.23,18.13-6,18.69C373.19,552.02,383.49,562.2,385.19,568.24z"/>
		<path class="st4" d="M467.15,330.13c-1.19-1.59-21.66,9.52-21.66,9.52l0.74-3.3c0.1-0.45-0.39-0.8-0.77-0.55
			c-3.28,2.13-13.52,8.52-20.78,10.48c-0.61,0.17,0.89-6.79,0.88-10.25c0-0.7-0.86-1.03-1.33-0.5
			c-8.41,9.62-40.13,33.61-56.23,52.88c-14.74,17.64-3.79,36.47-0.81,40.91v0.01c3.95,0.56,18.18,2.05,23.92-4.75l0.41-0.49
			l0.55,0.34c1.28,0.79,4.69,0.2,6.54-0.35l0.81-0.25l0.15,0.83c0.02,0.1,1.93,10.22,8.54,14.61c2.92,1.94,6.36,2.49,10.22,1.64
			c8.45-1.86,15.89-5.34,21.87-8.14c5.5-2.57,9.13-4.27,11.24-3.65c2.06,0.59,3.64,2.51,4.12,4.99c0.58,3-0.57,6.08-3.08,8.41
			c-1.01,2.79-2.53,8.07-3.03,15.34c-0.77,11.15-6.71,22.21-5.56,22.21c1.15,0,21.45,4.4,22.41,4.47c0.95,0.06,2.23-0.38,2.1-2.04
			c-0.12-1.66-3.38-6.58-3.83-9.26c-0.44-2.68,6.75,3.43,6.32,0.45C458.24,385.11,467.15,330.13,467.15,330.13z M438.85,411.09
			c-0.71,9.73-13.78,17.3-22.58,6.13c-1.39,1.01-2.82,1.73-4.27,2.08c-8.26,1.96-12.43-2.87-12.43-2.87s14.9,3.3,20.86-6.83
			c5.95-10.13,9.78-30.3,15.23-29.23c-1.97,1.71-3.23,4.79-4.39,8.9c1.19-0.55,2.92-1,4.6-0.26c-2.3,0.92-4.36,2.85-5.63,4.25
			c-0.19,0.77-0.38,1.57-0.58,2.39c-0.03,0.11-0.05,0.22-0.09,0.34C431.91,397.44,439.46,402.78,438.85,411.09z"/>
		<path class="st4" d="M429.66,454.41c-13.41,8.04-37.79,19.79-45.06,65.49c-0.64,2.55-19.92-13.9-23.75-42.44
			c-2.55-20.01,5.33-42.59,6.79-46.55c4.8,0.64,18.04,1.71,24.23-4.92c1.91,0.7,4.94,0.1,6.39-0.26c0.33,1.43,1.19,4.54,2.91,7.73
			c-1.01,1.22-4.19,4.79-9.14,7.89c-0.67-0.54-2.21-1.75-2.46-1.75c-0.19,0-0.83,1.59-0.93,3.63c-3.56,1.74-7.78,3.04-12.56,3.22
			c-5.61,12.26-3.91,36.94,7.41,48.6C391.57,478.71,412.6,461.01,429.66,454.41z"/>
		<path class="st4" d="M451.58,441.32c-0.01-0.01-0.02,0-0.03,0.02c-0.36,0.21-0.77,0.46-1.23,0.73c0.29-1,0.66-3.66-3.43-4.13
			c-5.04-0.57-20.36,7.41-30.25,8.75c-7.55,1.02-11.57-6.12-13.05-9.57c1.04,1.28,2.27,2.45,3.69,3.4c3.27,2.17,7.09,2.8,11.37,1.86
			c8.61-1.9,16.46-5.57,22.19-8.25c4.62-2.16,8.61-4.03,10.18-3.57c1.5,0.43,2.7,1.94,3.07,3.83
			C454.55,436.83,453.62,439.34,451.58,441.32z"/>
		<path class="st6" d="M450.32,442.07c-4.04,2.4-11.66,6.94-20.66,12.34c-17.06,6.6-38.09,24.3-46.17,40.64
			c-11.32-11.66-13.02-36.34-7.41-48.6c4.78-0.18,9-1.48,12.56-3.22c-0.07,1.4,0.13,3.03,0.93,4.48c1.59,2.87,7.86,4.28,7.86,4.28
			v-0.62c0,0-6.71-3.77-5.09-9.77c0,0-0.12-0.1-0.31-0.25c4.95-3.1,8.13-6.67,9.14-7.89c0.66,1.24,1.47,2.49,2.41,3.65
			c0.01,0,0.01,0.01,0.01,0.01c1.48,3.45,5.5,10.59,13.05,9.57c9.89-1.34,25.21-9.32,30.25-8.75
			C450.98,438.41,450.61,441.07,450.32,442.07z"/>
		<path class="st2" d="M432.27,491.75c-7.57,7.51-14.82,7.9-15.08,7.13c-0.05-0.14-0.11-0.5-0.19-1.02
			c1.26-1.89,3.51-4.51,3.51-4.51c2.67-1.72,4.88-3.83,6.72-6.16c0.01,0,0.01-0.01,0.01-0.01c9.74-12.34,9.07-30.99,9.78-31.71
			c0.33-0.34,2.02-1.48,3.93-2.71C441.47,458.26,442.41,477.35,432.27,491.75z"/>
		<path class="st2" d="M420.51,493.35c0,0-2.25,2.62-3.51,4.51c-0.51-3.41-1.57-13.75-1.37-14.04c0.22-0.35,2.58-2.13,2.58-2.13
			S420.08,489.43,420.51,493.35z"/>
		<path class="st3" d="M439.49,482.03c-2.29,4.12-4.77,7.29-7.22,9.72c10.14-14.4,9.2-33.49,8.68-38.99
			c2.89-1.88,6.28-4.01,6.28-4.01S448.85,465.18,439.49,482.03z"/>
		<path class="st3" d="M427.24,487.18c0,0,0,0.01-0.01,0.01c-1.84,2.33-4.05,4.44-6.72,6.16c-0.43-3.92-2.3-11.66-2.3-11.66
			c3.92-3.22,10.56-5.96,11.07-6.22C429.71,475.26,429.46,481.97,427.24,487.18z"/>
		<path class="st2" d="M424.34,475.05c-6.98,3.83-9.79,6.21-11.66,10.04c-1.87,3.83-5.02,4.05-4.85,3.32
			c0.08-0.32,0.32-1.35,0.63-2.73c1.02-2.1,3.5-5.98,9.16-10.21c7.71-5.77,9.03-8.53,9.08-14.59c1.56-1.08,2.62-1.75,2.75-1.75
			C430.04,459.13,431.32,471.22,424.34,475.05z"/>
		<path class="st3" d="M426.7,460.88c-0.05,6.06-1.37,8.82-9.08,14.59c-5.66,4.23-8.14,8.11-9.16,10.21
			c0.76-3.36,1.92-8.75,2.03-10.8C410.61,472.65,421.46,464.5,426.7,460.88z"/>
		<path class="st4" d="M405.28,490.6c-1.92,0-5.81-4.27-5.62-5.1s2.3-3.51,3.38-4.62c1.09-1.1,2.87-1.7,2.87,0
			C405.91,482.59,406.13,490.6,405.28,490.6z"/>
		<path class="st4" d="M414.34,501.45c0.06,0.51-2.81,3.2-3.77,2.88c-0.95-0.32-3.57-9.45-3.25-10.98c0.32-1.53,5.62-3.36,5.74-3.07
			C413.57,491.5,414.28,500.94,414.34,501.45z"/>
		<path class="st4" d="M402.21,499.16c0,0.7-0.06,2.61-0.89,2.93c-0.84,0.32-7.34-0.06-7.34-0.7c0-0.64,2.32-9.39,2.93-8.94
			C399.15,494.11,402.21,498.45,402.21,499.16z"/>
		<polygon class="st2" points="410.13,507.65 410.13,512.24 398.67,512.24 399.65,507.65 		"/>
		<polygon class="st2" points="438.4,507.65 438.4,512.24 426.95,512.24 427.93,507.65 		"/>
		<polygon class="st2" points="424.68,507.65 424.68,512.24 413.22,512.24 414.21,507.65 		"/>
		<polygon class="st2" points="452.96,507.65 452.96,512.24 441.5,512.24 442.48,507.65 		"/>
		<polygon class="st2" points="466.87,507.65 466.87,512.24 455.42,512.24 456.4,507.65 		"/>
		<polygon class="st3" points="445.11,529.79 445.11,533.5 389.64,533.5 391.62,529.79 405.94,529.79 405.94,518.35 397.36,518.35 
			398.67,512.24 410.13,512.24 410.13,529.79 420.49,529.79 420.49,518.35 411.91,518.35 413.22,512.24 424.68,512.24 
			424.68,529.79 434.22,529.79 434.22,518.35 425.64,518.35 426.95,512.24 438.4,512.24 438.4,529.79 		"/>
		<polygon class="st3" points="452.96,512.24 452.96,526.5 448.77,526.5 448.77,518.35 440.19,518.35 441.5,512.24 		"/>
		<polygon class="st3" points="466.87,512.24 466.87,518.35 454.11,518.35 455.42,512.24 		"/>
		<polygon class="st3" points="437.64,534.9 437.64,538.6 387.47,538.6 388.87,534.9 		"/>
		<path class="st4" d="M472.85,504.84c-1.62,0-47.86-0.29-54.64-0.49c-0.87-0.02-0.85-1.9,1.02-2.49
			c1.88-0.6,12.17-1.87,17.45-10.04c2.68,0.62,6.47,0.62,6.47,0.62s13.36,5.19,28.85,5.64
			C474.55,498.54,474.47,504.84,472.85,504.84z"/>
		<path class="st3" d="M303.28,513.52c-5.75,21.32-2.56,31.27-3.96,31.27c-5.49-0.63-7.41-11.1-6.13-15.7
			c0.02-0.08,0.05-0.16,0.07-0.25h-24.83v-2.49H294c1.17-3.76,2.38-7.31,1.62-7.66c-0.96-0.45-16.47-1.6-22.34-1.6
			c-5.88,0-7.73,0.26-7.73,2.17c0,1.92-4.47,2.24-4.47-0.44v-9.71c0-4.02,3.96-3.51,3.96-2.17c0,1.34,0,2.88,0,2.88
			C303.91,511.22,303.28,511.86,303.28,513.52z"/>
		<path class="st7" d="M75.02,517.43v2.05H249.4v2H75.02v2.04H249.4v2H75.02v2.04H249.4v2H75.02v2.04H249.4v2H75.02v2.05H249.4v2
			H75.01c-0.13,1.4-1.31,2.49-2.73,2.49H24.91c-4.47,0-8.1-3.63-8.1-8.11v-10.85c0-4.48,3.63-8.11,8.1-8.11h47.37
			c1.38,0,2.52,1.02,2.71,2.36H249.4v2H75.02z"/>
		<path class="st4" d="M483.79,499.01v23.19c-1.9,1.42-3.86,2.86-5.88,4.3l-0.51-28.17C477.4,498.33,479.7,498.64,483.79,499.01z"/>
		<path class="st2" d="M510.6,500.24c0,0-11.17,10.29-26.81,21.96v-23.19C489.61,499.52,499.05,500.16,510.6,500.24z"/>
		<path class="st4" d="M522.34,492.44l-5.74,4.88c-51.07,0.53-72.6-7.42-72.6-7.42v-6.34C468.3,492.28,522.34,492.44,522.34,492.44z
			"/>
		<path class="st4" d="M481.65,308.96c-4.2,0.22-4.2,0.22-4.2,0.22s1.75-4.33,1.94-12.05c0.18-7.72-0.54-12.67-0.54-12.67
			s1.82-1.01,4.74-2C483.79,286.16,484.24,299.08,481.65,308.96z"/>
		<path class="st2" d="M492.53,280.67c0,0-5.31,19.35-7.09,28.09c-1.54,0.08-2.79,0.15-3.79,0.2c2.59-9.88,2.14-22.8,1.94-26.5
			C485.97,281.66,489.08,280.87,492.53,280.67z"/>
		<path class="st1" d="M502.11,279.9l-5.18,28.96l-4.4-0.43c1.98-6.83,5.75-28.17,5.75-28.17L502.11,279.9z"/>
		<path class="st4" d="M480.92,313.69c-1,4.52-4.17,19.22-4.98,27.74c-4.66,0-4.66,0-4.66,0s0.64-15.99,5.49-27.59
			C478.38,313.78,479.78,313.73,480.92,313.69z"/>
		<path class="st2" d="M484.55,313.58c0,0-3.38,22.11-3.76,27.85h-4.85c0.81-8.52,3.98-23.22,4.98-27.74
			C483.26,313.62,484.55,313.58,484.55,313.58z"/>
		<path class="st1" d="M496.74,313.58l-3.25,28.37l-4.91-0.27c1.28-12.77,3.63-28.19,3.63-28.19L496.74,313.58z"/>
		<path class="st4" d="M474.6,376.2l-5.24,0.21c0,0-0.57-6.61,0-15.19c0.58-8.58,1.55-14.11,1.55-14.11l4.5-0.28
			C475.23,349.3,474.03,366.98,474.6,376.2z"/>
		<path class="st2" d="M479.95,375.98l-5.35,0.22c-0.57-9.22,0.63-26.9,0.81-29.37l4.8-0.29
			C480.21,346.54,479.69,366.29,479.95,375.98z"/>
		<path class="st1" d="M492.21,375.91h-4.08c-0.32-8.6,0.19-29.27,0.19-29.27l4.34,0.11C492.03,358.52,492.21,375.91,492.21,375.91z
			"/>
		<path class="st4" d="M474.85,412.58l-3.94,0.07l-1.54-30.87c0,0,2.24-0.25,5.06-0.49C474.39,385.27,474.29,401.27,474.85,412.58z"
			/>
		<path class="st2" d="M482.13,412.46l-7.28,0.12c-0.56-11.31-0.46-27.31-0.42-31.29c2.11-0.17,4.54-0.34,6.61-0.38
			C481.04,380.91,480.66,397.82,482.13,412.46z"/>
		<path class="st1" d="M492.66,412.65l-4.09-0.43c-0.38-7.28-0.55-31.31-0.55-31.31s1.83,0,4.26-0.12
			C491.13,396.97,492.66,412.65,492.66,412.65z"/>
		<path class="st4" d="M478.12,447.63c-4.61,0-4.61,0-4.61,0s-1.23-11.36-1.83-16.87c-0.59-5.52-1.32-13.04-0.77-13.37
			c0.24-0.15,2.43-0.28,4.86-0.4C475.91,420.53,476.74,439.93,478.12,447.63z"/>
		<path class="st2" d="M484.3,447.63h-6.18c-1.38-7.7-2.21-27.1-2.35-30.64c3.25-0.16,6.93-0.27,6.93-0.27
			S483.54,440.97,484.3,447.63z"/>
		<polygon class="st1" points="492.66,448.01 489.66,447.63 488.58,416.74 491.83,416.78 		"/>
		<path class="st4" d="M480,471.47c-0.13,7.15-0.6,12.62-0.79,14.64L474,485.3c0,0,3.29-6.6,2.07-15.83
			c-1.22-9.23-2.27-16.95-1.52-17.06c0.33-0.04,2.21-0.07,4.21-0.09C479.14,455.34,480.14,464.08,480,471.47z"/>
		<path class="st2" d="M482.72,486.65l-3.51-0.54c0.19-2.02,0.66-7.49,0.79-14.64c0.14-7.39-0.86-16.13-1.24-19.15
			c2.49-0.02,5.16-0.03,5.16-0.03S485.16,464.37,482.72,486.65z"/>
		<path class="st1" d="M491.96,452.41c0,0,0,6.15-0.64,13.87c-0.83-4.27-1.28-13.87-1.28-13.87H491.96z"/>
		<path class="st2" d="M524.17,282.11c-3.74,0.51-20.43-10.98-49.53,0c-1.36,0.51-4.34-2.98-5.45-8.59
			c-1.11-5.62-0.08-9.45,3.15-10.9c3.23-1.44,22.64-2.8,37.62-1.27c14.98,1.53,17.1,4.34,18.47,7.06
			C529.79,271.13,527.91,281.6,524.17,282.11z"/>
		<path class="st4" d="M429.91,419.94c-8.06,1.83-10.89-4.08-10.89-4.08s3.79-0.34,5.32-3.83c6.98,1.27,10.81-4.68,10.81-4.68
			S437.98,418.12,429.91,419.94z"/>
		<path class="st2" d="M581.87,288.24c-0.44,0.21-2.93,0.43-6.6,1.23c-5.82-0.41-16.18-1.12-19.19-1.06
			c-4.25,0.09,1.71,4.09,1.71,4.09s-18.22,1.13-18.13,1.88c0.08,0.75,2.72,2.88,2.72,2.88s-6.81,5.99-16.22,5.68
			c-1-4.5-1.54-8.18-0.71-8.56C557.62,279.5,582.98,287.73,581.87,288.24z"/>
		<path class="st1" d="M575.27,289.47c-5.58,1.21-13.9,3.74-21.91,9.49c-13.28,9.54-22.38,21.96-22.98,20.26
			c-0.86-3.22-2.93-10.44-4.22-16.28c9.41,0.31,16.22-5.68,16.22-5.68s-2.64-2.13-2.72-2.88c-0.09-0.75,18.13-1.88,18.13-1.88
			s-5.96-4-1.71-4.09C559.09,288.35,569.45,289.06,575.27,289.47z"/>
		<path class="st2" d="M799.11,291.04c-13.03,5.69-37.61,15.4-52.3,16.26c6.04,2.3,16.85,2.13,16.85,2.13s-13.96,2.39-27.41,4.34
			c-13.44,1.96-44.42,6.9-66.72-4.34c7.58,8.17,20,12.26,20,12.26s-12.17,3.15-42.3-12c-30.12-15.15-33.02-13.79-33.02-13.79
			s4.34,2.55,11.49,11.66c-24.42-10.38-47.49-6.81-47.49-6.81s16.51,1.7,26.3,7.49c-32.17-5.24-59.96,19.46-64.98,24.23
			c-2.58-1.29-5.61-2.69-8.75-3.89c-0.88-0.33,19.09-23.83,39.86-32.85c20.76-9.02,44.59-5.19,77.79,3.83
			c33.19,9.02,96.16,13.79,153.35-11.99C801.69,287.72,800.88,288.99,799.11,291.04z"/>
		<path class="st1" d="M799.11,291.04c-6.83,7.93-28.01,27.61-77.75,39.92c-63.45,15.71-115.53,1.92-168.89,43.03
			c-6.26-4.98-12.13-6.39-12.13-6.39s5.87-3.78,9.11-3.95c-4.77-8.86-13.71-11.66-13.71-11.66v-5.88l11.49-9.44
			c0,0-3.17-1.94-7.7-4.2c5.02-4.77,32.81-29.47,64.98-24.23c-9.79-5.79-26.3-7.49-26.3-7.49s23.07-3.57,47.49,6.81
			c-7.15-9.11-11.49-11.66-11.49-11.66s2.9-1.36,33.02,13.79c30.13,15.15,42.3,12,42.3,12s-12.42-4.09-20-12.26
			c22.3,11.24,53.28,6.3,66.72,4.34c13.45-1.95,27.41-4.34,27.41-4.34s-10.81,0.17-16.85-2.13
			C761.5,306.44,786.08,296.73,799.11,291.04z"/>
		<path class="st2" d="M890.64,243.65c-7.41,17.1-23.75,31.48-23.75,31.48l1.11-6.89c0,0-18.55,26.13-30.81,26.98
			c2.56-1.98,4.16-5.95,4.25-6.2c-0.42,0.21-13.21,6.84-19.57,9.26c-6.47,2.47-12,7.15-12,7.15s-1.19-0.38-1.19-3.7
			c-10.2,9.52-19.25,15.15-25.52,18.34c-2.75,0.29-5.56,0.51-8.44,0.68c0,0,21.88-13.79,30.22-25.28
			C831.15,290.11,860.25,270.2,890.64,243.65z"/>
		<path class="st1" d="M890.64,243.65c-5.41,24.83-35.46,69.1-107.48,76.42c6.27-3.19,15.32-8.82,25.52-18.34
			c0,3.32,1.19,3.7,1.19,3.7s5.53-4.68,12-7.15c6.36-2.42,19.15-9.05,19.57-9.26c-0.09,0.25-1.69,4.22-4.25,6.2
			c12.26-0.85,30.81-26.98,30.81-26.98l-1.11,6.89C866.89,275.13,883.23,260.75,890.64,243.65z"/>
		<path class="st2" d="M979.49,164.41c0.01,0.52-0.14,1.44-0.45,2.69c-7.65,5.64-15.88,26.99-15.72,27.61
			c0.17,0.68-0.17-0.68-3.07-5.28c-2.89,6.64-11.23,18.56-14.29,22.64c-3.07,4.09-4.77,13.62-4.77,13.62s-0.85-1.02-0.85-5.79
			c-2.89,8-19.23,19.06-23.32,23.75c-4.08,4.68-15.32,23.23-15.32,23.23s-1.74-3.75,0-10.55c-7.27,11.7-19.23,24.34-19.23,24.34
			c-0.76,0.39,7.83-7.32,19.06-33.37c0,0,30.64-26.89,52.94-57.53C976.77,159.13,979.32,157.6,979.49,164.41z"/>
		<path class="st1" d="M979.04,167.1c-3.75,15.05-30.3,78.78-66.27,100.46c-10.56,5.96-17.03,6.13-30.3,13.11
			c0,0,11.96-12.64,19.23-24.34c-1.74,6.8,0,10.55,0,10.55s11.24-18.55,15.32-23.23c4.09-4.69,20.43-15.75,23.32-23.75
			c0,4.77,0.85,5.79,0.85,5.79s1.7-9.53,4.77-13.62c3.06-4.08,11.4-16,14.29-22.64c2.9,4.6,3.24,5.96,3.07,5.28
			C963.16,194.09,971.39,172.74,979.04,167.1z"/>
		<path class="st4" d="M542.13,337.18l-8.6,7.15l-1.19-11.58C536.68,333.86,542.13,337.18,542.13,337.18z"/>
		<path class="st4" d="M544.34,361.28l-8.68,5.51l-0.85-12.59C539.4,356.41,544.34,361.28,544.34,361.28z"/>
		<path class="st4" d="M549.28,378.2c-7.39,8.16-12.85,10.21-12.85,10.21v-18.04C540.94,370.79,550.89,376.41,549.28,378.2z"/>
		<path class="st4" d="M545.79,404.16c-0.77,1.19-9.36,3.4-9.36,3.4v-16.94C541.79,392.84,546.55,402.96,545.79,404.16z"/>
		<path class="st4" d="M541.53,429.69c-1.02,0.85-5.45-3.32-5.45-3.32v-13.72C544,412.47,542.55,428.84,541.53,429.69z"/>
		<path class="st2" d="M731.78,342.9c-22.35,8.98-65.51,12.83-65.51,12.83s6.16,4.77,19.6,5.79c-12.42,2.72-54.47-4.94-66.21-2.22
			c7.32,2.05,6.64,5.28,6.64,5.28s-14.98-3.23-28.77,2.21c-13.79,5.45-22.47,9.12-22.47,9.12s18.05,0,25.54,4.46
			c-19.83-0.19-51.99,13.61-56.73,15.7c-1.45-3.18-2.72-5.79-2.72-5.79s8.64-8.76,32.51-22.42c23.87-13.66,50.42-15.58,91.79-17.36
			c41.36-1.79,67.4-9.58,67.4-9.58C732.51,341.59,732.16,342.25,731.78,342.9z"/>
		<path class="st1" d="M731.78,342.9c-17.16,30.05-69.45,38.69-113.44,47.72c-44.94,9.24-75.4,24-75.4,24l-3.37-3.15
			c0,0,8.51-2.12,8.6-4.34c0.05-1.28-2.3-6.7-4.3-11.06c4.74-2.09,36.9-15.89,56.73-15.7c-7.49-4.46-25.54-4.46-25.54-4.46
			s8.68-3.67,22.47-9.12c13.79-5.44,28.77-2.21,28.77-2.21s0.68-3.23-6.64-5.28c11.74-2.72,53.79,4.94,66.21,2.22
			c-13.44-1.02-19.6-5.79-19.6-5.79S709.43,351.88,731.78,342.9z"/>
		<path class="st2" d="M904.94,275.39c-3.24,6.98-14.3,16.17-14.3,16.17l-0.85-3.15l-16,7.92l-3.41,3.4c0,0,0,0-1.7-1.02
			c-4.08,5.96-13.62,11.06-13.62,11.06l2.21-4.75c-0.39,0.48-13.28,15.79-45.95,24.67c-22.98,6.24-46.12,5.06-58.18,3.75
			c3.29-1.83,6.55-3.59,7.11-3.75c1.2-0.34,32.35,4.59,61.79-10.39c29.45-14.97,50.04-31.74,50.04-31.74
			S887.23,286.62,904.94,275.39z"/>
		<path class="st1" d="M904.94,275.39c-5.62,18.89-26.05,43.23-81.71,57.87c-55.66,14.64-77.61,4.43-77.61,4.43
			c0.27-0.18,3.92-2.26,7.52-4.25c12.06,1.31,35.2,2.49,58.18-3.75c32.67-8.88,45.56-24.19,45.95-24.67l-2.21,4.75
			c0,0,9.54-5.1,13.62-11.06c1.7,1.02,1.7,1.02,1.7,1.02l3.41-3.4l16-7.92l0.85,3.15C890.64,291.56,901.7,282.37,904.94,275.39z"/>
		<path class="st2" d="M974.79,225.71c-4.36,4.26-8.44,11.86-9.34,14.28c-1.79-3.07-1.2-4.26-1.2-4.26s-3.91,3.23-7.31,7.92
			c-3.41,4.68-6.73,13.61-7.32,13.44c-0.6-0.17-0.85-6.81-1.71-9.02c-9.78,16.68-22.63,26.38-22.63,26.38s1.27-5.36,3.83-9.36
			c-6.15,3.72-17.78,23.22-23.17,32.66c-4.77,2.66-7.84,4.21-8.13,4.35c0.54-0.46,11.58-9.96,12.83-27.48
			c10.72-5.7,28.51-23.23,43.66-35.91C963.45,231.05,970.58,227.4,974.79,225.71z"/>
		<path class="st1" d="M979.06,224.33c0,0-5.02,22.55-28.08,42.63c-15.63,13.61-34.5,24.91-45.04,30.79
			c5.39-9.44,17.02-28.94,23.17-32.66c-2.56,4-3.83,9.36-3.83,9.36s12.85-9.7,22.63-26.38c0.86,2.21,1.11,8.85,1.71,9.02
			c0.59,0.17,3.91-8.76,7.32-13.44c3.4-4.69,7.31-7.92,7.31-7.92s-0.59,1.19,1.2,4.26c0.9-2.42,4.98-10.02,9.34-14.28
			C977.55,224.6,979.06,224.33,979.06,224.33z"/>
		<path class="st2" d="M963.4,284.62c-0.27,0.84-0.62,1.78-1.06,2.83c-5.63,2.2-15.52,12.72-16.13,12.79c-0.68,0.09,0-1.53,0-5.19
			c-5.02,4-17.1,14.64-17.1,14.64s0.59-5.45,4.25-10.47c-6.89,2.13-30.85,25.36-30.85,25.36s0.88-8.04-0.77-9.45
			c-3.88,13.91-13.1,26.46-18.27,32.8c-1.7,0.65-3.44,1.29-5.22,1.93c0,0,16.6-13.41,11.37-33.96
			C906.72,304.94,951.66,283.09,963.4,284.62z"/>
		<path class="st1" d="M962.34,287.45c-5.28,12.67-23.48,39.46-78.87,60.48c5.17-6.34,14.39-18.89,18.27-32.8
			c1.65,1.41,0.77,9.45,0.77,9.45s23.96-23.23,30.85-25.36c-3.66,5.02-4.25,10.47-4.25,10.47s12.08-10.64,17.1-14.64
			c0,3.66-0.68,5.28,0,5.19C946.82,300.17,956.71,289.65,962.34,287.45z"/>
		<path class="st2" d="M883.64,325.11c-4.85,1.56-12.66,4.77-19.56,10.71c-10.97,9.44-19.65,10.62-19.65,10.62s1.91-3.09,3.06-8.07
			c-9.18,6.8-28.09,16.21-49.15,16.85c-21.06,0.64-30.77,1.91-30.77,1.91s2.43-2.8,0.51-4.85c-1.91-2.04-16.72-2.42-16.72-2.42
			s4.72,3.19,4.72,5.23c-9.48,0-20.84,4.41-27,7.16c-0.37-0.21-0.73-0.43-1.08-0.65c9.45-9.83,12.25-19.53,12.25-19.53
			s27.49,11.62,66.03,4.37c38.54-7.26,74.49-25.6,77.72-25.69C884.83,320.73,884.77,322.38,883.64,325.11z"/>
		<path class="st1" d="M883.64,325.11c-3.29,7.91-15.64,24.91-41.85,36.49c-34.61,15.3-92.17,12.5-112.71,0.65
			c6.16-2.75,17.52-7.16,27-7.16c0-2.04-4.72-5.23-4.72-5.23s14.81,0.38,16.72,2.42c1.92,2.05-0.51,4.85-0.51,4.85
			s9.71-1.27,30.77-1.91c21.06-0.64,39.97-10.05,49.15-16.85c-1.15,4.98-3.06,8.07-3.06,8.07s8.68-1.18,19.65-10.62
			C870.98,329.88,878.79,326.67,883.64,325.11z"/>
		<path class="st2" d="M702.59,378.46c-0.1,0.23-1.42,3.16-3.95,7.37c-11.58,5.41-40.99,20.62-52.85,31.26
			c3.15-8.68,12.51-14.98,12.51-14.98s-13.45,1.62-30.9,12c-17.44,10.39-40.91,26.39-51.25,29.64c8.87-6.7,17.68-19.47,17.68-19.47
			s-26.62,18.96-35.75,19.98c10.58-6.93,13.12-14,13.27-14.44c-0.24,0.21-8.24,7.42-17.29,10.93c-6.12,2.39-11.48,5.16-14.38,6.75
			c-0.48-0.76-1.02-1.47-1.64-2.03c-2.93-2.68-4.59-7.91-2.55-14.55c0,0,7.4,2.95,9.06,2.37c1.66-0.58-0.51-6.71,0-7.73
			c0.51-1.02,27.19-16.85,76.22-25.02C669.41,392.43,702.09,378.67,702.59,378.46z"/>
		<path class="st1" d="M698.64,385.83c-3.98,6.6-10.92,16.34-20.81,23.77c0,0-20.68,1.15-32.3,15.58
			c-18.51-7.53-34.47-2.05-37.66,16.34c-22.08,20.42-25.91,24.25-29.74,25.53c-3.83,1.28-4.98-16.47-4.98-16.47
			s-21.45,18.64-23.62,19.53c-2.17,0.9-9.06,0.51-9.32,0c-0.25-0.51-6.25-10.46-6.25-11.87c0-1.4,0.76-3.19,1.27-4.08
			c0.51-0.9,7.11-0.13,7.11-0.13s-0.85-3.67-2.66-6.53c2.9-1.59,8.26-4.36,14.38-6.75c9.05-3.51,17.05-10.72,17.29-10.93
			c-0.15,0.44-2.69,7.51-13.27,14.44c9.13-1.02,35.75-19.98,35.75-19.98s-8.81,12.77-17.68,19.47
			c10.34-3.25,33.81-19.25,51.25-29.64c17.45-10.38,30.9-12,30.9-12s-9.36,6.3-12.51,14.98
			C657.65,406.45,687.06,391.24,698.64,385.83z"/>
		<path class="st4" d="M540.85,478.03c-0.89,2.3-8.68,2.62-8.68,2.62v-14.88C532.87,461.5,541.74,475.73,540.85,478.03z"/>
		<path class="st2" d="M742.21,377.77c-1.48,0.89-2.97,1.79-4.45,2.7c-4.22-1.59-14.95-2.9-20.31-2.02c0-1.87,1.36-4.46,1.36-4.46
			s-3.92,1.14-6.47,5.31s-4.68,8.52-4.68,8.52v-5.34l2.3-5.73l12.08-8.47C722.04,368.28,732.43,375.39,742.21,377.77z"/>
		<path class="st1" d="M737.76,380.47c-9.46,5.83-18.55,11.82-24.14,13.73c-0.24,0.08-8.51-5.36-8.51-5.36l2.55-6.36v5.34
			c0,0,2.13-4.35,4.68-8.52s6.47-5.31,6.47-5.31s-1.36,2.59-1.36,4.46C722.81,377.57,733.54,378.88,737.76,380.47z"/>
		<path class="st2" d="M847.74,370.28c0,0-0.2,0.81-0.71,2.18c0,0.01,0,0.01-0.01,0.01c-3.39,2.5-9.27,4.75-14.98,6.37
			c-6.76,1.91-13.4,7.91-13.4,7.91l2.55-4.47c0,0-26.04,14.81-38.04,11.92c5.94-2.8,7.79-7.04,7.9-7.31
			c-0.32,0.1-13.65,4.3-24.5,1.93c-10.73-2.35-18.89,0.72-19.26,0.86c0.13-0.2,1.77-2.51,7.26-4.59c-2.3-1.4-6.39-2.59-9.02-3.26
			v-3.38c0,0,24.26,4.22,50.47,2.45C822.21,379.13,847.74,370.28,847.74,370.28z"/>
		<path class="st1" d="M847.02,372.47c-2.64,7.09-13.51,29.16-47.28,32.79c-40.34,4.34-54.21,0.6-54.21,0.6v-24.03
			c2.63,0.67,6.72,1.86,9.02,3.26c-5.49,2.08-7.13,4.39-7.26,4.59c0.37-0.14,8.53-3.21,19.26-0.86c10.85,2.37,24.18-1.83,24.5-1.93
			c-0.11,0.27-1.96,4.51-7.9,7.31c12,2.89,38.04-11.92,38.04-11.92l-2.55,4.47c0,0,6.64-6,13.4-7.91
			C837.75,377.22,843.63,374.97,847.02,372.47z"/>
		<path class="st2" d="M935.06,331.47c-0.42,1.09-0.96,2.21-1.63,3.35c-3.25,2.71-8.19,5.65-14.45,8.91
			c-10.3,5.36-12.17,10.72-12.17,10.72s0.42-3.74,1.53-5.61c-6.64,2.29-11.4,8.25-18.89,11.91c2.12-3.4,2.63-5.87,2.63-5.87
			s-9.1,5.28-16.34,8.51c-7.23,3.23-11.66,12.68-11.66,12.68s-0.17-3.23-0.76-6.64c-1.56,10.14-5.2,15.83-7.52,18.55
			c-0.95,0.32-1.84,0.6-2.69,0.84c0,0,6.38-7.69,2.29-25.56C854.94,361.22,912.6,346.28,935.06,331.47z"/>
		<path class="st1" d="M933.43,334.82c-11.25,19.35-56.33,45.98-77.63,53.16c2.32-2.72,5.96-8.41,7.52-18.55
			c0.59,3.41,0.76,6.64,0.76,6.64s4.43-9.45,11.66-12.68c7.24-3.23,16.34-8.51,16.34-8.51s-0.51,2.47-2.63,5.87
			c7.49-3.66,12.25-9.62,18.89-11.91c-1.11,1.87-1.53,5.61-1.53,5.61s1.87-5.36,12.17-10.72
			C925.24,340.47,930.18,337.53,933.43,334.82z"/>
		<path class="st2" d="M797.45,416.56c-0.21,0.55-0.43,1.09-0.66,1.62c-5.55,0.5-15.17,1.68-21.73,4.27
			c-9.4,3.71-20.55,9.18-21.24,9.52c0.46-0.48,7.03-7.11,18.26-13.09c-13.12,5.32-23.04,5.75-27.87,5.52v-9.78
			C767.45,416.71,797.45,416.56,797.45,416.56z"/>
		<path class="st1" d="M796.79,418.18c-11.9,27.45-52.58,25-52.58,25V424.4c4.83,0.23,14.75-0.2,27.87-5.52
			c-11.23,5.98-17.8,12.61-18.26,13.09c0.69-0.34,11.84-5.81,21.24-9.52C781.62,419.86,791.24,418.68,796.79,418.18z"/>
		<path class="st2" d="M762.3,447.82c-0.74,1.1-1.5,2.13-2.26,3.09c-4.28,1.32-9.09,3.81-9.39,3.96c0.01-0.07,0.12-0.53,0.92-3.82
			c-3.73,2.61-6.01,3.76-7.36,4.24v-7.05L762.3,447.82z"/>
		<path class="st1" d="M760.04,450.91c-7.69,9.73-15.83,12.48-15.83,12.48v-8.1c1.35-0.48,3.63-1.63,7.36-4.24
			c-0.8,3.29-0.91,3.75-0.92,3.82C750.95,454.72,755.76,452.23,760.04,450.91z"/>
		<path class="st2" d="M884.17,390.71c0,0-1.07,1.1-3.26,2.83c-3.16-0.08-7.89,0.72-11.04,3.21c-0.59-2.13-0.93-3.83-0.93-3.83
			s-7.66,3.49-14.56,9.7c0.33-2.96,1.94-6,2.04-6.2c-0.24,0.22-4.21,3.68-10.89,4.67c-6.93,6.04-13.65,9.79-19.22,12.13h-0.01
			c-3.34,0.3-6.83,0.49-10.47,0.55c0,0,15.15-5.7,25.11-16c18.55-3.2,28.51-9.36,28.51-9.36L884.17,390.71z"/>
		<path class="st1" d="M880.91,393.54c-6.86,5.42-24.69,16.98-54.6,19.68c5.57-2.34,12.29-6.09,19.22-12.13
			c6.68-0.99,10.65-4.45,10.89-4.67c-0.1,0.2-1.71,3.24-2.04,6.2c6.9-6.21,14.56-9.7,14.56-9.7s0.34,1.7,0.93,3.83
			C873.02,394.26,877.75,393.46,880.91,393.54z"/>
		<path class="st2" d="M841.45,423.9c0,0-0.88,2.89-3.65,6.28c-4.4,1.05-7.67-1.94-7.67-1.94s-4,5.02-4.77,3.75
			c-0.76-1.28-1.19-2.39-1.19-2.39s-11.32,1.11-14.21,2.05c-2.9,0.93-13.88,9.19-13.88,9.19s1.03-3.07,3.15-7.92
			c-3.99,4.14-9.98,7.8-14.2,10.11c0,0,0,0-0.01,0c-2.74,0.22-4.97,0.53-6.55,1.04c0,0,17.96-9.87,22.13-20.17
			C823.91,423.9,841.45,423.9,841.45,423.9z"/>
		<path class="st1" d="M837.8,430.18c-3.17,3.85-8.79,8.35-18.4,9.98c-13.5,2.29-26.19,2.2-34.37,2.87
			c4.22-2.31,10.21-5.97,14.2-10.11c-2.12,4.85-3.15,7.92-3.15,7.92s10.98-8.26,13.88-9.19c2.89-0.94,14.21-2.05,14.21-2.05
			s0.43,1.11,1.19,2.39c0.77,1.27,4.77-3.75,4.77-3.75S833.4,431.23,837.8,430.18z"/>
		<path class="st4" d="M692.34,414.62v17.88l-14.98,6.97l1.02,41.03c0,0,11.58,8.68,16.85,18.21
			c41.37-21.45,41.37-21.45,41.37-21.45l2.63-89.44L692.34,414.62z M729.11,439.82l-42.56,20.93v-15.23l42.56-28.51V439.82z"/>
		<polygon class="st8" points="729.11,417.01 729.11,439.82 686.55,460.75 686.55,445.52 		"/>
		<path class="st2" d="M684.47,426.58c-1.41,3.45-8.36,4.09-8.36,4.09s-2.11,11.49-11.17,20.42c4.89,7.69,6.4,14.54,6.48,19.95
			c-2.96,4.49-8.32,12.13-9.89,11.41c-1.51-0.7-3.5-2.55-4.61-3.65c0.6-3.44,1.42-6.7,2.48-8.15c-0.95-0.32-4.67-0.08-9.02,1.61
			c-1.35-1.74-3.61-5.47-4.25-11.51c-0.94-8.76,1.19-18.34,1.19-18.34s2.38-8.12,8.04-12.83c5.01-1.82,9.32-1.98,9.32-1.98
			s-1.01-0.73-3.17-1.3c2.65-1.75,9.55-5.55,18.03-4.29C681.26,423.2,682.9,424.73,684.47,426.58z"/>
		<path class="st4" d="M646.13,460.75c-2.73-1.28-6.73,2.09-6.73,2.09s0.13-9.32,0.96-12.73c0.83-3.4,6.96-7.7,6.96-7.7
			S645.19,451.99,646.13,460.75z"/>
		<path class="st4" d="M650.38,472.26c-3.45,1.34-7.3,3.59-10.47,7.21c-0.85-4.51-0.51-12.59-0.51-12.59s1.96-3.41,6.73-6.13
			C646.77,466.79,649.03,470.52,650.38,472.26z"/>
		<path class="st4" d="M655.36,429.58c-5.66,4.71-8.04,12.83-8.04,12.83s-2.68-1.4-5.49-1.02
			C644.69,434.84,650.37,431.39,655.36,429.58z"/>
		<path class="st4" d="M679.54,422.01c-8.48-1.26-15.38,2.54-18.03,4.29c-1.96-0.52-4.87-0.91-8.83-0.48
			C661.66,417.79,671.33,416.23,679.54,422.01z"/>
		<path class="st1" d="M687.28,494.75l-9.92,6.64c-8.17-11.36-21.79-11.45-21.79-11.45s0.41-5.78,1.35-11.14
			c1.11,1.1,3.1,2.95,4.61,3.65c1.57,0.72,6.93-6.92,9.89-11.41c0.13,7.72-2.65,12.48-2.65,12.48
			C681.15,487.73,687.28,494.75,687.28,494.75z"/>
		<path class="st2" d="M694.84,504.4c-0.42,3.21-1.6,7.82-4.88,11.5c-4.47,5.01-10.61,5.82-12.93,5.94c0.2-2.36-0.43-4.15-0.43-4.15
			c-4.04,4.1-9.09,3.84-11.02,3.56c1.4-2.36,1.4-4.07,1.4-4.07s-4,5.1-7.41,5.36c-3.4,0.25-7.06-3.58-6.8-4
			c0.25-0.43,2.63-3.66,2.63-3.66h-6.21c0,0-2.74-1.74-5.28-5.63c-0.62-5.45-2.07-25.56,9.67-29.38c-0.89,5.97-1.79,13.96-0.3,14.07
			c0,0,7.57,1.71,11.06,8.34c3.15,6,5.64,6.28,7.76,1.65c1.66,1.54,3.96,1.93,9.43,0.48C687.43,502.85,692.24,502.14,694.84,504.4z"
			/>
		<path class="st4" d="M654.64,473.43c0,0-0.53,2.86-1.06,6.44c-11.74,3.82-10.29,23.93-9.67,29.38c-1.85-2.81-3.58-6.76-4.08-11.99
			C638.3,477.86,654.64,473.43,654.64,473.43z"/>
		<path class="st4" d="M672.1,503.93c-2.12,4.63-4.61,4.35-7.76-1.65c-3.49-6.63-11.06-8.34-11.06-8.34
			c2.38,0.17,11.32-0.34,15.06,4.77C669.96,500.92,670.84,502.75,672.1,503.93z"/>
		<path class="st4" d="M676.6,517.69c0,0-2.81,6.47-4.94,7.83c-2.13,1.36-6.89,1.36-8.77-0.94c1.23-1.18,2.09-2.31,2.69-3.33
			C667.51,521.53,672.56,521.79,676.6,517.69z"/>
		<path class="st4" d="M696.85,512.67c-1.02,11.06-16.77,16.08-21.36,13.77c1.02-1.56,1.43-3.19,1.54-4.6
			c2.32-0.12,8.46-0.93,12.93-5.94c3.28-3.68,4.46-8.29,4.88-11.5C696.48,505.81,697.24,508.39,696.85,512.67z"/>
		<path class="st2" d="M647.06,518.11c-3.74,2.73-10.12-4.85-10.12-4.85c-9.19-0.6-12.36-6.26-13.43-9.54
			c1.51-3.73,3.99-7.49,4.14-7.72c-0.2,0.08-2.57,1.12-5.03,3.09c-3.76-5.08-5.49-13.65-5.99-16.52c2.98-3.13,6.38-5.25,6.59-5.38
			c-0.21,0.02-3.1,0.49-6.15,2.05c-1.99-8.67-1.64-15.77-1.28-19.12c5.13-4.19,12.29-7.03,12.29-7.03s-5.29,0.35-11.16,2.85
			c0.02-7.46,1.45-12.65,2.25-14.95c3.31-1.64,7.59-2.99,12.49-3.39c-1.72-1.8-5.43-1.72-8.99-1.1c4.08-5.96,9.22-8.72,12.26-9.92
			h0.01c4.75,1.09,8.04,3.96,8.04,3.96s0,0-0.01,0.02c-0.45,0.4-14.69,13.73-16.33,40.09c-1.32,21.09,8.83,31.59,13.21,35.09
			C642.64,512.58,645.72,516.77,647.06,518.11z"/>
		<path class="st4" d="M617.07,479.24c-2.02,1.02-4.13,2.51-5.58,4.66c-1.19-1.36-2.81-10.3-0.51-17.62
			c0.7-2.23,2.56-4.33,4.81-6.16C615.43,463.47,615.08,470.57,617.07,479.24z"/>
		<path class="st4" d="M622.62,499.09c-1.59,1.27-3.22,2.93-4.34,4.98c-4.62-4.25-5.94-13.96-5.43-16c0.82-2.01,2.25-3.89,3.78-5.5
			C617.13,485.44,618.86,494.01,622.62,499.09z"/>
		<path class="st4" d="M619.17,440.99c-0.8,2.3-2.23,7.49-2.25,14.95c-1.83,0.78-3.72,1.76-5.52,3.02
			c-0.51-3.66-0.85-9.36,0.77-12.42C613.02,444.93,615.51,442.78,619.17,440.99z"/>
		<path class="st4" d="M634.93,426.58c-3.04,1.2-8.18,3.96-12.26,9.92c-4.24,0.75-8.28,2.28-8.53,2.37
			c0.09-0.25,3.32-8.38,12.11-11.74C629.38,425.94,632.36,426,634.93,426.58z"/>
		<path class="st4" d="M636.94,513.26c0,0-2.3,3.32-5.2,3.66c-2.89,0.34-8.93-3.74-9.36-8.08c-0.14-1.41,0.37-3.27,1.13-5.12
			C624.58,507,627.75,512.66,636.94,513.26z"/>
		<path class="st1" d="M634.3,476.41c0.09,12.44,2.67,22.29,5.55,29.33c-4.38-3.5-14.53-14-13.21-35.09
			c1.64-26.36,15.88-39.69,16.33-40.09C642.71,431.2,634.13,452.28,634.3,476.41z"/>
		<path class="st4" d="M775,511.73h-34.87c0,0-9.45-10.68-21.07-17.79l17.88-9.4c18.51,6.64,27.95,17.36,27.95,17.36s0,0-1.02-3.77
			C770.28,502.81,773.59,508.63,775,511.73z"/>
		<path class="st2" d="M781.23,511.73H775c-1.41-3.1-4.72-8.92-11.13-13.6c1.02,3.77,1.02,3.77,1.02,3.77s-9.44-10.72-27.95-17.36
			C736.94,484.54,760.55,485.94,781.23,511.73z"/>
		<path class="st4" d="M624.72,525.01l3.72-1.66c0,0-9.08-1.67-14.7-16.22c-14.8-6.92-14.97-29.87-14-48l-27.57,21.71l-1.36-16.8
			L457.45,547.9l-3.34-13c0,0-60.07,47.04-98.88,94.79c13.2,3.32,13.2,3.32,13.2,3.32s-44.09,33.95-65.92,89.36
			c73.53-44.17,100.47-55.66,100.47-55.66l-9.19-12.77c0,0,28.59-29.7,51.49-37.44c6.55,12.93,6.55,12.93,6.55,12.93
			s57.87-29.87,87.23-38.68c0.26-15.96-0.38-15.96,0.26-15.96c0.64,0,48.38-29.49,48.38-29.49l2.3,17.11l40.47-28.98L624.72,525.01z
			 M321.02,705.01c26.81-24.51,67.53-46.73,67.53-46.73l4.6,6.51C393.15,664.79,350.77,685.35,321.02,705.01z M457.11,585.86
			c0,0-58.05,31.83-92.69,70.47h11.62c0,0-32.98,21.27-48.3,36.59c22.81-30.47,73.71-91.4,129.37-124.93V585.86z M533.96,542.11
			l-8.6-13.78l63.83-41.68c3.75,9.55,6.47,15.97,6.47,15.97L533.96,542.11z"/>
		<path class="st8" d="M595.66,502.62l-61.7,39.49l-8.6-13.78l63.83-41.68C592.94,496.2,595.66,502.62,595.66,502.62z"/>
		<path class="st8" d="M364.42,656.33h11.62c0,0-32.98,21.27-48.3,36.59c22.81-30.47,73.71-91.4,129.37-124.93v17.87
			C457.11,585.86,399.06,617.69,364.42,656.33z"/>
		<path class="st2" d="M718.74,515.75l-14.23,28.92l-79.15,2.04v10.34l-2.38,2.68h-8.47v-6.64l13.93-10.47l71.81-1.78l5.71-7.24
			l-64.94,2.73l-7.32-12.09h17.53c0,0,7.26,8.04,24.11,8.04s23.94-10.42,23.94-10.42h12.32l2.1-3.16h-13.21v-2.95H718.74z"/>
		<rect x="617.64" y="561.2" class="st2" width="5.93" height="16.79"/>
		<path class="st9" d="M747,528.86c-0.25,0.4-0.52,0.84-0.79,1.34c-0.83,1.49-1.35,3.5-1.67,5.38c-0.35,2-0.46,3.87-0.46,4.83
			c0,1.87,1.03,6.81,0.94,7.92c-0.08,1.1-2.89,1.02-2.89,1.02s-0.09,6.21-1.19,6.21c-1.11,0-3.41-4.09-4-5.19
			c-0.6-1.11-0.26-5.19-0.26-5.19h-4c0,0-0.08-5.62,1.62-6.56c1.7-0.93,4.93,0,4.93,0v-2.38c0,0-3.66-1.62-4.08-3.83
			c-0.43-2.21-3.24-1.96-3.24-1.96s-0.51-3.83-1.27-5.36c-0.77-1.53-0.6-5.02-0.6-5.02h-3.06v-1.57l21.63-0.94l0.41,5.32
			C749.23,525.65,748.31,526.76,747,528.86z"/>
		<polygon class="st2" points="932.13,509.56 932.13,516.71 749.02,522.88 748.61,517.56 		"/>
		<path class="st10" d="M932.13,516.71v5.87L747,528.86c1.31-2.1,2.23-3.21,2.02-5.98L932.13,516.71z"/>
		<path class="st11" d="M610.98,560.58v20.68h-39.07v39.32l-30.21-1.62v-20c0,0,0.26-3.49,1.96-7.4s1.87-13.57,1.87-13.57
			l35.41-19.88l5.44,12.77l13.96-10.3H610.98z"/>
		<polygon class="st11" points="610.98,592.5 610.98,595.9 597.96,595.9 597.96,629.18 575.66,626.37 575.66,592.5 		"/>
		<polygon class="st11" points="612.94,637.18 612.25,640.58 542.38,628.5 542.38,625.09 		"/>
		<polygon class="st9" points="702.47,546.88 695.91,554.37 625.36,554.37 625.36,548.81 		"/>
		<path class="st9" d="M729.4,570.84c-1.27,1.4-3.83,3.32-7.27,1.91c-3.45-1.4-4.98-2.3-4.98-2.3h-8.49c0,1.02,0,1.54,0.32,3.07
			c0.32,1.53,1.91,1.72,3.19,1.98c1.28,0.27-0.13,5.74-1.4,6.55c-1.28,0.81-3.71-1-4.92-1.89c-1.21-0.9-1.15,0.57-1.21,1.89
			c-0.07,1.32,1.91,3.08,2.61,3.6c0.71,0.51-1.72,3.82-3.12,4.21c-1.4,0.38-4.15-2.81-4.79-5.94s-2.94-2.44-6.51-2.74
			c1.02-2.11,7.98-1.09,8.3-1.6s2.93-2.93,3-3.7c0.05-0.54,0.03-3.64,0.01-5.43h-21.71v-5.36h-3.29v2.81c0,0-1.44,0-3.82,0
			s-9.87,1.45-9.87,8.34h-5.62v-2.72h-3.58c0,0-3.06,0.68-3.06,4.34c0,3.66,2.64,6.47,2.64,6.47h-3.66v6.42h-11.23v-4.64h6.46v-2.89
			h-2.8l-6.73-7.66h7.83v-1.79h-5.53v-3.15c0,0-0.09,0-1.36,0c-1.28,0-3.66,1.62-3.66,5.03h-1.19c0,0-6.39-4.18-6.39-8.77
			c0-4.6,0-10.55,0-10.55l67.75-0.77c0,0-7.41,11.32,4.21,11.32s10.72,0,14.94,0c4.21,0,9.44-3.06,13.53-3.06
			C732.08,563.82,730.68,569.43,729.4,570.84z"/>
		<path class="st2" d="M610.98,586.58c0,0.9-0.37,1.72-0.96,2.32c-0.6,0.59-1.42,0.96-2.32,0.96h-28.76c-1.81,0-3.28-1.47-3.28-3.28
			c0-0.9,0.37-1.72,0.96-2.32c0.6-0.59,1.42-0.96,2.32-0.96h28.76C609.51,583.3,610.98,584.77,610.98,586.58z"/>
		<path class="st4" d="M639.91,613.18c0,2.94-1.19,5.6-3.11,7.52c-1.93,1.93-4.58,3.12-7.52,3.12h-6.98
			c-5.88,0-10.64-4.77-10.64-10.64c0-2.94,1.19-5.6,3.12-7.52c1.92-1.93,4.58-3.12,7.52-3.12h6.98
			C635.15,602.54,639.91,607.3,639.91,613.18z"/>
		<path class="st4" d="M785.19,629.82c-2.94,0.76-34.59-13.66-64.59-44.56c0,0,2.29-5.49,6.38-5.49c3.22,0,9.22-0.29,12.61-3.43
			c2.41,5.22,10.42,21.01,20.2,23.35c-5.7-8.84-6.52-15.19-6.59-17.64c2.51,1.46,5.13,2.8,7.68,4.02c6.69,8,19.18,23.65,24.34,34.97
			C785.98,625.93,786.14,629.57,785.19,629.82z"/>
		<path class="st12" d="M759.79,599.69c-9.78-2.34-17.79-18.13-20.2-23.35c0.91-0.83,1.64-1.88,2.07-3.18
			c2.82,3.28,7.01,6.26,11.54,8.89C753.27,584.5,754.09,590.85,759.79,599.69z"/>
		<path class="st12" d="M785.22,621.04c-5.16-11.32-17.65-26.97-24.34-34.97c7.87,3.78,15.12,6.42,16.65,7.62
			C779.52,595.24,783.66,610.85,785.22,621.04z"/>
		<path class="st12" d="M759.86,646.45c-4.11-9.09-12.95-21.23-14.75-21.23c-2.17,0,0,5.87,0,5.87s-8.05-3.06-16.34-16.21
			c-4.84-7.67-9.77-13.82-13.03-17.61v-6.52c6.13,10.09,37.66,31.28,40.09,33.7C757.57,626.2,760.44,639.45,759.86,646.45z"/>
		<path class="st4" d="M759.86,646.45c-0.21,2.73-0.96,4.52-2.5,4.3c-5.49-0.76-15.32-7.53-22.85-17.36
			c-7.53-9.83-18.77-25.66-18.77-25.66v-10.46c3.26,3.79,8.19,9.94,13.03,17.61c8.29,13.15,16.34,16.21,16.34,16.21
			s-2.17-5.87,0-5.87C746.91,625.22,755.75,637.36,759.86,646.45z"/>
		<path class="st4" d="M783.02,569.18v18.76c0,0-34.19-12-29.8-18.76C753.6,568.6,783.02,569.18,783.02,569.18z"/>
		<path class="st13" d="M393.15,664.79c0,0-42.38,20.56-72.13,40.22c26.81-24.51,67.53-46.73,67.53-46.73L393.15,664.79z"/>
		<path class="st14" d="M566.51,637.34c-1.77,12.72-12.32,85.96-25.26,122.31c0.24-2.87,0.45-6.32,0.45-9.71v-49.88
			c4.73-21.36,7.89-56.48,8.66-65.65L566.51,637.34z"/>
		<path class="st15" d="M550.36,634.41c-0.77,9.17-3.93,44.29-8.66,65.65c0-31.92,0-67.22,0-67.22L550.36,634.41z"/>
		<path class="st14" d="M594.46,642.41c-7.25,72.11-23.48,121.15-23.48,121.15l-6.64-1.87c8.17-23.15,20.6-97.87,20.6-97.87
			l-2.22-0.69c-13.78,81.88-23.15,99.58-23.15,99.58l-9.02-2.38c13.55-33.95,22.11-109.09,23.47-121.62L594.46,642.41z"/>
		<path class="st15" d="M605.96,644.5c-2.05,40.08-21.19,116.85-21.19,116.85l-12.43,10.55l-31.83-5.28c0,0,0.41-2.91,0.74-6.97
			c12.94-36.35,23.49-109.59,25.26-122.31l7.51,1.37c-1.36,12.53-9.92,87.67-23.47,121.62l9.02,2.38c0,0,9.37-17.7,23.15-99.58
			l2.22,0.69c0,0-12.43,74.72-20.6,97.87l6.64,1.87c0,0,16.23-49.04,23.48-121.15l2.87,0.52c-1.35,11.11-9.9,78.11-22.52,118.76
			l7.4-5.28c0,0,10.89-50.39,20.32-112.53L605.96,644.5z"/>
		<path class="st16" d="M602.53,643.88c-9.43,62.14-20.32,112.53-20.32,112.53l-7.4,5.28c12.62-40.65,21.17-107.65,22.52-118.76
			L602.53,643.88z"/>
		<polygon class="st2" points="519.91,709.6 517.36,709.6 514.18,623.59 516.73,622.47 		"/>
		<path class="st2" d="M484.68,636.52v19.98c0,0.66-0.92,1.57-2.05,2.45l-0.56-21.29L484.68,636.52z"/>
		<path class="st2" d="M511.06,647.94c0.3,6.9-6.91,11.17-11.63,11.24c0,0,8.57-1.07,8.57-13.58c0-5.11-0.13-12.37-0.27-19.19
			l2.51-1.1C510.56,634.68,510.92,644.61,511.06,647.94z"/>
		<path class="st17" d="M537.18,613.51l-4.05,1.77c-0.33-8.5-0.59-14.77-0.71-17.7l4.09-1.85
			C536.51,595.73,536.78,602.61,537.18,613.51z"/>
		<polygon class="st17" points="516.73,622.47 514.18,623.59 513.54,606.13 516.09,604.98 		"/>
		<path class="st17" d="M510.24,625.31l-2.51,1.1c-0.18-7.55-0.37-14.54-0.46-17.44l2.37-1.08
			C509.75,611.14,509.99,618.05,510.24,625.31z"/>
		<polygon class="st17" points="484.68,619.19 484.68,636.52 482.07,637.66 481.62,620.58 		"/>
		<path class="st4" d="M540.51,738.96c0,40.86-14.21,79.15-46.64,102.39c3.83-37.02-9.44-113.62-9.44-113.62l-1.18-44.92
			c1.3,2.37,3.04,6.18,3.85,10.71c0.3,1.6,0.47,3.29,0.47,5.04v0.51c0,10.22,0,25,0,25c11,34.25,10.84,98.5,10.74,108.21
			c0,0.81-0.01,1.24-0.01,1.24s1.24-1.13,3.26-3.29c8.84-9.42,32.69-38.45,33.93-78.76c1.12-36.33-1.1-103.15-2.36-136.19l4.05-1.77
			C538.31,644.67,540.51,708.7,540.51,738.96z"/>
		<path class="st18" d="M535.49,751.47c-1.24,40.31-25.09,69.34-33.93,78.76c2.58-5.98,6.27-17.38,7.9-36.05
			c14.96-22.53,12.5-60.96,12.5-60.96h-2.05c-0.41,34.7-7.4,51.49-10.13,56.73c0.03-0.45,0.06-0.91,0.09-1.37
			c2.26-47.06-16.31-83.8-22.77-95.06c-0.81-4.53-2.55-8.34-3.85-10.71l-0.62-23.86c1.13-0.88,2.05-1.79,2.05-2.45v-19.98l0.32-0.15
			c2.22,21.55,9.95,22.87,14.43,22.81c4.72-0.07,11.93-4.34,11.63-11.24c-0.14-3.33-0.5-13.26-0.82-22.63l3.94-1.72l3.18,86.01h2.55
			l-3.18-87.13l16.4-7.19C534.39,648.32,536.61,715.14,535.49,751.47z"/>
		<path class="st18" d="M498.31,832.28c0.1-9.71,0.26-73.96-10.74-108.21c0,0,0-14.78,0-25c5.41,10.84,17.42,38.37,18.73,71.47
			C507.56,802.38,501.51,823.51,498.31,832.28z"/>
		<path class="st18" d="M505.19,627.73c0,0,0,15.15,0,21.28c0,6.12-10.04,11.4-11.66,1.36s-1.1-16.77-1.1-16.77L505.19,627.73z"/>
		<path class="st10" d="M932.13,526.99l-1.15,49.59l-4.34,1.85l0.64-41.68h-1.41c0,0-1.53,11.87-1.91,13.79
			c-0.39,1.91-3.32,4.21-7.79,4.47c-4.47,0.25-62.04,2.04-62.04,2.04v-3.32c0,0,58.59-2.04,63.57-2.43c1.75-0.14,2.6-2.72,2.97-6.01
			L848,548.88v-2.55l72.86-3.64c0.07-1.67,0.06-3.4,0-5c-0.12-3.82-0.48-6.94-0.48-6.94l-51.75,2.01h-0.01
			c-1.08-0.89-2.08-1.97-2.75-2.76L932.13,526.99z"/>
		<path class="st11" d="M922.17,613.99c0,4.85,0,25.14,0,25.14l-25.02-13.27c0,0,3.45-7.15,0-10.73c-3.45-3.57-22-17.7-22-17.7
			l-5.28,1.36c0,0,3.24,12.43,0,10.73c-3.23-1.7-38.13-23.87-48-23.87c-9.87,0-32.98,0-32.98,0v-20.43h-37.78l-8.98-15.87
			c0,0,2.81,0.08,2.89-1.02c0.09-1.11-0.94-6.05-0.94-7.92c0-0.96,0.11-2.83,0.46-4.83l11.86-0.62L865.86,530h0.01
			c0.67,0.79,1.67,1.87,2.75,2.76h0.01l51.75-2.01c0,0,0.36,3.12,0.48,6.94l-159.16,4.93v6.52l86.3-2.81v2.55l-86.3,2.79v4.49
			l92.43-2.43v3.32l-38.3,0.77v12.63c0,0,5.62,0,11.74,0c6.13,0,19.66,5.88,36.39,16.22C880.68,597.01,922.17,609.13,922.17,613.99z
			"/>
		<path class="st11" d="M722.98,687.3c-5.45-3.06-8.17-12.08-9.36-12.42c-1.19-0.34-4.77,0.17-5.62-1.19
			c-0.85-1.36-10.55-19.07-13.45-20.77c-2.89-1.7-6.64-1.4-6.64-1.4s4.26-3.7,1.88-10.17c-2.39-6.47-7.66-12.26-9.88-13.96
			c-2.21-1.7-20.42,1.02-20.42,1.02l-1.7-5.36c0,0,5.74-1.4,4.98-7.4c-0.77-6-4.98-16.84-4.98-16.84l52.76-5.76
			c0,0,0,11.87,1.36,14.94c1.37,3.06,36.69,65.19,37.41,69.27C750.04,681.35,728.43,690.37,722.98,687.3z"/>
		<path class="st2" d="M704.13,561.2c0,2.43-1.97,4.4-4.41,4.4c-2.43,0-4.4-1.97-4.4-4.4s1.97-4.41,4.4-4.41
			C702.16,556.79,704.13,558.77,704.13,561.2z"/>
		<path class="st4" d="M745.23,561.58c0,1.52-1.23,2.75-2.74,2.75c-1.52,0-2.75-1.23-2.75-2.75c0-1.51,1.23-2.74,2.75-2.74
			C744,558.84,745.23,560.07,745.23,561.58z"/>
		<path class="st2" d="M711.47,501.39c-0.39,1.21-1.98,0.83-3.64,1.6c-1.66,0.76-1.98,3.51-4.34,3.76
			c-2.36,0.26-5.36-2.36-2.43-4.21c2.94-1.85,5.05-1.41,5.49-2C707,499.94,711.92,499.96,711.47,501.39z"/>
		<g>
			<path class="st1" d="M521.86,490.03c-6.91,0-26.95-0.35-47.98-3.99c-0.23-0.04-0.43-0.18-0.53-0.39
				c-0.11-0.2-0.12-0.45-0.02-0.66c0.03-0.07,2.92-6.61,2.1-14.55c-0.28-2.76-0.69-5.65-1.05-8.2c-1.09-7.79-1.26-9.84-0.22-10.48
				c1.57-0.97,49.81,1.05,50.28,1.08c4.14,0.31,5.3,4.85,5.33,7.21c0.01,0.41-0.33,0.75-0.74,0.76c-0.4,0.01-0.75-0.32-0.76-0.74
				c0-0.22-0.13-5.45-3.94-5.73c-5.42-0.4-45.56-1.72-49.31-1.28c-0.27,1.04,0.32,5.24,0.85,8.96c0.36,2.56,0.77,5.47,1.05,8.25
				c0.69,6.7-1.07,12.31-1.87,14.43c25.41,4.29,49.08,3.8,49.32,3.79c0.44,0,0.76,0.32,0.77,0.73c0.01,0.41-0.32,0.76-0.73,0.77
				C524.35,490.01,523.46,490.03,521.86,490.03z M475.07,452.93"/>
			<path class="st1" d="M524.65,450.61c-0.08,0-0.15,0-0.23,0c-2.29-0.03-7.55-0.37-14.21-0.79c-11.85-0.76-28.07-1.79-36.19-1.59
				c-1.76,0.02-1.85-1.62-1.96-4.65c-0.06-1.75-0.15-4.15-0.51-7.33c-1.97-17.2-2-18.93-1.58-19.49c0.79-1.06,22.07-0.72,22.29-0.71
				c10.8,0.19,25.96,0.87,36.9,3.05c2.27,0.65,2.78,3.29,2.8,3.41c0.08,0.41-0.19,0.8-0.6,0.87c-0.4,0.08-0.8-0.19-0.87-0.6
				c0-0.02-0.37-1.85-1.68-2.22c-18.96-3.77-53.12-3.22-57.57-2.71c-0.03,2.24,1.1,12.15,1.8,18.24c0.37,3.24,0.46,5.67,0.52,7.45
				c0.05,1.46,0.1,2.97,0.34,3.21c8.25-0.21,24.52,0.83,36.4,1.59c6.64,0.42,11.88,0.76,14.13,0.79c2.18,0.03,3.64-0.38,4.17-1.15
				c0.41-0.6,0.15-1.3,0.15-1.3c-0.16-0.38,0.03-0.82,0.41-0.98c0.38-0.16,0.82,0.03,0.98,0.41c0.21,0.53,0.39,1.7-0.3,2.71
				C529.02,450,527.27,450.61,524.65,450.61z M471.27,417.45"/>
			<path class="st1" d="M528.51,415.97c-0.03,0-0.06,0-0.09-0.01c-0.29-0.04-29.4-3.64-57.89-2.55c-0.2,0.01-0.39-0.06-0.54-0.2
				c-0.15-0.14-0.23-0.32-0.24-0.52l-1.14-31.23c-0.01-0.4,0.29-0.75,0.7-0.78c0.38-0.03,38.42-2.67,61.42,3
				c0.32,0.08,0.55,0.36,0.57,0.69c0.02,0.38,0.51,9.4,0,15.17c-0.04,0.41-0.41,0.71-0.81,0.68c-0.41-0.04-0.72-0.4-0.68-0.81
				c0.43-4.86,0.12-12.32,0.03-14.4c-21.06-5.02-54.38-3.21-59.69-2.87l1.08,29.76c28.37-1,57.09,2.55,57.38,2.59
				c0.41,0.05,0.7,0.43,0.65,0.84C529.21,415.69,528.88,415.97,528.51,415.97z"/>
			<path class="st1" d="M529.11,379.97c-0.24,0-0.72-0.07-2.07-0.28c-18.67-2.84-38.06-3.69-57.63-2.53
				c-0.42,0.02-0.77-0.29-0.79-0.7c-0.01-0.18-1.05-17.86,1.56-29.99c0.07-0.34,0.37-0.58,0.71-0.59c0.38-0.01,38.1-0.97,58.14,4.02
				c0.31,0.08,0.54,0.34,0.57,0.66c0.02,0.22,0.51,5.56,0.17,10.08c-0.03,0.41-0.39,0.73-0.8,0.69c-0.41-0.03-0.72-0.39-0.69-0.8
				c0.27-3.59-0.01-7.83-0.12-9.3c-18.58-4.46-51.78-3.96-56.62-3.86c-2.13,10.48-1.61,24.85-1.45,28.26
				c19.42-1.1,38.66-0.23,57.19,2.59c0.9,0.14,1.68,0.26,1.84,0.26c0.29,0,0.8-1.28,0.92-2.64c0.04-0.41,0.39-0.72,0.82-0.68
				c0.41,0.04,0.71,0.4,0.68,0.82C531.46,376.63,531.05,379.97,529.11,379.97z"/>
			<path class="st1" d="M527.83,346.43c-0.04,0-0.08,0-0.12-0.01c-0.32-0.05-32.02-5.09-56.77-4.16c-0.21,0.01-0.41-0.07-0.56-0.22
				s-0.23-0.35-0.21-0.57c0.01-0.15,0.81-14.65,5.56-27.87c0.1-0.28,0.37-0.48,0.67-0.5c1.41-0.07,34.76-1.74,47.85,2.59
				c0.15,0.05,0.28,0.14,0.37,0.27c0.75,1.04,1.34,3.73,1.4,4.03c0.09,0.41-0.17,0.8-0.58,0.89c-0.4,0.09-0.8-0.17-0.89-0.58
				c-0.2-0.93-0.63-2.55-1.03-3.27c-12.14-3.87-42.29-2.65-46.55-2.46c-3.9,11.1-5.01,22.98-5.25,26.16
				c22.48-0.72,50.19,3.29,55.38,4.08c0.06-7.1-1.02-17.32-1.03-17.43c-0.04-0.41,0.25-0.78,0.67-0.83
				c0.41-0.05,0.78,0.25,0.83,0.67c0.01,0.11,1.19,11.28,1.03,18.48c0,0.22-0.1,0.42-0.27,0.56
				C528.17,346.37,528,346.43,527.83,346.43z"/>
			<path class="st1" d="M522.98,313.07c-0.07,0-0.13-0.01-0.19-0.03c-0.19-0.05-19.51-5.13-45.28-3.13
				c-0.25,0.02-0.49-0.08-0.64-0.28c-0.16-0.19-0.21-0.45-0.14-0.68c3.56-12.09,1.2-24.11,1.18-24.23
				c-0.06-0.31,0.07-0.62,0.34-0.78c0.31-0.19,7.65-4.7,23.39-4.46c13.6,0.22,20.33,2.93,20.57,8.29c0.02,0.41-0.3,0.76-0.72,0.78
				c-0.41,0.04-0.76-0.3-0.78-0.72c-0.19-4.35-6.62-6.65-19.09-6.86c-13.09-0.21-20.35,3.06-22.13,3.98
				c0.42,2.45,1.88,12.62-1.01,23.37c22.06-1.57,39.27,1.97,43.64,2.99l-1.48-11.6c-0.05-0.41,0.24-0.79,0.65-0.84
				c0.42-0.05,0.79,0.24,0.84,0.65l1.62,12.68c0.03,0.25-0.06,0.5-0.25,0.66C523.33,313.01,523.16,313.07,522.98,313.07z"/>
		</g>
	</g>
	<g>
		<g>
			<g>
				<g>
					<path class="st0" d="M538.07,565.55l-37.92,24.47l-0.1,0.07c-0.04,0.03-0.08,0.05-0.13,0.07l-3.59,2.33
						c-0.16,0.11-0.35,0.16-0.54,0.16c-0.12,0-0.24-0.02-0.35-0.06l-1.53-0.58l-27.07-10.15c-0.41-0.16-0.68-0.56-0.65-1l2.04-32.04
						c0.02-0.32,0.19-0.61,0.46-0.78l37.93-24.31c0.02-0.02,0.04-0.04,0.06-0.05l3.63-2.32c0.23-0.15,0.5-0.2,0.76-0.14
						s0.48,0.22,0.63,0.45l1.46,2.32l25.22,40.19C538.67,564.64,538.53,565.25,538.07,565.55z"/>
					<path class="st0" d="M495.79,593.65c-0.24,0-0.47-0.04-0.69-0.12l-1.54-0.58l-27.07-10.15c-0.84-0.33-1.36-1.13-1.3-2
						l2.04-32.04c0.04-0.64,0.39-1.22,0.93-1.56l37.99-24.35l0,0l3.63-2.32c0.46-0.29,1-0.4,1.53-0.27
						c0.51,0.12,0.95,0.43,1.24,0.88l1.47,2.33l25.22,40.19c0.58,0.91,0.3,2.14-0.61,2.74l0,0l-37.99,24.52
						c-0.07,0.05-0.14,0.09-0.23,0.13l-3.52,2.29C496.58,593.53,496.19,593.65,495.79,593.65z M507.28,524.48l-0.12,0.09
						l-37.93,24.31l-2.04,32.04l28.61,10.73l3.78-2.45l37.95-24.49c0,0,0.01,0,0.01-0.01l-26.68-42.5L507.28,524.48z M499.47,589.27
						c0,0-0.01,0.01-0.01,0.01L499.47,589.27z"/>
				</g>
			</g>
		</g>
		<g>
			<g>
				<polygon class="st0" points="507.22,524.53 494.26,591.07 467.19,580.92 469.23,548.88 				"/>
				<path class="st4" d="M494.26,592.07c-0.12,0-0.24-0.02-0.35-0.06l-27.07-10.15c-0.41-0.15-0.67-0.56-0.65-1l2.04-32.04
					c0.02-0.32,0.19-0.61,0.46-0.78l37.99-24.35c0.34-0.22,0.77-0.21,1.1,0.01c0.33,0.22,0.5,0.63,0.42,1.02l-12.96,66.54
					c-0.06,0.29-0.24,0.54-0.49,0.68C494.6,592.02,494.43,592.07,494.26,592.07z M468.23,580.24l25.27,9.47l12.29-63.08l-35.6,22.82
					L468.23,580.24z"/>
			</g>
			<g>
				<polygon class="st0" points="512.31,524.52 499.51,589.25 499.5,589.25 495.79,591.65 494.26,591.07 507.22,524.53 
					507.22,524.52 510.85,522.2 				"/>
				<path class="st4" d="M495.79,592.65c-0.12,0-0.24-0.02-0.35-0.06l-1.53-0.58c-0.46-0.17-0.72-0.65-0.63-1.13l12.96-66.52
					c0.05-0.28,0.21-0.53,0.45-0.68l3.63-2.32c0.22-0.14,0.5-0.19,0.76-0.13c0.26,0.06,0.49,0.22,0.63,0.44l1.46,2.32
					c0.14,0.22,0.18,0.48,0.13,0.73l-12.8,64.73c-0.06,0.31-0.26,0.56-0.53,0.7l-3.63,2.35
					C496.17,592.59,495.98,592.65,495.79,592.65z M495.4,590.43l0.27,0.1l2.94-1.9l12.64-63.92l-0.71-1.13l-2.42,1.55L495.4,590.43z
					"/>
			</g>
			<g>
				<polygon class="st0" points="537.53,564.71 499.51,589.25 512.31,524.52 				"/>
				<path class="st4" d="M499.51,590.25c-0.2,0-0.39-0.06-0.56-0.17c-0.33-0.23-0.5-0.63-0.42-1.02l12.8-64.73
					c0.08-0.4,0.4-0.71,0.8-0.79c0.41-0.07,0.81,0.11,1.03,0.45l25.22,40.19c0.29,0.46,0.16,1.07-0.3,1.37l-38.02,24.54
					C499.89,590.19,499.7,590.25,499.51,590.25z M512.8,527.18l-11.85,59.95l35.21-22.73L512.8,527.18z"/>
			</g>
		</g>
		<g>
			<polygon class="st4" points="485.1,564.18 488.11,568.56 483.92,571.44 473.82,556.74 478.01,553.86 481.04,558.26 502.36,545.3 
				500.34,542.94 495.23,541.69 500.34,538.45 513.02,541.69 514.89,544.67 			"/>
			<path class="st4" d="M483.79,572.13l-10.67-15.52l5.01-3.45l3.05,4.42l20.41-12.41l-1.53-1.79l-6.09-1.49l6.28-3.99l13.08,3.34
				l2.24,3.56l-29.77,19.5l3,4.37L483.79,572.13z M474.51,556.86l9.53,13.88l3.37-2.31l-3.02-4.39l29.81-19.52l-1.5-2.4l-12.28-3.14
				l-3.94,2.5l4.13,1.01l2.51,2.93l-22.23,13.51l-3.01-4.38L474.51,556.86z"/>
		</g>
		<path class="st4" d="M526.58,559.69c-1.31-0.44-2.69-0.53-4.04-0.52c-0.31,0.01-0.61,0.04-0.92,0.06
			c-0.13-0.47-0.36-0.89-0.67-1.24c0.19-0.21,0.37-0.43,0.57-0.63c0.92-0.93,1.93-1.79,3.1-2.35l0.01,0
			c0.09-0.04,0.13-0.15,0.1-0.25c-0.04-0.1-0.15-0.15-0.25-0.11c-1.29,0.5-2.4,1.32-3.43,2.2c-0.23,0.2-0.44,0.42-0.66,0.63
			c-0.39-0.27-0.84-0.44-1.32-0.51c0.01-0.28,0.01-0.57,0.03-0.85c0.11-1.3,0.33-2.61,0.87-3.79l0-0.01
			c0.04-0.09,0.01-0.2-0.08-0.25c-0.09-0.05-0.21-0.02-0.27,0.08c-0.66,1.21-0.99,2.56-1.21,3.89c-0.05,0.31-0.07,0.61-0.11,0.92
			c-0.49,0.05-0.94,0.2-1.34,0.44c-0.17-0.22-0.36-0.44-0.52-0.67c-0.75-1.07-1.43-2.21-1.78-3.46l0-0.01
			c-0.03-0.1-0.13-0.16-0.23-0.14c-0.11,0.02-0.17,0.12-0.15,0.23c0.27,1.36,0.88,2.59,1.57,3.76c0.16,0.26,0.34,0.51,0.5,0.76
			c-0.33,0.34-0.58,0.75-0.73,1.21c-0.28-0.06-0.56-0.11-0.83-0.18c-1.26-0.34-2.52-0.78-3.59-1.51l-0.01,0
			c-0.08-0.06-0.2-0.04-0.26,0.04c-0.07,0.08-0.05,0.21,0.03,0.28c1.08,0.86,2.35,1.42,3.62,1.87c0.29,0.1,0.59,0.17,0.88,0.26
			c-0.01,0.08-0.02,0.16-0.02,0.24c0,0.41,0.08,0.8,0.23,1.15c-0.25,0.13-0.49,0.27-0.75,0.39c-1.18,0.55-2.43,1.02-3.72,1.15
			l-0.01,0c-0.1,0.01-0.18,0.1-0.18,0.2c0,0.11,0.09,0.19,0.2,0.19c1.38-0.03,2.71-0.42,3.98-0.9c0.29-0.11,0.56-0.24,0.84-0.36
			c0.28,0.39,0.64,0.7,1.06,0.93c-0.11,0.26-0.2,0.53-0.32,0.79c-0.55,1.19-1.2,2.34-2.11,3.27l-0.01,0.01
			c-0.07,0.07-0.07,0.19-0.01,0.27c0.07,0.08,0.2,0.09,0.28,0.02c1.04-0.91,1.81-2.06,2.47-3.24c0.15-0.27,0.27-0.55,0.41-0.82
			c0.25,0.07,0.51,0.11,0.79,0.11c0.22,0,0.43-0.02,0.63-0.06c0.08,0.27,0.18,0.53,0.26,0.8c0.34,1.26,0.58,2.57,0.48,3.86l0,0.01
			c-0.01,0.1,0.06,0.19,0.17,0.21c0.11,0.02,0.21-0.06,0.22-0.16c0.21-1.37,0.06-2.74-0.19-4.07c-0.06-0.3-0.14-0.59-0.21-0.89
			c0.43-0.21,0.81-0.51,1.1-0.88c0.24,0.15,0.49,0.29,0.72,0.45c1.07,0.75,2.1,1.59,2.85,2.65l0,0.01c0.06,0.08,0.17,0.11,0.26,0.05
			c0.09-0.06,0.12-0.18,0.07-0.27c-0.72-1.18-1.72-2.14-2.77-2.99c-0.24-0.19-0.49-0.36-0.73-0.54c0.18-0.4,0.29-0.84,0.29-1.3
			c0-0.03-0.01-0.06-0.01-0.08c0.28-0.04,0.56-0.09,0.84-0.11c1.3-0.12,2.63-0.13,3.89,0.19l0.01,0c0.1,0.02,0.2-0.03,0.23-0.13
			C526.73,559.83,526.68,559.72,526.58,559.69z"/>
	</g>
</g>
</svg>
