<?xml version="1.0" encoding="utf-8"?>
<!-- Generator: Adobe Illustrator 24.1.2, SVG Export Plug-In . SVG Version: 6.00 Build 0)  -->
<svg version="1.1" id="Layer_1" xmlns="http://www.w3.org/2000/svg" xmlns:xlink="http://www.w3.org/1999/xlink" x="0px" y="0px"
	 viewBox="0 0 1000 1000" style="enable-background:new 0 0 1000 1000;" xml:space="preserve">
<style type="text/css">
	.st0{fill:#00308F;}
	.st1{fill:#E4E4E4;}
	.st2{fill:#FFFFFF;}
</style>
<g>
	<path class="st0" d="M500.01,10C229.39,10,10,229.39,10,500.01S229.39,990,500.01,990S990,770.62,990,500.01S770.62,10,500.01,10z
		 M500.01,978.05c-264.01,0-478.04-214.03-478.04-478.04c0-264.02,214.03-478.04,478.04-478.04s478.04,214.02,478.04,478.04
		C978.05,764.02,764.02,978.05,500.01,978.05z"/>
	<g>
		<path class="st0" d="M317.31,595.64c-2.98-2.32-3.98-7.29-3.98-14.24c0-34.45,30.15-116.61,42.73-151.06
			c1.99-5.63,4.97-12.59,4.97-18.55c0-12.59-11.59-17.23-22.86-17.23c-24.51,0.33-81.82,110.31-109.32,164.97l6.29-20.21
			c10.93-35.11,26.5-80.17,40.08-114.62c1.66-4.64,2.65-8.61,2.65-12.26c0-11.59-8.28-17.89-21.86-17.89h-0.66
			c-24.51,0.33-82.16,110.98-109.65,165.63c12.92-44.72,44.06-132.18,49.03-144.1c0.99-2.32,1.66-4.31,1.66-6.29
			c0-12.26-19.88-15.57-32.8-15.57l-5.96,0.33c-12.26,0.99-26.17,11.59-38.1,25.84c-14.24,16.23-26.5,37.43-30.48,52.34
			c-0.66,2.65-0.99,5.63-0.99,8.28c0,4.64,1.33,8.94,5.63,11.59c2.65,1.33,5.63,1.99,8.61,1.99c5.3,0,10.6-1.66,14.91-2.98
			c1.66-0.66,2.32-1.99,2.32-3.31c0-1.32-0.99-2.65-2.65-2.98c-0.66-0.33-0.99-0.99-0.99-2.32c0-1.33,0.33-2.98,0.66-4.97
			c2.65-12.59,33.79-70.89,48.37-70.89l1.66,0.33c-6.63,16.23-26.17,73.54-40.08,120.25c-8.61,27.5-14.58,51.35-14.58,61.95
			l0.33,3.31c1.66,7.29,10.93,8.61,17.89,8.61h3.31c1.33,0,2.32-0.33,2.98-1.66c11.59-18.55,23.85-39.42,36.11-60.62
			c26.5-45.05,52.34-89.77,71.55-112.3c-10.6,30.81-49.36,133.17-49.36,161.66c0,1.66,0,3.31,0.33,4.31
			c1.99,8.28,12.59,8.61,21.53,8.61c1.66,0,2.32-0.66,3.31-1.99c11.26-18.55,23.19-39.42,35.45-60.29
			c26.5-45.38,52.67-90.11,71.89-112.3c-13.91,41.08-41.08,117.6-41.08,152.72c0.33,21.53,11.93,21.86,29.15,21.86
			c1.99,0,3.31-1.66,3.31-3.31C318.63,597.3,318.3,596.3,317.31,595.64z"/>
		<path class="st0" d="M911.31,512.83c-1.33,0-2.32,0.33-2.98,1.99c-6.96,15.24-14.91,23.52-23.52,27.5
			c-5.63,2.32-10.6,2.98-16.23,2.98l-6.29-0.33c2.32-13.91,33.13-101.7,37.76-111.97l0.33-0.99c0-4.64-10.93-10.27-19.54-10.27
			c-3.98,0-7.29,0.99-8.94,3.64c-6.74,11.95-19.99,49.95-32.69,92.27c-20.3,41.43-36.44,55.23-47.81,59.45
			c-2.65,0.66-5.3,0.99-7.29,0.99l-3.64-0.33c-10.93-2.32-14.58-15.24-14.58-27.83c0-4.31,0.66-8.61,1.32-12.59
			c2.65,2.32,5.96,3.31,9.28,3.31c17.89,0,42.07-28.82,42.73-52.34v-0.66c0-12.59-10.27-18.88-22.86-19.21h-1.32
			c-24.18,0-41.74,25.51-49.69,46.71c-0.79,2.11-1.5,4.24-2.16,6.38c-19.02,42.97-25.77,56.6-34.62,57.23
			c-1.33,0-1.99-1.99-1.99-5.96c0-19.21,15.9-63.6,20.54-86.46l0.33-3.98c0-8.94-6.96-13.91-15.24-13.91
			c-14.24,0-27.16,16.89-37.76,29.81c-5.96,7.62-11.59,15.9-16.23,23.19c12.26-37.43,27.5-78.51,31.47-88.12l0.33-1.32
			c0-5.3-11.26-9.94-19.54-9.94c-4.31,0-7.62,0.99-8.61,3.64c-5.26,12.83-21.74,58.28-33.07,96.43
			c-24.28,31.67-63.84,69.76-101.65,69.76c-22.17-0.39-30.72-12.83-30.72-35.78c0-57.17,47.45-156.73,97.23-167.23
			c2.72-0.39,5.45-1.17,8.56-1.17c8.17,0,13.61,3.89,13.61,13.22c0,28.39-42.39,91-63.78,92.95c-2.33,0-3.89,1.56-3.89,3.89
			c1.17,8.56,17.5,16.33,30.33,16.33c5.06,0,9.33-1.17,12.83-3.5c21.39-14.39,45.89-62.23,45.89-95.67c0-28-16.33-47.84-51.34-47.84
			c-67.15,0.71-118.89,85.57-127.76,150.96c-8.99,19.83-16.32,35.76-24.85,47.76c-6.62,9.94-13.91,17.23-23.19,22.2
			c7.62-20.87,15.24-45.72,22.19-67.91c4.64-15.9,8.94-30.15,12.92-40.75l0.33-1.33c0-5.3-10.27-9.61-18.22-9.61
			c-4.31,0-7.95,1.32-8.94,4.31c-4.31,11.93-8.28,23.85-11.59,35.45c-8.61,24.18-16.89,41.08-23.52,52.01
			c-8.61,13.91-14.91,18.22-18.55,18.55c-1.66,0-2.65-1.99-2.65-5.3c0-19.54,24.18-86.13,27.16-93.42l0.33-1.32
			c0-5.3-10.27-10.27-18.22-10.27c-3.98,0-6.96,1.32-8.28,3.98c-7.29,15.24-25.18,64.6-25.18,91.43c0,5.63,0.66,10.27,2.65,13.58
			c3.64,6.96,12.26,7.95,20.54,7.95h4.31c9.28-0.33,19.88-14.91,27.83-29.48c-3.97,14.91-5.96,22.19-10.27,33.79
			c-30.15,1.99-47.37,8.94-50.68,29.81l-0.33,5.3c0,12.59,7.62,21.53,21.86,22.53h2.32c27.83,0,41.74-27.83,50.68-50.68
			c13.25-5.3,23.19-14.24,32.13-27.16c6.14-8.86,11.81-19.76,17.86-32.68c0,0.09,0,0.18,0,0.26c0,49.78,31.89,73.11,67.67,73.11
			h0.78c39.26,0,71.37-22.49,94.29-52.36c-1.28,6.32-2.02,11.58-2.02,15.31c0.99,10.27,7.62,12.26,18.55,12.26
			c3.98,0,6.63,0,6.63-3.31c0-6.96,3.31-19.88,7.62-35.11c5.96-10.6,26.17-44.72,44.39-61.62c0.99-0.99,2.32-2.32,3.31-2.32
			s1.33,0.66,1.33,2.32c0,3.64-19.21,56.65-19.88,81.16c0,16.23,8.61,19.21,20.21,19.21l9.28-0.33c9.89-0.52,16.52-9.44,30.16-38.81
			c0,0.13-0.01,0.25-0.01,0.38c0,20.87,10.27,37.43,38.43,38.43h3.64c3.31,0,7.29-0.33,11.6-1.66
			c10.04-3.51,22.93-12.94,38.25-37.47c-6.93,25.4-16.72,64.64-16.72,81.19v0.66c0,3.64,0.33,6.62,1.33,8.28
			c4.31,7.62,12.92,10.93,21.2,10.93c20.21,0,32.8-34.45,36.44-50.68c1.33-6.96,2.65-13.91,2.65-20.54c0-8.94-2.32-17.56-8.61-24.18
			c7.29,0,13.91-0.99,19.54-3.64c11.59-4.64,20.21-14.91,27.5-31.14l0.33-1.32C914.62,513.16,913.29,513.16,911.31,512.83z
			 M782.11,503.55c3.31-4.64,13.91-18.55,21.53-18.55c0.99,0,1.66,0,2.65,0.66s1.66,1.66,1.66,3.64c0,10.6-18.88,39.75-33.13,39.75
			c-1.66,0-3.31-0.33-4.64-1.33C772.84,519.78,777.14,511.17,782.11,503.55z M348.78,632.74c-7.29,0-9.61-4.31-9.61-9.61
			c0-1.99,0.33-4.31,0.99-6.63c3.31-11.59,12.92-18.22,40.41-19.88C372.96,615.19,361.37,632.74,348.78,632.74z M869.57,575.43
			c0,6.29-1.66,13.25-2.98,19.54c-4.64,20.87-15.57,42.4-26.17,45.38c-0.33-0.66-0.33-1.66-0.33-2.98
			c0-12.26,12.26-54.66,19.21-83.81C867.25,558.87,869.57,566.82,869.57,575.43z"/>
	</g>
	<path class="st0" d="M739.82,303.45c-2.4-47.37-47.37-64.5-77.62-55.68c-15.25-21.68-36.67-53.53-76.55-53.53
		s-67.45,28.11-67.45,28.11s-40.96-4.29-62.9,3.47c-46.84,15.8-72,62.37-56.51,112.69c15.5,50.32,69.09,53.54,69.09,53.54
		l24.89,17.93c0,0,32.66-48.98,89.13-51.92c56.48-2.95,61.57,41.76,61.57,41.76l16.06-16.86
		C713.06,390.44,742.23,350.83,739.82,303.45z M721.36,327.54c-11.25,32.92-34.26,51.92-83.51,32.11
		c16.6-5.62,15.52-36.66,15.52-36.66s-12.84,29.44-49.78,28.1c22.48-14.98,12.31-55.94,9.36-64.77
		c4.46,38.32-14.51,62.63-44.99,62.37c11.54-13.39,3.51-36.41,3.51-36.41s0,39.08-49.52,39.08c-42.71,0.69-58.08-43.89-58.08-43.89
		s-5.36,29.71,22.21,50.58c-7.22,9.59-15.97,15.76-25.27,16.8c-12.77,1.46-26.59-6.71-38.98-28.85
		c-21.41-38.27-15.52-108.93,73.61-106.26c-1.88,7.22-23.83,13.92-23.83,13.92s25.16,3.48,59.16-18.73
		c33.99-22.22,77.89-46.58,121.79,26.49c0,0-14.18,11.51-13.39,28.64c0,0,17.94-31.05,45.24-27.83
		C711.72,265.44,732.6,294.61,721.36,327.54z"/>
	<path class="st1" d="M448.62,359.12c4.99,5.98,9.14,11.49,12.2,15.74c-12.77,1.46-26.59-6.71-38.98-28.85
		c-21.41-38.27-15.52-108.93,73.61-106.26c0,0-47.92,12.05-63.17,44.7C417.03,317.1,437.64,346,448.62,359.12z"/>
	<path class="st2" d="M721.36,327.54c-11.25,32.92-34.26,51.92-83.51,32.11c16.6-5.62,15.52-36.66,15.52-36.66
		s-12.84,29.44-49.78,28.1c22.48-14.98,12.31-55.94,9.36-64.77c4.46,38.32-14.51,62.63-44.99,62.37
		c11.54-13.39,3.51-36.41,3.51-36.41s0,39.08-49.52,39.08c-42.71,0.69-58.08-43.89-58.08-43.89s-5.36,29.71,22.21,50.58
		c-7.22,9.59-15.97,15.76-25.27,16.8c-3.06-4.25-7.21-9.76-12.2-15.74c-10.98-13.11-31.59-42.02-16.33-74.67
		c15.25-32.66,63.17-44.7,63.17-44.7c-1.88,7.22-23.83,13.92-23.83,13.92s25.16,3.48,59.16-18.73
		c33.99-22.22,77.89-46.58,121.79,26.49c0,0-14.18,11.51-13.39,28.64c0,0,17.94-31.05,45.24-27.83
		C711.72,265.44,732.6,294.61,721.36,327.54z"/>
	<rect x="137.32" y="633.61" class="st0" width="142.4" height="8.97"/>
	<rect x="95.3" y="618.75" class="st0" width="226.44" height="9.1"/>
	<rect x="525.43" y="633.61" class="st0" width="211.89" height="8.97"/>
	<rect x="483.41" y="618.75" class="st0" width="310.84" height="9.1"/>
	<path class="st0" d="M546.93,784.26c16.77-15.62,33.51-32.75,38.75-38.82c5.24-6.06,1.76-10.7-5.11-17.31
		c-6.88-6.59-20.53-20.52-20.53-20.52c-4.55-3.93-9.01-2.85-13.65,1.7c-4.63,4.55-25.34,25.07-37.74,38.36
		c-10.67,11.45-4.56,24.22,0.03,30.28l-11.03,10.47c-0.04-0.04-0.06-0.06-0.06-0.06s-67.85-67.9-84.58-74.72
		c0,0-2.94,13.25,26.5,45.37c20.67,22.55,32.89,34.01,45.1,41.8l-71.68,68.07c-8.62,8.57,2.76,19.54,11.59,13.51
		c5.95-4.06,46.51-47.16,72.35-74.86c1.28,0.61,2.59,1.2,3.93,1.79c0,0,58.48,61.03,66.92,70.26c8.43,9.23,14.9,3.52,16.77,0.76
		c1.87-2.77,2.23-7.23-4.37-13.47c-5.18-4.9-53.09-50.49-73.44-69.87c4.79-5.15,8.44-9.09,10.33-11.13
		C523.98,790.91,535.07,795.29,546.93,784.26z M576.78,736.48l1.48,1.48l-39.26,39.17l-1.48-1.48L576.78,736.48z M571.33,730.87
		l-39.26,39.17l-1.48-1.49l39.25-39.17L571.33,730.87z M563.2,722.71l1.48,1.49l-39.26,39.17l-1.48-1.48L563.2,722.71z
		 M556.54,715.71l1.48,1.48l-39.26,39.17l-1.48-1.48L556.54,715.71z"/>
</g>
</svg>
