<?xml version="1.0" encoding="utf-8"?>
<!-- Generator: Adobe Illustrator 24.1.2, SVG Export Plug-In . SVG Version: 6.00 Build 0)  -->
<svg version="1.1" id="Layer_1" xmlns="http://www.w3.org/2000/svg" xmlns:xlink="http://www.w3.org/1999/xlink" x="0px" y="0px"
	 viewBox="0 0 1000 1000" style="enable-background:new 0 0 1000 1000;" xml:space="preserve">
<style type="text/css">
	.st0{fill:url(#SVGID_1_);}
	.st1{fill:url(#SVGID_2_);}
	.st2{fill:url(#SVGID_3_);}
	.st3{fill:url(#SVGID_4_);}
	.st4{fill:#E6C59A;}
	.st5{fill:#CFB577;}
	.st6{fill:#C89B56;}
	.st7{fill:#FFFFFF;}
</style>
<g>
	<g>
		<linearGradient id="SVGID_1_" gradientUnits="userSpaceOnUse" x1="773.1646" y1="233.1776" x2="583.2136" y2="110.9798">
			<stop  offset="0" style="stop-color:#BC8940"/>
			<stop  offset="0.946" style="stop-color:#CEA563"/>
		</linearGradient>
		<path class="st0" d="M777.37,234.94c-0.75,0-1.49-0.31-2.02-0.92c-60.51-70.2-144.24-115.03-235.78-126.23
			c-1.46-0.18-2.5-1.51-2.32-2.97c0.18-1.46,1.51-2.51,2.97-2.32c92.85,11.36,177.79,56.83,239.17,128.04
			c0.96,1.12,0.84,2.8-0.28,3.76C778.6,234.73,777.98,234.94,777.37,234.94z"/>
		<linearGradient id="SVGID_2_" gradientUnits="userSpaceOnUse" x1="220.3687" y1="242.8838" x2="426.048" y2="91.044">
			<stop  offset="0" style="stop-color:#BC8940"/>
			<stop  offset="0.946" style="stop-color:#F8E8A0"/>
		</linearGradient>
		<path class="st1" d="M213.49,231.74c-0.63,0-1.25-0.22-1.76-0.67c-1.1-0.97-1.21-2.66-0.24-3.76
			c60.7-68.84,144.02-113.09,234.62-124.6c1.46-0.19,2.8,0.85,2.98,2.31c0.19,1.46-0.85,2.79-2.31,2.98
			c-89.31,11.34-171.46,54.97-231.3,122.84C214.96,231.44,214.23,231.74,213.49,231.74z"/>
		<linearGradient id="SVGID_3_" gradientUnits="userSpaceOnUse" x1="260.8055" y1="846.8183" x2="260.8055" y2="221.3758">
			<stop  offset="0.184" style="stop-color:#BC8940"/>
			<stop  offset="0.6037" style="stop-color:#F8E8A0"/>
			<stop  offset="0.9273" style="stop-color:#B79162"/>
		</linearGradient>
		<path class="st2" d="M446.77,843.26l-0.14-0.01c-10.62-0.78-21.49-2.6-32.08-4.91c-2.67-0.52-5.31-1.16-7.95-1.83
			c-2.64-0.66-5.29-1.28-7.92-1.98l-7.85-2.25c-2.62-0.73-5.24-1.48-7.82-2.37c-20.77-6.59-40.95-15.04-60.34-25.04
			c-19.4-10.01-37.73-21.96-55.24-34.96l-12.9-10.07c-2.2-1.61-4.16-3.53-6.26-5.28l-6.19-5.37l-6.19-5.37
			c-2.01-1.84-3.93-3.78-5.91-5.67c-3.89-3.83-7.91-7.53-11.7-11.46c-5.59-5.8-10.98-11.79-16.17-17.95
			c-6.24-10.08-15.92-28.92-18.88-52.59c0.44-8.61,5.05-16.64,9.92-25.12c5.27-9.18,10.72-18.68,11.36-29.78
			c1.21-21.1-15.95-72.27-16.68-74.44c-0.01-0.04-0.04-0.06-0.05-0.1c-0.02-0.05-0.04-0.09-0.08-0.14
			c-0.04-0.05-0.08-0.09-0.12-0.13c-0.04-0.03-0.07-0.07-0.11-0.09c-0.06-0.04-0.13-0.06-0.2-0.09c-0.03-0.01-0.05-0.03-0.09-0.04
			c-0.01,0-0.01,0-0.02,0c-0.08-0.02-0.17-0.01-0.25-0.01c-0.03,0-0.06,0-0.09,0c0,0,0,0,0,0c-0.11,0.02-0.21,0.06-0.3,0.12
			c-0.03,0.02-0.04,0.04-0.07,0.06c-0.06,0.05-0.12,0.1-0.17,0.16c-0.02,0.03-0.03,0.07-0.05,0.1c-0.04,0.06-0.07,0.13-0.09,0.2
			c0,0.01-0.01,0.02-0.02,0.04c-1.13,4.98-2.99,9.55-4.96,14.4c-4.24,10.41-8.63,21.17-6.54,37.63c2.99,23.6,6.02,58.27,6.05,58.62
			c0,0.01,0,0.01,0,0.02c-0.26,6.47,0.05,12.7,0.78,18.63c0,0.03,0,0.07,0,0.1c-0.01,0.13,0.02,0.26,0.06,0.37
			c2.29,17.97,8.4,33.18,13.97,43.95c-6.4-8.05-12.47-16.36-18.17-24.93c-12.12-18.17-22.22-37.71-30.03-58.12
			c-7.93-20.56-13.6-41.94-17.15-63.69c2.98-1.43,11.42-6.64,24.67-23.9c17.5-22.81,17.4-43.13,14.69-61.69
			c-2.88-19.75-0.94-29.31-0.92-29.4c0.08-0.39-0.11-0.79-0.46-0.98c-0.35-0.18-0.79-0.11-1.06,0.19
			c-0.19,0.21-4.83,5.4-12.63,22.11c-4.95,10.61-6.35,21.35-7.85,32.72c-0.9,6.82-1.82,13.88-3.56,21.33
			c-3.48,14.92-10.35,29.5-13.49,35.7c-3.02-19.98-4.27-40.23-3.8-60.43c3.68-7.68,9.62-24.16,9.29-39.63
			c-0.23-10.99,1.04-31.73,12.2-47.21c9.62-13.35,10.75-16.91,10.79-17.05c0.13-0.43-0.09-0.9-0.51-1.07
			c-0.41-0.17-0.9-0.01-1.12,0.39c-0.04,0.07-4.13,7.3-14.37,14.57c-10.49,7.44-17.87,17.27-22.25,43.22
			c-3.69,21.86,1.63,41.37,3.26,46.6c-0.28,21.9,1.2,43.82,4.69,65.45c3.53,21.74,9.23,43.15,17.11,63.73l3.04,7.69l1.52,3.84
			l1.73,3.75c2.34,4.99,4.54,10.05,7.01,14.97l2.86,5.31c-3.67-3.75-8.68-8.34-14.7-12.54c-4.94-14.82-14.96-26.96-20.36-33.5
			l-0.93-1.13c-3.53-4.3-3.34-17.55-3.18-29.24c0.05-3.73,0.1-7.26,0.05-10.58c-0.18-11.75-2.59-34.27-16.54-53.54
			c0.32-4.57,4.5-61.76,14.88-94.54c0.29-0.91,0.61-1.82,0.91-2.72c1.77-3.26,25.06-45.53,44.18-49.66
			c0.08-0.01,0.15-0.02,0.22-0.05c0.67-0.14,1.34-0.22,2.01-0.26c4.84-0.26,9.48-0.18,13.96-0.1c14.97,0.26,27.9,0.49,40.16-11.96
			c15.27-15.49,29.64-30.25,30.16-30.78c0.08-0.08,0.14-0.17,0.19-0.27c0,0,0,0,0,0s0,0,0,0c0.03-0.06,0.05-0.12,0.06-0.18
			c0,0,0,0,0,0c0,0,0,0,0,0c0.04-0.2,0.01-0.42-0.09-0.61c0,0,0,0,0,0c-0.01-0.02-0.02-0.03-0.03-0.05
			c-0.11-0.17-0.27-0.29-0.45-0.36c0,0,0,0,0,0c-0.07-0.03-0.14-0.04-0.22-0.05h0c0,0,0,0,0,0c-0.08-0.01-0.17,0-0.25,0.01
			c-0.35,0.06-4.34,0.77-22.02,4.48c-17.87,3.75-46.61,22.47-64.19,38.46c-15.23,3.42-32.18,28.47-40.4,42.07
			c6.34-16.69,14.73-32.79,25.46-48.75c0.01-0.02,0.02-0.03,0.04-0.05c10.85-16.12,24.06-32.1,39.98-48.39
			c4.4-4.5,8.69-8.59,12.85-12.32c6.03-3.02,16.36-0.92,27.3,1.3c7.31,1.48,14.81,3.01,21.32,3.01c1.73,0,3.39-0.11,4.95-0.35
			c9.4-1.46,18.96-7.49,29.08-13.88c7.56-4.77,15.38-9.71,23.76-13.18c0.37-0.15,0.59-0.53,0.54-0.93c-0.05-0.4-0.35-0.71-0.75-0.77
			c-1.08-0.16-26.75-3.92-41.34,2.97l-2.09,0.99c-13.2,6.26-28.14,13.32-55.45,14.53c26.76-22.16,46.25-28.36,48.23-28.95
			c1.96,0.25,17.02,1.93,26.05-4.02c8.01-5.28,24.85-13.94,37.1-13.01c11.68,0.9,19.7,1.13,19.78,1.14c0.4-0.03,0.78-0.27,0.89-0.67
			c0.1-0.4-0.08-0.82-0.45-1.01c-0.19-0.1-18.82-9.63-37.69-8.04c-18.48,1.56-36.87,13.45-46.24,23.92
			c-2.54,0.77-23.07,7.49-50.78,30.93c-0.06,0.04-0.12,0.09-0.17,0.14c-0.43,0.36-0.85,0.72-1.28,1.09
			c-0.04,0.03-0.07,0.06-0.11,0.09c-5.36,4.61-10.97,9.84-16.76,15.77c-14.7,15.04-27.09,29.83-37.48,44.71
			c1.65-6.24,5.19-17.97,11.25-30.22c1.4-2.28,11.99-19.01,24.8-26.25c2.78-1.57,5.67-3.02,8.47-4.41
			c11.44-5.72,23.27-11.64,31.59-27.71c9.78-18.92,19.1-33.11,19.7-34.02c0.58-0.55,0.94-0.88,0.98-0.92
			c0.33-0.31,0.38-0.83,0.1-1.19c-0.28-0.36-0.79-0.46-1.17-0.22c-0.23,0.14-23.45,14.49-51.47,30.4
			c-28.4,16.13-43.68,45.34-40.88,78.14c-4.05,10.84-5.92,19.21-6.2,20.52c-12.72,18.93-22.17,38.09-28.83,58.19
			c-0.01,0.02-0.04,0.07-0.05,0.09c-0.06,0.11-0.09,0.23-0.1,0.35c-0.27,0.83-0.57,1.64-0.83,2.47c-4.75,15-8.21,35.05-10.6,52.89
			c-0.6-2.16-1.46-5-2.65-8.35c-0.01-0.02,0-0.04-0.01-0.06c-0.07-0.21-5.7-16.96-5.05-37.92c0.04-0.07,0.08-0.14,0.09-0.22
			c0.05-0.26,1.38-6.68,15.6-41.57c15.51-38.05,18.97-65.02,12.27-95.78c0-0.01,0-0.02,0-0.02c0-0.02-0.01-0.04-0.02-0.07
			c-0.07-0.3-0.12-0.6-0.19-0.91c-0.09-0.42-0.47-0.73-0.9-0.69c-0.43,0.02-0.78,0.34-0.85,0.76c-2.73,18.89-8.84,30.75-22.21,56.73
			c-2.07,4.01-4.31,8.37-6.74,13.15c-17.42,34.19-19.16,59.47-5.64,81.96c12,19.96,15.49,37.01,15.66,37.84
			c-2.04,16.11-3.17,29.72-3.58,35.07c-11.75-16.6-19.11-33.36-19.34-33.9c-0.06-0.14-0.15-0.26-0.26-0.35c0,0,0,0,0,0c0,0,0,0,0,0
			h0c-0.01-0.02,0,0,0,0l0,0c0,0,0,0,0,0c0,0,0,0,0,0c-0.01-0.01,0,0,0,0c0,0,0,0,0,0c0,0,0,0,0,0c-0.01,0-0.01-0.01-0.02-0.01
			c0,0,0,0,0,0h0c0,0,0,0,0,0c-0.01-0.01,0,0,0,0c0,0,0,0,0,0c0,0,0,0,0,0c-0.2-0.13-0.46-0.18-0.71-0.12
			c-0.24,0.06-0.44,0.22-0.56,0.42c0,0,0,0,0,0c0,0,0,0,0,0s0,0,0,0c-0.02,0.04-0.04,0.08-0.05,0.12c-0.05,0.13-0.07,0.27-0.06,0.41
			c0.07,0.93,2.95,39.06,2.95,79.54c0,39.8,30.27,69.76,50.62,80.19c3.11,1.59,6.06,3.4,8.8,5.3c0,0,0.01,0.01,0.01,0.01
			c9.27,6.43,16.17,13.85,19.35,17.56l1.58,2.95c2.76,4.77,5.76,9.4,8.64,14.11c12.01,18.5,25.68,35.91,40.8,51.99
			c3.78,4.01,7.79,7.8,11.68,11.72c1.97,1.93,3.89,3.91,5.9,5.8l6.18,5.5l6.19,5.5c2.09,1.79,4.05,3.75,6.26,5.41l8.47,6.69
			c-2.16-0.44-4.76-0.92-7.77-1.36c-0.06-0.02-0.12-0.04-0.19-0.05c-31.17-4.4-46.52-19.79-68.09-44.61
			c-1.66-1.91-3.4-3.94-5.22-6.06c-22.68-26.44-56.96-66.39-105.36-76.8c-0.05-0.01-0.1,0-0.15,0c-0.05,0-0.1-0.01-0.15,0
			c-0.05,0.01-0.09,0.02-0.13,0.04c-0.06,0.02-0.12,0.03-0.18,0.06c-0.04,0.02-0.06,0.05-0.09,0.07c-0.07,0.05-0.14,0.11-0.19,0.19
			c-0.05,0.06-0.09,0.12-0.12,0.2c0,0.01,0,0.01,0,0.02c0,0.01-0.01,0.01-0.01,0.02c-0.01,0.03,0,0.06-0.01,0.09
			c-0.02,0.08-0.03,0.15-0.03,0.23c0,0.04,0.01,0.08,0.02,0.13c0.01,0.06,0.03,0.13,0.05,0.19c0.02,0.04,0.04,0.08,0.07,0.12
			c0.03,0.05,0.07,0.1,0.11,0.14c0.03,0.04,0.07,0.07,0.11,0.1c0.03,0.02,0.04,0.04,0.07,0.06c18.21,10.62,38.62,34.46,57.45,67.13
			c16.91,29.32,46.12,59.61,78.7,59.61c1.46,0,2.94-0.06,4.42-0.19c24.2-2.06,42.6,1.46,49.92,3.23l1.31,1.04
			c17.65,13.23,36.16,25.42,55.75,35.64c19.58,10.22,39.99,18.88,61.04,25.66c2.61,0.91,5.26,1.68,7.92,2.44l7.97,2.29
			c2.67,0.71,5.37,1.34,8.05,2.01c2.68,0.68,5.37,1.33,8.09,1.86c10.84,2.36,21.68,4.2,32.96,5.03h0c1.47,0.11,2.74-0.99,2.85-2.46
			C449.34,844.64,448.24,843.37,446.77,843.26z M176.37,578.72c-2.03-16,2.27-26.54,6.43-36.74c1.27-3.11,2.47-6.13,3.49-9.22
			c0.39,14.24,0.78,53.63-4.72,94.34c-0.02,0.12-0.03,0.23-0.04,0.35C180.4,615.34,178.38,594.55,176.37,578.72z M183.33,627.34
			c5.44-40.19,5.14-79.1,4.76-93.96c4.58,14.45,15.59,51.21,14.65,67.78c-0.61,10.68-5.96,19.99-11.13,28.99
			c-3.71,6.46-7.26,12.65-9.03,19.12C182.12,642.3,182.3,634.96,183.33,627.34z M133.24,449.96c0.3,13.97-4.64,28.8-8.24,36.92
			c-0.36-7.35-1-24.65,0.18-35.71c1.34-12.53,7.22-29.49,15.44-40.67C133.91,424.74,133.04,440.73,133.24,449.96z M121.51,443.06
			c4.3-25.46,11.15-34.71,21.53-42.07c3.05-2.16,5.56-4.31,7.6-6.28c-1.31,1.94-2.91,4.24-4.87,6.97c-0.31,0.44-0.59,0.89-0.89,1.33
			c0,0-0.01,0-0.01,0c-11.33,10.32-19.81,32.49-21.46,47.97c-1,9.34-0.71,23.03-0.38,31.6
			C121.06,474.04,118.78,459.22,121.51,443.06z M153.38,528.91c-9.83,12.81-16.97,18.84-21.04,21.6c4.53-5.76,13.13-18,18.39-33.7
			c2.99-8.93,4.34-18.54,5.65-27.84c1.8-12.78,3.66-25.97,9.75-38.31c0.1,4.6,0.51,10.53,1.59,17.9
			C170.38,486.73,170.48,506.62,153.38,528.91z M144.75,514.68c1.76-7.54,2.69-14.64,3.59-21.5c1.47-11.23,2.86-21.84,7.69-32.2
			c4.72-10.13,8.3-15.99,10.35-19.01c-0.11,1.26-0.21,2.89-0.24,4.86c-7.5,13.47-9.54,27.92-11.51,41.89
			c-1.36,9.64-2.64,18.74-5.58,27.52c-4.37,13.04-11.08,23.64-15.74,30.04C136.83,538.82,141.9,526.88,144.75,514.68z M229.36,328.2
			c7.96-1.67,13.16-2.73,16.49-3.4c-8.45,4.61-26.69,14.24-45.6,22.13c-11.92,4.97-20.32,9.15-25.95,12.23
			C191.5,345.29,214.36,331.34,229.36,328.2z M200.94,348.56c18.7-7.8,36.75-17.3,45.39-22.01c-5.45,5.58-15.49,15.85-25.95,26.46
			c-11.73,11.9-24.31,11.68-38.87,11.43c-2.17-0.04-4.38-0.08-6.64-0.08c-2.02,0-4.07,0.03-6.17,0.12
			C173.19,361.67,183.18,355.97,200.94,348.56z M206.31,294.33c0.22,0.02,0.53,0.04,0.91,0.07c-0.41,0.05-0.81,0.11-1.2,0.18
			C206.11,294.5,206.21,294.42,206.31,294.33z M284.44,286.06c-9.96,6.29-19.37,12.22-28.4,13.62c-7.17,1.11-16.57-0.8-25.65-2.64
			c-3.84-0.78-7.59-1.54-11.15-2.07c1.17,0.02,2.38,0.03,3.63,0.03c9.75,0,21.44-0.76,28.66-3.83
			c13.19-5.62,33.59-12.13,48.52-14.43C294.66,279.6,289.49,282.87,284.44,286.06z M266.26,278.25l2.09-0.99
			c11.15-5.26,29.7-3.99,37.12-3.21c-0.19,0.09-0.38,0.19-0.57,0.28c-15.24,1.4-39.2,8.86-54.06,15.2
			c-10.05,4.29-29.84,3.86-39.37,3.36C238.28,291.5,253.12,284.49,266.26,278.25z M283.36,256.71c-6.74,4.44-17.5,4.3-22.42,3.96
			c7.15-4.27,30.3-16.97,51.45-16.55C301.48,246.29,289.71,252.53,283.36,256.71z M304.11,238.38c13.12-1.11,26.14,3.33,32.58,5.98
			c-3.47-0.16-8.73-0.46-15.07-0.94c-21.09-4.8-46.22,7.08-57.68,13.45C273.79,248.12,288.93,239.66,304.11,238.38z M225.67,263.85
			c-8.04,15.55-19.61,21.34-30.8,26.94c-2.82,1.41-5.73,2.87-8.54,4.46c-6.03,3.4-11.5,8.72-15.82,13.74c2-2.95,4.15-5.82,6.5-8.53
			c15.74-18.21,50.53-51.46,64.72-64.88C237.96,241.64,231.91,251.79,225.67,263.85z M196.27,260.27
			c18.64-10.59,35.16-20.48,44.21-25.97c-14.23,13.45-49.06,46.74-64.83,65c-6.01,6.96-10.85,14.93-14.71,22.7
			c-0.13,0.2-0.21,0.34-0.24,0.4c-0.06,0.1-0.09,0.21-0.11,0.31c-1.71,3.49-3.24,6.93-4.56,10.21
			C154.74,302.38,169.58,275.43,196.27,260.27z M114.25,382.57c-7.57,18.58-11.51,29.14-13.55,35.01c0.29-2.77,0.69-5.58,1.26-8.42
			c5.98-30.23,12.44-61.2,19.91-78.77c4.66-10.97,5.99-24.28,6.32-33.16C132.21,323.9,128.01,348.81,114.25,382.57z M98.85,357.22
			c2.43-4.77,4.67-9.13,6.74-13.14c11.43-22.21,17.58-34.18,20.88-49.03c-0.18,8.6-1.29,23.01-6.24,34.65
			c-7.53,17.72-14.02,48.8-20.02,79.12c-3.28,16.56-1.57,32.45,0.41,42.8c-2.02-4.42-4.48-9.2-7.47-14.17
			C79.98,415.55,81.74,390.81,98.85,357.22z M103.69,514.32c13.84,18.93,16.21,41.21,16.39,52.8c0.05,3.3,0,6.81-0.05,10.53
			c-0.12,8.32-0.24,16.83,0.84,23.03c-1.4-3.42-2.75-7.06-4.05-10.94c-10.77-32.3-23.24-76.72-30.2-103.52
			C90.21,493.27,96.12,503.96,103.69,514.32z M137.03,635.96c-19.96-10.23-49.65-39.6-49.65-78.61c0-28.59-1.43-56.01-2.3-70.02
			c7,26.9,19.37,70.9,30.06,102.97c8.23,24.7,19.17,40.18,25.24,47.49C139.28,637.16,138.17,636.55,137.03,635.96z M124.71,609.38
			c4.89,5.92,13.42,16.32,18.51,29.01C139.27,633.9,131.87,624.4,124.71,609.38z M177.45,719.13c1.82,2.12,3.57,4.16,5.23,6.07
			c8.73,10.04,16.45,18.54,24.61,25.43c-11.78-6.32-35.03-20.65-58.37-45.67c-28.52-30.58-46.41-49.22-64.41-58.94
			C126.36,659.62,156.77,695.02,177.45,719.13z M213.22,767.59c-33.51,2.85-64.03-28.37-81.43-58.54
			c-16.43-28.5-34.1-50.36-50.54-62.71c18.58,9.18,36.67,28,66.36,59.83c32.24,34.57,64.43,48.95,66.78,49.97
			c6.78,4.74,14.09,8.45,22.65,11.06C230.02,766.83,222,766.85,213.22,767.59z"/>
		<linearGradient id="SVGID_4_" gradientUnits="userSpaceOnUse" x1="725.5899" y1="833.2072" x2="725.5899" y2="231.6148">
			<stop  offset="0.0342" style="stop-color:#E1D185"/>
			<stop  offset="0.3299" style="stop-color:#CA9A59"/>
			<stop  offset="0.6037" style="stop-color:#F8E8A0"/>
			<stop  offset="0.9273" style="stop-color:#D1A973"/>
		</linearGradient>
		<path class="st3" d="M914,642.21c0.01-0.05,0.02-0.09,0.02-0.14c0-0.07-0.01-0.14-0.03-0.21c-0.01-0.03,0-0.07-0.01-0.1
			c0-0.01-0.01-0.01-0.01-0.02c0-0.01,0-0.01,0-0.02c-0.03-0.09-0.09-0.17-0.15-0.24c-0.01-0.01-0.01-0.02-0.02-0.03
			c-0.07-0.08-0.16-0.14-0.25-0.19c-0.04-0.02-0.08-0.03-0.12-0.04c-0.06-0.02-0.13-0.04-0.19-0.05c-0.04-0.01-0.09,0-0.13,0
			c-0.05,0-0.1-0.01-0.16,0c-48.4,10.41-82.68,50.36-105.36,76.8c-1.82,2.12-3.56,4.15-5.22,6.06
			c-21.57,24.82-36.92,40.21-68.1,44.61c-0.06,0.01-0.13,0.02-0.19,0.05c-3.01,0.44-5.61,0.92-7.77,1.36l8.47-6.69
			c2.21-1.66,4.17-3.61,6.26-5.41l6.18-5.5l6.18-5.5c2.01-1.89,3.93-3.87,5.9-5.8c3.89-3.91,7.9-7.71,11.68-11.72
			c15.12-16.08,28.8-33.49,40.8-51.99c2.87-4.71,5.88-9.33,8.64-14.11l1.59-2.95c3.17-3.7,10.05-11.11,19.31-17.53
			c0.02-0.01,0.05-0.03,0.07-0.05c2.73-1.89,5.66-3.69,8.77-5.28c20.35-10.43,50.62-40.39,50.62-80.19c0-40.47,2.87-78.6,2.94-79.54
			c0.01-0.14-0.01-0.27-0.05-0.39c0,0,0,0,0,0v0c-0.02-0.05-0.04-0.1-0.07-0.15c0,0,0,0,0,0s0,0,0,0c-0.12-0.19-0.31-0.35-0.54-0.4
			c-0.25-0.06-0.49-0.01-0.69,0.11c0,0,0,0,0,0c0,0,0,0,0,0h0c0,0,0,0,0,0l0,0h0c-0.03,0.02-0.06,0.04-0.08,0.06c0,0,0,0,0,0
			c0,0,0,0,0,0c-0.11,0.09-0.2,0.21-0.25,0.34c-0.23,0.54-7.59,17.3-19.34,33.9c-0.41-5.35-1.54-18.96-3.58-35.08
			c0.17-0.88,3.67-17.91,15.66-37.84c13.52-22.49,11.78-47.77-5.64-81.96c-2.43-4.77-4.67-9.13-6.74-13.14
			c-13.37-25.98-19.48-37.84-22.21-56.74c-0.06-0.42-0.42-0.74-0.85-0.76c-0.46-0.02-0.81,0.28-0.9,0.69
			c-0.07,0.31-0.12,0.61-0.19,0.92c0,0.02-0.01,0.03-0.01,0.05c0,0,0,0.01,0,0.01c-6.7,30.76-3.24,57.73,12.27,95.79
			c14.22,34.89,15.55,41.31,15.6,41.57c0.02,0.08,0.06,0.16,0.09,0.23c0.65,20.96-4.98,37.71-5.05,37.92
			c-0.01,0.02,0,0.04-0.01,0.06c-1.2,3.35-2.06,6.19-2.65,8.35c-2.39-17.84-5.85-37.89-10.6-52.88c-0.26-0.83-0.56-1.65-0.83-2.47
			c-0.01-0.12-0.04-0.24-0.1-0.35c-0.01-0.02-0.03-0.06-0.04-0.08c-6.66-20.1-16.11-39.26-28.83-58.19
			c-0.28-1.31-2.15-9.68-6.2-20.52c2.79-32.8-12.48-62-40.89-78.14c-28.02-15.91-51.23-30.26-51.47-30.4
			c-0.38-0.24-0.9-0.15-1.17,0.22c-0.28,0.36-0.23,0.88,0.1,1.19c0.04,0.04,0.4,0.37,0.98,0.92c0.61,0.92,9.92,15.11,19.7,34.02
			c8.31,16.07,20.14,21.99,31.59,27.71c2.8,1.4,5.69,2.85,8.47,4.41c12.81,7.23,23.41,23.98,24.81,26.25
			c6.06,12.26,9.6,23.98,11.25,30.22c-10.38-14.88-22.78-29.67-37.48-44.71c-4.42-4.53-8.74-8.64-12.92-12.39c0,0,0,0,0,0
			c-1.3-1.16-2.58-2.29-3.85-3.39c-0.03-0.03-0.06-0.05-0.09-0.08c-0.43-0.37-0.86-0.73-1.29-1.09c-0.05-0.06-0.11-0.1-0.17-0.14
			c-27.71-23.45-48.24-30.17-50.78-30.93c-9.37-10.47-27.76-22.37-46.24-23.92c-18.86-1.6-37.5,7.94-37.69,8.04
			c-0.37,0.19-0.56,0.61-0.45,1.01c0.11,0.4,0.48,0.7,0.89,0.67c0.08,0,8.1-0.24,19.78-1.14c12.28-0.93,29.09,7.74,37.1,13.01
			c9.04,5.95,24.09,4.27,26.06,4.02c1.98,0.59,21.47,6.79,48.23,28.95c-27.31-1.2-42.25-8.26-55.45-14.53l-2.09-0.99
			c-14.6-6.89-40.26-3.14-41.34-2.97c-0.4,0.06-0.7,0.37-0.75,0.77c-0.05,0.4,0.17,0.78,0.54,0.93c8.37,3.47,16.19,8.4,23.76,13.17
			c10.12,6.39,19.68,12.42,29.08,13.88c1.57,0.24,3.23,0.35,4.95,0.35c6.52,0,14.02-1.52,21.32-3.01c10.94-2.22,21.26-4.31,27.3-1.3
			c4.16,3.73,8.45,7.81,12.85,12.32c15.92,16.29,29.13,32.27,39.98,48.39c0.01,0.02,0.02,0.03,0.03,0.05
			c10.73,15.95,19.12,32.06,25.46,48.75c-8.22-13.6-25.17-38.65-40.4-42.07c-17.58-16-46.32-34.71-64.19-38.46
			c-17.66-3.71-21.66-4.42-22.01-4.48c-0.09-0.02-0.18-0.02-0.27-0.01h0c-0.07,0.01-0.13,0.02-0.19,0.04
			c-0.2,0.07-0.37,0.2-0.48,0.4c-0.11,0.2-0.14,0.42-0.1,0.63c0,0,0,0,0,0c0.01,0.06,0.03,0.12,0.06,0.17
			c0.05,0.1,0.11,0.19,0.19,0.27c0.52,0.54,14.89,15.29,30.16,30.78c12.27,12.44,25.19,12.22,40.17,11.96
			c4.48-0.08,9.11-0.16,13.96,0.1c0.66,0.04,1.33,0.12,2,0.26c0.07,0.03,0.15,0.04,0.23,0.05c19.12,4.13,42.42,46.43,44.18,49.66
			c0.3,0.91,0.62,1.81,0.91,2.72c10.38,32.78,14.56,89.98,14.88,94.54c-13.95,19.27-16.36,41.79-16.54,53.54
			c-0.05,3.33,0,6.85,0.05,10.59c0.16,11.69,0.35,24.94-3.18,29.24l-0.94,1.14c-5.4,6.54-15.42,18.68-20.35,33.5
			c-6.02,4.2-11.03,8.8-14.7,12.54l2.86-5.31c2.47-4.93,4.67-9.99,7.01-14.97l1.73-3.75l1.52-3.84l3.04-7.69
			c7.88-20.58,13.57-41.99,17.11-63.73c3.49-21.62,4.98-43.55,4.69-65.45c1.63-5.23,6.95-24.74,3.26-46.59
			c-4.38-25.95-11.77-35.78-22.25-43.22c-10.24-7.26-14.33-14.49-14.37-14.57c-0.22-0.4-0.71-0.57-1.12-0.39
			c-0.42,0.18-0.64,0.64-0.5,1.07c0.04,0.14,1.17,3.7,10.79,17.05c11.16,15.49,12.43,36.23,12.2,47.21
			c-0.33,15.47,5.61,31.95,9.29,39.63c0.46,20.2-0.79,40.45-3.8,60.43c-3.13-6.2-10.01-20.78-13.49-35.7
			c-1.74-7.45-2.66-14.51-3.56-21.33c-1.49-11.37-2.9-22.11-7.85-32.72c-7.79-16.72-12.43-21.9-12.63-22.11
			c-0.27-0.29-0.7-0.37-1.06-0.19c-0.36,0.18-0.55,0.58-0.46,0.98c0.02,0.09,1.97,9.66-0.92,29.4
			c-2.71,18.56-2.81,38.88,14.69,61.69c13.24,17.26,21.69,22.47,24.67,23.9c-3.55,21.75-9.22,43.13-17.15,63.69
			c-7.81,20.41-17.9,39.95-30.02,58.12c-5.7,8.57-11.77,16.88-18.17,24.93c5.57-10.77,11.67-25.98,13.97-43.95
			c0.05-0.11,0.07-0.24,0.06-0.37c0-0.03,0-0.07-0.01-0.1c0.73-5.93,1.04-12.17,0.78-18.63c0-0.01,0-0.01,0-0.02
			c0.03-0.35,3.06-35.02,6.05-58.62c2.08-16.46-2.3-27.22-6.54-37.63c-1.97-4.84-3.84-9.42-4.97-14.4c0-0.01-0.01-0.02-0.02-0.03
			c-0.02-0.07-0.05-0.13-0.09-0.2c-0.02-0.04-0.03-0.07-0.06-0.11c-0.03-0.04-0.08-0.08-0.12-0.11c-0.15-0.14-0.33-0.22-0.54-0.23
			c-0.08-0.01-0.16-0.01-0.24,0.01c0,0-0.01,0-0.01,0c-0.01,0-0.02,0.01-0.04,0.02c-0.09,0.03-0.18,0.06-0.26,0.12
			c-0.03,0.02-0.05,0.05-0.08,0.07c-0.05,0.05-0.1,0.1-0.15,0.15c-0.03,0.04-0.05,0.08-0.07,0.12c-0.02,0.04-0.04,0.06-0.06,0.1
			c-0.73,2.17-17.89,53.34-16.68,74.44c0.63,11.1,6.09,20.6,11.36,29.78c4.87,8.49,9.48,16.51,9.92,25.12
			c-2.95,23.67-12.63,42.51-18.88,52.59c-5.19,6.16-10.58,12.14-16.17,17.95c-3.79,3.92-7.81,7.63-11.7,11.46
			c-1.97,1.89-3.89,3.83-5.91,5.67l-6.19,5.37l-6.19,5.37c-2.09,1.75-4.05,3.66-6.26,5.28l-12.9,10.07
			c-17.51,13-35.85,24.95-55.24,34.96c-19.38,10-39.56,18.45-60.34,25.04c-2.58,0.89-5.2,1.63-7.82,2.37l-7.85,2.25
			c-2.63,0.7-5.28,1.32-7.92,1.98c-2.64,0.67-5.28,1.31-7.95,1.83c-10.6,2.32-21.46,4.13-32.08,4.91l-0.14,0.01h0
			c-1.47,0.11-2.57,1.39-2.46,2.85c0.11,1.47,1.39,2.57,2.85,2.46c11.27-0.83,22.11-2.67,32.96-5.03c2.72-0.53,5.4-1.19,8.09-1.86
			c2.68-0.67,5.38-1.3,8.05-2.01l7.97-2.29c2.66-0.76,5.31-1.52,7.92-2.44c21.04-6.79,41.45-15.44,61.04-25.66
			c19.6-10.23,38.1-22.41,55.75-35.64l1.31-1.04c7.32-1.77,25.71-5.29,49.92-3.23c34.32,2.94,65.45-28.78,83.12-59.42
			c18.83-32.66,39.23-56.5,57.45-67.13c0.03-0.02,0.05-0.04,0.07-0.06c0.04-0.03,0.08-0.06,0.12-0.1c0.04-0.04,0.07-0.09,0.11-0.14
			c0.03-0.04,0.05-0.08,0.07-0.13C913.98,642.33,913.99,642.27,914,642.21z M872.15,382.57c-13.76-33.76-17.96-58.67-13.93-85.33
			c0.32,8.87,1.65,22.19,6.32,33.16c7.46,17.56,13.93,48.54,19.91,78.77c0.56,2.84,0.97,5.65,1.26,8.42
			C883.66,411.71,879.72,401.15,872.15,382.57z M886.19,408.82c-6-30.32-12.49-61.4-20.02-79.12c-4.95-11.64-6.06-26.04-6.24-34.64
			c3.3,14.85,9.45,26.82,20.88,49.03c2.07,4.01,4.31,8.37,6.74,13.14c17.11,33.59,18.87,58.33,5.7,80.24
			c-2.98,4.96-5.44,9.75-7.47,14.17C887.76,441.28,889.46,425.38,886.19,408.82z M800.08,295.25c-2.82-1.59-5.73-3.05-8.54-4.46
			c-11.19-5.6-22.76-11.39-30.8-26.94c-6.24-12.06-12.29-22.22-16.05-28.27c14.19,13.41,48.98,46.66,64.72,64.88
			c2.34,2.71,4.5,5.58,6.49,8.53C811.57,303.96,806.11,298.65,800.08,295.25z M830.36,332.92c-1.32-3.28-2.85-6.72-4.55-10.2
			c-0.02-0.11-0.05-0.22-0.11-0.32c-0.03-0.05-0.11-0.19-0.24-0.4c-3.86-7.77-8.7-15.74-14.71-22.7
			c-15.78-18.26-50.6-51.55-64.83-65c9.05,5.49,25.57,15.38,44.21,25.97C816.81,275.43,831.65,302.38,830.36,332.92z M682.28,238.38
			c15.19,1.28,30.32,9.75,40.18,18.5c-11.46-6.38-36.59-18.25-57.69-13.46c-6.34,0.49-11.6,0.78-15.07,0.94
			C656.14,241.7,669.17,237.27,682.28,238.38z M703.04,256.71c-6.33-4.17-18.06-10.41-28.94-12.59
			c21.11-0.38,44.22,12.29,51.36,16.55C720.54,261.01,709.78,261.16,703.04,256.71z M718.05,277.26l2.09,0.99
			c13.14,6.24,27.98,13.25,54.8,14.64c-9.53,0.5-29.32,0.93-39.37-3.36c-14.86-6.33-38.82-13.79-54.05-15.19
			c-0.19-0.09-0.38-0.2-0.58-0.29C688.35,273.27,706.9,272,718.05,277.26z M756.01,297.04c-9.08,1.84-18.48,3.75-25.65,2.64
			c-9.03-1.4-18.44-7.34-28.4-13.62c-5.05-3.19-10.22-6.45-15.61-9.32c14.93,2.3,35.33,8.8,48.52,14.43
			c7.22,3.08,18.92,3.83,28.66,3.83c1.25,0,2.46-0.01,3.63-0.03C763.6,295.5,759.85,296.26,756.01,297.04z M779.18,294.41
			c0.39-0.03,0.69-0.05,0.91-0.07c0.09,0.08,0.19,0.17,0.29,0.25C779.98,294.51,779.58,294.46,779.18,294.41z M757.04,328.2
			c15,3.15,37.86,17.09,55.06,30.95c-5.63-3.08-14.03-7.25-25.95-12.23c-18.91-7.89-37.15-17.52-45.6-22.13
			C743.88,325.46,749.08,326.53,757.04,328.2z M804.89,364.44c-14.57,0.26-27.14,0.47-38.87-11.43
			c-10.46-10.61-20.5-20.88-25.95-26.46c8.64,4.71,26.69,14.2,45.39,22.01c17.75,7.41,27.74,13.1,32.24,15.93
			C813.25,364.3,809.01,364.37,804.89,364.44z M866.37,577.66c-0.05-3.72-0.1-7.24-0.05-10.54c0.18-11.59,2.55-33.87,16.39-52.8
			c7.58-10.37,13.48-21.05,17.07-28.11c-6.96,26.8-19.43,71.21-30.2,103.52c-1.29,3.88-2.65,7.52-4.05,10.94
			C866.6,594.49,866.48,585.98,866.37,577.66z M871.26,590.3c10.7-32.09,23.06-76.08,30.06-102.97c-0.87,14.01-2.3,41.43-2.3,70.02
			c0,39-29.69,68.38-49.65,78.61c-1.14,0.58-2.25,1.19-3.35,1.83C852.09,630.49,863.03,615,871.26,590.3z M861.69,609.38
			c-7.16,15.02-14.56,24.52-18.51,29.01C848.27,625.71,856.8,615.3,861.69,609.38z M835.76,394.7c2.04,1.97,4.55,4.12,7.6,6.28
			c10.38,7.37,17.23,16.61,21.53,42.07c2.73,16.15,0.45,30.97-1.53,39.51c0.33-8.57,0.61-22.25-0.38-31.59
			c-1.65-15.48-10.13-37.66-21.45-47.97c0,0-0.01,0-0.01-0.01c-0.3-0.44-0.57-0.89-0.89-1.33
			C838.66,398.95,837.06,396.64,835.76,394.7z M845.77,410.5c8.22,11.18,14.1,28.14,15.44,40.67c1.18,11.06,0.54,28.35,0.18,35.71
			c-3.6-8.12-8.54-22.95-8.24-36.92C853.35,440.73,852.48,424.74,845.77,410.5z M830.37,460.98c4.83,10.36,6.22,20.97,7.69,32.2
			c0.9,6.87,1.83,13.97,3.59,21.5c2.84,12.2,7.92,24.14,11.44,31.6c-4.66-6.4-11.37-17.01-15.74-30.04
			c-2.94-8.78-4.22-17.88-5.58-27.52c-1.97-13.97-4-28.41-11.51-41.88c-0.04-1.97-0.13-3.6-0.24-4.86
			C822.07,444.99,825.65,450.85,830.37,460.98z M833.01,528.91c-17.1-22.29-17-42.18-14.34-60.35c1.08-7.37,1.49-13.3,1.59-17.9
			c6.09,12.34,7.95,25.52,9.75,38.31c1.31,9.29,2.66,18.9,5.65,27.84c5.26,15.7,13.86,27.94,18.39,33.7
			C849.98,547.75,842.84,541.72,833.01,528.91z M810.03,578.72c-2,15.84-4.03,36.62-5.15,48.74c-0.02-0.12-0.03-0.23-0.04-0.35
			c-5.51-40.71-5.11-80.1-4.72-94.34c1.02,3.09,2.22,6.11,3.49,9.22C807.75,552.18,812.05,562.72,810.03,578.72z M794.79,630.16
			c-5.17-9-10.51-18.31-11.13-29c-0.95-16.57,10.07-53.33,14.65-67.78c-0.38,14.86-0.68,53.77,4.76,93.96
			c1.03,7.61,1.2,14.95,0.75,21.94C802.05,642.81,798.5,636.62,794.79,630.16z M803.71,725.2c1.66-1.91,3.41-3.95,5.23-6.07
			c20.68-24.11,51.09-59.52,92.94-73.11c-18,9.72-35.88,28.36-64.4,58.94c-23.33,25.01-46.58,39.34-58.37,45.67
			C787.26,743.74,794.99,735.24,803.71,725.2z M854.6,709.05c-17.39,30.17-47.9,61.38-81.43,58.54c-5.24-0.45-10.21-0.63-14.87-0.63
			c-3.14,0-6.13,0.09-8.96,0.23c8.57-2.6,15.87-6.31,22.65-11.06c2.34-1.01,34.53-15.39,66.78-49.97
			c29.69-31.83,47.78-50.65,66.36-59.83C888.7,658.69,871.03,680.55,854.6,709.05z"/>
		<path class="st4" d="M630.71,636.75c-1.59-18.38-18.15-35.39-32.44-49.23c-14.29-13.84-33.26-39.74-37.43-70.78
			c-2.74-20.39,0.37-35.33,2.83-43.18c15.61-18.82,16.03-54.65,13.05-62.53c-1.81-4.79-7.12-8.24-17.01-10.04
			c0.22-23.13-4.11-49.4-42.42-53.25c-0.65-0.07-1.27-0.14-1.9-0.21c-1.79-3.71-5.32-9.73-11.03-14.2
			c-8.85-6.92-27.56-12.7-34.94-18.37c-2.38-1.83-3.74-4.09-4.33-6.36c9.52,2.65,35.75-1.36,52.31,2.39
			c17.58,3.97,33.35,22.69,34.94,22.69s-3.18-18.03-20.3-28.7c-17.13-10.66-55.81-12.48-58.98-12.48s-11.23,1.93-12.25,12.48
			c-1.02,10.55,9.64,17.24,29.83,24.39c15.08,5.34,20.54,13.9,22.34,17.89c-34.59-4.19-41.73-14.04-41.73-14.04
			c-7.26,6.58,15.65,18.38,39.25,20.19c23.59,1.81,34.4,4.31,43.56,27c3.24,8.04,4.39,14.26,3.25,20.2
			c-7.16-1.03-16.43-1.3-28.21-0.69c-30.63,1.59-61.93,20.64-64.65,42.42c-2.72,21.78,29.04,30.63,53.08,12.7
			c19.93-14.85,35.8-37.49,40.65-48.68c4.86,0.99,8.74,2.44,11.3,4.22c10.21,7.09,4.89,41.26-4.08,52.4
			c-8.97,11.15-24.5,28.98-77.36,34.48s-106.39,2.27-113.43-3.18c-7.03-5.44-8.62-29.26-3.18-60.8c0.19-1.11,0.33-2.17,0.49-3.25
			c1.41,7.06,9.82,18.66,27.41,20.6c20.53,2.27,34.38-4.08,34.83-6.01c0,0,0,0,0,0c1.11,0.77,1.96,1.35,2.48,1.59
			c1.71,0.8-4.19-10.32-10.43-18.61c-5.65-7.5-9.09-12.1-18.77-14.76c10.09-2.36,15.83-10.82,19.04-19.29
			c2.17,0.8,4.54,0.5,7.1-1.69c6.24-5.33,5.9-13.61,0.23-12.82c-3.34,0.47-5.53,4.75-7.84,9.8c-1.04-0.62-2.02-1.64-2.82-3.22
			c-3.63-7.15-9.64-9.07-16.56-4.42c-6.92,4.65-18.94-0.11-20.08-6.35c-1.13-6.24-0.57-10.32,17.47-26.2
			c18.03-15.88,30.4-35.5,25.18-57.85c-4.28-18.32-15.48-28.39-22.26-31c0.53-2.71,1.16-5.59,1.96-8.7
			c10.66-38.79,48.77-57.62,52.4-59.66s1.59-6.81,0-6.81c-40.68,23.82-54.04,52.42-58.06,74.5c0,0-0.01,0-0.01,0
			c-4.23,0.63-7.49,6.89-1.5,13.59c-0.06,1.55-0.09,3.05-0.09,4.47c0,22.23-11.57,37.43-21.32,54.9
			c-9.75,17.47-16.11,34.03-12.93,52.18c3.18,18.15,3.4,37.2,0,54.22c-3.4,17.01-6.12,42.88,3.63,57.41
			c9.75,14.54,73.05,9.51,117.28,6.33c42.39-3.04,52.5-7.55,69.83-23.29c-2.44,10.06-5.97,32.04,1.85,55.5
			c10.66,31.99,30.17,54.44,45.82,68.28c15.65,13.84,19.28,27,19.28,27s-7.03-9.3-27.9-27.9c-20.87-18.6-69.42-48.32-124.32-54.22
			c-54.9-5.9-87.34,10.44-103.9,38.56c-16.56,28.13-8.62,53.31,7.71,83.48c16.33,30.17,25.41,80.31,27,87.79
			c1.59,7.49,6.13,4.08,6.35,2.27c0,0-4.08-40.83-17.47-70.55c-13.38-29.72-39.47-67.15-18.6-100.95
			c20.87-33.8,53.31-41.74,110.25-33.35s101.18,40.38,124.09,63.06C631.16,640.84,630.71,640.84,630.71,636.75z M469.64,298.52
			c5.33-0.91,37.09,4.42,49.45,8.05c12.36,3.63,19.06,9.3,19.06,9.3s-6.01-3.18-17.13-7.37c-11.12-4.2-28.47-4.54-36.07-4.42
			c-5.86,0.09-15.62-0.7-19.78-1.07C465.91,300.65,467.53,298.88,469.64,298.52z M527.03,439.62
			c-28.66,28.29-46.96,20.42-55.85,12.48c-8.89-7.94-2.45-25.63,27.04-38.11c20.88-8.84,42.78-10.41,57.42-8.07
			C551.8,414.92,542.5,424.35,527.03,439.62z M403.51,447.44c-18.38-2.16-29.49-14.18-29.26-19.28c0.14-3.2,2.79-5.51,4.74-6.79
			c5.65,5.91,22.58,8.17,32.8,11.1c6.76,1.93,13.5,6.21,18.34,9.55C426.26,444.5,417.1,449.04,403.51,447.44z M426.31,434.4
			c0,0-14.73-9.29-25.75-10.43c-11-1.14-21.09-6.47-21.77-8.62c-0.68-2.15,6.13-7.04,10.56-5.79c4.41,1.26,8.73,7.27,17.52,8.51
			C415.64,419.31,421.83,426.33,426.31,434.4z M434.82,385.85c-0.64,1.99-3.63,4.28-6.67,3.98
			C431.5,383.42,435.71,383.08,434.82,385.85z M424.95,285.7c0.32,0.99,0.61,1.95,0.89,2.9c-5.17-6.08-15.03-13.06-20.6-18.19
			c0.27-2.09,0.58-4.28,0.97-6.6C412.24,266.05,421.45,274.92,424.95,285.7z M401.59,263.92c0.27-0.23,0.59-0.4,0.94-0.5
			c-0.17,1.25-0.31,2.47-0.43,3.66C401.09,265.71,400.8,264.62,401.59,263.92z M369.37,369.46c0-13.67,22-48.94,29.26-66.18
			c4.25-10.1,4.93-18.02,5.99-27.64c0.86,0.67,1.79,1.34,2.86,2c9.88,6.08,17.04,15.1,20.07,19.32c1.03,9.29-1.44,18.07-10.09,30.59
			c-11.99,17.36-31.31,29.72-33.8,40.49c-2.5,10.78,7.49,17.35,16.22,18.15c8.73,0.79,14.63-6.35,18.49-0.45
			c1.74,2.66,3.73,5.28,5.97,6.89c-1.14,2.48-2.37,4.97-3.81,7.18c-4.22,6.43-15.66,10.33-19.86,11.58
			c-8.33-2.6-7.21-6.36-12.46-6.36c-5.28,0-12.55,6.1-11.25,12.5c-1.2,1.3-3.07,3.61-4.26,6.44
			C375.34,398.08,369.37,381.69,369.37,369.46z"/>
		<path class="st5" d="M494.03,116.3c-6.91,0-12.53-5.62-12.53-12.53c0-6.91,5.62-12.53,12.53-12.53c6.91,0,12.53,5.62,12.53,12.53
			C506.56,110.67,500.94,116.3,494.03,116.3z M494.03,96.56c-3.97,0-7.2,3.23-7.2,7.2c0,3.97,3.23,7.2,7.2,7.2
			c3.97,0,7.2-3.23,7.2-7.2C501.23,99.79,498,96.56,494.03,96.56z"/>
		<path class="st6" d="M493.84,858.86c-6.64,0-12.04-5.4-12.04-12.04c0-6.64,5.4-12.04,12.04-12.04c6.64,0,12.04,5.4,12.04,12.04
			C505.88,853.46,500.48,858.86,493.84,858.86z M493.84,840.11c-3.7,0-6.71,3.01-6.71,6.71c0,3.7,3.01,6.71,6.71,6.71
			c3.7,0,6.71-3.01,6.71-6.71C500.55,843.12,497.54,840.11,493.84,840.11z"/>
	</g>
	<g>
		<path class="st7" d="M101.3,220.91l4.27,3.98l-0.33,1.04c-3.56,1.25-6.26,3.26-8.07,6.02c-1.02,1.55-1.59,3.1-1.73,4.66
			c-0.13,1.56,0.1,2.97,0.7,4.24c0.6,1.26,1.44,2.25,2.52,2.96c1.12,0.74,2.34,1.04,3.64,0.91c1.31-0.13,2.62-0.51,3.93-1.15
			c1.31-0.64,3-1.57,5.05-2.79c2.53-1.58,4.69-2.76,6.49-3.55c1.8-0.79,3.71-1.23,5.73-1.31c2.02-0.08,4.01,0.52,5.96,1.81
			c2.08,1.37,3.62,3.19,4.62,5.47c1,2.28,1.35,4.79,1.04,7.52c-0.31,2.73-1.33,5.42-3.06,8.06c-2.53,3.85-5.84,6.83-9.91,8.95
			l-4.7-3.99l0.14-0.9c2.38-0.53,4.49-1.46,6.35-2.79c1.86-1.33,3.32-2.81,4.39-4.44c1.05-1.59,1.66-3.21,1.85-4.85
			c0.19-1.64-0.03-3.13-0.64-4.47c-0.61-1.33-1.5-2.38-2.67-3.15c-1.75-1.15-3.59-1.4-5.53-0.76c-1.94,0.64-4.43,1.91-7.47,3.81
			c-2.54,1.51-4.68,2.65-6.41,3.43c-1.73,0.78-3.59,1.2-5.58,1.28c-1.98,0.07-3.95-0.53-5.91-1.82c-2.04-1.34-3.54-3.13-4.52-5.36
			c-0.98-2.23-1.3-4.66-0.97-7.29c0.33-2.63,1.33-5.22,3.01-7.77C95.42,225.77,98.01,223.19,101.3,220.91z"/>
		<path class="st7" d="M165.21,213.88l-4.07,4.52l-10.46-9.92l-25.12-22.1l4.12-4.58l24.23,22.31L165.21,213.88z M183.02,192.2
			l0.5,0.56c-0.71,1.45-1.68,3.13-2.93,5.04l-0.73,0.25c-12.24-0.1-23.13-0.61-32.69-1.52l-0.33-0.3l-2.79-24.14l-1.15-4.98
			l4.57-5.08l3.69,29.5C162.31,192.33,172.92,192.55,183.02,192.2z"/>
		<path class="st7" d="M211.42,168.47l-4.63,3.95l-9.07-11.21l-22-25.2l4.69-4l21.09,25.29L211.42,168.47z"/>
		<path class="st7" d="M272.42,125.42l-5.33,3.37l-41.49-19.1l-0.38,0.24l11.99,19.1l8.61,13.2l-4.76,3.01l-7.26-12.19l-18.18-28.35
			l5.33-3.37l41.42,19.13l0.44-0.28l-20.37-32.09l4.59-3.43l17.77,28.96L272.42,125.42z"/>
		<path class="st7" d="M367.14,86.01l-2.51-4.22l-5.05-7.02l-10.38,3.05l-9.25,3.16l-0.41,8.43l0.38,5.2l-5.73,1.81l2.41-50.96
			l6.66-2.1l29.75,40.8L367.14,86.01z M341.9,50.29l-0.5,0.16l-1.2,25.13l8.07-2.39l8.19-2.75L341.9,50.29z"/>
		<path class="st7" d="M431.17,73.3l-26.72,4.17l-1.85-14.3l-5.53-33l26.8-4.19l0.39,0.54l0.27,4.64l-11.24,1.53l-9.4,1.62
			l2.27,15.52l8.93-1.24l7.83-1.45l0.53,0.45l0.2,4.66l-8.34,1.15l-8.45,1.4l1.02,7.02l1.76,9.78l9.44-1.4l11.38-2.08l0.46,0.53
			L431.17,73.3z"/>
		<path class="st7" d="M487.03,24.53l-0.89,5.76l-1.05,0.31c-3.04-2.24-6.21-3.34-9.52-3.28c-1.85,0.03-3.46,0.43-4.83,1.2
			c-1.37,0.77-2.4,1.76-3.11,2.96c-0.71,1.21-1.05,2.46-1.03,3.75c0.02,1.34,0.45,2.52,1.3,3.53c0.84,1.01,1.9,1.87,3.16,2.6
			c1.26,0.73,2.98,1.6,5.15,2.61c2.72,1.2,4.92,2.32,6.59,3.37c1.67,1.04,3.11,2.38,4.31,4c1.2,1.62,1.82,3.61,1.86,5.94
			c0.04,2.49-0.6,4.79-1.92,6.9c-1.32,2.11-3.2,3.81-5.63,5.09c-2.43,1.28-5.23,1.95-8.38,2c-4.61,0.07-8.93-0.98-12.97-3.15
			l0.65-6.13l0.82-0.39c1.78,1.67,3.74,2.89,5.88,3.68c2.14,0.79,4.19,1.17,6.14,1.13c1.9-0.03,3.59-0.43,5.05-1.2
			c1.46-0.77,2.58-1.78,3.33-3.04c0.76-1.26,1.12-2.58,1.1-3.98c-0.03-2.09-0.86-3.76-2.48-5c-1.62-1.24-4.07-2.59-7.35-4.03
			c-2.68-1.25-4.82-2.37-6.44-3.37c-1.62-0.99-3.02-2.29-4.19-3.89c-1.18-1.6-1.78-3.57-1.82-5.91c-0.04-2.44,0.59-4.69,1.88-6.75
			c1.29-2.06,3.12-3.7,5.48-4.9c2.36-1.21,5.07-1.84,8.12-1.88C479.71,22.4,483.3,23.09,487.03,24.53z"/>
		<path class="st7" d="M554.47,33.5l-8.3-1.47l-4.85-0.59l-3.64,27.92l-1.59,14.85l-6.04-0.74l2.2-14.25l3.11-28.51l-4.85-0.59
			l-8.56-0.6l-0.3-0.64l1.01-4.54l32.44,3.97l0.37,0.65L554.47,33.5z"/>
		<path class="st7" d="M616.88,92.52l-5.84-1.7l4.45-13.72l1.92-6.91l-12.92-3.98l-11.75-3.18l-1.92,6.36l-3.87,14.43l-5.84-1.7
			l4.38-13.74l8.96-32.23l5.92,1.72l-6.09,20.16l12.06,3.73l12.47,3.39l5.58-20.31l5.92,1.72l-9.47,31.54L616.88,92.52z"/>
		<path class="st7" d="M676.12,117.99l-24.43-11.61l6.52-12.86l14.02-30.38l24.5,11.64l0.02,0.67l-2.39,3.99l-10.15-5.07l-8.68-3.96
			l-6.87,14.1l8.08,4l7.29,3.21l0.18,0.67l-2.46,3.96l-7.54-3.75L666.44,89l-3.11,6.37l-4.06,9.07l8.59,4.16l10.58,4.7l0.08,0.7
			L676.12,117.99z"/>
		<path class="st7" d="M751.25,114.37l-6.75-5.04l-4.06-2.71l-15.8,23.3l-8.1,12.55l-5.06-3.37l8.37-11.74l15.59-24.07l-4.06-2.71
			l-7.37-4.38l0.02-0.71l2.94-3.6l27.19,18.13l0.04,0.75L751.25,114.37z"/>
		<path class="st7" d="M757.76,174.35l-4.6-3.98l9.72-10.65l21.62-25.54l4.66,4.03l-21.84,24.65L757.76,174.35z"/>
		<path class="st7" d="M838.68,193.43l-4.87,2.73l-0.56-0.41c-0.15-4.36-1.67-8.17-4.57-11.42c-3.17-3.55-6.81-5.2-10.95-4.94
			c-4.13,0.26-8.54,2.48-13.23,6.65c-4.72,4.21-7.48,8.37-8.27,12.5c-0.79,4.13,0.36,7.93,3.46,11.41
			c3.07,3.44,6.98,5.55,11.75,6.34l0.22,0.81l-4.59,3.38c-4.68-1.66-8.52-4.18-11.52-7.54c-4.3-4.82-6.08-9.95-5.34-15.37
			c0.74-5.42,3.99-10.7,9.75-15.83c5.91-5.27,11.69-7.94,17.36-8.02c5.66-0.08,10.76,2.42,15.29,7.51
			C835.97,185,838,189.07,838.68,193.43z"/>
		<path class="st7" d="M876.05,243.78l-5.35,2.33l-0.83-0.72c0.27-3.77-0.5-7.04-2.31-9.8c-1.01-1.55-2.21-2.7-3.59-3.44
			c-1.38-0.74-2.77-1.09-4.16-1.05c-1.4,0.05-2.64,0.42-3.72,1.13c-1.12,0.74-1.89,1.73-2.29,2.98c-0.4,1.25-0.57,2.6-0.51,4.06
			c0.06,1.46,0.24,3.37,0.55,5.75c0.44,2.94,0.66,5.4,0.67,7.37c0.01,1.97-0.35,3.9-1.08,5.78c-0.73,1.88-2.08,3.47-4.03,4.75
			c-2.08,1.36-4.37,2.05-6.86,2.06c-2.49,0.01-4.93-0.67-7.31-2.04c-2.39-1.37-4.44-3.38-6.17-6.02c-2.52-3.86-3.94-8.07-4.26-12.65
			l5.54-2.72l0.76,0.49c-0.46,2.39-0.45,4.7,0.03,6.94c0.48,2.23,1.25,4.16,2.32,5.8c1.04,1.59,2.28,2.8,3.71,3.63
			c1.43,0.83,2.88,1.23,4.35,1.19c1.46-0.03,2.78-0.43,3.95-1.19c1.75-1.14,2.72-2.73,2.9-4.77c0.19-2.04,0.01-4.83-0.52-8.37
			c-0.37-2.93-0.57-5.34-0.59-7.24c-0.02-1.9,0.33-3.78,1.05-5.62c0.72-1.85,2.07-3.41,4.02-4.7c2.04-1.33,4.28-2.01,6.71-2.01
			c2.43-0.01,4.79,0.67,7.07,2.02c2.28,1.35,4.26,3.3,5.93,5.86C873.93,236.45,875.27,239.86,876.05,243.78z"/>
	</g>
	<g>
		<g>
			<path class="st7" d="M49.78,742.43l-10.35-16.3l8.81-5.28l19.98-13l10.38,16.34l-0.24,0.41l-2.96,1.5l-4.21-6.92l-3.74-5.69
				l-9.49,5.9l3.36,5.49l3.18,4.71l-0.14,0.47l-2.99,1.45l-3.13-5.13l-3.32-5.13l-4.3,2.66l-5.89,3.93l3.61,5.78l4.61,6.86
				l-0.22,0.45L49.78,742.43z"/>
			<path class="st7" d="M104.53,765.02c-0.54,3.76-2.84,7.26-6.9,10.48c-4.69,3.73-9.17,5.48-13.43,5.25
				c-4.26-0.23-8.03-2.41-11.32-6.55c-2.18-2.74-4.41-5.72-6.69-8.93l-0.03-0.04l8.21-6.18l18.5-15.04l0.03,0.04l7.87,9.57
				C103.82,757.45,105.07,761.25,104.53,765.02z M84.1,776.9c3.06,0.06,6.42-1.37,10.09-4.28c7-5.56,8.2-11.24,3.59-17.03
				c-1.4-1.76-3.07-3.75-5-5.96l-15.71,12.21l-5.44,4.53c1.39,2.09,2.89,4.15,4.49,6.16C78.38,775.38,81.04,776.84,84.1,776.9z"/>
			<path class="st7" d="M104.56,810.56l-3-3.14l7.6-6.91l17.03-16.68l3.04,3.18l-17.14,16.03L104.56,810.56z"/>
			<path class="st7" d="M163.2,823.16l-3.21,2.34l-0.43-0.24c-0.48-3.08-1.89-5.64-4.22-7.7c-2.55-2.25-5.27-3.1-8.18-2.57
				c-2.9,0.54-5.84,2.48-8.79,5.83c-2.98,3.38-4.58,6.56-4.78,9.55c-0.21,2.99,0.94,5.58,3.43,7.78c2.47,2.18,5.42,3.34,8.86,3.49
				l0.23,0.55l-2.96,2.78c-3.46-0.78-6.39-2.24-8.81-4.37c-3.46-3.05-5.16-6.53-5.1-10.43c0.06-3.9,1.9-7.91,5.54-12.03
				c3.73-4.23,7.6-6.61,11.6-7.15c4-0.54,7.83,0.81,11.47,4.02C160.56,817.42,162.34,820.13,163.2,823.16z"/>
			<path class="st7" d="M182.99,879.76l1.38-3.21l1.94-5.85l-6.11-4.73l-5.69-4.03l-5.04,3.28l-2.85,2.4l-3.45-2.56l30.44-19.88
				l4.01,2.97l-11.1,34.23L182.99,879.76z M193.06,850.26l-0.3-0.22l-15.01,9.8l4.76,3.67l5.02,3.59L193.06,850.26z"/>
			<path class="st7" d="M223.96,905.44l-14.62-8.58l5.43-8.72l11.83-20.7l3.79,2.23l-12.11,20.1l-3.44,6.18l10.96,6.43l0.09,0.48
				L223.96,905.44z"/>
			<path class="st7" d="M312.99,913.22l-2.25,3.28l-0.49-0.08c-1.48-2.74-3.66-4.69-6.54-5.86c-3.15-1.27-6-1.17-8.57,0.3
				c-2.56,1.47-4.68,4.28-6.36,8.42c-1.69,4.18-2.13,7.71-1.33,10.59c0.8,2.89,2.74,4.95,5.82,6.2c3.05,1.23,6.22,1.35,9.52,0.35
				l0.4,0.45l-1.86,3.61c-3.52,0.41-6.77,0.01-9.76-1.19c-4.28-1.73-7.04-4.44-8.28-8.14c-1.24-3.7-0.83-8.09,1.23-13.19
				c2.11-5.23,4.97-8.76,8.57-10.6c3.6-1.84,7.65-1.84,12.16-0.02C308.59,908.69,311.18,910.65,312.99,913.22z"/>
			<path class="st7" d="M360.99,930.3c1.61,3.47,1.66,7.79,0.14,12.96c-1.63,5.55-4.17,9.46-7.63,11.73
				c-3.46,2.28-7.56,2.72-12.3,1.33c-4.46-1.31-7.49-3.75-9.09-7.32c-1.6-3.57-1.62-8-0.07-13.27c1.6-5.45,4.1-9.26,7.52-11.44
				c3.41-2.18,7.51-2.57,12.28-1.17C356.33,924.44,359.38,926.84,360.99,930.3z M336.41,936.46c-2.66,9.06-0.64,14.56,6.05,16.53
				c6.86,2.01,11.59-1.41,14.19-10.26c1.33-4.53,1.48-8.13,0.46-10.81c-1.02-2.68-3.23-4.52-6.62-5.52
				C343.66,924.39,338.96,927.74,336.41,936.46z"/>
			<path class="st7" d="M408.14,937.95l-1.45,3.89l-0.78,0.07c-1.8-2.01-3.86-3.23-6.18-3.67c-1.3-0.25-2.48-0.2-3.55,0.13
				c-1.07,0.34-1.93,0.88-2.6,1.62s-1.09,1.56-1.26,2.47c-0.18,0.94-0.05,1.82,0.39,2.65c0.44,0.83,1.05,1.58,1.83,2.27
				c0.78,0.69,1.85,1.55,3.22,2.57c1.73,1.23,3.1,2.34,4.12,3.31c1.02,0.97,1.83,2.11,2.43,3.42c0.6,1.31,0.75,2.78,0.44,4.42
				c-0.33,1.74-1.11,3.26-2.34,4.54c-1.23,1.28-2.79,2.2-4.67,2.74s-3.94,0.6-6.15,0.18c-3.23-0.62-6.1-1.98-8.61-4.09l1.35-4.18
				l0.63-0.15c1,1.42,2.2,2.56,3.58,3.42c1.38,0.86,2.76,1.42,4.13,1.68c1.33,0.26,2.57,0.22,3.71-0.1
				c1.13-0.32,2.06-0.87,2.77-1.64c0.71-0.77,1.16-1.64,1.35-2.61c0.28-1.46-0.06-2.75-1.01-3.85c-0.95-1.1-2.47-2.4-4.55-3.88
				c-1.69-1.26-3.03-2.36-4.01-3.29c-0.99-0.93-1.78-2.04-2.37-3.32c-0.59-1.29-0.73-2.75-0.42-4.39c0.33-1.71,1.09-3.19,2.3-4.44
				c1.2-1.25,2.72-2.13,4.54-2.63c1.82-0.5,3.81-0.55,5.95-0.14C403.33,935.4,405.74,936.4,408.14,937.95z"/>
			<path class="st7" d="M514.28,977.24l-19.31,0.3l0.11-10.27l-0.64-23.83l19.36-0.3l0.22,0.42l-0.27,3.3l-8.1-0.03l-6.81,0.21
				l0.07,11.17l6.44,0.01l5.68-0.25l0.33,0.37l-0.32,3.3l-6.01-0.01l-6.11,0.15l0.03,5.06l0.27,7.07l6.81-0.05l8.26-0.34l0.27,0.42
				L514.28,977.24z"/>
			<path class="st7" d="M559.65,943.15l-6.01,0.3l-3.47,0.36l1.9,19.97l1.25,10.57l-4.32,0.45l-0.73-10.25l-2.36-20.3l-3.47,0.36
				l-6.05,0.94l-0.31-0.4l-0.02-3.31l23.21-2.39l0.36,0.39L559.65,943.15z"/>
			<path class="st7" d="M608.88,935.34c3.03,2.33,5.07,6.14,6.11,11.43c1.12,5.67,0.67,10.32-1.35,13.93
				c-2.02,3.62-5.45,5.9-10.29,6.86c-4.56,0.9-8.37,0.14-11.44-2.3c-3.07-2.43-5.13-6.34-6.2-11.74c-1.1-5.57-0.64-10.11,1.38-13.62
				c2.02-3.51,5.47-5.74,10.35-6.71C602.04,932.3,605.85,933.01,608.88,935.34z M589.92,952.15c1.83,9.26,6.16,13.21,13,11.86
				c7.01-1.39,9.63-6.6,7.84-15.65c-0.91-4.63-2.44-7.9-4.59-9.8c-2.14-1.91-4.95-2.52-8.43-1.84
				C590.77,938.1,588.16,943.25,589.92,952.15z"/>
			<path class="st7" d="M662.16,951.6l-16.25,4.82l-2.67-9.92l-7.04-22.78l4.22-1.25l6.42,22.57l2.17,6.74l12.19-3.62l0.41,0.27
				L662.16,951.6z"/>
			<path class="st7" d="M702.89,903.84c3.4,1.74,6.11,5.11,8.1,10.12c2.14,5.37,2.55,10.02,1.23,13.95
				c-1.32,3.93-4.28,6.8-8.86,8.63c-4.32,1.72-8.21,1.67-11.67-0.16c-3.46-1.83-6.21-5.3-8.24-10.41c-2.1-5.27-2.48-9.82-1.13-13.64
				c1.35-3.82,4.33-6.65,8.95-8.49C695.6,902.1,699.48,902.1,702.89,903.84z M687.33,923.84c3.49,8.77,8.48,11.86,14.95,9.28
				c6.64-2.64,8.26-8.25,4.85-16.82c-1.75-4.38-3.85-7.32-6.31-8.8c-2.46-1.48-5.33-1.57-8.62-0.26
				C685.59,909.86,683.97,915.4,687.33,923.84z"/>
			<path class="st7" d="M763.63,903.86c-3.13,3.32-6.08,5.79-8.89,7.37c-4.44,2.52-8.48,3.18-12.12,1.94
				c-3.64-1.23-6.81-4.21-9.49-8.92c-2.9-5.08-3.86-9.68-2.84-13.77c1-4.1,3.82-7.48,8.49-10.13c3.13-1.79,6.45-2.75,9.93-2.91
				l1.26,3.95l-0.41,0.36c-2.03-0.07-3.77,0.04-5.26,0.36c-1.49,0.32-2.93,0.87-4.34,1.67c-6.73,3.84-7.77,9.88-3.06,18.14
				c2.26,3.98,4.71,6.45,7.34,7.43c2.63,0.98,5.6,0.53,8.89-1.35c1.55-0.89,3.36-2.4,5.44-4.55l-1.88-3.54l-2.45-4.18l-4.99,3.32
				l-2.1-3.32l8.74-5.19l1.69,2.93l2.17,4.02L763.63,903.86z"/>
			<path class="st7" d="M798.7,883.89l-3.63,2.39l-5.21-8.48l-1.31-1.88l-21.18-12.22l3.85-2.54l1.64,1.21l14.71,8.65l0.36-0.24
				l-1.54-17.22l-0.44-2.13l3.81-2.51l2.11,24.81l1.22,1.94L798.7,883.89z"/>
			<path class="st7" d="M849.78,801.15l1.98,3.45l-0.29,0.4c-3.11,0.14-5.81,1.26-8.11,3.36c-2.51,2.29-3.66,4.9-3.44,7.85
				c0.22,2.95,1.83,6.07,4.84,9.38c3.03,3.33,6.02,5.26,8.97,5.79c2.95,0.53,5.65-0.32,8.11-2.56c2.43-2.21,3.91-5.03,4.44-8.43
				l0.58-0.16l2.44,3.24c-1.15,3.35-2.92,6.11-5.3,8.28c-3.41,3.11-7.05,4.42-10.92,3.94c-3.87-0.48-7.66-2.75-11.36-6.82
				c-3.8-4.17-5.75-8.27-5.84-12.31c-0.1-4.04,1.65-7.69,5.25-10.97C843.79,803.15,846.67,801.67,849.78,801.15z"/>
			<path class="st7" d="M902.1,790.41l-11.43,12.52l-7.4-7.12l-17.79-15.87l2.97-3.25l17.15,16.02l5.34,4.65l8.57-9.39l0.49,0.01
				L902.1,790.41z"/>
			<path class="st7" d="M923.09,765.26l-2.66,3.43l-7.95-6.51l-19-14.41l2.7-3.47l18.37,14.6L923.09,765.26z"/>
			<path class="st7" d="M954.55,719.47l-2.41,3.81l-32.56,0.41l-0.17,0.27l13.55,8.64l9.57,5.87l-2.15,3.4l-8.4-5.63l-20.37-12.7
				l2.41-3.81l32.53-0.36l0.2-0.32l-22.92-14.44l1.91-3.61l20.29,13.22L954.55,719.47z"/>
			<path class="st7" d="M970.21,689.5l-1.95,3.88l-9.05-4.86l-21.41-10.49l1.98-3.93l20.83,10.8L970.21,689.5z"/>
			<path class="st7" d="M962.49,629.79l3.3,2.23l-0.08,0.49c-2.73,1.5-4.67,3.69-5.81,6.58c-1.25,3.16-1.13,6.01,0.36,8.56
				c1.49,2.55,4.31,4.65,8.47,6.3c4.19,1.66,7.72,2.08,10.6,1.26c2.88-0.82,4.93-2.78,6.16-5.87c1.21-3.06,1.3-6.23,0.28-9.52
				l0.44-0.4l3.62,1.84c0.44,3.52,0.06,6.77-1.12,9.77c-1.7,4.29-4.39,7.07-8.08,8.34c-3.69,1.27-8.09,0.89-13.2-1.13
				c-5.24-2.08-8.8-4.91-10.66-8.49c-1.86-3.58-1.9-7.64-0.11-12.16C957.98,634.22,959.93,631.63,962.49,629.79z"/>
			<polygon class="st7" points="25.13,699.9 23.46,696.76 44.46,685.57 18.14,687.93 16.42,684.71 34.18,663.03 11.67,675 
				10,671.86 39.4,656.23 41.2,660.08 21.55,684.06 52.14,681.31 54.11,684.46 			"/>
			<polygon class="st7" points="465.63,977.53 462.08,977.39 463.05,953.61 451.77,977.52 448.13,977.37 438.4,951.09 
				437.34,976.56 433.79,976.41 435.18,943.15 439.4,943.54 450.16,972.61 463.26,944.83 466.96,944.73 			"/>
		</g>
	</g>
</g>
</svg>
