<?xml version="1.0" encoding="utf-8"?>
<!-- Generator: Adobe Illustrator 24.1.2, SVG Export Plug-In . SVG Version: 6.00 Build 0)  -->
<svg version="1.1" id="Layer_1" xmlns="http://www.w3.org/2000/svg" xmlns:xlink="http://www.w3.org/1999/xlink" x="0px" y="0px"
	 viewBox="0 0 1000 1000" style="enable-background:new 0 0 1000 1000;" xml:space="preserve">
<style type="text/css">
	.st0{fill:url(#SVGID_1_);}
	.st1{fill:url(#SVGID_2_);}
	.st2{fill:url(#SVGID_3_);}
	.st3{fill:#F6C300;}
	.st4{fill:#FFFFFF;}
	.st5{fill:none;}
	.st6{fill:#B85102;}
	.st7{fill:#1F88DD;}
	.st8{fill:#113560;}
	.st9{fill:#B6AFB4;}
</style>
<g>
	<g>
		<g>
			<g>
				<g>
					<linearGradient id="SVGID_1_" gradientUnits="userSpaceOnUse" x1="506.4718" y1="658.2944" x2="506.4718" y2="658.2944">
						<stop  offset="0" style="stop-color:#1F88DD"/>
						<stop  offset="1" style="stop-color:#FFFFFF"/>
					</linearGradient>
					<path class="st0" d="M506.47,658.29"/>
					<linearGradient id="SVGID_2_" gradientUnits="userSpaceOnUse" x1="506.4718" y1="658.2944" x2="506.4718" y2="658.2944">
						<stop  offset="0" style="stop-color:#1F88DD"/>
						<stop  offset="1" style="stop-color:#FFFFFF"/>
					</linearGradient>
					<path class="st1" d="M506.47,658.29"/>
				</g>
				<g>
					<g>
						<linearGradient id="SVGID_3_" gradientUnits="userSpaceOnUse" x1="506.4812" y1="826.4526" x2="506.4812" y2="18.6504">
							<stop  offset="0" style="stop-color:#1F88DD"/>
							<stop  offset="1" style="stop-color:#FFFFFF"/>
						</linearGradient>
						<path class="st2" d="M875.17,466.77l-14.31,51.15c-1.18,4.18-29.85,103.38-128.24,167c-74.96,48.47-122.94,53.62-143.63,52.75
							l-82.52,86.85l-82.52-86.85c-20.71,0.86-68.67-4.28-143.63-52.75c-98.39-63.61-127.06-162.82-128.24-167l-14.31-51.15
							l29.72,22.25c-1.46-8.84-1.5-15.6-1.12-20.35c-14.92-35.66-9.88-84.69,12.98-121.53c20.31-32.7,50.73-50.71,85.69-50.71
							c42.71,0,76.06,21.19,98.58,42.12v-18.26c-13.83-3.63-31.69-10.77-48.19-21.87c-34.52-23.22-52.77-56.05-52.77-94.93
							c0-87.29,67.07-125.48,69.92-127.08l26.81-14.86v0.51c22.65-21.76,58.26-42.98,111-42.98c46.02,0,84.12,19.53,112.5,41.65
							l12.98-1.71c42.68-5.62,84.8,6.57,115.51,33.52c27.19,23.85,42.18,56.89,42.18,93.05c0,37.15-16.93,65.82-48.95,82.88
							c-27.76,14.8-56.83,15.22-60.06,15.22c-3.61,0-7.14-0.23-10.6-0.66c2.17,2.93,4.18,4.98,7.43,7.18l7.92,5.36v42.98
							c22.52-20.94,55.86-42.12,98.58-42.12c34.96,0,65.38,18.01,85.69,50.71c22.86,36.84,27.89,85.86,12.98,121.53
							c0.38,4.75,0.34,11.51-1.12,20.35L875.17,466.77z"/>
					</g>
				</g>
			</g>
		</g>
		<g>
			<path d="M843.47,513.05c0,0-26.87,96.07-120.66,156.7c-93.77,60.65-140.78,49-140.78,49l-75.57,79.56l-75.57-79.56
				c0,0-47.01,11.65-140.78-49c-93.79-60.63-120.66-156.7-120.66-156.7c15.52,11.63,32.99,20.39,32.99,20.39
				c-23.77-45.6-17.46-67.43-17.46-67.43c-26.68-53.85,6.8-151.53,80.05-151.53c73.25,0,116.63,73.78,116.63,73.78v-83.11
				c-15.16,0-100.95-23.98-100.95-101.65c0-77.66,60.63-111.29,60.63-111.29c0,10.68,1.46,23.05,1.46,23.05
				s32.51-78.11,127.59-78.11c95.08,0,154.76,95.31,154.76,95.31s9.94-0.95,6.29-12.83c-3.63-11.89-33.21-42.69-33.21-42.69
				c69.85-9.22,137.28,36.88,137.28,108.67c0,71.8-74.71,80.05-90.96,80.05s-31.54-6.31-44.88-12.37
				c-13.34-6.06-24.51-8.32-24.51-8.32c7.43,4.85,14.76,10.87,21.55,18.3c20.08,22.19,19.8,31.9,34.54,41.9v83.11
				c0,0,43.38-73.78,116.63-73.78c73.25,0,106.73,97.68,80.05,151.53c0,0,6.31,21.83-17.46,67.43
				C810.49,533.44,827.95,524.68,843.47,513.05z"/>
			<g>
				<g>
					<path class="st3" d="M472.84,607.49v27.34c-28.24-18.03-69.89-49.67-107.72-97.84c-30.36-38.67-37.93-66.12-33.61-84.4
						c11.99-1.52,21.32,15.5,22.23,17.2c0.04,0.09,0.06,0.13,0.06,0.13c4.48,11.72,13.17,25.78,27.86,43.07c0,0,0,0.02,0.02,0.06
						C382.21,514.57,394.5,547.79,472.84,607.49z"/>
					<path class="st4" d="M353.74,469.79c-0.91-1.69-10.24-18.72-22.23-17.2c3.48-14.8,14.76-23.6,28.05-27.44
						C351.14,435.72,345.84,449.04,353.74,469.79z"/>
					<line class="st5" x1="472.84" y1="634.85" x2="472.84" y2="634.83"/>
					<path class="st6" d="M610.29,502.83c-27.67,44.29-103.82,88.09-103.82,88.09s-76.16-43.8-103.82-88.09
						c4.5,6.69,25.99,33.75,103.82,79.59C584.3,536.58,605.79,509.52,610.29,502.83z"/>
					<path class="st5" d="M402.65,502.83c-0.1-0.13-0.17-0.25-0.23-0.34c-0.29-0.44-0.49-0.76-0.61-0.99
						c-0.08-0.11-0.11-0.19-0.15-0.25c0-0.02-0.02-0.04-0.02-0.06c-0.02-0.02-0.02-0.02-0.02-0.02"/>
					<polygon class="st6" points="464.82,478.13 456.94,483.95 432.52,466.92 436.93,458.73 					"/>
					<rect x="501.28" y="472.64" width="10.37" height="60.8"/>
					<path class="st3" d="M477.69,486.87v38.08h7.28v-38.08H477.69z M477.69,486.87v38.08h7.28v-38.08H477.69z"/>
					<path class="st3" d="M577.71,476.55l-21.83,17.96l-38.32-23.41l-5.89,62.34v6.06h-10.37v-6.06l-5.89-62.34l-38.32,23.41
						l-21.83-17.96l-9.96,16.49l16.76,23.71c16.26,13.36,39.24,29.38,64.43,38.13c25.2-8.76,48.17-24.78,64.43-38.13l16.76-23.71
						L577.71,476.55z M484.96,524.95h-7.28v-38.08h7.28V524.95z M535.26,524.95h-7.28v-38.08h7.28V524.95z"/>
					<rect x="477.69" y="486.87" class="st5" width="7.28" height="33.71"/>
					<rect x="477.69" y="486.87" width="7.28" height="33.71"/>
					<rect x="477.69" y="520.58" class="st6" width="7.28" height="4.37"/>
					<path class="st6" d="M446.22,446.23c-2.7,1.14-6.54,2.66-9.52,3.55c-7.98-7.01-15.96-15.71-21.11-25.75
						C415.59,424.04,426.31,433.95,446.22,446.23z"/>
					<path class="st3" d="M473.89,461.32l-10.51,7.03c0,0-13.32-6.86-26.68-18.56c2.98-0.89,6.82-2.41,9.52-3.55
						C454.07,451.05,463.3,456.24,473.89,461.32z"/>
					<polygon class="st4" points="393.51,451.21 400.83,472.64 382.83,448.41 403.7,388.26 409.45,393.35 					"/>
					<polygon class="st3" points="424.46,463.65 411.83,487.46 400.83,472.64 393.51,451.21 409.45,393.35 402.65,431.92 
						416.75,447.88 					"/>
					<polygon class="st6" points="429.78,453.64 426.8,459.24 416.75,447.88 402.65,431.92 409.45,393.35 413.04,396.5 
						408.56,427.68 					"/>
					<polygon class="st4" points="426.8,459.24 424.46,463.65 416.75,447.88 					"/>
					<path class="st3" d="M481.33,442.07c-3.15,5.99-9.63,8.89-17.56,0c-7.92-8.89-23.45-27.32-23.45-27.32l22.15,14.76
						c0,0,6.78,17.25,14.23,9.48L481.33,442.07z"/>
					<path class="st4" d="M476.72,438.99c-7.45,7.77-14.23-9.48-14.23-9.48L476.72,438.99z"/>
					<path class="st4" d="M407.04,328.71l-6.73,42.45v-46.32C400.31,324.83,402.65,326.28,407.04,328.71z"/>
					<path class="st3" d="M496.61,377.96v56.03l-36.96-12.67l-0.04-0.02c-19.21-12.6-41.14-29.49-59.3-50.14l6.73-42.45
						c4.1,2.28,9.99,5.42,17.46,9.1C436.36,349.82,496.61,377.96,496.61,377.96z"/>
					<path class="st5" d="M424.5,337.81c-0.02-0.02-0.02-0.02-0.04-0.04"/>
					<polygon points="493.86,383.53 493.86,420.41 474.93,410.55 486.41,413.6 486.41,383.85 474.93,375.45 					"/>
					<polygon class="st6" points="486.41,383.85 486.41,413.6 474.93,410.55 474.93,375.45 					"/>
					<polygon points="467.6,373.8 467.6,405.43 451.37,396.97 461.21,399.6 461.21,374.07 451.37,366.87 					"/>
					<polygon class="st6" points="461.21,374.07 461.21,399.6 451.37,396.97 451.37,366.87 					"/>
					<polygon points="443.61,362.05 443.61,392.65 429.8,384.46 438.17,387 438.17,362.32 429.8,355.35 					"/>
					<polygon class="st6" points="438.17,362.32 438.17,387 429.8,384.46 429.8,355.35 					"/>
					<polygon points="425.41,353.25 425.41,380.76 413,373.4 420.52,375.69 420.52,353.49 413,347.22 					"/>
					<polygon class="st6" points="420.52,353.49 420.52,375.69 413,373.4 413,347.22 					"/>
					<path class="st4" d="M418.74,312.54l-7.6,8.08c-2.91-1.58-5.74-3.21-8.49-4.85l6.8-7.43
						C409.45,308.34,412.87,309.99,418.74,312.54z"/>
					<path class="st6" d="M601.8,320.61c-11.89,6.52-24.87,12.56-37.32,17.86l-0.06,0.02l-57.95,13.26l-57.95-13.26l-0.06-0.02
						c-12.45-5.3-25.42-11.34-37.32-17.86l7.6-8.08c16.76,7.28,53.53,21.77,87.73,25.27c34.2-3.5,70.97-17.99,87.73-25.27
						L601.8,320.61z"/>
					<path class="st3" d="M564.42,338.49c-30.59,13.03-57.95,21.58-57.95,21.58s-27.36-8.55-57.95-21.58l57.95,13.26L564.42,338.49z
						"/>
					<path class="st4" d="M528.55,243.09l-3.27,40.34l-3.12-28.94c0,0-4.94-3.15-15.69-3.15c-10.75,0-15.69,3.15-15.69,3.15
						l-3.12,28.94l-3.27-40.34c0,0,6.48-5.83,22.08-5.83C522.07,237.26,528.55,243.09,528.55,243.09z"/>
					<path class="st3" d="M525.28,283.43v0.04l-3.36,41.36c-2.05,1.71-4.47,2.83-6.78,3.53V303c0,0-3.5,1.94-8.66,1.94
						c-5.17,0-8.66-1.94-8.66-1.94v25.37c-2.32-0.7-4.73-1.82-6.78-3.53l-3.36-41.36v-0.04l3.12-28.94c0,0,4.94-3.15,15.69-3.15
						c10.75,0,15.69,3.15,15.69,3.15L525.28,283.43z"/>
					<path class="st6" d="M515.14,303v25.37c-4.54,1.43-8.66,1.31-8.66,1.31s-4.12,0.11-8.66-1.31V303c0,0,3.5,1.94,8.66,1.94
						C511.64,304.94,515.14,303,515.14,303z"/>
					<path class="st4" d="M478.46,263.25c-27.44,3.99-50.52,32.47-56.45,40.38l-5.24-1.84c0,0,10.34-41.95,60.73-54.32
						L478.46,263.25z"/>
					<path class="st3" d="M479.85,285.44c-6.95,3.48-20.62,11.76-31.29,27.53l-26.54-9.35c5.93-7.9,29.01-36.39,56.45-40.38
						L479.85,285.44z"/>
					<path class="st6" d="M482.28,324.83l-33.73-11.86c10.68-15.77,24.34-24.06,31.29-27.53L482.28,324.83z"/>
					<path class="st4" d="M352.53,397.93c0,0-13.3,1.63-29.77,6.94c-21.07-2.22-108.67-6.23-115.39,79.06
						c-8.49-33.9,3.52-62.7,21.95-78.49C277.32,364.28,352.53,397.93,352.53,397.93z"/>
					<path class="st7" d="M389.43,629.97C267.9,585.11,218.84,529.85,207.36,483.95v-0.02c6.73-85.29,94.32-81.29,115.39-79.06
						c-0.57,0.19-1.16,0.38-1.73,0.57c-17.2,5.76-37.41,15.47-49.52,31.47c0,0-0.02,0.02-0.04,0.04
						c-1.24,1.46-31.28,37.87,2.95,88.01c6.37,9.33,15.22,18.47,25.44,27.17C299.86,552.12,318.78,596.01,389.43,629.97z"/>
					<path class="st4" d="M333.11,531.98c-14.5-12.64-36.46-35.93-35.95-60.86c6.31-9.98,14.61-15.35,14.61-15.35
						C308.69,481.68,317.89,507.72,333.11,531.98z"/>
					<path class="st8" d="M419.12,621.63c-2.72-1.12-74.27-31.16-119.27-69.51c-10.22-8.7-19.08-17.84-25.44-27.17
						c-34.22-50.14-4.18-86.55-2.95-88.01c-23.88,31.64,27.53,86.59,28.84,87.99c0,0,0,0.02,0.02,0.02
						c18.45,27.48,61.28,53.53,81.8,64.96C394.71,601.83,407.5,612.54,419.12,621.63z"/>
					<path class="st4" d="M464.82,653.76c-27.74-7.49-52.78-15.45-75.32-23.75c-0.02-0.02-0.06-0.02-0.08-0.04
						c-70.65-33.95-89.57-77.85-89.57-77.85c44.99,38.34,116.55,68.38,119.27,69.51h0.02c0.04,0.04,0.06,0.04,0.06,0.04
						C444.8,641.63,464.82,653.76,464.82,653.76z"/>
					<path class="st7" d="M382.13,589.91c-20.52-11.44-63.35-37.49-81.8-64.96c-0.02,0-0.02-0.02-0.02-0.02
						c-1.54-2.28-2.89-4.56-4.07-6.86c-10.36-20.31-5.87-36.27,0.91-46.95c-0.51,24.93,21.45,48.22,35.95,60.86
						C346.29,553.01,363.98,572.74,382.13,589.91z"/>
					<path class="st5" d="M389.5,630c-0.02-0.02-0.06-0.02-0.08-0.04"/>
					<path class="st8" d="M325.32,361.43c-1.08-0.25-29.64-6.9-62.38,1.58c4.12-8.32,11.5-17.86,24.17-21.03h0.02
						C298.51,345.26,311.18,351.45,325.32,361.43z"/>
					<path class="st7" d="M287.11,341.97c-12.67,3.17-20.05,12.71-24.17,21.03c-16.25,4.18-33.52,12.1-48.98,26.37
						c1.14-11.42,4.33-20.98,7.68-28.22C235.6,345.11,256.61,333.14,287.11,341.97z"/>
					<path class="st4" d="M221.63,361.16c-3.34,7.24-6.54,16.8-7.68,28.22c-5.7,5.23-11.13,11.32-16.19,18.41
						C197.77,407.79,204.15,381.28,221.63,361.16z"/>
					<path class="st3" d="M462.12,671.22c0,0-12.16,29.81-59.47,23.75v-36.84C421.06,663.31,440.92,667.84,462.12,671.22z"/>
					<path class="st4" d="M402.65,658.13v36.84c-9.31-1.2-19.99-3.76-32.19-8.25v-38.86C380.63,651.48,391.36,654.93,402.65,658.13z
						"/>
					<path class="st3" d="M370.46,647.87v38.86c-2.05-0.74-4.16-1.56-6.31-2.41c-21.39-8.61-39.48-18.72-54.55-29.22
						c-3.78-11.99-3.59-25.82-2.87-34.85C324.35,629.4,345.71,639.11,370.46,647.87z"/>
					<path class="st6" d="M309.6,655.09c-40.98-28.56-59.61-59.97-61.39-71.67c0,0,20.63,17.16,58.52,36.82
						C306.01,629.26,305.82,643.1,309.6,655.09z"/>
					<g>
						<polygon class="st6" points="560.38,712.2 506.47,766.11 452.57,712.2 467.01,712.2 506.47,751.67 545.94,712.2 						"/>
					</g>
					<path class="st5" d="M506.47,658.29"/>
					<path class="st4" d="M631.27,513.05c-0.53,1.52-12.83,34.73-91.17,94.43v27.34c-20.29,12.98-33.63,18.92-33.63,18.92
						s-13.34-5.95-33.63-18.92v-27.34c-78.34-59.7-90.63-92.91-91.17-94.43c2.41,2.83,4.98,5.74,7.71,8.74
						c49.16,54,117.08,91.53,117.08,91.53s67.93-37.53,117.08-91.53C626.29,518.79,628.86,515.89,631.27,513.05z"/>
					<path class="st3" d="M540.1,607.49v27.34c28.24-18.03,69.89-49.67,107.72-97.84c30.36-38.67,37.93-66.12,33.61-84.4
						c-11.99-1.52-21.32,15.5-22.23,17.2c-0.04,0.09-0.06,0.13-0.06,0.13c-4.48,11.72-13.17,25.78-27.86,43.07c0,0,0,0.02-0.02,0.06
						C630.74,514.57,618.44,547.79,540.1,607.49z"/>
					<path class="st6" d="M659.2,469.79c-0.04,0.09-0.06,0.13-0.06,0.13c-4.48,11.72-13.17,25.78-27.86,43.07c0,0,0,0.02-0.02,0.06
						c-2.41,2.83-4.98,5.74-7.71,8.74c-49.16,54-117.08,91.53-117.08,91.53s-67.93-37.53-117.08-91.53c-2.74-3-5.3-5.91-7.71-8.74
						c-0.02-0.04-0.02-0.06-0.02-0.06c-14.69-17.29-23.37-31.35-27.86-43.07c0,0-0.02-0.04-0.06-0.13
						c-7.9-20.75-2.6-34.07,5.81-44.63c5.43-1.6,11.19-2.34,16.89-2.34c0,0-15.2,9.71-15.2,30.08c0,20.39,38.82,86.04,145.22,149.1
						c106.4-63.06,145.22-128.71,145.22-149.1c0-20.37-15.2-30.08-15.2-30.08c5.7,0,11.46,0.74,16.89,2.34
						C661.8,435.72,667.1,449.04,659.2,469.79z"/>
					<path class="st4" d="M659.2,469.79c0.91-1.69,10.24-18.72,22.23-17.2c-3.48-14.8-14.76-23.6-28.05-27.44
						C661.8,435.72,667.11,449.04,659.2,469.79z"/>
					<line class="st5" x1="540.1" y1="634.83" x2="540.1" y2="634.85"/>
					<path class="st3" d="M611.3,501.2c0,0.02-0.02,0.04-0.02,0.06c-0.06,0.08-0.11,0.17-0.15,0.25c-0.21,0.32-0.4,0.65-0.61,0.99
						c-0.06,0.09-0.13,0.21-0.23,0.34c-4.5,6.69-25.99,33.75-103.82,79.59c-77.83-45.85-99.32-72.91-103.82-79.59
						c-0.09-0.13-0.17-0.25-0.23-0.34c-0.21-0.34-0.4-0.67-0.61-0.99c-0.04-0.08-0.09-0.17-0.15-0.25c0-0.02-0.02-0.04-0.02-0.06
						C452,548,506.47,572.49,506.47,572.49S560.95,548,611.3,501.2z"/>
					<path class="st5" d="M611.32,501.18c0,0,0,0-0.02,0.02c0,0.02-0.02,0.04-0.02,0.06c-0.04,0.06-0.08,0.13-0.15,0.25
						c-0.11,0.23-0.32,0.55-0.61,0.99c-0.06,0.1-0.13,0.21-0.23,0.34"/>
					<polygon class="st6" points="548.12,478.13 556.01,483.95 580.42,466.92 576.02,458.73 					"/>
					<path class="st4" d="M595.17,494.38c0,0-9.27,10.05-24.26,22.38l16.76-23.71l-9.96-16.49l-21.83,17.96l-38.32-23.41
						l-5.89,62.34v-60.8h-10.37v60.8l-5.89-62.34l-38.32,23.41l-21.83-17.96l-9.96,16.49l16.76,23.71
						c-14.99-12.33-24.26-22.38-24.26-22.38l14.74-27.46l24.42,17.02l7.89-5.81l41.65-25.63l41.65,25.63l7.89,5.81l24.42-17.02
						L595.17,494.38z"/>
					<rect x="501.28" y="533.44" class="st6" width="10.37" height="6.06"/>
					<path class="st3" d="M527.98,486.87v38.08h7.28v-38.08H527.98z M527.98,486.87v38.08h7.28v-38.08H527.98z"/>
					<rect x="527.98" y="486.87" class="st5" width="7.28" height="33.71"/>
					<rect x="527.98" y="486.87" width="7.28" height="33.71"/>
					<rect x="527.98" y="520.58" class="st6" width="7.28" height="4.37"/>
					<path class="st6" d="M566.72,446.23c2.7,1.14,6.54,2.66,9.52,3.55c7.98-7.01,15.96-15.71,21.11-25.75
						C597.35,424.04,586.64,433.95,566.72,446.23z"/>
					<path class="st3" d="M539.06,461.32l10.51,7.03c0,0,13.32-6.86,26.68-18.56c-2.98-0.89-6.82-2.41-9.52-3.55
						C558.88,451.05,549.64,456.24,539.06,461.32z"/>
					<polygon class="st4" points="619.43,451.21 612.12,472.64 630.11,448.41 609.25,388.26 603.49,393.35 					"/>
					<polygon class="st3" points="588.48,463.65 601.12,487.46 612.12,472.64 619.43,451.21 603.49,393.35 610.29,431.92 
						596.19,447.88 					"/>
					<polygon class="st6" points="583.16,453.64 586.14,459.24 596.19,447.88 610.29,431.92 603.49,393.35 599.9,396.5 
						604.38,427.68 					"/>
					<polygon class="st4" points="586.14,459.24 588.48,463.65 596.19,447.88 					"/>
					<path class="st3" d="M531.61,442.07c3.15,5.99,9.63,8.89,17.56,0c7.92-8.89,23.45-27.32,23.45-27.32l-22.15,14.76
						c0,0-6.78,17.25-14.23,9.48L531.61,442.07z"/>
					<path class="st4" d="M536.23,438.99c7.45,7.77,14.23-9.48,14.23-9.48L536.23,438.99z"/>
					<path class="st4" d="M605.9,328.71l6.73,42.45v-46.32C612.63,324.83,610.29,326.28,605.9,328.71z"/>
					<path class="st4" d="M516.33,433.99l36.96-12.67c-25.9,16.99-46.82,26.16-46.82,26.16s-20.92-9.18-46.82-26.16l36.96,12.67
						v-56.03c0,0-60.25-28.14-72.11-40.15c18.6,9.12,47.01,21.47,81.97,31.66c34.96-10.18,63.37-22.53,81.97-31.66
						c-11.86,12.01-72.11,40.15-72.11,40.15V433.99z"/>
					<path class="st3" d="M516.33,377.96v56.03l36.96-12.67l0.04-0.02c19.21-12.6,41.14-29.49,59.3-50.14l-6.73-42.45
						c-4.1,2.28-9.99,5.42-17.46,9.1C576.59,349.82,516.33,377.96,516.33,377.96z"/>
					<path class="st5" d="M588.48,337.77c-0.02,0.02-0.02,0.02-0.04,0.04"/>
					<polygon points="519.09,383.53 519.09,420.41 538.01,410.55 526.54,413.6 526.54,383.85 538.01,375.45 					"/>
					<polygon class="st6" points="526.54,383.85 526.54,413.6 538.01,410.55 538.01,375.45 					"/>
					<polygon points="545.34,373.8 545.34,405.43 561.57,396.97 551.73,399.6 551.73,374.07 561.57,366.87 					"/>
					<polygon class="st6" points="551.73,374.07 551.73,399.6 561.57,396.97 561.57,366.87 					"/>
					<polygon points="569.34,362.05 569.34,392.65 583.14,384.46 574.77,387 574.77,362.32 583.14,355.35 					"/>
					<polygon class="st6" points="574.77,362.32 574.77,387 583.14,384.46 583.14,355.35 					"/>
					<polygon points="587.53,353.25 587.53,380.76 599.95,373.4 592.42,375.69 592.42,353.49 599.95,347.22 					"/>
					<polygon class="st6" points="592.42,353.49 592.42,375.69 599.95,373.4 599.95,347.22 					"/>
					<path class="st4" d="M594.2,312.54l7.6,8.08c2.91-1.58,5.74-3.21,8.49-4.85l-6.8-7.43
						C603.49,308.34,600.07,309.99,594.2,312.54z"/>
					<path class="st4" d="M534.48,263.25c27.44,3.99,50.52,32.47,56.45,40.38l5.24-1.84c0,0-10.34-41.95-60.73-54.32L534.48,263.25z
						"/>
					<path class="st3" d="M533.09,285.44c6.95,3.48,20.62,11.76,31.29,27.53l26.54-9.35c-5.93-7.9-29.01-36.39-56.45-40.38
						L533.09,285.44z"/>
					<path class="st6" d="M530.66,324.83l33.73-11.86c-10.68-15.77-24.34-24.06-31.29-27.53L530.66,324.83z"/>
					<path class="st4" d="M660.42,397.93c0,0,13.3,1.63,29.77,6.94c21.07-2.22,108.67-6.23,115.39,79.06
						c8.49-33.9-3.52-62.7-21.95-78.49C735.62,364.28,660.42,397.93,660.42,397.93z"/>
					<path class="st7" d="M623.52,629.97c121.53-44.86,170.59-100.12,182.07-146.02v-0.02c-6.73-85.29-94.32-81.29-115.39-79.06
						c0.57,0.19,1.16,0.38,1.73,0.57c17.2,5.76,37.41,15.47,49.52,31.47c0,0,0.02,0.02,0.04,0.04c1.24,1.46,31.28,37.87-2.95,88.01
						c-6.37,9.33-15.22,18.47-25.44,27.17C713.09,552.12,694.16,596.01,623.52,629.97z"/>
					<path class="st4" d="M679.84,531.98c14.5-12.64,36.46-35.93,35.95-60.86c-6.31-9.98-14.61-15.35-14.61-15.35
						C704.25,481.68,695.06,507.72,679.84,531.98z"/>
					<path class="st8" d="M593.82,621.63c2.72-1.12,74.27-31.16,119.27-69.51c10.22-8.7,19.08-17.84,25.44-27.17
						c34.22-50.14,4.18-86.55,2.95-88.01c23.88,31.64-27.53,86.59-28.84,87.99c0,0,0,0.02-0.02,0.02
						c-18.45,27.48-61.28,53.53-81.8,64.96C618.23,601.83,605.45,612.54,593.82,621.63z"/>
					<path class="st4" d="M548.12,653.76c27.74-7.49,52.78-15.45,75.32-23.75c0.02-0.02,0.06-0.02,0.08-0.04
						c70.65-33.95,89.57-77.85,89.57-77.85c-44.99,38.34-116.55,68.38-119.27,69.51h-0.02c-0.04,0.04-0.06,0.04-0.06,0.04
						C568.15,641.63,548.12,653.76,548.12,653.76z"/>
					<path class="st7" d="M630.81,589.91c20.52-11.44,63.35-37.49,81.8-64.96c0.02,0,0.02-0.02,0.02-0.02
						c1.54-2.28,2.89-4.56,4.07-6.86c10.36-20.31,5.87-36.27-0.91-46.95c0.51,24.93-21.45,48.22-35.95,60.86
						C666.65,553.01,648.96,572.74,630.81,589.91z"/>
					<path class="st5" d="M623.52,629.97c-0.02,0.02-0.06,0.02-0.08,0.04"/>
					<path class="st8" d="M687.63,361.43c1.08-0.25,29.64-6.9,62.38,1.58c-4.12-8.32-11.5-17.86-24.17-21.03h-0.02
						C714.44,345.26,701.76,351.45,687.63,361.43z"/>
					<path class="st7" d="M725.84,341.97c12.67,3.17,20.05,12.71,24.17,21.03c16.25,4.18,33.52,12.1,48.98,26.37
						c-1.14-11.42-4.33-20.98-7.68-28.22C777.35,345.11,756.33,333.14,725.84,341.97z"/>
					<path class="st4" d="M791.31,361.16c3.34,7.24,6.54,16.8,7.68,28.22c5.7,5.23,11.13,11.32,16.19,18.41
						C815.18,407.79,808.79,381.28,791.31,361.16z"/>
					<path class="st3" d="M550.82,671.22c0,0,12.16,29.81,59.47,23.75v-36.84C591.88,663.31,572.02,667.84,550.82,671.22z"/>
					<path class="st4" d="M610.29,658.13v36.84c9.31-1.2,19.99-3.76,32.19-8.25v-38.86C632.31,651.48,621.58,654.93,610.29,658.13z"
						/>
					<path class="st3" d="M642.48,647.87v38.86c2.05-0.74,4.16-1.56,6.31-2.41c21.39-8.61,39.48-18.72,54.55-29.22
						c3.78-11.99,3.59-25.82,2.87-34.85C688.59,629.4,667.24,639.11,642.48,647.87z"/>
					<path class="st6" d="M703.34,655.09c40.98-28.56,59.61-59.97,61.39-71.67c0,0-20.64,17.16-58.52,36.82
						C706.93,629.26,707.12,643.1,703.34,655.09z"/>
					<polygon class="st4" points="560.38,712.2 545.94,712.2 506.47,672.74 467.01,712.2 452.57,712.2 506.47,658.3 					"/>
					<path class="st3" d="M506.47,672.74l-39.46,39.46l39.46,39.46l39.46-39.46L506.47,672.74z M482.63,712.2l23.85-23.85
						l23.85,23.85l-23.85,23.85L482.63,712.2z"/>
					<path class="st5" d="M506.47,658.29"/>
				</g>
				<g>
					<path class="st8" d="M410.56,270.38c-3.59,4.56-6.12,8.42-7.56,10.74c-54.89-15.11-64.03-60.99-65.17-83.15
						c7.32,14.63,18.75,27.8,36.65,34.64C383.65,247.21,395.77,260.27,410.56,270.38z"/>
					<path class="st7" d="M402.99,281.11c-0.89,1.46-1.35,2.32-1.35,2.32s-58.62-8.76-85.96-44.59
						c-11.13-37.01,2.53-65.23,11.12-78.21c1.63,11.5,4.85,24.95,11.02,37.34C338.96,220.12,348.1,266.01,402.99,281.11z"/>
					<path class="st4" d="M315.68,238.83c-17.54-22.95-22.21-57.06,9.63-107.09c0,0-0.86,12.48,1.48,28.88
						C318.21,173.6,304.55,201.82,315.68,238.83z"/>
					<path class="st4" d="M680.46,160.86c-9.99,26.03-47.14,1.44-51.85-1.84c16,9.86,28.96,10.22,35.85-5.43
						c12.6-28.62-36.06-61.28-36.06-61.28c6.82-0.74,21.85,2.96,37.45,11.57C675.35,118.96,687.28,143.07,680.46,160.86z"/>
					<path class="st7" d="M713.96,182.93c-22.15,65.08-91.07,46.17-147.33-17.88c-56.28-64.03-127.76-82.79-144.62-20.37
						c-13.02,48.22,6.97,85.6,16.72,100.1c-12.48,7.66-21.95,17.67-28.18,25.59c-14.78-10.11-26.91-23.16-36.08-37.77
						c-21.03-33.52-26.64-75.34-13.47-109.41c-0.21,19.61,4.41,46.21,24.99,70.65c0,0-32.85-175.28,165.74-106.31
						c12.46,9.79,23.28,20.81,32.68,31.28c15.47,17.21,30.57,31.69,43.68,39.88c0,0,0.08,0.06,0.25,0.15
						c0.08,0.06,0.15,0.11,0.27,0.17c4.71,3.29,41.86,27.87,51.85,1.84c6.82-17.78-5.11-41.9-14.61-56.98
						c19.17,10.56,39.2,28.52,45.98,54.72C714.02,167.03,714.65,175.2,713.96,182.93z"/>
					<path class="st8" d="M713.96,182.93c-3.15,35.76-34.26,62.02-67.78,62.02c-40.76,0-66.29-22.97-84.61-42.37
						c-7.73-8.19-19.15-20.29-32.11-29.89c-24.25-37.49-72.05-49.38-88.66-6.99c-13.09,33.44,0.17,61.81,7.62,73.93
						c-3.4,1.52-6.63,3.27-9.69,5.15c-9.75-14.5-29.74-51.87-16.72-100.1c16.85-62.42,88.33-43.66,144.62,20.37
						C622.89,229.11,691.81,248.01,713.96,182.93z"/>
					<path class="st7" d="M529.46,172.69c-17.75-13.17-38.36-21.64-56.3-8.93c-31.05,22-7.75,70.51-7.75,70.51
						c-6.08,1.14-11.74,3-16.99,5.36c-7.45-12.12-20.71-40.49-7.62-73.93C457.41,123.31,505.22,135.2,529.46,172.69z"/>
					<path class="st4" d="M551.73,87.53c-198.6-68.97-165.74,106.31-165.74,106.31c-20.58-24.44-25.2-51.04-24.99-70.65
						c8.63-22.36,25.33-41.4,51.04-52.58C473.26,44.02,518.37,61.31,551.73,87.53z"/>
					<path class="st4" d="M542.36,219.26c-8.04-2-17.9-5.45-27.23-11.34c-20.71-13.11-20.48,6.78-17.33,16.74
						c0,0-13.57-13.59-7.28-27.91C496.84,182.44,516.87,206.86,542.36,219.26z"/>
					<path class="st8" d="M559.18,222.02c0,0-7.01-0.3-16.78-2.74c-0.02,0-0.02-0.02-0.04-0.02c-25.5-12.41-45.53-36.82-51.83-22.52
						c-6.29,14.33,7.28,27.91,7.28,27.91s-9.73,0-17.96,4.12c0,0-13.91-43.34,7.81-49.82C509.38,172.5,533.64,209.78,559.18,222.02z
						"/>
				</g>
			</g>
		</g>
	</g>
	<g>
		<g>
			<path class="st9" d="M16.33,953.4c-7.18-13.37-7.98-25.14-3.79-48.08c4.39-22.15,10.77-34.71,25.94-52.07
				c6.18-6.98,14.17-14.96,26.33-20.35c16.96-7.18,43.29,2.79,42.69,25.54c-0.2,9.18-3.99,15.36-12.57,20.55
				c-3.79,2.59-11.17,1.6-13.96-1.6c-3.79-4.19-3.79-4.39,2.19-8.98c4.39-3.59,6.78-11.97,5.39-19.55c-0.8-4.59-2.59-6.18-6.38-5.79
				c-8.78,0.6-14.56,4.99-22.54,13.17c-14.76,15.16-21.35,28.13-26.13,50.87c-2.39,11.17-2.59,20.95-0.6,30.33
				c3.19,15.16,7.58,22.74,16.16,27.93c12.77,7.78,32.72-3.79,43.09-22.14c-0.4,0.4,1.2-7.38,9.18-4.99
				c4.59,1.4,6.98,3.99,7.58,8.18c1,6.98-1.2,10.97-10.57,20.35C74.79,990.31,32.29,983.52,16.33,953.4z"/>
			<path class="st9" d="M120.08,972.15c0-5.98,1.2-12.57,2.19-18.75c4.39-23.54,8.98-46.48,13.77-68.83
				c5.59-23.94,10.17-39.5,5.19-37.91h-0.4c-4.39,0.8-10.17-1.2-11.57-4.19c-2.79-4.59,3.19-5.59,5.99-6.78
				c5.39-1.99,11.77-3.39,18.55-3.99c6.78-0.4,9.98-1,20.35-1c36.31,0,56.26,23.34,42.29,50.67c-7.38,14.16-17.96,21.35-39.9,27.53
				c-3.39,0.8-6.18,1.6-11.17,3.39c0,0.2,0.2,0.2,0.2,0.4l0.2,0.2c2.79,12.97,7.98,23.54,17.96,37.11
				c7.98,11.37,16.36,16.76,23.54,15.56c10.97-2.19,13.96,5.39,3.99,10.77c-3.59,1.8-12.57,1.8-17.36,0.4
				c-16.36-5.79-27.73-18.95-31.92-25.54c-8.18-13.37-11.77-21.54-13.57-27.33c-2.79,14.16-6.18,29.13-7.78,44.09
				c-0.2,1.79-1,3.59-2.79,6.78c-1.8,2.59-7.18,4.39-10.37,3.19C122.47,976.14,120.08,974.15,120.08,972.15z M179.13,893.55
				c13.17-6.18,20.95-17.36,22.54-32.32c1.6-13.96-16.56-21.95-40.3-17.76c-6.38,0.6,0.4,1.79,1.6,3.99c1,2.2,1,2.79,0,8.18
				c-2.59,13.57-6.78,30.52-9.98,45.69c0,0.4-0.2,0.8-0.2,1C163.77,899.53,171.95,896.94,179.13,893.55z"/>
			<path class="st9" d="M330.95,848.26l-2.59,13.37c-4.19,17.95-7.78,32.52-10.77,51.87c-1.6,9.58-3.19,19.75-3.59,29.92
				c-0.2,9.38,1.4,19.35,3.39,22.74c4.59,5.98,9.58,4.79,7.38,9.98c-1,2.39-7.38,4.19-11.37,2.79h0.2
				c-5.79-1.6-10.37-4.79-12.77-8.58c-1.6-2.2-2.79-4.79-3.79-7.18l-1.99,1.8h-0.2c-4.59,3.79-13.37,11.97-28.53,13.96
				c-16.76,2.2-33.72-7.78-37.11-21.95c-1.4-6.38-1-12.57-1-18.75c1.2-19.55,5.39-36.51,9.38-56.06c2.99-13.57,5.99-26.93,8.38-41.5
				c1-4.99,4.99-7.58,10.57-6.58h-0.2c6.78,0.8,10.17,3.79,9.78,8.78c-1,11.17-3.59,22.34-5.99,34.11
				c-1.4,5.99-14.56,60.65-11.17,79.6c1.6,8.98,6.18,12.17,14.96,9.98c9.97-2.59,19.35-11.57,27.53-27.33
				c4.99-9.18,4.79-21.94,6.78-33.51c3.79-21.35,6.78-39.3,13.96-60.85c0.4-1.2-0.2-6.98,9.18-4.99h0.2
				C328.36,841.68,331.35,844.07,330.95,848.26z"/>
			<path class="st9" d="M356.29,974.95c-15.16-5.59-24.54-17.56-24.34-30.92c0-7.98,4.19-16.96,12.57-16.36
				c4.79,0,6.58,2.2,5.98,4.39c0,4.39-0.6,9.18,0.2,12.97c1.8,10.77,8.18,17.76,17.95,19.15c23.34,3.59,41.5-6.58,45.69-25.54
				c2-9.58-2.59-18.75-13.57-27.33c-8.78-6.98-17.56-12.77-27.93-17.56c-22.34-10.97-24.14-26.93-5.19-44.29
				c9.18-8.18,20.95-14.36,33.91-17.76c12.97-3.19,24.94-1.4,32.12,4.79c4.79,4.19,5.39,6.18,3.39,11.37
				c-2.39,6.38-4.39,9.58-8.18,12.77c-4.19,3.59-14.56,5.19-17.36,2.59c-3.79-2.79-3.79-3.19,0.2-8.38
				c3.59-4.79,4.99-6.98,6.58-10.77c0.8-1.4,1.2-1.79,1.4-1.99h-0.4c-5.79-0.6-12.57,1.6-14.96,2.39
				c-14.56,6.58-22.34,12.37-28.13,19.95c-3.59,5.19-1.2,12.17,6.18,15.56c11.97,5.39,21.94,11.37,30.92,18.36
				c16.16,13.17,23.54,25.54,22.74,38.3c-0.4,6.78-3.99,13.57-9.18,20.95c-7.78,10.77-22.54,20.95-41.5,21.15
				C374.25,978.94,364.07,977.74,356.29,974.95z"/>
			<path class="st9" d="M517.09,974.35c-6.18-8.58-8.98-20.75-9.97-42.69c0-3.39-0.2-4.79-0.2-5.19c-9.18-0.2-17.96,1-27.33,1
				l-0.4,1.99c-6.38,14.17-13.17,28.33-20.95,44.69c-1.4,2.79-9.18,4.99-13.57,3.59c-6.38-1.99-7.58-3.99-4.99-8.58
				c2.39-3.99,4.59-9.78,7.38-15.96c3.39-7.58,7.38-15.76,11.97-24.94v0.2c0-0.2,0-0.4,0.2-0.6c-3.39,0-7.18-0.8-9.18-1.8h0.8
				l-1-0.2c-4.59-2.59-5.19-3.19-4.19-5.59c0.8-1.99,5.39-2.99,6.18-3.39h0.8c3.99-0.8,8.38-1.2,12.97-1c0,0,0-0.4,0.2-0.6
				c10.37-23.54,24.34-52.27,38.1-75.81c4.19-6.98,8.38-9.18,16.36-8.78c5.39,0.2,11.57,3.39,11.97,6.38
				c0.8,6.38-0.6,11.17-1.4,17.76c-2.99,20.75-5.19,52.87-4.39,72.62c0.8,21.55,3.39,35.31,7.58,40.9
				c3.79,5.19,2.79,7.78-4.19,10.17C526.07,979.73,519.09,977.34,517.09,974.35z M505.92,914.1c-0.2-1.2,0.2-2.79,0.4-5.39
				c0.6-11.97,1-27.73,2.99-43.09c-0.8,1.8-1.8,3.59-2.59,5.39c-6.58,14.17-13.57,28.93-21.15,44.29
				C491.96,914.89,499.14,914.3,505.92,914.1z"/>
			<path class="st9" d="M552.21,969.56c2.2-21.75,7.98-39.3,9.98-53.87c0.6-4.19,12.57-51.47,12.57-58.45v-0.4
				c0.4-1.6-2.99-8.18,8.18-7.58c6.98,0,12.37,4.59,11.57,10.17c-1,6.38-2.2,11.97-3.59,19.75c-6.18,32.12-10.57,52.27-17.16,81.4
				l-1.2,3.99c3.99,0.2,17.16-1.99,36.11-11.17c22.74-11.37,40.5-42.69,40.5-71.22c0-17.16-9.18-29.93-25.14-34.91
				c-19.95-6.78-34.51-7.18-52.07-1.8c-9.18,2.59-12.37,2.59-15.76-0.8c-5.79-5.79-1.2-10.17,11.97-12.37
				c20.55-3.59,41.1-3.19,61.85,4.19c28.33,10.37,41.1,29.73,38.1,57.46c-2.2,20.35-6.38,30.33-19.55,47.28
				c-12.97,16.76-25.73,21.75-41.89,28.93c-11.37,4.59-26.73,7.58-42.49,7.58C556.4,977.74,551.81,974.75,552.21,969.56z"/>
			<path class="st9" d="M672.71,973.55c-0.8-3.59,1.4-5.98,5.98-7.18c-0.2-1.2,0.8-3.19,1-5.59c6.18-34.31,18.35-80,21.35-110.92
				c-3.19-0.4-8.18-7.38-7.78-9.57c0.2-2.59,7.18-4.79,17.56-5.79c17.96-1.2,37.91-1.8,59.05-1.8c3.19,0,6.38,1.2,7.18,1.4
				c5.99,1.79,5.79,4.59,6.18,6.18v0.4c0,1.79-1.4,2.79-5.79,4.79c-1,0.4-4.19,1-7.78,1c-6.38,0-21.54-1.2-27.33-0.8
				c-6.58,0.4-17.36,0.6-22.94,2.2c0,0,0.2,1,0,2.39c-1.2,14.36-3.99,27.13-5.98,41.9v0.6c9.98-0.4,16.96-1.2,27.53-1.79h0.4
				c3.39,0,6.98,0.6,9.58,1.79c2.59,1.4,5.59,2.2,5.39,5.99c-0.8,2.99-4.19,4.59-9.38,5.59h-0.4c-9.97,1-18.75,2.39-30.12,1.99
				c-5.79-0.2-5.19-1.6-6.98,9.98c-2.39,14.76-7.38,28.93-9.57,44.89c-0.2,1.4-0.2,2.2-0.2,2.59c17.76-1.99,47.48-2.39,63.44-0.6
				c5.39,0.8,7.98,2.2,8.18,4.59c0.4,4.19-0.4,5.39-5.39,7.78c-8.78,3.59-19.75,0.2-28.13,0.4c-12.97,0.2-26.73-0.6-51.87,3.99
				C679.89,981.13,674.31,978.34,672.71,973.55z"/>
			<path class="st9" d="M786.23,972.15c0-5.98,1.2-12.57,2.2-18.75c4.39-23.54,8.98-46.48,13.77-68.83
				c5.59-23.94,10.17-39.5,5.19-37.91h-0.4c-4.39,0.8-10.17-1.2-11.57-4.19c-2.79-4.59,3.19-5.59,5.99-6.78
				c5.39-1.99,11.77-3.39,18.55-3.99c6.78-0.4,9.97-1,20.35-1c36.31,0,56.26,23.34,42.29,50.67c-7.38,14.16-17.95,21.35-39.9,27.53
				c-3.39,0.8-6.18,1.6-11.17,3.39c0,0.2,0.2,0.2,0.2,0.4l0.2,0.2c2.79,12.97,7.98,23.54,17.96,37.11
				c7.98,11.37,16.36,16.76,23.54,15.56c10.97-2.19,13.96,5.39,3.99,10.77c-3.59,1.8-12.57,1.8-17.36,0.4
				c-16.36-5.79-27.73-18.95-31.92-25.54c-8.18-13.37-11.77-21.54-13.57-27.33c-2.79,14.16-6.18,29.13-7.78,44.09
				c-0.2,1.79-1,3.59-2.79,6.78c-1.79,2.59-7.18,4.39-10.37,3.19C788.62,976.14,786.23,974.15,786.23,972.15z M845.28,893.55
				c13.17-6.18,20.95-17.36,22.54-32.32c1.6-13.96-16.56-21.95-40.3-17.76c-6.38,0.6,0.4,1.79,1.6,3.99c1,2.2,1,2.79,0,8.18
				c-2.59,13.57-6.78,30.52-9.97,45.69c0,0.4-0.2,0.8-0.2,1C829.92,899.53,838.1,896.94,845.28,893.55z"/>
			<path class="st9" d="M908.13,974.95c-15.16-5.59-24.54-17.56-24.34-30.92c0-7.98,4.19-16.96,12.57-16.36
				c4.79,0,6.58,2.2,5.99,4.39c0,4.39-0.6,9.18,0.2,12.97c1.8,10.77,8.18,17.76,17.96,19.15c23.34,3.59,41.5-6.58,45.69-25.54
				c1.99-9.58-2.59-18.75-13.57-27.33c-8.78-6.98-17.56-12.77-27.93-17.56c-22.34-10.97-24.14-26.93-5.19-44.29
				c9.18-8.18,20.95-14.36,33.92-17.76c12.97-3.19,24.94-1.4,32.12,4.79c4.79,4.19,5.39,6.18,3.39,11.37
				c-2.4,6.38-4.39,9.58-8.18,12.77c-4.19,3.59-14.56,5.19-17.35,2.59c-3.79-2.79-3.79-3.19,0.2-8.38
				c3.59-4.79,4.99-6.98,6.58-10.77c0.8-1.4,1.2-1.79,1.4-1.99h-0.4c-5.79-0.6-12.57,1.6-14.96,2.39
				c-14.56,6.58-22.34,12.37-28.13,19.95c-3.59,5.19-1.2,12.17,6.18,15.56c11.97,5.39,21.95,11.37,30.92,18.36
				c16.16,13.17,23.54,25.54,22.74,38.3c-0.4,6.78-3.99,13.57-9.18,20.95c-7.78,10.77-22.54,20.95-41.5,21.15
				C926.08,978.94,915.91,977.74,908.13,974.95z"/>
		</g>
	</g>
</g>
</svg>
