<?xml version="1.0" encoding="utf-8"?>
<!-- Generator: Adobe Illustrator 24.1.2, SVG Export Plug-In . SVG Version: 6.00 Build 0)  -->
<svg version="1.1" id="Layer_1" xmlns="http://www.w3.org/2000/svg" xmlns:xlink="http://www.w3.org/1999/xlink" x="0px" y="0px"
	 viewBox="0 0 1000 1000" style="enable-background:new 0 0 1000 1000;" xml:space="preserve">
<g>
	<path d="M500,10C229.81,10,10,229.81,10,500s219.81,490,490,490c270.19,0,490-219.81,490-490S770.19,10,500,10z M500,970.19
		C240.74,970.19,29.81,759.27,29.81,500S240.74,29.81,500,29.81c259.26,0,470.19,210.93,470.19,470.19S759.26,970.19,500,970.19z"/>
	<polygon points="225.5,222.21 193.71,186.99 234.35,214.22 243.05,206.37 220.14,163.14 251.93,198.36 260.32,190.78 
		219.94,146.04 206.39,158.27 225.91,196.03 190.24,172.84 176.72,185.04 217.1,229.78 	"/>
	<polygon points="301.92,162.97 296.24,154.55 268.32,173.38 259.15,159.78 284.24,142.86 278.56,134.44 253.47,151.36 246,140.29 
		272.96,122.1 267.26,113.65 230.21,138.64 263.92,188.6 	"/>
	<path d="M314.96,156.24l-11.25-22.5l2.21-1.1c2.5-1.25,4.43-1.96,5.78-2.13c1.35-0.17,2.82,0.03,4.39,0.61
		c1.57,0.58,4.81,2.26,9.7,5.06l13.73,7.8l13.02-6.51l-11.84-7.23c-4.7-2.89-8.22-4.78-10.57-5.65c-2.35-0.88-5.05-1.41-8.09-1.61
		c4.39-3.05,7.11-6.49,8.17-10.32c1.06-3.82,0.58-7.76-1.44-11.8c-1.59-3.19-3.79-5.62-6.6-7.32c-2.81-1.69-5.76-2.37-8.85-2.03
		c-3.1,0.34-7.52,1.95-13.28,4.83l-22.91,11.46l26.95,53.91L314.96,156.24z M292.56,111.45l8.49-4.25c4.41-2.21,7.09-3.47,8.03-3.79
		c1.91-0.59,3.63-0.57,5.16,0.06c1.53,0.63,2.74,1.85,3.65,3.67c0.81,1.62,1.12,3.15,0.92,4.6c-0.2,1.45-0.83,2.72-1.91,3.81
		c-1.08,1.09-4.23,2.94-9.45,5.55l-8.05,4.03L292.56,111.45z"/>
	<path d="M354.52,129.7c6.64,3.52,13.74,4,21.32,1.42c6.12-2.08,10.66-5.31,13.62-9.68c2.96-4.38,4.23-9.97,3.83-16.78l-12.38,0.25
		c0.46,4.51-0.08,8.1-1.63,10.8s-3.85,4.56-6.91,5.6c-4.15,1.41-8.05,1.02-11.68-1.16c-3.63-2.18-6.68-6.88-9.13-14.1
		c-2.31-6.8-2.66-12.16-1.06-16.1c1.6-3.93,4.52-6.61,8.75-8.05c3.06-1.04,5.96-1.07,8.68-0.08c2.72,0.99,4.92,2.84,6.6,5.57
		l10.48-6.6c-2.85-4.13-5.99-6.97-9.41-8.53c-5.76-2.65-12.13-2.78-19.11-0.41c-7.99,2.71-13.55,7.53-16.67,14.45
		c-3.12,6.92-3.07,15.13,0.16,24.63C343.04,119.92,347.88,126.17,354.52,129.7z"/>
	<polygon points="446.81,112.72 444.83,102.76 411.81,109.34 408.6,93.25 438.28,87.34 436.29,77.38 406.62,83.29 404.01,70.19 
		435.9,63.84 433.91,53.84 390.08,62.56 401.85,121.67 	"/>
	<path d="M472.13,110.84c4.48-0.3,8.04-0.96,10.66-1.99c3.51-1.39,6.24-3.18,8.21-5.37c2.61-2.89,4.52-6.58,5.73-11.06
		c0.99-3.66,1.32-7.97,0.99-12.92c-0.38-5.63-1.35-10.33-2.92-14.08c-1.57-3.75-3.7-6.87-6.39-9.36c-2.69-2.48-5.84-4.13-9.44-4.93
		c-2.68-0.59-6.52-0.72-11.52-0.38l-22.19,1.49l4.03,60.13L472.13,110.84z M463.54,61.23c4.95-0.33,8.28-0.36,10.01-0.09
		c2.3,0.34,4.24,1.16,5.81,2.45c1.57,1.3,2.85,3.16,3.84,5.59c0.99,2.43,1.64,5.97,1.95,10.62c0.31,4.65,0.15,8.35-0.49,11.1
		c-0.64,2.75-1.57,4.75-2.79,6.02c-1.22,1.26-2.8,2.21-4.73,2.83c-1.48,0.48-3.91,0.84-7.3,1.07l-9.07,0.61l-2.67-39.83
		L463.54,61.23z"/>
	<polygon points="548.66,101.93 515.06,99.87 516.06,83.5 546.26,85.35 546.88,75.21 516.68,73.36 517.5,60.03 549.96,62.01 
		550.58,51.84 505.97,49.11 502.29,109.26 548.04,112.06 	"/>
	<path d="M571.85,117.55c5.14,0.96,9.58,1.05,13.3,0.25c3.72-0.8,6.8-2.5,9.24-5.11c2.44-2.61,3.98-5.61,4.61-9.01
		c0.7-3.74,0.5-7.04-0.6-9.88c-1.1-2.84-2.91-5.26-5.42-7.25c-2.52-1.99-6.55-4.22-12.11-6.68c-5.56-2.46-8.98-4.47-10.25-6.02
		c-1-1.22-1.37-2.53-1.11-3.93c0.29-1.53,1.15-2.64,2.59-3.32c2.23-1.06,5.09-1.26,8.56-0.61c3.37,0.63,5.77,1.77,7.2,3.42
		c1.43,1.65,2.12,4.04,2.07,7.18l12.06,1.71c0.83-5.48-0.33-10.2-3.48-14.16c-3.15-3.96-8.44-6.64-15.88-8.03
		c-4.55-0.85-8.57-0.89-12.04-0.12c-3.48,0.77-6.32,2.31-8.52,4.62c-2.2,2.31-3.59,4.97-4.15,7.99c-0.88,4.69,0.2,9,3.22,12.94
		c2.15,2.8,6.29,5.6,12.4,8.39c4.75,2.17,7.78,3.63,9.09,4.38c1.91,1.11,3.18,2.23,3.82,3.37c0.64,1.14,0.82,2.41,0.56,3.81
		c-0.41,2.18-1.74,3.91-4,5.17c-2.26,1.26-5.31,1.54-9.17,0.81c-3.64-0.68-6.36-2.14-8.15-4.37c-1.8-2.23-2.68-5.37-2.65-9.4
		l-11.85-1.05c-0.46,6.77,0.99,12.27,4.36,16.48C558.93,113.35,564.36,116.15,571.85,117.55z"/>
	<rect x="608.21" y="92.64" transform="matrix(0.2713 -0.9625 0.9625 0.2713 347.3294 666.7379)" width="11.55" height="22.69"/>
	<path d="M637.79,134.87c7.25,2.76,11.86,4.4,13.83,4.93c3.14,0.84,6.02,0.94,8.64,0.29c2.62-0.64,4.99-1.94,7.11-3.89
		c2.13-1.95,3.69-4.21,4.68-6.76c1.26-3.24,1.44-6.42,0.53-9.54s-2.88-5.84-5.91-8.16c2.85-0.15,5.41-1.06,7.69-2.7
		c2.27-1.65,3.92-3.78,4.94-6.42c0.94-2.43,1.22-4.84,0.83-7.24c-0.39-2.4-1.22-4.52-2.49-6.37c-1.27-1.85-2.92-3.38-4.96-4.6
		c-2.04-1.22-5.28-2.69-9.73-4.42l-22.46-8.73l-21.83,56.18L637.79,134.87z M648.2,85.02l6.51,2.53c5.34,2.07,8.55,3.4,9.62,3.96
		c1.8,0.96,2.97,2.18,3.51,3.63c0.54,1.46,0.47,3.06-0.21,4.79c-0.71,1.81-1.83,3.06-3.37,3.74c-1.55,0.68-3.33,0.76-5.36,0.23
		c-1.12-0.29-3.89-1.29-8.31-3.01l-7.43-2.89L648.2,85.02z M648.68,110.92c5.16,2.01,8.41,3.58,9.75,4.71
		c1.34,1.14,2.19,2.45,2.55,3.95c0.36,1.49,0.22,3.08-0.44,4.77c-0.77,1.99-1.92,3.38-3.44,4.15c-1.52,0.78-3.19,0.99-4.99,0.64
		c-1.19-0.2-3.83-1.09-7.91-2.68l-10.5-4.08l5.84-15.02L648.68,110.92z"/>
	<polygon points="708.08,169.06 712.95,160.15 683.42,143.98 691.3,129.59 717.84,144.13 722.72,135.22 696.18,120.69 702.6,108.97 
		731.12,124.59 736.01,115.65 696.82,94.18 667.87,147.04 	"/>
	<polygon points="719.45,177.14 742.63,145.4 739.08,191.47 748.94,198.67 748.98,198.61 784.65,232.12 791.6,224.72 766.61,201.24 
		818.51,194.21 824.99,187.32 792.83,157.12 785.85,164.55 806.32,183.77 756.48,190.6 749.06,198.5 784.48,149.99 775.35,143.33 
		751.61,175.83 755.43,128.78 745.86,121.8 710.32,170.47 	"/>
	<path d="M210.23,806.82c-0.93-3.07-2.97-7.2-6.14-12.4c-3.16-5.19-4.83-8.79-4.99-10.79c-0.13-1.57,0.32-2.86,1.33-3.86
		c1.11-1.1,2.45-1.52,4.02-1.25c2.44,0.4,4.9,1.86,7.38,4.38c2.41,2.44,3.73,4.74,3.96,6.92c0.24,2.17-0.56,4.53-2.4,7.08l8.93,8.29
		c3.81-4.03,5.55-8.56,5.22-13.62c-0.33-5.05-3.14-10.27-8.46-15.65c-3.25-3.3-6.53-5.62-9.82-6.97c-3.29-1.35-6.51-1.7-9.63-1.07
		c-3.12,0.64-5.78,2.03-7.96,4.19c-3.4,3.35-4.97,7.51-4.74,12.47c0.17,3.53,1.97,8.18,5.4,13.96c2.66,4.49,4.32,7.42,4.97,8.78
		c0.94,2,1.34,3.65,1.22,4.95c-0.13,1.3-0.7,2.45-1.71,3.45c-1.58,1.56-3.66,2.21-6.23,1.96c-2.58-0.25-5.24-1.77-7.99-4.56
		c-2.6-2.63-4-5.38-4.2-8.24c-0.2-2.86,0.86-5.94,3.19-9.24l-9.14-7.62c-4.24,5.3-6.18,10.64-5.82,16.02
		c0.36,5.38,3.22,10.78,8.57,16.21c3.68,3.73,7.27,6.32,10.78,7.79c3.51,1.47,7.01,1.82,10.5,1.07c3.49-0.75,6.47-2.34,8.93-4.76
		c2.71-2.68,4.43-5.49,5.14-8.45C211.26,812.91,211.15,809.89,210.23,806.82z"/>
	<path d="M243.79,849.26c-3.52,2.84-6.84,4.35-9.94,4.52c-3.1,0.18-5.92-0.74-8.47-2.74c-3.45-2.71-5.25-6.19-5.4-10.42
		c-0.15-4.24,2.12-9.35,6.84-15.34c4.44-5.64,8.74-8.87,12.91-9.67c4.17-0.8,8.01,0.18,11.52,2.95c2.54,2,4.14,4.41,4.8,7.23
		c0.66,2.82,0.3,5.68-1.07,8.57l11.25,5.19c1.9-4.64,2.58-8.82,2.02-12.54c-0.92-6.27-4.28-11.69-10.08-16.25
		c-6.63-5.22-13.7-7.25-21.2-6.09c-7.5,1.16-14.36,5.68-20.56,13.56c-5.86,7.45-8.46,14.92-7.79,22.4
		c0.67,7.48,4.15,13.7,10.44,18.65c5.08,4,10.27,6.05,15.55,6.14c5.28,0.09,10.67-1.89,16.15-5.94L243.79,849.26z"/>
	<polygon points="309.24,845.93 297.15,866.34 276.63,854.18 288.72,833.77 278.25,827.57 247.53,879.42 258,885.62 271.43,862.95 
		291.95,875.11 278.52,897.78 288.98,903.98 319.71,852.13 	"/>
	<path d="M356.55,864.31l0.04,0.02c2.52,1.06,5.42-0.13,6.48-2.65l0,0c1.06-2.52-0.13-5.42-2.65-6.48l-0.04-0.02
		c-2.52-1.06-5.43,0.13-6.48,2.65l0,0C352.84,860.35,354.03,863.26,356.55,864.31z"/>
	<path d="M364.52,879.24c-2.79-7.14-8.28-12.43-16.47-15.86c-4.53-1.9-8.83-2.83-12.9-2.82c-3.06,0-6.15,0.66-9.28,2
		c-3.13,1.33-5.92,3.15-8.37,5.45c-3.3,3.13-6.14,7.53-8.51,13.19c-3.71,8.85-4.18,16.82-1.41,23.9
		c2.77,7.09,8.28,12.36,16.55,15.83c8.17,3.42,15.75,3.62,22.75,0.59c7-3.02,12.38-9.02,16.14-18
		C366.81,894.48,367.31,886.38,364.52,879.24z M351.52,898.4c-2.7,6.45-6.16,10.68-10.38,12.7c-4.22,2.02-8.57,2.09-13.04,0.22
		c-4.47-1.87-7.48-5.04-9.03-9.51c-1.55-4.46-1-9.84,1.64-16.14c2.68-6.4,6.1-10.59,10.26-12.57c4.16-1.99,8.55-2.01,13.18-0.07
		c4.63,1.94,7.68,5.06,9.16,9.36C354.79,886.69,354.19,892.03,351.52,898.4z"/>
	<path d="M344.08,848.35L344.08,848.35c-2.52-1.06-5.43,0.13-6.48,2.65c-1.06,2.52,0.13,5.43,2.65,6.48l0,0
		c2.52,1.06,5.43-0.13,6.48-2.65C347.79,852.3,346.6,849.4,344.08,848.35z"/>
	<path d="M395.7,930.33c-2.78,1.39-5.73,1.68-8.86,0.85c-4.24-1.12-7.27-3.59-9.1-7.42c-1.82-3.83-1.76-9.42,0.18-16.79
		c1.83-6.94,4.5-11.61,8.01-14c3.51-2.39,7.42-3.02,11.74-1.87c3.13,0.82,5.55,2.4,7.28,4.73c1.72,2.32,2.53,5.09,2.42,8.29
		l12.38,0.29c-0.1-5.02-1.14-9.12-3.13-12.31c-3.34-5.39-8.57-9.03-15.7-10.91c-8.16-2.15-15.46-1.21-21.88,2.84
		c-6.42,4.04-10.92,10.91-13.48,20.61c-2.42,9.17-1.84,17.05,1.75,23.66c3.59,6.6,9.25,10.92,16.99,12.97
		c6.25,1.65,11.82,1.47,16.7-0.54c4.88-2.01,9.04-5.97,12.47-11.87l-10.45-6.63C400.92,926.24,398.47,928.94,395.7,930.33z"/>
	<polygon points="490.84,895.15 478.68,894.96 478.67,895.27 462.57,893.24 434.83,916.71 438.18,890.16 426.11,888.64 
		418.57,948.43 430.64,949.96 432.92,931.89 443.97,923.13 456.87,953.26 472.49,955.23 453.35,915.73 478.67,895.39 477.71,954.72 
		520.13,955.41 520.29,945.26 490.04,944.77 	"/>
	<path d="M579.78,894.22c-2.75-2.66-5.9-4.18-9.44-4.57c-2.31-0.27-7.13,0.14-14.45,1.22l-19.32,2.85l8.81,59.62l12.04-1.78
		l-3.33-22.49l7.85-1.16c5.45-0.81,9.57-1.7,12.36-2.7c2.05-0.77,3.99-2.02,5.83-3.75c1.84-1.73,3.23-3.93,4.19-6.62
		c0.96-2.69,1.17-5.87,0.63-9.53C584.25,900.57,582.52,896.87,579.78,894.22z M571.89,912.15c-0.71,1.46-1.82,2.62-3.33,3.48
		c-1.51,0.86-4.63,1.64-9.38,2.34l-6.59,0.97l-2.5-16.92l5.82-0.86c4.34-0.64,7.25-0.93,8.72-0.87c2,0.07,3.75,0.71,5.23,1.93
		c1.48,1.22,2.38,2.92,2.71,5.09C572.83,909.07,572.6,910.69,571.89,912.15z"/>
	<path d="M632.64,913.14c-2.15-1.3-4.69-2.34-7.64-3.11c4.88-2.17,8.21-5.03,9.97-8.59c1.76-3.55,2.03-7.51,0.81-11.86
		c-0.96-3.43-2.66-6.24-5.1-8.43c-2.44-2.19-5.21-3.41-8.31-3.66c-3.11-0.25-7.76,0.49-13.96,2.24l-24.66,6.93l16.31,58.02
		l11.71-3.29l-6.81-24.22l2.37-0.67c2.69-0.75,4.72-1.09,6.08-1c1.36,0.09,2.76,0.56,4.2,1.42c1.44,0.86,4.3,3.13,8.57,6.79
		l12.02,10.24l14.01-3.94l-10.27-9.33C637.89,916.96,634.79,914.45,632.64,913.14z M623.96,898.42c-0.46,1.38-1.33,2.51-2.59,3.38
		s-4.71,2.09-10.33,3.67l-8.67,2.44l-4.14-14.72l9.14-2.57c4.75-1.33,7.62-2.07,8.6-2.21c1.99-0.22,3.67,0.13,5.05,1.04
		c1.38,0.91,2.34,2.34,2.89,4.29C624.41,895.47,624.42,897.04,623.96,898.42z"/>
	<path d="M680.61,859.91c-7.09-2.91-14.71-2.58-22.84,0.98c-4.49,1.97-8.14,4.43-10.95,7.4c-2.11,2.21-3.77,4.91-4.96,8.09
		c-1.19,3.18-1.8,6.46-1.83,9.82c-0.01,4.55,1.21,9.64,3.68,15.26c3.85,8.79,9.29,14.63,16.33,17.51
		c7.04,2.89,14.66,2.53,22.87-1.06c8.11-3.55,13.49-8.9,16.13-16.06c2.64-7.16,2.01-15.19-1.89-24.1
		C693.22,868.77,687.7,862.82,680.61,859.91z M687.54,898.81c-1.45,4.45-4.39,7.65-8.84,9.59c-4.44,1.95-8.81,1.94-13.11-0.03
		c-4.3-1.96-7.82-6.07-10.55-12.32c-2.78-6.35-3.46-11.72-2.02-16.1c1.43-4.38,4.44-7.58,9.04-9.59s8.96-2.07,13.1-0.17
		c4.14,1.9,7.59,6.01,10.36,12.34C688.31,888.94,688.99,894.36,687.54,898.81z"/>
	<polygon points="766.84,856.15 756.71,843.25 780.51,824.56 774.24,816.58 750.44,835.27 742.19,824.76 767.76,804.67 
		761.47,796.65 726.32,824.25 726.47,824.45 717.25,830.04 727.75,875.83 691.58,845.6 680.3,852.44 729.97,892.8 741.08,886.07 
		729.23,827.96 763.54,871.66 799.59,843.34 793.32,835.36 	"/>
	<path d="M821.09,780.41c-4.01-3.97-7.85-6.84-11.52-8.61c-3.66-1.77-7.33-2.69-10.99-2.77s-7.11,0.78-10.33,2.56
		c-2.39,1.33-5.36,3.78-8.88,7.35l-15.63,15.82l42.87,42.36l16.1-16.29c3.16-3.2,5.38-6.05,6.66-8.56c1.7-3.36,2.57-6.52,2.59-9.46
		c0.04-3.9-0.98-7.92-3.04-12.07C827.22,787.34,824.62,783.9,821.09,780.41z M819.08,809.23c-0.79,1.34-2.37,3.22-4.76,5.64
		l-6.38,6.46l-28.4-28.06l3.84-3.89c3.49-3.53,5.96-5.76,7.43-6.7c1.95-1.27,3.94-1.94,5.98-2.01c2.04-0.07,4.23,0.48,6.58,1.65
		c2.35,1.17,5.18,3.39,8.5,6.66c3.31,3.27,5.64,6.15,6.98,8.64c1.34,2.48,1.98,4.6,1.9,6.36
		C820.67,805.73,820.11,807.48,819.08,809.23z"/>
	<path d="M909.94,450.48c-1.63-4.31-10.52-10.25-37.57-13.87c0,0-5.62-83.3-10.9-93.21c-4.18-7.85-19.79-14.66-26.05-17.14
		c-62.9-121.17-189.49-203.93-335.42-203.93c-208.58,0-377.67,169.09-377.67,377.67c0,69.73,18.92,135.08,51.88,191.15h6.31v10.35
		l6.54-3.62v-29.07h-2.95l-2.53,2.3h-3.49c0,0-1.36-46.58-1.78-48.26c-0.42-1.68-3.17-7.16-3.17-7.16l-1.04-36.03l7.35-5.92
		l21.72,63.89l7.58-3.62l-20.85-65.52l15.18-9.71l18.75,42.99c0,0,13.07-12.63,24.86-19.17c11.81-6.54,40.27-25.51,40.27-25.51
		l1.26,13.92l4.21-2.95c0,0-3.37-53.76-2.53-70.6c0.84-16.86,21.92-42.79,32.46-40.27c10.52,2.53,29.72,76.3,43.19,74.81
		c13.5-1.46,16.02-21.92,16.86-22.34c0.84-0.42,183.99-28.23,194.1-30.98c10.13-2.75,12.23-9.48,12.23-9.48l60.27-4.85
		c0,0-1.68-10.33,0-10.33s11.12,34.37,11.81,34.37c0.62-0.22,3.14-4.43,3.14-4.43l-1.68-31.2l95.69-8.42c0,0,7.6,7.58,8.02,6.54
		c0.42-1.06,0-6.54,0-6.54l33.28-2.1l2.75,11.17c0,0,55.22-7.38,68.27-6.76c1.19,0.05,2.4,0.17,3.66,0.3
		c12.48,1.41,27.22,6.59,28.16,7.92c1.07,1.49,0.42,22.34,0,24.47c-0.42,2.1-22.41,5.67-24.79,4.83
		c-2.38-0.84-7.03-13.05-7.65-13.05c-0.64,0-10.55,2.3-10.55,8.22c0,5.89,7.26,13.05,12.85,13.89c1.14,0.17,3.15,0.27,5.62,0.32
		c9.81,0.22,27.07-0.32,27.07-0.32s2.1,5.5,1.26,9.71c-0.84,4.21-19.61,17.28-19.81,20.23c-0.22,2.95,4.21,27.81,4.21,40.04
		c0,12.21-11.86,41.92-12.68,43.83c-0.82,1.91,0.17,7.16,0,7.8c-0.17,0.62,21.74-20.65,22.58-31.2c0.84-10.52,0.42-53.51,0.84-54.78
		c0.42-1.26,9.68-11.59,9.91-13.92C911.2,512.64,912.04,455.96,909.94,450.48z M827.23,338.25c4.11-1.16,19.71,4,20.02,4.43
		c0.32,0.42,1.58,5.8,1.58,5.8s11.28,16.44,14.02,31.4c2.74,14.96-4.22,23.29-4.22,23.29l3.37,4.43c-0.84,2.85-6.74-1.69-6.74-1.69
		s-10.85,4.95-17.18,4.32c-6.32-0.63-8.64-6.32-8.64-6.32s-1.16-17.28-2.63-27.71c-1.48-10.43-3.16-20.55-3.16-20.55
		s7.38-5.06,14.86-3.16c7.48,1.9,16.54,14.54,16.54,14.54l1.05-0.74c0,0-6.85-17.07-16.75-21.39c-9.91-4.32-14.12,1.9-14.12,1.9
		l-2.42,0.32C822.8,347.1,823.12,339.41,827.23,338.25z M814.53,320.33c4.74,0,6.48,3,6.16,3.64c-0.32,0.63-13.91,0-13.91,0
		S809.79,320.33,814.53,320.33z M802.25,333.72c4.22,0.21,11.17,14.54,8.01,27.4c7.8,10.96,2.95,20.86,2.95,20.86
		s4.64,14.12,1.48,20.02c-3.16,5.9-23.39,8.64-77.98,14.96c-54.59,6.32-122.87,7.59-139.1,8.01c-16.23,0.42-22.13-2.11-24.24-11.85
		c-2.11-9.75-10.33-40.2-14.12-50.74c-3.79-10.54-2.68-16.56,8.85-17.91C627.33,337.51,798.04,333.51,802.25,333.72z M185.17,479.56
		c0.74-26.34,4.21-38.04,9.59-51.11c5.37-13.07,10.85-21.29,13.17-22.55c2.32-1.26,36.14-10.12,36.14-10.64s0-2,0-2l-30.77,4.64
		c0,0,1.48-6.85,3.9-8.95c2.42-2.11,29.08-10.86,35.83-10.12c6.74,0.74,8.54,16.65,8.54,16.65s7.48-4.53,8.33-5.9
		c0.84-1.37,1.16-21.18-15.07-19.71c-0.21-14.96,0.32-23.39,0.32-23.39s-2.21,0.21-3.58,1.79c-1.37,1.58-4.11,23.5-4.22,23.82
		c-0.11,0.32-3.06,0.21-3.06,0.21s-0.95-22.02,11.8-39.2c12.75-17.18,16.54-22.55,16.54-22.55l3.48,83.04c0,0,4,3.06,3.79,4
		c-0.21,0.95-1.58,30.24-1.58,30.24l-7.69,5.16l0.11-11.17c0,0-29.4,27.29-29.72,27.5c-0.32,0.21,1.05-26.77,1.05-27.4
		c0-0.63,1.69-2,1.69-2l0.95,20.76c0,0,24.55-21.29,24.66-22.45c0.11-1.16-2.11-10.96-3.48-11.06
		c-1.37-0.11-50.16,10.85-50.16,12.22c0,1.37-1.9,56.59-1.9,56.59L227,462.91l0.21,1.16c0,0-15.28,20.23-16.23,20.55
		c-0.95,0.32-2.74-0.42-2.74-4.32c0-3.9,3.58-60.7,3.79-64.39c0.21-3.69-1.79-6.43-3.27-6.43c-1.48,0-11.59,12.96-14.12,37.2
		c-2.53,24.24-3.37,56.69-3.37,56.69l9.06-9.48v3.58c0,0-12.75,13.28-14.12,13.7C184.85,511.59,184.43,505.9,185.17,479.56z
		 M223.21,380.19l11.59-20.97c0,0,1.48,16.54,1.05,17.07C235.43,376.82,222.66,381.17,223.21,380.19z M279.91,438.04
		c0.1,0.84-0.53,18.44-0.53,18.44s-1.05,1.52-1.37,0c-0.44-2.08-0.63-18.44,0-18.44C278.64,438.04,279.81,437.2,279.91,438.04z
		 M229.43,455.53c-0.12,0.4-1.79,0.21-1.79-0.63c0-0.84,2.53-29.51,3.37-29.29c0.84,0.21,1.23-0.11,1.35,0.53
		C232.48,426.76,230.06,453.42,229.43,455.53z M229.32,500c-0.32,0.63-4.64,1.05-4.32-1.05c0.32-2.11,0.32-4.53,1.16-12.01
		c0,0,3.06-1.37,3.58-0.95C230.27,486.41,229.64,499.37,229.32,500z M185.85,563.23c-0.26,0-2.05-0.53-2.05-1.37
		c0-0.84,0.95-26.34,1.69-29.72c0.74-3.37,2.42-5.16,2.42-5.16c1.05,0.11-0.84,22.34,0.63,23.18c1.48,0.84,36.78-33.19,36.78-33.19
		l0.84,7.48C226.16,524.45,186.12,563.23,185.85,563.23z M214.99,570.39l-2.85-7.17l17.8-11.96l0.85,6.01L214.99,570.39z
		 M231.74,508.96l45.94-39.83l1.69,5.27c0,0-42.15,36.99-46.26,40.57C232.54,515.47,231.74,508.96,231.74,508.96z M282.17,522.66
		l-46.47,31.93v-6.8l46.47-31.93V522.66z M864.23,435.67c-5.65-0.59-11.94-1.06-18.97-1.44c-48.69-2.53-83.53,4.33-84.47,4.16
		c-0.94-0.15-4.11-2.67-6.02-2.67c-1.88,0-2.06,2.85-2.06,2.85s-325.61,29.07-354.37,43.61c-11.71,6.66-14.56,14.56-14.56,14.56
		s100.64-23.08,187.26-33.41c5.89,3.15,5.89,3.15,5.89,3.15s-171.96,33.53-216.01,36.48c-10.95-18.13-29.91-55.87-29.91-55.87
		s23.6-20.23,45.52-4.41c1.46-2.1,1.46-2.1,1.46-2.1s-10.95-12.88-17.9-14.56c-6.96-1.68-53.12,13.08-72.09,47.64
		c-2.95-6.96-2.95-6.96-2.95-6.96s9.91-9.29,9.91-9.91c0-0.64-8.84-27.81-7.8-29.52c1.06-1.68,2.1-2.95,2.1-2.95l9.06,26.99
		c0,0,78.4-64.09,92.96-66.61c0,0-0.22,6.34-0.42,7.38c-0.22,1.06-34.99,17.93-36.48,23.82c-1.46,5.89-1.88,5.47,7.8,6.74
		c9.71,1.26,17.09,17.09,23.4,25.93c6.31,8.84,16.22,24.66,17.48,24.86c1.26,0.22,19.81-25.93,20.88-29.91
		c1.04-4.01,3.79-21.49,3.79-21.49l1.91-1.06c0,0-1.91,27.19,6.31,28.26c8.22,1.04,105.17-9.71,105.17-9.71l-3.81-4.43
		c0,0-91.25,7.38-91.87,7.18c-0.64-0.22-9.91-10.13-8.87-10.97c1.06-0.84,10.55-0.42,12.04,0.22c1.46,0.62,6.74,6.74,8,7.16
		c1.26,0.42,78.6-7.8,82.61-8.42c4.01-0.64,8.64-5.5,10.13-5.7c1.46-0.22,6.51-0.42,7.35-0.22c0.87,0.22,3.59,14.76,3.59,14.76
		l4.43-3.37c0,0-8.87-63.64-23.4-95.04c-38.98,5.05-98.41,14.31-120.33,21.07c0.42,5.67,0.84,10.52,0.84,10.52s-1.91,0.42-1.91-0.2
		c0-0.64-4.01-8.02-4.01-8.02s-31.6,8.44-52.05,13.69c-0.42-1.88,67.23-22.11,67.23-22.11s-3.59-2.95-4.21-2.95
		c-0.64,0-22.98,5.05-22.98,5.05l-1.68-4.21c0,0-58.17,22.96-72.93,30.34c-14.73,7.38-31.4,19.81-31.4,19.81s-0.62,2.33,1.68,1.91
		c2.18-0.4,36.4-17.21,40.86-19.37l-49.06,28.63c0,0-8.22-34.35-11.61-70.8c-3.37-36.48-2.11-53.54-3.57-53.32
		c-1.49,0.2-24.44,27.81-50.37,73.55c-25.93,45.74-34.15,54.8-34.15,54.8l-0.42-2.75c0,0,74.19-125.82,83.68-131.94
		c9.48-6.12,46.36-6.74,91.67-8.64c45.32-1.88,224.04,0,227.4,0c3.37,0,27.61,29.52,28.23,29.72c0.64,0.22,32.04,0,32.04,0
		s3.79,4.66,3.17,4.43c-0.64-0.2-36.25-0.62-36.25-0.62s-22.34-26.57-25.93-27.83c-3.59-1.26-294.83,0-297.81,0.84
		c-2.95,0.84-5.47,5.89,1.68,6.96c7.18,1.06,288.74-2.1,291.27-1.68c2.53,0.42,19.61,23.18,19.61,23.18s-59.43-0.42-63.67,0
		c-4.21,0.42-4.41,14.96-4.41,14.96l40.88-2.53c0,0-3.17,4.01-1.49,4.01c1.68,0,206.55-7.38,206.55-7.38s5.89,3.37,3.57,4.01
		c-2.3,0.62-250.16,8.64-248.9,9.26c1.26,0.64,21.3,66.39,27.61,106.01l254.82-18.97c0,0-2.33-66.59-13.92-87.66h3.15
		c0,0,13.08,54.36,13.72,87.89l38.14-1.91L864.23,435.67z M448.13,394.78c0,0,3.32-24.66,31.61-27.35
		c28.29-2.69,37.94,25.45,37.94,25.45h4.11c0,0-2.05-35.25-39.2-33.83c-19.13,0.79-23.55,6.64-23.55,6.64l-3.69,0.26h-12.65
		l3.58-4.64c0,0,55.85-9.91,82.4-9.38c6.96,1.79,8.2,5.58,8.2,5.58l-14.73,17.07c0,0,2.74,23.6,3.16,33.72
		c20.23,4.85,21.5,12.22,12.65,14.75c-8.85,2.53-54.8,10.54-71.02,9.06c-16.23-1.48-27.5-22.02-26.55-38.15
		c0.95-16.12,12.01-23.39,12.01-23.39l1.42,0.32c0,0-10.43,13.28-10.75,23.87H448.13z"/>
	<path d="M244.23,387.91c-1.03-0.24-21.81,0.24-22.29,0.32c-0.47,0.08-3.64,2.53-3.64,2.53s25.05-0.47,25.92-0.71
		C245.1,389.8,245.26,388.14,244.23,387.91z"/>
	<path d="M293.86,296.15c0.31-6.17-5.22-5.53-6.48,0.95c-1.26,6.48,6.16,81.88,16.6,81.09c3.64,0.01,0.32-2.21,0-3.79
		S292.28,328.08,293.86,296.15z"/>
	<path d="M513.73,314.75c-12.86,3.58-67.12,24.55-67.12,24.55s-7.48-10.43-21.6-9.8c-14.12,0.63-15.81,10.22-14.86,10.64
		c0.95,0.42,12.76-1.4,14.86-0.95c3.9,0.84-0.95,4.43-0.32,7.06c0.63,2.63,9.38,2.21,11.06,2c1.69-0.21,93.89-30.14,95.26-31.82
		C532.38,314.75,526.59,311.17,513.73,314.75z"/>
	<path d="M533.33,330.13c-1.05,0-46.89,6.53-63.65,10.85c-16.76,4.32-29.72,9.38-30.35,10.96c0,0,96.84-16.02,97.47-16.54
		C537.44,334.88,534.39,330.13,533.33,330.13z"/>
	<path d="M483.54,430.19c33.04,0,37.46-34.14,37.46-34.14h-4.16c0,0-5.16,28.93-33.45,28.93c-28.29,0-36.67-22.13-36.67-22.13h-4.43
		C445.13,409.96,450.51,430.19,483.54,430.19z"/>
	<path d="M500.45,382.72c1.48,0.42,6.11,7.8,6.11,8.96s-4,3.9-4,5.16c0,1.26,2.53,6.11,4,6.85s7.17-1.48,7.17-9.8
		c0-8.32-8.85-17.7-12.54-18.65c-3.69-0.95-38.25,1.58-39.2,2.32c-0.95,0.74-7.38,6.43-7.38,6.43S498.98,382.29,500.45,382.72z"/>
	<path d="M458.73,412.54c11.06,7.27,35.93,0.95,36.14,0c0.21-0.95-1.58-3.16-1.58-3.16s-13.8,3.41-26.66,2.55
		c-12.86-0.86-6.85-18.93-3.06-19.8c3.79-0.87,26.45-1.19,28.19-0.76c1.74,0.42,6.27,13.28,6.27,13.28
		c0.32,0.11,3.06-0.82,3.06-0.82s-3.9-16.36-5.16-17.1c-1.26-0.74-33.19,0.87-39.31,2.7C450.51,391.25,447.66,405.27,458.73,412.54z
		"/>
	<path d="M464.52,405.27c2-5.37,12.01-8.85,14.12-9.22c2.11-0.37,3-2.37,3-2.37c-1.74-0.53-12.8-1.58-15.86,0
		C462.73,395.26,458.83,400.74,464.52,405.27z"/>
	<path d="M805.52,355.42c3.79-0.53,1.79-12.96-2.85-13.28c-4.64-0.32-89.68,4.22-89.68,4.22s9.8,10.22,12.01,14.12
		C741.56,359.11,801.73,355.95,805.52,355.42z M727.8,351.66l69.76-3.16c0.76-0.06,1.26,0.5,1.29,1.18c0.03,0.68-0.5,1.26-1.18,1.29
		l-69.76,3.16c-0.02,0-0.04,0-0.06,0c-0.66,0-1.21-0.52-1.24-1.18C726.59,352.27,727.12,351.69,727.8,351.66z"/>
	<path d="M567.68,367.86c3.58,0,94.63-3.79,97.58-4.64c2.95-0.84,9.27-14.8,9.27-14.8S566,354.79,563.26,355
		C560.52,355.21,564.1,367.86,567.68,367.86z M571.41,359.25l88.94-4.85c0.75-0.05,1.27,0.49,1.3,1.17c0.04,0.68-0.49,1.27-1.17,1.3
		l-88.94,4.85c-0.02,0-0.05,0-0.07,0c-0.65,0-1.2-0.51-1.24-1.17C570.2,359.87,570.73,359.28,571.41,359.25z"/>
	<path d="M663.79,388.94c2.95-0.84,1.9-16.96,0-16.86c0,0-93.57,4.64-94.42,4.85c-0.84,0.21,0.84,14.6,3.58,15.2
		C575.69,392.73,660.84,389.78,663.79,388.94z M577.94,385.3l78.19-4.4c0.77-0.02,1.27,0.48,1.31,1.17
		c0.04,0.68-0.48,1.27-1.17,1.31l-78.19,4.4c-0.02,0-0.05,0-0.07,0c-0.65,0-1.2-0.51-1.24-1.17
		C576.74,385.92,577.26,385.34,577.94,385.3z"/>
	<path d="M576.54,404.74c-2.53,0.21,1.05,13.07,4.43,13.07c3.37,0,99.26-4,99.9-4c0.63,0-8.01-10.75-11.17-14.33
		C669.19,398.9,579.07,404.53,576.54,404.74z M667.2,408.72l-81.98,2.74c-0.01,0-0.03,0-0.04,0c-0.67,0-1.21-0.53-1.24-1.2
		c-0.02-0.68,0.51-1.26,1.2-1.28l81.98-2.74c0.01,0,0.03,0,0.04,0c0.67,0,1.21,0.53,1.24,1.2
		C668.42,408.12,667.89,408.69,667.2,408.72z"/>
	<path d="M805.94,365.33c-2.32-0.11-74.08,4.43-74.08,4.43s-1.69,8.11,2.11,14.33c8.75,0,76.08-7.17,77.24-7.17
		S808.26,365.43,805.94,365.33z M800.03,373.31l-61.12,4.85c-0.03,0-0.07,0-0.1,0c-0.64,0-1.18-0.49-1.23-1.14
		c-0.06-0.68,0.45-1.28,1.14-1.33l61.12-4.85c0.64-0.04,1.28,0.45,1.33,1.14C801.22,372.66,800.71,373.25,800.03,373.31z"/>
	<path d="M810.26,388.3c-2-0.42-69.86,6.95-77.03,7.48c-3.52,0.26-8.54,14.44-8.54,14.44s84.72-7.8,86.09-8.43
		C812.16,401.16,812.26,388.72,810.26,388.3z M804.89,397.28l-68.71,6.17c-0.04,0-0.07,0-0.11,0c-0.63,0-1.17-0.48-1.23-1.13
		c-0.06-0.68,0.44-1.28,1.12-1.34l68.71-6.17c0.67-0.07,1.28,0.44,1.34,1.12C806.08,396.62,805.57,397.22,804.89,397.28z"/>
	<path d="M684.52,406.5c5.44,3.52,11.59,5.29,17.58,5.29c5.29,0,10.47-1.38,14.93-4.17c8.6-5.37,12.77-14.77,11.44-25.78
		c-3.01-24.93-21.42-37.09-37.26-35.89c-10.59,0.81-18.25,7.51-21.01,18.38C666.3,379.65,672.86,398.97,684.52,406.5z M714.4,403.42
		c-7.89,4.93-18.56,4.5-27.2-1.08c-2.24-1.45-4.25-3.47-6-5.86l16.83-15.04l24.38,11.99C720.93,397.57,718.24,401.02,714.4,403.42z
		 M723.55,382.44c0.29,2.43,0.24,4.74-0.09,6.93l-21.74-16.56l-9.5-21.94C705.57,350.24,720.95,360.9,723.55,382.44z M675,365.55
		c1.52-5.99,5.45-13.24,15.39-14.52l1.96,23.68l-13.35,18.31C674.58,385.04,672.74,374.41,675,365.55z"/>
	<path d="M845.11,397.55c-7.27,1.11-13.36-6.72-13.36-6.72v4.32c0,0,4.11,10.43,13.8,9.38c9.69-1.05,15.64-14.06,12.91-26.58
		l-3.64,2.21C854.84,380.16,852.39,396.44,845.11,397.55z"/>
	<path d="M847.88,383.01c3.87-1.66,6.24-13.36,0.71-19.2c-5.53-5.85-18.65-2.61-18.65-2.61l1.19,4.13
		C853.73,368.83,847.88,383.01,847.88,383.01z"/>
	<path d="M840.9,381.43c0,0,4.69-9.96-10.96-13.04l-2.13,4.03C827.81,372.42,837.15,377.24,840.9,381.43z"/>
	<path d="M185.11,606.27c-9.48-0.79-7.9,9.8-7.9,9.8c12.01-2.53,15.65,17.86,15.65,17.86S194.6,607.06,185.11,606.27z"/>
	<path d="M181.37,620.66l-2.74,5.37c0,0,12.43,17.49,3.69,34.35C196.44,660.38,192.02,632.88,181.37,620.66z"/>
	<polygon points="232.48,633.51 289.91,604.64 286.65,596.74 222.58,621.5 	"/>
	<polygon points="216.78,656.59 287.28,627.4 284.33,620.08 207.51,646.47 	"/>
	<path d="M282.43,643.1c-3.06,0.42-30.56,16.33-30.66,17.28c-0.11,0.95-3.58,37.67-3.27,37.62c2.53-0.42,8.75-13.17,11.59-15.7
		c2.85-2.53,10.43-10.75,18.34-14.02c7.9-3.27,21.39-20.23,20.65-21.08C298.34,646.37,285.49,642.68,282.43,643.1z"/>
	<path d="M198.02,687.99c0.42-3.27,0.42-15.6,0-15.81c-0.42-0.21-3.48,2.21-4.32,3.69c-0.84,1.48-0.53,15.7-0.53,16.75
		C193.18,692.63,197.6,691.26,198.02,687.99z"/>
	<path d="M340.6,624.56c0.74,4.32,15.38,8.11,22.02,5.48c0.88-0.35,1.79-4.32,1.79-4.32s-17.39-9.17-18.55-9.17
		C344.71,616.55,339.86,620.23,340.6,624.56z"/>
	<path d="M342.71,645.21c-1.51,0.54-2.63,14.44,4.43,15.6s33.93-2.63,33.72-5.69C380.64,652.06,352.4,641.73,342.71,645.21z"/>
	<path d="M358.09,683.88c0.53-2.32-12.75-4-14.12-2.85c-1.37,1.16,0.07,7.35,2.53,7.69C354.82,689.89,357.56,686.2,358.09,683.88z"
		/>
	<path d="M321.52,518.97c-6.11-5.06-13.07,0.63-10.33,3.58c2.74,2.95,24.03,36.25,24.03,36.25
		C336.49,546.16,327.64,524.03,321.52,518.97z"/>
	<path d="M302.77,567.65c4-0.63,6.53-10.12,6.53-10.12c16.44,54.8,13.91,151.53,14.54,151.53c0.63,0,8.43-16.65,7.38-63.65
		c-1.05-47-14.54-109.17-21.92-110.2C301.92,534.2,298.76,568.28,302.77,567.65z"/>
	<path d="M312.83,695.74c0,0,3.95-1.42,6.01-8.54c2.05-7.11,0.67-29.08-2.67-32.56c-3.34-3.48-0.97-10.14-0.97-10.14
		s-6.8-5.83-8.38-9.94c-1.58-4.11,2.85-8.43,2.85-12.43c0-4.01-6.01-9.38-7.43-8.59c-0.98,0.54-1.18,5.22-1.22,7.11
		C300.98,622.55,312.83,695.74,312.83,695.74z"/>
	<path d="M189.28,709.07c0,1.69,0.84,3.9,2.85,4c2,0.11,1.79-3.58,1-4.95C192.32,706.75,189.28,707.65,189.28,709.07z"/>
	<path d="M201.08,719.5c1.26,0.95,3.27-0.32,4.53-0.95c1.26-0.63-0.42-1.48-2.53-2C200.97,716.02,200.28,718.9,201.08,719.5z"/>
	<path d="M276.32,727.51c-0.95,1.26,0.29,5.08,1.48,4.95c4-0.42,4.43-3.37,4-4.43S277.27,726.24,276.32,727.51z"/>
	<path d="M566.63,516.95c-2.32-0.3-106.85,14.45-106.85,14.45c-4.85,0.42-17.49-12.89-18.97-14.45s-6.11,2.23-6.11,5.6
		s7.8,21.29,18.97,21.29c11.17,0,102.22-10.75,109.59-15.17C570.63,524.24,568.95,517.25,566.63,516.95z"/>
	<path d="M843.77,487.78c-3.16-0.42-206.12,20.44-240.89,22.97c-2.11,0.15-2.95-9.27-6.95-15.6c-4-6.32-10.12-0.84-9.91,4.85
		s4.42,22.97,8.43,23.82c4.01,0.84,115.28-11.17,115.28-11.17s2.32,6.32,5.48,6.32c3.16,0,4.43-8.64,4.43-8.64
		S835.55,500,840.61,498.74C845.67,497.47,846.93,488.2,843.77,487.78z"/>
	<path d="M568.61,641.84c16.25-2.53,43.44-10.43,60.19-14.54c16.75-4.11,117.6,1.58,117.6,1.58c0-1.58-12.96-32.25-15.81-33.51
		c-2.85-1.26-100.21,7.9-116.02,11.06c-15.81,3.16-45.52,12.96-50.26,15.81C559.57,625.08,552.36,644.37,568.61,641.84z"/>
	<path d="M546.93,554.74c-1.11-4.11-19.44-7.43-19.13,0C528.12,562.17,546.93,554.74,546.93,554.74z"/>
	<path d="M594.82,596.47c9.96-2.37,40.78-14.38,51.69-14.86c5.39-0.23-9.48-5.69-19.13-5.37c-9.64,0.32-52.79,15.49-55.16,16.6
		C569.84,593.94,584.86,598.84,594.82,596.47z"/>
	<path d="M728.38,568.5c0,0-6.48-4.58-12.63-3.79c-6.15,0.79-25.94,10.27-26.57,10.91c0,0,7.75,5.22,16.28,3.32
		C714,577.03,728.38,568.5,728.38,568.5z"/>
	<path d="M825.44,553.8c-0.24-1.09-3.64,2.69-7.43,1.26c-3.79-1.42-7.27-5.22-11.38-5.22c-4.11,0-25.92,9.64-27.66,12.49
		s5.85,11.07,18.81,9.65C810.74,570.55,826.7,559.64,825.44,553.8z"/>
	<path d="M880.13,549.84c1.42-3.64-4.58-12.65-14.02-9.01c-9.43,3.64-9.4,14.69,0.9,14.54C868.12,555.36,878.7,553.48,880.13,549.84
		z"/>
	<path d="M872.22,560.99c-2.21,0.3-9.48,6.71-6.95,11.93c2.53,5.22,7.85,8.38,15.07,3.64C887.55,571.81,884.24,559.34,872.22,560.99
		z"/>
	<path d="M692.03,709.28c0.21,10.54,41.1,8.22,54.37,4.64c13.28-3.58,17.28-11.38,24.66-13.7c7.38-2.32,48.47-1.9,48.47-1.9
		l9.06-15.6c0,0-18.34-3.16-60.7-3.58C725.54,678.72,691.82,698.74,692.03,709.28z"/>
	<path d="M378.22,561.75c2.42,0,8.85-4.95,9.27-6.74c0.42-1.79-1.58-2.42-2.74-2.32s-4.11,2.95-6.53,5.27
		C375.79,560.28,376.95,561.75,378.22,561.75z"/>
	<path d="M384.54,520.02c-1.37,0.11-2.38,3.32-0.84,3.79C386.44,524.66,385.91,519.92,384.54,520.02z"/>
	<path d="M403.93,510.22c-1.26,0-1.16,2.13,0,2.32C405.93,512.86,405.19,510.22,403.93,510.22z"/>
	<path d="M408.14,526.34c-2.21,0.11-1.43,3.23,0,3.16C410.36,529.4,410.36,526.24,408.14,526.34z"/>
	<path d="M416.15,552.16c-2.32,0.11-2.34,3.47-0.63,3.58C422.05,556.17,418.47,552.06,416.15,552.16z"/>
	<path d="M328.06,516.95c-2.42-0.12-0.41,2.38,0.63,2.33C331.01,519.18,330.48,517.07,328.06,516.95z"/>
	<path d="M327.74,559.33c-0.75,0.1-2.95,2.21,0.74,1.79C332.17,560.7,330.17,559.01,327.74,559.33z"/>
	<path d="M295.5,579.98c3.37-1.16,4.53-3.06,1.16-2.32C294.76,578.08,292.12,581.14,295.5,579.98z"/>
	<path d="M243.12,590.31c0-2.11-4.71,2.26-2.95,3.9C241.65,595.58,243.12,592.42,243.12,590.31z"/>
	<path d="M238.38,602.22c4.32,0.42,2.74-2.32,0.84-2.53C237.33,599.48,236.55,602.04,238.38,602.22z"/>
	<path d="M206.98,602.26c-1.25,1.92-4,9.12-2,7.65c2-1.48,1.05-2.53,3.48-4.64C210.88,603.16,207.64,601.25,206.98,602.26z"/>
	<path d="M253.77,590.41c-0.63-1.48-0.63,0.21-1.58,0.53c-0.95,0.32-1.56,2.3,0,2.21C256.09,592.94,254.4,591.89,253.77,590.41z"/>
	<path d="M267.68,591.49c0.95-0.72-1.79-1.07-3.16-1.74c-1.37-0.67-0.84,0.35,0.63,1.3C265.15,591.05,266.73,592.2,267.68,591.49z"
		/>
	<path d="M277.48,639.31c1.16-3.48-0.74-2.21-1.24-2c-0.5,0.21-0.87,1.16-1.18,2C274.74,640.15,276.89,641.08,277.48,639.31z"/>
	<path d="M257.56,653.43c5.06-2.63,6.64-4.53,2.42-3.58c-3.23,0.73-9.59,5.8-8.43,6.11C252.71,656.27,252.5,656.06,257.56,653.43z"
		/>
	<path d="M217.83,668.39c-0.32-0.84-1.48-2.21-3.37-0.84c-1.33,0.96-1.9,2.11-1.16,2.53c0.74,0.42-1.37,4.51,1.16,2.09
		C216.99,669.76,218.15,669.24,217.83,668.39z"/>
	<path d="M211.93,659.12c-0.74-1.26-1.37,1.48-2.21,1.26c-0.84-0.21-0.97,3.12,0.53,2.95C212.14,663.12,212.67,660.38,211.93,659.12
		z"/>
	<path d="M235.7,690.94c-0.63,0.05-0.63,0.84,0,1.69c0.63,0.84,0.71,1.3,1.53,2.58c0.33,0.52,1.79-3.27,0.47-4.27
		C236.38,689.94,236.33,690.89,235.7,690.94z"/>
	<path d="M213.83,702.48c1.16,0.16,1.26-2.16,1.32-3.16c0.05-1-2.32,1-3.69,0.95c-1.37-0.05-1.83,0.12-1,1.74
		C211.56,704.17,212.67,702.32,213.83,702.48z"/>
	<path d="M264.09,690.1c-1.11,0.16-0.21,2.17,1.9,2.77c2.69,0.77,1.32-3.3,0.42-4.09C265.52,687.99,265.2,689.94,264.09,690.1z"/>
	<path d="M288.54,681.3c-0.95,0-0.83,1.63,0.47,2c2.42,0.68,2.37-2.63,1.9-4.43C290.44,677.09,289.49,681.3,288.54,681.3z"/>
	<path d="M301.92,678.82c1.79,0.68,3.58-1.53,3.48-3.27c-0.11-1.74-2.53,1.26-3.79,1.26C300.34,676.82,300.84,678.41,301.92,678.82z
		"/>
	<path d="M202.44,666.72c0-0.41-0.33-0.74-0.74-0.74c-0.41,0-0.74,0.33-0.74,0.74c0,0.41,0.33,0.74,0.74,0.74
		C202.11,667.46,202.44,667.13,202.44,666.72z"/>
	<path d="M205.94,687.79c0-1-0.56-1.82-1.24-1.82c-0.69,0-1.24,0.81-1.24,1.82c0,1,0.56,1.82,1.24,1.82
		C205.38,689.61,205.94,688.8,205.94,687.79z"/>
	<path d="M329.51,743.87c0,0.87,0.85,1.58,1.9,1.58c1.05,0,1.9-0.71,1.9-1.58c0-0.87-0.85-1.58-1.9-1.58
		C330.36,742.29,329.51,743,329.51,743.87z"/>
	<path d="M339.94,723.2c0,0.5,0.21,0.91,0.47,0.91c0.26,0,0.47-0.41,0.47-0.91s-0.21-0.91-0.47-0.91
		C340.15,722.29,339.94,722.7,339.94,723.2z"/>
	<path d="M338.24,691.71c-1.11,0-2.02,0.9-2.02,2.02c0,1.11,0.9,2.02,2.02,2.02c1.11,0,2.02-0.9,2.02-2.02
		C340.26,692.61,339.35,691.71,338.24,691.71z"/>
	<circle cx="379.87" cy="679.16" r="0.65"/>
	<path d="M380.19,640.34c-0.36,0-0.66,0.65-0.66,1.46c0,0.81,0.3,1.46,0.66,1.46c0.36,0,0.66-0.65,0.66-1.46
		C380.85,640.99,380.56,640.34,380.19,640.34z"/>
	<ellipse cx="348.55" cy="597.46" rx="0.87" ry="1.3"/>
	<path d="M380.19,592.84c0.36,0,0.66-0.5,0.66-1.11s-0.3-1.11-0.66-1.11c-0.36,0-0.66,0.5-0.66,1.11S379.83,592.84,380.19,592.84z"
		/>
	<path d="M382.22,611.25c0-1.22-0.69-2.21-1.54-2.21c-0.85,0-1.54,0.99-1.54,2.21s0.69,2.21,1.54,2.21
		C381.53,613.47,382.22,612.47,382.22,611.25z"/>
	<ellipse cx="419.13" cy="613.46" rx="1.11" ry="2.05"/>
	<ellipse cx="477.5" cy="600.62" rx="1.94" ry="1.15"/>
	<path d="M480.7,589.2c0,1.22,0.41,2.21,0.91,2.21s0.91-0.99,0.91-2.21s-0.41-2.21-0.91-2.21S480.7,587.98,480.7,589.2z"/>
	<ellipse cx="490.34" cy="576.68" rx="1.11" ry="1.7"/>
	<path d="M348.61,785.2c0,0.9,0.59,1.63,1.32,1.63c0.73,0,1.32-0.73,1.32-1.63c0-0.9-0.59-1.63-1.32-1.63
		C349.2,783.57,348.61,784.3,348.61,785.2z"/>
	<path d="M466.73,645.09c0,1.01,0.82,1.83,1.83,1.83c1.01,0,1.83-0.82,1.83-1.83c0-1.01-0.82-1.83-1.83-1.83
		C467.55,643.26,466.73,644.08,466.73,645.09z"/>
	<path d="M503.51,658.91c0,1.16,0.68,2.11,1.53,2.11s1.53-0.94,1.53-2.11c0-1.16-0.68-2.11-1.53-2.11S503.51,657.74,503.51,658.91z"
		/>
	<path d="M515.42,641.97c0,0.71,0.97,1.29,2.16,1.29c1.19,0,2.16-0.58,2.16-1.29s-0.97-1.29-2.16-1.29
		C516.38,640.68,515.42,641.26,515.42,641.97z"/>
	<ellipse cx="485.17" cy="553.64" rx="1.9" ry="2.21"/>
	<path d="M536.49,542.05c0-0.99-0.47-1.79-1.05-1.79s-1.05,0.8-1.05,1.79c0,0.99,0.47,1.79,1.05,1.79S536.49,543.03,536.49,542.05z"
		/>
	<ellipse cx="531.28" cy="584.93" rx="0.68" ry="1.05"/>
	<path d="M557.59,598.03c0.53,0,0.97-0.43,0.97-0.97s-0.43-0.97-0.97-0.97c-0.53,0-0.97,0.43-0.97,0.97S557.05,598.03,557.59,598.03
		z"/>
	<path d="M559.36,561.33c0-0.87-0.4-1.58-0.89-1.58c-0.49,0-0.89,0.71-0.89,1.58c0,0.87,0.4,1.58,0.89,1.58
		C558.96,562.91,559.36,562.2,559.36,561.33z"/>
	<path d="M557.1,545.52c0.27,0,0.48-0.52,0.48-1.16c0-0.64-0.22-1.16-0.48-1.16c-0.27,0-0.48,0.52-0.48,1.16
		C556.62,545,556.84,545.52,557.1,545.52z"/>
	<ellipse cx="573.53" cy="580.67" rx="1" ry="1.32"/>
	<path d="M640.66,647.94c0,1.89,1.53,3.42,3.42,3.42c1.89,0,3.42-1.53,3.42-3.42c0-1.89-1.53-3.42-3.42-3.42
		C642.19,644.52,640.66,646.05,640.66,647.94z"/>
	<circle cx="628.62" cy="657.47" r="1.48"/>
	<path d="M635.92,667.8c0,0.85,0.83,1.54,1.86,1.54c1.03,0,1.86-0.69,1.86-1.54c0-0.85-0.83-1.54-1.86-1.54
		C636.75,666.26,635.92,666.95,635.92,667.8z"/>
	<path d="M630.94,673.06c0,0.57,0.57,1.03,1.26,1.03c0.7,0,1.26-0.46,1.26-1.03c0-0.57-0.57-1.03-1.26-1.03
		C631.5,672.03,630.94,672.49,630.94,673.06z"/>
	<path d="M618.92,671.83c0,0.46,0.55,0.83,1.22,0.83s1.23-0.37,1.23-0.83s-0.55-0.83-1.23-0.83S618.92,671.37,618.92,671.83z"/>
	<path d="M600.51,688.21c0,1.04,0.84,1.88,1.88,1.88c1.04,0,1.88-0.84,1.88-1.88c0-1.04-0.84-1.88-1.88-1.88
		C601.35,686.33,600.51,687.17,600.51,688.21z"/>
	<path d="M678.83,645.47c0,0.87,0.46,1.58,1.03,1.58c0.57,0,1.03-0.71,1.03-1.58s-0.46-1.58-1.03-1.58
		C679.29,643.89,678.83,644.6,678.83,645.47z"/>
	<path d="M702.62,679.81c0-0.81-0.99-1.46-2.21-1.46c-1.22,0-2.21,0.65-2.21,1.46c0,0.81,0.99,1.46,2.21,1.46
		C701.63,681.27,702.62,680.62,702.62,679.81z"/>
	<circle cx="710.52" cy="674.95" r="1.26"/>
	<path d="M731.43,655.41c0-0.82-0.66-1.48-1.48-1.48c-0.82,0-1.48,0.66-1.48,1.48c0,0.82,0.66,1.48,1.48,1.48
		C730.76,656.89,731.43,656.23,731.43,655.41z"/>
	<ellipse cx="732.75" cy="643.02" rx="1.32" ry="2.45"/>
	<ellipse cx="765.25" cy="626.98" rx="1.78" ry="2.37"/>
	<ellipse cx="778.92" cy="615.48" rx="1.38" ry="1.94"/>
	<ellipse cx="789.95" cy="604.38" rx="2.69" ry="2.21"/>
	<path d="M797.46,590.55c-1,0-1.82,0.81-1.82,1.82s0.81,1.82,1.82,1.82c1,0,1.82-0.81,1.82-1.82S798.46,590.55,797.46,590.55z"/>
	<path d="M800.38,579.72c0-1.22-0.57-2.21-1.26-2.21c-0.7,0-1.26,0.99-1.26,2.21s0.57,2.21,1.26,2.21
		C799.82,581.93,800.38,580.94,800.38,579.72z"/>
	<path d="M809.71,578.61c0,0.61,0.5,1.11,1.11,1.11c0.61,0,1.11-0.5,1.11-1.11s-0.5-1.11-1.11-1.11
		C810.2,577.5,809.71,578,809.71,578.61z"/>
	<path d="M817.93,576.97c0,1.06,0.57,1.91,1.26,1.91s1.26-0.86,1.26-1.91s-0.57-1.91-1.26-1.91S817.93,575.91,817.93,576.97z"/>
	<circle cx="851.75" cy="572.6" r="0.87"/>
	<path d="M855.67,578.88c-0.5,0-0.91,0.68-0.91,1.52s0.41,1.52,0.91,1.52c0.5,0,0.91-0.68,0.91-1.52S856.17,578.88,855.67,578.88z"
		/>
	<path d="M830.02,564.07c0-0.96-0.64-1.74-1.42-1.74c-0.79,0-1.42,0.78-1.42,1.74c0,0.96,0.64,1.74,1.42,1.74
		C829.38,565.81,830.02,565.03,830.02,564.07z"/>
	<path d="M849.62,551.58c-0.92,0-1.66,1.03-1.66,2.29c0,1.27,0.74,2.29,1.66,2.29c0.92,0,1.66-1.03,1.66-2.29
		C851.28,552.61,850.54,551.58,849.62,551.58z"/>
	<path d="M837.8,543.76c-1.55,0-2.81,0.88-2.81,1.96c0,1.08,1.26,1.96,2.81,1.96c1.55,0,2.81-0.88,2.81-1.96
		C840.61,544.64,839.35,543.76,837.8,543.76z"/>
	<circle cx="635.76" cy="542.36" r="1.48"/>
	<path d="M677.49,485.77c0-1.8-0.68-3.27-1.53-3.27c-0.84,0-1.53,1.46-1.53,3.27c0,1.8,0.68,3.27,1.53,3.27
		C676.8,489.04,677.49,487.58,677.49,485.77z"/>
	<ellipse cx="679.96" cy="472.66" rx="0.79" ry="1.53"/>
	<path d="M390.13,732.41c0,36.04,0,58.96,0,71.76c0,12.8,13.28,38.41,58.33,38.41s98,0.63,119.81-2.85
		c21.81-3.48,30.03-18.49,30.03-33.67c0-15.17,0-28.45,0-43.15c0-14.7-5.53-17.7-35.56-17.7c-30.03,0-63.7,0-73.97,0
		c-10.27,0-11.22,37.3,0.63,37.3c11.86,0,34.93,0,37.78,0c2.85,0,3.16,23.55-12.8,23.55c-15.96,0-27.66,0-34.62,0
		c-6.95,0-15.96-7.43-15.96-25.29c0-17.86,0-30.19,0-39.36c0-9.17,2.53-18.81,14.23-18.81c0,0,98,0,109.38,0
		c11.38,0,9.64-16.91-10.75-26.55c-20.39-9.64-53.74-9.72-94.05-9.72s-30.66,0-46.15,0C420.95,686.33,390.13,696.37,390.13,732.41z
		 M571.27,702.53c0,0,14.54,4.27,14.54,10.75c0,6.48-14.07,5.69-30.03,5.69c-15.96,0-69.39,0-77.14,0s-15.33,9.17-15.33,9.17v-5.53
		c0,0-4.11-0.47-4.11,10.75c0,11.22,0,44.89,0,55.32c0,10.43,7.9,21.18,21.81,21.18c13.91,0,26.92,0,35.83,0
		c8.91,0,18.07-9.17,18.07-18.65c0-9.48,0-7.11,0-9.48c0-2.37-3.16-3.48-9.33-3.48c-6.16,0-27.5,0-32.56,0s-5.01-6.16-5.01-12.17
		c0-6.01,1.37-15.02,4.85-15.02c3.48,0,72.87,0.95,75.24,1.74c2.37,0.79,4.11,4.27-2.37,4.27c-6.48,0-66.55-0.47-67.18-0.87
		c-0.63-0.4,1.74,12.41,3.16,13.04c1.42,0.63,31.3,0.95,36.2,1.9c4.9,0.95,9.96,13.12,3.95,28.29
		c-6.01,15.17-30.35,15.17-38.73,15.17c-8.38,0-14.54,0-22.13,0c-7.59,0-26.71-6.8-26.71-28.14s0-42.2,0-55.16
		c0-12.96,10.12-19.92,29.4-19.92c19.28,0,93.02,2.13,95.15,0C580.99,709.25,572.53,704.43,571.27,702.53z M436.91,690.84v3
		c0,0,98.16,0,106.85,0c8.69,0,11.54,3.95,11.54,3.95s-92.47,1.74-110.17,1.74s-32.72,16.44-32.25,24.58
		c0.47,8.14,0.95,62.51,0.79,66.15c-0.16,3.64-3.48,3.16-3.48,3.16s-2.53-63.7-2.69-67.49c-0.16-3.79-2.69-6.32-2.69-6.32
		s0,28.14,0,71.13s36.51,44.1,55.16,44.1c18.65,0,61.96,0,80.46,0c18.49,0,27.82-6.95,27.82-6.95s-10.43,3.95-26.55,3.95
		c-16.12,0-61.01,0-79.03,0c-18.02,0-23.08-6.01-23.08-6.01s3.64,0.63,18.02,0.63c14.38,0,78.56,0,97.21,0
		c18.65,0,30.98-18.65,30.98-22.45c0-3.79,0-15.96,0-22.6s3.79-9.64,3.32-9.17c-0.47,0.47,0,17.7,0,37.94
		c0,20.23-25.29,27.35-37.94,27.35s-49.63,0-99.9,0c-50.26,0-58.17-31.61-58.17-48.53c0-16.91,0-24.97,0-48.05
		s6.16-31.88,6.16-31.88c-2.91,8.68-3.16,19.71-3.16,25.08c0,5.37,0,21.65,0,47.74s16.91,43.94,16.91,43.94
		c-10.9-13.68-13.75-33.51-13.75-48.53c0-15.02,0-12.82,0-43.47C399.29,688.31,436.91,690.84,436.91,690.84z"/>
</g>
</svg>
