<?xml version="1.0" encoding="utf-8"?>
<!-- Generator: Adobe Illustrator 24.1.2, SVG Export Plug-In . SVG Version: 6.00 Build 0)  -->
<svg version="1.1" id="Layer_1" xmlns="http://www.w3.org/2000/svg" xmlns:xlink="http://www.w3.org/1999/xlink" x="0px" y="0px"
	 viewBox="0 0 1000 1000" style="enable-background:new 0 0 1000 1000;" xml:space="preserve">
<style type="text/css">
	.st0{fill:#FFFFFF;}
	.st1{fill:#B3BABE;}
	.st2{fill:#BA1920;}
	.st3{fill:#31FF60;}
</style>
<g>
	<g>
		<g>
			<path class="st0" d="M730.09,363.42c8.88,26.87,4.13,93.34-41.33,134.74c2.86,11.9-3.09,24.51-3.09,24.51v37.36l-35.21-0.64
				l-33.32-41.05H402.3l-27.87,35.97l-51.18-0.94l1.9-26.66c0,0-6.9-16.53-3.57-31.88c0,0-26.96-22.05-38.87-65.2
				c-9.99-38.07-1.27-59.65-1.27-59.65s-6.51-20.15-6.03-57.11c0.48-36.95,5.87-137.7,5.87-137.7l24.75,44.58
				c0,0-4.59-23.64,5.08-39.5c9.67-15.86,29.03-30.3,43.31-49.34c14.28-19.03,13.33-39.66-14.28-57.59
				c32.84,7.61,52.67,25.86,43.63,47.6c-9.04,21.73-25.86,31.57-30.46,53.3c-4.6,21.73,14.85,35.38,32.65,30.3
				c17.79-5.08,17-34.59-11.72-59.17c28.24,4.29,50.61,26.5,48.39,49.66c11.42-9.68,15.7-10.79,15.7-10.79s-28.87-30.3-1.11-62.5
				c27.77-32.2,35.22-36.96,43.63-61.55c8.3-24.28-11.69-47.31-12.21-47.91c0.78,0.17,37.75,8.84,37.75,49.65
				c0,20.78-19.03,38.07-24.27,51.72c-5.24,13.64,3.49,30.78,13.64,39.02c10.15,8.25,10.63,11.9,10.63,11.9s6.03-5.4,22.53-21.58
				c16.5-16.18,19.04-23,19.04-38.55c0-15.31-22.59-30.46-23.3-30.93c1.14,0.21,45.83,9.21,45.83,34.58
				c0,25.7-18.88,30.62-30.93,62.03c21.41,7.61,42.99,22.37,42.99,22.37s0.63-29.67-22.84-47.11c25.39,3.65,57.91,37.06,44.74,66.36
				c10.95,9,34.75,11.81,34.75,11.81s0-16.88-17.13-41.97c-17.14-25.09-15.7-47.14,7.46-69.04s37.91-40.14,37.91-62.04
				c0-21.55-12.76-36.95-13.16-37.43c0.77,0.16,36.8,8.17,36.8,45.68c0,37.91-25.71,43.15-25.71,66.31s46.48,41.59,44.74,82.81
				c17.77-30.3,18.72-30.93,18.72-30.93s2.22,79.17,4.45,113.91C735.49,325.56,734.7,349.08,730.09,363.42z"/>
			<path class="st1" d="M687.07,561.46l-37.29-0.68l-33.31-41.03H402.99l-27.88,35.98l-53.35-0.98l1.98-27.8
				c-0.95-2.4-6.48-17.22-3.69-31.59c-4.22-3.73-27.83-26-38.68-65.35c-9.31-35.48-2.65-56.6-1.4-60.07
				c-0.99-3.31-6.39-22.96-5.95-57.09c0.47-36.56,5.82-136.75,5.87-137.75l0.26-4.85l23.61,42.53c-0.64-8.4-0.43-22.44,6.16-33.25
				c5.27-8.63,13.3-16.8,21.81-25.44c7.38-7.49,15-15.24,21.58-24.01c7.14-9.52,9.96-18.82,8.4-27.65
				c-1.79-10.07-9.3-19.47-22.32-27.93l-6.67-4.33l7.74,1.8c21.79,5.05,37.83,14.84,44,26.85c3.68,7.16,3.88,14.78,0.61,22.65
				c-3.66,8.8-8.54,15.63-13.39,22.09l2.79,0.42c28.25,4.29,49.8,25.39,49.73,47.93c6.05-4.93,9.8-7.2,11.85-8.22
				c-5.38-6.63-24.61-34.18,0.13-62.87c5.41-6.27,10.01-11.46,14.07-16.04c16.46-18.56,22.61-25.51,29.29-45.05
				c7.99-23.39-11.12-45.6-11.94-46.53L464.83,10l4.12,0.88c0.39,0.08,38.85,8.8,38.85,51.02c0,14.01-8.21,26.22-15.46,37
				c-3.68,5.47-7.15,10.64-8.91,15.22c-4.83,12.57,3.1,29.22,13.22,37.44c6.33,5.14,9.06,8.6,10.24,10.64
				c2.64-2.44,9.13-8.53,21.05-20.22c16.3-15.99,18.62-22.37,18.62-37.55c0-14.38-21.75-29.15-22.68-29.77l-5.65-3.8l6.69,1.26
				c0.47,0.09,46.97,9.17,46.97,35.95c0,14.93-6.32,23.26-13.64,32.91c-0.62,0.81-1.24,1.64-1.88,2.48l3.52,0.51
				c15.96,2.3,34.05,15.79,43.01,32.09c4.68,8.5,8.96,21.44,3.24,35.22c9.1,6.82,26.13,9.82,31.52,10.62
				c-0.5-4.75-3.11-19.55-16.77-39.56c-18.01-26.37-15.58-48.88,7.65-70.84c23.14-21.87,37.48-39.71,37.48-61.02
				c0-21.08-12.7-36.38-12.83-36.53l-2.6-3.08l3.95,0.81c0.38,0.08,37.91,8.23,37.91,47.05c0,21.74-8.22,32.9-15.48,42.74
				c-5.49,7.45-10.23,13.88-10.23,23.58c0,9.25,8.07,17.93,17.41,27.98c12.33,13.27,26.19,28.19,27.31,49.73
				c15.45-26.25,16.29-26.81,16.57-27l2.1-1.4l0.07,2.53c0.02,0.79,2.24,79.54,4.44,113.86c2.27,35.49,1.28,58.62-3.1,72.68
				c3.93,12.29,5.86,34.94-0.39,62.24c-4.69,20.46-15.58,49.66-40.86,72.99c2.32,11.11-2.35,22.34-3.24,24.33V561.46z
				 M651.14,558.01l33.14,0.61v-36.25l0.13-0.28c0.06-0.12,5.71-12.32,3-23.59l-0.19-0.8l0.61-0.56
				c25.18-22.93,35.98-51.86,40.62-72.1c6.21-27.1,4.05-49.89,0.32-61.17l-0.14-0.43l0.14-0.43c4.39-13.68,5.38-36.58,3.11-72.08
				c-1.9-29.66-3.82-92.38-4.32-109.55c-2.34,3.75-7.01,11.44-16.25,27.19l-2.84,4.84l0.24-5.61c0.98-23.2-13.66-38.96-26.58-52.87
				c-9.74-10.48-18.16-19.54-18.16-29.88c0-10.62,5.23-17.72,10.77-25.24c7-9.49,14.93-20.26,14.93-41.08
				c0-29.24-22.6-40.01-31.83-43.18c3.91,5.81,10.99,18.59,10.99,34.93c0,22.32-14.67,40.67-38.35,63.05
				c-22.05,20.84-24.36,42.21-7.26,67.23c17.18,25.16,17.37,42.05,17.37,42.76v1.57l-1.56-0.18c-0.99-0.12-24.33-2.96-35.47-12.12
				l-0.83-0.68l0.44-0.97c5.89-13.11,1.78-25.58-2.7-33.73c-7.54-13.72-21.79-25.36-35.43-29.44
				c19.24,17.89,18.92,44.24,18.91,44.53l-0.06,2.58l-2.13-1.46c-0.21-0.15-21.68-14.74-42.66-22.21l-1.35-0.48l0.51-1.34
				c5.34-13.92,11.94-22.63,17.77-30.31c7.3-9.63,13.07-17.23,13.07-31.22c0-18.65-25.65-28.1-38.09-31.59
				c7.14,5.79,18.36,16.68,18.36,27.94c0,15.85-2.55,22.97-19.46,39.55c-16.33,16.02-22.51,21.57-22.57,21.62l-1.98,1.77l-0.34-2.63
				l0,0c0,0-0.88-3.49-10.12-11c-11.11-9.02-19.42-26.68-14.07-40.61c1.87-4.88,5.43-10.17,9.2-15.78
				c7.02-10.45,14.98-22.29,14.98-35.44c0-31.78-22.95-43.5-32.52-47.01c5.45,7.6,16.38,26.19,9.71,45.72
				c-6.86,20.07-13.12,27.13-29.85,46c-4.05,4.57-8.65,9.76-14.04,16.01c-11.15,12.93-14.38,27.02-9.62,41.89
				c3.59,11.19,10.61,18.66,10.68,18.74l1.64,1.72l-2.3,0.6c-0.02,0.01-4.3,1.31-15.15,10.51l-2.62,2.23l0.33-3.43
				c1.03-10.71-3.37-21.64-12.38-30.79c-7.91-8.04-18.42-13.77-29.99-16.43c14.97,14.29,22.68,31.4,19.8,44.58
				c-1.52,6.95-5.9,11.8-12.34,13.63c-9.59,2.74-19.94,0.34-26.99-6.24c-6.82-6.36-9.52-15.73-7.41-25.69
				c2.63-12.44,9.08-20.96,15.91-29.98c5.26-6.95,10.71-14.14,14.63-23.57c2.94-7.07,2.77-13.9-0.51-20.3
				c-5.09-9.91-17.56-18.25-34.75-23.44c9.84,7.73,15.63,16.22,17.24,25.29c1.71,9.63-1.29,19.66-8.91,29.82
				c-6.69,8.92-14.38,16.73-21.82,24.29c-8.39,8.53-16.32,16.58-21.42,24.94c-9.27,15.2-4.95,38.27-4.9,38.5l1.67,8.63l-26.65-48.01
				c-1.08,20.59-5.2,100.92-5.61,132.78c-0.47,36.26,5.9,56.47,5.96,56.67l0.15,0.48l-0.19,0.47c-0.09,0.21-8.41,21.67,1.32,58.77
				c11.64,42.22,38.13,64.26,38.4,64.48l0.66,0.54l-0.18,0.84c-3.2,14.75,3.43,30.89,3.49,31.05l0.13,0.31L324.75,552l49,0.9
				l27.86-35.95h216.19l0.42,0.52L651.14,558.01z M371.02,144.41c-0.31,0.41-0.62,0.82-0.93,1.23c-6.63,8.76-12.9,17.04-15.4,28.87
				c-1.93,9.12,0.41,17.31,6.58,23.07c6.35,5.92,15.66,8.07,24.32,5.6c5.4-1.54,9.08-5.64,10.37-11.54
				c2.2-10.05-2.41-27.93-22.61-45.23L371.02,144.41z M541.39,169.26c16.85,6.23,33.68,16.66,39.66,20.53
				c-0.51-7.53-3.6-29.52-22.18-43.33l-3.05-2.27C550.96,150.72,545.76,158.32,541.39,169.26z"/>
		</g>
		<path class="st1" d="M319.33,223.51c0,0-14.04-19.94,0-36.24c14.04-16.3,25.22-25.22,33.2-38.91
			c-9.04,21.54-20.23,30.58-26.41,41.05C319.92,199.87,319.33,223.51,319.33,223.51z"/>
		<path class="st1" d="M443.07,163.23c0,0-18.32-21.18,0.95-38.43s30.58-33.55,37.72-47.24c-6.54,21.77-13.09,30.46-27.01,45.93
			C440.81,138.96,440.22,148.47,443.07,163.23z"/>
		<path class="st1" d="M665.92,235.09c0,0,11.78-16.78-9.16-44.5s-37.36-45.33-16.42-73.17c-21.3,14.99-23.56,36.88-3.81,61.28
			C656.29,203.09,664.62,224.39,665.92,235.09z"/>
		<g>
			<g>
				<path class="st2" d="M677.03,477.46c-18.57,19.04-12.62,50.21-12.62,50.21c-55.69-36.65-159.27,0-159.27,0
					s-103.59-36.65-159.27,0c0,0,5.95-31.17-12.62-50.21c-18.56-19.03-46.87-58.3-30.22-109.47
					c13.09-42.12,51.88-54.49,50.21-104.23l101.45,93.84l4.68-21.02l-80.69-99.94c0,0,27.48,0.39,45.96-16.18
					c23.79-20.94,47.83-35.15,80.51-35.15s56.71,14.2,80.51,35.15c18.48,16.57,49.1,23.08,49.1,23.08l-83.84,93.04l4.68,21.02
					l101.45-93.84c-1.67,49.74,37.12,62.11,50.21,104.23C723.91,419.16,695.59,458.43,677.03,477.46z"/>
				<path d="M339.89,536.62l1.86-9.74c0.05-0.28,5.28-29.29-11.5-46.49c-19.1-19.59-48.55-60.4-31.2-113.69
					c5.62-18.09,15.68-30.75,25.4-42.99c13.13-16.53,25.53-32.14,24.6-59.8l-0.34-10.04l103.47,95.71l2.65-11.92l-85.04-105.32
					l8.94,0.13c0.27,0.01,26.1,0.13,43.1-15.11c20.36-17.92,46.16-36.22,83.31-36.22c37.15,0,62.95,18.3,83.28,36.19
					c17.48,15.67,46.91,22.06,47.2,22.12l7.11,1.51l-87.26,96.83l2.62,11.78l103.47-95.71l-0.34,10.04
					c-0.93,27.66,11.47,43.27,24.6,59.8c9.73,12.24,19.78,24.91,25.42,43.05c17.33,53.24-12.12,94.05-31.22,113.64l0,0
					c-16.78,17.21-11.56,46.21-11.5,46.5l1.83,9.71l-8.25-5.43c-53.29-35.07-154.55,0.09-155.57,0.45l-1.4,0.49l-1.4-0.49
					c-1.02-0.36-102.28-35.52-155.57-0.45L339.89,536.62z M411.61,507.14c10.99,0,22.78,0.87,35.36,2.63
					c28.98,4.04,52.3,11.49,58.17,13.46c5.88-1.98,29.2-9.42,58.17-13.46c40.28-5.62,72.54-2.22,96.07,10.08
					c-0.54-11.25,0.83-31.15,14.65-45.32l0,0c17.78-18.23,45.21-56.15,29.23-105.24c-5.19-16.7-14.75-28.73-24-40.37
					c-12.03-15.14-24.42-30.74-26.24-55.73l-99.94,92.44l-6.73-30.25l80.65-89.5c-10.4-2.97-30.31-9.89-44.15-22.3
					c-27.49-24.2-50.01-34.08-77.71-34.08s-50.22,9.88-77.74,34.1c-13.16,11.8-30.3,15.52-40.38,16.7l76.88,95.22l-6.7,30.11
					l-99.94-92.44c-1.82,24.98-14.21,40.59-26.24,55.73c-9.25,11.64-18.81,23.68-23.98,40.32c-16,49.15,11.44,87.06,29.21,105.29
					c13.82,14.17,15.18,34.07,14.65,45.32C367.08,511.39,387.39,507.14,411.61,507.14z"/>
			</g>
			<g>
				<g>
					<path d="M705.38,374.92c-11.26,34.21-49.59,67.73-85,90.13c4.7,1.67,9.88,3.77,15.37,6.38l8.01-5.09l5.96,7.86
						c0.57,0.75,2.81,3.77,4.66,7.23c15.84,9.3,15.66,22.13,12.48,31.53c-2.58,7.67-7.71,13.64-14.43,16.82
						c-5.36,2.54-11.42,3.13-17.42,1.77c-5.01,4.73-16.75,13.75-33.45,13.75c-14.29,0-26.66-4.89-35.44-13.73
						c-3.8,2.67-8.36,5.11-13.06,5.89l-1.05,0.18l-104.52-3.64l-2.66-1.95c-0.09-0.07-0.86-0.62-2.04-1.54
						c-6.65,7.73-17.76,14.79-34.71,14.79c-17.18,0-28.55-7.21-34.42-13.49c-0.48-0.14-1-0.29-1.52-0.46
						c-8.65,1.66-15.01-0.6-19.03-3c-6.59-3.94-11.09-10.75-12.68-19.17c-2.89-15.43,8.29-23.89,13.65-27.96l0.95-0.72
						c0.03-0.03,0.07-0.05,0.09-0.07l-3.58-23.63l20.28,15.29c0.07,0.03,0.14,0.06,0.21,0.08c1.25-0.49,3.39-1.45,5.19-2.26
						c3.06-1.36,6.65-2.96,10.56-4.54c-23.52-13.94-61.97-41.74-81.47-83.23l-0.13-0.28c-16.81-38.67-10.91-93.58-10.66-95.9
						l4.04-36.04l16.21,32.44c0.5,1.01,45.05,88.54,117.13,127.37c-2.11-3.74-3.73-7.24-4.47-10.12c-1.65-6.41-2.74-12.3-3.36-16.18
						c-8.34-6.3-27.86-22.34-37.5-41.08c-8.65-16.8-11.57-32.04-8.02-41.84c1.58-4.38,4.53-7.67,8.3-9.26
						c2.36-1.01,12.98-6.12,21.73-10.4c2.86-13.18,12.45-44.88,40.49-60.51c1.87-4.26,5-8.02,8.88-10.46
						c2.12-1.33,22.71-15.24,36.05-24.25l6.07-4.1l6.02,4.16c0,0,21.41,14.74,38.05,26.16l0.54,0.36l0.49,0.44
						c3.72,3.29,5.64,7.01,6.63,10.08c8.53,6.98,30.16,27.15,39.13,58.07c19.65,8.74,20.89,9.5,24.15,11.46l0.62,0.37
						c3.8,2.28,6.47,6.4,7.72,11.91c1.53,6.76,2.08,21.14-11.44,41.52c-10.87,16.39-22.85,27.57-29.26,32.95
						c-0.17,6.85-1.49,18.3-7.59,29.46c20.33-11.03,45.33-27.77,64.39-50.78c38.99-47.08,51.43-74.05,51.55-74.32l16.14-35.57
						l4.28,38.8C712.74,288.67,717.86,336.98,705.38,374.92z"/>
				</g>
				<path class="st0" d="M601.56,537.37c-14.82,0-27.12-6.12-34.32-16.94c-3.42,3.18-9.63,8.23-15.47,9.2l-0.28,0.05l-0.28-0.01
					l-101-3.52l-0.69-0.51c-0.21-0.15-4.2-3.08-8.39-6.73c-3.9,7.96-13.92,18.45-33.03,18.45c-18.67,0-27.49-9.32-30.11-12.75
					c-1.3-0.18-3.27-0.6-5.2-1.55c-5.87,1.61-11.24,1.09-15.59-1.51c-4.62-2.76-7.8-7.68-8.96-13.83
					c-1.99-10.61,5.62-16.37,10.65-20.19l0.99-0.75c3.35-2.57,3.46-4.88,3.45-5.26l-1.52-6.7l5.82,3.99
					c0.01,0.01,2.68,1.69,5.51,1.35c0.89-0.12,4.32-1.65,7.35-3c7.17-3.2,17.43-7.78,27.44-9.9c-5.74-2.79-19.47-9.92-35.36-21.4
					c-19.02-13.75-44.71-36.54-59.06-67.07c-16.01-36.82-10.33-89.69-10.08-91.93l1.05-9.4l4.23,8.46
					c0.15,0.3,15.17,30.11,41.77,62.74c23.01,28.23,59.37,64.08,104.78,79.49c-6.71-8.66-17.2-23.01-19.14-30.51
					c-2.16-8.38-3.31-15.77-3.71-18.63c-5.14-3.68-27.61-20.49-37.79-40.28c-7.53-14.62-10.37-27.9-7.61-35.51
					c1.06-2.93,2.73-4.16,3.93-4.67c3.44-1.46,20.74-9.89,25.67-12.3c1.34-8.07,9.06-45.08,39.89-60.33
					c0.95-3.78,3.42-7.26,6.69-9.33c2.94-1.86,35.92-24.16,36.26-24.38l1.58-1.07l1.57,1.08c0,0,21.41,14.75,38.07,26.17l0.27,0.21
					c3.43,3.03,4.5,6.66,4.84,8.66c5.54,4.21,31,25.1,39.49,59.26c22.51,9.99,23.68,10.69,26.71,12.53l0.65,0.39
					c1.88,1.12,3.32,3.56,4.07,6.87c1.01,4.45,2.01,16.8-10.31,35.39c-12.48,18.83-26.36,30.3-30.6,33.57
					c0.24,4.77,0.14,19-8.16,32.07c-5.1,8.03-11,15.77-15.47,21.33c19.62-8.07,64.16-29.29,94.48-65.9
					c39.9-48.18,52.54-75.83,52.67-76.11l4.21-9.36l1.12,10.2c0.22,1.97,5.16,48.61-6.79,84.94
					c-11.49,34.94-56.73,72.65-97.23,95.12c6.59,1.41,19.1,4.76,33.82,12.03c1.8,0.9,3.07,0.19,4.68-0.91
					c0.2-0.14,0.39-0.27,0.55-0.37l2.17-1.38l1.56,2.05c0.15,0.2,3.36,4.44,4.98,8.17c7.17,3.66,15.44,10.04,10.97,23.27
					c-1.89,5.61-5.56,9.94-10.31,12.19c-4.34,2.05-9.4,2.26-14.36,0.63c-1.32,0.4-2.8,0.85-3.66,1.11
					C628.47,527.11,617.88,537.37,601.56,537.37z M568.42,511.13l1.85,3.49c3.4,6.41,11.99,17.16,31.28,17.16
					c15.88,0,25.65-11.55,25.75-11.66l0.54-0.65l0.8-0.24c0,0,3.15-0.95,5.29-1.6l0.91-0.28l0.89,0.34
					c3.87,1.47,7.64,1.42,10.91-0.12c3.37-1.59,6-4.76,7.4-8.92c2.61-7.75,0.06-12.5-9.1-16.94l-1.04-0.5l-0.38-1.09
					c-0.59-1.7-1.97-3.95-3.11-5.66c-2,1.04-4.96,1.91-8.47,0.16c-20.52-10.14-36.85-12.38-37.01-12.4l-4.17-0.55l4.36-7.46
					l0.68-0.37c40.06-21.78,85.5-59.03,96.72-93.13c8.39-25.5,8.08-57.21,7.25-72.88c-6.64,11.82-21.22,35.16-48.84,68.52
					c-40.73,49.19-106.28,71.21-106.93,71.43l-9.81,3.23l6.83-7.74c0.13-0.14,12.58-14.29,21.87-28.92c8.89-14,7.21-29.92,7.2-30.08
					l-0.18-1.63l1.34-0.96c0.16-0.12,16.44-11.9,30.47-33.06c13.46-20.3,10.1-32.97,8.02-34.37l-0.66-0.4
					c-2.79-1.69-3.94-2.39-27.34-12.76l-1.27-0.57l-0.32-1.36c-8.47-36.38-38.33-57.87-38.63-58.08l-1.18-0.84v-1.45
					c0-0.1-0.11-3.27-2.98-5.89c-13.94-9.56-31.14-21.4-36.36-24.99c-6.73,4.55-32.15,21.72-34.82,23.41
					c-2.29,1.44-4.07,4.22-4.43,6.9l-0.21,1.51l-1.39,0.64c-32.34,15.04-38.17,57.68-38.23,58.11l-0.19,1.49l-1.35,0.66
					c-0.94,0.46-23.12,11.32-27.27,13.07c-0.12,0.06-0.56,0.5-0.94,1.66c-1.51,4.64-0.48,15.49,7.41,30.82
					c10.66,20.71,36.75,38.77,37.01,38.95l1.04,0.71l0.15,1.25c0.01,0.09,1.12,9,3.74,19.16c2.08,8.09,17.81,28.33,23.69,35.44
					l5.64,6.82l-8.54-2.34c-50.87-13.96-91.31-53.43-116.27-84.08c-18.42-22.61-31.37-43.9-37.78-55.22
					c-0.9,16.92-1.16,53.21,10.32,79.61c26.48,56.34,93.75,86.7,94.43,87l0.79,0.35l4.68,7.6l-4.4,0.48
					c-10.76,1.16-23.14,6.69-31.34,10.35c-4.91,2.19-7.34,3.25-8.96,3.45c-2.11,0.26-4.07-0.09-5.63-0.58
					c-0.73,1.82-2.16,3.98-4.9,6.09l-1.02,0.77c-4.86,3.68-9.88,7.49-8.53,14.7c0.85,4.56,3.1,8.13,6.33,10.06
					c3.27,1.96,7.38,2.17,12.21,0.64l1.23-0.39l1.1,0.69c1.81,1.13,4.3,1.46,5.04,1.48l1.53,0.05l0.78,1.32
					c0.27,0.44,7.1,11.24,26.15,11.24c19.97,0,27.84-13.27,29.18-18.38l1.2-4.58l3.43,3.26c3.86,3.68,8.51,7.25,10.23,8.54
					l98.97,3.45c5.43-1.07,12.39-7.58,14.64-10.03L568.42,511.13z"/>
				<path class="st0" d="M415.82,314.93c6.74-2.67,13.72-4.73,20.74-6.59c7.03-1.82,14.14-3.37,21.31-4.6
					c14.33-2.51,28.87-3.81,43.44-4.04c7.28-0.02,14.57,0.14,21.84,0.69c1.82,0.11,3.63,0.33,5.44,0.5
					c1.81,0.17,3.63,0.34,5.43,0.59l5.42,0.69l5.39,0.89l2.69,0.45l2.68,0.54c1.78,0.36,3.57,0.7,5.35,1.1
					c3.53,0.89,7.09,1.64,10.57,2.7c7.01,1.91,13.86,4.38,20.58,7.09c-6.99-1.93-13.94-3.91-21.02-5.31
					c-3.51-0.83-7.07-1.39-10.61-2.08l-5.33-0.84l-2.67-0.42l-2.68-0.34c-14.27-1.89-28.65-2.69-43.03-2.51
					c-7.19,0.03-14.38,0.41-21.55,0.94c-7.18,0.5-14.34,1.3-21.48,2.23c-7.14,0.97-14.26,2.12-21.34,3.51
					C429.87,311.47,422.82,313.04,415.82,314.93z"/>
				<path class="st0" d="M438.01,308.94c0,0,2.88-28.27,18.75-43.66c0,0-12.24,22.5-12.11,42.26L438.01,308.94z"/>
				<path class="st0" d="M453.52,305.91c0,0-1.05-19.85,8.63-29.29c0,0-6.6,10.87-4.33,27.92L453.52,305.91z"/>
				<path class="st0" d="M566.5,308.94c0,0-2.88-28.27-18.75-43.66c0,0,12.24,22.5,12.11,42.26L566.5,308.94z"/>
				<path class="st0" d="M550.98,305.91c0,0,1.05-19.85-8.63-29.29c0,0,6.6,10.87,4.33,27.92L550.98,305.91z"/>
				<path class="st0" d="M565.74,344.6c0,0-3.17,16.18-26.26,16.18c-23.08,0-28.72-26.02-28.72-26.02
					c-10.63-2.93-29.51-11.1-31.41-11.5c-1.9-0.39-16.18,0-16.18,0s9.28,7.3,17.45,8.97c8.17,1.67,13.17-3.01,13.17-3.01
					s-2.78,14.04-8.88,18.96c-6.11,4.91-19.52,3.64-27.05-1.11c-7.54-4.76-8.17-22.69-8.17-22.69l-8.17,0.95
					c1.51,11.66-3.8,17.05-4.84,18.48c-1.03,1.43-0.55,6.42,2.94,13.88c3.5,7.46,8.25,8.97,24.2,10.39
					c15.95,1.43,16.81,10.31,16.81,10.31c-1.83-2.54-5.71-3.33-5.71-3.33s0.16,3.64-1.27,9.28c-1.43,5.63-0.23,8.96,4.04,13.32
					c1.35-2.06,0.72-9.04,1.11-11.1c0.4-2.06,2.54-2.14,3.5-1.11c0.95,1.03,0,5.87,0.23,9.12c0.24,3.25,6.75,2.54,7.46,1.28
					c0.72-1.28,0.08-10,0.33-10.79c0.23-0.79,1.03-0.55,1.82-0.23c0.79,0.32,1.83,9.2,2.14,9.99c0.32,0.79,1.58,1.58,5.15,0.95
					c3.57-0.63,3.97-1.19,3.5-3.25c-0.48-2.06-0.72-7.37-0.4-8.16c0.32-0.8,2.3-0.64,3.5-0.08c1.18,0.56,0.55,8.57,1.03,10.31
					c0.48,1.75,6.19,1.83,7.06,0.8c0.87-1.03-0.16-10.63,0.32-11.27c0.48-0.63,2.22-0.07,3.33,0.79c1.11,0.88,0.4,6.43,1.03,9.04
					c0.63,2.62,5.63,2.39,6.66,1.75c1.03-0.63,1.66-7.61,0.63-9.37c1.51-1.11,3.89-0.87,4.44-0.07c-1.27,4.68,1.12,10.87,1.12,10.87
					s4.36-4.29,4.28-8.65c-0.07-4.36-2.46-13.8-2.46-13.8s-1.82,1.91-5.86,3.18c4.91-11.27,27.05-9.37,35.21-12.69
					c8.17-3.33,10.55-20.47,10.55-20.47L565.74,344.6z M510.53,368.63c-4.68,0-5.75-5.07-5.75-5.07s-1.06,5.07-5.74,5.07
					c-4.68,0-6.11-4.36-3.02-9.04c3.09-4.68,3.09-8.25,4.13-11.82c1.03-3.57,3.08-4.36,4.63-4.36c1.56,0,3.61,0.79,4.64,4.36
					c1.03,3.57,1.03,7.14,4.13,11.82C516.64,364.27,515.21,368.63,510.53,368.63z"/>
				<path class="st0" d="M455.5,371.69l-6.6-0.95c0,0-0.95,14.22,2.5,20.46c3.45,6.25,14.04,20.94,21.42,31.77
					c7.38,10.83,15.81,16.78,31.22,16.78c15.42,0,20.53-3.09,27.91-13.21c7.38-10.11,20.46-24.39,24.75-33.91
					c4.28-9.52,3.21-21.89,3.21-21.89l-6.19,0.95c0,0-2.08,13.39-4.82,14.87c-2.74,1.49-3.39,4.22-6.54,10.11
					c-3.15,5.89-7.44,10.59-7.44,10.59s-2.32-3.99-5.35-3.99c0,0-0.65,8.03-1.55,8.92c-0.89,0.89-2.97,1.49-3.09,0.77
					c-0.12-0.71,1.19-6.43,0.42-7.73c-0.77-1.31-6.07-1.43-6.9,0.42c-0.83,1.84,0.3,9.34-0.89,9.64s-3.63,0.83-3.93-0.3
					c-0.3-1.13,0.71-7.5,0.71-9.04c0-1.55-7.14-2.14-8.09,1.01c-0.95,3.15,0.36,8.8-0.12,9.22c-0.48,0.42-3.39,1.43-3.57-0.18
					s-0.12-9.88-1.84-10.77c-1.73-0.89-5.47-0.42-6.07,0.65s1.61,9.04,0.48,9.58c-1.13,0.54-3.21,0.3-3.57-1.61
					c-0.36-1.9-0.06-7.14-1.25-8.15s-4.52-2.2-5.89-0.48c-1.37,1.73-0.06,8.69-0.65,8.8c-0.59,0.12-2.8,0.12-3.09-3.99
					s-2.8-7.91-3.51-7.97c-0.71-0.06-3.15,4.88-3.15,5.53c0,0.65-3.51-3.09-5.71-8.15c-2.2-5.06-5-9.04-7.44-11.54
					C458.42,385.43,456.81,382.93,455.5,371.69z"/>
				<path class="st0" d="M583.77,463.24l-2.14-1.55c0,0-2.8,5.12-2.8,9.88s2.44,10.95,1.01,24.33
					c-1.43,13.39,0.24,23.86,19.28,25.46c19.04,1.61,27.66-15.35,27.66-15.35s5.89-3.21,7.44-5.77c-0.36,4.7-5.24,8.21-5.24,8.21
					l0.59,0.89c0,0,4.64-1.84,6.48-4.16c2.56,5.35,8.09,3.99,8.39-0.42c0.3-4.4-5.18-5.24-7.61-2.62c0.12-4.82-0.89-5.83-0.89-5.83
					s-5.06-1.37-16.6-7.14c-11.54-5.77-29.92-7.91-29.92-7.91s5.65,8.39,4.64,16.36c0,0,15.88,2.2,23.8,4.76
					c4.28-5.59-3.03-13.5-3.03-13.5s9.16,5.29,6.96,14.69c2.62,0.95,2.62,0.95,2.62,0.95s-8.33,14.46-21.83,14.46
					c-13.5,0-15.82-9.94-15.82-9.94l-3.69-1.9c0,0,5.47-1.19,5.83-8.27s0.54-13.5,0-14.46c-0.54-0.95-8.86-9.22-7.73-14.04
					C582.28,465.56,583.77,463.24,583.77,463.24z"/>
				<path class="st0" d="M571.81,483.05c0,0,0.65-6.66-4.16-11.24c0,0-88.76-11.01-138.5-37.9s-81.62-55.45-109.94-99.23
					c0,0-4.52,62.35,91.14,115.65c58.54,31.65,132.42,44.81,160.39,46.4l1.78-8.21c0,0-68.65-8.57-113.39-26.83
					c-44.74-18.26-64.73-33.49-78.77-47.53c47.12,39.26,94.23,48.31,147.78,60.68C560.03,481.27,571.81,483.05,571.81,483.05z"/>
				<path class="st0" d="M424.87,462.31l1.82-0.56c0,0,4.2,3.41,2.78,13.96c-1.43,10.55-0.4,18.96-0.16,28.4
					c0.24,9.44-7.14,17.13-21.5,17.13s-21.65-9.68-26.26-15.23c-4.12-1.35-7.61-5.79-7.61-5.79s0.63,4.84,5.79,8.01
					c-1.9,1.35-1.9,1.35-1.9,1.35s-3.25-0.87-5.08-4.44c-0.87,5.08-8.57,5.55-8.57-0.56c0-6.11,6.9-2.93,6.9-2.93
					s0.79-5.39,2.14-6.03c1.35-0.63,14.2-5.31,20.46-7.93c-6.82,5.24-8.49,12.14-6.35,15.07c-3.01,1.59-3.01,1.59-3.01,1.59
					s7.77,14.44,22.21,14.44c14.44,0,14.44-9.44,14.44-9.44s3.89-0.71,5-2.62c-7.69-0.79-8.49-17.29-4.52-24.03
					C425.42,475.95,429.86,471.11,424.87,462.31z"/>
				<path class="st0" d="M420.35,480.79c0,0-12.69,1.19-24.59,6.35c0,0-10.71,9.36-4.76,15.07c13.77-4.12,23.16-4.92,23.16-4.92
					S412.89,486.82,420.35,480.79z"/>
				<path class="st0" d="M438.11,482.93c0,0,0.16-10.63,4.6-12.22c10.63,4.28,22.29,7.69,22.29,7.69L438.11,482.93z"/>
				<path class="st0" d="M436.61,488.25l1.82,8.49c0,0,34.19-3.65,56.48-9.68l-18.64-5.31
					C476.27,481.74,459.93,484.76,436.61,488.25z"/>
				<path class="st0" d="M511.09,458.98l18.09,3.33c0,0,35.22-8.01,66.31-24.99c31.09-16.97,42.04-30.78,42.04-30.78
					s-11.42,15.07-39.42,32.13s-54.26,25.46-54.26,25.46l19.83,2.78c0,0,47.12-15.79,83.45-51.2
					c36.33-35.42,42.67-67.78,42.83-82.06C689.96,333.65,643.58,424.41,511.09,458.98z"/>
				<path class="st2" d="M550.62,339.35c0,0.92-0.24,1.34-1.22,3.04c-0.98,1.69-1.94,3.21-1.94,3.21l-3-2.5l-1.19,1.19l2.44,2.77
					c0,0-1.3,0.89-2.87,2.2c-1.57,1.3-2.88,1.05-2.88,1.05s-1.3,0.25-2.87-1.05c-1.57-1.31-2.88-2.2-2.88-2.2l2.44-2.77l-1.19-1.19
					l-3,2.5c0,0-0.95-1.52-1.94-3.21c-0.98-1.7-1.21-2.12-1.21-3.04s0.62-2.23,1.9-3.77c1.28-1.55,1.45-2.32,1.45-2.32l2.62,2.2
					l1.19-1.19l-2.26-2.67c0,0,1-0.63,2.46-1.67c1.46-1.03,1.9-1.3,3.29-1.3c1.39,0,1.83,0.28,3.29,1.3
					c1.47,1.03,2.46,1.67,2.46,1.67l-2.26,2.67l1.18,1.19l2.62-2.2c0,0,0.18,0.77,1.46,2.32C550,337.12,550.62,338.43,550.62,339.35
					z"/>
				<path class="st0" d="M501.01,208.91c0,0-28.44,18.69-30.46,20.23c-2.02,1.54-1.18,13.79-1.18,23.43
					c0,9.64-1.43,13.68-1.43,13.68c5.11,8.45,8.44,23.8,8.44,23.8c7.68,2.6,21.37,2.73,24.13,2.73c0.32,0,0.49,0,0.49,0
					s0.17,0,0.49,0c2.76,0,16.46-0.13,24.14-2.73c0,0,3.33-15.35,8.44-23.8c0,0-1.43-4.04-1.43-13.68c0-9.64,0.84-21.89-1.18-23.43
					C529.46,227.6,501.01,208.91,501.01,208.91L501.01,208.91z"/>
				<g>
					<path d="M521.57,288.75l-0.2-0.91c0.52-0.11,1.03-0.23,1.52-0.36c0.11-0.45,0.24-0.97,0.38-1.54l0.9,0.23
						c-0.18,0.69-0.33,1.3-0.45,1.8l-0.06,0.27l-0.27,0.07C522.82,288.47,522.21,288.61,521.57,288.75z"/>
					<path d="M501.51,290.47h-0.99c-0.31,0-0.78,0-1.38-0.01l0.01-0.93c0.59,0.01,1.06,0.01,1.37,0.01h0.99c0.31,0,0.78,0,1.37-0.01
						l0.01,0.93C502.29,290.47,501.82,290.47,501.51,290.47z M506.64,290.36l-0.04-0.93c1.14-0.04,2.4-0.11,3.72-0.19l0.06,0.93
						C509.06,290.25,507.79,290.32,506.64,290.36z M495.38,290.36c-1.15-0.04-2.42-0.11-3.75-0.19l0.06-0.93
						c1.33,0.09,2.58,0.15,3.72,0.19L495.38,290.36z M514.13,289.86l-0.09-0.93c1.3-0.13,2.54-0.28,3.69-0.45l0.13,0.92
						C516.7,289.58,515.45,289.73,514.13,289.86z M487.89,289.86c-1.32-0.13-2.57-0.28-3.74-0.45l0.13-0.92
						c1.15,0.17,2.39,0.32,3.69,0.45L487.89,289.86z"/>
					<path d="M480.46,288.75c-0.63-0.14-1.25-0.29-1.84-0.45l-0.27-0.07l-0.06-0.27c-0.12-0.5-0.27-1.11-0.45-1.8l0.9-0.23
						c0.15,0.58,0.28,1.09,0.38,1.54c0.49,0.13,1,0.25,1.52,0.36L480.46,288.75z"/>
					<path d="M476.84,282.46c-0.33-1.15-0.7-2.39-1.11-3.68l0.89-0.28c0.41,1.3,0.79,2.54,1.12,3.71L476.84,282.46z M474.51,275.14
						c-0.45-1.26-0.91-2.46-1.37-3.58l0.86-0.35c0.47,1.13,0.93,2.35,1.39,3.62L474.51,275.14z M471.57,268.07
						c-0.33-0.68-0.67-1.33-1.02-1.97l-0.09-0.16l0.04-0.18c0.1-0.42,0.21-0.93,0.32-1.56l0.92,0.17c-0.1,0.56-0.2,1.03-0.29,1.43
						c0.33,0.6,0.65,1.22,0.96,1.85L471.57,268.07z M472.27,260.53l-0.93-0.09c0.12-1.2,0.21-2.49,0.27-3.82l0.93,0.04
						C472.48,258.01,472.39,259.31,472.27,260.53z M472.63,252.78h-0.93l0-0.21c0-1.18-0.01-2.4-0.03-3.64l0.93-0.01
						c0.02,1.24,0.03,2.47,0.03,3.66L472.63,252.78z M471.6,245.08c-0.02-1.2-0.05-2.52-0.06-3.86l0.93-0.01
						c0.01,1.33,0.04,2.65,0.06,3.85L471.6,245.08z M472.47,237.37l-0.93-0.01c0.02-1.56,0.07-2.87,0.15-3.88l0.93,0.07
						C472.54,234.54,472.49,235.83,472.47,237.37z M474.01,230.71l-0.52-0.77c0.81-0.55,1.9-1.29,3.21-2.16l0.52,0.77
						C475.91,229.43,474.82,230.16,474.01,230.71z M480.42,226.42l-0.52-0.78l3.22-2.13l0.52,0.78L480.42,226.42z M486.85,222.15
						l-0.51-0.78l3.22-2.13l0.51,0.78L486.85,222.15z M493.29,217.9l-0.51-0.78L496,215l0.51,0.78L493.29,217.9z"/>
					<polygon points="502.31,213.67 501.01,212.82 499.71,213.67 499.2,212.9 501.01,211.7 502.83,212.9 					"/>
					<path d="M525.18,282.49l-0.9-0.25c0.33-1.16,0.7-2.41,1.11-3.71l0.89,0.28C525.88,280.09,525.51,281.33,525.18,282.49z
						 M527.51,275.17l-0.88-0.31c0.45-1.27,0.92-2.49,1.39-3.62l0.86,0.35C528.42,272.71,527.96,273.91,527.51,275.17z
						 M530.45,268.09l-0.84-0.41c0.32-0.65,0.64-1.28,0.98-1.88c-0.09-0.39-0.19-0.85-0.29-1.39l0.92-0.17
						c0.11,0.61,0.22,1.11,0.32,1.52l0.04,0.18l-0.09,0.16C531.13,266.74,530.78,267.41,530.45,268.09z M529.77,260.55
						c-0.12-1.22-0.22-2.52-0.28-3.87l0.93-0.04c0.06,1.33,0.15,2.62,0.27,3.82L529.77,260.55z M530.33,252.81h-0.93v-0.23
						c0-1.18,0.01-2.4,0.03-3.63l0.93,0.01c-0.02,1.23-0.03,2.45-0.03,3.62V252.81z M530.43,245.11l-0.93-0.02
						c0.02-1.2,0.05-2.52,0.06-3.85l0.93,0.01C530.48,242.58,530.45,243.9,530.43,245.11z M529.56,237.39
						c-0.02-1.57-0.07-2.82-0.15-3.82l0.93-0.07c0.08,1.02,0.13,2.29,0.15,3.88L529.56,237.39z M528.04,230.72
						c-0.81-0.55-1.9-1.28-3.2-2.15l0.52-0.77c1.3,0.87,2.4,1.6,3.21,2.16L528.04,230.72z M521.63,226.43l-3.21-2.13l0.52-0.78
						l3.21,2.13L521.63,226.43z M515.2,222.17l-3.22-2.13l0.51-0.78l3.22,2.13L515.2,222.17z M508.76,217.92l-3.22-2.12l0.51-0.78
						l3.22,2.12L508.76,217.92z"/>
				</g>
				<g>
					<g>
						<polygon points="522.49,251.74 522.32,251.74 522.49,251.88 522.49,268.65 517.06,272.81 498.69,272.81 497.62,271.64 
							497.62,272.81 479.31,272.81 479.31,260.98 481.87,260.98 481.87,250.85 479.31,250.85 479.31,242.87 485.96,236.83 
							495.65,236.83 495.65,240 499.01,236.83 518.12,236.83 522.49,241.41 						"/>
					</g>
				</g>
				<g>
					<polygon class="st2" points="494.36,264.24 494.36,269.54 482.58,269.54 482.58,264.24 485.13,264.24 485.13,247.58 
						482.58,247.58 482.58,244.31 487.22,240.09 492.39,240.09 492.39,264.24 					"/>
					<path class="st2" d="M519.22,248.48v-5.77l-2.5-2.62H500.3l-3.27,3.09v22.99l3.09,3.37h15.83l3.27-2.51v-13.62l-3.46-2.86
						h-11.72v-4.52h7.92v2.44H519.22z M512.61,256.64v7.84h-8.57v-7.84H512.61z"/>
				</g>
			</g>
			<g>
				<path class="st0" d="M480.19,520.78h-9.56v-2.89h1.19l0.02-10.77h-1.25v-2.97h9.6l1.66,1.47v5.1l-1.19,1.41l1.19,1.23v5.61
					L480.19,520.78z M478.41,507.21h-3.32v3.65h3.32V507.21z M478.41,513.83h-3.32v4.06h3.32V513.83z"/>
				<path class="st0" d="M488.58,520.78h-4.31v-2.85h0.59l2.48-10.77h-0.72l-0.02-2.93h4.92v2.93h-0.55l2.73,10.77h0.59v2.85h-4.41
					v-2.85h0.76l-0.23-0.94h-2.32l-0.25,0.94h0.72V520.78z M489.87,514.77l-0.64-2.56l-0.66,2.56H489.87z"/>
				<path class="st0" d="M504.74,520.78h-5.52v-2.89h1.09v-10.72h-1.05v1.99h-2.67v-4.86h10.7v4.86h-2.67v-1.99h-1.05v10.72h1.15
					V520.78z"/>
				<path class="st0" d="M517.88,520.78h-5.52v-2.89h1.09v-10.72h-1.05v1.99h-2.67v-4.86h10.7v4.86h-2.67v-1.99h-1.05v10.72h1.15
					V520.78z"/>
				<path class="st0" d="M530.88,516.19h3.12v1.66h3.67v-4.37h-3.59v-3.08h3.51v-3.12h-3.59v1.35h-3.12v-2.82l1.54-1.59h6.95
					l1.37,1.39v4.78l-1.31,1.19l1.23,1.29v6.29l-1.6,1.6h-6.6l-1.58-1.31V516.19z"/>
			</g>
		</g>
		<g>
			<g>
				<g>
					<g>
						<path d="M771.37,537.99v87.59h-0.48v59.55l-65.2-7.36l-30.92-2.75v0.2L617.26,671l-29.83-1.67l-16.79,13.06h-54.05v0.26
							h-101.3l-0.11-12.01l-2.06,0.21l-0.02-0.02c-2.28,0.24-4.63,0.36-7.04,0.36c-3.59,0-7.05-0.34-10.35-1.02l-56.59,3.68
							l-0.07-0.16l-48.59,5.03v-0.38l-61.67,5.59v-61.85l6.07-1.76v-14.18h-6.24l0.17-27.74v-40.38l90.47,6.02l29.94,1.68
							l45.94,1.99c5.01-1.34,9.44-1.68,12.59-1.68c3.91,0,7.7,0.37,11.35,1.11l34.25-26.11h119.4l30.23,25.99v0.51l41.08-1.64v0.17
							l20.43-0.9l0.05,0.1l30.5-2.05L771.37,537.99z"/>
					</g>
				</g>
			</g>
			<g>
				<g>
					<g>
						<g>
							<path class="st0" d="M757.86,552.47v59.6h-0.48v57.93l-65.12-7.35v0.35l-31-2.76v0.43l-43.13-3.16l-35.01-1.96L566,668.88
								h-62.14l-0.78-0.6v0.86h-74.39l-0.12-13.46l-8.92,0.91l-0.46-0.65c-4.01,1.16-8.4,1.73-13.12,1.73
								c-6.94,0-13.02-1.7-18.08-4.96v4.42l-40.21,2.62l-0.22-0.52l-43.57,4.51v-0.19l-61.67,5.59v-36.91l6.07-1.76v-37.84h-6.15
								l0.08-14.13v-26.01l76.14,5.06l30.09,1.69l45.96,1.99v0.94c5.51-2.23,10.53-2.6,13.24-2.6c5.22,0,10.12,0.85,14.62,2.54h6.67
								v-5.53l28.87-22.01h109.82l21.73,18.69v8.37l41.08-1.64v0.23l25.43-1.13l0.14,0.31l39.83-2.67L757.86,552.47z"/>
						</g>
					</g>
				</g>
				<g>
					<g>
						<path d="M735.72,604.62v7.74l14.2,0.4v48.91l-65.12-7.35v0.55l-28.58-2.54l-2.42-5.69v6.03l-35.19-2.57l-37.86-2.12
							l-17.31,13.46h-57.08l-10.75-8.14v8.4h-59.55l-0.13-14.26l-12.7,1.3l-1.26-1.8c-3.71,1.81-8.9,3.29-15.92,3.29
							c-15.8,0-22.6-10.42-25.54-21.35v21.28l-28,1.83l-3.18-7.34v6.92l-31.37,3.24l-6.54,0.68v-0.08l-61.67,5.59v-23.14l5.38-1.56
							c0.16-0.05,0.41-0.12,0.69-0.21v-50.19l-5.91-0.2l-0.16-6.74v-18.49l67.8,4.5l0.41,0.03l30.18,1.7l38.87,1.68v8.22
							c7.11-8.55,16.63-9.56,20.7-9.56c6.24,0,11.09,1.47,14.56,3.15l0.56-0.62h13.64v-9.29l23.93-18.24h25.78v86.45h1.88v-72.74
							l15.34-13.7h61.53L582,556.67v12.71l41.08-1.64v0.27l28.17-1.26l1.32,2.94v-2.59l37.93-2.54v0.01l59.89-4.11v44.16H735.72z"/>
					</g>
				</g>
				<g>
					<g>
						<g>
							<path class="st2" d="M488.17,654.23h-44.7l-0.16-18.3h9.74v-59.06h-9.1v-12.91l19-14.48h15.81v26v26.91v33.54h9.42V654.23z"
								/>
							<path class="st2" d="M574.55,643.35l-13.66,10.62h-52.02l-13.33-10.1v-84.81l10.73-9.58h55.92l12.35,10.62v19.94h-25.36
								v-11.78h-28.61v18.9h41.62l12.35,10.23V643.35z M549.19,635.19v-26.93h-29.26v26.93H549.19z"/>
						</g>
					</g>
					<path class="st0" d="M433.35,577.01h-7.22l-2.62,2.86c0,0-5.08-5.39-15.78-5.39s-21.97,7.77-21.97,33s6.82,35.3,20.31,35.3
						c13.48,0,17.69-6.35,17.69-6.35l3.09,4.44l7.69-0.79v-22.92c0,0,1.75-2.3,5.63-2.3v-7.54h-29.9v8.33c0,0,2.38,0,4.76,0
						s4.12,1.11,4.12,6.03c0,4.92-0.71,12.22-8.01,12.22s-7.85-10.79-7.85-24.91c0-14.12-0.32-25.54,9.68-25.54
						s10.95,12.14,11.03,18.01h9.2L433.35,577.01z"/>
					<path class="st0" d="M355.62,582.4v-7.93l23.96,1.03v7.54c0,0-6.5,0.4-6.5,4.12c0,3.73,0,56,0,56l-15.78,1.03l-21.02-48.62
						c0,0,0,31.57,0,36.25c0,4.68,1.9,5.31,5.63,4.68v8.33l-23,2.38v-8.8c0,0,6.19-0.63,6.19-4.44s0-42.28,0-47.28
						s-6.19-5.39-6.19-5.39v-8.88l23.16,1.03l19.51,44.1c0,0,0-22.77,0-29.35C361.57,581.61,355.62,582.4,355.62,582.4z"/>
					<path class="st0" d="M280.5,579.54v24.93c2.95-0.18,8.07-1.83,8.41-11.04h7.06v30.46l-7.3,0.63c0,0,1.64-10.53-8.16-11.58
						v27.99c0,0,13.56-0.55,17.92-5c4.36-4.44,3.77-17.48,3.77-17.48l8.32,0.11v28.64l-53.3,5.51v-9.27
						c3.69-1.07,6.07-1.91,6.07-5.71v-52.35c0-6.43-6.07-6.43-6.07-6.43v-10.47l53.3,3.92v25.11h-8.57
						C302.4,576.29,280.5,579.54,280.5,579.54z"/>
					<path class="st0" d="M585.89,576.69l29.75-1.19v7.54c0,0-6.11,1.19-6.11,5.31c0,4.12,0,37.28,0,41.72s6.11,4.2,6.11,4.2v8.17
						l-29.75-1.67v-7.22c0,0,6.11,0.16,6.11-4.2c0-4.36,0-36.33,0-41.41c0-5.08-6.11-3.89-6.11-3.89V576.69z"/>
					<path class="st0" d="M622.73,642.91v-7.91c0,0,6.37-0.24,6.37-4.58c0-4.34,0-40.22,0-43.67s-6.37-3.39-6.37-3.39v-7.85
						l23.8-1.07l19.81,44.14c0,0,0-25.05,0-31.05s-6.31-5.35-6.31-5.35v-8.09l23.02-1.55v8.63c0,0-5.71,0.54-5.71,5.89
						c0,5.35,0,59.67,0,59.67l-16-1.43l-20.88-49.02c0,0,0,29.75,0,34.62s5.89,5.18,5.89,5.18v8.57L622.73,642.91z"/>
					<path class="st0" d="M734.54,597.16h8.41v-28.71l-53.15,3.65v8.09c0,0,5.71-0.79,5.71,4.84c0,5.63,0,43.94,0,48.94
						s-5.71,5.24-5.71,5.24v8.17l52.67,5.95V620l-8.41-0.24c0,0,0.63,6.66-1.03,13.56c-1.67,6.9-7.54,8.8-20.23,6.9v-26.81
						c0,0,8.41-1.51,8.41,12.06h7.06v-32.44l-7.3-0.08c0,0,0.63,11.34-8.09,11.34v-24.51c0,0,5.08-0.08,11.34-0.08
						C730.49,579.71,734.62,588.11,734.54,597.16z"/>
				</g>
			</g>
		</g>
	</g>
	<g>
		<path class="st0" d="M297.55,705.99h4.22V703h4.28v6.93h-14.57v-3.94h1.65v-14.62h-1.65v-4h7.63v4h-1.57V705.99z"/>
		<path class="st0" d="M326.07,710.02h-6.63l-2.4-2.46v-16.22h-1.23v-3.89h6.07v3.89h-1.03v14.62h3.86v-14.62h-1.09v-3.89h6.07v3.89
			h-1.17v16.21L326.07,710.02z"/>
		<path class="st0" d="M352.3,709.94h-13.03v-3.94h1.62l0.03-14.68h-1.71v-4.05h13.09l2.26,2.01v6.95l-1.62,1.93l1.62,1.68v7.65
			L352.3,709.94z M349.86,691.43h-4.53v4.98h4.53V691.43z M349.86,700.46h-4.53v5.54h4.53V700.46z"/>
		<path class="st0" d="M377.24,709.94h-13.03v-3.94h1.62l0.03-14.68h-1.71v-4.05h13.09l2.26,2.01v6.95l-1.62,1.93l1.62,1.68v7.65
			L377.24,709.94z M374.81,691.43h-4.53v4.98h4.53V691.43z M374.81,700.46h-4.53v5.54h4.53V700.46z"/>
		<path class="st0" d="M390.85,709.94l-1.82-1.81v-18.57l2.15-2.18h9.28l2.12,2.09v18.38l-2.07,2.09H390.85z M398.18,691.43h-4.73
			v14.6h4.73V691.43z"/>
		<path class="st0" d="M421.78,702.02h4.42v5.87l-2.04,2.04h-9.7l-2.12-2.12v-18.63l1.87-1.81h9.95l2.04,2v4.34h-4.42v-2.29h-5.09
			v14.57h5.09V702.02z"/>
		<path class="st0" d="M444.23,691.37v-4h7.24v4h-1.17l-4.84,6.41l4.73,8.21h1.29v3.94h-7.24v-3.94h1.23l-2.46-4.78l-1.09,1.54v3.24
			h1.59v3.94h-7.61l-0.03-3.94h1.62v-14.62h-1.62v-4h7.63v4h-1.59v4.53l3.5-4.53H444.23z"/>
		<path class="st0" d="M485.64,709.94h-7.66v-3.94h1.59v-14.57h-1.59v-4.05h14.79v6.52h-4.31v-2.46h-4.47v5.17h3.47v3.97h-3.47v5.42
			h1.65V709.94z"/>
		<path class="st0" d="M509.91,705.99v3.94h-7.63v-3.94h1.62v-14.62h-1.62v-4h7.63v4h-1.59v9.19v5.43H509.91z"/>
		<path class="st0" d="M527.25,709.94h-7.63v-3.94h1.59v-14.57h-1.59v-4.05h12.35l2.13,2.52v8.39l-2.38,2.29h-1.4l3.05,5.42h0.84
			v3.94h-6.32v-3.94h0.92l-2.8-5.26h-0.2v5.26h1.43V709.94z M529.43,691.43h-3.61v5.09h3.61V691.43z"/>
		<path class="st0" d="M558.14,709.94h-14.71v-3.94h1.59v-14.62h-1.71v-4h14.82v6.46h-4.28v-2.46h-4.42v5.23h3.38v3.97h-3.38v5.42
			h4.42V703h4.28V709.94z"/>
		<path class="st0" d="M577.27,700.35h-8.5v-3.89h8.5V700.35z"/>
		<path class="st0" d="M594.8,709.94h-7.63v-3.94h1.59v-14.57h-1.59v-4.05h12.35l2.13,2.52v8.39l-2.38,2.29h-1.4l3.05,5.42h0.84
			v3.94h-6.32v-3.94h0.92l-2.8-5.26h-0.2v5.26h1.43V709.94z M596.98,691.43h-3.61v5.09h3.61V691.43z"/>
		<path class="st0" d="M625.69,709.94h-14.71v-3.94h1.59v-14.62h-1.71v-4h14.82v6.46h-4.28v-2.46H617v5.23h3.38v3.97H617v5.42h4.42
			V703h4.28V709.94z"/>
		<path class="st0" d="M635.15,703.28h4.42v2.74h5.09v-5.45h-7.39l-2.12-2.07v-9.13l2.07-1.99h9.62l2.32,2.3v4.35h-4.5v-2.6h-5.09
			v5.09H647l2.07,2.07v9.23l-2.15,2.13h-9.34l-2.43-2.4V703.28z"/>
		<path class="st0" d="M667.94,702.02h4.42v5.87l-2.04,2.04h-9.7l-2.13-2.12v-18.63l1.87-1.81h9.95l2.04,2v4.34h-4.42v-2.29h-5.09
			v14.57h5.09V702.02z"/>
		<path class="st0" d="M692.44,710.02h-6.63l-2.4-2.46v-16.22h-1.23v-3.89h6.07v3.89h-1.03v14.62h3.86v-14.62h-1.09v-3.89h6.07v3.89
			h-1.17v16.21L692.44,710.02z"/>
		<path class="st0" d="M720.23,709.94h-14.71v-3.94h1.59v-14.62h-1.71v-4h14.82v6.46h-4.28v-2.46h-4.42v5.23h3.38v3.97h-3.38v5.42
			h4.42V703h4.28V709.94z"/>
	</g>
	<g>
		<g>
			<path class="st3" d="M478.54,936.65c-0.88-0.81-1.74-1.67-2.56-2.56l2.69-2.58l2.45,2.45L478.54,936.65z"/>
			<g>
				<path d="M581.69,936.02c-5,5.71-6.19,12.01-5.71,20.7l-30.58-25.57l-4.06,4.06l-2.48,2.48l24.63,29.27
					c0,0-10.35-0.79-16.62,4.45c-6.27,5.24-18.25,16.74-36.33,16.74c-18.09,0-30.07-11.5-36.33-16.74
					c-6.26-5.24-16.62-4.45-16.62-4.45l24.62-29.27l-2.4-2.4l-2.45-2.45l-1.69-1.69l-30.58,25.57c0.48-8.69-0.71-14.99-5.7-20.7
					c-5-5.71-15.47-17.37-15.47-32.72c0-15.34,6.91-23.43,15.47-31.64c8.57-8.21,9.16-22.61,9.16-22.61l27.02,24.4
					c1.94-2.36,4.1-4.51,6.47-6.43c-2.03-2.55-7.7-9.67-23.5-29.51c9.88,0.23,14.51-3.22,24.04-11.54
					c9.52-8.33,27.96-9.88,27.96-9.88s18.44,1.55,27.96,9.88c9.52,8.32,14.16,11.77,24.03,11.54
					c-15.82,19.87-21.47,26.97-23.49,29.52c2.37,1.92,4.53,4.07,6.46,6.43l27.03-24.41c0,0,0.6,14.4,9.16,22.61
					c8.57,8.21,15.46,16.3,15.46,31.64C597.15,918.64,586.68,930.3,581.69,936.02z"/>
				<path class="st0" d="M510.54,990c-17.39,0-29.5-10.33-36-15.88c-0.54-0.46-1.05-0.9-1.53-1.3c-5.59-4.68-15.19-4.03-15.28-4.02
					l-4.41,0.33l26.37-31.34l-4.13-4.13l-32.57,27.24l0.24-4.29c0.5-9.04-0.97-14.47-5.25-19.37l-0.3-0.34
					c-5.07-5.8-15.63-17.86-15.63-33.61c0-16.26,7.59-24.88,16.05-32.99c7.91-7.58,8.58-21.21,8.59-21.34l0.17-3.96l28.54,25.77
					c1.27-1.42,2.63-2.77,4.05-4.02l-24.85-31.21l3.99,0.09c9.02,0.2,13.18-2.7,22.77-11.08c9.86-8.63,28.25-10.27,29.03-10.33
					l0.16-0.01l0.16,0.01c0.78,0.07,19.16,1.7,29.03,10.33c9.58,8.38,13.73,11.26,22.76,11.08l3.98-0.09l-11.06,13.89
					c-7.71,9.68-11.71,14.71-13.79,17.33c1.43,1.26,2.78,2.6,4.05,4.02L574.22,845l0.17,3.96c0.01,0.14,0.68,13.76,8.59,21.34
					c8.45,8.1,16.04,16.72,16.04,32.99c0,15.76-10.56,27.82-15.63,33.62l-0.29,0.33c-4.28,4.89-5.75,10.32-5.26,19.37l0.23,4.28
					l-32.56-27.23l-4.13,4.13l26.39,31.36l-4.43-0.34c-0.09-0.01-9.69-0.66-15.28,4.02c-0.48,0.4-1,0.84-1.54,1.31
					C540.01,979.68,527.91,990,510.54,990z M461.56,965.13c3.85,0.27,9.62,1.31,13.84,4.84c0.48,0.41,1,0.85,1.56,1.32
					c6.57,5.6,17.56,14.99,33.58,14.99c16,0,26.99-9.37,33.56-14.97c0.56-0.48,1.08-0.92,1.57-1.33c4.22-3.53,9.99-4.57,13.84-4.84
					l-23.19-27.55l8.96-8.96l28.74,24.04c0.13-7.69,2.05-13.05,6.26-17.87l0.29-0.33c5.14-5.87,14.71-16.8,14.71-31.16
					c0-14.82-6.74-22.49-14.89-30.3c-6.32-6.06-8.55-15.08-9.33-20.13l-25.78,23.28l-1.24-1.52c-1.84-2.25-3.93-4.33-6.19-6.16
					l-1.43-1.16l1.14-1.44c1.6-2.02,5.49-6.9,14.92-18.75l6.26-7.86c-8.35-0.75-13.42-4.84-21.48-11.89
					c-8.51-7.44-24.95-9.24-26.73-9.41c-1.78,0.17-18.25,1.98-26.73,9.41c-8.28,7.24-13.18,11.18-21.48,11.89l22.32,28.03
					l-1.43,1.16c-2.26,1.83-4.34,3.91-6.2,6.17l-1.24,1.51l-25.76-23.26c-0.78,5.05-3.01,14.07-9.33,20.13
					c-8.15,7.81-14.9,15.49-14.9,30.3c0,14.35,9.57,25.28,14.71,31.15l0.3,0.34c4.21,4.82,6.13,10.17,6.25,17.86l28.74-24.04
					l8.96,8.96L461.56,965.13z"/>
			</g>
			<g>
				<path class="st0" d="M495.82,848.23l2.85-0.79l-1.17-4.12l2.89-0.8l1.91,6.78l-9.83,2.72l-0.74-2.66l1.11-0.31l-2.73-9.87
					l-1.11,0.31l-0.75-2.7l5.15-1.42l0.75,2.7l-1.06,0.29L495.82,848.23z"/>
				<path class="st0" d="M510.67,848.75l-5.36,0.01l0-2.76l1.12,0l-0.02-10.2l-1.12,0l0-2.84l10.35-0.02l0.01,4.56l-3.01,0.01
					l0-1.72l-3.13,0l0.01,3.62l3.21,0.05l0.01,2.78l-3.22-0.05l0.01,3.8l1.16,0L510.67,848.75z"/>
				<path class="st0" d="M523.7,850.57l-5.13-1.49l0.77-2.65l1.07,0.31l2.85-9.79l-1.07-0.31l0.79-2.72l8.3,2.42l0.94,2.11
					l-1.64,5.64l-2.05,1.07l-0.94-0.27l0.99,4.24l0.56,0.16l-0.77,2.65l-4.25-1.24l0.77-2.65l0.62,0.18l-0.85-4.08l-0.13-0.04
					l-1.03,3.53l0.96,0.28L523.7,850.57z M528.79,838.55l-2.42-0.71l-1,3.42l2.42,0.71L528.79,838.55z"/>
			</g>
			<g>
				<g>
					<path class="st0" d="M484.33,965.76l-0.71-1.56l3.7-9.67l1.58-0.72l5.11,1.96l0.69,1.52l-3.82,9.98l-1.19,0.54l0.13,1.44
						l-2.15-0.82l-0.13-1.44L484.33,965.76z M492.06,957.49l-2.78-1.07l-2.95,7.71l0.93,0.36l0.05-0.97l2.02-0.18l-0.07,1.47
						L492.06,957.49z"/>
					<path class="st0" d="M501.14,970.16l-3.72-0.51l-1.16-1.57l1.25-9.1l-0.69-0.09l0.3-2.18l3.41,0.47l-0.3,2.18l-0.58-0.08
						l-1.12,8.21l2.17,0.3l1.13-8.21l-0.61-0.08l0.3-2.18l3.41,0.47l-0.3,2.18l-0.66-0.09l-1.25,9.1L501.14,970.16z"/>
					<path class="st0" d="M511.8,968.38l-0.02,2.23l-4.33-0.03l0.02-2.23l0.92,0.01l0.07-8.29l-0.92-0.01l0.02-2.27l4.33,0.04
						l-0.02,2.27l-0.9-0.01l-0.04,5.21l-0.02,3.08L511.8,968.38z"/>
					<path class="st0" d="M520.22,970.05l-4.17,0.51l-0.28-2.28l0.94-0.12l-1.01-8.19l-0.94,0.12l-0.27-2.22l3.66-0.45l2.5,5.2
						l-0.4-3.25l-0.9,0.11l-0.27-2.17l4.34-0.54l0.27,2.22l-0.9,0.11l1.01,8.19l0.9-0.11l0.28,2.28l-3.43,0.42l-2.91-6.23l0.52,4.21
						l0.77-0.09L520.22,970.05z"/>
					<path class="st0" d="M535.28,966.75L531.2,968l-0.66-2.13l0.8-0.25l-2.44-7.92l-0.77,0.24l0.45,1.47l-1.97,0.61l-1.1-3.59
						l7.9-2.43l1.1,3.59l-1.97,0.61l-0.45-1.47l-0.77,0.24l2.44,7.92l0.85-0.26L535.28,966.75z"/>
				</g>
			</g>
		</g>
		<path class="st0" d="M510.92,950.02c-26.37,0-47.83-21.46-47.83-47.83c0-26.37,21.46-47.83,47.83-47.83
			c26.37,0,47.83,21.46,47.83,47.83C558.75,928.56,537.29,950.02,510.92,950.02z M510.92,858.09c-24.32,0-44.1,19.78-44.1,44.1
			c0,24.32,19.78,44.1,44.1,44.1c24.32,0,44.1-19.78,44.1-44.1C555.02,877.87,535.24,858.09,510.92,858.09z"/>
		<g>
			<g>
				<g>
					<g>
						<path d="M637.61,868.9v42.42h-0.23v28.84l-31.57-3.57l-14.98-1.33v0.09l-27.85-2.04l-14.45-0.81l-8.13,6.32h-26.17v0.13
							h-49.06l-0.05-5.82l-1,0.1l-0.01-0.01c-1.11,0.12-2.24,0.18-3.41,0.18c-1.74,0-3.41-0.16-5.01-0.49l-27.41,1.78l-0.04-0.08
							l-23.53,2.44v-0.19l-29.87,2.71v-29.95l2.94-0.85v-6.87h-3.02l0.08-13.43v-19.55l43.81,2.92l14.5,0.81l22.25,0.96
							c2.43-0.65,4.57-0.81,6.1-0.81c1.89,0,3.73,0.18,5.5,0.54l16.59-12.64h57.82l14.64,12.59v0.25l19.9-0.79v0.08l9.89-0.44
							l0.02,0.05l14.77-0.99L637.61,868.9z"/>
					</g>
				</g>
			</g>
			<g>
				<g>
					<g>
						<g>
							<path class="st0" d="M631.06,875.91v28.86h-0.23v28.06l-31.54-3.56v0.17l-15.01-1.34v0.21l-20.89-1.53l-16.95-0.95
								l-8.29,6.45h-30.09l-0.38-0.29v0.42h-36.03l-0.06-6.52l-4.32,0.44l-0.22-0.32c-1.94,0.56-4.07,0.84-6.36,0.84
								c-3.36,0-6.31-0.82-8.76-2.4v2.14l-19.47,1.27l-0.11-0.25l-21.1,2.18v-0.09l-29.87,2.71v-17.87l2.94-0.85v-18.33h-2.98
								l0.04-6.84v-12.6l36.87,2.45l14.57,0.82l22.26,0.96v0.46c2.67-1.08,5.1-1.26,6.41-1.26c2.53,0,4.9,0.41,7.08,1.23h3.23v-2.68
								l13.98-10.66h53.18l10.53,9.05v4.05l19.9-0.79v0.11l12.31-0.55l0.07,0.15l19.29-1.3L631.06,875.91z"/>
						</g>
					</g>
				</g>
				<g>
					<g>
						<path d="M620.34,901.16v3.75l6.88,0.19v23.69l-31.54-3.56v0.27l-13.84-1.23l-1.17-2.76v2.92l-17.04-1.25l-18.33-1.02
							l-8.38,6.52h-27.64l-5.2-3.94v4.07h-28.84l-0.06-6.91l-6.15,0.63l-0.61-0.87c-1.8,0.88-4.31,1.59-7.71,1.59
							c-7.65,0-10.95-5.05-12.37-10.34v10.3l-13.56,0.88l-1.54-3.55v3.35l-15.19,1.57l-3.17,0.33v-0.04L385,928.46v-11.21l2.6-0.75
							c0.08-0.02,0.2-0.06,0.33-0.1V892.1l-2.86-0.1l-0.08-3.26v-8.95l32.84,2.18l0.2,0.01l14.61,0.82l18.83,0.81v3.98
							c3.44-4.14,8.05-4.63,10.02-4.63c3.02,0,5.37,0.71,7.05,1.53l0.27-0.3h6.6v-4.5l11.59-8.83h12.48v41.86h0.91v-35.23l7.43-6.63
							h29.8l8.26,7.1v6.16l19.9-0.79v0.13l13.64-0.61l0.64,1.42V883l18.37-1.23v0l29-1.99v21.39H620.34z"/>
					</g>
				</g>
				<g>
					<g>
						<g>
							<path class="st2" d="M500.46,925.19h-21.65l-0.08-8.86h4.72v-28.6h-4.41v-6.25l9.2-7.01h7.65v12.59v13.03v16.24h4.56V925.19z
								"/>
							<path class="st2" d="M542.29,919.92l-6.61,5.14h-25.19l-6.46-4.89V879.1l5.2-4.64h27.08l5.98,5.14v9.66h-12.28v-5.71h-13.86
								v9.15h20.15l5.98,4.95V919.92z M530.01,915.97v-13.04h-14.17v13.04H530.01z"/>
						</g>
					</g>
					<path class="st0" d="M473.91,887.79h-3.5l-1.27,1.38c0,0-2.46-2.61-7.64-2.61s-10.64,3.76-10.64,15.98s3.3,17.09,9.83,17.09
						s8.57-3.07,8.57-3.07l1.5,2.15l3.73-0.38v-11.1c0,0,0.85-1.11,2.73-1.11v-3.65h-14.48v4.03c0,0,1.15,0,2.3,0s2,0.54,2,2.92
						c0,2.38-0.35,5.92-3.88,5.92c-3.53,0-3.8-5.22-3.8-12.06c0-6.84-0.15-12.37,4.69-12.37c4.84,0,5.3,5.88,5.34,8.72h4.46
						L473.91,887.79z"/>
					<path class="st0" d="M436.27,890.41v-3.84l11.6,0.5v3.65c0,0-3.15,0.19-3.15,2s0,27.12,0,27.12l-7.64,0.5l-10.18-23.55
						c0,0,0,15.29,0,17.55c0,2.27,0.92,2.57,2.73,2.27v4.03l-11.14,1.15v-4.26c0,0,3-0.31,3-2.15c0-1.84,0-20.47,0-22.89
						s-3-2.61-3-2.61v-4.3l11.22,0.5l9.45,21.36c0,0,0-11.02,0-14.21C439.15,890.02,436.27,890.41,436.27,890.41z"/>
					<path class="st0" d="M399.89,889.02v12.07c1.43-0.09,3.91-0.88,4.07-5.35h3.42v14.75l-3.53,0.31c0,0,0.79-5.1-3.95-5.61v13.55
						c0,0,6.57-0.27,8.68-2.42c2.11-2.15,1.83-8.47,1.83-8.47l4.03,0.05v13.87l-25.81,2.67v-4.49c1.79-0.52,2.94-0.93,2.94-2.77
						v-25.35c0-3.11-2.94-3.11-2.94-3.11v-5.07l25.81,1.9v12.16h-4.15C410.49,887.45,399.89,889.02,399.89,889.02z"/>
					<path class="st0" d="M547.78,887.64l14.41-0.58v3.65c0,0-2.96,0.58-2.96,2.57s0,18.05,0,20.21c0,2.15,2.96,2.04,2.96,2.04v3.96
						l-14.41-0.81v-3.5c0,0,2.96,0.08,2.96-2.04s0-17.59,0-20.05c0-2.46-2.96-1.88-2.96-1.88V887.64z"/>
					<path class="st0" d="M565.62,919.71v-3.83c0,0,3.08-0.12,3.08-2.22s0-19.48,0-21.15c0-1.67-3.08-1.64-3.08-1.64v-3.8
						l11.52-0.52l9.59,21.38c0,0,0-12.13,0-15.04s-3.05-2.59-3.05-2.59v-3.92l11.15-0.75v4.18c0,0-2.77,0.26-2.77,2.85
						s0,28.9,0,28.9l-7.75-0.69l-10.11-23.74c0,0,0,14.41,0,16.77c0,2.36,2.85,2.51,2.85,2.51v4.15L565.62,919.71z"/>
					<path class="st0" d="M619.77,897.55h4.07v-13.91l-25.74,1.77v3.92c0,0,2.77-0.38,2.77,2.34s0,21.28,0,23.7
						c0,2.42-2.77,2.54-2.77,2.54v3.96l25.51,2.88v-16.13l-4.07-0.12c0,0,0.31,3.23-0.5,6.57c-0.81,3.34-3.65,4.26-9.8,3.34v-12.98
						c0,0,4.07-0.73,4.07,5.84h3.42v-15.71l-3.53-0.04c0,0,0.31,5.49-3.92,5.49v-11.87c0,0,2.46-0.04,5.49-0.04
						S619.81,893.17,619.77,897.55z"/>
				</g>
			</g>
		</g>
	</g>
</g>
</svg>
