<?xml version="1.0" encoding="utf-8"?>
<!-- Generator: Adobe Illustrator 24.1.2, SVG Export Plug-In . SVG Version: 6.00 Build 0)  -->
<svg version="1.1" id="Layer_1" xmlns="http://www.w3.org/2000/svg" xmlns:xlink="http://www.w3.org/1999/xlink" x="0px" y="0px"
	 viewBox="0 0 1000 1000" style="enable-background:new 0 0 1000 1000;" xml:space="preserve">
<g>
	<path d="M951.49,309.27c-24.68-58.35-60.01-110.75-105.01-155.75c-45-45-97.4-80.33-155.75-105.01C630.32,22.96,566.15,10,500,10
		c-66.15,0-130.32,12.96-190.73,38.51c-58.35,24.68-110.75,60.01-155.75,105.01c-45,45-80.33,97.4-105.01,155.75
		C22.96,369.68,10,433.85,10,500c0,66.15,12.96,130.32,38.51,190.73c24.68,58.35,60.01,110.75,105.01,155.75
		c45,45,97.4,80.33,155.75,105.01C369.68,977.04,433.85,990,500,990c66.15,0,130.32-12.96,190.73-38.51
		c58.35-24.68,110.75-60.01,155.75-105.01c45-45,80.33-97.4,105.01-155.75C977.04,630.32,990,566.15,990,500
		C990,433.85,977.04,369.68,951.49,309.27z M966.16,627.74c-0.12-0.61-0.25-1.22-0.38-1.87v-0.01c0-0.15-0.02-0.27-0.06-0.41
		c-0.06-0.19-0.1-0.39-0.16-0.58c-4.66-21.86-16.55-65.07-42.78-100.1c-2.02-2.7-4.12-5.35-6.32-7.93
		c-4.87-5.77-10.19-11.23-15.98-16.23c-3.73-3.07-5.35-5.42-5.29-7.55c0.11-2.93,3.49-6.58,10.94-11.84
		c2.04-1.44,5.49-4.88,9.69-9.9c1.91-2.26,3.97-4.84,6.13-7.71c16.59-21.94,39.2-60.31,42.58-97.1
		C976.75,408.91,983.3,453.7,983.3,500C983.3,544.2,977.32,587.03,966.16,627.74z M572.97,932.23c-7.27-4.5-13.31-8.55-18.36-12.22
		c-2.83-2.06-5.34-4-7.59-5.84c-12.34-10.09-16.67-17.22-20.02-24.04c-4.91-9.99-9.98-15.78-21.38-15.78
		c-9.15,0-12.19,6.03-16.04,13.68c-0.88,1.74-1.79,3.54-2.84,5.44c-2.06,3.7-9.38,12.05-21.24,21.91c-2.36,1.97-4.91,3.99-7.62,6.03
		c-18.47,14.02-45.02,29.7-77.86,39.31c15.38-8.84,35.5-24.68,52.82-42.55c1.89-1.96,3.75-3.92,5.56-5.92
		c4.57-5.01,8.86-10.12,12.72-15.25c14.2-18.86,24.36-32.17,32.61-40.51c0.03-0.04,0.07-0.08,0.1-0.11
		c4.89-4.6,10.54-8.91,15.76-10.48c0.08-0.02,0.15-0.04,0.22-0.06c0.96-0.19,1.93-0.29,2.89-0.29c2.83,0,5.29,0,7.8,0.42
		c0.03,0,0.06,0,0.09,0.01c2.16,0.46,4.25,1.14,6.32,2.06c7.92,3.8,18.77,13.41,41.29,37.68c7.31,7.89,15.23,15.68,23.24,23.11
		c2.03,1.89,4.07,3.75,6.1,5.59c22.56,20.35,44.82,37.36,55.44,45.21C628.86,956.28,597.97,947.73,572.97,932.23z M441.09,592.28
		c4.02,2.58,8.23,4.89,12.59,6.94l-0.44,2.31c-0.35,1.6-0.7,3.19-1.11,4.79c-0.79,3.2-1.72,6.38-2.7,9.56
		c-1.99,6.35-4.19,12.65-6.59,18.9c-4.76,12.5-10.16,24.8-15.89,36.94c-1.39,3.05-2.91,6.05-4.36,9.08l-2.2,4.53l-2.2,4.62
		c-2.87,6.19-5.55,12.48-7.82,18.91c-4.62,12.84-8.06,26.1-10.16,39.58c-4.26,26.94-3.17,54.7,3.35,81.14l1.26,4.95l1.43,4.9
		c0.45,1.64,0.99,3.25,1.53,4.87c0.54,1.61,1.05,3.24,1.63,4.83c1.19,3.18,2.32,6.39,3.66,9.52c0.66,1.56,1.26,3.16,1.98,4.7
		l2.11,4.64c5.74,12.32,12.74,24.02,20.57,35.09c0.01,0.01,0.02,0.01,0.02,0.02l1.96,2.72c-1.71,1.97-3.45,3.92-5.23,5.84
		c-76.72-12.19-148.84-45.63-208.03-97.17L441.09,592.28z M500,609.51c14.45,0,28.26-2.82,40.9-7.93
		c10.16,23.05,20.41,46.05,30.83,68.99l8.14,17.95c2.7,5.98,5.48,11.99,8,17.88c4.89,11.94,8.67,24.36,11.07,37.08
		c0.67,3.17,1.09,6.38,1.62,9.57c0.38,3.21,0.86,6.42,1.1,9.65c0.63,6.45,0.87,12.93,0.84,19.41c0.01,6.48-0.36,12.96-0.99,19.42
		c-0.61,6.46-1.6,12.88-2.88,19.24c-0.6,3.19-1.39,6.34-2.14,9.5c-0.86,3.13-1.68,6.27-2.68,9.36c-1.96,6.18-4.17,12.3-6.81,18.23
		c-4.45,9.97-9.91,19.54-16.57,28.2c-0.36-0.53-1.15-1.68-2.32-3.3c0.14-0.21,0.27-0.42,0.41-0.64c0.67-1.15,1.28-2.32,1.78-3.55
		c1.01-2.43,1.74-4.98,2.14-7.57c0.91-5.17,0.68-10.44-0.08-15.55c-0.24-1.27-0.44-2.55-0.71-3.82l-0.5-1.88l6.68,1.85
		c0.01,0,0.02,0.01,0.04,0.02c0.01,0,0.02,0.01,0.03,0.01l3.26,0.89c1.06,0.29,2.19-0.23,2.64-1.25
		c0.64-1.44,15.58-35.64,8.87-63.63c-1.49-6.21-4.39-12.01-8.28-17.41c15.04-14.79,6.24-43.56-0.37-54.81
		c-1.58-2.69-3.62-5.62-5.97-5.62c-0.34,0-0.69,0.07-1.05,0.2c-0.13,0.06-0.26,0.11-0.37,0.19c0.14-2.21,0.02-4.01-0.36-5.38
		c0.55-2.65,1.09-11.35-9.56-26.89c-1.5-2.2-3.1-4.94-4.88-8.38c0,0,0,0,0,0c-0.01-0.02-0.02-0.04-0.03-0.05
		c-0.96-1.87-1.96-3.93-2.97-6.11c0-0.01-0.01-0.02-0.01-0.02c0-0.01-0.01-0.03-0.02-0.05c-0.01-0.01-0.01-0.03-0.02-0.04
		l-0.01-0.01c-1.91-4.1-3.74-8.38-5.28-12.04c0-0.01,0-0.02-0.01-0.03l-0.01-0.01c0,0,0,0,0-0.01c-1.2-2.88-2.39-5.74-3.53-8.5
		c0-0.01-0.01-0.01-0.01-0.02v-0.01c0-0.01-0.01-0.02-0.02-0.02c-7.26-17.5-10.72-24.88-14.71-24.88c-0.35,0-0.7,0.06-1.06,0.17
		c-8.16,2.54-38.79,8.62-71.45,3.36c-1.02-0.16-2,0.38-2.41,1.31c-0.04,0.1-1.88,4.32-4.75,10.61c-0.2,0.24-0.35,0.52-0.43,0.84
		c-0.01,0.05-0.01,0.1-0.02,0.14c-2.03,4.43-4.51,9.77-7.2,15.38c-0.22,0.27-0.38,0.59-0.46,0.95c-2.14,4.43-4.4,9-6.66,13.39
		c-2.42,4.7-4.11,8.97-5.28,12.77c0,0.01-0.01,0.02-0.01,0.02c0,0,0,0.01-0.01,0.02c-0.12,0.26-0.18,0.48-0.2,0.68
		c0,0,0,0.01,0,0.01c-2.6,8.74-2.43,14.83-2.14,17.51c-2.32,1.78-4.32,3.94-6.08,6.59v0.01c0,0-0.01,0.01-0.01,0.01
		c-5.75,3.33-9.06,9.29-12.49,22.37c-0.12,0.47-0.24,0.95-0.36,1.43c-0.01,0.02-0.01,0.03-0.02,0.05c0,0.01,0,0.01,0,0.02
		c0,0.01,0,0.03-0.01,0.05c0,0,0,0,0,0c0,0,0,0,0,0c0,0.01-0.01,0.03-0.01,0.04c-0.79,3.21-1.46,6.6-2,10.12c0,0,0,0,0,0.01
		c0,0.01,0,0.02-0.01,0.03c-0.02,0.07-0.03,0.13-0.04,0.2c0,0,0,0,0,0v0c-0.01,0.05-0.01,0.11-0.02,0.17
		c-4.61,29.64-1.65,68.58,1.31,86.2c0,0.01,0.01,0.02,0.01,0.03c0.38,2.29,0.76,4.23,1.12,5.8c0.07,0.27,0.19,0.54,0.35,0.76
		c2.65,3.81,8.2,7.59,10.41,9c0,0,0.01,0,0.01,0.01c0.57,4.29,1.38,8.58,2.75,12.68c1.44,4.45,3.18,8.8,5.38,12.91
		c2.15,4.13,4.54,8.14,7.27,11.89c2.17,3.02,4.48,5.86,7.05,8.6c0,0,0,0,0,0.01c-4.68,9.65-7.42,14.08-8.77,15.99
		c-7.17-10.57-13.57-21.67-18.82-33.3l-2.02-4.59c-0.69-1.53-1.26-3.1-1.89-4.65c-1.29-3.09-2.35-6.26-3.49-9.4
		c-0.55-1.58-1.02-3.18-1.54-4.77c-0.51-1.59-1.02-3.18-1.44-4.8l-1.35-4.83l-1.17-4.87c-6.09-26.02-6.82-53.21-2.33-79.48
		c2.22-13.14,5.73-26.06,10.39-38.54c2.29-6.26,4.98-12.36,7.85-18.36l2.2-4.48l2.27-4.54c1.5-3.03,3.06-6.03,4.5-9.1
		c5.92-12.17,11.52-24.52,16.51-37.16c2.51-6.31,4.84-12.71,6.95-19.21c1.04-3.26,2.04-6.53,2.91-9.87
		c0.45-1.66,0.85-3.35,1.24-5.05l0.2-0.99C472.35,606.82,485.87,609.51,500,609.51z M439.48,678.83
		C439.49,678.83,439.49,678.83,439.48,678.83c1.02-0.79,6.7-4.02,34.69-9.46c37.93-7.39,55.72-23.51,59.72-36.14
		c0.32-1.03-0.13-2.15-1.08-2.65c-0.34-0.18-0.69-0.26-1.04-0.26c-0.67,0-1.33,0.3-1.77,0.86c-13.22,16.96-32.7,27.33-57.88,30.81
		c-14.95,2.07-23.18,3.46-27.58,4.31c0,0,0,0,0,0c0.07-0.13,0.13-0.26,0.2-0.4c2.14-4.15,4.27-8.44,6.3-12.64
		c2.45,0.16,4.86,0.27,7.29,0.32c2.96,0.06,5.92,0.04,8.88-0.06c5.92-0.23,11.86-0.77,17.7-2.2c0.68-0.17,1.11-0.84,0.98-1.53
		c-0.14-0.72-0.83-1.19-1.54-1.05l-0.02,0c-5.6,1.06-11.39,1.29-17.15,1.21c-2.89-0.05-5.77-0.19-8.66-0.4
		c-1.82-0.13-3.65-0.31-5.47-0.5c2.04-4.29,3.94-8.36,5.57-11.92c4.48,1.06,8.89,1.81,13.38,2.41c5.1,0.67,10.23,1.13,15.36,1.31
		c5.13,0.19,10.27,0.2,15.4-0.12c5.13-0.23,10.23-0.87,15.31-1.59c0.7-0.1,1.19-0.74,1.11-1.44c-0.08-0.72-0.73-1.23-1.44-1.15
		l-0.04,0c-5.01,0.56-10.02,1.03-15.06,1.11c-5.03,0.16-10.07,0-15.08-0.34c-5.02-0.33-10.02-0.93-14.97-1.73
		c-4.07-0.67-8.17-1.49-12.11-2.52c1.44-3.18,2.56-5.69,3.22-7.2c32.3,4.83,62.46-0.98,71.33-3.63c2.28,1.76,7.19,13.43,10.37,21.11
		c0,0,0,0,0,0c-2.35,4.38-14.76,24.92-46.17,36.53c-15.39,5.69-28.45,6.85-38.95,7.78c-9.1,0.8-16.55,1.45-22.84,4.54
		c0,0,0,0-0.01,0C437.38,689.43,437.71,684.87,439.48,678.83z M563.01,680.42c10.09,14.73,9.09,22.35,8.85,23.54
		c0,0,0,0.01-0.01,0.01c0,0.01,0,0.02-0.01,0.03c-4.48,8.3-15.09,20.3-28.25,33.22c-5.5-3.08-10.93-5.87-15.98-8.35
		c-3.43-1.69-6.44-3.65-8.94-5.84c6.73-5.42,28.06-23.71,41.19-47.74c0,0,0,0,0,0C560.96,677.25,562,678.95,563.01,680.42z
		 M569.53,844.64c-0.51-1.4-1.05-2.79-1.69-4.12c-1-2.41-2.28-4.63-3.48-6.92l-1.99-3.3l-1-1.65l-1.08-1.59
		c-3.73-5.53-7.87-10.73-12.27-15.68c0,0,0,0,0,0c11.61-10.02,22.08-20.16,28.13-26.18c3.45,3.1,11.95,12.72,8.96,30.53
		c-2.97,17.68-6.45,27.41-7.91,31.03c0,0,0,0,0,0L569.53,844.64z M448.7,718.46c-1.21-2.09-2.32-4.24-3.28-6.45
		c-0.98-2.2-1.79-4.46-2.39-6.77c-0.27-1.05-0.5-2.11-0.68-3.18c1.51-0.19,3.13-0.37,4.88-0.56c7.14-0.78,16.48-1.81,28.54-4.34
		c0-0.01,0,0,0.01,0c-9.92,7.23-18.75,15.15-26.25,22.68C449.25,719.39,448.96,718.93,448.7,718.46z M449.2,729.96
		c4.83,7.98,10.5,15.39,16.72,22.27c0.09,0.1,0.18,0.19,0.27,0.29c-1.24,1.52-2.5,3.02-3.81,4.49c-3.32,3.75-6.74,7.51-10.36,11.48
		c-2.34,2.56-4.68,5.13-7.02,7.71c-6-8.31-10.85-16.46-14.68-23.7C433.63,748,440.17,739.58,449.2,729.96z M482.1,802.7
		c8.1-5.86,15.78-11.59,23.02-17.19c0,0,0,0,0.01,0l1.36,0.91l6.05,4.21c6.96,4.98,13.7,10.27,20.12,15.9
		c-10.9,9.15-21.87,17.06-29.79,19.72c-10.31-4.98-19.51-11.04-27.68-17.72C477.33,806.45,479.63,804.49,482.1,802.7z
		 M538.53,801.49c-0.01,0.01-0.01,0.01-0.02,0.02c-6.54-6.38-13.43-12.38-20.57-18.05l-5.13-3.97
		c12.14-9.63,22.93-18.85,32.35-27.65c1.75,1.01,3.45,2.02,5.07,3.02c9.55,5.89,15.32,12.33,18.74,17.51
		C563.1,778.4,551.25,790.3,538.53,801.49z M496.69,727.81c5.35,2.36,22.01,9.82,37.79,18.15c-9.78,9.14-20.39,18.43-30.67,26.94
		c-3.33-2.36-6.63-4.71-9.91-7.14c-5.57-4.1-10.94-8.48-16.09-13.1C488.95,739.32,494.55,731.14,496.69,727.81z M472.41,759.06
		C472.41,759.06,472.41,759.05,472.41,759.06c4.98,4.99,10.2,9.72,15.64,14.21c2.56,2.1,5.21,4.11,7.9,6.04c0,0-0.01,0.01-0.01,0.01
		c-7.46,6-14.57,11.44-20.84,15.96c-2.84,2.03-5.43,4.17-7.82,6.37c-5.96-5.56-11.27-11.4-16.01-17.26
		c4.87-6.28,10.45-13.13,16.55-20.06C469.43,762.5,470.96,760.74,472.41,759.06z M567.28,877.37c-0.31,0.93-0.71,1.82-1.13,2.69
		c-8.95-11.93-30.09-37.25-52.56-43.54c8.87-4.7,19.19-12.39,29.08-20.61c4.56,4.61,8.84,9.47,12.7,14.63l1.1,1.45l1.02,1.5
		l2.03,3.01c1.21,2.08,2.54,4.11,3.56,6.28c1.15,2.12,2.01,4.34,2.89,6.56l1.08,3.39c0.31,1.15,0.55,2.33,0.84,3.5
		c0.99,4.69,1.47,9.52,0.91,14.23C568.58,872.83,568.05,875.15,567.28,877.37z M553.93,743.4c8.25-8.2,15.2-16,20.84-23.35
		c1.26-1.65,2.5-3.33,3.68-4.98c2.76,3.43,8.47,15.33,9.61,28.08c0.64,7.2-0.03,16.86-6.44,23.49
		C574.27,757.74,564.33,750.01,553.93,743.4z M512.16,714.82c-0.98-1.96-1.61-3.98-1.89-6.05c-0.65-4.85,0.93-9.34,4.32-12.34
		c0.93-0.82,1.02-2.21,0.21-3.14c-0.45-0.51-1.06-0.77-1.69-0.77c-0.51,0-1.04,0.18-1.45,0.54c-10.93,9.39-19.2,21.79-27.96,34.91
		c-4.05,6.08-8.19,12.29-12.69,18.34c-6.45-6.4-12.56-13.18-17.73-20.61c11.61-11.81,26.6-24.73,43.74-34.14
		c32.11-10.73,48.23-27.81,53.89-35.03c1.06,2.47,2.2,5.08,3.39,7.65C551.7,669.53,537.6,696.61,512.16,714.82z M429.64,705.13
		C429.64,705.13,429.65,705.13,429.64,705.13c2.45-1.33,5.51-2.06,9.5-2.65c0.23,3.79,1.09,7.51,2.26,11.06
		c1.14,3.54,2.64,6.93,4.32,10.21c-8.4,8.8-14.81,16.77-18.8,22.03c0,0,0,0,0,0c-4.94-10.21-7.54-17.75-8.27-19.99v-0.01
		c0,0,0,0,0,0c0.07-0.26,0.13-0.53,0.2-0.78C422.02,712.92,424.84,707.72,429.64,705.13z M415.21,747.13
		c5.07,14.39,13.11,27.68,21.27,38.75c-7.93,9.3-15.04,18.67-19.78,27.97v0.01c0,0,0,0,0,0
		C414.58,797.07,413.01,770.47,415.21,747.13C415.21,747.13,415.21,747.13,415.21,747.13z M429.56,836.13
		c-0.01-0.04-0.01-0.08-0.02-0.11c-1.03-7.74-0.65-15.41,1.13-22.83c0.97-1.52,5.56-8.59,12.75-18.4
		c4.54,5.52,8.86,10.22,12.45,13.9c0.84,0.86,1.68,1.71,2.51,2.55c-16.82,21.38-17.87,45.02-17.87,50.52c0,1.45,0.04,2.79,0.11,4.03
		c-0.9-1.56-1.78-3.14-2.59-4.75c-1.03-1.95-1.89-3.98-2.81-5.97c-0.43-1.01-0.81-2.04-1.22-3.06l-0.6-1.53l-0.51-1.56l-1.05-3.12
		l-0.85-3.18l-0.43-1.59l-0.33-1.61l-0.68-3.22L429.56,836.13z M466.51,818.91c8.78,7.88,17.31,14.15,24.28,17.91
		c-22.01,6.28-33.83,28.07-40.87,42.51c-0.42-0.52-0.83-1.04-1.23-1.56l-1.33-1.77C447.86,869.99,451.08,841.18,466.51,818.91z
		 M569.06,892.19C569.06,892.19,569.06,892.19,569.06,892.19c8.74-9.77,15.75-20.99,21.39-32.79c2.86-6,5.3-12.2,7.41-18.49
		c1.09-3.14,2-6.34,2.94-9.53c0.83-3.22,1.7-6.43,2.38-9.68c5.76-25.96,6.31-53.07,1.67-79.33c-2.27-13.14-5.98-26.04-10.87-38.47
		c-2.54-6.24-5.25-12.16-7.9-18.18l-7.99-18.01c-10.2-23.01-20.56-45.95-31.02-68.85c4.12-1.97,8.09-4.18,11.91-6.63L778.95,809.7
		c-55.16,49.74-121.86,83.36-193.45,98.3C579.93,902.88,574.4,897.59,569.06,892.19z M500,602.8c-14.53,0-28.36-3.04-40.9-8.49
		c-0.26-0.16-0.55-0.29-0.85-0.37c-35.94-16.04-61.06-52.11-61.06-93.94c0-14.53,3.04-28.36,8.49-40.9
		c0.16-0.26,0.29-0.55,0.37-0.85c16.04-35.94,52.11-61.06,93.94-61.06c14.53,0,28.35,3.03,40.89,8.49c0.26,0.16,0.55,0.29,0.86,0.38
		c35.94,16.04,61.06,52.11,61.06,93.94c0,14.53-3.03,28.35-8.49,40.89c-0.16,0.26-0.29,0.55-0.38,0.86
		C577.9,577.69,541.83,602.8,500,602.8z M67.77,572.97c4.5-7.27,8.55-13.31,12.22-18.36c2.06-2.83,4-5.34,5.84-7.59
		c10.09-12.34,17.22-16.67,24.04-20.02c9.99-4.91,15.78-9.98,15.78-21.38c0-9.15-6.03-12.19-13.68-16.04
		c-1.74-0.88-3.54-1.79-5.44-2.84c-3.7-2.06-12.05-9.38-21.91-21.24c-1.97-2.36-3.99-4.91-6.03-7.62
		c-14.02-18.47-29.7-45.02-39.31-77.86c8.84,15.38,24.68,35.5,42.55,52.82c1.96,1.89,3.92,3.75,5.92,5.56
		c5.01,4.57,10.12,8.86,15.25,12.72c18.86,14.2,32.17,24.36,40.51,32.61c0.04,0.03,0.08,0.07,0.11,0.1
		c4.6,4.89,8.91,10.54,10.48,15.76c0.02,0.08,0.04,0.15,0.06,0.22c0.19,0.96,0.29,1.93,0.29,2.89c0,2.83,0,5.29-0.42,7.8
		c0,0.03,0,0.06-0.01,0.09c-0.46,2.16-1.14,4.25-2.06,6.32c-3.8,7.92-13.41,18.77-37.68,41.29c-7.89,7.31-15.68,15.23-23.11,23.24
		c-1.89,2.03-3.75,4.07-5.59,6.1c-20.35,22.56-37.36,44.82-45.21,55.44C43.72,628.86,52.27,597.97,67.77,572.97z M185.53,226.43
		l222.19,214.66c-2.58,4.02-4.89,8.23-6.94,12.59l-2.31-0.44c-1.6-0.35-3.19-0.7-4.79-1.11c-3.2-0.79-6.38-1.72-9.56-2.7
		c-6.35-1.99-12.65-4.19-18.9-6.59c-12.5-4.76-24.8-10.16-36.94-15.89c-3.05-1.39-6.05-2.91-9.08-4.36l-4.53-2.2l-4.62-2.2
		c-6.19-2.87-12.48-5.55-18.91-7.82c-12.84-4.62-26.1-8.06-39.58-10.16c-26.94-4.26-54.7-3.17-81.14,3.35l-4.95,1.26l-4.9,1.43
		c-1.64,0.45-3.25,0.99-4.87,1.53c-1.61,0.54-3.24,1.05-4.83,1.63c-3.18,1.19-6.39,2.32-9.52,3.66c-1.56,0.66-3.16,1.26-4.7,1.98
		l-4.64,2.11c-12.32,5.74-24.02,12.74-35.09,20.57c-0.01,0.01-0.01,0.02-0.02,0.02l-2.72,1.96c-1.97-1.71-3.92-3.45-5.84-5.23
		C100.55,357.74,133.98,285.62,185.53,226.43z M321.17,439.48C321.17,439.49,321.17,439.49,321.17,439.48
		c0.79,1.02,4.02,6.7,9.46,34.69c7.39,37.93,23.51,55.72,36.14,59.72c1.03,0.32,2.15-0.13,2.65-1.08c0.18-0.34,0.26-0.69,0.26-1.04
		c0-0.67-0.3-1.33-0.86-1.77c-16.96-13.22-27.33-32.7-30.81-57.88c-2.07-14.95-3.46-23.18-4.31-27.58c0,0,0,0,0,0
		c0.13,0.07,0.26,0.13,0.4,0.2c4.15,2.14,8.44,4.27,12.64,6.3c-0.16,2.45-0.27,4.86-0.32,7.29c-0.06,2.96-0.04,5.92,0.06,8.88
		c0.23,5.92,0.77,11.86,2.2,17.7c0.17,0.68,0.84,1.11,1.53,0.98c0.72-0.14,1.19-0.83,1.05-1.54l0-0.02
		c-1.06-5.6-1.29-11.39-1.21-17.15c0.05-2.89,0.19-5.77,0.4-8.66c0.13-1.82,0.31-3.65,0.5-5.47c4.29,2.04,8.36,3.94,11.92,5.57
		c-1.06,4.48-1.81,8.89-2.41,13.38c-0.67,5.1-1.13,10.23-1.31,15.36c-0.19,5.13-0.2,10.27,0.12,15.4
		c0.23,5.13,0.87,10.23,1.59,15.31c0.1,0.7,0.74,1.19,1.44,1.11c0.72-0.08,1.23-0.73,1.15-1.44l0-0.04
		c-0.56-5.01-1.03-10.02-1.11-15.06c-0.16-5.03,0-10.07,0.34-15.08c0.33-5.02,0.93-10.02,1.73-14.97c0.67-4.07,1.49-8.17,2.52-12.11
		c3.18,1.44,5.69,2.56,7.2,3.22c-4.83,32.3,0.98,62.46,3.63,71.33c-1.76,2.28-13.43,7.19-21.11,10.37c0,0,0,0,0,0
		c-4.38-2.35-24.92-14.76-36.53-46.17c-5.69-15.39-6.85-28.45-7.78-38.95c-0.8-9.1-1.45-16.55-4.54-22.84c0,0,0,0,0-0.01
		C310.57,437.38,315.13,437.71,321.17,439.48z M297.93,442.36c0.19,1.51,0.37,3.13,0.56,4.88c0.78,7.14,1.81,16.48,4.34,28.54
		c0.01,0,0,0,0,0.01c-7.23-9.92-15.15-18.75-22.68-26.25c0.47-0.28,0.92-0.57,1.4-0.83c2.09-1.21,4.24-2.32,6.45-3.28
		c2.2-0.98,4.46-1.79,6.77-2.39C295.8,442.77,296.87,442.54,297.93,442.36z M159.48,567.85c2.41-1,4.63-2.28,6.92-3.48l3.3-1.99
		l1.65-1l1.59-1.08c5.53-3.73,10.73-7.87,15.68-12.27c0,0,0,0,0,0c10.02,11.61,20.16,22.08,26.18,28.13
		c-3.1,3.45-12.72,11.95-30.53,8.96c-17.68-2.97-27.41-6.45-31.03-7.91c0,0,0,0,0,0l2.13-7.66
		C156.76,569.03,158.15,568.49,159.48,567.85z M191.46,475.19c2.09,2.13,4.05,4.44,5.83,6.91c5.86,8.1,11.59,15.78,17.19,23.02
		c0,0,0,0,0,0.01l-0.91,1.36l-4.21,6.05c-4.98,6.96-10.27,13.7-15.9,20.12c-9.15-10.9-17.06-21.87-19.72-29.79
		C178.72,492.56,184.78,483.36,191.46,475.19z M247.33,477.82c13.35,11.13,21.52,16.73,24.85,18.88
		c-2.36,5.35-9.82,22.01-18.15,37.79c-9.14-9.78-18.43-20.39-26.94-30.67c2.36-3.33,4.71-6.63,7.14-9.91
		C238.33,488.33,242.71,482.97,247.33,477.82z M198.51,538.53c-0.01-0.01-0.01-0.01-0.02-0.02c6.38-6.54,12.38-13.43,18.05-20.57
		l3.97-5.13c9.63,12.14,18.85,22.93,27.65,32.35c-1.01,1.75-2.02,3.45-3.02,5.07c-5.89,9.55-12.33,15.32-17.51,18.74
		C221.6,563.1,209.7,551.25,198.51,538.53z M240.95,472.42c-4.99,4.97-9.73,10.2-14.22,15.64c-2.1,2.56-4.11,5.21-6.04,7.9
		c0,0-0.01-0.01-0.01-0.01c-6-7.46-11.44-14.57-15.96-20.84c-2.03-2.84-4.17-5.43-6.37-7.82c5.56-5.96,11.4-11.27,17.26-16.01
		c6.28,4.87,13.13,10.45,20.06,16.55C237.5,469.43,239.25,470.96,240.95,472.42C240.94,472.41,240.95,472.41,240.95,472.42z
		 M247.78,465.92c-0.1,0.09-0.19,0.18-0.29,0.27c-1.52-1.24-3.02-2.5-4.49-3.81c-3.75-3.32-7.51-6.74-11.48-10.36
		c-2.56-2.34-5.13-4.68-7.71-7.02c8.31-6,16.46-10.85,23.7-14.68c4.49,3.31,12.91,9.85,22.53,18.88
		C262.07,454.03,254.66,459.7,247.78,465.92z M163.48,513.59c4.7,8.87,12.39,19.19,20.61,29.08c-4.61,4.56-9.47,8.84-14.63,12.7
		l-1.45,1.1l-1.5,1.02l-3.01,2.03c-2.08,1.21-4.11,2.54-6.28,3.56c-2.12,1.16-4.34,2.01-6.56,2.89l-3.39,1.08
		c-1.15,0.31-2.34,0.55-3.5,0.84c-4.69,0.99-9.51,1.47-14.23,0.91c-2.37-0.22-4.69-0.75-6.91-1.53c-0.93-0.31-1.82-0.71-2.69-1.13
		C131.87,557.19,157.19,536.06,163.48,513.59z M256.6,553.93c8.2,8.25,16,15.2,23.35,20.84c1.65,1.26,3.33,2.5,4.98,3.68
		c-3.43,2.76-15.33,8.47-28.08,9.61c-7.2,0.64-16.86-0.03-23.49-6.44C242.26,574.27,249.99,564.33,256.6,553.93z M296.03,571.86
		c0,0-0.01,0-0.01-0.01c-0.01,0-0.02,0-0.03-0.01c-8.3-4.48-20.3-15.09-33.22-28.25c3.08-5.5,5.87-10.93,8.35-15.98
		c1.69-3.43,3.65-6.44,5.84-8.94c5.42,6.73,23.71,28.06,47.74,41.19c0,0,0,0,0,0c-1.95,1.1-3.64,2.14-5.12,3.15
		C304.85,573.1,297.23,572.11,296.03,571.86z M335.81,554.3c-5.34-2.6-32.42-16.7-50.63-42.14c1.96-0.98,3.98-1.61,6.05-1.89
		c4.85-0.65,9.34,0.93,12.34,4.32c0.82,0.93,2.21,1.02,3.14,0.21c0.51-0.45,0.77-1.06,0.77-1.69c0-0.51-0.18-1.04-0.54-1.45
		c-9.39-10.93-21.79-19.2-34.91-27.96c-6.08-4.05-12.29-8.19-18.34-12.69c6.4-6.45,13.18-12.56,20.61-17.73
		c11.81,11.61,24.73,26.6,34.14,43.74c10.73,32.11,27.81,48.23,35.03,53.89C340.99,551.97,338.39,553.11,335.81,554.3z
		 M294.87,429.64C294.87,429.65,294.87,429.65,294.87,429.64c1.33,2.45,2.06,5.51,2.65,9.5c-3.79,0.23-7.51,1.09-11.06,2.26
		c-3.54,1.14-6.93,2.64-10.21,4.32c-8.8-8.4-16.77-14.81-22.03-18.8c0,0,0,0,0,0c10.21-4.94,17.75-7.54,19.99-8.27h0.01c0,0,0,0,0,0
		c0.26,0.07,0.53,0.13,0.78,0.2C287.08,422.02,292.28,424.84,294.87,429.64z M252.87,415.21c-14.39,5.07-27.68,13.11-38.75,21.27
		c-9.3-7.93-18.67-15.04-27.97-19.78h-0.01c0,0,0,0,0,0C202.93,414.58,229.53,413.01,252.87,415.21
		C252.87,415.21,252.87,415.21,252.87,415.21z M163.84,429.57l0.03-0.01c0.04-0.01,0.08-0.01,0.11-0.02
		c7.74-1.03,15.41-0.65,22.83,1.13c1.52,0.97,8.59,5.56,18.4,12.75c-5.52,4.54-10.22,8.86-13.9,12.45
		c-0.86,0.84-1.71,1.68-2.55,2.51c-21.38-16.82-45.02-17.87-50.52-17.87c-1.45,0-2.79,0.04-4.03,0.11c1.56-0.9,3.14-1.78,4.75-2.59
		c1.95-1.03,3.98-1.89,5.97-2.81c1.01-0.43,2.04-0.81,3.06-1.22l1.53-0.6l1.56-0.51l3.12-1.05l3.18-0.85l1.59-0.43l1.61-0.33
		L163.84,429.57z M122.22,448.69l1.77-1.33c6.01,0.5,34.83,3.72,57.1,19.15c-7.88,8.78-14.15,17.31-17.91,24.28
		c-6.28-22.01-28.07-33.83-42.51-40.87C121.18,449.5,121.7,449.09,122.22,448.69z M117.28,568.1c0.21,0.14,0.42,0.27,0.64,0.41
		c1.15,0.67,2.32,1.28,3.55,1.78c2.43,1.01,4.98,1.74,7.57,2.14c5.17,0.91,10.44,0.68,15.55-0.08c1.27-0.24,2.55-0.44,3.82-0.71
		l1.88-0.5l-1.85,6.68c0,0.01-0.01,0.02-0.01,0.04c0,0.01-0.01,0.02-0.01,0.03l-0.89,3.26c-0.29,1.06,0.23,2.19,1.25,2.64
		c1.44,0.64,35.64,15.58,63.63,8.87c6.21-1.49,12.01-4.39,17.41-8.28c14.79,15.04,43.56,6.24,54.81-0.37
		c2.69-1.58,5.62-3.62,5.62-5.97c0-0.34-0.07-0.69-0.2-1.05c-0.06-0.13-0.11-0.26-0.19-0.37c2.21,0.14,4.01,0.02,5.38-0.36
		c2.65,0.55,11.35,1.09,26.89-9.56c2.2-1.5,4.94-3.1,8.38-4.88c0,0,0,0,0,0c0.02-0.01,0.04-0.02,0.05-0.03
		c1.87-0.96,3.93-1.96,6.11-2.97c0.01,0,0.02-0.01,0.02-0.01c0.01,0,0.03-0.01,0.05-0.02c0.01-0.01,0.03-0.01,0.04-0.02l0.01-0.01
		c4.1-1.91,8.38-3.74,12.04-5.28c0.01,0,0.02,0,0.03-0.01l0.01-0.01c0,0,0,0,0.01,0c2.88-1.2,5.74-2.39,8.5-3.53
		c0.01,0,0.01-0.01,0.02-0.01h0.01c0.01,0,0.02-0.01,0.02-0.02c17.5-7.26,24.88-10.72,24.88-14.71c0-0.35-0.06-0.7-0.17-1.06
		c-2.54-8.16-8.62-38.79-3.36-71.45c0.16-1.02-0.38-2-1.31-2.41c-0.1-0.04-4.32-1.88-10.61-4.75c-0.24-0.2-0.52-0.35-0.84-0.43
		c-0.05-0.01-0.1-0.01-0.14-0.02c-4.43-2.03-9.77-4.51-15.38-7.2c-0.27-0.22-0.59-0.38-0.95-0.46c-4.43-2.14-9-4.4-13.39-6.66
		c-4.7-2.42-8.97-4.11-12.77-5.28c-0.01,0-0.02-0.01-0.02-0.01c0,0-0.01,0-0.02-0.01c-0.26-0.12-0.48-0.18-0.68-0.2
		c0,0-0.01,0-0.01,0c-8.74-2.6-14.83-2.43-17.51-2.14c-1.78-2.32-3.94-4.32-6.59-6.08h-0.01c0,0-0.01-0.01-0.01-0.01
		c-3.33-5.75-9.29-9.06-22.37-12.49c-0.47-0.12-0.95-0.24-1.43-0.36c-0.02-0.01-0.03-0.01-0.05-0.02c-0.01,0-0.01,0-0.02,0
		c-0.01,0-0.03,0-0.05-0.01c0,0,0,0,0,0c0,0,0,0,0,0c-0.01,0-0.03-0.01-0.04-0.01c-3.21-0.79-6.6-1.46-10.12-2c0,0,0,0-0.01,0
		c-0.01,0-0.02,0-0.03-0.01c-0.07-0.02-0.13-0.03-0.2-0.04c0,0,0,0,0,0h0c-0.05-0.01-0.11-0.01-0.17-0.02
		c-29.64-4.61-68.58-1.65-86.2,1.31c-0.01,0-0.02,0.01-0.03,0.01c-2.29,0.38-4.23,0.76-5.8,1.12c-0.27,0.07-0.54,0.19-0.76,0.35
		c-3.81,2.65-7.59,8.2-9,10.41c0,0,0,0.01-0.01,0.01c-4.29,0.57-8.58,1.38-12.68,2.75c-4.45,1.44-8.8,3.18-12.91,5.38
		c-4.13,2.15-8.14,4.54-11.89,7.27c-3.02,2.17-5.86,4.48-8.6,7.04c0,0,0,0-0.01,0c-9.65-4.68-14.08-7.42-15.99-8.77
		c10.57-7.17,21.67-13.57,33.3-18.82l4.59-2.02c1.53-0.69,3.1-1.26,4.65-1.89c3.09-1.29,6.26-2.35,9.4-3.49
		c1.58-0.55,3.18-1.02,4.77-1.54c1.59-0.51,3.18-1.02,4.8-1.44l4.83-1.35l4.87-1.17c26.02-6.09,53.21-6.82,79.48-2.33
		c13.14,2.22,26.06,5.73,38.54,10.39c6.26,2.29,12.36,4.98,18.36,7.85l4.48,2.2l4.54,2.27c3.03,1.5,6.03,3.06,9.1,4.5
		c12.17,5.92,24.52,11.52,37.16,16.51c6.31,2.51,12.71,4.84,19.21,6.95c3.26,1.04,6.53,2.04,9.87,2.91
		c1.66,0.45,3.35,0.85,5.05,1.24l0.99,0.2c-4.9,12.41-7.59,25.93-7.59,40.06c0,14.45,2.82,28.26,7.93,40.9
		c-23.05,10.16-46.05,20.41-68.99,30.83l-17.95,8.14c-5.98,2.7-11.99,5.48-17.88,8c-11.94,4.89-24.36,8.67-37.08,11.07
		c-3.17,0.67-6.38,1.09-9.57,1.62c-3.21,0.38-6.42,0.86-9.65,1.1c-6.45,0.63-12.93,0.87-19.41,0.84
		c-6.48,0.01-12.96-0.36-19.42-0.99c-6.46-0.61-12.88-1.6-19.24-2.88c-3.19-0.6-6.34-1.39-9.5-2.14c-3.13-0.86-6.27-1.68-9.36-2.68
		c-6.18-1.96-12.3-4.17-18.23-6.81c-9.97-4.45-19.54-9.91-28.2-16.57C114.51,570.05,115.66,569.27,117.28,568.1z M107.81,569.06
		C107.81,569.06,107.81,569.06,107.81,569.06c9.77,8.74,20.99,15.75,32.79,21.39c6,2.86,12.2,5.3,18.49,7.41
		c3.14,1.09,6.34,2,9.53,2.94c3.22,0.83,6.43,1.7,9.68,2.38c25.96,5.76,53.07,6.31,79.33,1.67c13.14-2.27,26.04-5.98,38.47-10.87
		c6.24-2.54,12.16-5.25,18.18-7.9l18.01-7.99c23.01-10.2,45.95-20.56,68.85-31.02c1.97,4.12,4.18,8.09,6.63,11.91L190.3,778.95
		C140.56,723.79,106.94,657.09,92,585.5C97.12,579.93,102.41,574.4,107.81,569.06z M427.03,67.77c7.27,4.5,13.31,8.55,18.36,12.22
		c2.83,2.06,5.34,4,7.59,5.84c12.34,10.09,16.67,17.22,20.02,24.04c4.91,9.99,9.98,15.78,21.38,15.78c9.15,0,12.19-6.03,16.04-13.68
		c0.88-1.74,1.79-3.54,2.84-5.44c2.06-3.7,9.38-12.05,21.24-21.91c2.36-1.97,4.91-3.99,7.62-6.03
		c18.47-14.02,45.02-29.7,77.86-39.31c-15.38,8.84-35.5,24.68-52.82,42.55c-1.89,1.96-3.75,3.92-5.56,5.92
		c-4.57,5.01-8.86,10.12-12.72,15.25c-14.2,18.86-24.36,32.17-32.61,40.51c-0.03,0.04-0.07,0.08-0.1,0.11
		c-4.89,4.6-10.54,8.91-15.76,10.48c-0.08,0.02-0.15,0.04-0.22,0.06c-0.96,0.19-1.93,0.29-2.89,0.29c-2.83,0-5.29,0-7.8-0.42
		c-0.03,0-0.06,0-0.09-0.01c-2.16-0.46-4.25-1.14-6.32-2.06c-7.92-3.8-18.77-13.41-41.29-37.68c-7.31-7.89-15.23-15.68-23.24-23.11
		c-2.03-1.89-4.07-3.75-6.1-5.59c-22.56-20.35-44.82-37.36-55.44-45.21C371.14,43.72,402.03,52.27,427.03,67.77z M558.91,407.72
		c-4.02-2.58-8.23-4.89-12.59-6.94l0.44-2.31c0.35-1.6,0.7-3.19,1.11-4.79c0.79-3.2,1.72-6.38,2.7-9.56
		c1.99-6.35,4.19-12.65,6.59-18.9c4.76-12.5,10.16-24.8,15.89-36.94c1.39-3.05,2.91-6.05,4.36-9.08l2.2-4.53l2.2-4.62
		c2.87-6.19,5.55-12.48,7.82-18.91c4.62-12.84,8.06-26.1,10.16-39.58c4.26-26.94,3.17-54.7-3.35-81.14l-1.26-4.95l-1.43-4.9
		c-0.45-1.64-0.99-3.25-1.53-4.87c-0.54-1.61-1.05-3.24-1.63-4.83c-1.19-3.18-2.32-6.39-3.66-9.52c-0.66-1.56-1.26-3.16-1.98-4.7
		l-2.11-4.64c-5.74-12.32-12.74-24.02-20.57-35.09c-0.01-0.01-0.02-0.01-0.02-0.02l-1.96-2.72c1.71-1.97,3.45-3.92,5.23-5.84
		c76.72,12.19,148.84,45.63,208.03,97.17L558.91,407.72z M500,390.49c-14.45,0-28.26,2.82-40.9,7.93
		c-10.16-23.05-20.41-46.05-30.83-68.99l-8.14-17.95c-2.7-5.98-5.48-11.99-8-17.88c-4.89-11.94-8.67-24.36-11.07-37.08
		c-0.67-3.17-1.09-6.38-1.62-9.57c-0.38-3.21-0.86-6.42-1.1-9.65c-0.63-6.45-0.87-12.93-0.84-19.41
		c-0.01-6.48,0.36-12.96,0.99-19.42c0.61-6.46,1.6-12.88,2.88-19.24c0.6-3.19,1.39-6.34,2.14-9.5c0.86-3.13,1.68-6.27,2.68-9.36
		c1.96-6.18,4.17-12.3,6.81-18.23c4.45-9.97,9.91-19.54,16.57-28.2c0.36,0.53,1.15,1.68,2.32,3.3c-0.14,0.21-0.27,0.42-0.41,0.64
		c-0.67,1.15-1.28,2.32-1.78,3.55c-1.01,2.43-1.74,4.98-2.14,7.57c-0.91,5.17-0.68,10.44,0.08,15.55c0.24,1.27,0.44,2.55,0.71,3.82
		l0.5,1.88l-6.68-1.85c-0.01,0-0.02-0.01-0.04-0.02c-0.01,0-0.02-0.01-0.03-0.01l-3.26-0.89c-1.06-0.29-2.19,0.23-2.64,1.25
		c-0.64,1.44-15.58,35.64-8.87,63.63c1.49,6.21,4.39,12.01,8.28,17.41c-15.04,14.79-6.24,43.56,0.37,54.81
		c1.58,2.69,3.62,5.62,5.97,5.62c0.34,0,0.69-0.07,1.05-0.2c0.13-0.06,0.26-0.11,0.37-0.19c-0.14,2.21-0.02,4.01,0.36,5.38
		c-0.55,2.65-1.09,11.35,9.56,26.89c1.5,2.2,3.1,4.94,4.88,8.38c0,0,0,0,0,0c0.01,0.02,0.02,0.04,0.03,0.05
		c0.96,1.87,1.96,3.93,2.97,6.11c0,0.01,0.01,0.02,0.01,0.02c0,0.01,0.01,0.03,0.02,0.05c0.01,0.01,0.01,0.03,0.02,0.04l0.01,0.01
		c1.91,4.1,3.74,8.38,5.28,12.04c0,0.01,0,0.02,0.01,0.03l0.01,0.01c0,0,0,0,0,0.01c1.2,2.88,2.39,5.74,3.53,8.5
		c0,0.01,0.01,0.01,0.01,0.02v0.01c0,0.01,0.01,0.02,0.02,0.02c7.26,17.5,10.72,24.88,14.7,24.88c0.35,0,0.7-0.06,1.06-0.17
		c8.16-2.54,38.79-8.62,71.45-3.36c1.02,0.16,2-0.38,2.41-1.31c0.04-0.1,1.88-4.32,4.75-10.61c0.2-0.24,0.35-0.52,0.43-0.84
		c0.01-0.05,0.01-0.1,0.02-0.14c2.03-4.43,4.51-9.77,7.2-15.38c0.22-0.27,0.38-0.59,0.46-0.95c2.14-4.43,4.4-9,6.66-13.39
		c2.42-4.7,4.11-8.97,5.28-12.77c0-0.01,0.01-0.02,0.01-0.02c0,0,0-0.01,0.01-0.02c0.12-0.26,0.18-0.48,0.2-0.68c0,0,0-0.01,0-0.01
		c2.6-8.74,2.43-14.83,2.14-17.51c2.32-1.78,4.32-3.94,6.08-6.59v-0.01c0,0,0.01-0.01,0.01-0.01c5.75-3.33,9.06-9.29,12.49-22.37
		c0.12-0.47,0.24-0.95,0.36-1.43c0.01-0.02,0.01-0.03,0.02-0.05c0-0.01,0-0.01,0-0.02c0-0.01,0-0.03,0.01-0.05c0,0,0,0,0,0
		c0,0,0,0,0,0c0-0.01,0.01-0.03,0.01-0.04c0.79-3.21,1.46-6.6,2-10.12c0,0,0,0,0-0.01c0-0.01,0-0.02,0.01-0.03
		c0.02-0.07,0.03-0.13,0.04-0.2c0,0,0,0,0,0v0c0.01-0.05,0.01-0.11,0.02-0.17c4.61-29.64,1.65-68.58-1.31-86.2
		c0-0.01-0.01-0.02-0.01-0.03c-0.38-2.29-0.76-4.23-1.12-5.8c-0.07-0.27-0.19-0.54-0.35-0.76c-2.65-3.81-8.2-7.59-10.41-9
		c0,0-0.01,0-0.01-0.01c-0.57-4.29-1.38-8.58-2.75-12.68c-1.44-4.45-3.18-8.8-5.38-12.91c-2.15-4.13-4.54-8.14-7.27-11.89
		c-2.17-3.02-4.48-5.86-7.04-8.6c0,0,0,0,0-0.01c4.68-9.65,7.42-14.08,8.77-15.99c7.17,10.57,13.57,21.67,18.82,33.3l2.02,4.59
		c0.69,1.53,1.26,3.1,1.89,4.65c1.29,3.09,2.35,6.26,3.49,9.4c0.55,1.58,1.02,3.18,1.54,4.77c0.51,1.59,1.02,3.18,1.44,4.8
		l1.35,4.83l1.17,4.87c6.09,26.02,6.82,53.21,2.33,79.48c-2.22,13.14-5.73,26.06-10.39,38.54c-2.29,6.26-4.98,12.36-7.85,18.36
		l-2.2,4.48l-2.27,4.54c-1.5,3.03-3.06,6.03-4.5,9.1c-5.92,12.17-11.52,24.52-16.51,37.16c-2.51,6.31-4.84,12.71-6.95,19.21
		c-1.04,3.26-2.04,6.53-2.91,9.87c-0.45,1.66-0.85,3.35-1.24,5.05l-0.2,0.99C527.65,393.18,514.13,390.49,500,390.49z
		 M560.51,321.17C560.51,321.17,560.51,321.17,560.51,321.17c-1.02,0.79-6.7,4.02-34.69,9.46c-37.93,7.39-55.72,23.51-59.72,36.14
		c-0.32,1.03,0.13,2.15,1.08,2.65c0.34,0.18,0.69,0.26,1.04,0.26c0.67,0,1.33-0.3,1.77-0.86c13.22-16.96,32.7-27.33,57.88-30.81
		c14.95-2.07,23.18-3.46,27.58-4.31l0,0c-0.07,0.13-0.13,0.26-0.2,0.4c-2.14,4.15-4.27,8.44-6.3,12.64
		c-2.45-0.16-4.86-0.27-7.29-0.32c-2.96-0.06-5.92-0.04-8.88,0.06c-5.92,0.23-11.86,0.77-17.7,2.2c-0.68,0.17-1.11,0.84-0.98,1.53
		c0.14,0.72,0.83,1.19,1.54,1.05l0.02,0c5.6-1.06,11.39-1.29,17.15-1.21c2.89,0.05,5.77,0.19,8.66,0.4c1.82,0.13,3.65,0.31,5.47,0.5
		c-2.04,4.29-3.94,8.36-5.57,11.92c-4.48-1.06-8.89-1.81-13.38-2.41c-5.1-0.67-10.23-1.13-15.36-1.31c-5.13-0.2-10.27-0.2-15.4,0.12
		c-5.13,0.23-10.23,0.87-15.31,1.59c-0.7,0.1-1.19,0.74-1.11,1.44c0.08,0.72,0.73,1.23,1.44,1.15l0.04,0
		c5.01-0.56,10.02-1.03,15.06-1.11c5.03-0.16,10.07,0,15.08,0.34c5.02,0.33,10.02,0.93,14.97,1.73c4.07,0.67,8.17,1.49,12.11,2.52
		c-1.44,3.18-2.56,5.69-3.22,7.2c-32.3-4.83-62.46,0.98-71.33,3.63c-2.28-1.76-7.19-13.43-10.37-21.11c0,0,0,0,0,0
		c2.35-4.38,14.76-24.92,46.17-36.53c15.39-5.69,28.45-6.85,38.95-7.78c9.1-0.8,16.55-1.45,22.84-4.54c0,0,0,0,0.01,0
		C562.62,310.57,562.29,315.13,560.51,321.17z M436.99,319.58c-10.09-14.73-9.09-22.35-8.85-23.54c0,0,0-0.01,0.01-0.01
		c0-0.01,0-0.02,0.01-0.03c4.48-8.3,15.09-20.3,28.25-33.22c5.5,3.08,10.93,5.87,15.98,8.35c3.43,1.69,6.44,3.65,8.94,5.84
		c-6.73,5.42-28.06,23.71-41.19,47.74c0,0,0,0,0,0C439.04,322.75,438,321.05,436.99,319.58z M430.47,155.36
		c0.51,1.4,1.05,2.79,1.69,4.12c1,2.41,2.28,4.63,3.48,6.92l1.99,3.3l1,1.65l1.08,1.59c3.73,5.53,7.87,10.73,12.27,15.68
		c0,0,0,0,0,0c-11.61,10.02-22.08,20.16-28.13,26.18c-3.45-3.1-11.95-12.72-8.96-30.53c2.97-17.68,6.45-27.41,7.91-31.03
		c0,0,0,0,0,0L430.47,155.36z M551.3,281.54c1.21,2.09,2.32,4.24,3.28,6.45c0.98,2.2,1.79,4.46,2.39,6.77
		c0.27,1.05,0.5,2.11,0.68,3.18c-1.51,0.19-3.13,0.37-4.88,0.56c-7.14,0.78-16.48,1.81-28.54,4.34c0,0.01,0,0-0.01,0
		c9.92-7.23,18.75-15.15,26.25-22.68C550.75,280.61,551.04,281.07,551.3,281.54z M550.8,270.04c-4.83-7.98-10.5-15.39-16.72-22.27
		c-0.09-0.1-0.18-0.19-0.27-0.29c1.24-1.52,2.5-3.02,3.81-4.49c3.32-3.75,6.74-7.51,10.36-11.48c2.34-2.56,4.68-5.13,7.02-7.71
		c6,8.31,10.85,16.46,14.68,23.7C566.37,252,559.83,260.42,550.8,270.04z M517.9,197.3c-8.1,5.86-15.78,11.59-23.02,17.19
		c0,0,0,0-0.01,0l-1.36-0.91l-6.05-4.21c-6.96-4.98-13.7-10.27-20.12-15.9c10.9-9.15,21.87-17.06,29.79-19.72
		c10.31,4.98,19.51,11.04,27.68,17.72C522.67,193.55,520.37,195.51,517.9,197.3z M461.47,198.51c0.01-0.01,0.01-0.01,0.02-0.02
		c6.54,6.38,13.43,12.38,20.57,18.05l5.13,3.97c-12.14,9.63-22.93,18.85-32.35,27.65c-1.75-1.01-3.45-2.02-5.07-3.02
		c-9.55-5.89-15.32-12.33-18.74-17.51C436.9,221.6,448.75,209.7,461.47,198.51z M503.31,272.19c-5.35-2.36-22.01-9.82-37.79-18.15
		c9.78-9.14,20.39-18.43,30.67-26.94c3.33,2.36,6.63,4.71,9.91,7.14c5.57,4.1,10.94,8.48,16.09,13.1
		C511.05,260.68,505.45,268.86,503.31,272.19z M527.59,240.94C527.59,240.94,527.59,240.95,527.59,240.94
		c-4.98-4.99-10.2-9.72-15.64-14.21c-2.56-2.1-5.21-4.11-7.9-6.04c0,0,0.01-0.01,0.01-0.01c7.46-6,14.57-11.44,20.84-15.96
		c2.84-2.03,5.43-4.17,7.82-6.37c5.96,5.56,11.28,11.4,16.01,17.26c-4.87,6.28-10.45,13.13-16.55,20.06
		C530.57,237.5,529.04,239.26,527.59,240.94z M432.72,122.63c0.31-0.93,0.71-1.82,1.13-2.69c8.95,11.93,30.09,37.25,52.56,43.54
		c-8.87,4.7-19.19,12.39-29.08,20.61c-4.56-4.61-8.84-9.47-12.7-14.63l-1.1-1.45l-1.02-1.5l-2.03-3.01
		c-1.21-2.08-2.54-4.11-3.56-6.28c-1.16-2.12-2.01-4.34-2.89-6.56l-1.08-3.39c-0.31-1.15-0.55-2.33-0.84-3.5
		c-0.99-4.69-1.47-9.51-0.91-14.23C431.41,127.17,431.95,124.85,432.72,122.63z M446.07,256.6c-8.25,8.2-15.2,16-20.84,23.35
		c-1.26,1.65-2.5,3.33-3.68,4.98c-2.76-3.43-8.47-15.33-9.61-28.08c-0.64-7.2,0.03-16.86,6.44-23.49
		C425.73,242.26,435.67,249.99,446.07,256.6z M487.84,285.18c0.98,1.96,1.61,3.98,1.89,6.05c0.65,4.85-0.93,9.34-4.32,12.34
		c-0.93,0.82-1.02,2.21-0.21,3.14c0.45,0.51,1.06,0.77,1.69,0.77c0.51,0,1.04-0.18,1.45-0.54c10.93-9.39,19.2-21.79,27.96-34.91
		c4.04-6.08,8.19-12.29,12.69-18.34c6.45,6.4,12.56,13.18,17.73,20.61c-11.61,11.81-26.6,24.73-43.74,34.14
		c-32.11,10.73-48.23,27.81-53.89,35.03c-1.06-2.47-2.2-5.08-3.39-7.65C448.3,330.47,462.4,303.39,487.84,285.18z M570.35,294.87
		C570.35,294.87,570.35,294.87,570.35,294.87c-2.45,1.33-5.51,2.06-9.5,2.65c-0.23-3.79-1.09-7.51-2.26-11.06
		c-1.14-3.54-2.64-6.93-4.32-10.21c8.4-8.8,14.81-16.77,18.8-22.03c0,0,0,0,0,0c4.94,10.21,7.54,17.75,8.27,19.99v0.01c0,0,0,0,0,0
		c-0.07,0.26-0.13,0.53-0.2,0.78C577.98,287.08,575.16,292.28,570.35,294.87z M584.79,252.87c-5.07-14.39-13.11-27.68-21.27-38.75
		c7.93-9.3,15.04-18.67,19.78-27.97v-0.01c0,0,0,0,0,0C585.42,202.93,586.99,229.53,584.79,252.87
		C584.79,252.87,584.79,252.87,584.79,252.87z M570.44,163.87c0.01,0.04,0.01,0.08,0.02,0.11c1.03,7.74,0.65,15.41-1.13,22.83
		c-0.97,1.52-5.56,8.59-12.75,18.4c-4.54-5.52-8.86-10.22-12.45-13.9c-0.84-0.86-1.68-1.71-2.51-2.55
		c16.82-21.38,17.87-45.02,17.87-50.52c0-1.45-0.04-2.79-0.11-4.03c0.9,1.56,1.78,3.14,2.59,4.75c1.03,1.95,1.89,3.98,2.81,5.97
		c0.43,1.01,0.81,2.04,1.22,3.06l0.6,1.53l0.51,1.56l1.05,3.12l0.85,3.18l0.43,1.59l0.33,1.61l0.68,3.22L570.44,163.87z
		 M533.49,181.09c-8.78-7.88-17.31-14.15-24.28-17.91c22.01-6.28,33.83-28.07,40.87-42.51c0.42,0.52,0.83,1.04,1.23,1.56l1.33,1.77
		C552.14,130.01,548.92,158.82,533.49,181.09z M430.94,107.81C430.94,107.81,430.94,107.81,430.94,107.81
		c-8.74,9.77-15.75,20.99-21.39,32.79c-2.86,6-5.3,12.2-7.41,18.49c-1.09,3.14-2,6.34-2.94,9.53c-0.83,3.22-1.7,6.43-2.38,9.68
		c-5.76,25.96-6.31,53.07-1.67,79.33c2.27,13.14,5.98,26.04,10.87,38.47c2.54,6.24,5.25,12.16,7.9,18.18l7.99,18.01
		c10.2,23.01,20.56,45.95,31.02,68.85c-4.12,1.97-8.09,4.18-11.91,6.63L221.05,190.3c55.16-49.74,121.86-83.36,193.45-98.3
		C420.07,97.12,425.6,102.41,430.94,107.81z M678.83,560.52C678.83,560.51,678.83,560.51,678.83,560.52
		c-0.79-1.02-4.02-6.7-9.46-34.69c-7.39-37.93-23.51-55.72-36.14-59.72c-1.03-0.32-2.15,0.13-2.65,1.08
		c-0.18,0.34-0.26,0.69-0.26,1.04c0,0.67,0.3,1.33,0.86,1.77c16.96,13.22,27.33,32.7,30.81,57.88c2.07,14.95,3.46,23.18,4.31,27.58
		c0,0,0,0,0,0c-0.13-0.07-0.26-0.13-0.4-0.2c-4.15-2.14-8.44-4.27-12.64-6.3c0.16-2.45,0.27-4.86,0.32-7.29
		c0.06-2.96,0.04-5.92-0.06-8.88c-0.23-5.92-0.77-11.86-2.2-17.7c-0.17-0.68-0.84-1.11-1.53-0.98c-0.72,0.14-1.19,0.83-1.05,1.54
		l0,0.02c1.06,5.6,1.29,11.39,1.21,17.15c-0.05,2.89-0.19,5.77-0.4,8.66c-0.13,1.82-0.31,3.65-0.5,5.47
		c-4.29-2.04-8.36-3.94-11.92-5.57c1.06-4.48,1.81-8.89,2.41-13.38c0.67-5.1,1.13-10.23,1.31-15.36c0.2-5.13,0.2-10.27-0.12-15.4
		c-0.23-5.13-0.87-10.23-1.59-15.31c-0.1-0.7-0.74-1.19-1.44-1.11c-0.72,0.08-1.23,0.73-1.15,1.44l0,0.04
		c0.56,5.01,1.03,10.02,1.11,15.06c0.16,5.03,0,10.07-0.34,15.08c-0.33,5.02-0.93,10.02-1.73,14.97c-0.66,4.07-1.49,8.17-2.52,12.11
		c-3.18-1.44-5.69-2.56-7.2-3.22c4.83-32.3-0.98-62.46-3.63-71.33c1.76-2.28,13.43-7.19,21.11-10.37c0,0,0,0,0,0
		c4.38,2.35,24.92,14.76,36.53,46.17c5.69,15.39,6.85,28.45,7.78,38.95c0.8,9.1,1.45,16.55,4.54,22.84c0,0,0,0,0,0.01
		C689.43,562.62,684.87,562.29,678.83,560.52z M702.07,557.64c-0.19-1.51-0.37-3.13-0.56-4.88c-0.78-7.14-1.81-16.48-4.34-28.54
		c-0.01,0,0,0,0-0.01c7.23,9.92,15.15,18.75,22.68,26.25c-0.47,0.28-0.92,0.57-1.4,0.83c-2.09,1.21-4.24,2.32-6.45,3.28
		c-2.2,0.98-4.46,1.79-6.77,2.39C704.2,557.23,703.13,557.46,702.07,557.64z M840.52,432.15c-2.41,1-4.63,2.28-6.92,3.48l-3.3,1.99
		l-1.65,1l-1.59,1.08c-5.53,3.73-10.73,7.87-15.68,12.27c0,0,0,0,0,0c-10.02-11.61-20.16-22.08-26.18-28.13
		c3.1-3.45,12.72-11.95,30.53-8.96c17.68,2.97,27.41,6.45,31.03,7.91c0,0,0,0,0,0l-2.13,7.66
		C843.24,430.97,841.85,431.51,840.52,432.15z M808.54,524.81c-2.09-2.13-4.05-4.44-5.83-6.91c-5.86-8.1-11.59-15.78-17.19-23.02
		c0,0,0,0,0-0.01l0.91-1.36l4.21-6.05c4.98-6.96,10.27-13.7,15.9-20.12c9.15,10.9,17.06,21.87,19.72,29.79
		C821.28,507.44,815.22,516.64,808.54,524.81z M752.67,522.18c-13.35-11.13-21.52-16.73-24.85-18.88
		c2.36-5.35,9.82-22.01,18.15-37.79c9.14,9.78,18.43,20.39,26.94,30.67c-2.36,3.33-4.71,6.63-7.14,9.91
		C761.67,511.67,757.28,517.03,752.67,522.18z M801.49,461.47c0.01,0.01,0.01,0.01,0.02,0.02c-6.38,6.54-12.38,13.43-18.05,20.57
		l-3.97,5.13c-9.63-12.14-18.85-22.93-27.65-32.35c1.01-1.75,2.02-3.45,3.02-5.07c5.89-9.55,12.33-15.32,17.51-18.74
		C778.4,436.9,790.3,448.75,801.49,461.47z M759.05,527.58c4.99-4.97,9.73-10.2,14.22-15.64c2.1-2.56,4.11-5.21,6.04-7.9
		c0,0,0.01,0.01,0.01,0.01c6,7.46,11.44,14.57,15.96,20.84c2.03,2.84,4.17,5.43,6.37,7.82c-5.56,5.96-11.4,11.27-17.26,16.01
		c-6.28-4.87-13.13-10.45-20.06-16.55C762.5,530.57,760.74,529.04,759.05,527.58C759.05,527.59,759.05,527.59,759.05,527.58z
		 M752.22,534.08c0.1-0.09,0.19-0.18,0.29-0.27c1.52,1.24,3.02,2.5,4.49,3.81c3.75,3.32,7.51,6.74,11.48,10.36
		c2.56,2.34,5.13,4.68,7.71,7.02c-8.31,6-16.46,10.85-23.7,14.68c-4.49-3.31-12.91-9.85-22.53-18.88
		C737.93,545.97,745.34,540.3,752.22,534.08z M836.52,486.41c-4.7-8.87-12.39-19.19-20.61-29.08c4.61-4.56,9.47-8.84,14.63-12.7
		l1.45-1.1l1.5-1.02l3.01-2.03c2.08-1.21,4.11-2.54,6.28-3.56c2.12-1.16,4.34-2.01,6.56-2.89l3.39-1.08
		c1.15-0.31,2.33-0.55,3.5-0.84c4.69-0.99,9.52-1.47,14.23-0.91c2.37,0.22,4.69,0.75,6.91,1.53c0.93,0.31,1.82,0.71,2.69,1.13
		C868.13,442.81,842.81,463.94,836.52,486.41z M743.4,446.07c-8.2-8.25-16-15.2-23.35-20.84c-1.65-1.26-3.33-2.5-4.98-3.68
		c3.43-2.76,15.33-8.47,28.08-9.61c7.2-0.64,16.86,0.03,23.49,6.44C757.74,425.73,750.01,435.67,743.4,446.07z M703.96,428.14
		c0,0,0.01,0,0.01,0.01c0.01,0,0.02,0,0.03,0.01c8.3,4.48,20.3,15.09,33.22,28.25c-3.08,5.5-5.87,10.93-8.35,15.98
		c-1.69,3.43-3.65,6.44-5.84,8.94c-5.42-6.73-23.71-28.06-47.74-41.19c0,0,0,0,0,0c1.95-1.1,3.64-2.14,5.12-3.15
		C695.15,426.9,702.77,427.89,703.96,428.14z M664.19,445.7c5.34,2.6,32.42,16.7,50.63,42.14c-1.96,0.98-3.98,1.61-6.05,1.89
		c-4.85,0.65-9.34-0.93-12.34-4.32c-0.82-0.93-2.21-1.02-3.14-0.21c-0.51,0.45-0.77,1.06-0.77,1.69c0,0.51,0.18,1.04,0.54,1.45
		c9.39,10.93,21.79,19.2,34.91,27.96c6.08,4.05,12.29,8.19,18.34,12.69c-6.4,6.45-13.18,12.56-20.61,17.73
		c-11.81-11.61-24.73-26.6-34.14-43.74c-10.73-32.11-27.81-48.23-35.03-53.89C659.01,448.03,661.61,446.89,664.19,445.7z
		 M705.13,570.36C705.13,570.35,705.13,570.35,705.13,570.36c-1.33-2.45-2.06-5.51-2.65-9.5c3.79-0.23,7.51-1.09,11.06-2.26
		c3.54-1.14,6.93-2.64,10.21-4.32c8.8,8.4,16.77,14.81,22.03,18.8c0,0,0,0,0,0c-10.21,4.94-17.75,7.54-19.99,8.27h-0.01c0,0,0,0,0,0
		c-0.26-0.07-0.53-0.13-0.78-0.2C712.92,577.98,707.72,575.16,705.13,570.36z M747.13,584.79c14.39-5.07,27.68-13.11,38.75-21.27
		c9.3,7.93,18.67,15.04,27.97,19.78h0.01c0,0,0,0,0,0C797.07,585.42,770.47,586.99,747.13,584.79
		C747.13,584.79,747.13,584.79,747.13,584.79z M836.16,570.43l-0.03,0.01c-0.04,0.01-0.08,0.01-0.11,0.02
		c-7.74,1.03-15.41,0.65-22.83-1.13c-1.52-0.97-8.59-5.56-18.4-12.75c5.52-4.54,10.22-8.86,13.9-12.45
		c0.86-0.84,1.71-1.68,2.55-2.51c21.38,16.82,45.02,17.87,50.52,17.87c1.45,0,2.79-0.04,4.03-0.11c-1.56,0.9-3.14,1.78-4.75,2.59
		c-1.95,1.03-3.98,1.89-5.97,2.81c-1.01,0.43-2.04,0.81-3.06,1.22l-1.53,0.6l-1.56,0.51l-3.12,1.05l-3.18,0.85l-1.59,0.43
		l-1.61,0.33L836.16,570.43z M877.78,551.31l-1.77,1.33c-6.01-0.5-34.83-3.72-57.1-19.15c7.88-8.78,14.15-17.31,17.91-24.28
		c6.28,22.01,28.07,33.83,42.51,40.87C878.82,550.5,878.3,550.91,877.78,551.31z M882.72,431.9c-0.21-0.14-0.42-0.27-0.64-0.41
		c-1.15-0.67-2.32-1.28-3.54-1.78c-2.43-1.01-4.98-1.74-7.57-2.14c-5.17-0.91-10.44-0.68-15.55,0.08c-1.27,0.24-2.55,0.44-3.82,0.71
		l-1.88,0.5l1.85-6.68c0-0.01,0.01-0.02,0.02-0.04c0-0.01,0.01-0.02,0.01-0.03l0.89-3.26c0.29-1.06-0.23-2.19-1.25-2.64
		c-1.44-0.64-35.64-15.58-63.63-8.87c-6.21,1.49-12.01,4.39-17.41,8.28c-14.79-15.04-43.56-6.24-54.81,0.37
		c-2.69,1.58-5.62,3.62-5.62,5.97c0,0.34,0.07,0.69,0.2,1.05c0.06,0.13,0.11,0.26,0.19,0.37c-2.21-0.14-4.01-0.02-5.38,0.36
		c-2.65-0.55-11.35-1.09-26.89,9.56c-2.2,1.5-4.94,3.1-8.38,4.88c0,0,0,0,0,0c-0.02,0.01-0.04,0.02-0.05,0.03
		c-1.87,0.96-3.93,1.96-6.11,2.97c-0.01,0-0.02,0.01-0.02,0.01c-0.01,0-0.03,0.01-0.05,0.02c-0.01,0.01-0.03,0.01-0.04,0.02
		l-0.01,0.01c-4.1,1.91-8.38,3.74-12.04,5.28c-0.01,0-0.02,0-0.03,0.01l-0.01,0.01c0,0,0,0-0.01,0c-2.88,1.2-5.74,2.39-8.5,3.53
		c-0.01,0-0.01,0.01-0.02,0.01h-0.01c-0.01,0-0.02,0.01-0.02,0.02c-17.5,7.26-24.88,10.72-24.88,14.71c0,0.35,0.06,0.7,0.17,1.06
		c2.54,8.16,8.62,38.79,3.36,71.45c-0.16,1.02,0.38,2,1.31,2.41c0.1,0.04,4.32,1.88,10.61,4.75c0.24,0.2,0.52,0.35,0.85,0.43
		c0.05,0.01,0.1,0.01,0.14,0.02c4.43,2.03,9.77,4.51,15.38,7.2c0.27,0.22,0.59,0.38,0.95,0.46c4.43,2.14,9,4.4,13.39,6.66
		c4.7,2.42,8.97,4.11,12.77,5.28c0.01,0,0.02,0.01,0.02,0.01c0,0,0.01,0,0.02,0.01c0.26,0.12,0.48,0.18,0.68,0.2c0,0,0.01,0,0.01,0
		c8.74,2.6,14.83,2.43,17.51,2.14c1.78,2.32,3.94,4.32,6.59,6.08h0.01c0,0,0.01,0.01,0.01,0.01c3.33,5.75,9.29,9.06,22.37,12.49
		c0.47,0.12,0.95,0.24,1.43,0.36c0.02,0.01,0.03,0.01,0.05,0.02c0.01,0,0.01,0,0.02,0c0.01,0,0.03,0,0.05,0.01c0,0,0,0,0,0
		c0,0,0,0,0,0c0.01,0,0.03,0.01,0.04,0.01c3.21,0.79,6.6,1.46,10.12,2c0,0,0,0,0.01,0c0.01,0,0.02,0,0.03,0.01
		c0.07,0.02,0.13,0.03,0.2,0.04c0,0,0,0,0,0h0c0.05,0.01,0.11,0.01,0.17,0.02c29.64,4.61,68.58,1.65,86.2-1.31
		c0.01,0,0.02-0.01,0.03-0.01c2.29-0.38,4.23-0.76,5.8-1.12c0.27-0.07,0.54-0.19,0.76-0.35c3.81-2.65,7.59-8.2,9-10.41
		c0,0,0-0.01,0.01-0.01c4.29-0.57,8.58-1.38,12.68-2.75c4.45-1.44,8.8-3.18,12.91-5.38c4.13-2.15,8.14-4.54,11.89-7.27
		c3.02-2.17,5.86-4.48,8.6-7.04c0,0,0,0,0.01,0c9.65,4.68,14.08,7.42,15.99,8.77c-10.57,7.17-21.67,13.57-33.3,18.82l-4.59,2.02
		c-1.53,0.69-3.1,1.26-4.65,1.89c-3.09,1.29-6.26,2.35-9.4,3.49c-1.58,0.55-3.18,1.02-4.77,1.54c-1.59,0.51-3.18,1.02-4.8,1.44
		l-4.83,1.35l-4.87,1.17c-26.02,6.09-53.21,6.82-79.48,2.33c-13.14-2.22-26.06-5.73-38.54-10.39c-6.26-2.29-12.36-4.98-18.36-7.85
		l-4.48-2.2l-4.54-2.27c-3.03-1.5-6.03-3.06-9.1-4.5c-12.17-5.92-24.52-11.52-37.16-16.51c-6.31-2.51-12.71-4.84-19.21-6.95
		c-3.26-1.04-6.53-2.04-9.87-2.91c-1.66-0.45-3.35-0.85-5.05-1.24l-0.99-0.2c4.9-12.41,7.59-25.93,7.59-40.06
		c0-14.45-2.82-28.26-7.93-40.9c23.05-10.16,46.05-20.41,68.99-30.83l17.95-8.14c5.98-2.7,11.99-5.48,17.88-8
		c11.94-4.89,24.36-8.67,37.08-11.07c3.17-0.67,6.38-1.09,9.57-1.62c3.21-0.38,6.42-0.86,9.65-1.1c6.44-0.63,12.93-0.87,19.41-0.84
		c6.48-0.01,12.96,0.36,19.42,0.99c6.46,0.61,12.88,1.6,19.24,2.88c3.19,0.6,6.34,1.39,9.5,2.14c3.13,0.86,6.27,1.68,9.36,2.68
		c6.18,1.96,12.3,4.17,18.23,6.81c9.97,4.45,19.54,9.91,28.2,16.57C885.49,429.95,884.34,430.73,882.72,431.9z M892.19,430.94
		C892.19,430.94,892.19,430.94,892.19,430.94c-9.77-8.74-20.99-15.75-32.79-21.39c-6-2.86-12.2-5.3-18.49-7.42
		c-3.14-1.09-6.34-2-9.53-2.94c-3.22-0.83-6.43-1.7-9.68-2.38c-25.96-5.76-53.07-6.31-79.33-1.67
		c-13.14,2.27-26.04,5.98-38.47,10.87c-6.24,2.54-12.16,5.25-18.18,7.9l-18.01,7.99c-23.01,10.2-45.95,20.56-68.85,31.02
		c-1.97-4.12-4.18-8.09-6.63-11.91L809.7,221.05c49.74,55.16,83.36,121.86,98.3,193.45C902.88,420.07,897.59,425.6,892.19,430.94z
		 M814.47,773.57L592.28,558.91c2.58-4.02,4.89-8.23,6.94-12.59l2.31,0.44c1.6,0.35,3.19,0.7,4.79,1.11c3.2,0.79,6.38,1.72,9.56,2.7
		c6.35,1.99,12.65,4.19,18.9,6.59c12.5,4.76,24.8,10.16,36.94,15.89c3.05,1.39,6.05,2.91,9.08,4.36l4.53,2.2l4.62,2.2
		c6.19,2.87,12.48,5.55,18.91,7.82c12.84,4.62,26.1,8.06,39.58,10.16c26.94,4.26,54.7,3.17,81.14-3.35l4.95-1.26l4.9-1.43
		c1.64-0.45,3.25-0.99,4.87-1.53c1.61-0.54,3.24-1.05,4.83-1.63c3.18-1.19,6.39-2.32,9.52-3.66c1.56-0.66,3.16-1.26,4.7-1.98
		l4.64-2.11c12.32-5.74,24.02-12.74,35.09-20.57c0.01-0.01,0.01-0.02,0.02-0.02l2.72-1.96c1.97,1.71,3.92,3.45,5.84,5.23
		C899.45,642.26,866.02,714.38,814.47,773.57z M896.99,548.88c-18.86-14.2-32.17-24.36-40.51-32.61c-0.04-0.03-0.08-0.07-0.11-0.1
		c-4.6-4.89-8.91-10.54-10.48-15.76c-0.02-0.08-0.04-0.15-0.06-0.22c-0.19-0.96-0.29-1.93-0.29-2.89c0-2.83,0-5.29,0.42-7.8
		c0-0.03,0-0.06,0.01-0.09c0.46-2.16,1.14-4.25,2.06-6.32c3.8-7.92,13.41-18.77,37.68-41.29c7.89-7.31,15.68-15.23,23.11-23.24
		c1.89-2.03,3.75-4.07,5.59-6.1c20.35-22.56,37.36-44.82,45.21-55.44c-3.35,14.12-11.9,45.02-27.4,70.02
		c-4.5,7.27-8.55,13.31-12.22,18.36c-2.06,2.83-4,5.34-5.84,7.59c-10.09,12.34-17.22,16.67-24.04,20.02
		c-9.99,4.91-15.78,9.98-15.78,21.38c0,9.15,6.03,12.19,13.68,16.04c1.74,0.88,3.54,1.79,5.44,2.84c3.7,2.06,12.05,9.38,21.91,21.24
		c1.97,2.36,3.99,4.91,6.03,7.62c14.02,18.47,29.7,45.02,39.31,77.86c-8.84-15.38-24.68-35.5-42.55-52.82
		c-1.96-1.89-3.92-3.75-5.92-5.56C907.24,557.02,902.12,552.73,896.99,548.88z M959.83,351.1c-5.56,7.65-23.73,32.1-46.28,57.32
		c-15.9-72.11-50.52-139.16-101.27-194.5l-2.38-2.59L588.37,435.41c-6.68-9.12-14.74-17.16-23.86-23.84l218.75-226.43l-2.61-2.32
		c-59.48-52.68-132.08-87.16-209.49-100.32c23.51-23.86,50.9-42.69,63.99-46.55C788.55,80.69,910.66,199.61,959.83,351.1z
		 M627.74,33.84c-0.61,0.12-1.22,0.25-1.87,0.38h-0.01c-0.15,0-0.27,0.02-0.41,0.06c-0.19,0.06-0.39,0.1-0.58,0.16
		c-21.86,4.66-65.07,16.55-100.1,42.78c-2.7,2.02-5.35,4.12-7.93,6.32c-5.77,4.87-11.23,10.19-16.23,15.98
		c-3.07,3.73-5.42,5.35-7.55,5.29c-2.93-0.11-6.58-3.49-11.84-10.94c-1.44-2.04-4.88-5.49-9.9-9.69c-2.26-1.91-4.84-3.97-7.71-6.13
		c-21.94-16.59-60.31-39.2-97.1-42.58C408.91,23.25,453.7,16.7,500,16.7C544.2,16.7,587.03,22.68,627.74,33.84z M351.1,40.17
		c7.65,5.57,32.1,23.73,57.32,46.28c-72.11,15.9-139.16,50.52-194.5,101.27l-2.59,2.38l224.09,221.52
		c-9.12,6.68-17.16,14.74-23.84,23.86L185.14,216.74l-2.32,2.61c-52.68,59.48-87.16,132.08-100.32,209.49
		c-23.86-23.51-42.68-50.9-46.55-63.99C80.69,211.45,199.61,89.34,351.1,40.17z M33.84,372.26c0.12,0.6,0.25,1.22,0.38,1.87v0.01
		c0,0.15,0.02,0.27,0.06,0.41c0.06,0.19,0.1,0.39,0.16,0.58c4.66,21.86,16.55,65.07,42.78,100.1c2.02,2.7,4.12,5.35,6.32,7.93
		c4.87,5.77,10.19,11.23,15.98,16.23c3.73,3.07,5.35,5.42,5.29,7.55c-0.11,2.93-3.49,6.58-10.94,11.85
		c-2.05,1.44-5.49,4.88-9.69,9.9c-1.91,2.26-3.97,4.84-6.13,7.71c-16.59,21.94-39.2,60.31-42.58,97.1
		C23.25,591.09,16.7,546.29,16.7,500C16.7,455.8,22.68,412.97,33.84,372.26z M40.17,648.9c5.57-7.65,23.73-32.1,46.28-57.32
		c15.9,72.11,50.52,139.16,101.27,194.5l2.38,2.59l221.52-224.09c6.68,9.12,14.74,17.16,23.86,23.84L216.74,814.86l2.61,2.32
		c59.48,52.68,132.08,87.16,209.49,100.32c-23.51,23.86-50.9,42.68-63.99,46.55C211.44,919.31,89.34,800.39,40.17,648.9z
		 M372.26,966.16c0.61-0.12,1.22-0.25,1.87-0.38h0.01c0.15,0,0.27-0.02,0.41-0.06c0.19-0.06,0.39-0.1,0.58-0.16
		c21.86-4.66,65.07-16.55,100.1-42.78c2.7-2.02,5.35-4.12,7.93-6.32c5.77-4.87,11.23-10.19,16.23-15.98
		c3.07-3.73,5.42-5.35,7.55-5.29c2.93,0.11,6.58,3.49,11.85,10.94c1.44,2.04,4.88,5.49,9.9,9.69c2.26,1.91,4.84,3.97,7.71,6.13
		c21.94,16.59,60.31,39.2,97.1,42.58C591.09,976.75,546.3,983.3,500,983.3C455.8,983.3,412.97,977.32,372.26,966.16z M648.9,959.83
		c-7.65-5.57-32.1-23.73-57.32-46.28c72.11-15.9,139.16-50.52,194.5-101.27l2.59-2.38L564.59,588.37
		c9.12-6.68,17.16-14.74,23.84-23.86l226.43,218.75l2.32-2.61c52.68-59.48,87.16-132.08,100.32-209.49
		c23.86,23.51,42.69,50.9,46.55,63.99C919.31,788.56,800.39,910.66,648.9,959.83z"/>
	<path d="M500.02,420.54c-0.01,0-0.01,0-0.02,0c-43.8,0-79.45,35.63-79.46,79.44c-0.01,43.81,35.62,79.47,79.44,79.48
		c0.01,0,0.01,0,0.02,0c43.8,0,79.45-35.63,79.46-79.44C579.47,456.21,543.83,420.55,500.02,420.54z M500,574.99c0,0-0.01,0-0.02,0
		c-41.35-0.01-74.98-33.66-74.97-75.01c0.01-41.34,33.65-74.97,74.99-74.97c0,0,0.01,0,0.02,0c41.35,0.01,74.98,33.66,74.97,75.01
		C574.98,541.36,541.34,574.99,500,574.99z"/>
	<path d="M500.02,431.38c-0.01,0-0.01,0-0.02,0c-18.32,0-35.55,7.13-48.51,20.08c-12.96,12.96-20.11,30.19-20.11,48.51
		c-0.01,18.33,7.13,35.56,20.08,48.52c12.96,12.96,30.19,20.1,48.51,20.11c0.01,0,0.01,0,0.02,0c18.32,0,35.55-7.13,48.51-20.08
		c12.96-12.96,20.11-30.19,20.11-48.51C568.62,462.18,537.85,431.39,500.02,431.38z M545.35,545.37
		c-12.12,12.11-28.22,18.78-45.34,18.78c-0.01,0-0.01,0-0.02,0c-17.13,0-33.24-6.68-45.35-18.8
		c-12.11-12.12-18.78-28.23-18.78-45.36c0-17.13,6.68-33.24,18.8-45.35c12.12-12.11,28.22-18.78,45.35-18.78c0.01,0,0.01,0,0.02,0
		c35.37,0.01,64.14,28.79,64.13,64.16C564.14,517.15,557.46,533.26,545.35,545.37z"/>
	<path d="M541.27,458.75c-11.02-11.02-25.67-17.1-41.25-17.1c-0.01,0-0.01,0-0.02,0c-32.16,0-58.34,26.16-58.35,58.33
		c0,15.58,6.06,30.24,17.08,41.26c11.02,11.02,25.67,17.1,41.25,17.1c0.01,0,0.01,0,0.01,0c32.16,0,58.34-26.17,58.35-58.33
		C558.35,484.43,552.28,469.78,541.27,458.75z M500,553.88c0,0-0.01,0-0.01,0c-14.39,0-27.92-5.61-38.09-15.79
		c-10.17-10.18-15.77-23.71-15.77-38.1c0-14.39,5.61-27.92,15.79-38.09c10.17-10.17,23.7-15.77,38.09-15.77c0,0,0.01,0,0.01,0
		c14.39,0,27.92,5.61,38.09,15.79c10.17,10.18,15.77,23.71,15.77,38.1C553.87,529.72,529.7,553.88,500,553.88z"/>
</g>
</svg>
