<?xml version="1.0" encoding="utf-8"?>
<!-- Generator: Adobe Illustrator 24.1.2, SVG Export Plug-In . SVG Version: 6.00 Build 0)  -->
<svg version="1.1" id="Layer_1" xmlns="http://www.w3.org/2000/svg" xmlns:xlink="http://www.w3.org/1999/xlink" x="0px" y="0px"
	 viewBox="0 0 1000 1000" style="enable-background:new 0 0 1000 1000;" xml:space="preserve">
<g>
	<g>
		<g>
			<path d="M43.15,481.35c-0.2,0-0.4-0.04-0.59-0.12c-0.58-0.25-0.95-0.84-0.91-1.48c1.49-22.3,4.66-44.64,9.41-66.42
				c4.69-21.56,11.04-43,18.88-63.74c7.72-20.42,17-40.46,27.58-59.57c0.03-0.05,0.05-0.09,0.08-0.14
				c11.34-20.48,24.38-40.28,38.77-58.85c13.49-17.43,28.41-34.08,44.34-49.48c0.04-0.04,0.08-0.07,0.12-0.1
				c11.74-11.35,24.3-22.27,37.29-32.41c0.04-0.03,0.07-0.05,0.11-0.08c12.58-9.82,25.87-19.12,39.51-27.64
				c17.4-10.88,35.7-20.71,54.38-29.19c18-8.18,36.67-15.27,55.5-21.07C402.08,60.45,437.87,53.83,474,51.38
				c0.64-0.04,1.26,0.34,1.5,0.95c0.24,0.61,0.05,1.3-0.46,1.71c-3.5,2.82-34.44,27.41-50.81,29.08c-0.7,0.07-1.42,0.12-2.14,0.15
				c-1.6,3.21-8.47,12.53-34.69,14.08c-5.31,0.31-11.29,0.47-17.75,0.44c-5.99,4.1-21.3,13.61-41.93,19.41
				c-2.1,0.59-4.24,1.12-6.37,1.58c-2.93,2.32-24.01,18.51-49.02,25.67c-2.36,2.48-18.31,18.76-36.27,25.17
				c-2.13,2.78-15.81,19.8-43.57,36.03c-1.22,0.71-2.43,1.41-3.63,2.1c-1.83,3.28-15.38,26.81-38.24,46.01
				c-1.35,3.67-12.24,31.83-38.94,62.01c-0.85,2.99-7.26,25.12-18.17,49.04c-2.18,4.79-5.08,9.87-8.63,15.08
				c-0.64,3.86-6.87,39.97-18.96,64.86c-12.72,26.2-21.33,35.71-21.7,36.1C43.96,481.18,43.56,481.35,43.15,481.35z M100.07,291.61
				c-10.48,18.94-19.68,38.8-27.32,59.04c-7.79,20.6-14.1,41.9-18.76,63.32c-4.37,20.04-7.39,40.58-9,61.1
				c3.55-4.87,10.08-14.78,18.25-31.62l0,0c12.52-25.79,18.69-63.98,18.75-64.36c0.04-0.22,0.12-0.43,0.24-0.61
				c3.53-5.17,6.42-10.18,8.56-14.9c11.57-25.39,18.03-48.7,18.1-48.94c0.06-0.22,0.17-0.43,0.32-0.6
				c28.25-31.83,38.62-61.36,38.72-61.65c0.09-0.26,0.25-0.49,0.46-0.66c24.23-20.24,37.9-45.51,38.04-45.77
				c0.13-0.25,0.33-0.46,0.58-0.59c1.31-0.75,2.63-1.52,3.97-2.29c29.16-17.05,42.39-34.83,42.93-35.58
				c0.04-0.05,0.08-0.1,0.12-0.15c0.17-0.17,0.38-0.31,0.6-0.39c18.53-6.43,35.59-24.64,35.76-24.82c0.19-0.2,0.44-0.36,0.7-0.43
				c26.38-7.44,48.4-25.27,48.62-25.45c0.19-0.15,0.42-0.26,0.66-0.31l0,0c2.18-0.47,4.38-1.01,6.52-1.61
				c20.65-5.81,35.85-15.4,41.42-19.26c0.25-0.17,0.55-0.27,0.85-0.27c0,0,0,0,0,0c6.61,0.03,12.67-0.13,18.04-0.44
				c28.65-1.69,32.38-12.86,32.42-12.97c0.19-0.62,0.76-1.07,1.41-1.08c0.99-0.02,1.96-0.07,2.88-0.16
				c12.74-1.3,36.13-18.34,45.36-25.41c-34.23,2.68-68.11,9.13-100.78,19.2c-18.71,5.76-37.26,12.8-55.14,20.93
				c-18.57,8.43-36.75,18.19-54.04,29.01c-13.58,8.49-26.83,17.76-39.35,27.54c-0.04,0.03-0.07,0.05-0.11,0.08
				c-12.9,10.07-25.36,20.91-37.05,32.22c-0.04,0.03-0.07,0.07-0.11,0.1c-15.79,15.27-30.59,31.79-43.97,49.07
				c-14.33,18.49-27.31,38.21-38.59,58.6C100.13,291.52,100.1,291.57,100.07,291.61z"/>
			<path d="M420.12,83.32c-17.99,0-50.99-8.97-52.41-9.36c-0.65-0.16-1.14-0.75-1.14-1.46c0-0.83,0.67-1.5,1.49-1.5h0.01
				c0.14,0,0.28,0.02,0.41,0.06c0.34,0.1,35.01,9.57,52.57,9.25c0.99-0.02,1.96-0.07,2.88-0.16c15.77-1.61,47.84-27.32,49.2-28.42
				c0.6-0.57,1.52-0.52,2.09,0.08c0.57,0.6,0.52,1.58-0.08,2.15c-0.03,0.03-0.07,0.07-0.11,0.09c-3.5,2.82-34.44,27.41-50.81,29.08
				c-1.01,0.1-2.06,0.16-3.12,0.18C420.79,83.32,420.46,83.32,420.12,83.32z"/>
			<path d="M370.42,97.8c-0.41,0-0.83,0-1.24,0c-26.83-0.07-55.57-2.71-56.55-2.81c-0.77-0.06-1.38-0.71-1.38-1.49
				c0-0.83,0.66-1.5,1.49-1.5h0.02c0.05,0,0.1,0,0.15,0.01c0.27,0.03,29.25,2.72,56.28,2.79c6.59,0.02,12.67-0.13,18.04-0.44
				c28.65-1.69,32.38-12.86,32.42-12.97c0.24-0.79,1.07-1.24,1.86-1.01c0.79,0.23,1.25,1.04,1.03,1.83
				c-0.15,0.54-4.02,13.32-35.13,15.15C382.31,97.65,376.6,97.8,370.42,97.8z"/>
			<path d="M260.77,124.11c-1.27,0-2.04-0.01-2.24-0.01c-0.83-0.01-1.49-0.68-1.49-1.51s0.67-1.49,1.5-1.49
				c1.49,0.02,36.18,0.38,61.75-5.14c0.04-0.01,0.07-0.02,0.11-0.03l0,0c2.18-0.47,4.38-1.01,6.52-1.61
				c20.65-5.81,35.85-15.4,41.42-19.26c0.68-0.47,1.62-0.3,2.09,0.38c0.47,0.68,0.3,1.62-0.38,2.09
				c-5.7,3.94-21.23,13.75-42.32,19.68c-2.17,0.61-4.39,1.16-6.6,1.63c-0.04,0.01-0.08,0.02-0.12,0.03
				C298.51,123.74,269.1,124.11,260.77,124.11z"/>
			<path d="M219.07,151.73c-0.83,0-1.5-0.67-1.5-1.5c0-0.8,0.62-1.45,1.41-1.5l0.17-0.02c5.18-0.49,31.87-3.09,48.42-6.08
				c1.1-0.27,2.27-0.57,3.43-0.89c0.04-0.02,0.09-0.03,0.13-0.04c26.38-7.44,48.4-25.27,48.62-25.45c0.27-0.22,0.62-0.35,0.97-0.35
				c0.83,0,1.5,0.67,1.5,1.5c0,0.53-0.27,0.99-0.69,1.26c-2.15,1.72-23.77,18.61-49.46,25.89c-0.05,0.02-0.09,0.03-0.14,0.05
				c-1.24,0.34-2.48,0.67-3.74,0.97c-16.76,3.03-43.56,5.64-48.76,6.13l-0.21,0.02C219.16,151.73,219.11,151.73,219.07,151.73z"/>
			<path d="M181.77,184.14c-0.83,0-1.5-0.67-1.5-1.5c0-0.61,0.36-1.14,0.89-1.37c0.1-0.05,0.2-0.08,0.31-0.11
				c0.33-0.07,34.1-7.62,53.07-14.16c0.04-0.02,0.08-0.04,0.12-0.05c18.53-6.43,35.59-24.64,35.76-24.82l2.19,2.05
				c-0.71,0.77-17.67,18.87-36.86,25.57c-0.04,0.02-0.08,0.04-0.13,0.05c-18.62,6.44-51.47,13.84-53.43,14.28
				C182.06,184.12,181.91,184.14,181.77,184.14z"/>
			<path d="M137.57,233.46c-0.59,0-1.15-0.35-1.39-0.93c-0.32-0.77,0.05-1.64,0.81-1.96c0.22-0.09,22.21-9.27,50.03-25.21
				c1.31-0.75,2.63-1.52,3.97-2.29c29.16-17.05,42.39-34.83,42.93-35.58c0.04-0.05,0.08-0.1,0.12-0.15c0.57-0.6,1.52-0.63,2.13-0.06
				c0.57,0.54,0.62,1.43,0.13,2.03c-0.98,1.32-14.6,19.27-43.8,36.35c-1.34,0.78-2.68,1.56-3.99,2.31
				c-28,16.04-50.15,25.28-50.37,25.37C137.95,233.42,137.76,233.46,137.57,233.46z"/>
			<path d="M98.83,292.25c-0.37,0-0.74-0.14-1.03-0.41c-0.6-0.57-0.63-1.52-0.06-2.12l0.01-0.01c0.11-0.11,0.23-0.2,0.36-0.28
				c3.13-2.1,27.02-18.27,50.29-37.71c24.26-20.26,37.9-45.51,38.04-45.77c0.39-0.73,1.3-1.01,2.03-0.62
				c0.73,0.39,1.01,1.3,0.62,2.03c-0.14,0.26-14.06,26.03-38.76,46.65c-23.65,19.75-47.94,36.15-50.64,37.96
				c-0.12,0.08-0.24,0.14-0.38,0.18C99.16,292.23,98.99,292.25,98.83,292.25z"/>
			<path d="M71.34,351.63c-0.83,0-1.5-0.67-1.5-1.5c0-0.4,0.16-0.77,0.42-1.04c0.07-0.07,0.14-0.14,0.22-0.19
				c14.16-10.1,27.19-21.83,38.75-34.85c28.25-31.83,38.62-61.36,38.72-61.65c0.27-0.78,1.12-1.2,1.91-0.93
				c0.78,0.27,1.2,1.12,0.93,1.91c-0.1,0.3-10.64,30.36-39.32,62.67c-11.69,13.18-24.88,25.05-39.2,35.27
				C72.01,351.51,71.69,351.63,71.34,351.63z"/>
			<path d="M52.52,415.15c-0.38,0-0.77-0.15-1.06-0.44c-0.59-0.59-0.59-1.53,0-2.12l0.01-0.01c0.03-0.03,0.06-0.06,0.09-0.08
				c0.72-0.62,17.87-15.3,30.68-34.02c3.53-5.17,6.42-10.18,8.56-14.9c11.56-25.38,18.03-48.7,18.1-48.94
				c0.22-0.8,1.04-1.27,1.84-1.05c0.8,0.22,1.27,1.05,1.05,1.84c-0.06,0.23-6.6,23.78-18.26,49.38c-2.22,4.88-5.19,10.05-8.82,15.35
				c-12.98,18.97-30.33,33.86-31.21,34.61C53.23,415.03,52.87,415.15,52.52,415.15z"/>
			<path d="M43.15,481.35c-0.36,0-0.73-0.13-1.01-0.4c-0.61-0.56-0.65-1.51-0.09-2.12c0.09-0.09,8.72-9.66,21.21-35.38
				c12.52-25.79,18.69-63.98,18.75-64.36c0.13-0.82,0.9-1.38,1.72-1.25c0.82,0.13,1.38,0.9,1.25,1.72c-0.06,0.39-6.29,39-19.01,65.2
				c-12.72,26.2-21.33,35.71-21.7,36.1C43.95,481.19,43.55,481.35,43.15,481.35z"/>
			<g>
				<path d="M43.15,500.03c0,0,57.53-65.02,89.19-92.94s83.26-33.36,132.01-8.17c48.76,25.19,128.07,67.4,160.41,38.13
					c32.34-29.28-11.23-108.6-33.02-160.68s-21.11-98.72,22.47-138.89S500,52.87,500,52.87s-33.36,38.48-71.49,80.94
					s-36.77,105.1-1.36,176.59s34.38,119.83,6.47,151.83c-18.38,19.4-79.66,10.89-137.87-26.89s-113.7-59.57-168.17-9.53
					S43.15,500.03,43.15,500.03z"/>
				<path d="M43.15,501.53c-0.4,0-0.79-0.16-1.08-0.46c-0.54-0.56-0.55-1.45-0.04-2.03c0.58-0.65,57.96-65.41,89.33-93.07
					c33.65-29.67,86.13-32.96,133.69-8.38l3.71,1.92c49.48,25.6,124.25,64.28,155.01,36.43c26.61-24.09-0.49-84.77-22.25-133.53
					c-4.02-9-7.82-17.51-11.14-25.46C365.74,218.1,373,173.43,413.2,136.37c43.04-39.67,85.29-84.09,85.72-84.53
					c0.56-0.59,1.49-0.62,2.1-0.08c0.6,0.55,0.66,1.48,0.13,2.09c-0.33,0.39-33.81,38.98-71.51,80.96
					c-37,41.22-37.4,101.7-1.13,174.93c34.15,68.95,36.2,119.16,6.25,153.48c-6.51,6.88-18.46,10.5-33.9,10.5
					c-27.7,0-66.67-11.65-105.92-37.12c-62.21-40.38-114.31-57.49-166.34-9.69c-53.88,49.5-84.2,74.03-84.5,74.28
					C43.81,501.42,43.48,501.53,43.15,501.53z M200.52,384.2c-25.43,0-49.12,8.08-67.19,24.02c-21.66,19.1-55.84,56.04-74.95,77.1
					c14.15-12.06,37.28-32.22,68.18-60.61c25.61-23.53,53.05-32.87,83.9-28.55c24.4,3.42,50.95,15.11,86.1,37.93
					c27.17,17.64,56.76,29.95,83.32,34.67c24.74,4.4,43.93,1.65,52.65-7.55c29.01-33.26,26.83-82.38-6.72-150.13
					c-17.95-36.24-27.05-69.84-27.05-99.85c0-30.87,9.64-57.25,28.64-78.42c13.1-14.59,25.69-28.77,36.55-41.08
					c-14.36,14.29-31.48,30.94-48.72,46.84c-39.14,36.08-46.16,79.68-22.1,137.21c3.31,7.92,7.1,16.41,11.12,25.4
					c22.16,49.65,49.75,111.43,21.53,136.98c-8.11,7.34-18.97,10.37-31.48,10.37c-37.31,0-89.31-26.9-126.92-46.36l-3.71-1.92
					C242.87,389.51,221.13,384.2,200.52,384.2z"/>
			</g>
			<g>
				<path d="M500,52.87c0,0-12.09,57.28-47.83,94.56l5.62,2.8c0,0,24.17-17.61,41.77-58.46L500,52.87z"/>
				<path d="M457.79,151.73c-0.23,0-0.46-0.05-0.67-0.16l-5.62-2.8c-0.43-0.21-0.73-0.62-0.81-1.09c-0.08-0.47,0.06-0.95,0.39-1.29
					c35.04-36.54,47.32-93.26,47.44-93.83c0.16-0.75,0.86-1.26,1.63-1.18c0.77,0.08,1.34,0.74,1.34,1.51l-0.44,38.9
					c0,0.2-0.04,0.39-0.12,0.58c-17.56,40.76-41.27,58.35-42.27,59.08C458.41,151.63,458.1,151.73,457.79,151.73z M454.65,146.99
					l2.96,1.48c4.08-3.27,24.92-21.13,40.45-57.02l0.3-26.55C492.88,83.43,479.61,120.13,454.65,146.99z"/>
			</g>
			<g>
				<polygon points="482.49,114.76 500,131.52 500,122.61 486.26,107.03 481.96,109.46 				"/>
				<path d="M500,133.02c-0.38,0-0.75-0.14-1.04-0.42l-17.51-16.75c-0.26-0.25-0.42-0.58-0.46-0.93l-0.54-5.31
					c-0.06-0.59,0.24-1.16,0.75-1.46l4.3-2.43c0.62-0.35,1.39-0.22,1.86,0.31l13.74,15.58c0.24,0.27,0.38,0.63,0.38,0.99v8.9
					c0,0.6-0.36,1.14-0.91,1.38C500.4,132.98,500.2,133.02,500,133.02z M483.93,114.06L498.5,128v-4.83l-12.56-14.25l-2.39,1.35
					L483.93,114.06z"/>
			</g>
			<g>
				<path d="M427.57,134.88c0,0,37.53,10,72.42,39.62v5.87c0,0-31.03-26.47-76.7-40.3v-5.19H427.57z"/>
				<path d="M500,181.87c-0.35,0-0.7-0.12-0.97-0.36c-0.31-0.26-31.34-26.43-76.17-40c-0.63-0.19-1.07-0.77-1.07-1.44v-5.19
					c0-0.83,0.67-1.5,1.5-1.5h4.28c0.13,0,0.26,0.02,0.39,0.05c0.38,0.1,38.26,10.43,73.01,39.92c0.34,0.29,0.53,0.7,0.53,1.14v5.87
					c0,0.58-0.34,1.12-0.87,1.36C500.43,181.82,500.21,181.87,500,181.87z M424.8,138.96c37.64,11.61,65.51,31.89,73.7,38.28v-2.05
					c-32.86-27.68-68.27-38.01-71.13-38.81h-2.58V138.96z"/>
			</g>
			<g>
				<path d="M500,205.39v7.91c0,0-17.7-22.72-47.83-35.49s-44.94-14.55-44.94-14.55l2.55-5.64C409.79,157.62,460,166.83,500,205.39z
					"/>
				<path d="M500,214.8c-0.45,0-0.89-0.21-1.18-0.58c-0.18-0.22-17.84-22.58-47.23-35.03c-29.52-12.51-44.39-14.43-44.53-14.44
					c-0.47-0.06-0.89-0.34-1.13-0.75c-0.23-0.42-0.26-0.92-0.06-1.35l2.55-5.64c0.28-0.63,0.96-0.98,1.64-0.86
					c0.51,0.09,51.12,9.74,90.98,48.16c0.29,0.28,0.46,0.67,0.46,1.08v7.92c0,0.64-0.41,1.21-1.01,1.42
					C500.33,214.78,500.16,214.8,500,214.8z M409.41,162.09c4.98,0.91,19.24,4.13,43.34,14.34c23.48,9.95,39.66,26.07,45.74,32.82
					v-3.23c-35.8-34.24-80.19-45.04-87.84-46.69L409.41,162.09z"/>
			</g>
			<g>
				<path d="M481.96,195.77c0,0-14.47,20.34-36.68,15.49c-3.06-14.3-10.06-24.07-7.97-39.36c-3.27-4.05-7.1-2.52-7.1-2.52
					s-13.79,33.7-3.06,46.47c10.72,12.77,49.79,3.83,60.26-17.62C484.09,195.43,481.96,195.77,481.96,195.77z"/>
				<path d="M443.91,223.25c-8.03,0-14.4-2.24-17.91-6.43c-11.18-13.31,2.25-46.59,2.82-48c0.15-0.38,0.45-0.67,0.83-0.82
					c0.2-0.08,4.91-1.89,8.82,2.97c0.26,0.32,0.38,0.74,0.32,1.15c-1.35,9.84,1.25,17.46,4.01,25.52c1.33,3.89,2.7,7.9,3.72,12.36
					c20.48,3.83,34.07-14.89,34.21-15.08c0.23-0.33,0.59-0.55,0.98-0.61c0.28-0.05,2.92-0.36,6.66,2.8c0.52,0.44,0.68,1.19,0.38,1.8
					c-6.85,14.03-24.96,22.26-38.89,23.98C447.8,223.13,445.81,223.25,443.91,223.25z M431.33,170.64
					c-1.85,4.8-12.24,33.29-3.03,44.25c3.63,4.32,11.56,6.19,21.2,5c12.78-1.57,29.25-8.87,36-21.24c-1.3-0.92-2.28-1.24-2.83-1.35
					c-2.84,3.56-17.14,19.91-37.71,15.42c-0.57-0.13-1.02-0.58-1.15-1.15c-1-4.67-2.45-8.9-3.84-12.98
					c-2.81-8.23-5.47-16.01-4.23-26.22C434,170.53,432.21,170.51,431.33,170.64z"/>
			</g>
			<g>
				<path d="M500,213.3c0,0-29.31,40.09-78.91,10.72c26.23,26.04,63.16,19.19,78.91-2.28V213.3z"/>
				<path d="M460.3,242.37c-14.79,0-28.95-6.04-40.26-17.28c-0.54-0.53-0.59-1.38-0.13-1.98c0.46-0.6,1.3-0.76,1.95-0.37
					c20.12,11.91,39.18,13.79,56.65,5.58c13.03-6.12,20.21-15.8,20.28-15.9c0.38-0.52,1.06-0.74,1.68-0.54
					c0.62,0.2,1.03,0.78,1.03,1.43v8.44c0,0.32-0.1,0.63-0.29,0.89c-8.14,11.09-21.84,18.41-36.65,19.57
					C463.13,242.31,461.71,242.37,460.3,242.37z M433.13,231.61c9.51,5.8,20.24,8.46,31.2,7.6c13.78-1.08,26.51-7.78,34.17-17.96
					v-3.87c-3.32,3.57-9.63,9.39-18.72,13.65C469.26,235.97,453.26,239.46,433.13,231.61z"/>
			</g>
			<g>
				<path d="M500,247.77c0,0-14.13,0.77-23.91-10.72h-18.3c0,0,8.34,25.53,42.21,25.53V247.77z"/>
				<path d="M500,264.08c-34.56,0-43.55-26.3-43.64-26.57c-0.15-0.46-0.07-0.96,0.21-1.35c0.28-0.39,0.73-0.62,1.21-0.62h18.3
					c0.44,0,0.86,0.19,1.14,0.53c9.17,10.76,22.57,10.2,22.69,10.2c0.41-0.02,0.81,0.13,1.11,0.41s0.47,0.68,0.47,1.09v14.81
					C501.5,263.41,500.83,264.08,500,264.08z M460.01,238.55c2.64,5.74,12.38,21.92,38.49,22.51v-11.79
					c-4.03-0.15-14.84-1.44-23.1-10.72H460.01z"/>
			</g>
			<g>
				<path d="M43.15,500.03c0,0,57.28-12.09,94.56-47.83l2.8,5.62c0,0-17.61,24.17-58.46,41.77L43.15,500.03z"/>
				<path d="M43.15,501.53c-0.76,0-1.41-0.58-1.49-1.34c-0.08-0.77,0.43-1.47,1.18-1.63c0.57-0.12,57.3-12.42,93.83-47.44
					c0.34-0.33,0.82-0.48,1.29-0.4c0.47,0.08,0.87,0.38,1.09,0.81l2.8,5.62c0.25,0.5,0.2,1.1-0.13,1.55
					c-0.73,1-18.32,24.7-59.08,42.27c-0.18,0.08-0.38,0.12-0.58,0.12l-38.9,0.44C43.16,501.53,43.15,501.53,43.15,501.53z
					 M137.27,454.68c-26.86,24.96-63.56,38.23-82.09,43.71l26.55-0.3c35.88-15.53,53.75-36.37,57.01-40.45L137.27,454.68z"/>
			</g>
			<g>
				<polygon points="105.04,482.52 121.79,500.03 112.89,500.03 97.3,486.29 99.73,481.98 				"/>
				<path d="M121.79,501.53h-8.9c-0.37,0-0.72-0.13-0.99-0.38l-15.58-13.74c-0.53-0.47-0.66-1.25-0.31-1.86l2.43-4.3
					c0.29-0.52,0.86-0.81,1.46-0.76l5.31,0.54c0.36,0.04,0.69,0.2,0.93,0.46l16.75,17.51c0.42,0.43,0.53,1.07,0.3,1.63
					C122.93,501.17,122.39,501.53,121.79,501.53z M113.45,498.53h4.83l-13.94-14.57l-3.78-0.38l-1.35,2.39L113.45,498.53z"/>
			</g>
			<g>
				<path d="M125.15,427.6c0,0,10,37.53,39.62,72.42h5.87c0,0-26.47-31.03-40.3-76.7h-5.19V427.6z"/>
				<path d="M170.64,501.53h-5.87c-0.44,0-0.86-0.19-1.14-0.53c-29.5-34.75-39.82-72.63-39.92-73.01c-0.03-0.13-0.05-0.26-0.05-0.39
					v-4.28c0-0.83,0.67-1.5,1.5-1.5h5.19c0.66,0,1.24,0.43,1.44,1.07c13.57,44.83,39.74,75.86,40,76.17
					c0.38,0.44,0.47,1.07,0.22,1.6C171.76,501.19,171.23,501.53,170.64,501.53z M165.47,498.53h2.05
					c-6.39-8.19-26.67-36.06-38.28-73.7h-2.58v2.58C127.46,430.26,137.81,465.7,165.47,498.53z"/>
			</g>
			<g>
				<path d="M195.66,500.03h7.91c0,0-22.72-17.7-35.49-47.83s-14.55-44.94-14.55-44.94l-5.64,2.55
					C147.9,409.81,157.11,460.03,195.66,500.03z"/>
				<path d="M203.58,501.53h-7.92c-0.41,0-0.8-0.17-1.08-0.46c-38.42-39.86-48.07-90.48-48.16-90.98c-0.12-0.68,0.23-1.35,0.86-1.64
					l5.64-2.55c0.44-0.2,0.94-0.17,1.35,0.06c0.42,0.23,0.7,0.65,0.75,1.13c0.02,0.15,1.94,15.02,14.45,44.53
					c12.46,29.39,34.81,47.06,35.03,47.23c0.5,0.39,0.71,1.06,0.5,1.67C204.79,501.12,204.22,501.53,203.58,501.53z M196.3,498.53
					h3.23c-6.75-6.09-22.87-22.27-32.82-45.74c-10.21-24.1-13.43-38.36-14.34-43.35l-2.76,1.25
					C151.26,418.33,162.07,462.72,196.3,498.53z"/>
			</g>
			<g>
				<path d="M186.05,481.98c0,0,20.34-14.47,15.49-36.68c-14.3-3.06-24.07-10.06-39.36-7.97c-4.05-3.27-2.52-7.1-2.52-7.1
					s33.7-13.79,46.47-3.06c12.77,10.72,3.83,49.79-17.62,60.26C185.7,484.11,186.05,481.98,186.05,481.98z"/>
				<path d="M188.52,488.93c-0.43,0-0.85-0.19-1.15-0.53c-3.17-3.74-2.85-6.37-2.8-6.66c0.06-0.39,0.28-0.75,0.61-0.98
					c0.19-0.14,18.9-13.77,15.08-34.21c-4.46-1.02-8.47-2.39-12.36-3.72c-8.06-2.76-15.68-5.36-25.51-4.01
					c-0.41,0.06-0.83-0.06-1.15-0.32c-4.86-3.92-3.05-8.62-2.97-8.82c0.15-0.38,0.45-0.68,0.82-0.83c1.41-0.58,34.7-14,48-2.82
					c5.18,4.35,7.38,13.05,6.05,23.87c-1.71,13.93-9.94,32.04-23.97,38.89C188.96,488.88,188.74,488.93,188.52,488.93z
					 M187.59,482.69c0.11,0.56,0.42,1.54,1.35,2.84c12.37-6.75,19.67-23.22,21.24-36c1.19-9.65-0.68-17.58-5-21.2
					c-10.97-9.21-39.46,1.19-44.25,3.03c-0.14,0.89-0.12,2.66,1.74,4.4c10.21-1.24,17.99,1.42,26.21,4.23
					c4.08,1.4,8.31,2.84,12.98,3.84c0.58,0.12,1.03,0.57,1.15,1.15C207.49,465.54,191.15,479.86,187.59,482.69z"/>
			</g>
			<g>
				<path d="M203.58,500.03c0,0,40.09-29.31,10.72-78.91c26.04,26.23,19.19,63.16-2.28,78.91H203.58z"/>
				<path d="M212.02,501.53h-8.44c-0.65,0-1.22-0.42-1.42-1.03c-0.2-0.62,0.02-1.29,0.54-1.68c0.1-0.07,9.86-7.33,15.96-20.4
					c8.14-17.44,6.24-36.47-5.64-56.54c-0.39-0.65-0.23-1.49,0.37-1.95c0.6-0.46,1.45-0.41,1.98,0.13
					c12.31,12.4,18.39,28.21,17.11,44.53c-1.16,14.81-8.47,28.51-19.57,36.65C212.65,501.42,212.34,501.53,212.02,501.53z
					 M207.66,498.53h3.87c10.18-7.66,16.88-20.4,17.96-34.17c0.86-10.96-1.8-21.69-7.6-31.2c7.85,20.13,4.37,36.13-0.57,46.66
					C217.04,488.89,211.23,495.21,207.66,498.53z"/>
			</g>
			<g>
				<path d="M238.05,500.03c0,0,0.77-14.13-10.72-23.91v-18.3c0,0,25.53,8.34,25.53,42.21H238.05z"/>
				<path d="M252.85,501.53h-14.81c-0.41,0-0.81-0.17-1.09-0.47c-0.28-0.3-0.43-0.7-0.41-1.11l0,0c0.01-0.13,0.56-13.53-10.2-22.69
					c-0.33-0.29-0.53-0.7-0.53-1.14v-18.3c0-0.48,0.23-0.93,0.62-1.21c0.39-0.28,0.89-0.36,1.35-0.21
					c0.27,0.09,26.57,9.08,26.57,43.64C254.35,500.85,253.68,501.53,252.85,501.53z M239.54,498.53h11.79
					c-0.61-25.79-16.81-35.74-22.51-38.46v15.36C238.1,483.69,239.4,494.5,239.54,498.53z"/>
			</g>
			<path d="M100.02,445.36c-0.08,0-0.17-0.01-0.26-0.02c-0.82-0.14-1.36-0.92-1.22-1.73c7.28-42.43,21.27-83.21,41.58-121.23
				c19.86-37.16,45.34-70.92,75.73-100.34c30.43-29.46,65.07-53.87,102.96-72.56c38.84-19.16,80.3-31.9,123.25-37.87
				c0.81-0.11,1.58,0.46,1.69,1.28c0.11,0.82-0.46,1.58-1.28,1.69c-174.29,24.22-311.32,156.65-340.98,329.52
				C101.37,444.84,100.73,445.36,100.02,445.36z"/>
			<path d="M246.43,401.49c-0.21,0-0.41-0.04-0.61-0.13c-0.76-0.34-1.09-1.23-0.75-1.98c14.6-32.53,35.12-61.61,60.99-86.44
				c25.91-24.87,55.9-44.23,89.12-57.53c0.76-0.31,1.64,0.06,1.95,0.83c0.31,0.77-0.07,1.64-0.83,1.95
				c-65.51,26.23-119.63,78.14-148.49,142.42C247.55,401.16,247,401.49,246.43,401.49z"/>
			<path d="M432.6,448.42c-0.4,0-0.79-0.16-1.08-0.46L305.2,315.82c-0.57-0.6-0.55-1.55,0.05-2.12c0.6-0.57,1.55-0.55,2.12,0.05
				l126.31,132.13c0.57,0.6,0.55,1.55-0.05,2.12C433.34,448.28,432.97,448.42,432.6,448.42z"/>
		</g>
		<g>
			<path d="M474.1,948.66c-0.03,0-0.07,0-0.1,0c-36.13-2.44-71.92-9.07-106.37-19.68c-18.83-5.8-37.51-12.89-55.5-21.07
				c-18.69-8.49-36.99-18.31-54.38-29.19c-13.64-8.53-26.93-17.83-39.51-27.64c-0.04-0.02-0.07-0.05-0.11-0.08
				c-12.98-10.13-25.53-21.04-37.3-32.42c-0.04-0.03-0.07-0.06-0.11-0.09c-15.93-15.4-30.85-32.04-44.34-49.48
				c-14.39-18.57-27.43-38.37-38.77-58.85c-0.03-0.04-0.06-0.09-0.08-0.13c-10.58-19.11-19.86-39.15-27.58-59.57
				c-7.84-20.74-14.2-42.18-18.88-63.74c-4.75-21.78-7.92-44.12-9.41-66.42c-0.04-0.64,0.32-1.23,0.91-1.48
				c0.58-0.25,1.26-0.11,1.7,0.36c0.36,0.39,8.98,9.9,21.7,36.1l0,0c12.09,24.89,18.31,61,18.96,64.87
				c3.55,5.21,6.45,10.28,8.63,15.08c10.9,23.93,17.32,46.06,18.17,49.04c26.71,30.18,37.59,58.33,38.94,62.01
				c22.86,19.2,36.41,42.72,38.24,46.01c1.2,0.68,2.41,1.39,3.62,2.1c27.79,16.25,41.44,33.25,43.57,36.03
				c17.93,6.39,33.88,22.67,36.26,25.17c25.17,7.21,46.37,23.57,49.02,25.68c2.13,0.46,4.27,0.99,6.36,1.58
				c20.63,5.8,35.94,15.31,41.93,19.41c6.49-0.02,12.45,0.14,17.75,0.44c26.22,1.54,33.09,10.86,34.69,14.08
				c0.73,0.03,1.44,0.08,2.14,0.15c16.4,1.67,47.33,26.27,50.8,29.07c0.51,0.41,0.7,1.11,0.46,1.72
				C475.27,948.28,474.72,948.66,474.1,948.66z M219.88,848.55c0.04,0.02,0.07,0.05,0.11,0.08c12.53,9.78,25.77,19.05,39.35,27.54
				c17.29,10.81,35.47,20.57,54.04,29.01c17.88,8.13,36.43,15.17,55.14,20.93c32.67,10.07,66.55,16.52,100.78,19.2
				c-9.24-7.08-32.61-24.11-45.37-25.41c-0.91-0.09-1.88-0.14-2.88-0.16c-0.66-0.01-1.24-0.46-1.42-1.1
				c-0.03-0.09-3.76-11.26-32.41-12.95c-5.37-0.31-11.42-0.45-18.04-0.44c0,0,0,0,0,0c-0.3,0-0.6-0.09-0.85-0.27
				c-5.57-3.85-20.77-13.45-41.42-19.26c-2.14-0.6-4.34-1.14-6.52-1.61l0,0c-0.27-0.06-0.52-0.19-0.72-0.37
				c-0.16-0.13-22.18-17.96-48.56-25.4c-0.25-0.07-0.47-0.2-0.65-0.38c-0.22-0.23-17.3-18.45-35.81-24.87
				c-0.21-0.07-0.41-0.2-0.57-0.36c-0.05-0.05-0.11-0.12-0.16-0.18c-0.55-0.75-13.74-18.51-42.94-35.58
				c-1.33-0.78-2.66-1.54-3.97-2.29c-0.24-0.14-0.45-0.35-0.58-0.59c-0.13-0.25-13.8-25.53-38.04-45.77
				c-0.21-0.18-0.37-0.41-0.46-0.66c-0.1-0.29-10.47-29.82-38.72-61.65c-0.15-0.17-0.26-0.38-0.32-0.6
				c-0.06-0.23-6.54-23.56-18.1-48.94c-2.15-4.72-5.03-9.74-8.56-14.91c-0.13-0.18-0.21-0.39-0.24-0.61
				c-0.06-0.38-6.22-38.57-18.75-64.36l0,0c-8.17-16.84-14.7-26.75-18.25-31.62c1.6,20.53,4.62,41.06,9,61.1
				c4.66,21.41,10.97,42.72,18.76,63.32c7.65,20.24,16.84,40.1,27.33,59.04c0.03,0.04,0.06,0.09,0.08,0.14
				c11.28,20.39,24.27,40.11,38.59,58.6c13.39,17.29,28.18,33.81,43.97,49.08c0.04,0.03,0.08,0.07,0.12,0.11
				C194.53,827.64,206.99,838.48,219.88,848.55z"/>
			<path d="M474.11,948.67c-0.36,0-0.71-0.13-1-0.39l-0.01-0.01c-1.31-1.05-33.37-26.77-49.16-28.38c-0.91-0.09-1.88-0.14-2.88-0.16
				c-0.31-0.01-0.63-0.01-0.96-0.01c-17.85,0-51.28,9.17-51.61,9.26c-0.93,0.26-1.92-0.48-1.92-1.44c0-0.72,0.51-1.33,1.19-1.47
				c2.04-0.56,35.79-9.67,53.35-9.34c1.07,0.02,2.12,0.08,3.12,0.18c16.4,1.67,47.33,26.27,50.8,29.07
				c0.02,0.02,0.06,0.05,0.09,0.07c0.61,0.56,0.66,1.51,0.11,2.12C474.92,948.5,474.52,948.67,474.11,948.67z"/>
			<path d="M421.09,919.73c-0.65,0-1.25-0.43-1.44-1.08c-0.07-0.21-3.89-11.29-32.42-12.97c-5.37-0.31-11.44-0.46-18.04-0.44
				c-26.89,0.07-56.01,2.77-56.29,2.79c-0.89,0.08-1.66-0.61-1.66-1.49c0-0.81,0.63-1.46,1.42-1.5c1.54-0.14,30.1-2.73,56.51-2.8
				c6.67-0.02,12.79,0.13,18.22,0.44c31.11,1.83,34.98,14.61,35.13,15.15c0.22,0.8-0.25,1.62-1.05,1.84
				C421.35,919.71,421.22,919.73,421.09,919.73z"/>
			<path d="M369.19,905.24c-0.29,0-0.59-0.09-0.85-0.27c-5.57-3.85-20.77-13.45-41.42-19.26c-2.14-0.6-4.34-1.14-6.52-1.61l0,0
				c-0.04-0.01-0.07-0.02-0.11-0.03c-25.48-5.5-60.25-5.15-61.72-5.14l-0.03-3h0.01c1.47-0.02,36.64-0.36,62.46,5.22
				c0.04,0.01,0.08,0.02,0.12,0.03c2.21,0.47,4.42,1.02,6.6,1.63c21.09,5.93,36.62,15.74,42.32,19.68c0.68,0.47,0.85,1.41,0.38,2.09
				C370.13,905.02,369.66,905.24,369.19,905.24z"/>
			<path d="M320.71,884.14c-0.37,0-0.75-0.15-1.03-0.4c-0.16-0.13-22.18-17.96-48.56-25.4c-0.04-0.01-0.09-0.03-0.13-0.04
				c-1.16-0.32-2.33-0.63-3.51-0.91c-16.42-2.96-43.13-5.57-48.31-6.06l-0.22-0.02c-0.77-0.06-1.38-0.71-1.38-1.5
				c0-0.88,0.8-1.58,1.65-1.49l0.23,0.02c7.31,0.69,32.44,3.19,48.65,6.11c1.34,0.32,2.59,0.65,3.83,0.99
				c0.05,0.01,0.09,0.03,0.14,0.05c26.05,7.38,47.9,24.64,49.49,25.9c0.4,0.27,0.66,0.73,0.66,1.24
				C322.21,883.47,321.53,884.14,320.71,884.14z"/>
			<path d="M271.52,858.4c-0.38,0-0.76-0.14-1.05-0.44l-0.01-0.01c-0.21-0.22-17.29-18.44-35.8-24.86
				c-0.04-0.01-0.08-0.03-0.12-0.05c-19.07-6.58-52.74-14.09-53.06-14.16c-0.13-0.03-0.25-0.07-0.37-0.13
				c-0.49-0.25-0.83-0.75-0.83-1.34c0-0.98,1-1.72,1.94-1.43c2.05,0.46,34.73,7.81,53.42,14.28c0.04,0.02,0.09,0.03,0.13,0.05
				c19.16,6.7,36.15,24.81,36.86,25.58c0.56,0.6,0.54,1.54-0.05,2.11C272.27,858.26,271.89,858.4,271.52,858.4z"/>
			<path d="M235.14,833.17c-0.38,0-0.76-0.15-1.05-0.44l-0.01-0.01c-0.05-0.05-0.1-0.11-0.15-0.17
				c-0.55-0.75-13.74-18.51-42.94-35.58c-1.33-0.78-2.66-1.54-3.97-2.29c-27.84-15.95-49.81-25.12-50.03-25.21
				c-0.76-0.32-1.13-1.2-0.81-1.96c0.32-0.76,1.19-1.13,1.96-0.81c0.22,0.09,22.37,9.33,50.37,25.37c1.31,0.75,2.65,1.52,3.99,2.31
				c29.5,17.25,43.07,35.35,43.83,36.38c0.45,0.59,0.41,1.43-0.13,1.97C235.91,833.02,235.52,833.17,235.14,833.17z"/>
			<path d="M187.77,794.87c-0.54,0-1.05-0.29-1.32-0.79c-0.13-0.25-13.8-25.53-38.04-45.77c-23.29-19.45-47.32-35.71-50.31-37.72
				c-0.12-0.07-0.22-0.15-0.32-0.24c-0.59-0.59-0.59-1.54,0-2.13c0.48-0.48,1.21-0.57,1.77-0.26c0.05,0.03,0.09,0.05,0.14,0.08
				c2.72,1.82,27.06,18.27,50.65,37.96c24.7,20.63,38.62,46.4,38.76,46.65c0.39,0.73,0.11,1.64-0.62,2.03
				C188.25,794.82,188.01,794.87,187.77,794.87z"/>
			<path d="M149.37,748.66c-0.62,0-1.2-0.39-1.42-1.01c-0.1-0.29-10.47-29.82-38.72-61.65c-11.55-13.03-24.59-24.76-38.75-34.86
				c-0.07-0.05-0.14-0.11-0.2-0.17c-0.27-0.27-0.44-0.65-0.44-1.06c0-0.83,0.67-1.5,1.5-1.5c0.35,0,0.67,0.12,0.93,0.32
				c14.32,10.22,27.51,22.09,39.2,35.27c28.68,32.31,39.21,62.37,39.32,62.67c0.27,0.78-0.15,1.64-0.93,1.91
				C149.69,748.64,149.53,748.66,149.37,748.66z"/>
			<path d="M110.35,686.5c-0.66,0-1.26-0.44-1.45-1.1c-0.06-0.23-6.54-23.56-18.1-48.94c-2.15-4.72-5.03-9.74-8.56-14.91
				c-12.81-18.72-29.96-33.41-30.68-34.02c-0.03-0.03-0.06-0.05-0.09-0.08c-0.59-0.59-0.59-1.54,0-2.13
				c0.57-0.57,1.48-0.59,2.07-0.05c1.13,0.96,18.31,15.77,31.18,34.59c3.63,5.31,6.6,10.48,8.82,15.36
				c11.66,25.6,18.2,49.15,18.26,49.38c0.22,0.8-0.25,1.62-1.05,1.84C110.61,686.48,110.48,686.5,110.35,686.5z"/>
			<path d="M83.47,622.21c-0.72,0-1.36-0.53-1.48-1.26c-0.06-0.38-6.22-38.57-18.75-64.36c-12.49-25.72-21.12-35.29-21.21-35.38
				c-0.56-0.61-0.52-1.56,0.09-2.12c0.61-0.56,1.56-0.52,2.12,0.09c0.36,0.39,8.98,9.9,21.7,36.1c12.72,26.2,18.95,64.81,19.01,65.2
				c0.13,0.82-0.43,1.59-1.25,1.72C83.63,622.21,83.55,622.21,83.47,622.21z"/>
			<g>
				<path d="M43.15,500.02c0,0,57.53,65.02,89.19,92.94c31.66,27.91,83.26,33.36,132.01,8.17c48.76-25.19,128.07-67.4,160.41-38.13
					s-11.23,108.6-33.02,160.68s-21.11,98.72,22.47,138.89s85.79,84.6,85.79,84.6s-33.36-38.48-71.49-80.95
					s-36.77-105.1-1.36-176.59s34.38-119.83,6.47-151.83c-18.38-19.4-79.66-10.89-137.87,26.89s-113.7,59.57-168.17,9.53
					C73.11,524.19,43.15,500.02,43.15,500.02z"/>
				<path d="M500,948.67c-0.4,0-0.79-0.16-1.09-0.47c-0.42-0.44-42.68-44.86-85.72-84.53c-40.2-37.06-47.45-81.72-22.83-140.58
					c3.33-7.95,7.12-16.46,11.14-25.46c21.77-48.76,48.86-109.44,22.26-133.53c-30.76-27.85-105.53,10.83-155.01,36.43l-3.71,1.92
					c-47.57,24.58-100.04,21.29-133.69-8.38c-31.37-27.66-88.75-92.42-89.33-93.07c-0.52-0.58-0.5-1.47,0.04-2.03
					c0.54-0.56,1.42-0.62,2.03-0.13c0.3,0.24,30.62,24.77,84.5,74.28c52.03,47.8,104.12,30.7,166.34-9.69
					c61.13-39.68,121.63-45.82,139.78-26.67c29.98,34.37,27.94,84.57-6.21,153.53c-36.26,73.22-35.87,133.71,1.13,174.92
					c37.7,41.99,71.17,80.58,71.51,80.96c0.53,0.62,0.48,1.54-0.13,2.09C500.72,948.54,500.36,948.67,500,948.67z M394.29,551.52
					c12.51,0,23.37,3.02,31.48,10.37c28.22,25.55,0.63,87.33-21.53,136.98c-4.01,8.99-7.8,17.48-11.11,25.39
					c-24.06,57.53-17.04,101.13,22.1,137.21c17.24,15.9,34.36,32.55,48.72,46.84c-10.87-12.31-23.45-26.49-36.55-41.08
					c-19-21.17-28.64-47.55-28.64-78.41c0-30.01,9.1-63.6,27.05-99.85c33.55-67.75,35.74-116.87,6.68-150.18
					c-8.67-9.15-27.86-11.91-52.61-7.51c-26.55,4.72-56.14,17.04-83.32,34.67c-35.15,22.82-61.7,34.51-86.1,37.93
					c-30.85,4.32-58.29-5.02-83.9-28.55c-30.9-28.39-54.03-48.54-68.18-60.61c19.11,21.06,53.29,58,74.95,77.1
					c32.71,28.84,83.87,31.97,130.33,7.96l3.71-1.92C304.98,578.42,356.98,551.52,394.29,551.52z"/>
			</g>
			<g>
				<path d="M500,947.17c0,0-12.09-57.28-47.83-94.56l5.62-2.8c0,0,24.17,17.61,41.77,58.46L500,947.17z"/>
				<path d="M500,948.67c-0.7,0-1.32-0.49-1.47-1.19c-0.12-0.57-12.42-57.3-47.44-93.83c-0.33-0.34-0.48-0.83-0.39-1.29
					c0.08-0.47,0.38-0.87,0.81-1.09l5.62-2.8c0.5-0.25,1.1-0.2,1.55,0.13c1,0.73,24.7,18.32,42.27,59.08
					c0.08,0.18,0.12,0.38,0.12,0.58l0.44,38.9c0.01,0.77-0.57,1.42-1.34,1.51C500.11,948.67,500.05,948.67,500,948.67z
					 M454.65,853.05c24.96,26.86,38.23,63.56,43.71,82.09l-0.3-26.55c-15.53-35.88-36.37-53.75-40.45-57.01L454.65,853.05z"/>
			</g>
			<g>
				<polygon points="482.49,885.28 500,868.53 500,877.43 486.26,893.02 481.96,890.59 				"/>
				<path d="M486.26,894.52c-0.25,0-0.5-0.06-0.74-0.19l-4.3-2.43c-0.52-0.29-0.81-0.86-0.75-1.46l0.54-5.31
					c0.04-0.36,0.2-0.69,0.46-0.93l17.51-16.75c0.43-0.42,1.08-0.53,1.63-0.3c0.55,0.24,0.91,0.78,0.91,1.38v8.9
					c0,0.37-0.13,0.72-0.38,0.99l-13.74,15.58C487.09,894.34,486.68,894.52,486.26,894.52z M483.55,889.76l2.39,1.35l12.56-14.25
					v-4.83l-14.57,13.94L483.55,889.76z"/>
			</g>
			<g>
				<path d="M427.57,865.16c0,0,37.53-10,72.42-39.62v-5.87c0,0-31.03,26.47-76.7,40.3v5.19H427.57z"/>
				<path d="M427.57,866.66h-4.28c-0.83,0-1.5-0.67-1.5-1.5v-5.19c0-0.66,0.43-1.24,1.07-1.44c44.86-13.58,75.86-39.74,76.17-40.01
					c0.45-0.38,1.07-0.47,1.6-0.22c0.53,0.25,0.87,0.78,0.87,1.36v5.87c0,0.44-0.19,0.86-0.53,1.14
					c-34.75,29.49-72.63,39.82-73.01,39.92C427.83,866.65,427.71,866.66,427.57,866.66z M424.8,863.66h2.58
					c2.86-0.8,38.3-11.16,71.13-38.81v-2.05c-8.19,6.39-36.06,26.67-73.7,38.28V863.66z"/>
			</g>
			<g>
				<path d="M500,794.65v-7.91c0,0-17.7,22.72-47.83,35.49c-30.13,12.77-44.94,14.55-44.94,14.55l2.55,5.64
					C409.79,842.42,460,833.21,500,794.65z"/>
				<path d="M409.79,843.92c-0.58,0-1.12-0.34-1.37-0.88l-2.55-5.64c-0.2-0.44-0.17-0.94,0.06-1.35c0.23-0.42,0.65-0.7,1.13-0.75
					c0.15-0.02,15.02-1.94,44.53-14.44c29.39-12.46,47.06-34.81,47.23-35.03c0.39-0.51,1.07-0.71,1.67-0.5
					c0.61,0.21,1.01,0.78,1.01,1.42v7.92c0,0.41-0.17,0.8-0.46,1.08c-39.86,38.42-90.48,48.07-90.98,48.16
					C409.97,843.91,409.88,843.92,409.79,843.92z M409.41,837.95l1.25,2.76c7.65-1.66,52.04-12.46,87.84-46.69v-3.23
					c-6.09,6.75-22.27,22.87-45.74,32.82C428.65,833.82,414.39,837.04,409.41,837.95z M500,794.66L500,794.66L500,794.66z"/>
			</g>
			<g>
				<path d="M481.96,804.27c0,0-14.47-20.34-36.68-15.49c-3.06,14.3-10.06,24.07-7.97,39.36c-3.27,4.05-7.1,2.52-7.1,2.52
					s-13.79-33.7-3.06-46.47c10.72-12.77,49.79-3.83,60.26,17.62C484.09,804.62,481.96,804.27,481.96,804.27z"/>
				<path d="M432.02,832.44c-1.35,0-2.28-0.36-2.37-0.39c-0.38-0.15-0.68-0.45-0.83-0.82c-0.58-1.41-14-34.69-2.82-48
					c4.35-5.18,13.04-7.39,23.87-6.05c13.93,1.71,32.04,9.94,38.88,23.97c0.3,0.62,0.15,1.36-0.38,1.8
					c-3.74,3.17-6.37,2.85-6.66,2.8c-0.39-0.06-0.75-0.28-0.98-0.61c-0.14-0.19-13.76-18.91-34.21-15.08
					c-1.02,4.46-2.39,8.47-3.72,12.36c-2.76,8.06-5.36,15.67-4.01,25.52c0.06,0.41-0.06,0.82-0.32,1.15
					C436.26,831.83,433.79,832.44,432.02,832.44z M431.33,829.4c0.89,0.14,2.66,0.12,4.4-1.74c-1.24-10.21,1.42-17.99,4.23-26.22
					c1.4-4.08,2.84-8.3,3.84-12.98c0.12-0.58,0.57-1.03,1.15-1.15c20.56-4.49,34.87,11.86,37.71,15.42
					c0.56-0.11,1.54-0.42,2.83-1.35c-6.75-12.37-23.22-19.67-36-21.24c-9.65-1.19-17.58,0.68-21.2,5
					C419.08,796.12,429.48,824.61,431.33,829.4z"/>
			</g>
			<g>
				<path d="M500,786.74c0,0-29.31-40.09-78.91-10.72c26.23-26.04,63.16-19.19,78.91,2.28V786.74z"/>
				<path d="M500,788.24c-0.47,0-0.92-0.22-1.21-0.61c-0.07-0.1-7.33-9.86-20.4-15.96c-17.44-8.14-36.46-6.25-56.54,5.64
					c-0.65,0.38-1.49,0.22-1.95-0.37c-0.46-0.6-0.41-1.45,0.13-1.98c12.4-12.31,28.2-18.39,44.53-17.11
					c14.81,1.16,28.51,8.47,36.65,19.57c0.19,0.26,0.29,0.57,0.29,0.89v8.44c0,0.65-0.42,1.22-1.03,1.42
					C500.31,788.22,500.15,788.24,500,788.24z M456.45,763.81c9.42,0,17.28,2.36,23.33,5.2c9.08,4.26,15.4,10.08,18.72,13.65v-3.87
					c-7.66-10.18-20.4-16.88-34.17-17.96c-10.95-0.85-21.69,1.8-31.2,7.6C441.68,765.1,449.49,763.81,456.45,763.81z"/>
			</g>
			<g>
				<path d="M500,752.27c0,0-14.13-0.77-23.91,10.72h-18.3c0,0,8.34-25.53,42.21-25.53V752.27z"/>
				<path d="M476.09,764.49h-18.3c-0.48,0-0.93-0.23-1.21-0.62s-0.36-0.89-0.21-1.35c0.09-0.27,9.08-26.57,43.64-26.57
					c0.83,0,1.5,0.67,1.5,1.5v14.81c0,0.41-0.17,0.81-0.47,1.09c-0.3,0.28-0.71,0.42-1.11,0.41l0,0
					c-0.13-0.01-13.53-0.56-22.69,10.2C476.94,764.3,476.52,764.49,476.09,764.49z M460.01,761.49h15.39
					c8.26-9.28,19.07-10.58,23.1-10.72v-11.79C472.4,739.58,462.66,755.75,460.01,761.49z"/>
			</g>
			<g>
				<path d="M43.15,500.02c0,0,57.28,12.09,94.56,47.83l2.8-5.62c0,0-17.61-24.17-58.46-41.77L43.15,500.02z"/>
				<path d="M137.71,549.35c-0.38,0-0.76-0.15-1.04-0.42c-36.53-35.03-93.26-47.33-93.83-47.45c-0.75-0.16-1.27-0.87-1.18-1.63
					c0.08-0.76,0.73-1.34,1.49-1.34c0.01,0,0.01,0,0.02,0l38.9,0.44c0.2,0,0.39,0.04,0.58,0.12c40.76,17.56,58.35,41.27,59.08,42.27
					c0.33,0.45,0.38,1.05,0.13,1.55l-2.8,5.62c-0.21,0.43-0.62,0.73-1.09,0.81C137.88,549.34,137.79,549.35,137.71,549.35z
					 M55.18,501.65c18.53,5.49,55.23,18.75,82.09,43.72l1.48-2.96c-3.27-4.08-21.13-24.92-57.01-40.45L55.18,501.65z"/>
			</g>
			<g>
				<polygon points="105.04,517.52 121.79,500.02 112.89,500.02 97.3,513.76 99.73,518.06 				"/>
				<path d="M99.73,519.56c-0.54,0-1.04-0.29-1.31-0.76l-2.43-4.3c-0.35-0.62-0.22-1.39,0.31-1.86l15.58-13.74
					c0.27-0.24,0.63-0.38,0.99-0.38h8.9c0.6,0,1.14,0.36,1.38,0.91c0.24,0.55,0.12,1.19-0.3,1.63l-16.75,17.51
					c-0.25,0.26-0.58,0.42-0.93,0.46l-5.31,0.54C99.83,519.56,99.78,519.56,99.73,519.56z M105.04,517.52L105.04,517.52
					L105.04,517.52z M99.21,514.08l1.35,2.39l3.78-0.38l13.94-14.57h-4.83L99.21,514.08z"/>
			</g>
			<g>
				<path d="M125.15,572.44c0,0,10-37.53,39.62-72.43h5.87c0,0-26.47,31.03-40.3,76.7h-5.19V572.44z"/>
				<path d="M130.34,578.22h-5.19c-0.83,0-1.5-0.67-1.5-1.5v-4.28c0-0.13,0.02-0.26,0.05-0.39c0.1-0.38,10.43-38.26,39.92-73.01
					c0.29-0.34,0.7-0.53,1.14-0.53h5.87c0.58,0,1.12,0.34,1.36,0.87c0.25,0.53,0.16,1.16-0.22,1.6c-0.26,0.31-26.43,31.34-40,76.17
					C131.59,577.79,131,578.22,130.34,578.22z M126.65,575.22h2.58c11.62-37.64,31.89-65.51,38.28-73.71h-2.05
					c-27.68,32.86-38.01,68.27-38.81,71.13V575.22z"/>
			</g>
			<g>
				<path d="M195.66,500.02h7.91c0,0-22.72,17.7-35.49,47.83c-12.77,30.13-14.55,44.94-14.55,44.94l-5.64-2.55
					C147.9,590.23,157.11,540.02,195.66,500.02z"/>
				<path d="M153.53,594.28c-0.21,0-0.42-0.04-0.62-0.13l-5.64-2.55c-0.63-0.28-0.98-0.96-0.86-1.64
					c0.09-0.51,9.74-51.12,48.16-90.98c0.28-0.29,0.67-0.46,1.08-0.46h7.92c0.64,0,1.21,0.41,1.42,1.01
					c0.21,0.61,0.01,1.28-0.5,1.67c-0.22,0.18-22.58,17.84-35.03,47.23c-12.51,29.51-14.43,44.38-14.45,44.53
					c-0.06,0.47-0.34,0.89-0.75,1.13C154.04,594.22,153.79,594.28,153.53,594.28z M149.61,589.36l2.76,1.25
					c0.91-4.98,4.13-19.24,14.34-43.34c9.95-23.48,26.07-39.66,32.82-45.75h-3.23C162.07,537.32,151.26,581.71,149.61,589.36z"/>
			</g>
			<g>
				<path d="M186.05,518.06c0,0,20.34,14.47,15.49,36.68c-14.3,3.06-24.07,10.06-39.36,7.97c-4.05,3.27-2.52,7.1-2.52,7.1
					s33.7,13.79,46.47,3.06c12.77-10.72,3.83-49.79-17.62-60.26C185.7,515.93,186.05,518.06,186.05,518.06z"/>
				<path d="M191.61,578.45c-14.55,0-31.52-6.85-32.52-7.25c-0.38-0.15-0.67-0.45-0.82-0.83c-0.08-0.2-1.89-4.9,2.97-8.82
					c0.32-0.26,0.73-0.37,1.15-0.32c9.84,1.35,17.45-1.25,25.51-4.01c3.89-1.33,7.9-2.7,12.36-3.72
					c3.83-20.48-14.89-34.07-15.08-34.21c-0.33-0.23-0.55-0.59-0.61-0.98c-0.05-0.29-0.37-2.92,2.8-6.66
					c0.44-0.52,1.19-0.68,1.8-0.38c14.03,6.85,22.26,24.96,23.97,38.89c1.33,10.82-0.88,19.52-6.05,23.86
					C203.21,577.28,197.62,578.45,191.61,578.45z M160.92,568.69c4.8,1.85,33.29,12.23,44.25,3.03c4.32-3.63,6.19-11.55,5-21.2
					c-1.57-12.79-8.87-29.25-21.24-36c-0.92,1.3-1.24,2.28-1.35,2.83c3.56,2.84,19.91,17.15,15.42,37.71
					c-0.13,0.57-0.58,1.02-1.15,1.15c-4.68,1-8.9,2.45-12.98,3.84c-8.23,2.81-16,5.47-26.21,4.23
					C160.81,566.02,160.78,567.81,160.92,568.69z M201.54,554.74L201.54,554.74L201.54,554.74z"/>
			</g>
			<g>
				<path d="M203.58,500.02c0,0,40.09,29.31,10.72,78.91c26.04-26.23,19.19-63.16-2.28-78.91H203.58z"/>
				<path d="M214.3,580.42c-0.32,0-0.65-0.1-0.92-0.31c-0.6-0.46-0.76-1.3-0.37-1.95c11.91-20.12,13.79-39.18,5.58-56.65
					c-6.12-13.03-15.8-20.21-15.9-20.28c-0.52-0.38-0.74-1.06-0.54-1.68c0.2-0.62,0.78-1.03,1.43-1.03h8.44
					c0.32,0,0.63,0.1,0.89,0.29c11.09,8.14,18.41,21.84,19.57,36.65c1.28,16.32-4.8,32.13-17.11,44.53
					C215.07,580.28,214.69,580.42,214.3,580.42z M207.66,501.52c3.57,3.32,9.38,9.63,13.65,18.72c4.94,10.53,8.43,26.53,0.57,46.66
					c5.8-9.51,8.46-20.24,7.6-31.2c-1.08-13.78-7.78-26.51-17.96-34.17H207.66z"/>
			</g>
			<g>
				<path d="M238.05,500.02c0,0,0.77,14.13-10.72,23.91v18.3c0,0,25.53-8.34,25.53-42.21H238.05z"/>
				<path d="M227.32,543.73c-0.31,0-0.62-0.1-0.88-0.29c-0.39-0.28-0.62-0.73-0.62-1.21v-18.3c0-0.44,0.19-0.86,0.53-1.14
					c10.76-9.16,10.21-22.56,10.2-22.69c-0.02-0.41,0.13-0.81,0.41-1.11s0.68-0.47,1.09-0.47h14.81c0.83,0,1.5,0.67,1.5,1.5
					c0,34.56-26.3,43.55-26.57,43.64C227.64,543.7,227.48,543.73,227.32,543.73z M228.82,524.61V540
					c5.74-2.64,21.92-12.38,22.51-38.49h-11.79C239.4,505.54,238.1,516.36,228.82,524.61z"/>
			</g>
			<path d="M442.27,888.44c-0.07,0-0.14,0-0.21-0.01c-42.95-5.97-84.42-18.71-123.25-37.87c-37.88-18.69-72.52-43.1-102.96-72.56
				c-30.4-29.42-55.88-63.18-75.73-100.34c-20.31-38.01-34.3-78.8-41.58-121.22c-0.14-0.82,0.41-1.59,1.22-1.73
				c0.82-0.14,1.59,0.41,1.73,1.22c29.66,172.88,166.69,305.3,340.98,329.53c0.82,0.11,1.39,0.87,1.28,1.69
				C443.65,887.9,443.01,888.44,442.27,888.44z"/>
			<path d="M395.73,744.75c-0.19,0-0.38-0.03-0.56-0.11c-33.22-13.3-63.21-32.66-89.12-57.53c-25.87-24.83-46.38-53.91-60.99-86.44
				c-0.34-0.76,0-1.64,0.75-1.98c0.76-0.34,1.64,0,1.98,0.75c28.85,64.27,82.98,116.18,148.49,142.42c0.77,0.31,1.14,1.18,0.83,1.95
				C396.89,744.4,396.32,744.75,395.73,744.75z"/>
			<path d="M306.28,686.75c-0.37,0-0.75-0.14-1.04-0.42c-0.6-0.57-0.62-1.52-0.05-2.12l126.31-132.13c0.57-0.6,1.52-0.62,2.12-0.05
				c0.6,0.57,0.62,1.52,0.05,2.12L307.37,686.29C307.07,686.6,306.68,686.75,306.28,686.75z"/>
		</g>
		<g>
			<path d="M956.85,481.35c-0.41,0-0.81-0.17-1.1-0.48c-0.36-0.39-8.98-9.9-21.7-36.1l0,0c-12.09-24.89-18.31-61-18.96-64.86
				c-3.55-5.21-6.45-10.28-8.63-15.08c-10.9-23.93-17.32-46.06-18.17-49.04c-26.71-30.18-37.59-58.33-38.94-62.01
				c-22.86-19.2-36.41-42.72-38.24-46.01c-1.2-0.69-2.41-1.39-3.62-2.1c-27.76-16.23-41.44-33.25-43.57-36.03
				c-17.95-6.4-33.89-22.67-36.26-25.17c-25.17-7.21-46.36-23.57-49.02-25.68c-2.13-0.46-4.27-0.99-6.37-1.58
				c-20.63-5.8-35.94-15.31-41.93-19.41c-6.46,0.02-12.44-0.14-17.75-0.44c-26.22-1.54-33.09-10.86-34.69-14.08
				c-0.73-0.03-1.44-0.08-2.14-0.15c-16.38-1.67-47.32-26.27-50.79-29.07c-0.51-0.41-0.71-1.11-0.47-1.72
				c0.24-0.61,0.79-1.02,1.49-0.96c36.13,2.44,71.92,9.07,106.37,19.68c18.83,5.8,37.5,12.89,55.5,21.07
				c18.69,8.49,36.98,18.31,54.38,29.19c13.64,8.53,26.93,17.82,39.5,27.64c0.04,0.02,0.08,0.05,0.11,0.08
				c12.98,10.14,25.53,21.04,37.3,32.42c0.04,0.03,0.08,0.06,0.11,0.1c15.93,15.4,30.85,32.05,44.34,49.48
				c14.39,18.57,27.43,38.37,38.77,58.85c0.03,0.04,0.06,0.09,0.08,0.13c10.58,19.11,19.86,39.15,27.58,59.57
				c7.84,20.74,14.2,42.19,18.88,63.74c4.75,21.77,7.92,44.12,9.41,66.42c0.04,0.63-0.32,1.23-0.91,1.48
				C957.25,481.31,957.05,481.35,956.85,481.35z M679.61,115.94c0.27,0.06,0.52,0.19,0.72,0.37c0.16,0.13,22.18,17.96,48.56,25.4
				c0.24,0.07,0.45,0.19,0.63,0.36c0.02,0.02,0.05,0.05,0.07,0.07c0.17,0.18,17.23,18.39,35.76,24.82c0.23,0.08,0.43,0.21,0.59,0.38
				c0.04,0.05,0.1,0.11,0.13,0.16c0.55,0.75,13.78,18.53,42.94,35.58c1.33,0.78,2.66,1.55,3.97,2.29c0.24,0.14,0.45,0.35,0.58,0.59
				c0.13,0.25,13.8,25.53,38.04,45.77c0.21,0.18,0.37,0.4,0.46,0.66c0.1,0.29,10.47,29.82,38.72,61.65c0.15,0.17,0.26,0.38,0.32,0.6
				c0.06,0.23,6.54,23.56,18.1,48.94c2.15,4.72,5.03,9.74,8.56,14.91c0.13,0.18,0.21,0.39,0.24,0.61
				c0.06,0.38,6.22,38.57,18.75,64.36c8.17,16.84,14.7,26.75,18.25,31.62c-1.6-20.53-4.62-41.06-9-61.1
				c-4.66-21.41-10.97-42.72-18.76-63.32c-7.65-20.24-16.84-40.1-27.33-59.04c-0.03-0.04-0.06-0.09-0.08-0.13
				c-11.28-20.39-24.27-40.11-38.59-58.6c-13.38-17.29-28.17-33.8-43.97-49.08c-0.04-0.04-0.09-0.07-0.13-0.11
				c-11.67-11.29-24.14-22.13-37.03-32.2c-0.04-0.02-0.08-0.05-0.11-0.08c-12.53-9.78-25.77-19.05-39.35-27.54
				c-17.29-10.81-35.47-20.57-54.04-29.01c-17.88-8.13-36.44-15.17-55.14-20.93c-32.67-10.07-66.55-16.52-100.78-19.2
				c9.25,7.09,32.63,24.11,45.37,25.41c0.92,0.09,1.89,0.14,2.88,0.16c0.66,0.01,1.24,0.46,1.42,1.1
				c0.03,0.09,3.76,11.26,32.41,12.95c5.37,0.31,11.45,0.46,18.04,0.44c0.33-0.02,0.61,0.09,0.86,0.27
				c5.57,3.85,20.77,13.45,41.42,19.26C675.23,114.93,677.43,115.47,679.61,115.94L679.61,115.94z"/>
			<path d="M579.88,83.32c-0.34,0-0.67,0-0.99-0.01c-1.06-0.02-2.11-0.08-3.12-0.18c-16.38-1.67-47.32-26.27-50.79-29.07
				c-0.03-0.03-0.09-0.07-0.12-0.1c-0.6-0.57-0.63-1.53-0.05-2.13c0.56-0.58,1.47-0.62,2.07-0.1c1.84,1.48,33.54,26.81,49.19,28.41
				c0.92,0.09,1.89,0.14,2.88,0.16c17.56,0.33,52.23-9.16,52.57-9.25c0.93-0.27,1.92,0.48,1.92,1.44c0,0.72-0.51,1.33-1.19,1.47
				C630.27,74.51,597.7,83.32,579.88,83.32z"/>
			<path d="M629.58,97.8c-6.18,0-11.88-0.15-16.98-0.44c-31.11-1.83-34.98-14.61-35.13-15.15c-0.22-0.8,0.25-1.62,1.05-1.84
				c0.79-0.22,1.61,0.24,1.84,1.03c0.07,0.21,3.89,11.29,32.42,12.97c5.37,0.31,11.45,0.46,18.04,0.44
				c27.03-0.07,56.01-2.77,56.29-2.79c0.87-0.09,1.66,0.61,1.66,1.49c0,0.81-0.63,1.46-1.42,1.5c-1.54,0.14-29.97,2.73-56.51,2.8
				C630.4,97.8,629.99,97.8,629.58,97.8z"/>
			<path d="M739.22,124.11c-8.31,0-37.73-0.37-60.23-5.23c-0.04-0.01-0.08-0.02-0.12-0.03c-2.21-0.47-4.43-1.02-6.6-1.63
				c-21.09-5.93-36.62-15.74-42.32-19.68c-0.68-0.47-0.85-1.41-0.38-2.09c0.47-0.68,1.41-0.85,2.09-0.38
				c5.57,3.85,20.77,13.45,41.42,19.26c2.14,0.6,4.34,1.14,6.52,1.61l0,0c0.04,0.01,0.07,0.02,0.11,0.03
				c25.57,5.52,60.25,5.16,61.72,5.14l0.03,3h-0.01C741.26,124.1,740.48,124.11,739.22,124.11z"/>
			<path d="M780.94,151.73c-0.05,0-0.11,0-0.16-0.01l-0.21-0.02c-5.2-0.49-32-3.11-48.67-6.12c-1.34-0.32-2.59-0.65-3.83-0.99
				c-0.05-0.01-0.1-0.03-0.14-0.05c-26.05-7.38-47.9-24.64-49.48-25.9c-0.4-0.27-0.66-0.73-0.66-1.24c0-0.83,0.67-1.5,1.5-1.5
				c0.37,0,0.75,0.15,1.03,0.4c0.16,0.13,22.18,17.96,48.56,25.4c0.04,0.01,0.09,0.03,0.13,0.04c1.16,0.32,2.33,0.63,3.51,0.91
				c16.47,2.97,43.16,5.57,48.34,6.06l0.2,0.02c0.77,0.06,1.38,0.71,1.38,1.49C782.44,151.06,781.77,151.73,780.94,151.73z"/>
			<path d="M818.23,184.14c-0.15,0-0.29-0.02-0.43-0.06c-1.97-0.44-34.82-7.84-53.43-14.28c-0.04-0.02-0.09-0.03-0.13-0.05
				c-19.18-6.71-36.14-24.81-36.86-25.57c-0.55-0.59-0.54-1.52,0.04-2.09c0.58-0.57,1.5-0.58,2.08-0.02l0.01,0.01
				c0.23,0.25,17.29,18.46,35.83,24.89c0.04,0.02,0.09,0.03,0.13,0.05c18.96,6.54,52.73,14.09,53.06,14.16
				c0.11,0.02,0.21,0.06,0.31,0.11c0.52,0.23,0.89,0.76,0.89,1.37C819.73,183.47,819.06,184.14,818.23,184.14z"/>
			<path d="M862.43,233.46c-0.19,0-0.39-0.04-0.57-0.11c-0.22-0.09-22.37-9.33-50.37-25.37c-1.31-0.75-2.65-1.52-3.99-2.31
				c-29.49-17.24-43.09-35.38-43.83-36.38c-0.46-0.6-0.4-1.46,0.16-2c0.6-0.57,1.54-0.55,2.12,0.05l0.01,0.01
				c0.04,0.05,0.09,0.1,0.12,0.15c0.55,0.75,13.78,18.53,42.94,35.58c1.33,0.78,2.66,1.55,3.97,2.29
				c27.82,15.94,49.81,25.12,50.03,25.21c0.76,0.32,1.13,1.19,0.81,1.96C863.58,233.11,863.02,233.46,862.43,233.46z"/>
			<path d="M901.17,292.26c-0.25,0-0.5-0.06-0.73-0.19c-0.04-0.02-0.08-0.05-0.12-0.07c-2.7-1.81-26.99-18.21-50.65-37.96
				c-24.7-20.63-38.62-46.4-38.76-46.65c-0.39-0.73-0.11-1.64,0.62-2.03c0.73-0.39,1.64-0.12,2.03,0.62
				c0.13,0.25,13.8,25.53,38.04,45.77c23.33,19.49,47.29,35.69,50.31,37.72c0.13,0.07,0.24,0.16,0.34,0.27
				c0.57,0.6,0.55,1.55-0.05,2.13C901.91,292.12,901.54,292.26,901.17,292.26z"/>
			<path d="M928.66,351.63c-0.35,0-0.67-0.12-0.93-0.33c-14.32-10.22-27.51-22.09-39.2-35.27c-28.68-32.31-39.21-62.37-39.32-62.67
				c-0.27-0.78,0.15-1.64,0.93-1.91c0.79-0.27,1.64,0.15,1.91,0.93c0.1,0.29,10.47,29.82,38.72,61.65
				c11.55,13.03,24.59,24.76,38.75,34.85c0.08,0.06,0.15,0.12,0.22,0.19c0.26,0.27,0.42,0.64,0.42,1.04
				C930.16,350.96,929.49,351.63,928.66,351.63z"/>
			<path d="M946.48,414.77c-0.72-0.61-18.22-15.64-31.19-34.59c-3.63-5.31-6.6-10.48-8.82-15.36c-11.66-25.6-18.2-49.15-18.26-49.38
				c-0.22-0.8,0.25-1.62,1.05-1.84c0.8-0.22,1.62,0.25,1.84,1.05c0.06,0.23,6.54,23.56,18.1,48.94c2.15,4.72,5.03,9.74,8.56,14.91
				c12.74,18.62,29.96,33.4,30.68,34.02l-0.96,1.15L946.48,414.77z"/>
			<path d="M956.85,481.35c-0.41,0-0.81-0.16-1.1-0.48c-0.36-0.39-8.98-9.9-21.7-36.1c-12.72-26.2-18.95-64.81-19.01-65.2
				c-0.13-0.82,0.43-1.59,1.25-1.72s1.59,0.43,1.72,1.25c0.06,0.38,6.22,38.57,18.75,64.36c12.49,25.72,21.12,35.29,21.21,35.38
				c0.56,0.61,0.52,1.56-0.09,2.12C957.58,481.22,957.22,481.35,956.85,481.35z"/>
			<g>
				<path d="M956.85,500.03c0,0-57.53-65.02-89.19-92.94c-31.66-27.91-83.26-33.36-132.01-8.17
					c-48.76,25.19-128.07,67.4-160.41,38.13c-32.34-29.28,11.23-108.6,33.02-160.68s21.11-98.72-22.47-138.89S500,52.87,500,52.87
					s33.36,38.48,71.49,80.94c38.13,42.47,36.77,105.1,1.36,176.59s-34.38,119.83-6.47,151.83c18.38,19.4,79.66,10.89,137.87-26.89
					s113.7-59.57,168.17-9.53S956.85,500.03,956.85,500.03z"/>
				<path d="M956.85,501.53c-0.33,0-0.66-0.11-0.94-0.33c-0.3-0.24-30.62-24.77-84.5-74.28c-52.03-47.8-104.12-30.7-166.34,9.69
					c-61.13,39.68-121.63,45.82-139.78,26.67c-29.98-34.37-27.94-84.57,6.21-153.53c36.26-73.22,35.87-133.71-1.13-174.93
					c-37.7-41.99-71.17-80.58-71.51-80.96c-0.53-0.62-0.48-1.55,0.13-2.09c0.6-0.55,1.53-0.51,2.1,0.08
					c0.42,0.44,42.68,44.86,85.72,84.53c40.2,37.06,47.45,81.73,22.83,140.58c-3.33,7.95-7.12,16.46-11.14,25.46
					c-21.77,48.76-48.86,109.44-22.25,133.53c30.76,27.85,105.53-10.83,155.01-36.43l3.71-1.92
					c47.57-24.58,100.04-21.29,133.69,8.38c31.37,27.66,88.75,92.42,89.33,93.07c0.52,0.58,0.5,1.47-0.04,2.03
					C957.65,501.37,957.25,501.53,956.85,501.53z M803.88,395.14c25.12,0,47.99,9.75,69.56,29.57
					c30.9,28.39,54.03,48.54,68.18,60.61c-19.11-21.06-53.29-58-74.95-77.1c-32.71-28.84-83.87-31.97-130.33-7.96l-3.71,1.92
					c-50.21,25.98-126.1,65.23-158.4,35.99c-28.22-25.55-0.63-87.33,21.53-136.98c4.01-8.99,7.8-17.48,11.12-25.4
					c24.06-57.53,17.04-101.13-22.1-137.21c-17.24-15.89-34.36-32.55-48.72-46.84c10.86,12.31,23.45,26.49,36.55,41.08
					c19,21.17,28.64,47.55,28.64,78.42c0,30.01-9.1,63.6-27.05,99.85c-33.55,67.75-35.74,116.87-6.68,150.18
					c8.67,9.15,27.86,11.91,52.61,7.51c26.55-4.72,56.14-17.03,83.32-34.67c35.15-22.82,61.7-34.51,86.1-37.93
					C794.4,395.48,799.18,395.14,803.88,395.14z"/>
			</g>
			<g>
				<path d="M500,52.87c0,0,12.09,57.28,47.83,94.56l-5.62,2.8c0,0-24.17-17.61-41.77-58.46L500,52.87z"/>
				<path d="M542.21,151.73c-0.31,0-0.62-0.1-0.88-0.29c-1-0.73-24.7-18.32-42.27-59.08c-0.08-0.18-0.12-0.38-0.12-0.58l-0.44-38.9
					c-0.01-0.77,0.57-1.42,1.34-1.51c0.76-0.09,1.47,0.43,1.63,1.18c0.12,0.57,12.42,57.31,47.45,93.83
					c0.33,0.34,0.48,0.82,0.39,1.29c-0.08,0.47-0.38,0.87-0.81,1.09l-5.62,2.8C542.67,151.68,542.44,151.73,542.21,151.73z
					 M501.94,91.45c15.55,35.94,36.37,53.76,40.45,57.02l2.96-1.48c-24.96-26.86-38.23-63.56-43.71-82.09L501.94,91.45z"/>
			</g>
			<g>
				<polygon points="517.51,114.76 500,131.52 500,122.61 513.74,107.03 518.04,109.46 				"/>
				<path d="M500,133.02c-0.2,0-0.4-0.04-0.59-0.12c-0.55-0.24-0.91-0.78-0.91-1.38v-8.9c0-0.37,0.13-0.72,0.38-0.99l13.74-15.58
					c0.47-0.53,1.24-0.66,1.86-0.31l4.3,2.43c0.52,0.29,0.81,0.86,0.75,1.46l-0.54,5.31c-0.04,0.36-0.2,0.69-0.46,0.93l-17.51,16.75
					C500.75,132.87,500.38,133.02,500,133.02z M501.5,123.18V128l14.57-13.94l0.38-3.78l-2.39-1.35L501.5,123.18z M517.51,114.76
					L517.51,114.76L517.51,114.76z"/>
			</g>
			<g>
				<path d="M572.42,134.88c0,0-37.53,10-72.42,39.62v5.87c0,0,31.03-26.47,76.7-40.3v-5.19H572.42z"/>
				<path d="M500,181.87c-0.21,0-0.43-0.05-0.63-0.14c-0.53-0.25-0.87-0.78-0.87-1.36v-5.87c0-0.44,0.19-0.86,0.53-1.14
					c34.75-29.49,72.63-39.82,73.01-39.92c0.13-0.03,0.25-0.05,0.39-0.05h4.28c0.83,0,1.5,0.67,1.5,1.5v5.19
					c0,0.66-0.43,1.24-1.07,1.44c-44.86,13.58-75.86,39.74-76.17,40C500.7,181.74,500.35,181.87,500,181.87z M501.5,175.19v2.05
					c8.19-6.39,36.06-26.67,73.71-38.28v-2.58h-2.58C569.77,137.18,534.33,147.54,501.5,175.19z"/>
			</g>
			<g>
				<path d="M500,205.39v7.91c0,0,17.7-22.72,47.83-35.49c30.13-12.77,44.94-14.55,44.94-14.55l-2.55-5.64
					C590.21,157.62,540,166.83,500,205.39z"/>
				<path d="M500,214.8c-0.16,0-0.33-0.03-0.49-0.08c-0.61-0.21-1.01-0.78-1.01-1.42v-7.92c0-0.41,0.17-0.8,0.46-1.08
					c39.86-38.42,90.48-48.07,90.98-48.16c0.68-0.12,1.35,0.23,1.64,0.86l2.55,5.64c0.2,0.43,0.17,0.94-0.06,1.35
					c-0.23,0.42-0.65,0.7-1.13,0.75c-0.15,0.02-15.02,1.94-44.53,14.44c-29.43,12.47-47.06,34.81-47.23,35.03
					C500.89,214.6,500.45,214.8,500,214.8z M501.5,206.03v3.23c6.09-6.75,22.27-22.87,45.75-32.82
					c24.1-10.21,38.36-13.43,43.34-14.34l-1.25-2.76C581.69,160.99,537.3,171.79,501.5,206.03z"/>
			</g>
			<g>
				<path d="M518.04,195.77c0,0,14.47,20.34,36.68,15.49c3.06-14.3,10.06-24.07,7.97-39.36c3.27-4.05,7.1-2.52,7.1-2.52
					s13.79,33.7,3.06,46.47c-10.72,12.77-49.79,3.83-60.26-17.62C515.91,195.43,518.04,195.77,518.04,195.77z"/>
				<path d="M556.09,223.25c-1.9,0-3.88-0.13-5.95-0.38c-13.93-1.71-32.04-9.94-38.89-23.98c-0.3-0.62-0.15-1.36,0.38-1.8
					c3.74-3.17,6.37-2.85,6.66-2.8c0.39,0.06,0.75,0.28,0.98,0.61c0.14,0.19,13.75,18.9,34.21,15.08c1.02-4.46,2.39-8.47,3.72-12.36
					c2.76-8.06,5.36-15.68,4.01-25.52c-0.06-0.41,0.06-0.82,0.32-1.15c3.92-4.86,8.62-3.05,8.82-2.97c0.38,0.15,0.68,0.45,0.83,0.82
					c0.58,1.41,14,34.69,2.82,48C570.48,221.01,564.12,223.25,556.09,223.25z M514.5,198.66c6.75,12.37,23.22,19.67,36,21.24
					c9.65,1.18,17.57-0.69,21.2-5c9.21-10.97-1.19-39.46-3.03-44.25c-0.89-0.14-2.66-0.12-4.4,1.74
					c1.24,10.21-1.42,17.99-4.23,26.22c-1.4,4.08-2.84,8.3-3.84,12.98c-0.12,0.58-0.57,1.03-1.15,1.15
					c-20.57,4.49-34.87-11.85-37.71-15.42C516.78,197.42,515.8,197.73,514.5,198.66z"/>
			</g>
			<g>
				<path d="M500,213.3c0,0,29.31,40.09,78.91,10.72c-26.23,26.04-63.16,19.19-78.91-2.28V213.3z"/>
				<path d="M539.7,242.37c-1.42,0-2.84-0.06-4.26-0.17c-14.81-1.16-28.51-8.47-36.65-19.57c-0.19-0.26-0.29-0.57-0.29-0.89v-8.44
					c0-0.65,0.42-1.22,1.03-1.42c0.62-0.2,1.29,0.02,1.68,0.54c0.07,0.1,7.33,9.86,20.4,15.96c17.44,8.14,36.47,6.25,56.54-5.64
					c0.65-0.39,1.49-0.22,1.95,0.37c0.46,0.6,0.41,1.45-0.13,1.98C568.65,236.32,554.49,242.37,539.7,242.37z M501.5,221.25
					c7.66,10.18,20.4,16.88,34.18,17.96c10.95,0.86,21.69-1.8,31.2-7.6c-20.13,7.85-36.13,4.37-46.66-0.57
					c-9.08-4.26-15.4-10.08-18.72-13.65V221.25z"/>
			</g>
			<g>
				<path d="M500,247.77c0,0,14.13,0.77,23.91-10.72h18.3c0,0-8.34,25.53-42.21,25.53V247.77z"/>
				<path d="M500,264.08c-0.83,0-1.5-0.67-1.5-1.5v-14.81c0-0.41,0.17-0.81,0.47-1.09c0.3-0.28,0.7-0.44,1.11-0.41l0,0
					c0.13,0.01,13.53,0.56,22.69-10.2c0.29-0.33,0.7-0.53,1.14-0.53h18.3c0.48,0,0.93,0.23,1.21,0.62c0.28,0.39,0.36,0.89,0.21,1.35
					C543.55,237.78,534.56,264.08,500,264.08z M501.5,249.27v11.79c25.79-0.61,35.75-16.81,38.46-22.51H524.6
					C516.34,247.83,505.53,249.12,501.5,249.27z"/>
			</g>
			<g>
				<path d="M956.85,500.03c0,0-57.28-12.09-94.56-47.83l-2.8,5.62c0,0,17.61,24.17,58.46,41.77L956.85,500.03z"/>
				<path d="M956.85,501.53c-0.01,0-0.01,0-0.02,0l-38.9-0.44c-0.2,0-0.39-0.04-0.58-0.12c-40.76-17.56-58.35-41.27-59.08-42.27
					c-0.33-0.45-0.38-1.05-0.13-1.55l2.8-5.62c0.21-0.43,0.62-0.73,1.09-0.81c0.47-0.08,0.95,0.07,1.29,0.4
					c36.54,35.04,93.26,47.32,93.83,47.44c0.75,0.16,1.27,0.87,1.18,1.63C958.26,500.95,957.62,501.53,956.85,501.53z
					 M918.27,498.09l26.55,0.3c-18.53-5.49-55.23-18.75-82.09-43.71l-1.48,2.96C864.52,461.72,882.39,482.56,918.27,498.09z"/>
			</g>
			<g>
				<polygon points="894.96,482.52 878.21,500.03 887.11,500.03 902.7,486.29 900.27,481.98 				"/>
				<path d="M887.11,501.53h-8.91c-0.6,0-1.14-0.36-1.38-0.91c-0.24-0.55-0.12-1.19,0.3-1.63l16.75-17.51
					c0.25-0.26,0.58-0.42,0.93-0.46l5.31-0.54c0.6-0.05,1.16,0.24,1.46,0.75l2.43,4.3c0.35,0.62,0.22,1.39-0.31,1.86l-15.58,13.74
					C887.83,501.39,887.48,501.53,887.11,501.53z M881.72,498.53h4.83l14.25-12.56l-1.35-2.39l-3.78,0.38L881.72,498.53z"/>
			</g>
			<g>
				<path d="M874.85,427.6c0,0-10,37.53-39.62,72.42h-5.87c0,0,26.47-31.03,40.3-76.7h5.19V427.6z"/>
				<path d="M835.23,501.53h-5.87c-0.58,0-1.12-0.34-1.36-0.87c-0.25-0.53-0.16-1.16,0.22-1.6c0.26-0.31,26.43-31.34,40-76.17
					c0.19-0.63,0.77-1.07,1.44-1.07h5.19c0.83,0,1.5,0.67,1.5,1.5v4.28c0,0.13-0.02,0.26-0.05,0.39
					c-0.1,0.38-10.43,38.26-39.92,73.01C836.09,501.33,835.67,501.53,835.23,501.53z M832.49,498.53h2.05
					c27.68-32.86,38.01-68.27,38.81-71.13v-2.58h-2.58C859.15,462.46,838.88,490.33,832.49,498.53z M874.85,427.6L874.85,427.6
					L874.85,427.6z"/>
			</g>
			<g>
				<path d="M804.34,500.03h-7.91c0,0,22.72-17.7,35.49-47.83c12.77-30.13,14.55-44.94,14.55-44.94l5.64,2.55
					C852.1,409.81,842.89,460.03,804.34,500.03z"/>
				<path d="M804.34,501.53h-7.92c-0.64,0-1.21-0.41-1.42-1.01c-0.21-0.61-0.01-1.28,0.5-1.67c0.22-0.17,22.58-17.84,35.03-47.23
					c12.51-29.52,14.43-44.38,14.45-44.53c0.06-0.47,0.34-0.89,0.75-1.13c0.42-0.23,0.92-0.26,1.35-0.06l5.64,2.55
					c0.63,0.28,0.98,0.96,0.86,1.64c-0.09,0.51-9.74,51.12-48.16,90.98C805.13,501.36,804.74,501.53,804.34,501.53z M800.47,498.53
					h3.23c34.24-35.8,45.04-80.19,46.69-87.84l-2.76-1.25c-0.91,4.98-4.13,19.24-14.34,43.35
					C823.34,476.26,807.22,492.44,800.47,498.53z"/>
			</g>
			<g>
				<path d="M813.95,481.98c0,0-20.34-14.47-15.49-36.68c14.3-3.06,24.07-10.06,39.36-7.97c4.05-3.27,2.52-7.1,2.52-7.1
					s-33.7-13.79-46.47-3.06c-12.77,10.72-3.83,49.79,17.62,60.26C814.3,484.11,813.95,481.98,813.95,481.98z"/>
				<path d="M811.48,488.93c-0.22,0-0.45-0.05-0.66-0.15c-14.03-6.85-22.26-24.96-23.98-38.89c-1.33-10.82,0.88-19.52,6.05-23.87
					c13.3-11.18,46.59,2.25,48,2.82c0.38,0.15,0.67,0.45,0.82,0.83c0.08,0.2,1.89,4.9-2.97,8.82c-0.32,0.26-0.73,0.38-1.15,0.32
					c-9.84-1.35-17.45,1.25-25.51,4.01c-3.89,1.33-7.9,2.7-12.36,3.72c-3.82,20.44,14.89,34.07,15.08,34.21
					c0.33,0.23,0.55,0.59,0.61,0.98c0.05,0.29,0.37,2.92-2.8,6.66C812.34,488.75,811.92,488.93,811.48,488.93z M808.27,424.57
					c-5.31,0-10.16,1-13.44,3.75c-4.32,3.63-6.19,11.55-5,21.2c1.57,12.78,8.87,29.25,21.24,36c0.92-1.3,1.24-2.28,1.35-2.84
					c-3.56-2.83-19.91-17.15-15.42-37.71c0.13-0.57,0.58-1.02,1.15-1.15c4.67-1,8.9-2.45,12.98-3.84c8.23-2.81,16-5.47,26.21-4.23
					c1.85-1.74,1.88-3.51,1.74-4.4C835.72,430.06,820.72,424.57,808.27,424.57z"/>
			</g>
			<g>
				<path d="M796.42,500.03c0,0-40.09-29.31-10.72-78.91c-26.04,26.23-19.19,63.16,2.28,78.91H796.42z"/>
				<path d="M796.42,501.53h-8.44c-0.32,0-0.63-0.1-0.89-0.29c-11.09-8.14-18.41-21.84-19.57-36.65
					c-1.28-16.32,4.8-32.13,17.11-44.53c0.53-0.54,1.38-0.59,1.98-0.13c0.6,0.46,0.76,1.3,0.37,1.95
					c-11.91,20.12-13.79,39.18-5.58,56.65c6.12,13.03,15.8,20.21,15.9,20.28c0.52,0.38,0.74,1.06,0.54,1.68
					S797.07,501.53,796.42,501.53z M788.47,498.53h3.87c-3.57-3.32-9.38-9.63-13.65-18.72c-4.94-10.53-8.43-26.53-0.57-46.66
					c-5.8,9.51-8.46,20.24-7.6,31.2C771.59,478.13,778.29,490.87,788.47,498.53z"/>
			</g>
			<g>
				<path d="M761.95,500.03c0,0-0.77-14.13,10.72-23.91v-18.3c0,0-25.53,8.34-25.53,42.21H761.95z"/>
				<path d="M761.95,501.53h-14.81c-0.83,0-1.5-0.67-1.5-1.5c0-34.56,26.3-43.55,26.57-43.64c0.46-0.15,0.96-0.07,1.35,0.21
					c0.39,0.28,0.62,0.73,0.62,1.21v18.3c0,0.44-0.19,0.86-0.53,1.14c-10.76,9.16-10.21,22.56-10.2,22.69
					c0.02,0.41-0.13,0.81-0.41,1.11S762.36,501.53,761.95,501.53z M748.66,498.53h11.79c0.15-4.03,1.44-14.84,10.72-23.1v-15.39
					C765.44,462.68,749.26,472.42,748.66,498.53z"/>
			</g>
			<path d="M899.98,445.36c-0.72,0-1.35-0.52-1.48-1.25c-29.66-172.88-166.69-305.3-340.98-329.52c-0.82-0.11-1.39-0.87-1.28-1.69
				c0.11-0.82,0.87-1.39,1.69-1.28c42.95,5.97,84.42,18.71,123.25,37.87c37.88,18.69,72.52,43.1,102.96,72.56
				c30.4,29.42,55.88,63.18,75.73,100.34c20.31,38.01,34.3,78.8,41.58,121.23c0.14,0.82-0.41,1.59-1.22,1.73
				C900.15,445.35,900.07,445.36,899.98,445.36z"/>
			<path d="M753.57,401.49c-0.57,0-1.12-0.33-1.37-0.89c-28.85-64.27-82.98-116.18-148.49-142.42c-0.77-0.31-1.14-1.18-0.83-1.95
				c0.31-0.77,1.18-1.14,1.95-0.83c33.22,13.3,63.21,32.66,89.12,57.53c25.87,24.83,46.38,53.91,60.99,86.44
				c0.34,0.76,0,1.64-0.75,1.98C753.99,401.44,753.78,401.49,753.57,401.49z"/>
			<path d="M567.4,448.42c-0.37,0-0.75-0.14-1.04-0.42c-0.6-0.57-0.62-1.52-0.05-2.12l126.31-132.13c0.57-0.6,1.52-0.62,2.12-0.05
				c0.6,0.57,0.62,1.52,0.05,2.12L568.49,447.96C568.19,448.26,567.8,448.42,567.4,448.42z"/>
		</g>
		<g>
			<path d="M525.89,948.66c-0.61,0-1.17-0.38-1.4-0.95c-0.24-0.61-0.05-1.3,0.46-1.71c3.49-2.81,34.42-27.41,50.81-29.08
				c0.7-0.07,1.41-0.12,2.14-0.15c1.6-3.21,8.47-12.53,34.69-14.08c5.3-0.31,11.25-0.46,17.75-0.44c5.99-4.1,21.3-13.61,41.93-19.41
				c2.1-0.59,4.24-1.12,6.37-1.58c2.93-2.32,24.01-18.51,49.02-25.67c2.38-2.5,18.33-18.77,36.26-25.17
				c2.13-2.78,15.78-19.78,43.57-36.03c1.22-0.71,2.43-1.41,3.63-2.1c1.83-3.29,15.38-26.81,38.24-46.01
				c1.35-3.67,12.24-31.83,38.94-62.01c0.84-2.98,7.26-25.12,18.17-49.04c2.18-4.79,5.08-9.87,8.63-15.08
				c0.64-3.86,6.87-39.97,18.96-64.87c12.72-26.2,21.33-35.71,21.7-36.1c0.43-0.47,1.11-0.61,1.7-0.36
				c0.58,0.25,0.95,0.84,0.91,1.48c-1.49,22.3-4.66,44.64-9.41,66.42c-4.69,21.55-11.04,43-18.88,63.74
				c-7.72,20.42-17,40.46-27.58,59.57c-0.03,0.05-0.05,0.09-0.08,0.14c-11.34,20.48-24.38,40.28-38.77,58.85
				c-13.49,17.43-28.41,34.08-44.34,49.48c-0.04,0.04-0.08,0.08-0.13,0.11c-11.82,11.42-24.34,22.3-37.28,32.4
				c-0.04,0.03-0.08,0.06-0.12,0.08c-12.57,9.81-25.86,19.11-39.5,27.64c-17.4,10.88-35.69,20.71-54.38,29.19
				c-17.99,8.18-36.66,15.27-55.5,21.07c-34.45,10.62-70.24,17.24-106.37,19.68C525.96,948.66,525.93,948.66,525.89,948.66z
				 M629.55,905.24c-6.11,0-11.75,0.15-16.78,0.44c-28.65,1.69-32.38,12.86-32.42,12.97c-0.19,0.62-0.76,1.07-1.41,1.08
				c-0.99,0.02-1.96,0.07-2.88,0.16c-12.76,1.3-36.14,18.34-45.36,25.41c34.24-2.68,68.11-9.13,100.78-19.2
				c18.71-5.76,37.26-12.8,55.14-20.93c18.57-8.44,36.75-18.19,54.04-29.01c13.59-8.5,26.83-17.76,39.35-27.54
				c0.04-0.03,0.08-0.06,0.11-0.08c12.89-10.07,25.35-20.91,37.05-32.21c0.03-0.03,0.07-0.06,0.1-0.09
				c15.79-15.27,30.59-31.79,43.97-49.08c14.33-18.49,27.31-38.2,38.59-58.6c0.03-0.05,0.05-0.09,0.08-0.14
				c10.48-18.94,19.68-38.8,27.32-59.04c7.79-20.6,14.1-41.91,18.76-63.32c4.37-20.04,7.4-40.58,9-61.1
				c-3.55,4.87-10.08,14.78-18.25,31.62l0,0c-12.53,25.8-18.69,63.98-18.75,64.36c-0.04,0.22-0.12,0.43-0.24,0.61
				c-3.54,5.17-6.42,10.18-8.56,14.9c-11.57,25.39-18.04,48.7-18.1,48.94c-0.06,0.22-0.17,0.43-0.32,0.6
				c-28.28,31.87-38.62,61.36-38.72,61.65c-0.09,0.26-0.25,0.49-0.46,0.66c-24.26,20.26-37.9,45.51-38.04,45.77
				c-0.13,0.25-0.33,0.46-0.58,0.59c-1.31,0.75-2.63,1.52-3.97,2.29c-29.2,17.07-42.39,34.83-42.93,35.58
				c-0.05,0.06-0.1,0.12-0.15,0.17c-0.16,0.16-0.36,0.29-0.58,0.37c-18.51,6.42-35.59,24.64-35.76,24.82
				c-0.03,0.03-0.06,0.06-0.09,0.09c-0.17,0.16-0.39,0.28-0.61,0.34c-26.38,7.44-48.4,25.27-48.62,25.45
				c-0.19,0.15-0.42,0.26-0.66,0.31l0,0c-2.18,0.47-4.37,1.01-6.52,1.61c-20.65,5.81-35.85,15.41-41.42,19.26
				c-0.25,0.17-0.55,0.27-0.85,0.27c0,0,0,0,0,0C630.39,905.24,629.96,905.24,629.55,905.24z M935.4,555.93L935.4,555.93
				L935.4,555.93z"/>
			<path d="M525.9,948.65c-0.42,0-0.84-0.17-1.14-0.52c-0.53-0.62-0.48-1.53,0.12-2.07c0.02-0.02,0.06-0.05,0.08-0.07
				c3.49-2.81,34.42-27.41,50.81-29.08c1.01-0.1,2.05-0.16,3.12-0.18c17.73-0.3,51.96,8.96,53.4,9.36c0.65,0.16,1.14,0.75,1.14,1.46
				c0,0.83-0.67,1.5-1.5,1.5h-0.01c-0.14,0-0.28-0.02-0.41-0.06c-0.34-0.1-34.98-9.62-52.57-9.25c-0.99,0.02-1.96,0.07-2.88,0.16
				c-15.79,1.61-47.85,27.33-49.2,28.42C526.57,948.54,526.23,948.65,525.9,948.65z"/>
			<path d="M578.91,919.72c-0.14,0-0.28-0.02-0.41-0.06c-0.79-0.23-1.25-1.04-1.03-1.83c0.15-0.54,4.02-13.32,35.13-15.15
				c5.43-0.32,11.55-0.46,18.22-0.44c26.69,0.07,55.59,2.71,56.55,2.8c0.77,0.06,1.38,0.71,1.38,1.5c0,0.83-0.66,1.5-1.49,1.5h-0.02
				c-0.05,0-0.1,0-0.15-0.01c-0.27-0.03-29.4-2.72-56.28-2.79c-6.6-0.01-12.67,0.13-18.04,0.44c-28.65,1.69-32.38,12.86-32.42,12.97
				C580.16,919.3,579.56,919.72,578.91,919.72z"/>
			<path d="M630.81,905.24c-0.48,0-0.94-0.23-1.23-0.65c-0.47-0.68-0.3-1.62,0.38-2.09c5.7-3.94,21.22-13.75,42.32-19.68
				c2.18-0.61,4.4-1.16,6.6-1.63c0.04-0.01,0.08-0.02,0.12-0.03c25.82-5.59,60.99-5.24,62.47-5.22c0.83,0.01,1.49,0.68,1.49,1.51
				s-0.67,1.49-1.5,1.49c-1.49-0.02-36.27-0.36-61.75,5.14c-0.04,0.01-0.07,0.02-0.11,0.03l0,0c-2.18,0.47-4.37,1.01-6.52,1.61
				c-20.65,5.81-35.85,15.41-41.42,19.26C631.41,905.16,631.11,905.24,630.81,905.24z"/>
			<path d="M679.29,884.14c-0.83,0-1.5-0.67-1.5-1.5c0-0.53,0.27-0.99,0.69-1.26c2.15-1.72,23.77-18.61,49.47-25.89
				c0.04-0.02,0.09-0.03,0.13-0.04c1.24-0.35,2.5-0.67,3.74-0.97c16.29-2.95,41.42-5.44,48.73-6.13l0.23-0.02
				c0.86-0.09,1.65,0.62,1.65,1.49c0,0.8-0.62,1.45-1.41,1.5l-0.19,0.02c-5.19,0.49-31.89,3.1-48.4,6.08
				c-1.1,0.27-2.27,0.57-3.44,0.9c-0.04,0.01-0.08,0.03-0.12,0.04c-26.38,7.44-48.4,25.27-48.62,25.45
				C680,884.01,679.64,884.14,679.29,884.14z"/>
			<path d="M728.48,858.39c-0.41,0-0.81-0.16-1.11-0.49c-0.54-0.6-0.52-1.51,0.05-2.07c1.09-1.17,17.9-18.93,36.83-25.54
				c0.04-0.02,0.08-0.04,0.12-0.05c18.68-6.46,51.35-13.81,53.42-14.28c0.14-0.04,0.29-0.07,0.44-0.07c0.83,0,1.5,0.67,1.5,1.5
				c0,0.59-0.34,1.1-0.83,1.34c-0.12,0.06-0.24,0.1-0.37,0.13c-0.33,0.07-34,7.58-53.07,14.16c-0.04,0.02-0.08,0.03-0.12,0.05
				c-18.51,6.42-35.59,24.64-35.76,24.82c-0.03,0.03-0.06,0.06-0.09,0.09C729.2,858.26,728.84,858.39,728.48,858.39z"/>
			<path d="M764.86,833.16c-0.38,0-0.77-0.15-1.06-0.44c-0.55-0.55-0.59-1.42-0.1-2.01c1.01-1.36,14.6-19.27,43.8-36.34
				c1.34-0.78,2.68-1.55,3.99-2.31c28-16.04,50.15-25.28,50.37-25.37c0.77-0.32,1.64,0.05,1.96,0.81c0.32,0.77-0.05,1.64-0.81,1.96
				c-0.22,0.09-22.21,9.26-50.03,25.21c-1.31,0.75-2.63,1.52-3.97,2.29c-29.2,17.07-42.39,34.83-42.93,35.58
				c-0.05,0.06-0.1,0.12-0.15,0.17C765.63,833.02,765.24,833.16,764.86,833.16z"/>
			<path d="M812.23,794.87c-0.24,0-0.48-0.06-0.71-0.18c-0.73-0.39-1.01-1.3-0.62-2.03c0.14-0.26,14.06-26.03,38.76-46.65
				c23.58-19.7,47.93-36.14,50.63-37.95c0.07-0.05,0.15-0.09,0.24-0.13c0.56-0.26,1.24-0.16,1.69,0.3c0.59,0.59,0.59,1.53,0,2.12
				l-0.01,0.01c-0.1,0.1-0.21,0.18-0.33,0.25c-3.15,2.12-27.09,18.33-50.3,37.71c-24.23,20.24-37.9,45.51-38.04,45.77
				C813.29,794.58,812.77,794.87,812.23,794.87z"/>
			<path d="M850.63,748.66c-0.16,0-0.33-0.03-0.49-0.08c-0.78-0.27-1.2-1.12-0.93-1.91c0.1-0.3,10.64-30.36,39.32-62.67
				c11.69-13.18,24.88-25.05,39.2-35.27c0.26-0.2,0.58-0.32,0.93-0.32c0.83,0,1.5,0.67,1.5,1.5c0,0.42-0.17,0.79-0.44,1.06
				c-0.06,0.06-0.13,0.12-0.2,0.17c-14.16,10.1-27.19,21.83-38.75,34.85c-28.28,31.87-38.62,61.36-38.72,61.65
				C851.84,748.27,851.26,748.66,850.63,748.66z"/>
			<path d="M889.65,686.5c-0.13,0-0.27-0.02-0.4-0.05c-0.8-0.22-1.27-1.05-1.05-1.84c0.06-0.24,6.6-23.78,18.26-49.38
				c2.22-4.88,5.19-10.04,8.82-15.35c12.96-18.95,30.47-33.98,31.21-34.61c0.63-0.53,1.56-0.47,2.11,0.14
				c0.54,0.62,0.5,1.54-0.11,2.1l-0.01,0.01c-0.76,0.65-17.98,15.43-30.72,34.06c-3.54,5.17-6.42,10.18-8.56,14.9
				c-11.56,25.38-18.03,48.7-18.1,48.94C890.92,686.07,890.31,686.5,889.65,686.5z"/>
			<path d="M916.53,622.21c-0.08,0-0.16-0.01-0.24-0.02c-0.82-0.13-1.38-0.9-1.25-1.72c0.06-0.39,6.29-39,19.01-65.2
				c12.72-26.2,21.33-35.71,21.7-36.1c0.56-0.61,1.51-0.65,2.12-0.09c0.61,0.56,0.65,1.51,0.09,2.12
				c-0.09,0.09-8.72,9.66-21.21,35.38c-12.53,25.8-18.69,63.98-18.75,64.36C917.89,621.69,917.25,622.21,916.53,622.21z"/>
			<g>
				<path d="M956.85,500.02c0,0-57.53,65.02-89.19,92.94c-31.66,27.91-83.26,33.36-132.01,8.17
					c-48.76-25.19-128.07-67.4-160.41-38.13c-32.34,29.28,11.23,108.6,33.02,160.68s21.11,98.72-22.47,138.89S500,947.17,500,947.17
					s33.36-38.48,71.49-80.95c38.13-42.47,36.77-105.1,1.36-176.59s-34.38-119.83-6.47-151.83c18.38-19.4,79.66-10.89,137.87,26.89
					s113.7,59.57,168.17,9.53C926.89,524.19,956.85,500.02,956.85,500.02z"/>
				<path d="M500,948.67c-0.36,0-0.72-0.13-1.01-0.39c-0.6-0.55-0.66-1.48-0.13-2.09c0.33-0.38,33.81-38.98,71.51-80.96
					c37-41.21,37.4-101.7,1.13-174.92c-34.15-68.96-36.2-119.16-6.25-153.48c18.19-19.2,78.69-13.06,139.82,26.62
					c62.22,40.38,114.31,57.49,166.34,9.69c53.88-49.5,84.2-74.03,84.5-74.28c0.61-0.49,1.49-0.43,2.03,0.13
					c0.54,0.56,0.55,1.45,0.04,2.03c-0.58,0.65-57.96,65.41-89.33,93.07c-33.65,29.67-86.13,32.95-133.69,8.38l-3.71-1.92
					c-49.48-25.59-124.24-64.27-155.01-36.43c-26.61,24.09,0.49,84.77,22.26,133.53c4.02,9,7.82,17.51,11.14,25.46
					c24.62,58.85,17.36,103.52-22.83,140.58c-43.04,39.68-85.29,84.09-85.72,84.53C500.79,948.51,500.4,948.67,500,948.67z
					 M598.71,529.23c-14.3,0-25.25,3.28-31.24,9.6c-29.01,33.26-26.83,82.39,6.72,150.13c17.95,36.24,27.05,69.84,27.05,99.85
					c0,30.87-9.64,57.25-28.64,78.41c-13.1,14.59-25.69,28.77-36.55,41.08c14.36-14.29,31.47-30.94,48.72-46.84
					c39.14-36.08,46.16-79.68,22.1-137.21c-3.31-7.92-7.1-16.41-11.11-25.39c-22.17-49.65-49.75-111.43-21.53-136.98
					c32.3-29.24,108.19,10.01,158.4,35.99l3.71,1.92c46.46,24,97.62,20.88,130.33-7.96c21.66-19.1,55.85-56.04,74.95-77.1
					c-14.15,12.06-37.28,32.22-68.18,60.61c-25.61,23.53-53.06,32.87-83.9,28.55c-24.4-3.42-50.95-15.11-86.1-37.93
					c-27.17-17.64-56.76-29.95-83.32-34.67C612.39,529.91,605.21,529.23,598.71,529.23z"/>
			</g>
			<g>
				<path d="M500,947.17c0,0,12.09-57.28,47.83-94.56l-5.62-2.8c0,0-24.17,17.61-41.77,58.46L500,947.17z"/>
				<path d="M500,948.67c-0.05,0-0.11,0-0.17-0.01c-0.77-0.08-1.34-0.74-1.34-1.51l0.44-38.9c0-0.2,0.04-0.39,0.12-0.58
					c17.56-40.76,41.27-58.35,42.27-59.08c0.45-0.33,1.05-0.38,1.55-0.13l5.62,2.8c0.43,0.21,0.73,0.62,0.81,1.09
					c0.08,0.47-0.06,0.95-0.39,1.29c-35.04,36.54-47.33,93.26-47.45,93.83C501.32,948.18,500.7,948.67,500,948.67z M501.94,908.59
					l-0.3,26.55c5.49-18.53,18.75-55.23,43.71-82.09l-2.96-1.48C538.3,854.84,517.47,872.71,501.94,908.59z"/>
			</g>
			<g>
				<polygon points="517.51,885.28 500,868.53 500,877.43 513.74,893.02 518.04,890.59 				"/>
				<path d="M513.74,894.52c-0.42,0-0.83-0.18-1.13-0.51l-13.74-15.58c-0.24-0.27-0.38-0.63-0.38-0.99v-8.9
					c0-0.6,0.36-1.14,0.91-1.38c0.55-0.23,1.19-0.12,1.63,0.3l17.51,16.75c0.26,0.25,0.42,0.58,0.46,0.93l0.54,5.31
					c0.06,0.59-0.24,1.16-0.75,1.46l-4.3,2.43C514.25,894.45,513.99,894.52,513.74,894.52z M501.5,876.87l12.56,14.25l2.39-1.35
					l-0.38-3.78l-14.57-13.94V876.87z"/>
			</g>
			<g>
				<path d="M572.42,865.16c0,0-37.53-10-72.42-39.62v-5.87c0,0,31.03,26.47,76.7,40.3v5.19H572.42z"/>
				<path d="M576.7,866.66h-4.28c-0.13,0-0.26-0.02-0.39-0.05c-0.38-0.1-38.26-10.43-73.01-39.92c-0.34-0.29-0.53-0.7-0.53-1.14
					v-5.87c0-0.58,0.34-1.12,0.87-1.36c0.53-0.24,1.16-0.16,1.6,0.22c0.31,0.26,31.34,26.43,76.17,40.01
					c0.63,0.19,1.07,0.77,1.07,1.44v5.19C578.2,865.99,577.53,866.66,576.7,866.66z M572.63,863.66h2.58v-2.58
					c-37.64-11.62-65.51-31.89-73.71-38.28v2.05C534.36,852.53,569.77,862.86,572.63,863.66z"/>
			</g>
			<g>
				<path d="M500,794.65v-7.91c0,0,17.7,22.72,47.83,35.49c30.13,12.77,44.94,14.55,44.94,14.55l-2.55,5.64
					C590.21,842.42,540,833.21,500,794.65z"/>
				<path d="M590.21,843.92c-0.09,0-0.18-0.01-0.27-0.02c-0.51-0.09-51.12-9.74-90.98-48.16c-0.29-0.28-0.46-0.67-0.46-1.08v-7.92
					c0-0.64,0.41-1.21,1.01-1.42c0.6-0.21,1.28-0.01,1.67,0.5c0.18,0.22,17.84,22.57,47.23,35.03
					c29.52,12.51,44.39,14.43,44.53,14.44c0.47,0.06,0.89,0.34,1.13,0.75c0.23,0.42,0.26,0.92,0.06,1.35l-2.55,5.64
					C591.33,843.58,590.79,843.92,590.21,843.92z M501.5,794.02c35.83,34.26,80.2,45.04,87.84,46.69l1.25-2.76
					c-4.98-0.91-19.24-4.13-43.34-14.34c-23.48-9.95-39.66-26.07-45.75-32.82V794.02z"/>
			</g>
			<g>
				<path d="M518.04,804.27c0,0,14.47-20.34,36.68-15.49c3.06,14.3,10.06,24.07,7.97,39.36c3.27,4.05,7.1,2.52,7.1,2.52
					s13.79-33.7,3.06-46.47c-10.72-12.77-49.79-3.83-60.26,17.62C515.91,804.62,518.04,804.27,518.04,804.27z"/>
				<path d="M567.98,832.44c-1.76,0-4.23-0.61-6.45-3.36c-0.26-0.32-0.38-0.74-0.32-1.15c1.35-9.84-1.25-17.46-4.01-25.52
					c-1.33-3.89-2.7-7.9-3.72-12.36c-20.48-3.83-34.07,14.89-34.21,15.08c-0.23,0.33-0.59,0.55-0.98,0.61
					c-0.29,0.05-2.92,0.37-6.66-2.8c-0.52-0.44-0.68-1.19-0.38-1.8c6.85-14.03,24.96-22.26,38.89-23.97
					c10.82-1.33,19.52,0.88,23.87,6.05c11.18,13.31-2.25,46.59-2.82,48c-0.15,0.38-0.45,0.67-0.83,0.82
					C570.26,832.08,569.33,832.44,567.98,832.44z M564.27,827.66c1.74,1.85,3.51,1.88,4.41,1.74c1.85-4.8,12.24-33.29,3.03-44.25
					c-3.63-4.32-11.56-6.19-21.2-5c-12.78,1.57-29.25,8.87-36,21.24c1.3,0.92,2.28,1.24,2.84,1.35c2.84-3.56,17.15-19.9,37.71-15.42
					c0.57,0.13,1.02,0.58,1.15,1.15c1,4.67,2.45,8.9,3.84,12.98C562.85,809.67,565.51,817.45,564.27,827.66z M518.04,804.27
					L518.04,804.27L518.04,804.27z"/>
			</g>
			<g>
				<path d="M500,786.74c0,0,29.31-40.09,78.91-10.72c-26.23-26.04-63.16-19.19-78.91,2.28V786.74z"/>
				<path d="M500,788.24c-0.16,0-0.31-0.02-0.47-0.07c-0.62-0.2-1.03-0.78-1.03-1.43v-8.44c0-0.32,0.1-0.63,0.29-0.89
					c8.14-11.09,21.84-18.41,36.65-19.57c16.32-1.28,32.13,4.8,44.52,17.11c0.54,0.53,0.59,1.38,0.13,1.98
					c-0.46,0.6-1.3,0.76-1.95,0.37c-20.12-11.91-39.18-13.79-56.65-5.58c-13.03,6.12-20.21,15.8-20.28,15.9
					C500.92,788.02,500.47,788.24,500,788.24z M501.5,778.79v3.87c3.32-3.57,9.63-9.38,18.72-13.65
					c10.53-4.94,26.53-8.43,46.66-0.57c-9.51-5.8-20.24-8.45-31.2-7.6C521.9,761.91,509.16,768.61,501.5,778.79z"/>
			</g>
			<g>
				<path d="M500,752.27c0,0,14.13-0.77,23.91,10.72h18.3c0,0-8.34-25.53-42.21-25.53V752.27z"/>
				<path d="M542.21,764.49h-18.3c-0.44,0-0.86-0.19-1.14-0.53c-9.16-10.76-22.57-10.21-22.69-10.2c-0.41,0.01-0.81-0.13-1.11-0.41
					c-0.3-0.28-0.47-0.68-0.47-1.09v-14.81c0-0.83,0.67-1.5,1.5-1.5c34.56,0,43.55,26.3,43.64,26.57c0.15,0.46,0.07,0.96-0.21,1.35
					S542.69,764.49,542.21,764.49z M524.6,761.49h15.39c-2.64-5.74-12.38-21.92-38.49-22.51v11.79
					C505.52,750.92,516.34,752.22,524.6,761.49z"/>
			</g>
			<g>
				<path d="M956.85,500.02c0,0-57.28,12.09-94.56,47.83l-2.8-5.62c0,0,17.61-24.17,58.46-41.77L956.85,500.02z"/>
				<path d="M862.29,549.35c-0.08,0-0.17-0.01-0.26-0.02c-0.47-0.08-0.87-0.38-1.09-0.81l-2.8-5.62c-0.25-0.5-0.2-1.1,0.13-1.55
					c0.73-1,18.32-24.71,59.08-42.27c0.18-0.08,0.38-0.12,0.58-0.12l38.9-0.44c0.01,0,0.01,0,0.02,0c0.76,0,1.41,0.57,1.49,1.34
					c0.08,0.77-0.43,1.47-1.18,1.63c-0.57,0.12-57.3,12.42-93.83,47.45C863.05,549.2,862.68,549.35,862.29,549.35z M861.26,542.4
					l1.48,2.96c26.86-24.96,63.56-38.23,82.09-43.72l-26.55,0.3C882.39,517.48,864.52,538.32,861.26,542.4z"/>
			</g>
			<g>
				<polygon points="894.96,517.52 878.21,500.02 887.11,500.02 902.7,513.76 900.27,518.06 				"/>
				<path d="M900.27,519.56c-0.05,0-0.1,0-0.15-0.01l-5.31-0.54c-0.36-0.04-0.69-0.2-0.93-0.46l-16.75-17.51
					c-0.42-0.43-0.53-1.07-0.3-1.63c0.24-0.55,0.78-0.91,1.38-0.91h8.91c0.37,0,0.72,0.13,0.99,0.38l15.58,13.74
					c0.53,0.47,0.66,1.25,0.31,1.86l-2.43,4.3C901.31,519.27,900.81,519.56,900.27,519.56z M895.66,516.09l3.78,0.38l1.35-2.39
					l-14.25-12.56h-4.83L895.66,516.09z"/>
			</g>
			<g>
				<path d="M874.85,572.44c0,0-10-37.53-39.62-72.43h-5.87c0,0,26.47,31.03,40.3,76.7h5.19V572.44z"/>
				<path d="M874.85,578.22h-5.19c-0.66,0-1.24-0.43-1.44-1.07c-13.57-44.83-39.74-75.86-40-76.17c-0.38-0.45-0.47-1.07-0.22-1.6
					c0.25-0.53,0.78-0.87,1.36-0.87h5.87c0.44,0,0.86,0.19,1.14,0.53c29.5,34.75,39.82,72.63,39.92,73.01
					c0.03,0.13,0.05,0.25,0.05,0.39v4.28C876.35,577.55,875.68,578.22,874.85,578.22z M870.77,575.22h2.58v-2.58
					c-0.8-2.86-11.16-38.3-38.81-71.13h-2.05C838.88,509.71,859.15,537.58,870.77,575.22z"/>
			</g>
			<g>
				<path d="M804.34,500.02h-7.91c0,0,22.72,17.7,35.49,47.83c12.77,30.13,14.55,44.94,14.55,44.94l5.64-2.55
					C852.1,590.23,842.89,540.02,804.34,500.02z"/>
				<path d="M846.47,594.28c-0.25,0-0.51-0.06-0.74-0.19c-0.42-0.23-0.7-0.65-0.75-1.13c-0.02-0.15-1.94-15.02-14.45-44.53
					c-12.47-29.43-34.81-47.06-35.03-47.23c-0.5-0.39-0.71-1.07-0.5-1.67c0.21-0.61,0.78-1.01,1.42-1.01h7.92
					c0.41,0,0.8,0.17,1.08,0.46c38.42,39.86,48.07,90.48,48.16,90.98c0.12,0.68-0.23,1.35-0.86,1.64l-5.64,2.55
					C846.89,594.24,846.68,594.28,846.47,594.28z M800.47,501.52c6.75,6.09,22.87,22.27,32.82,45.75
					c10.21,24.1,13.43,38.36,14.34,43.34l2.76-1.25c-1.65-7.65-12.46-52.04-46.69-87.84H800.47z"/>
			</g>
			<g>
				<path d="M813.95,518.06c0,0-20.34,14.47-15.49,36.68c14.3,3.06,24.07,10.06,39.36,7.97c4.05,3.27,2.52,7.1,2.52,7.1
					s-33.7,13.79-46.47,3.06c-12.77-10.72-3.83-49.79,17.62-60.26C814.3,515.93,813.95,518.06,813.95,518.06z"/>
				<path d="M808.39,578.45c-6,0-11.6-1.17-15.48-4.43c-5.18-4.35-7.38-13.04-6.05-23.86c1.71-13.93,9.94-32.04,23.98-38.89
					c0.62-0.3,1.36-0.14,1.8,0.38c3.17,3.74,2.85,6.37,2.8,6.66c-0.06,0.4-0.28,0.75-0.61,0.98c-0.19,0.14-18.9,13.77-15.08,34.21
					c4.46,1.02,8.47,2.39,12.36,3.72c8.06,2.76,15.68,5.36,25.51,4.01c0.41-0.05,0.83,0.06,1.15,0.32c4.86,3.92,3.05,8.62,2.97,8.82
					c-0.15,0.38-0.45,0.68-0.82,0.83C839.91,571.6,822.94,578.45,808.39,578.45z M811.07,514.52c-12.37,6.75-19.67,23.22-21.24,36
					c-1.19,9.65,0.68,17.57,5,21.2c10.96,9.21,39.46-1.19,44.25-3.03c0.14-0.89,0.12-2.66-1.74-4.4
					c-10.21,1.24-17.99-1.42-26.21-4.23c-4.08-1.4-8.31-2.84-12.98-3.84c-0.58-0.12-1.03-0.57-1.15-1.15
					c-4.49-20.56,11.85-34.87,15.42-37.71C812.31,516.79,811.99,515.82,811.07,514.52z M813.95,518.06L813.95,518.06L813.95,518.06z
					 M813.95,518.06L813.95,518.06L813.95,518.06z"/>
			</g>
			<g>
				<path d="M796.42,500.02c0,0-40.09,29.31-10.72,78.91c-26.04-26.23-19.19-63.16,2.28-78.91H796.42z"/>
				<path d="M785.7,580.42c-0.39,0-0.77-0.15-1.06-0.44c-12.31-12.4-18.39-28.21-17.11-44.53c1.16-14.81,8.47-28.51,19.57-36.65
					c0.26-0.19,0.57-0.29,0.89-0.29h8.44c0.65,0,1.22,0.42,1.42,1.03c0.2,0.62-0.02,1.29-0.54,1.68c-0.1,0.07-9.86,7.33-15.96,20.4
					c-8.14,17.44-6.24,36.47,5.64,56.54c0.39,0.65,0.23,1.49-0.37,1.95C786.34,580.32,786.02,580.42,785.7,580.42z M788.47,501.52
					c-10.18,7.66-16.88,20.4-17.96,34.17c-0.86,10.96,1.8,21.69,7.6,31.2c-7.85-20.13-4.37-36.13,0.57-46.66
					c4.26-9.08,10.08-15.4,13.65-18.72H788.47z"/>
			</g>
			<g>
				<path d="M761.95,500.02c0,0-0.77,14.13,10.72,23.91v18.3c0,0-25.53-8.34-25.53-42.21H761.95z"/>
				<path d="M772.68,543.73c-0.16,0-0.31-0.02-0.47-0.07c-0.27-0.09-26.57-9.08-26.57-43.64c0-0.83,0.67-1.5,1.5-1.5h14.81
					c0.41,0,0.81,0.17,1.09,0.47s0.43,0.7,0.41,1.11l0,0c-0.01,0.13-0.56,13.53,10.2,22.69c0.33,0.29,0.53,0.7,0.53,1.14v18.3
					c0,0.48-0.23,0.93-0.62,1.21C773.3,543.63,772.99,543.73,772.68,543.73z M748.66,501.52c0.61,25.79,16.81,35.75,22.51,38.46
					v-15.36c-9.28-8.26-10.58-19.07-10.72-23.1H748.66z"/>
			</g>
			<path d="M557.73,888.44c-0.74,0-1.38-0.54-1.48-1.29c-0.11-0.82,0.46-1.58,1.28-1.69c174.29-24.22,311.32-156.65,340.98-329.53
				c0.14-0.82,0.91-1.36,1.73-1.22c0.82,0.14,1.36,0.92,1.22,1.73c-7.28,42.43-21.27,83.21-41.58,121.22
				c-19.86,37.16-45.34,70.92-75.73,100.34c-30.43,29.46-65.07,53.87-102.96,72.56c-38.84,19.16-80.31,31.9-123.25,37.87
				C557.87,888.44,557.8,888.44,557.73,888.44z"/>
			<path d="M604.27,744.75c-0.59,0-1.16-0.36-1.39-0.94c-0.31-0.77,0.07-1.64,0.83-1.95c65.51-26.23,119.63-78.14,148.49-142.42
				c0.34-0.76,1.23-1.09,1.98-0.75c0.76,0.34,1.09,1.23,0.75,1.98c-14.6,32.53-35.12,61.61-60.99,86.44
				c-25.91,24.87-55.9,44.23-89.12,57.53C604.65,744.72,604.46,744.75,604.27,744.75z"/>
			<path d="M693.72,686.75c-0.4,0-0.79-0.16-1.08-0.46L566.32,554.16c-0.57-0.6-0.55-1.55,0.05-2.12c0.6-0.57,1.55-0.55,2.12,0.05
				L694.8,684.22c0.57,0.6,0.55,1.55-0.05,2.12C694.46,686.62,694.09,686.75,693.72,686.75z"/>
		</g>
	</g>
	<g>
		<path d="M500,557.46c-31.67,0-57.44-25.77-57.44-57.44s25.77-57.44,57.44-57.44s57.44,25.77,57.44,57.44S531.67,557.46,500,557.46
			z M500,445.25c-30.2,0-54.77,24.57-54.77,54.77c0,30.2,24.57,54.77,54.77,54.77s54.77-24.57,54.77-54.77
			C554.77,469.82,530.2,445.25,500,445.25z"/>
		<path d="M500,574.06c-40.83,0-74.04-33.22-74.04-74.04c0-40.83,33.22-74.04,74.04-74.04s74.04,33.22,74.04,74.04
			C574.04,540.85,540.83,574.06,500,574.06z M500,428.65c-39.35,0-71.37,32.02-71.37,71.37c0,39.35,32.02,71.37,71.37,71.37
			s71.37-32.02,71.37-71.37C571.37,460.67,539.35,428.65,500,428.65z"/>
		<path d="M500,476.59l-12.7,11.71c4.33,7.51,8.87,11.04,8.87,11.04l3.83-3.19v1.14l-4.85,4.55l-36.99-39.2l12.21-10.28
			c3.99,13.88,14.08,29.01,14.08,29.01l11.71-11.26c-8.64-8.08-8.39-24.86-8.39-24.86l3.95-0.72c-0.25,9.78,8.28,21.15,8.28,21.15
			V476.59z"/>
		<path d="M500,506.16l-13.95,7.51l-35.25-39.23l-3.63,6.66l15.34,16.42l-17.79,12.12l2.66,8.01l18.54-11.71l11.01,9.44
			l-22.95,15.13c0,0,4.44,9.55,11.26,12.17L500,508.55V506.16z"/>
		<path d="M500,525.61c0,0-15.85,12.66-24.56,24.86l6.07,2.53c0,0,12.2-15,18.49-20.34V525.61z"/>
		<path d="M500,465.68c0,0,9.62-7.92,18.02-18.8l8.73,3.82c0,0-16.52,16.46-26.75,25.9s-6.1,0-6.1,0L500,465.68z"/>
		<polygon points="500,496.15 537.72,458.49 547.71,470.49 495.15,501.84 		"/>
		<path d="M509.91,491.61c0,0,24.48,29.37,38.52,36.75l3-5.88c0,0-21.71-17.11-35.02-35.53
			C514.94,488.65,509.91,491.61,509.91,491.61z"/>
		<polygon points="524.49,500.02 552.94,481.4 555.18,489.86 531.65,509.57 		"/>
		<polygon points="500,506.16 504.36,503.55 539.84,539.52 531.04,546.76 512.77,525.61 504.7,531.64 518.5,553 510.34,555.17 
			497.02,535.44 500,525.61 511.41,516.06 502.65,506.73 497.02,511.47 		"/>
	</g>
</g>
</svg>
