<?xml version="1.0" encoding="utf-8"?>
<!-- Generator: Adobe Illustrator 24.1.2, SVG Export Plug-In . SVG Version: 6.00 Build 0)  -->
<svg version="1.1" id="Layer_1" xmlns="http://www.w3.org/2000/svg" xmlns:xlink="http://www.w3.org/1999/xlink" x="0px" y="0px"
	 viewBox="0 0 1000 1000" style="enable-background:new 0 0 1000 1000;" xml:space="preserve">
<g>
	<path d="M937.06,318.94c-23.89-55.39-58.1-105.14-101.66-147.85c-43.57-42.71-94.29-76.25-150.78-99.67
		C626.15,47.17,564.03,34.87,500,34.87s-126.14,12.3-184.62,36.55c-56.48,23.42-107.21,56.96-150.77,99.67
		c-43.57,42.72-77.77,92.46-101.67,147.85C38.2,376.29,25.66,437.2,25.66,500S38.2,623.71,62.94,681.06
		c23.9,55.39,58.1,105.14,101.67,147.85c43.56,42.71,94.29,76.25,150.77,99.67c58.48,24.25,120.59,36.55,184.62,36.55
		s126.15-12.3,184.62-36.55c56.49-23.42,107.21-56.96,150.78-99.67c43.56-42.71,77.77-92.46,101.66-147.85
		C961.8,623.71,974.34,562.8,974.34,500S961.8,376.29,937.06,318.94z M500,961.13C240.65,961.13,29.66,754.27,29.66,500
		S240.65,38.87,500,38.87S970.34,245.73,970.34,500S759.35,961.13,500,961.13z"/>
	<path d="M929.62,632.64c0.02-0.06,0.03-0.11,0.05-0.17c0-0.02,0.01-0.04,0.01-0.05c13.68-42.7,20.62-87.24,20.62-132.41
		c0-51.11-8.83-101.2-26.25-148.9c-0.01-0.04-0.02-0.07-0.03-0.1c-0.02-0.04-0.03-0.08-0.04-0.11c-4.13-11.3-8.83-22.62-13.94-33.64
		c-0.01-0.03-0.02-0.05-0.04-0.08c-0.03-0.08-0.07-0.17-0.12-0.24c0-0.01,0-0.02-0.01-0.03c-13.82-29.7-31.07-57.97-51.29-84.01
		c-0.02-0.03-0.03-0.05-0.06-0.08c-0.04-0.07-0.08-0.13-0.13-0.19c-0.05-0.07-0.11-0.14-0.18-0.21c-0.02-0.03-0.05-0.07-0.08-0.1
		c-16.5-21.2-35.04-41.02-55.12-58.92c-0.06-0.06-0.12-0.12-0.19-0.17c-0.02-0.02-0.04-0.04-0.07-0.06
		c-4.99-4.46-10.1-8.81-15.16-12.92c-0.09-0.09-0.18-0.17-0.28-0.24c-20.53-16.69-42.67-31.67-65.82-44.52
		c-0.06-0.04-0.12-0.06-0.18-0.09c-0.04-0.02-0.07-0.04-0.11-0.05c-27.34-15.15-56.33-27.49-86.17-36.67
		C591.53,65.25,546.1,58.45,500,58.45c-48.53,0-96.26,7.53-141.88,22.37c-10.55,3.43-21.03,7.28-31.37,11.5
		c-10.33,4.23-20.52,8.84-30.48,13.81c-0.04,0.02-0.08,0.04-0.12,0.06c-0.02,0.01-0.03,0.02-0.05,0.03
		c-27.44,13.68-53.59,30.23-77.69,49.21c-0.04,0.02-0.08,0.05-0.12,0.08c-0.01,0-0.01,0.01-0.01,0.01
		c-0.02,0.01-0.03,0.02-0.04,0.04c-0.24,0.18-0.47,0.37-0.71,0.55c-0.09,0.07-0.19,0.15-0.29,0.24c-0.04,0.04-0.08,0.07-0.12,0.11
		c0-0.01,0-0.01,0-0.01c-0.05,0.04-0.11,0.09-0.17,0.14c-13,10.3-25.59,21.48-37.43,33.25c-0.01,0-0.01,0-0.02,0.01
		c-11.99,11.91-23.41,24.62-33.92,37.77c-0.01,0.01-0.02,0.02-0.03,0.04c-2.65,1.3-4.67,3.88-6.01,7.7
		c-14.23,18.59-27.03,38.41-38.06,58.91c-0.03,0.04-0.05,0.09-0.07,0.14c-0.01,0.02-0.02,0.03-0.03,0.05
		c-10.45,19.43-19.46,39.77-26.8,60.49c0,0,0,0.01,0,0.01c-0.02,0.03-0.03,0.06-0.04,0.1c0,0-0.01,0.01-0.01,0.02
		c-0.01,0.03-0.02,0.06-0.03,0.08C58.04,401.63,49.7,450.36,49.7,500c0,48.2,7.87,95.58,23.39,140.82
		c1.92,5.57,3.96,11.19,6.11,16.68c0.01,0.02,0.01,0.03,0.02,0.05c0.01,0.04,0.03,0.07,0.05,0.11
		c5.78,14.85,12.46,29.54,19.86,43.66c0,0,0,0,0,0.01c0.02,0.03,0.04,0.07,0.05,0.1c7.72,14.75,16.38,29.22,25.75,42.99
		c0.02,0.04,0.04,0.08,0.08,0.12c0,0,0,0,0,0c0.03,0.04,0.06,0.08,0.09,0.12c0,0,0.01,0.01,0.01,0.01
		c7.68,11.33,16.03,22.45,24.81,33.06c0,0.01,0.01,0.01,0.02,0.02c0.02,0.02,0.03,0.04,0.05,0.06c0.01,0.01,0.01,0.01,0.01,0.02
		c9.54,11.54,19.67,22.62,30.35,33.16c10.69,10.58,21.93,20.62,33.62,30.05c0.02,0.01,0.04,0.03,0.06,0.04
		c0.02,0.02,0.04,0.03,0.06,0.05c0.62,0.55,1.26,1.07,1.93,1.55c0.01,0.01,0.03,0.02,0.04,0.03c0,0,0.01,0,0.01,0.01
		c19.59,15.65,40.75,29.79,62.87,42.04c0.09,0.06,0.19,0.11,0.3,0.16c24.29,13.42,49.96,24.68,76.32,33.42
		c46.38,15.4,94.97,23.21,144.43,23.21c48.31,0,95.85-7.47,141.3-22.19c0.02-0.01,0.05-0.01,0.07-0.02
		c0.03-0.01,0.06-0.02,0.09-0.03h0.03c0,0,0.01,0,0.01-0.01h0.01c0.02,0,0.03-0.01,0.04-0.01c27.94-9.07,55.07-20.91,80.66-35.17
		c0.04-0.02,0.08-0.04,0.12-0.06c0.01-0.01,0.03-0.01,0.04-0.03c20.52-11.46,40.25-24.58,58.63-38.99c0.04-0.03,0.07-0.05,0.11-0.08
		c0.15-0.12,0.31-0.24,0.47-0.38c24.72-19.44,47.4-41.5,67.44-65.55c0.01-0.01,0.03-0.03,0.04-0.05c0.01-0.01,0.02-0.02,0.03-0.03
		c0.39-0.4,0.73-0.81,1.02-1.23c0.01-0.01,0.02-0.02,0.03-0.03c0.02-0.03,0.04-0.05,0.06-0.08c0.02-0.02,0.03-0.03,0.04-0.05
		c19.46-23.59,36.45-49.16,50.52-76.04c0.08-0.11,0.14-0.23,0.19-0.35c11.45-21.89,21.09-44.89,28.62-68.37c0,0,0-0.01,0-0.01
		c0,0,0-0.01,0-0.01C929.58,632.74,929.6,632.69,929.62,632.64z M875.85,600.92c5.39,10.81,9.78,22.64,13.13,35.46
		c-3.36,5.51-12.05,18.31-27.67,32.23c0.47-14.27,0.68-24.83,0.72-27.25c5.38-13.22,9.99-26.72,13.81-40.46
		C875.84,600.9,875.85,600.91,875.85,600.92z M846.98,775.22c-0.32,0.39-0.64,0.76-0.96,1.16c-5.03,4.92-22.31,9.76-41.92,14.49
		c0,0,0,0,0,0c3.08-9.72,6.38-20.56,9.95-32.36c1-3.32,2-6.62,2.99-9.87c7.81-3.1,16.59-6.62,26.9-11.04c3.46-1.49,6.77-3,9.9-4.52
		c0,0,0,0,0,0C852.15,753.75,849.9,770.56,846.98,775.22z M778.97,841.56c-0.09,0.07-0.18,0.14-0.27,0.21
		c-5.27,3.97-15.22,2.56-28.98,0.61c-5.13-0.73-10.9-1.54-17.29-2.19c6.95-11.03,13.6-22.29,19.73-32.73
		c11.76-3.11,24.09-5.97,35.78-8.68c3.54-0.82,6.94-1.61,10.21-2.38c0,0,0,0,0,0C790.91,818.79,783.97,837.33,778.97,841.56z
		 M657.64,880.49c2.32-5.61,9.33-20.74,22.58-35.38c17.29-2.58,32.41-2.5,45.29-1.53c-9.53,14.79-19.61,28.99-29.29,39.46
		C682.39,883.64,669.53,882.64,657.64,880.49z M653.63,879.71c-15.21-3.12-28.77-8.12-40.67-14.01c0,0,0,0,0,0
		c14.35-4.25,28.59-9.37,42.4-15.27c0.01,0,0.02,0,0.02-0.01h0.01c6.4-1.78,12.56-3.18,18.49-4.26c0,0,0.01,0,0.01,0
		C661.73,860.7,655.54,874.84,653.63,879.71C653.63,879.71,653.63,879.71,653.63,879.71z M350.41,877.59
		c-2.61-3.72-10.49-14.63-21.5-26.83c6.22,0.21,12.74,0.62,19.58,1.28c10.88,4.52,22.09,8.57,33.37,12.09
		C372.27,869.38,361.74,874.07,350.41,877.59z M297.69,883.64c-2.26-3.06-11.08-15.11-22.19-31.08c1.36-0.1,2.74-0.19,4.14-0.3
		c12.39-0.89,26.84-1.93,43.62-1.64c11.22,12.09,19.66,23.41,23.07,28.17C331.35,882.98,315.02,885.05,297.69,883.64z
		 M218.41,839.48C218.41,839.47,218.4,839.47,218.41,839.48c-0.03-0.02-0.05-0.04-0.08-0.06c-0.14-0.1-0.27-0.22-0.41-0.32
		c-0.43-0.34-0.86-0.69-1.28-1.04c-11.94-10.48-16.66-33.23-19.13-55.52c9.95,4,20.03,7.89,29.78,11.65
		c2.37,0.91,4.72,1.82,7.06,2.73c10.52,17.55,22.97,36.3,33.86,52.11C247.92,850.24,232.3,849.68,218.41,839.48z M128.18,742.07
		c-9.2-13.53-17.72-27.73-25.3-42.23c-0.9-8.18-1.16-16.05-0.89-23.61c6.1,3.52,13.08,7.26,20.61,11.28
		c7.53,4.03,15.42,8.25,23.35,12.73c-1.78,16.66-3.62,35.66-1.95,52.89C137.84,749.49,132.48,745.8,128.18,742.07z M104.79,296.86
		c3.61-1.25,16.92-5.9,33.14-12.27l0.05,1.01c0.68,13.49,1.44,28.75,1.09,43.36c-12.29,9.95-24.31,18.17-29.23,21.45
		C103.74,323.43,103.89,301.43,104.79,296.86z M220.66,158.73c8.3-6.1,22.62-6.92,39.82-6.49c-6.07,10.93-11.42,22.13-16.31,32.75
		c-3.62,0.07-7.29,0.12-10.94,0.16c-9.51,0.12-19.17,0.25-28.08,0.76C209.69,173.1,214.77,163.06,220.66,158.73z M297.9,109.9
		c11.95-0.32,23.67,0.4,34.92,2.12c-3.2,6.1-11.92,22.47-21.21,37.64c-12.09,0.22-23.93-0.3-35.17-0.8c-3.13-0.14-6.2-0.28-9.2-0.39
		C277.11,131.64,287.16,119,297.9,109.9z M392.57,132.71c-8.22,2.3-16.38,4.88-24.35,7.69c-0.36,0.13-0.72,0.26-1.08,0.38
		c-0.01,0-0.01,0-0.02,0.01c-16.71,5.91-33.91,8.14-50.72,8.74c9.53-15.76,18.1-32.05,20.59-36.83
		C356.74,116.18,375.41,122.9,392.57,132.71z M719.8,119.1C719.8,119.1,719.8,119.1,719.8,119.1c22.81,12.69,44.63,27.46,64.86,43.9
		c1.47,2.38,2.82,4.9,4.09,7.52c-12.54-2.1-32.41-5.25-52.34-7.71c0,0,0,0,0-0.01c-12.45-20.13-23.18-37.86-27.53-45.05
		C712.46,118.11,716.1,118.56,719.8,119.1z M864.22,334.67c-0.29-10.8-0.4-22.24-0.52-33.51c-0.01-1.52-0.03-3.02-0.04-4.49
		c19.79,10.82,36.92,19.65,42.12,22.32c-4.12,13.96-8.77,26.53-13.71,37.82C887.52,353.62,876.54,345.63,864.22,334.67
		L864.22,334.67z M920.15,352.07c0,0.04,0.01,0.09,0.01,0.15c0,0.08,0.01,0.17,0.01,0.26c0.01,0.1,0.01,0.22,0.01,0.34
		c0.04,1.67,0.04,5.4-0.48,10.55c-0.03,0.22-0.05,0.45-0.08,0.68c-0.44,4.01-1.19,8.84-2.49,14.21c-0.21,0.87-0.43,1.76-0.67,2.67
		c-0.67,2.51-1.46,5.13-2.39,7.83c-0.15,0.46-0.31,0.92-0.49,1.38c-1.44,4.06-3.22,8.28-5.37,12.58
		c-17.31,34.56-51.79,58.61-99.78,69.65c-1.01-4.21-2.28-8.41-3.8-12.51c6.95-2.79,20.96-9.6,37.29-24.11
		c9.51-8.45,20.63-20.35,31.66-36.72c0,0,0-0.01,0.01-0.01c0.24-0.22,0.43-0.5,0.54-0.8c0.01-0.01,0.02-0.03,0.03-0.04
		c0.01,0,0-0.01,0-0.01c6.9-10.33,13.75-22.41,20.13-36.49c0-0.01,0.01-0.02,0.01-0.02c0.21-0.14,0.41-0.32,0.56-0.54
		c0.28-0.43,0.37-0.92,0.31-1.39c0,0,0,0,0,0c4.81-10.83,9.34-22.83,13.4-36.09C912.77,332.99,916.66,342.53,920.15,352.07z
		 M813.25,745.84c-9.81,3.9-17.66,7.02-24.08,10.16c-0.01,0.01-0.03,0.01-0.04,0.02c12.99-14.09,24.9-29.1,35.63-44.96
		c-3.4,9.87-7.13,21.85-10.99,34.57C813.59,745.7,813.42,745.77,813.25,745.84z M749.55,804.02c-8.19,2.2-16.1,4.52-23.34,7.02
		c11.33-7.94,22.26-16.48,32.73-25.62c1.18-1.03,2.34-2.07,3.5-3.12c-0.01,0.02-0.02,0.04-0.03,0.06
		c-3.45,5.62-7.37,12.31-11.67,19.63C750.35,802.66,749.95,803.34,749.55,804.02z M836.56,692.51c0-0.01,0.01-0.02,0.01-0.02
		l0.05-0.09c0.03-0.06,0.06-0.12,0.1-0.17c0.19-0.29,0.35-0.59,0.53-0.89c0,0,0.01,0,0.01-0.01c7.39-4.5,13.93-9.15,19.72-13.78
		c-0.63,16.39-1.54,34.61-2.77,50.91c-3.71,1.84-7.66,3.68-11.85,5.47c-8.97,3.84-16.8,7.01-23.83,9.82
		C825.45,721.02,831.85,701.12,836.56,692.51z M857.18,672.16c-4.65,3.9-9.84,7.83-15.61,11.68c0,0-0.01,0.01-0.01,0.01
		c5.96-10.61,11.38-21.45,16.25-32.5C857.66,657.51,857.45,664.58,857.18,672.16z M858.22,640.11c-0.01,0.03-0.02,0.06-0.04,0.09
		c-6.81,16.7-14.85,32.96-24.13,48.69c-0.25,0.43-0.49,0.85-0.75,1.27c-0.04,0.06-0.07,0.13-0.1,0.19l-0.1,0.17
		c-31.39,52.64-75.94,97.42-128.42,129.81c-2.11,1.18-4.15,2.41-6.11,3.7c-14.31,8.47-29.17,16.05-44.5,22.6c0,0-0.01,0-0.01,0
		c-32.13,8.92-62.83-6.24-82.93-20.53c-11.07-7.87-20.23-16.35-26.63-22.86c21.23-8.98,39.09-24.71,51.7-45.53
		c12.82-21.17,19.6-46.58,19.6-73.5c0-50.43-41.52-105.41-65.53-132.98c24.79,24.16,74.48,64.22,131.38,64.22
		c78.77,0,109.99-41.36,122.3-76.05c0.14-0.39,0.28-0.79,0.42-1.2c0.19,0.09,0.38,0.19,0.57,0.28
		c34.04,16.98,54.88,43.27,61.94,78.15C864.26,624.55,861.37,632.37,858.22,640.11z M678.1,841.39c-0.01,0-0.01,0-0.02,0
		c-1.54,0.24-3.1,0.5-4.68,0.79c-0.02,0-0.04,0.01-0.06,0.01c2.58-1.26,5.15-2.54,7.69-3.86
		C680.03,839.35,679.05,840.37,678.1,841.39z M141.98,285.4l-0.12-2.36c14.5-5.78,27.3-11.34,38.14-16.57
		c-3.56,13.82-7.16,25.47-11.07,32.09c-0.01,0.01-0.02,0.03-0.03,0.04c-0.01,0.01-0.02,0.03-0.03,0.05
		c-0.27,0.42-0.53,0.84-0.8,1.27c-0.03,0.04-0.05,0.08-0.08,0.12c-0.01,0.01-0.02,0.03-0.02,0.04c-5.66,8.3-15.09,17.35-24.84,25.54
		C143.3,311.93,142.61,297.92,141.98,285.4z M246.76,188.94c11.23-0.25,21.7-0.75,30.19-2.17c-6.73,4.61-13.33,9.45-19.71,14.44
		c0,0,0,0-0.01,0c-3.92,2.25-10.25,4.48-19.27,6.81c1.88-4.01,3.79-8.17,5.78-12.51C244.73,193.35,245.74,191.15,246.76,188.94z
		 M246.78,209.69C246.77,209.7,246.77,209.7,246.78,209.69c-5.94,4.99-11.74,10.16-17.37,15.49c2.25-4.12,4.37-8.38,6.33-12.48
		C239.89,211.69,243.56,210.69,246.78,209.69z M215.46,239.07C215.46,239.07,215.46,239.07,215.46,239.07
		c-0.02,0.02-0.03,0.04-0.04,0.04c0,0.01,0,0.01-0.01,0.01c0,0-0.01,0.01-0.01,0.01c-0.02,0.02-0.04,0.04-0.06,0.06
		c-0.7,0.72-1.37,1.44-1.98,2.1v0c0,0,0,0,0,0l-0.08,0.08l-0.02,0.02c-0.01,0.01-0.02,0.02-0.03,0.03
		c-5.23,5.05-14.39,10.96-27.24,17.58c1.34-5.48,2.68-11.18,4.04-16.95c1.64-6.99,3.33-14.16,5.09-21.24
		c11.02-1.97,24.16-4.35,35.61-6.94C226.23,223.06,221.03,232.68,215.46,239.07z M200.74,255.42c-7.45,8.76-14.5,17.84-21.12,27.19
		c0,0,0,0.01-0.01,0.01c1.73-5.57,3.42-11.82,5.1-18.48C190.78,261.1,196.13,258.19,200.74,255.42z M157.15,318.47
		C157.15,318.47,157.15,318.47,157.15,318.47c-2.8,5.06-5.48,10.18-8.03,15.36c-2.6,5.26-5.08,10.59-7.42,15.96
		c0.68-5.78,1.12-12.04,1.33-18.84C147.86,326.99,152.7,322.77,157.15,318.47z M152.71,335.58c5.62-11.39,11.84-22.5,18.59-33.28
		c0.01-0.02,0.03-0.04,0.04-0.06c0.3-0.44,0.59-0.91,0.88-1.39c0.05-0.09,0.11-0.17,0.16-0.26c0.02-0.04,0.05-0.09,0.08-0.14
		c0.03-0.03,0.05-0.08,0.08-0.12c12.66-19.91,27.32-38.79,43.53-56.08l0.02-0.02l0.08-0.08c0.71-0.69,1.45-1.47,2.24-2.38v0
		c0.02-0.02,0.04-0.05,0.06-0.07c0,0,0.01-0.01,0.01-0.01c12.69-13.27,26.47-25.76,40.98-37.14c0.01,0,0.01-0.01,0.02-0.01
		c0.01,0,0.01-0.01,0.02-0.01c0.02-0.01,0.04-0.02,0.06-0.03c0.03-0.03,0.05-0.05,0.08-0.07c0.03-0.02,0.06-0.05,0.09-0.07
		c9.49-7.42,19.46-14.5,29.64-21.01c0.05-0.02,0.08-0.04,0.12-0.08c0.01,0,0.02-0.01,0.04-0.02c1.76-0.82,3.28-1.77,4.51-2.85
		c21.88-13.58,45.18-25,69.23-33.95c48.45-1.41,81.09,32.31,92.94,46.99l1.74,2.46c-0.35,0.14-0.7,0.29-1.05,0.43
		c-21.68,8.91-39.92,24.81-52.74,45.97c-12.82,21.17-19.6,46.58-19.6,73.5c0,36.66,22.37,75.77,41.14,102.11
		c8.69,12.21,17.44,22.88,24.6,31.1c-7.13-7-16.37-15.37-27.25-23.69c-24.5-18.75-62.55-41.1-104.69-41.1
		c-77.02,0-108.56,39.57-121.43,73.67c-47.9-21.65-59.04-71.23-59.19-87.64C142.13,358.48,147.12,346.89,152.71,335.58z
		 M302.43,170.71c3.69-4.95,7.63-10.92,11.49-17.14c8.75-0.24,17.7-0.89,26.65-2.23C327.53,157.08,314.79,163.56,302.43,170.71z
		 M535.92,193.28c13.04-14.87,48.93-49.14,100.68-46.87c27.73,10.3,54.29,23.8,78.95,40.14c0.53,0.34,1.05,0.69,1.58,1.05
		c0.04,0.03,0.08,0.05,0.12,0.07c25.78,17.26,49.42,37.61,70.3,60.51c0.2,0.21,0.39,0.42,0.58,0.64c0.03,0.03,0.05,0.06,0.08,0.09
		c13.42,14.78,25.76,30.74,36.63,47.37l0.08,0.13c0.01,0.02,0.05,0.08,0.06,0.1c0.08,0.13,0.16,0.25,0.24,0.38
		c0.83,1.39,1.7,2.75,2.61,4.06c13.85,21.86,25.42,45.17,34.42,69.29c0,0,0,0,0,0v0.01c-1.11,5.69-12.43,57.38-59.41,85.12
		c-9-21.16-24.7-38.97-45.47-51.55c-21.17-12.82-46.58-19.6-73.5-19.6c-49.13,0-102.6,39.43-130.86,63.7
		c6.55-6.82,14.14-15.34,21.69-25.21c18.75-24.5,41.1-62.55,41.1-104.69c0-39.39-10.34-66.88-25.02-86.07
		c-14.67-19.19-33.69-30.08-51.03-36.23c-0.74-0.27-1.48-0.52-2.23-0.78c-0.81-0.27-1.61-0.52-2.41-0.77L535.92,193.28z
		 M686.74,159.05c3.2,3.82,6.57,7.61,10.06,11.22c0,0,0,0,0,0c-10.17-5.85-20.6-11.24-31.25-16.15
		C672.2,155.79,679.36,157.48,686.74,159.05z M733.99,166.54c6.56,10.61,13.55,21.82,20.29,32.48
		c-14.56-4.77-27.13-9.72-34.91-14.75c-0.24-0.15-0.47-0.31-0.71-0.47c-0.22-0.14-0.44-0.29-0.66-0.44
		c-8.56-5.81-17.06-14.13-24.78-22.97c10.82,2.17,21.94,4.02,32.52,5.19C728.47,165.89,731.23,166.21,733.99,166.54z M805.49,231.22
		c2.05,10.57,4.07,20.91,6.49,30.63c0,0,0,0-0.01,0c-9.44-6.11-16.95-11.58-20.81-15.64c-0.02-0.03-0.05-0.05-0.07-0.08
		c-0.19-0.19-0.36-0.39-0.52-0.57c-0.04-0.04-0.07-0.08-0.11-0.11c-0.04-0.06-0.09-0.11-0.14-0.17
		c-5.01-5.85-15.18-21.06-26.75-39.12c12.71,3.89,26.29,7.63,39.17,11.18C803.69,221.96,804.6,226.61,805.49,231.22z M860.26,336.49
		c0.19,7.02,0.47,13.74,0.87,19.96c0,0,0,0.01,0,0.01c-5.05-12.2-10.76-24.17-17.09-35.81C849.4,326.37,854.94,331.69,860.26,336.49
		z M872.98,392.67C872.98,392.67,872.98,392.67,872.98,392.67c-0.41-1.51-0.8-3.02-1.19-4.51c-1.59-6.09-3.24-12.39-5.5-18.53
		c0-0.01,0-0.01,0-0.02c-0.99-8.39-1.56-18.52-1.92-29.49c11.9,10.34,22.15,17.7,26.04,20.41
		C884.85,372.72,878.95,383.38,872.98,392.67z M864.69,377.44c1.17,3.83,2.18,7.71,3.23,11.73c0.68,2.59,1.38,5.27,2.13,7.94
		c0,0,0,0,0,0c-10.67,15.76-21.39,27.26-30.57,35.45c-5.33,4.75-10.42,8.66-15.09,11.86c14.48-13.1,23.94-27.91,29.84-39.7
		C859.84,393.53,863.01,383.68,864.69,377.44z M816.38,277.08c-3.86-5.26-7.87-10.43-11.99-15.49c0.01,0.01,0.03,0.02,0.04,0.03
		c2.8,1.91,5.84,3.89,9.04,5.92c0,0,0.01,0,0.01,0.01C814.38,270.82,815.34,274,816.38,277.08z M772.16,226.69c0,0,0,0,0.01,0.01
		c0.01,0.01,0.01,0.02,0.02,0.03c-10.84-10.39-22.29-20.16-34.28-29.24c6.03,2.31,12.7,4.58,19.72,6.81
		C762.78,212.39,767.73,220.03,772.16,226.69z M550.79,80.72c0.92,0.08,1.83,0.15,2.76,0.23c0.58,0.05,1.17,0.1,1.76,0.15
		c1,0.09,2,0.18,3.01,0.28c0.64,0.06,1.27,0.12,1.88,0.18c1.08,0.1,2.17,0.21,3.26,0.33c0.85,0.08,1.71,0.17,2.57,0.27
		c0.61,0.06,1.22,0.12,1.83,0.2c0.45,0.04,0.9,0.1,1.36,0.15c0.43,0.05,0.86,0.1,1.3,0.15c1.53,0.18,3.07,0.36,4.61,0.56
		c1.57,0.19,3.12,0.4,4.69,0.61c0.5,0.06,1.01,0.13,1.51,0.2c-0.92,0.72-1.87,1.47-2.85,2.25l-0.19,0.16
		c-0.07,0.06-0.14,0.12-0.25,0.2c-0.2,0.16-0.4,0.32-0.56,0.46l-0.32,0.25c-0.2,0.17-0.42,0.34-0.64,0.52l-0.14,0.11
		c-0.15,0.12-0.29,0.24-0.4,0.33c-0.09,0.07-0.17,0.15-0.27,0.23c-0.09,0.07-0.19,0.15-0.29,0.23c-2.68,2.17-5.6,4.61-8.69,7.25
		c-0.36,0.32-0.73,0.63-1.11,0.95l-0.29,0.25c-1.02,0.88-2.05,1.78-3.12,2.71c-0.93,0.82-1.88,1.66-2.85,2.52
		c-0.11,0.09-0.23,0.2-0.35,0.31l-0.06,0.06c-0.35,0.31-0.71,0.63-1.09,0.96c-2.46,2.21-4.48,4.05-6.35,5.8l-0.74,0.69
		c-0.63,0.58-1.27,1.17-1.9,1.76c-1.81,1.7-3.64,3.46-5.51,5.26c-0.87,0.85-1.75,1.71-2.63,2.58c-0.61,0.6-1.23,1.22-1.85,1.84
		l-0.92,0.92c-0.91,0.91-1.82,1.83-2.8,2.83l-0.14,0.14c-0.42,0.43-0.85,0.87-1.25,1.29c-0.47,0.49-0.94,0.97-1.41,1.46
		c-2.71,2.81-5.34,5.63-7.85,8.42c-4.26-8.63-4.79-13.32-4.8-15.04c6.86-3.45,12.66-7.24,16.24-9.57c0.82-0.54,1.54-1,2.13-1.38
		c14.32-9.06,28.15-20.46,28.29-20.57c0.64-0.53,0.88-1.39,0.62-2.18c-0.26-0.78-0.98-1.33-1.81-1.36
		c-11.82-0.51-24.49,4.43-29.82,6.79c0,0,0,0,0,0c-0.33-2.19-0.87-4.31-1.57-6.26c-1.14-3.16-2.68-5.79-4.5-7.79
		c0.23,0.01,0.47,0.02,0.71,0.03c1.66,0.07,3.3,0.15,4.93,0.24c3.17,0.17,6.37,0.36,9.6,0.59C546.61,80.4,548.7,80.56,550.79,80.72z
		 M489.16,155.36c-0.56-0.64-1.14-1.29-1.74-1.96c-0.28-0.31-0.55-0.62-0.83-0.93c-0.32-0.38-0.66-0.76-1.01-1.15l-2.48-2.77
		c-0.61-0.66-1.23-1.34-1.86-2.04c-0.03-0.03-0.06-0.06-0.08-0.09l-1.55-1.71c-0.24-0.25-0.47-0.51-0.7-0.77
		c-0.1-0.12-0.2-0.23-0.31-0.35c-1-1.1-2.05-2.23-3.13-3.41c-0.08-0.09-0.16-0.17-0.25-0.26c-0.14-0.15-0.28-0.3-0.42-0.46
		l-0.38-0.42c-0.16-0.17-0.31-0.34-0.48-0.51c-1.72-1.85-3.5-3.77-5.35-5.74c-0.92-0.98-1.86-1.97-2.81-2.98
		c-1.84-1.94-3.74-3.93-5.67-5.95l-0.19-0.19c-1.1-1.17-2.23-2.33-3.39-3.51c-2.42-2.5-4.91-5.03-7.47-7.59l-0.62-0.63
		c-0.38-0.39-0.78-0.78-1.16-1.15c-0.8-0.8-1.6-1.59-2.41-2.4c-0.01-0.01-0.01-0.01-0.02-0.02c10.03,3.79,19.61,5.39,28.21,5.72
		c0.14,0.58,0.27,1.18,0.41,1.8c1.34,6.15,3,13.75,18.21,13.74c0.46,0,0.94-0.01,1.43-0.03c1.02,1.88,3.26,5.83,6.1,9.9
		c-2.59,0.03-6.72-0.19-12.46-1.21c-0.93-0.17-1.85,0.34-2.2,1.22c-0.36,0.87-0.05,1.88,0.73,2.4c7.55,5.11,13.88,14.06,13.95,14.15
		c0.31,0.45,0.79,0.75,1.33,0.83c0.1,0.02,0.2,0.02,0.3,0.02c0.44,0,0.87-0.14,1.22-0.41c0.06-0.04,1.49-1.12,9.14-6.31
		c0.55-0.37,0.88-0.99,0.88-1.65c0-0.67-0.32-1.29-0.87-1.66c-2.23-1.53-4.54-4.06-6.67-6.82c-0.01-0.03-0.03-0.05-0.05-0.08
		c-2.93-3.82-5.51-8.09-7.03-10.74c0,0,0,0,0,0c2.05-0.28,4.11-0.7,6.15-1.23c2,0.49,11.56,3.23,17.91,12.09
		c-0.52,0.58-1.04,1.17-1.55,1.76c-2.25,2.58-4.49,5.23-6.66,7.9c-0.47,0.57-0.93,1.13-1.39,1.7c-0.34,0.42-0.68,0.85-1.01,1.27
		c-0.61,0.76-1.21,1.53-1.82,2.31c-0.46,0.59-0.92,1.18-1.38,1.78c-1.9,2.48-3.76,4.99-5.57,7.53c-0.35,0.5-0.7,1-1.05,1.5
		c-0.43,0.61-0.85,1.22-1.27,1.83c-0.16-0.19-0.33-0.39-0.53-0.61c-0.19-0.22-0.39-0.45-0.59-0.7c-1.9-2.24-4.74-5.54-8.36-9.65
		L489.16,155.36z M426.82,91.03c-0.1-0.09-0.2-0.18-0.3-0.27c-1.21-1.12-2.41-2.24-3.63-3.35c-0.82-0.76-1.65-1.52-2.49-2.27
		c-0.39-0.36-0.78-0.71-1.17-1.06c5.64-0.78,16.71-2.17,31.71-3.32c19.7-0.41,32.96,9.35,44.67,17.98c3.21,2.37,6.3,4.64,9.41,6.66
		c-3.28,1.12-8.61,2.66-15.35,3.65c0,0,0,0,0,0c-3.63-4.82-19.56-23.05-52.15-21.88c-0.87,0.03-1.61,0.62-1.85,1.45
		s0.08,1.72,0.8,2.21c11.23,7.62,31.81,8.46,35.82,8.55c5.03,2.96,8.72,6.17,11.15,8.66c0.56,0.57,1.06,1.11,1.49,1.59
		c-13.17,1.24-30.46,0-48.32-9.33c0,0,0,0-0.01-0.01c-0.98-0.94-1.97-1.89-2.96-2.82c-0.87-0.83-1.74-1.66-2.61-2.49
		C429.64,93.66,428.24,92.35,426.82,91.03z M517.44,130.29c-2.63-1.97-5.23-3.35-7.44-4.31c1.99-0.73,3.94-1.54,5.83-2.4
		C516.02,125.21,516.47,127.42,517.44,130.29z M493.29,125.6c-13.52,0.49-14.57-4.39-15.92-10.57c-0.06-0.29-0.13-0.58-0.2-0.87
		c18.99-0.13,32.3-6.11,33.19-6.53c0.01,0,0.01-0.01,0.02-0.01c0.01,0,0.01,0,0.02-0.01c3.68-1.79,5.79-4.48,6.89-7.38
		c0,0,0,0.01,0,0.01c0.05,0.17,0.11,0.35,0.16,0.52c1.97,6.31,3.67,11.75,6.14,14.34C515.05,119.98,503.76,125.22,493.29,125.6z
		 M470.15,79.56c10.31-0.48,21.72-0.79,33.95-0.74c-7.87,3.03-15,7.06-17.67,8.62C481.52,84.33,476.18,81.52,470.15,79.56z
		 M490.17,89.9c3.88-2.17,11.36-6.1,18.78-8.59c1.75,2,3.23,4.8,4.54,7.92c0.01,0.02,0.01,0.03,0.01,0.05
		c0.14,0.42,3.31,9.87-3.93,14.23c-3.82-2.26-7.6-5.05-11.59-7.99C495.46,93.66,492.87,91.76,490.17,89.9
		C490.17,89.9,490.17,89.9,490.17,89.9z M534.24,108.5c1.19-3.33,1.66-7.1,1.53-10.83c3.32-1.53,13.24-5.78,23.38-6.81
		c-5.21,4.08-14.11,10.79-23.2,16.54C535.47,107.7,534.88,108.08,534.24,108.5C534.24,108.5,534.24,108.5,534.24,108.5z
		 M531.71,96.68c0.44,6.19-0.93,12.49-4.73,15.98c-1.74-0.4-4.2-8.28-5.71-13.1c-2.13-6.82-4.5-14.41-8.19-19.47
		c2.33-0.58,4.57-0.97,6.62-1.03c0.5,0.01,0.99,0.03,1.49,0.05c3.61,0.48,6.87,3.93,8.85,9.44c0.87,2.43,1.45,5.15,1.66,7.89
		C531.7,96.52,531.71,96.6,531.71,96.68z M461.74,94.54c-4.54-0.57-9.84-1.52-14.66-3.11C452.57,91.95,457.44,93.07,461.74,94.54z
		 M502.07,143.36c1.48,1.86,3.06,3.61,4.65,5.04c-2.67,1.83-4.37,3-5.43,3.74c-1.54-2-4.43-5.53-8.06-8.92
		C497.63,143.63,500.54,143.5,502.07,143.36z M922.21,575.2c-0.09-0.07-0.18-0.14-0.27-0.21c-9.05-15.16-21.84-44.55-26.19-54.73
		c2.79,0.6,5.52,1.15,8.14,1.66c2.94,5.05,19.75,34.67,22.8,55.84c-0.06,0.27-0.13,0.53-0.18,0.79
		C925.41,577.69,923.96,576.56,922.21,575.2z M913.8,568.6c-0.14-0.11-0.29-0.22-0.43-0.33c-0.47-0.37-0.95-0.75-1.44-1.13
		c-0.42-0.33-0.85-0.67-1.28-1.01l-0.99-0.78c-3.83-3.03-8.08-6.39-12.6-9.97c-1.13-0.9-2.27-1.81-3.43-2.73
		c-10.79-8.59-22.8-18.25-34.15-27.6c0,0,0,0,0,0c4.09-2.15,9.63-5.8,10.53-6.4c2.41-1.36,4.57-2.84,6.51-4.41
		c1.86,1.05,3.81,1.94,5.87,2.59c2.82,0.88,5.69,1.65,8.56,2.34c2.21,5.24,13.32,31.32,22.88,49.45l-0.01-0.01
		C913.81,568.61,913.81,568.6,913.8,568.6z M928.33,427.22c0.01,0.1,0.02,0.19,0.04,0.29c3.46,27.59,8.45,81.57,2.16,128.73
		c-0.32,2.41-0.67,4.79-1.06,7.16c-0.11,0.73-0.24,1.47-0.36,2.21c-0.13,0.77-0.27,1.54-0.41,2.31c0,0.01,0,0.01,0,0.01
		c0,0.01,0,0.01,0,0.02c-4.74-17.52-15.04-36.9-19.6-45c7.04,1.42,12.89,2.8,15.75,4.83c0.35,0.25,0.75,0.37,1.16,0.37
		c0.38,0,0.75-0.11,1.09-0.32c0.69-0.45,1.04-1.26,0.88-2.07c-2.44-12.29-15.78-18.71-27.34-21.54c1.68-2.25,3.07-4.62,3.92-6.17
		c4.23,2.06,15.32,8,19.73,15.58c0.36,0.63,1.03,0.99,1.73,0.99c0.17,0,0.33-0.02,0.5-0.06c0.87-0.22,1.48-0.99,1.5-1.89
		c0.3-12.2-2.87-21.73-9.43-28.32c-2.14-2.15-4.47-3.8-6.78-5.07c13.42-12.21,16.85-30.35,9.17-49.13c-0.36-0.87-1.27-1.38-2.2-1.21
		c-0.93,0.16-1.62,0.95-1.65,1.89c-0.83,22.41-7.72,40.79-10,46.34c0,0,0,0,0,0c-3.23-1.16-6.16-1.67-8.21-1.89
		c5.44-14.62,7.78-40.74,8.19-45.76l19.23-16.82c0.06,0.37,0.12,0.76,0.18,1.18c0.06,0.41,0.13,0.86,0.2,1.33
		c0.1,0.73,0.22,1.53,0.34,2.38c0.07,0.47,0.14,0.97,0.21,1.49c0.17,1.25,0.36,2.6,0.56,4.06
		C927.97,424.44,928.15,425.79,928.33,427.22z M883.58,513.01c-1.34-0.42-2.63-0.97-3.88-1.6c2.06-2.02,3.79-4.15,5.28-6.3
		c1.39,0.75,2.85,1.23,4.38,1.34c7.74,0.52,27.05,4.38,33.13,15.76c-4.28-1.55-10.06-2.69-16.83-4.01
		C898.73,516.83,890.9,515.3,883.58,513.01z M868.83,514.69c-3.69-1.78-17.33-8.67-22.49-15.49c2.73-3.91,5.66-7.09,8.53-9.67
		c2.47,4.79,8.72,15.56,18.09,22.41C871.69,512.9,870.31,513.82,868.83,514.69z M858.04,486.9c5.24-4.03,9.98-6.13,12.65-7.11
		c0.34,2.63,1.17,5.83,2.41,9.09c0.05,0.21,0.12,0.41,0.23,0.58c1.97,5,4.88,10.05,8.47,13.34c-1.54,2.22-3.41,4.4-5.65,6.47
		C866.54,502.64,860.06,490.92,858.04,486.9z M915.77,487.21c4.64,4.68,7.34,11.17,8.06,19.33c-7.38-7.71-18.8-12.7-19.38-12.95
		c-0.98-0.42-2.12,0-2.59,0.96c-0.03,0.05-2.51,5.08-5.6,8.74c-2.43-0.43-4.69-0.71-6.64-0.84c-0.86-0.06-1.71-0.32-2.54-0.73
		c2.44-4.32,3.92-8.62,4.82-12.37c0.12-0.24,0.2-0.51,0.22-0.79c0-0.03,0-0.06,0-0.09c0.85-3.86,1.09-7.05,1.15-8.96
		c0.94-0.11,1.9-0.23,2.87-0.38C897.28,479.14,908.05,479.43,915.77,487.21z M889.29,479.87c-0.04,1.52-0.22,3.8-0.72,6.52
		c-2.75-0.11-8.29-0.28-12.18-0.04c-0.86-2.45-1.46-4.84-1.72-6.87C877.6,479.85,882.85,480.28,889.29,479.87z M887.63,490.35
		c-0.8,2.83-1.98,5.92-3.71,9.03c-2.31-2.29-4.36-5.61-5.97-9.12C881.15,490.16,885.14,490.26,887.63,490.35z M894.6,475.31
		c-7.78,1.09-14.52,0.72-18.35,0.31c5.71-6.38,17.21-14.59,23.23-18.7C898.22,463.74,896.61,470.44,894.6,475.31z M913.44,471.73
		c2.38-6.94,5.36-17.49,6.84-30.06C922.45,452.97,920.08,463.37,913.44,471.73z M900.41,451.47c-4.06,2.67-22.88,15.31-29.11,23.91
		c-3.48,0.99-17.85,5.93-29.05,22.72c-0.44,0.65-0.45,1.5-0.03,2.17c4.39,7.05,16.74,13.92,22.66,16.93
		c-3.1,1.96-6.73,4.14-8.78,5.06c0,0,0,0,0,0c-0.92-0.76-1.84-1.52-2.75-2.27c-0.06-0.06-0.13-0.12-0.2-0.16
		c-1.44-1.21-2.86-2.39-4.26-3.56c-0.19-0.17-0.38-0.33-0.57-0.48c-0.25-0.21-0.5-0.42-0.74-0.62c-0.76-0.64-1.52-1.28-2.26-1.9
		c-0.84-0.71-1.66-1.41-2.48-2.1c-1.03-0.87-2.04-1.73-3.03-2.59c-1.05-0.9-2.09-1.79-3.1-2.67c-0.46-0.4-0.91-0.79-1.36-1.18
		c-0.05-0.05-0.1-0.09-0.14-0.13c-0.47-0.39-0.92-0.79-1.37-1.18c-1.48-1.3-2.9-2.56-4.25-3.77c-0.44-0.39-0.88-0.78-1.3-1.17
		l74.43-65.12l0,0C902.29,437.69,901.54,444.38,900.41,451.47z M212.17,524.94c-0.13-0.54-0.26-1.08-0.38-1.65l-0.15-0.65
		c-0.36-1.64-0.68-3.32-0.95-5.01c-0.01-0.05-0.02-0.1-0.02-0.16c-0.03-0.15-0.06-0.31-0.08-0.47c-0.03-0.12-0.05-0.25-0.06-0.38
		c-0.02-0.09-0.03-0.18-0.04-0.28c0-0.01,0-0.02,0-0.04c0-0.01,0-0.01,0-0.02c-0.04-0.22-0.07-0.45-0.1-0.68
		c-0.06-0.34-0.11-0.7-0.15-1.05c-0.07-0.46-0.13-0.94-0.18-1.41c-0.06-0.47-0.11-0.94-0.16-1.42c0-0.04-0.01-0.07-0.01-0.11
		c-0.05-0.46-0.1-0.93-0.14-1.4c-0.05-0.47-0.09-0.94-0.13-1.42c-0.25-3.11-0.37-6.31-0.37-9.51c0-1.02,0.01-2.06,0.04-3.11
		c0.03-1.04,0.07-2.1,0.13-3.16c0.01-0.24,0.03-0.49,0.04-0.73c0.07-1.09,0.14-2.18,0.25-3.3c0.12-1.46,0.29-2.93,0.48-4.4
		c0.11-0.86,0.24-1.72,0.37-2.58c0.1-0.62,0.21-1.23,0.32-1.85c0.21-1.18,0.44-2.35,0.69-3.51c0.09-0.41,0.18-0.81,0.28-1.21
		c2.63,1.6,5.32,3.19,8.07,4.72c1.6,0.89,3.16,1.73,4.59,2.48c0.2,0.11,0.34,0.18,0.44,0.23c2.52,1.32,4.83,2.47,6.9,3.45
		c0.02,0.02,0.05,0.03,0.07,0.04c3.82,1.81,6.78,3.06,8.62,3.8c-1.78,3.28-5.6,10.19-9.95,17.25c-3.38,5.5-7.08,11.09-10.37,15.13
		c-1.6,1.98-3.01,3.46-4.19,4.42c-0.43,0.19-1.44,0.65-2.95,1.41c-0.08-0.28-0.16-0.57-0.24-0.87c-0.09-0.27-0.16-0.55-0.23-0.83
		c-0.07-0.26-0.13-0.52-0.2-0.79C212.32,525.57,212.24,525.26,212.17,524.94z M213.99,467.66c0.01-0.02,0.01-0.03,0.02-0.05
		c0.01-0.03,0.02-0.07,0.04-0.1c0.14-0.43,0.28-0.86,0.42-1.28c10-29.06,34.49-49.68,69.31-58.56l-55.5,59.83
		c0,0-0.01,0.01-0.01,0.01l-0.24,0.26l-7.53,8.11c-2.59-1.47-5.14-2.99-7.61-4.53C213.24,470.02,213.61,468.82,213.99,467.66z
		 M217.83,530.53c0.04-0.02,0.08-0.03,0.12-0.05c0.12-0.06,0.24-0.14,0.35-0.22c1.06-0.84,2.25-1.99,3.56-3.47L286,594.01
		c-35.65-8.69-61.57-30.9-71.74-61.76C216.55,531.09,217.82,530.54,217.83,530.53z M293.26,595.57
		c-50.95-93.38-11.2-172.77-1.42-189.71c11.46-2.25,23.62-3.2,36.15-2.84c53.17,1.52,121.05,64.87,129.25,72.72
		c-2.77,4.86-4.66,10.11-5.66,15.63c-5.39,1.56-12.41,3.31-16.72,3.31c-6.25,0-19.21-6.42-45.46-37
		c-24.2-28.19-36.7-40.73-79.56-42.57c-0.57-0.04-1.08,0.18-1.48,0.56c-0.39,0.38-0.61,0.9-0.61,1.45
		c0.3,45.5,38.59,59.31,61.39,63.49c24,4.4,37.34,15.51,41.53,19.57c-7.35,4.51-37.2,16.65-69.28,25.55
		c-36.18,10.04-32.4,53.77-32.35,54.21c0.09,1.01,0.93,1.78,1.95,1.81h0.57c5.01,0,38.79-0.9,63.65-24.29
		c8.75-8.24,17.42-17.08,25.8-25.63c14.47-14.75,29.42-30,33.85-30c3.85,0,10.75,2.9,16.45,5.7c0.83,5.75,2.64,11.22,5.37,16.28
		c-45.89,50.88-103.75,74.06-138.32,74.06C309.88,597.87,301.44,597.1,293.26,595.57z M471.91,212.64c0.11-0.03,0.22-0.06,0.33-0.08
		c0.66-0.19,1.33-0.37,2-0.54c0.49-0.12,0.98-0.24,1.48-0.35c0.32-0.08,0.65-0.16,0.98-0.23c0.4-0.09,0.8-0.18,1.2-0.26
		c0.55-0.12,1.1-0.23,1.66-0.33c0.29-0.06,0.57-0.12,0.86-0.16c0.59-0.12,1.18-0.22,1.77-0.31c0.32-0.06,0.64-0.12,0.97-0.16
		c0.53-0.09,1.06-0.17,1.6-0.24c0.35-0.05,0.7-0.1,1.06-0.14c0.53-0.08,1.07-0.15,1.61-0.2c0.53-0.07,1.07-0.12,1.61-0.17
		c0.72-0.08,1.44-0.14,2.16-0.2c2.31-0.19,4.65-0.31,7.03-0.36c2.87-0.05,5.79,0,8.75,0.15c1.39,0.07,2.8,0.17,4.21,0.3
		s2.82,0.29,4.22,0.48c2.33,0.3,4.64,0.69,6.91,1.16c0.69,0.13,1.37,0.28,2.05,0.44c0.07,0.02,0.14,0.03,0.21,0.05
		c-1.61,2.63-3.2,5.33-4.73,8.07c-0.9,1.61-1.74,3.18-2.48,4.59c-0.12,0.21-0.19,0.36-0.24,0.44c-3.78,7.23-6.14,12.74-7.29,15.6
		c-5.84-3.18-23.12-12.79-32.37-20.32c-1.98-1.61-3.47-3.02-4.42-4.19c-0.19-0.43-0.66-1.44-1.42-2.95
		C471.72,212.69,471.82,212.67,471.91,212.64z M592.18,282.79C592.18,282.79,592.18,282.8,592.18,282.79
		c-0.1,0.08-0.19,0.15-0.28,0.23l-0.01-0.01l-67.77-62.87c1.47-2.59,2.98-5.14,4.53-7.62C560.22,221.3,582.65,246.16,592.18,282.79z
		 M549.87,507.87c5.15-1.44,11.33-2.89,15.27-2.89c6.25,0,19.21,6.42,45.47,37.01c24.19,28.18,36.7,40.72,79.56,42.56
		c0.02,0,0.05,0.01,0.08,0.01c0.52,0,1.02-0.2,1.39-0.56c0.39-0.38,0.62-0.91,0.61-1.46c-0.3-45.5-38.59-59.3-61.38-63.48
		c-24.01-4.4-37.34-15.52-41.54-19.58c7.35-4.5,37.2-16.65,69.29-25.55c36.17-10.03,32.39-53.76,32.35-54.2
		c-0.1-1.01-0.94-1.79-1.95-1.81c-1.53-0.03-37.89-0.5-64.22,24.29c-8.75,8.23-17.42,17.07-25.81,25.62
		c-14.46,14.75-29.42,30-33.85,30c-3.6,0-9.83-2.52-15.28-5.14c-0.94-6.15-2.99-11.96-6.1-17.31
		c45.8-50.55,103.47-73.59,137.89-73.59c8.48,0,16.92,0.77,25.1,2.3c50.94,93.36,11.21,172.73,1.43,189.71
		c-11.46,2.25-23.63,3.2-36.16,2.84c-3.93-0.11-7.93-0.56-11.98-1.29c-43.12-7.8-91.56-48.1-110.15-64.83
		c-0.01-0.01-0.02-0.02-0.02-0.02c-0.03-0.03-0.06-0.05-0.09-0.08c0,0,0,0-0.01-0.01c-2.57-2.31-4.56-4.17-5.87-5.42
		C546.94,519.68,548.94,513.94,549.87,507.87z M787.83,474.72c0.01,0.02,0.02,0.04,0.02,0.06c0.03,0.11,0.05,0.22,0.08,0.33
		c0.24,1.03,0.47,2.06,0.68,3.1c0,0,0,0,0,0v0c0.84,4.05,1.44,8.3,1.79,12.64c0.24,3.1,0.37,6.3,0.37,9.51
		c0,2.06-0.06,4.16-0.17,6.27c-0.14,2.79-0.4,5.63-0.77,8.42c-0.09,0.63-0.18,1.26-0.28,1.91c0,0.01,0,0.01,0,0.02v0
		c-0.15,1.01-0.33,2.02-0.52,3.04c-0.06,0.34-0.12,0.68-0.19,1.02c-0.19,1-0.4,2-0.63,3.01c-0.01,0.06-0.03,0.12-0.04,0.18
		c-2.66-1.63-5.37-3.22-8.07-4.73c-1.6-0.89-3.17-1.74-4.59-2.48c-0.09-0.05-0.16-0.09-0.23-0.12c-0.06-0.03-0.12-0.06-0.17-0.09
		c0,0-0.01,0-0.01-0.01c-0.04-0.02-0.09-0.05-0.13-0.07c-0.03-0.02-0.07-0.03-0.1-0.05c-0.28-0.15-0.56-0.28-0.84-0.44
		c-0.01,0-0.01-0.01-0.02-0.01c-3.71-1.92-7.39-3.68-10.92-5.22c-0.03-0.02-0.07-0.03-0.1-0.04c-0.02-0.01-0.04-0.03-0.06-0.04
		c-1.4-0.61-2.56-1.09-3.46-1.45c2.05-3.77,6.78-12.31,11.9-20.38c2.81-4.43,5.74-8.72,8.41-11.99c1.61-1.98,3.02-3.46,4.19-4.42
		c0.43-0.19,1.45-0.66,2.96-1.41c0.26,0.91,0.49,1.84,0.72,2.76C787.72,474.27,787.78,474.5,787.83,474.72z M782.17,469.13
		c-0.03,0.01-0.05,0.02-0.08,0.04c-0.13,0.06-0.26,0.14-0.38,0.23c-1.08,0.84-2.26,1.99-3.56,3.47l-64.14-67.22
		c35.65,8.69,61.57,30.9,71.74,61.76c0,0,0,0,0,0C783.49,468.56,782.18,469.13,782.17,469.13z M776.05,527.52
		c3.23,0.89,6.71,1.95,10.37,3.22c-9.43,30.53-34.16,52.07-70.17,61.25L776.05,527.52z M408.01,716.58l68.22,63.28
		c-1.47,2.59-2.99,5.14-4.53,7.62C439.85,778.62,417.43,753.59,408.01,716.58z M473.33,500.3c0-15.04,12.24-27.28,27.28-27.28
		s27.27,12.24,27.27,27.28c0,15.04-12.23,27.27-27.27,27.27S473.33,515.34,473.33,500.3z M404.44,292.92
		c93.38-50.96,172.76-11.21,189.71-1.42c2.25,11.45,3.2,23.6,2.84,36.14c-1.51,52.48-63.52,119.58-72.44,128.96
		c-4.99-2.75-10.34-4.6-15.95-5.49c-1.55-5.38-3.27-12.32-3.27-16.6c0-6.24,6.42-19.2,37-45.46c28.19-24.19,40.73-36.7,42.57-79.56
		c0.02-0.54-0.18-1.08-0.56-1.47c-0.38-0.4-0.9-0.61-1.45-0.61c-45.51,0.3-59.31,38.58-63.49,61.38c-4.4,24-15.52,37.34-19.57,41.54
		c-4.51-7.35-16.66-37.2-25.56-69.29c-10.03-36.17-53.76-32.39-54.2-32.35c-1.01,0.1-1.79,0.94-1.81,1.95
		c-0.03,1.54-0.5,37.89,24.29,64.22c8.23,8.75,17.07,17.42,25.62,25.8c14.75,14.47,30.01,29.43,30.01,33.85
		c0,3.91-2.97,10.91-5.81,16.65c-5.57,0.92-10.88,2.76-15.8,5.5c-51.13-45.92-74.43-103.96-74.43-138.65
		C402.14,309.54,402.91,301.1,404.44,292.92z M475.73,543.48c5.03,2.91,10.45,4.88,16.17,5.9c1.51,5.3,3.13,11.96,3.13,16.11
		c0,6.24-6.42,19.2-37.01,45.46c-28.19,24.19-40.73,36.7-42.57,79.56c-0.02,0.54,0.18,1.08,0.56,1.47c0.38,0.39,0.9,0.61,1.44,0.61
		h0.01c45.51-0.3,59.31-38.59,63.49-61.38c4.4-24,15.52-37.34,19.58-41.54c4.5,7.35,16.65,37.2,25.55,69.29
		c10.03,36.17,53.76,32.39,54.2,32.35c1.01-0.1,1.79-0.94,1.81-1.95c0.03-1.54,0.5-37.89-24.29-64.22
		c-8.23-8.75-17.07-17.42-25.62-25.81c-14.75-14.46-30-29.42-30-33.84c0-3.72,2.69-10.26,5.41-15.84
		c5.98-0.84,11.67-2.73,16.96-5.64c50.61,45.83,73.67,103.53,73.67,137.98c0,8.48-0.77,16.92-2.3,25.1
		c-93.36,50.94-172.73,11.21-189.71,1.43c-2.25-11.46-3.2-23.63-2.84-36.16C404.87,619.75,466.43,553.23,475.73,543.48z
		 M525.34,788.17c-0.6,0.15-1.21,0.29-1.89,0.44c-0.03,0.01-0.07,0.01-0.11,0.02c-0.02,0.01-0.05,0.01-0.08,0.02
		c-0.17,0.04-0.34,0.08-0.52,0.11c-0.07,0.01-0.14,0.03-0.2,0.05c-0.68,0.14-1.35,0.27-2.03,0.4c-0.88,0.17-1.75,0.33-2.66,0.48
		c-0.2,0.03-0.4,0.06-0.6,0.08c-0.02,0.01-0.07,0.01-0.1,0.02c-0.73,0.12-1.46,0.23-2.22,0.33c-0.94,0.13-1.9,0.24-2.87,0.34
		c-0.96,0.11-1.93,0.2-2.91,0.28c-5.07,0.4-10.31,0.49-15.78,0.2c-2.78-0.14-5.61-0.4-8.43-0.77c-1.03-0.14-2.04-0.29-3.04-0.46
		c-0.03-0.01-0.05-0.01-0.08-0.01h-0.01c-0.02,0-0.04-0.01-0.06-0.01c-0.43-0.07-0.87-0.15-1.3-0.23c-0.3-0.05-0.59-0.1-0.89-0.16
		c-0.64-0.11-1.28-0.24-1.92-0.38l-0.73-0.15c-0.26-0.05-0.52-0.11-0.78-0.17c-0.12-0.03-0.23-0.05-0.35-0.08
		c1.62-2.63,3.2-5.34,4.73-8.08c0.89-1.61,1.74-3.17,2.48-4.59c0.11-0.2,0.18-0.33,0.24-0.44c0.11-0.21,0.22-0.42,0.32-0.63
		c0.64-1.22,1.26-2.44,1.86-3.66c1.09-2.2,2.12-4.37,3.06-6.5c0-0.01,0.01-0.02,0.01-0.03c0.01-0.02,0.01-0.04,0.02-0.06
		c0,0,0.01-0.01,0.01-0.02c0.02-0.03,0.03-0.05,0.03-0.07c0.1-0.22,0.19-0.43,0.28-0.63c0.05-0.11,0.09-0.21,0.14-0.32
		c0.06-0.14,0.12-0.27,0.18-0.41c0.04-0.09,0.07-0.17,0.11-0.25c0.01-0.03,0.02-0.06,0.04-0.09c0.04-0.1,0.08-0.2,0.13-0.3
		c0.08-0.2,0.17-0.39,0.25-0.58c0.01-0.04,0.03-0.09,0.05-0.13c0.15-0.35,0.28-0.67,0.41-0.98c0.14-0.34,0.26-0.65,0.38-0.94
		c5.84,3.18,23.13,12.79,32.38,20.32c1.98,1.61,3.46,3.02,4.42,4.2c0.19,0.43,0.65,1.44,1.41,2.96c-0.77,0.22-1.55,0.42-2.34,0.62
		c-0.19,0.05-0.38,0.1-0.58,0.15L525.34,788.17z M530.88,782.51c-0.03-0.06-0.06-0.12-0.09-0.18c-0.05-0.1-0.11-0.19-0.18-0.28
		c-0.84-1.06-1.99-2.25-3.47-3.56l67.22-64.14c-8.69,35.66-30.92,61.59-61.75,71.75C531.44,783.8,530.89,782.53,530.88,782.51z
		 M467.75,213.91c1.17,2.3,1.72,3.56,1.73,3.58c0.01,0.03,0.03,0.07,0.04,0.1c0.06,0.13,0.14,0.25,0.23,0.36
		c0.84,1.08,1.98,2.26,3.46,3.56l-67.22,64.15C414.69,250.01,436.9,224.08,467.75,213.91z M477.38,860.09
		c1.07-1.12,2.15-2.26,3.23-3.42c1.17-1.29,2.35-2.6,3.52-3.92c1.13-1.29,2.05-2.37,2.86-3.33c0.22-0.27,0.45-0.55,0.68-0.82
		c0.23-0.28,0.46-0.56,0.7-0.84c0.12-0.15,0.24-0.3,0.37-0.45c0.01,0,0.07-0.08,0.07-0.08c0.43-0.52,0.85-1.04,1.25-1.55
		c0.06-0.07,0.12-0.14,0.18-0.22c0.78-0.95,1.6-1.99,2.55-3.24c2-2.61,3.95-5.27,5.82-8c2.27,3.05,5.91,7.82,10.59,13.69l0.81,1.01
		c0.84,1.05,1.71,2.14,2.62,3.25c0.41,0.5,0.81,1,1.22,1.48c2.4,2.96,4.84,5.88,7.24,8.68l1.02,1.21c1.04,1.22,2.12,2.46,3.21,3.72
		l2.08,2.37c0.05,0.06,0.1,0.12,0.16,0.17l2.22,2.5c2.65,2.96,5.11,5.65,7.52,8.22c0.96,1.01,1.91,2.02,2.87,3.02c0,0,0,0,0.01,0.01
		c-4.92-1.77-11.24-3.73-17.31-4.75l-0.01-0.01l-9-14.26c-0.05-0.09-0.11-0.19-0.18-0.28l-0.05-0.06c0,0-0.01-0.01-0.01-0.01
		l-13.48-17.63c-0.67-0.88-1.92-1.04-2.79-0.38c-2.5,1.88-8.42,6.49-9.37,8.6c-0.39,0.86-0.13,1.88,0.64,2.44
		c3.51,2.56,6.94,6.09,9.06,8.43c0,0-0.01,0-0.01,0c-3.65,0.99-7.65,2.46-11.55,4.61C484.23,868.19,480.31,863.83,477.38,860.09
		C477.38,860.09,477.38,860.09,477.38,860.09z M502.09,864.59C502.09,864.59,502.09,864.59,502.09,864.59
		c-1.59-1.84-5.28-5.96-9.45-9.32c1.25-1.21,3.39-3.02,5.53-4.7l10.03,13.12C506.56,863.85,504.46,864.12,502.09,864.59z
		 M511.01,867.51l6.73,10.68c-2.39-0.15-4.66-0.08-6.69,0.29c0,0-0.01,0-0.01,0c-0.01,0.01-0.02,0.01-0.03,0.01c0,0,0,0-0.01,0
		c-0.01,0-0.01,0-0.02,0c-13.42,2.72-22.82,10.83-26.06,13.99c0,0,0,0,0,0c-2.58-1.83-6.8-5.15-8.97-8.16
		C486.38,869.72,506.18,867.76,511.01,867.51z M497.33,888.1c1.29,2.6,4.09,7.21,9.65,12.53c-9.74,2.24-16.44-2.95-19.03-5.5
		c0,0,0,0,0,0C489.61,893.56,492.85,890.75,497.33,888.1z M470.15,899.18C470.15,899.18,470.15,899.18,470.15,899.18
		c-11.56,4.92-22.55,6.62-29.08,7.21c5.82-4.42,16.36-11.74,28.4-16.89c0,0,0,0,0,0C469.16,892.91,469.73,896.87,470.15,899.18z
		 M474.33,899.68C474.33,899.68,474.33,899.68,474.33,899.68c-0.78-3.67-1.36-9.17-0.56-11.68c3.15,3.69,7.83,7.06,9.61,8.28
		c0,0,0,0,0,0c0.69,3.46,3.77,16.03,12.93,23.35c-0.72,0.14-1.4,0.2-2.02,0.18C486.65,919.51,482.52,915.37,474.33,899.68z
		 M488.8,900.89C488.8,900.89,488.8,900.88,488.8,900.89c3.21,2.16,7.82,4.28,13.56,4.28c2.51,0,5.24-0.41,8.15-1.39
		c1.74,1.45,3.69,2.92,5.86,4.4c0,0,0,0-0.01,0c-3.81,3-9.99,7.42-15.38,9.85C494.28,913.94,490.63,906.3,488.8,900.89z
		 M520.45,906.09c-12.87-8.31-17.94-16.56-19.59-19.9c0,0,0,0,0,0c2.92-1.44,6.23-2.71,9.87-3.55c9.66,9.86,30.25,19.73,46.95,24.46
		C541.43,908.45,523.49,906.45,520.45,906.09z M516,882.11C516,882.11,516,882.11,516,882.11c1.63,0.03,3.35,0.18,5.13,0.45
		c0,0,0.01,0,0.01,0c0.08,0.02,0.17,0.03,0.26,0.04c0,0,0,0,0,0c10.9,1.67,23.55,7.05,25.69,7.98c0.75,0.75,1.51,1.49,2.27,2.23
		l2.14,2.07c0.13,0.14,0.28,0.28,0.41,0.4c0.86,0.81,1.71,1.62,2.58,2.42l0.86,0.8c0.57,0.52,1.14,1.05,1.71,1.57
		c0.45,0.41,0.9,0.81,1.35,1.21l1.29,1.14c0.59,0.53,1.18,1.05,1.77,1.56C546.2,900.13,526.56,891.29,516,882.11z M408.61,912.79
		l0.45-0.24c1.02-0.58,2.19-1.25,3.46-1.99c0.03-0.02,0.06-0.03,0.09-0.05c0.35-0.21,0.71-0.42,1.05-0.62l0.21-0.13
		c0.37-0.21,0.76-0.43,1.14-0.67l1.05-0.63c0.36-0.21,0.72-0.43,1.08-0.66l2.02-1.23c0.32-0.2,0.65-0.4,0.94-0.59
		c0.3-0.18,0.59-0.37,0.88-0.55l0.61-0.38c0.73-0.46,1.48-0.94,2.23-1.43c0.57-0.36,1.14-0.74,1.73-1.12l0.61-0.4
		c0.4-0.25,0.8-0.52,1.2-0.79l0.42-0.28c1.1-0.73,2.22-1.48,3.34-2.25c0.58-0.39,1.17-0.79,1.74-1.19c2.01-1.39,4.02-2.81,6.01-4.25
		c2-1.44,3.98-2.92,5.92-4.4l0.01-0.01c0.64-0.48,1.28-0.98,1.91-1.46c0.65-0.5,1.31-1.01,1.94-1.51c1.3-1.02,2.62-2.06,3.93-3.14
		c1.51-1.23,3.04-2.49,4.57-3.78c1.06-0.9,2.12-1.8,3.19-2.74c2.15-1.88,3.82-3.38,5.4-4.83c0.64-0.6,1.3-1.2,1.93-1.8
		c1.58-1.47,2.98-2.81,4.29-4.1l0.12-0.12c0.43-0.42,0.87-0.85,1.29-1.27c0.4-0.4,0.8-0.8,1.2-1.2c2.74,3.45,6.1,7.22,8.07,9.39
		c-3.97,2.67-7.69,6.16-10.66,10.7c-0.06,0.08-0.11,0.16-0.16,0.24c-0.26,0.4-0.51,0.8-0.76,1.22
		c-20.22,7.84-36.68,22.06-37.38,22.66c-0.63,0.55-0.85,1.42-0.57,2.19c0.28,0.78,1.01,1.31,1.84,1.32
		c0.73,0.01,17.67,0.24,36.58-7.76c7.03,13.28,11.89,19.5,20.44,20.68c-4.81-0.1-9.76-0.3-14.81-0.59
		c-1.85-0.11-3.72-0.23-5.59-0.37c-12.35-0.89-25.32-2.4-38.68-4.74c-1.72-0.3-3.44-0.62-5.17-0.95c-0.33-0.06-0.66-0.13-0.99-0.19
		c-2.9-0.56-5.82-1.16-8.76-1.8C414.86,914.3,411.74,913.57,408.61,912.79z M520.36,910.11c5.03,0.6,29.8,3.22,47.98-0.43
		c1.23,0.99,2.5,1.97,3.75,2.9c0.22,0.16,0.44,0.33,0.66,0.49c0.91,0.69,1.81,1.36,2.72,2c0.66,0.47,1.33,0.94,2.02,1.41
		c-0.29,0.07-0.6,0.13-0.93,0.2c-0.07,0.01-0.14,0.02-0.22,0.04c-0.3,0.07-0.6,0.13-0.92,0.19c-0.28,0.05-0.56,0.1-0.85,0.16
		c-0.34,0.07-0.69,0.14-1.05,0.21c-0.53,0.09-1.08,0.2-1.65,0.3c-0.64,0.13-1.31,0.25-2.01,0.37c-0.09,0.01-0.19,0.03-0.28,0.05
		c-0.7,0.12-1.44,0.25-2.2,0.38c-0.1,0.01-0.19,0.03-0.29,0.04c-0.49,0.09-0.98,0.17-1.49,0.25c-2.21,0.36-4.62,0.73-7.21,1.09
		c-1.32,0.19-2.7,0.38-4.12,0.56c-0.86,0.12-1.74,0.23-2.63,0.34c-0.7,0.08-1.4,0.17-2.12,0.25c-14.25,1.68-32.48,3.03-53.32,2.78
		C504.83,922.49,517.08,912.82,520.36,910.11z M102.45,557.12c4.37-15.89,9.11-27.54,13.06-35.63c8.54-0.62,14.81-2.9,15.26-3.07
		c1.21-0.45,1.84-1.79,1.42-3.02c-0.33-0.92-3.26-8.97-7.99-12.25c-0.09-0.07-0.18-0.14-0.27-0.19c-0.01-0.01-0.03-0.02-0.05-0.03
		c-0.06-0.04-0.12-0.07-0.17-0.1c-0.01-0.01-0.02-0.01-0.03-0.02c-0.02-0.01-0.04-0.01-0.06-0.02c-0.11-0.05-0.22-0.09-0.33-0.13
		c-0.02-0.01-0.04-0.02-0.05-0.02c-0.07-0.02-0.14-0.04-0.22-0.04c-0.01,0-0.02,0-0.03-0.01c-0.02,0-0.04-0.01-0.06-0.01
		c-0.02,0-0.04-0.01-0.06-0.01c-5.18-0.49-9.92-1.38-14.19-2.65c1.61-5.2,5.39-9.69,7.09-11.51c0,0,0,0,0,0
		c22.05,5.09,26.58,21.76,26.77,22.48c0.19,0.77,0.76,1.4,1.52,1.66c0.75,0.27,1.58,0.15,2.22-0.33c0.3-0.23,7.43-5.61,12.66-11.88
		c0.78-0.93,0.73-2.3-0.12-3.17c-0.54-0.56-6.09-6.24-15.4-12.73c0,0,0,0,0,0c3.94-1.11,9.56-2.47,13.95-2.7l0.01,0.01l21.69,15.35
		C156.06,513.02,124.95,538.32,102.45,557.12z M123,508.45c1.54,1.75,2.87,4.26,3.76,6.24c-1.94,0.54-4.96,1.26-8.61,1.71
		c0,0-0.01,0-0.01,0C120.19,512.64,121.88,510.04,123,508.45C123,508.45,123,508.45,123,508.45z M112.47,516.84
		C112.47,516.84,112.47,516.84,112.47,516.84c-5.31,0.13-11.29-0.51-17.01-2.85c-9.32-3.81-13.14-12.37-13.62-19.11
		c-0.21-2.96,0.23-5.63,1.16-7.44c0.4,0.67,0.83,1.32,1.28,1.96c3.47,4.84,9.64,10.54,20.52,14.29c0.15,0.07,0.31,0.13,0.47,0.16
		c3.76,1.27,8.07,2.31,13.02,3C116.82,509.03,114.8,512.31,112.47,516.84z M104.17,498.37c0,0-0.01,0-0.01,0
		c-6.99-2.75-12.4-6.71-16-11.75c-3.37-4.71-4.69-9.76-4.82-14.04c4.38,4.45,12.84,10.95,27.15,14.63c0,0,0,0,0,0
		C108.37,489.8,105.63,493.79,104.17,498.37z M115.46,483.47c-15.76-3.21-24.67-10.14-28.86-14.42
		c34.15,1.14,60.66,23.79,67.22,29.92c-2.72,2.98-5.77,5.67-7.86,7.41C143.29,500.25,135.48,487.56,115.46,483.47z M138.23,481.02
		c-5.67-3.56-12.36-7.14-19.89-10.06c-2.22-3.75-11.6-19.48-16.61-25.92c-0.81-1.04-2.3-1.23-3.34-0.42
		c-1.04,0.81-1.23,2.3-0.42,3.34c3.54,4.55,9.57,14.31,13.35,20.55c0,0,0,0,0,0c-3.28-1.02-6.68-1.9-10.21-2.58
		c-2.6-3.55-13.98-21.32-21.18-38.97l71.65,50.7l0.01,0.01C146.12,478.61,140.59,480.27,138.23,481.02z M87.97,453.84
		c2.22,3.87,4.6,7.8,6.73,11.06c-4.26-0.52-8.66-0.75-13.19-0.62c-0.34,0-0.69,0.08-1.01,0.23c-0.1,0.05-0.19,0.1-0.28,0.16
		c-0.41,0.27-0.71,0.65-0.88,1.07c-0.05,0.12-0.09,0.24-0.12,0.37c-1.27,5.3-0.73,11.14,1.4,16.55c-2.58,2.63-3.91,7.22-3.53,12.55
		c0.57,8.12,5.18,18.43,16.37,23.11c-6.06,5.67-17.37,20.04-13,45.82c0.18,1.08,1.09,1.9,2.19,1.98h0.16c1.03,0,1.96-0.67,2.27-1.66
		c4.06-12.86,12.25-36.88,14.71-44.11c3.53,0.85,7.02,1.22,10.32,1.29c0,0,0,0,0.01,0c-4.37,9.34-9.44,22.65-13.98,40.78
		c-8.96,7.55-16,13.58-19.74,16.81c-12.41-54.83-4.04-125.08-0.46-149.47C79.71,438.82,84.34,447.52,87.97,453.84z M92.8,526.12
		c-2.37,6.97-5.67,16.72-8.53,25.39C84.6,539.51,88.85,531.25,92.8,526.12z M869.26,609.18c-10.67-40.79-39.61-62.86-62.65-74.34
		c13.3,5.69,27.59,14.19,40.74,26.87c10.11,9.76,18.71,21.1,25.74,33.98C871.89,600.21,870.63,604.71,869.26,609.18z M831.36,299.02
		c-0.05-0.07-0.1-0.15-0.15-0.22c-0.01-0.01-0.01-0.02-0.02-0.03c-0.86-1.36-1.72-2.7-2.59-4.02c-4.16-6.97-7.38-15.11-10.05-24.04
		c12.67,7.83,27.36,16.18,41.09,23.75c0.02,2.25,0.04,4.49,0.06,6.74c0.1,9.97,0.2,20.07,0.42,29.75c0,0,0,0,0,0
		C850.17,321.75,839.73,310.81,831.36,299.02z M855.19,235.03c0.05,0.07,0.11,0.15,0.16,0.23c3.28,5.06,3.92,28.94,4.23,54.57
		c-14.52-8.02-29.9-16.83-42.65-24.83c-2.89-10.79-5.17-22.51-7.51-34.54c-0.77-3.97-1.55-7.95-2.35-11.93c0,0,0,0,0,0
		c22.41,6.19,44.37,12.41,47.94,16.28C855.07,234.88,855.13,234.96,855.19,235.03z M760.25,200.94
		c-6.95-10.92-14.25-22.61-21.16-33.76c20.24,2.58,40.01,5.77,51.63,7.73c4.84,11.38,8.22,24.51,11.1,38.03
		C788.02,209.13,773.52,205.11,760.25,200.94z M703.92,117.29c2.7,4.46,13.88,23,27.38,44.9c0,0,0,0,0,0
		c-1.71-0.2-3.42-0.4-5.12-0.58c-12.1-1.34-24.91-3.58-37.15-6.16c0,0,0-0.01-0.01-0.01c-12.83-15.52-22.95-31.49-26.67-37.59
		c0,0,0,0,0,0C675.23,116.36,689.07,116.08,703.92,117.29z M658.01,118.4c2.55,4.3,11.98,19.74,24.67,35.67
		c-22.62-5.04-42.44-10.88-50.88-13.66c-0.01,0-0.02,0-0.03-0.01c-7.79-2.75-15.72-5.25-23.62-7.48
		C622.84,126.13,639.4,120.99,658.01,118.4z M602.7,135.56c7.6,2.05,15.24,4.37,22.79,6.92c-27.8,1.51-50.55,12.92-67.12,24.96
		C570.59,155.56,585.26,144.4,602.7,135.56z M373.82,142.7c0.01,0,0.01,0,0.02-0.01c7.7-2.62,15.58-5.01,23.5-7.15c0,0,0,0,0.01,0
		c16.48,10.14,29.73,22.08,40.08,33.55C422.11,156.73,400.62,144.67,373.82,142.7z M276.27,152.85c10.2,0.46,21.31,0.95,32.87,0.81
		c-6.29,10.01-12.64,19.02-17.52,23.52c-1.4,0.86-2.77,1.73-4.16,2.62c-8.1,3.64-22.81,4.67-38.83,5.08
		c4.91-10.61,10.28-21.74,16.37-32.51C268.65,152.51,272.41,152.68,276.27,152.85z M233.29,189.15c3.04-0.04,6.05-0.08,9.03-0.13
		c-0.74,1.62-1.48,3.23-2.21,4.82c-2.47,5.41-4.82,10.53-7.15,15.41c-11.44,2.71-25.14,5.22-36.77,7.31
		c2.37-9.34,4.88-18.41,7.58-26.56C213.01,189.42,223.23,189.28,233.29,189.15z M186.13,241.15c-1.63,6.94-3.24,13.77-4.85,20.24
		c-11.06,5.47-24.37,11.32-39.63,17.43c-0.89-18.49-1.24-33.26,1.46-41.56c0,0,0,0,0,0c1.56-2.05,3.18-4.12,4.94-6.33c0,0,0,0,0,0
		c7.74-3.03,24.7-6.09,42.75-9.32C189.21,228.04,187.67,234.61,186.13,241.15z M138.9,334.28c-0.61,13.92-2.27,25.41-5.06,34.99
		c0,0,0,0,0,0c0,0.01-0.01,0.02-0.01,0.03c-3.14,8.43-5.99,17.05-8.5,25.68c0,0,0,0,0,0c-6.67-13.58-11.31-27.48-14.5-40.42
		C114.53,352.14,126.29,344.28,138.9,334.28z M128.01,400.19c1.95-7.02,4.13-14.05,6.53-20.99c3.01,19.98,15.33,55.77,49.88,76.64
		C160.82,444.81,141.89,426.14,128.01,400.19C128.01,400.19,128.01,400.19,128.01,400.19z M192.72,531.7
		c0.85,2.98,1.81,5.91,2.88,8.71c0.34,0.91,0.7,1.8,1.07,2.7c8.91,21.68,24.81,39.92,45.97,52.74c21.17,12.82,46.58,19.6,73.5,19.6
		c52.01,0,108.67-43.95,135.45-67.67c-7.4,7.39-16.69,17.45-25.93,29.52c-18.75,24.5-41.1,62.55-41.1,104.69
		c0,73.92,36.7,105.72,68.54,119.35c-0.84,0.94-1.69,1.89-2.55,2.86c-19.57,22.03-43.91,49.42-101.12,43.91
		c-9.46-3.95-18.77-8.26-27.87-12.93c-9.11-4.67-18-9.67-26.62-15c-2.2-1.49-4.43-2.91-6.68-4.21c-0.03-0.02-0.07-0.04-0.1-0.06
		c-0.04-0.02-0.08-0.04-0.12-0.07c-25.36-16.4-48.76-35.75-69.56-57.54c-0.03-0.03-0.06-0.07-0.09-0.1
		c-10.08-10.55-19.64-21.79-28.38-33.38c-0.09-0.12-0.18-0.23-0.25-0.33c-0.01-0.01-0.01-0.01-0.02-0.02c0,0-0.01-0.01-0.01-0.01
		c0-0.01-0.01-0.01-0.02-0.02c-15.15-20.1-28.31-41.74-39.11-64.33c-0.01-0.04-0.03-0.07-0.05-0.11l-0.07-0.16
		c-0.06-0.13-0.12-0.26-0.18-0.38c-0.02-0.03-0.03-0.07-0.05-0.1c-5.18-10.89-9.86-22.15-13.93-33.46
		c-3.27-36.95,25.97-69.33,51.14-90.03c0.04-0.03,0.07-0.05,0.11-0.08c0.02-0.01,0.03-0.03,0.05-0.04c0.01-0.01,0.02-0.02,0.03-0.03
		C189.36,534.33,191.05,532.99,192.72,531.7z M314.43,835.97C314.44,835.97,314.44,835.97,314.43,835.97
		c7.45,3.96,15.03,7.69,22.73,11.17c0.01,0,0.02,0.01,0.02,0.01c-4.14-0.25-8.16-0.41-12.05-0.5
		C321.79,843.1,318.2,839.49,314.43,835.97z M418.59,838.58c-2.9,2.47-5.93,4.95-9.09,7.39c-6.73,5.21-14.38,10.51-22.83,15.44
		c-8.53-2.55-17.02-5.44-25.38-8.61c-0.01,0-0.02-0.01-0.02-0.01C386.1,853.28,404.3,847.3,418.59,838.58z M265.48,805.05
		c-8.61-3.65-18.3-7.46-28.41-11.38c-5.19-8.71-9.87-17.09-13.59-24.61c0,0,0,0,0,0C236.58,782.03,250.63,794.07,265.48,805.05
		C265.47,805.05,265.47,805.05,265.48,805.05z M152.26,672.4C152.26,672.4,152.26,672.4,152.26,672.4
		c7.78,15.06,16.61,29.64,26.37,43.58c0,0,0.01,0.01,0.01,0.01c-9.11-6.47-18.78-12.4-28.44-17.92c0-0.04,0.01-0.08,0.01-0.12
		C151.27,688.06,152.2,679.34,152.26,672.4z M132.35,614.21c-0.01-0.02-0.01-0.04-0.02-0.05c-1.91-5.9-3.66-11.84-5.25-17.77
		c0,0,0,0,0,0c4.37-6.95,8.94-13.16,13.39-18.59c6.01-7.34,12.14-13.73,17.91-19.17C144.91,574.56,134.13,593.48,132.35,614.21z
		 M124.22,601.12c2.42,8.64,5.17,17.28,8.21,25.75c0,0,0,0,0,0c0,0,0,0,0,0.01c0.02,0.04,0.03,0.08,0.04,0.11
		c2.56,7.14,5.37,14.27,8.4,21.3c0,0,0,0,0,0c-10.35-8.99-24.91-16.4-29.92-18.82C114.66,619.05,119.25,609.58,124.22,601.12z
		 M109.64,633.29c7.22,3.54,30.96,15.9,37.06,27.91c0.01,0.02,0.02,0.03,0.03,0.06l0.01,0.01c0.01,0.01,0.01,0.03,0.02,0.05
		c2.66,5.38,1.33,18.85-0.36,34.6c-7.45-4.18-14.84-8.14-21.92-11.93c-8.1-4.33-15.76-8.43-22.27-12.25
		C103.11,657.81,105.81,644.98,109.64,633.29z M149.73,702.42c12.86,7.41,25.65,15.53,36.97,24.68c2.67,3.77,3.66,17.25,4.71,31.51
		c0.41,5.6,0.86,11.59,1.43,17.72c-16.23-6.66-31.8-13.6-44.58-20.73C146.2,738.64,147.94,719.4,149.73,702.42z M195.41,758.31
		c-0.67-9.13-1.25-16.89-2.18-22.83c0,0,0,0,0.01,0.01c6.95,8.7,14.31,17.14,21.99,25.18c3.61,8.73,9.22,19.35,15.84,30.69
		c-0.78-0.3-1.55-0.6-2.33-0.9c-10.38-4-21.13-8.15-31.69-12.43C196.36,771.21,195.87,764.51,195.41,758.31z M240.44,799.28
		c18.58,7.24,35.27,14.05,45.65,20.06c0.05,0.03,0.1,0.06,0.15,0.09c2.06,1.33,4.19,2.67,6.34,3.99
		c9.65,6.55,18.83,14.87,26.85,23.14c-15.28-0.08-28.55,0.87-40.07,1.7c-2.22,0.16-4.39,0.32-6.51,0.46
		C262.58,833.86,250.75,816.16,240.44,799.28z M411.94,849.14c22.19-17.16,38.22-35.86,46.03-45.81c0.84,0.33,1.7,0.65,2.63,0.97
		c0.74,0.27,1.47,0.52,2.23,0.78c3.62,1.21,7.42,2.3,11.31,3.22c-5.71,15.66-13.21,29.93-22.41,42.66
		c-0.96,1.33-1.94,2.64-2.94,3.94c-1.49,1.94-3.03,3.85-4.61,5.72c-2.11,2.49-4.29,4.91-6.54,7.26c-1.46,1.53-2.95,3.02-4.47,4.49
		c-13.9-2.38-27.75-5.54-41.27-9.4c0,0,0,0-0.01,0C399.24,858.48,405.95,853.77,411.94,849.14z M559.72,873.5
		c-21.37-22.79-32.41-48.78-37.4-63.6c5.48-1.01,10.85-2.45,15.99-4.28c7.36,10.54,20.43,26.94,39.33,42.16
		c7.88,6.35,16.08,11.96,24.58,16.8C588.27,868.34,574,871.33,559.72,873.5z M607.8,863.03c-10.63-5.7-19.81-12.06-27.53-18.27
		c-13.53-10.88-24.01-22.36-31.49-31.79c5.58,5.19,12.32,10.9,19.95,16.33c23.48,16.71,46.95,24.81,68.88,23.92
		C627.79,856.9,617.82,860.19,607.8,863.03C607.8,863.03,607.8,863.03,607.8,863.03z M684.67,840.46
		c4.44-4.39,9.47-8.64,15.14-12.46c2.82-1.66,5.63-3.34,8.41-5.07c9.84-5.27,23.51-9.85,38.42-13.97
		c-5.7,9.69-12.04,20.33-18.69,30.8C715.62,838.72,701.18,838.42,684.67,840.46z M787.04,794.88c-10.44,2.42-21.38,4.96-32,7.69
		c9.07-15.45,16.89-28.72,21.18-33.19c0.16-0.16,0.31-0.31,0.46-0.45c7.36-7,18.12-11.46,35.6-18.4c-0.68,2.26-1.37,4.53-2.06,6.81
		c-3.47,11.47-7.08,23.41-10.64,34.6c0,0,0,0,0,0C795.44,792.94,791.23,793.91,787.04,794.88z M861.11,674.14
		c15.23-12.92,24.5-25.17,29.21-32.34c4.1,17.52,6.36,36.81,6.75,57.82c-2.78,2.71-15.67,14.63-38.68,26.69
		C859.69,708.79,860.55,689.77,861.11,674.14z M874.54,590.1c-6.83-11.72-14.96-22.15-24.41-31.26c-14-13.51-29.27-22.4-43.38-28.25
		c0.87-3.17,1.64-6.42,2.3-9.68c20.98,3.38,39.92,11.75,56.34,24.93c5.41,4.33,10.59,8.93,15.41,13.67
		C879.14,569.83,877.04,580.02,874.54,590.1z M903.83,313.48c-7.73-4.01-23.12-12.05-40.22-21.43c-0.26-21.92-0.66-38.38-2.07-48.62
		C877.83,265.44,892.02,288.95,903.83,313.48z M848.85,227.08c-8.74-3.47-23.04-7.53-42.68-12.95c0,0-0.01,0-0.01,0
		c-2.82-13.5-6.08-26.74-10.76-38.42c2.57,0.44,4.38,0.77,5.24,0.92c0,0,0,0,0,0C817.98,192.12,834.16,209.05,848.85,227.08z
		 M792.86,169.83c0.67,0.57,1.34,1.15,2.01,1.73c-0.43-0.07-0.87-0.15-1.33-0.23c-0.23-0.52-0.48-1.03-0.72-1.54
		c0.01,0.01,0.03,0.02,0.04,0.03C792.86,169.83,792.86,169.83,792.86,169.83z M710,113.84C710,113.84,710,113.84,710,113.84
		c-1.55-0.16-3.09-0.31-4.63-0.44c0,0,0,0-0.01,0c-0.03,0-0.06,0-0.08-0.01c-16.07-1.37-31.57-1.06-46.42,0.92
		c-0.01,0-0.02,0-0.03,0c-0.02,0-0.04,0.01-0.05,0.01c-20.71,2.76-40.19,8.75-58.27,17.97c-26.05,13.28-48.8,32.92-67.62,58.39
		l-2.04,2.23c0,0,0,0,0,0c-3.92-1.1-7.92-2.01-11.96-2.74c0.66-2.05,1.37-4.13,2.13-6.23c0.62-1.71,1.28-3.44,1.98-5.19
		c0.5-1.28,1.04-2.57,1.59-3.86c0.27-0.64,0.55-1.29,0.84-1.93c0.29-0.65,0.58-1.3,0.88-1.95c0.23-0.52,0.47-1.04,0.72-1.56
		c0.09-0.19,0.18-0.38,0.27-0.57c0.59-1.25,1.2-2.5,1.83-3.75c0.68-1.34,1.37-2.67,2.1-4.01c0.69-1.29,1.41-2.57,2.15-3.86
		c0.02-0.03,0.03-0.06,0.05-0.09c0.74-1.29,1.51-2.57,2.3-3.85c8.87-14.44,20.83-28.69,36.93-41.03c0.73-0.56,1.47-1.12,2.22-1.67
		c5.99-4.44,12.53-8.6,19.68-12.41c0.81-0.44,1.63-0.86,2.45-1.29c1-0.52,2.01-1.02,3.03-1.52c0.93-0.45,1.87-0.9,2.83-1.34
		c0.95-0.45,1.91-0.89,2.88-1.32c0.66-0.29,1.33-0.59,2-0.87c3.29-1.43,6.69-2.77,10.2-4.04c1.03-0.37,2.07-0.74,3.11-1.1
		c1.83-0.63,3.69-1.24,5.58-1.82c0.49-0.16,0.98-0.31,1.48-0.46c0.95-0.29,1.91-0.57,2.87-0.84c1.07-0.31,2.14-0.61,3.22-0.9
		c0.07-0.02,0.14-0.04,0.22-0.06c14.72,4.55,29.23,9.87,43.43,15.93C688.76,103.24,699.49,108.33,710,113.84z M358.93,84.76
		c1.47,0.19,2.92,0.39,4.35,0.62c0.91,0.14,1.82,0.3,2.72,0.47c0.52,0.09,1.03,0.19,1.54,0.29c0.7,0.13,1.4,0.27,2.1,0.42
		c0.69,0.14,1.38,0.29,2.07,0.45c1.49,0.33,2.97,0.7,4.43,1.09c0.55,0.14,1.09,0.29,1.64,0.44c0.66,0.18,1.32,0.37,1.98,0.56
		c1.31,0.39,2.6,0.79,3.88,1.22c0.64,0.21,1.28,0.42,1.91,0.64c1.9,0.65,3.76,1.35,5.59,2.08c1.13,0.45,2.25,0.91,3.35,1.39
		c4.85,2.08,9.45,4.41,13.81,6.92c0.97,0.56,1.93,1.13,2.88,1.71c0.56,0.34,1.12,0.68,1.67,1.03c0.99,0.62,1.97,1.25,2.93,1.9
		c2.55,1.68,5,3.43,7.36,5.23c0.46,0.35,0.93,0.7,1.39,1.06c0.91,0.71,1.82,1.43,2.7,2.16c0.28,0.22,0.56,0.45,0.83,0.68
		c5.9,4.87,11.15,9.97,15.8,15.04c0.68,0.75,1.35,1.49,2.01,2.23c1,1.14,1.98,2.27,2.93,3.4c0.62,0.74,1.23,1.48,1.82,2.21
		c1.2,1.48,2.35,2.95,3.45,4.39c15.75,20.72,23.94,40.74,26.38,47.28c-6.38,1.05-12.63,2.65-18.63,4.77c0,0,0,0,0,0l-2.33-3.27
		c-11.14-17.04-30.73-41.2-60.77-59.48c-0.01,0-0.01-0.01-0.02-0.02c-0.04-0.02-0.08-0.05-0.12-0.07c0,0-0.01,0-0.01-0.01
		c-0.01-0.01-0.03-0.01-0.04-0.02c-18.99-11.53-39.88-19.28-62.1-23.04c-0.06-0.02-0.12-0.02-0.18-0.03c-0.01,0-0.02,0-0.02,0
		c0,0,0,0-0.01,0c-0.07-0.01-0.13-0.03-0.2-0.03c-9.69-1.62-19.76-2.5-30-2.62c0.01,0,0.01,0,0.02-0.01
		C323.2,97.7,340.96,90.62,358.93,84.76z M285.65,116.14c0.01-0.01,0.03-0.02,0.04-0.02c-7.92,8.57-15.51,19.21-22.99,32.19
		c-11.45-0.35-21.79-0.22-30.3,1.51c0.01,0,0.01-0.01,0.02-0.01C249.34,137.35,267.16,126.08,285.65,116.14z M207.81,169.24
		c0.01-0.01,0.02-0.02,0.03-0.03c-2.52,4.88-4.85,10.62-7.04,16.99c-4.84,0.37-9.37,0.88-13.48,1.6c0,0,0.01-0.01,0.01-0.01
		C193.96,181.39,200.81,175.19,207.81,169.24z M181.93,193.07c4.87-1.34,10.86-2.19,17.5-2.75c-2.69,8.31-5.18,17.49-7.57,27.02
		l-1,0.18c-15.38,2.75-29.1,5.22-38.21,7.73c0,0,0,0,0.01-0.01C161.84,214.08,171.67,203.28,181.93,193.07z M137.59,244.58
		c-1,8.98-0.6,21.01,0.13,35.79c-12.96,5.11-24.18,9.16-30.29,11.32c8.99-16.26,19.1-32.05,30.14-47.1
		C137.58,244.59,137.59,244.59,137.59,244.58z M100.4,304.95c-0.02,10.87,1.47,28.79,6.23,48.84c0.02,0.2,0.06,0.4,0.14,0.6
		c3.64,15.18,9.16,31.54,17.32,46.98c16.6,31.38,40.35,52.54,70.61,62.93c-1.01,3.15-1.91,6.4-2.69,9.72
		c-1.09-0.21-2.16-0.44-3.23-0.68c-0.79-0.17-1.56-0.35-2.34-0.53c-0.41-0.09-0.81-0.19-1.22-0.29c-1.2-0.28-2.39-0.58-3.56-0.88
		c-1.06-0.28-2.11-0.56-3.15-0.85c-0.62-0.18-1.23-0.35-1.84-0.53c-2.43-0.7-4.81-1.45-7.12-2.22c-0.64-0.22-1.27-0.44-1.9-0.66
		c-0.93-0.32-1.86-0.66-2.77-0.99c-0.51-0.19-1.02-0.39-1.53-0.58c-0.7-0.27-1.4-0.54-2.09-0.81c-0.7-0.28-1.38-0.56-2.06-0.84
		c-0.83-0.34-1.64-0.68-2.45-1.04c-0.53-0.23-1.05-0.46-1.57-0.69c-0.66-0.29-1.31-0.59-1.96-0.89c-0.62-0.29-1.23-0.58-1.84-0.87
		c-1.13-0.54-2.24-1.09-3.33-1.65c-0.44-0.23-0.89-0.46-1.32-0.69c-0.66-0.34-1.31-0.69-1.95-1.05c-0.52-0.28-1.03-0.56-1.53-0.84
		c-1.64-0.92-3.24-1.87-4.8-2.83c-0.45-0.27-0.9-0.55-1.34-0.84c-1.12-0.7-2.21-1.41-3.28-2.14c-0.53-0.35-1.06-0.71-1.58-1.08
		c-4.68-3.25-8.95-6.67-12.85-10.21c-0.41-0.37-0.82-0.75-1.23-1.12c-2.2-2.06-4.28-4.14-6.25-6.25c-0.69-0.75-1.38-1.5-2.04-2.25
		c-1.07-1.2-2.1-2.41-3.09-3.63c-0.34-0.41-0.67-0.82-0.99-1.22c-1.3-1.62-2.53-3.25-3.71-4.89c-0.3-0.41-0.59-0.81-0.87-1.22
		c-4.89-6.95-8.72-13.93-11.74-20.58c-0.17-0.36-0.33-0.72-0.48-1.07c-1.08-2.43-2.05-4.82-2.92-7.14
		c-0.12-0.31-0.23-0.62-0.34-0.93c-2.45-6.68-4.08-12.8-5.17-17.93c-0.07-0.29-0.13-0.58-0.18-0.86c-0.39-1.9-0.7-3.64-0.95-5.22
		c-0.04-0.22-0.07-0.44-0.11-0.66c-0.11-0.77-0.21-1.49-0.31-2.17c-0.04-0.32-0.08-0.63-0.12-0.93c-0.04-0.37-0.08-0.73-0.12-1.06
		c-0.03-0.25-0.06-0.5-0.08-0.74c-0.01-0.08-0.01-0.15-0.02-0.23c-0.05-0.46-0.09-0.87-0.12-1.25c-0.01-0.12-0.02-0.25-0.03-0.36
		c-0.03-0.47-0.06-0.86-0.08-1.18c-0.01-0.15-0.01-0.29-0.02-0.41C84.6,338.63,91.98,321.48,100.4,304.95z M77.31,637.99
		c0.08-0.56,0.17-1.13,0.27-1.68c0.09-0.6,0.19-1.2,0.3-1.8c0.1-0.6,0.21-1.19,0.32-1.78c0.11-0.59,0.22-1.18,0.34-1.77
		c0.35-1.75,0.73-3.48,1.14-5.18c0.41-1.71,0.85-3.39,1.31-5.04c0.15-0.55,0.31-1.1,0.47-1.64c0.16-0.55,0.32-1.09,0.49-1.62
		c0.16-0.54,0.33-1.08,0.5-1.61c0.34-1.07,0.7-2.12,1.07-3.17c0.17-0.52,0.36-1.04,0.55-1.55c0.18-0.52,0.37-1.03,0.57-1.54
		c0.21-0.56,0.42-1.1,0.64-1.65c0.58-1.47,1.18-2.92,1.81-4.35c0.65-1.5,1.33-2.97,2.03-4.41c0.45-0.92,0.9-1.82,1.37-2.72
		c0.23-0.46,0.47-0.92,0.72-1.37c0.73-1.39,1.49-2.75,2.27-4.08c0.45-0.79,0.91-1.56,1.38-2.33c0.58-0.94,1.17-1.88,1.77-2.8
		c0.27-0.42,0.54-0.84,0.82-1.25c0.27-0.42,0.55-0.83,0.84-1.24c0.5-0.75,1.02-1.49,1.55-2.22c0.28-0.4,0.57-0.8,0.87-1.2
		c0.29-0.4,0.58-0.79,0.88-1.18c0.29-0.4,0.59-0.79,0.89-1.17c0.13-0.18,0.27-0.35,0.42-0.53c0.2-0.28,0.42-0.55,0.64-0.82
		c0.6-0.77,1.21-1.52,1.83-2.26c0.31-0.37,0.62-0.74,0.93-1.11s0.62-0.73,0.94-1.09c0.31-0.36,0.63-0.72,0.95-1.08
		c2.66-2.99,5.42-5.82,8.28-8.49c0.21-0.21,0.42-0.41,0.64-0.6c0.37-0.35,0.76-0.71,1.14-1.05c0.65-0.59,1.3-1.17,1.96-1.74
		c1.39-1.22,2.79-2.4,4.22-3.54c0.71-0.58,1.43-1.14,2.14-1.69c1.7-1.33,3.42-2.6,5.15-3.82c0.46-0.33,0.92-0.66,1.38-0.97
		c1.42-0.99,2.86-1.95,4.3-2.88c0.4-0.26,0.81-0.52,1.22-0.78c0.37-0.24,0.74-0.47,1.12-0.7c1.48-0.93,2.97-1.82,4.46-2.69
		c1.46-0.84,2.93-1.66,4.39-2.45c0.75-0.41,1.5-0.81,2.25-1.19c1.49-0.78,2.99-1.54,4.48-2.26c0.75-0.37,1.49-0.73,2.23-1.07
		c1.48-0.7,2.96-1.38,4.43-2.02c10.21-4.5,20.03-7.76,28.61-10.12c0.3,1.57,0.64,3.17,1.03,4.79c0,0,0,0.01,0,0.01
		c-2.13,1.63-4.3,3.34-6.49,5.13c-2.14,1.29-25.77,15.83-47.67,42.53c-4.67,5.7-9.48,12.23-14.06,19.55
		c-0.16,0.17-0.29,0.37-0.36,0.58c0,0,0,0.01,0,0.01c-6.14,9.91-11.86,21.26-16.29,33.99c-0.08,0.11-0.15,0.22-0.2,0.35
		c-0.11,0.24-0.16,0.49-0.18,0.74c-4.03,11.85-6.93,24.89-8.03,39.05c-8.1-5.01-13.84-9.5-15.44-13.39c0-0.01-0.01-0.01-0.01-0.02
		c-2.05-5.29-4.03-10.67-5.87-16.04C77.12,639.31,77.22,638.65,77.31,637.99z M87.19,666.6c2.99,2.35,6.67,4.79,10.88,7.33
		c-0.26,5.35-0.27,10.86,0.02,16.52c-3.88-7.82-7.52-15.79-10.9-23.82C87.2,666.61,87.19,666.6,87.19,666.6z M135.51,752.54
		c2.82,1.87,5.85,3.72,9.07,5.56c0.42,2.97,0.96,5.87,1.64,8.68c-3.68-4.67-7.25-9.42-10.7-14.22
		C135.52,752.55,135.51,752.54,135.51,752.54z M153.24,775.48C153.24,775.48,153.24,775.48,153.24,775.48
		c-1.93-4.59-3.3-9.61-4.23-14.93c12.96,7.01,28.37,13.79,44.3,20.28c1.76,16.75,4.72,34.07,11.02,46.93
		C185.89,811.76,168.75,794.23,153.24,775.48z M270.86,852.87c9.5,13.71,17.49,24.77,21.48,30.22c-3.83-0.47-7.7-1.09-11.62-1.92
		c-16.28-9.03-32.04-19.09-47.02-30.03C244.59,854.04,256.64,853.79,270.86,852.87z M291.71,887.06c1.5,0.18,2.99,0.34,4.48,0.48
		c0.15,0.04,0.31,0.06,0.47,0.06c0.02,0,0.04-0.01,0.06-0.01c4,0.35,7.95,0.52,11.84,0.52c14.54,0,28.29-2.31,41.07-6.1
		c0.01,0,0.03,0,0.04,0c0.39,0,0.78-0.11,1.12-0.34c0.01,0,0.01-0.01,0.02-0.01c13.27-4.04,25.46-9.66,36.38-15.91c0,0,0,0,0.01,0
		c13.83,4.1,28.05,7.46,42.34,10.03c-4.31,3.9-8.84,7.56-13.59,10.99c-1.34,0.97-2.71,1.92-4.09,2.86
		c-0.79,0.53-1.59,1.05-2.39,1.57c-1.44,0.94-2.9,1.86-4.38,2.76c-0.07,0.03-0.13,0.07-0.19,0.11c-1.55,0.94-3.11,1.85-4.7,2.73
		c-0.79,0.45-1.59,0.89-2.39,1.32c-1.6,0.87-3.23,1.71-4.87,2.53c-0.81,0.41-1.64,0.82-2.47,1.21c-1.55,0.75-3.12,1.47-4.7,2.18
		c-1.68,0.75-3.39,1.48-5.11,2.18c-0.86,0.35-1.73,0.7-2.6,1.04c-2.62,1.03-5.27,2.01-7.97,2.92c-1.76,0.6-3.53,1.18-5.32,1.75
		c-0.06,0.01-0.11,0.03-0.16,0.05c-0.84,0.25-1.67,0.5-2.51,0.75c-0.99,0.3-1.99,0.59-2.99,0.86c-0.94,0.26-1.88,0.52-2.82,0.77
		C334.11,906.98,312.45,897.82,291.71,887.06C291.71,887.06,291.71,887.06,291.71,887.06z M640.71,915.37
		c-0.84-0.12-1.68-0.24-2.51-0.37c-0.98-0.15-1.96-0.31-2.93-0.48c-0.97-0.17-1.94-0.35-2.91-0.54c-1.92-0.38-3.83-0.79-5.72-1.25
		c-0.71-0.16-1.41-0.34-2.11-0.52c-0.35-0.09-0.7-0.18-1.05-0.27c-1.76-0.47-3.5-0.96-5.22-1.49c-0.92-0.28-1.83-0.57-2.74-0.88
		c-0.91-0.29-1.81-0.6-2.71-0.93c-0.71-0.24-1.42-0.5-2.13-0.78c-1.97-0.73-3.91-1.51-5.84-2.34c-0.87-0.37-1.74-0.75-2.6-1.15
		c-0.86-0.39-1.72-0.79-2.57-1.21c-0.85-0.4-1.7-0.82-2.54-1.26c-0.84-0.42-1.68-0.86-2.51-1.32c-0.74-0.39-1.48-0.79-2.21-1.21
		l-2.73-1.59c-0.81-0.47-1.63-0.97-2.43-1.48c-0.63-0.38-1.25-0.78-1.87-1.19l-22.25-18.09l-0.01-0.01
		c14.86-2.36,29.68-5.61,44.12-9.66c0,0,0,0,0.01,0c9.6,5.09,19.56,9.21,29.79,12.36c5.7,1.75,11.48,3.2,17.36,4.34
		c0.02,0.01,0.05,0.01,0.07,0.01c0.03,0.01,0.07,0.01,0.1,0.02c0.01,0,0.02,0,0.03,0.01c10.87,2.1,22.02,3.15,33.41,3.15
		c3.01,0,6.04-0.07,9.08-0.22h0.03c4.43-0.21,8.89-0.58,13.38-1.11C688.16,897.65,664.74,907.54,640.71,915.37z M720.68,880.41
		c-6.44,1.1-12.71,1.86-18.79,2.3c9.48-10.8,19.04-24.48,28.14-38.74c7.13,0.67,13.51,1.57,19.12,2.37
		c8.33,1.18,15.35,2.17,21.07,1.92C754.47,860.02,737.85,870.81,720.68,880.41z M838.58,785.08
		c-15.32,17.47-32.07,33.79-50.02,48.71c4.14-8.7,8.78-21.79,14.13-38.47c0,0,0,0,0,0C818.22,791.61,830.33,788.39,838.58,785.08
		C838.58,785.08,838.58,785.08,838.58,785.08z M853.67,766.92C853.67,766.92,853.67,766.92,853.67,766.92
		c1.79-8.83,3.23-21.71,4.36-35.91c0,0,0,0,0,0c15.69-7.98,26.93-15.96,33.9-21.57C880.75,729.51,867.92,748.79,853.67,766.92z
		 M900.86,692.54c-0.78-20.13-3.32-38.65-7.59-55.52c-0.39-1.53-0.79-3.04-1.2-4.54c-3.74-13.54-8.64-25.98-14.68-37.29
		c0-0.01-0.01-0.01-0.01-0.02c2.76-10.59,5.06-21.33,6.89-32.19c0.01,0.01,0.01,0.01,0.02,0.02c0,0.01,0,0.01,0,0.01
		c1.83,1.88,3.58,3.75,5.25,5.62c0.51,0.56,1,1.12,1.48,1.67c5.4,6.14,10,12.16,13.9,17.89c0.65,0.96,1.29,1.92,1.91,2.86
		c2.82,4.32,5.25,8.46,7.32,12.32c0.24,0.43,0.46,0.86,0.68,1.28c0.89,1.7,1.72,3.34,2.48,4.91c0.35,0.74,0.7,1.47,1.02,2.18
		c0.58,1.24,1.11,2.44,1.61,3.6c0.25,0.59,0.5,1.17,0.73,1.74c1.86,4.5,3.1,8.18,3.89,10.82c0.1,0.34,0.2,0.65,0.28,0.95
		c0.42,1.45,0.67,2.49,0.81,3.08C918.98,652.66,910.65,673.01,900.86,692.54z"/>
</g>
</svg>
