<?xml version="1.0" encoding="utf-8"?>
<!-- Generator: Adobe Illustrator 24.1.2, SVG Export Plug-In . SVG Version: 6.00 Build 0)  -->
<svg version="1.1" id="Layer_1" xmlns="http://www.w3.org/2000/svg" xmlns:xlink="http://www.w3.org/1999/xlink" x="0px" y="0px"
	 viewBox="0 0 3124.8 1046.88" style="enable-background:new 0 0 3124.8 1046.88;" xml:space="preserve">
<style type="text/css">
	.st0{fill:#D5A22A;}
	.st1{fill:#175351;}
	.st2{fill:#EEC156;}
	.st3{fill:#144EA2;}
	.st4{fill:#D58F2E;}
</style>
<g>
	<g>
		<path class="st0" d="M2475.38,748.08c0.15,0.06,0.11,0.28-0.05,0.28c-5.78-0.1-42.45-3.08-51.15-62.3
			c-4.85-40.34,1.79-79.15,74.04-152.94s119.23-120,154.21-163.15c33.94-41.86,33.72-49.03,38.06-81.25
			c0.02-0.18,0.29-0.16,0.29,0.02c1.75,50.8,2.88,71.36-7.72,101.15c-10.72,30.13-45.19,67.66-92.68,116.43
			c-47.49,48.77-91.91,87.83-122.3,134.81C2438.02,687.62,2451.89,738.64,2475.38,748.08z"/>
		<path class="st0" d="M2690.53,182.58c0.03-0.18,0.29-0.15,0.29,0.03c0.03,8.15,0.16,41.75,0.16,62.39
			c0,23.62-7.4,56.04-61.53,113.23s-92.94,93.96-141.19,146.3c-48.15,52.23-102.41,112.34-73.21,180.08
			c0.06,0.13-0.09,0.26-0.21,0.18c-3.25-2.11-25.39-18.69-25.39-77.37c0-63.32,55.66-127.91,113.11-185.11
			c57.45-57.19,128.94-132,156-167.23C2682.19,224.31,2689.15,190.63,2690.53,182.58z"/>
		<path class="st0" d="M2690.7,77.76c0.02-0.19,0.29-0.16,0.29,0.02v64.7c0,33.96-29.62,76.34-65.87,114.13
			c-36.26,37.79-121.53,126.64-150.64,156.51c-29,29.76-87.14,89.17-90.6,159.04c-0.01,0.16-0.23,0.2-0.28,0.05
			c-1.98-6.28-14.9-51.32,3.56-103.17c19.91-55.91,56.94-93.45,103.4-140.94c46.47-47.49,140.17-142.21,167.74-178.47
			C2683.49,116.51,2689.3,91.06,2690.7,77.76z"/>
		<path class="st0" d="M2634.07,878.99h27.23c-2.63,3.76-4.93,7.29-6.83,10.55c-15.01,25.8-19.34,46-20.38,52.17
			c-0.04,0.18-0.3,0.15-0.3-0.03v-55.71C2633.79,883.64,2633.88,881.32,2634.07,878.99z"/>
		<path class="st0" d="M2837.79,667.67c-21.95,42.89-60,82.72-85.02,108.26c-14.27,14.56-38.34,39.34-59.75,63.72h-48.1
			c12.35-27.09,33.86-54.04,58.58-80.06c38.8-40.86,63.31-62.56,99.83-108.52c36.07-45.41,43.48-87.33,43.41-107.04
			c-0.01-0.16,0.21-0.21,0.28-0.06C2856.5,565.47,2859.53,625.2,2837.79,667.67z"/>
		<path class="st0" d="M2634.09,839.53c-0.03,0.18-0.29,0.14-0.29-0.03v-66.72c0-24.34,21.45-66.72,58.89-107.23
			c37.45-40.51,77.79-77.79,105.87-119.32c27.95-41.33,32.97-80.63,18.43-115.23c-0.06-0.14,0.1-0.27,0.22-0.18
			c20.08,15.45,26.78,59.1,25.26,86.14c-1.53,27.23-19.23,78.21-73.36,134.89s-70.47,72.77-99.83,110.3
			C2641.58,797.56,2635.92,829.79,2634.09,839.53z"/>
		<path class="st0" d="M2635.11,728.86c-0.03,0.18-0.29,0.16-0.29-0.02v-60.15c0-23.49,8.68-58.72,59.49-113.62
			c50.81-54.89,80.68-82.72,86.04-124.6c5.29-41.32-10.05-54.54-25.18-63.6c-0.14-0.08-0.07-0.3,0.09-0.28
			c20.37,2.65,53.56,16.57,53.56,77.02c0,52.47-31.53,94.34-59.11,122.17C2722.44,593.32,2644.49,665.78,2635.11,728.86z"/>
		<path class="st1" d="M2541.37,839.65v39.34h54.3v106.47c0,1.39-1.93,1.78-2.46,0.49c-25.92-63.6-107.53-57.9-183.33-44.12
			c-77.39,14.07-230.43,42.97-234.31,43.7c-0.06,0.01-0.1,0.01-0.16,0.01h-35.18c-0.74,0-1.17-0.83-0.75-1.44l110.6-158.06
			c0.14-0.21,0.36-0.35,0.61-0.38c47.51-6.54,214.76-45.39,274.51-45.39c59.91,0,70.47,23.49,70.47,55.32v4.06H2541.37z"/>
		<path class="st1" d="M3089.23,985.54h-35.18c-0.06,0-0.11,0-0.16-0.01c-3.88-0.73-156.92-29.63-234.31-43.7
			c-75.8-13.78-157.41-19.48-183.33,44.12c-0.53,1.29-2.46,0.9-2.46-0.49c0.26-36.09,25.79-69.62,49.02-99.75
			c27.28-35.37,80.59-86.64,92.32-97.81c73.49,11.67,169.49,33.06,203.64,37.76c0.25,0.03,0.47,0.17,0.61,0.38l110.6,158.06
			C3090.4,984.71,3089.97,985.54,3089.23,985.54z"/>
		<path class="st1" d="M2777.45,785.71c0,0-0.82,0.77-2.32,2.19"/>
	</g>
	<g>
		<g>
			<path class="st2" d="M1554.05,329.54c-1.34,0.47-5.94,0.66-7.02,0.73c-0.96,0.05,0.06-1.92,1.78-1.22
				C1550.54,329.76,1555.39,329.07,1554.05,329.54z"/>
			<path class="st2" d="M1877.37,329.8c-2.3,0.34-1.79-1.45-3.58-1.36c-1.78,0.08-8.68,1.19-9.27,1.19c-0.6,0,2.21-2.47,0.42-2.3
				s-15.74,2.38-28.25,1.87s-18.56-0.68-21.36-0.68c-2.81,0-8.43,1.53-9.96,0.85c-1.53-0.68-2.39-1.27-3.58-1.27
				c-1.19,0-22.81,1.7-24.76,1.27c-1.96-0.42-0.51-0.51-3.15-0.59c-2.64-0.09-8.77-1.54-9.79-1.54c-1.02,0,1.96,2.56,0.09,2.9
				c-1.88,0.34-5.54,0.25-6.3,0.42c-0.77,0.17-2.64,0.17-2.98-0.17c-0.34-0.34,0.43-1.44-0.34-0.34c-0.77,1.11-1.96,3.24-3.23,2.22
				c-1.28-1.03-0.94-0.85-2.22-0.26c-1.27,0.6-3.15,1.53-2.38,0.51s2.47-3.32,2.13-3.23c-0.34,0.08-3.92,1.02-3.41,0.25
				c0.51-0.76,2.98-3.23,1.53-3.06c-1.44,0.17-13.19,3.66-14.29,3.23c-1.11-0.42,0.59-1.7-0.51-1.7c-1.11,0-8.09,1.87-11.49,1.62
				c-3.41-0.26-5.28-1.79-6.22-1.36c-0.93,0.42-7.32,2.04-9.36,1.02c-2.04-1.02-4.59-2.9-2.98-3.07c1.62-0.17,3.58-0.08,4-0.51
				c0.43-0.42-0.68-3.06,0.6-3.06s2.72,1.36,3.23,1.19s5.37-1.87,11.24-1.7c5.87,0.17,15.91,0.34,19.15-0.09
				c3.23-0.42,5.53-1.36,6.98-1.1c1.44,0.25,3.14,4.17,5.19,3.32c2.04-0.85,7.15-3.66,8.34-3.58c1.19,0.09,27.23,1.28,32.93,0.68
				c5.71-0.59,16.17-0.08,20.17-0.68c4-0.59,11.32,1.11,13.02,0.34c1.71-0.76,6.47-3.91,7.83-3.15c1.37,0.77,0.09,2.81,3.49,1.62
				c3.41-1.19,5.54-1.45,7.32-1.19c1.79,0.25,28.09,0.42,30.05,0.25c1.95-0.17,2.21-0.85,3.74-0.17c1.53,0.68,2.98,0.26,5.02,0.09
				c2.04-0.17,5.96-0.68,4.85-1.36c-1.1-0.68-4.51-3.66-3.23-4.68c1.28-1.02,7.74-4.17,7.49-6.3c-0.26-2.13-2.98-14.3-4.51-15.07
				c-1.53-0.76-9.7-9.02-11.15-9.27c-1.45-0.26-26.73,2.72-35.58,1.62c-8.85-1.11-21.61-3.66-30.38-3.66s-54.81,0.51-55.83,0.93
				c-1.02,0.43-3.49,4.51-7.06,2.81c-3.58-1.7-20.68-1.36-25.45-1.87c-4.77-0.51-12.25-0.77-13.02-0.77s-0.34,2.9-2.55,2.81
				c-2.22-0.08-3.24-1.62-3.75-1.53c-0.51,0.08-22.21,0.34-38.55,1.87c-16.34,1.53-64.43-1.45-68.85-2.13
				c-4.43-0.68-10.05-1.53-11.07-1.53s-13.61,3.58-13.78,2.38c-0.17-1.19-0.86-17.7-0.86-17.7s-1.02,1.7-1.36-0.17
				c-0.34-1.87-0.34-3.06-0.34-3.06l2.9,1.02c0,0,0.68-1.02,0.17-1.7s-3.07-8.51-1.19-7.15c1.87,1.36,3.4,2.55,1.87-0.68
				c-1.53-3.24,1.36-9.19-1.19-12.09c-2.56-2.89,0-11.06,0.17-14.64c0.17-3.57,0.17-7.32,0.17-7.32s-1.2-2.72-0.85-3.4
				c0.34-0.68,0.68-3.74,0-4.42c-0.69-0.69-1.2-5.96-1.2-5.96s1.37-0.17,1.54-1.53c0.17-1.37,0.68-2.22-0.17-4.09
				c-0.86-1.87-2.73-6.47-2.05-6.81c0.68-0.34,2.05,3.75,2.05-4.08s-1.88-25.53-1.11-25.79s1.02-7.4,0-8.85
				c-1.02-1.45-1.19-3.41-0.94-3.83c0.26-0.43,2.39-3.58,1.79-4.51c-0.6-0.94-2.04-1.7-1.62-3.32c0.43-1.62,1.11-7.41-0.25-7.41
				c-1.36,0-0.68-2.12-0.34-2.55c0.34-0.42,2.89-2.64,2.04-3.4c-0.85-0.77-3.06-4-2.64-8.09c0.43-4.08-0.25-8.25-0.42-13.1
				c-0.17-4.86-0.43-8-0.43-8s3.49,0.25,2.89-1.45c-0.59-1.7-2.72-4.51-2.63-5.96c0.08-1.45,0.34-12.34-0.34-14.21
				c-0.69-1.87-1.88-10.21-1.37-9.36c0.51,0.85,2.81,5.1,3.07,4.51c0.25-0.6,1.7-6.9,0.34-11.24c-1.36-4.34-2.47-9.1-1.96-10.04
				c0.51-0.93,0.94-3.06,0.17-3.49c-0.77-0.42-7.74-7.49-9.11-8.68c-1.36-1.19-4.34-1.45-5.19-1.87c-0.85-0.43-1.87,0.68-1.87,3.23
				c0,2.56,1.19,3.92,1.36,5.45c0.17,1.53-0.93,3.74-0.42,4.43c0.51,0.68,2.04,2.12,1.36,3.57c-0.68,1.45-4.6,4.68-4.34,6.13
				c0.25,1.44,1.62,3.4,1.27,4.76c-0.34,1.36-0.42,1.96,0.43,3.24c0.85,1.27,1.7,4.59,0.94,4.42c-0.77-0.17-2.56-1.53-2.56,0
				c0,1.53,0.77,2.39,2.22,2.56c1.44,0.17,1.95,1.27,1.1,2.72s-2.47,0.25-2.72,1.11c-0.26,0.85,0.17,5.19,1.28,7.49
				c1.1,2.29-1.54,2.38-1.79,3.06c-0.26,0.68,1.79,0.08,1.96,0.76c0.17,0.69-0.77,2.9-0.6,4.18c0.17,1.27-0.34,2.46,0.43,2.46
				c0.76,0,1.44-0.59,1.36,0.68c-0.09,1.28-0.85,3.07-0.34,3.07s2.72-2.04,2.98-0.43c0.25,1.62-0.86,7.92-2.98,9.11
				c-2.13,1.19-1.19,6.3-1.45,9.79s1.19,5.02,2.04,5.02c0.85,0,2.39-0.43,2.81,0.34c0.43,0.76,0.94,4.25,0.6,5.7
				c-0.34,1.45-3.66,0.08-4.09,1.28c-0.42,1.19-2.13,1.95-0.08,2.04c2.04,0.08,3.15,1.79,4.42,5.19c1.28,3.4,4,6.55,1.96,5.7
				c-2.04-0.85-4.34-5.36-4.34-3.91c0,1.44,0.08,4.68,0.42,4.68c0.35,0,2.39,1.45,2.39,1.79c0,0.34,0,8.68-1.02,8
				c-1.02-0.69-6.39-4.94-6.39-3.66c0,1.27,1.62,2.38,3.24,6.55c1.61,4.17,1.61,5.62,0.42,4.85c-1.19-0.77-3.4-4.77-3.74-2.64
				s1.96,9.45,4.85,15.58c2.89,6.12,4.17,7.32,3.06,7.32c-1.1,0-3.91-0.69-5.02-1.11c-1.1-0.43-1.53,0.17-0.93,1.11
				c0.59,0.93,0.93,2.38,0.08,4.34c-0.85,1.95-1.02,1.87-0.25,2.8c0.76,0.94,1.27,4.17,1.7,2.9c0.42-1.28,0.93-2.47,2.04-1.87
				c1.11,0.59,2.47,3.06,1.79,4.17c-0.68,1.1-1.11,0.42-1.28,1.53c-0.17,1.1-1.45,3.57-0.42,2.89c1.02-0.68,1.78-1.7,2.29-1.1
				c0.51,0.59,1.45,5.78-0.25,5.19c-1.7-0.6-3.32-0.6-3.32,0.59s1.87,4.34,0.85,4.51c-1.02,0.17-2.81-0.59-2.13,0.17
				c0.68,0.77,3.24,3.15,1.36,2.98c-1.87-0.17-2.89-0.76-2.63,0.26c0.25,1.02,2.55,3.23,3.66,3.57c1.1,0.34,1.61-0.34,1.78,3.07
				c0.17,3.4-1.61,5.1-1.87,3.4s1.02-4.43-0.26-4.6c-1.27-0.17-2.38-0.93-3.65,4.94c-1.28,5.87,4.25,15.66,1.87,15.92
				c-2.39,0.25-3.07-2.05-2.98,0.25c0.08,2.3,0.42,7.06,1.87,11.15c1.45,4.08,2.13,9.62,1.36,14.13c-0.76,4.51-0.93,6.72-1.1,9.61
				c-0.17,2.9-0.85,4.94-0.17,4.43c0.68-0.51,1.95-2.04,2.38-1.28c0.42,0.77,2.98,5.28-0.34,4.68c-3.32-0.59-10.64,0.51-10.64,0.51
				s-0.43-19.65,1.02-26.04c1.45-6.38,1.19-34.89-0.34-59.23c-1.53-24.34,0-37.28-2.72-65.36c-2.73-28.09-1.02-68.94-2.04-69.11
				c-1.03-0.17-4.26,2.04-4.6,0.68c-0.34-1.36-1.7-5.62-2.04-3.91c-0.34,1.7,3.91,21.95,0.51,21.78
				c-3.41-0.17-7.49-25.87-8.85-27.23c-1.37-1.36-1.54-2.55-1.88-3.41c-0.34-0.85-2.55-3.74-2.72-1.36
				c-0.17,2.39,2.21,11.24-0.68,10.05c-2.89-1.2-7.32-18.22-7.32-16.69c0,1.54-2.04,10.22-2.38,10.9c-0.34,0.68-2.04,3.57-3.24,1.19
				c-1.19-2.38-7.83-18.72-10.89-19.91c0,0,1.02,7.48,0,7.48c-1.02,0-2.55,0.17-2.55,1.37c0,1.19-3.07,20.93-5.11,36.93
				s-8.17,22.47-8.17,27.41c0,4.93,0,31.32,2.21,81.53c1.32,29.84,3,63.47,4.31,91.77c-10.07,0.82-49.92,3.81-63.71,0.99
				c-15.83-3.23-38.47-2.04-57.02-2.55c-18.56-0.51-29.28-4.08-52.6,0c2.38,3.74,3.92,4.24,0.51,3.74
				c-3.4-0.5-29.61-0.03-34.04,0.16s-12.6,2.19-18.21,0c-5.62-2.2-6.3-2.71-8-0.83c-1.7,1.87-0.34,4.21-3.75,1.85
				c-3.4-2.37-0.17-4.24-3.4-2.37c-3.24,1.88-7.15,1.2-7.66,0.34c-0.51-0.85-1.02,1.71-2.72,1.88c-1.71,0.17-3.75-0.09-4.26,1.14
				c-0.51,1.24-2.55,1.58-4.6,1.24c-2.04-0.34-12.08,0.85-10.21,1.7c1.87,0.85,16.68,8.34,16.17,9.36
				c-0.51,1.03-0.85,2.05-0.17,2.05c0.68,0,3.75-1.19,3.92,0c0.17,1.19,3.06,1.36,4.93,1.36c1.87,0,11.07,4.08,18.9,6.64
				c7.83,2.55,13.61-0.17,14.46,1.87c0.86,2.04,1.88,3.23,2.56,2.89c0.68-0.34,3.57-2.55,4.08-2.04s1.02,4.94,2.39,4.77
				c1.36-0.17,7.31,0.18,8.51,0c1.19-0.17,0.85-1.43,2.89,0.05c2.04,1.48,3.4,0,3.4,0s1.03-2.1,3.24-1.42
				c2.21,0.69,7.66,3.07,6.47,3.24c-1.2,0.17-3.07-0.34-5.11,0c-2.04,0.34-3.4,0.03-3.4,0.03s-1.37,6.27-5.11,4.22
				c-3.75-2.04-5.28-4.25-6.64-2.04c-1.36,2.21-3.06,2.52-4.42,2.45c-1.37-0.07-2.22-2.28-4.26-2.11s-2.21,2.03-5.28,2.12
				c-3.06,0.09-11.74,1.29-13.44,1.63c-1.71,0.34,2.04,1.7,2.55,2.21c0.51,0.51-0.51,0,0.51,0.51c1.02,0.51,22.81-1.19,24-1.19
				c1.19,0-1.36,0.19-0.17,1.29c1.19,1.09,8.17,0.94,8.68,0c0.51-0.95,5.45-3.33,5.96-2.31c0.51,1.02-2.38,2.57-5.62,3.07
				c-3.23,0.5-3.4,1.01-7.49,2.54c-4.08,1.54-10.38,2.73-15.32,2.73c-4.93,0-4.93-0.17-5.78,1.02c-0.86,1.19-2.73,0.68-3.92,1.87
				c-1.19,1.19-4.42,2.21-1.7,2.21s4.59-0.85,4.59,1.02c0,1.88-1.87,3.41-0.34,3.07c1.54-0.34,3.92-1.87,5.62-1.87
				c1.7,0,5.28-0.17,5.96,0.51c0.68,0.68-0.68,3.91,1.02,2.38c1.7-1.53,3.06-0.55,4.77,0.41c1.7,0.95,7.66,0.92,8.17,0
				c0.51-0.92-9.2-0.58-6.3-2.11c2.89-1.53,9.87-0.34,11.57-1.02c1.7-0.68,2.9-3.41,3.92-1.37c1.02,2.05-0.68,1.88-2.73,4.26
				c-2.04,2.38-3.91,3.06-2.89,3.23c1.02,0.17,2.38,0,2.89,0s0.68-3.23,2.73-4.08c2.04-0.85,6.13-3.41,8.68-2.89
				c2.55,0.51,4.42,0.17,5.45,0.17c1.02,0-1.37,0.68-2.9,2.04s-3.74,1.53-6.13,2.04c-2.38,0.51-4.08,0-2.38,0.51
				c1.7,0.51,5.45,0.34,7.83-0.68s8-4.94,9.02-3.57c1.02,1.36,0.85,0-1.7,1.87c-2.55,1.87-5.11,2.21-4.6,3.23
				c0.51,1.02,3.92-1.36,4.26-0.85c0.34,0.51,1.36,2.9,2.72,1.53c1.36-1.36,2.56-3.23,5.11-1.7c2.55,1.53,2.21,2.88,6.81,2.46
				c4.59-0.42,11.57-0.46,14.47-0.52c2.89-0.07,4.87-0.61,4.48,0.6c-0.4,1.21,4.37-1.53,7.77-3.91c3.41-2.37,19.06-1.59,21.79-1.39
				c2.72,0.21,3.06,1.4,0.85,2.42s-4.26,0.3-4.26,2.28c0,1.98,5.79,2.84,6.64,2.66c0.85-0.17-1.36-4.43,0-4.6
				c1.36-0.17,3.07-1.03,3.58-1.37c0.51-0.33,1.87-1.53,1.19,0c-0.68,1.54-2.73,2.53-1.02,2.29c1.7-0.24,2.89-2.8,3.91-2.29
				c1.02,0.52,1.36-0.17,3.58,0c2.21,0.18,1.87,1.03,3.23,0.86c1.36-0.17,1.87-0.52,3.06-0.86c1.2-0.33,1.2-3.22,1.2-0.33
				s-1.37,1.87-1.54,4.42c-0.17,2.56,0.51,2.23,2.56,1.88c2.04-0.34,4.08-0.25,7.32,0.64c3.23,0.89,7.66-0.04,9.19,0
				c1.53,0.04,3.91,1.75,3.4-0.64s-3.57-4.13-6.47-2.66c-2.89,1.47-5.27,1.47-6.97,0.78c-1.71-0.68-3.07-0.53-2.39-1.8
				c0.68-1.26-0.51-1.26,3.41-1.09c3.91,0.17,9.36-1.19,12.25,0.34c2.9,1.53,8.34,2,12.77,1.77c4.42-0.24,6.81-2.45,8.34-2.45
				s5.27-5.35,5.79-2.25c0.51,3.1-2.05,4.97-2.39,5.48c-0.34,0.52,2.39,0.7,0.68,1.88c-1.7,1.19-1.53,1.79-4.93,0.64
				c-3.41-1.15-8-2.35-8.85-1.32c-0.86,1.02,8.68,3.67,12.42,3.36c3.75-0.3,4.26-0.29,5.45-2.68s2.89-7.33,7.15-5.97
				c4.25,1.37,11.57,0,13.44,0c1.88,0.01,3.58,0.51,4.43,0c0.85-0.5,2.21,1.87,4.6,0c1.17-0.92,3.13-3.09,4.82-4.82
				c0.04,1.71,0.08,3.49,0.12,5.32c-0.91,0.13-1.73,0.03-2.39,0.36c-1.02,0.51-5.45,1.15-5.62,2.45c-0.17,1.3-2.21,0.95-0.17,1.3
				c2.04,0.34,1.87,0.34,4.43,0.34c1.16,0,2.71,0.14,3.85,0.26c0.58,30.38,0.97,72.5,1.25,88.42c0.34,19.57,2.39,75.91,2.9,79.66
				c0.51,3.74,2.38,16.17,2.38,15.15c0-0.97,1.37-9.56,1.53-10.05c0,0.51,4.43,12.77,8.17,40c3.75,27.24,4.43,47.15,7.66,73.87
				c3.24,26.73,8.34,69.11,10.04,114.05c1.71,44.93,0.34,89.19,0.17,109.1c-0.17,19.92-0.85,44.94,1.37,74.05
				c2.21,29.1,2.21,61.61,2.21,61.61l12.59-3.23c0,0,0.86-50.89-1.7-92.77c-2.55-41.87-4.42-64.34-6.98-75.06
				c-2.55-10.72-4.76-33.53-4.08-32.17c0.66,1.33,4.58,26.44,4.76,27.06c0-0.51,2.9-37.44,0.69-60.42
				c-2.22-22.98-3.92-38.3-4.77-46.81c-0.85-8.51-3.92-22.13-4.43-25.7c-0.51-3.58-3.23-25.19-3.23-33.02
				c0-7.83,0.51-10.73,0.51-10.73s3.75,17.36,4.6,32.17c0.85,14.81,2.21,19.07,3.74,28.77c1.53,9.7,0.85,21.79,2.55,26.89
				c1.71,5.11,9.37,38.13,11.58,57.02c2.21,18.9,2.72,29.11,4.93,37.28c2.22,8.17,1.88,31.66,2.56,30.3
				c0.68-1.36,2.72-8.51,2.72-8.51s0.85,16.68,2.72,29.1c1.78,11.8,5.56,41.25,5.94,44.19c-0.16-3.89-2.43-53.97-4.23-68.53
				c-1.88-15.15-0.17-36.59,1.36-36.59s9.87,7.32,11.23,11.74c1.36,4.43-1.19-38.13-2.21-45.96c-1.02-7.83-3.06-30.97-3.06-30.97
				s6.63,19.91,6.63,36.59s1.37,42.73,2.39,45.45c1.02,2.72,2.72,2.55,2.72,3.4c0,0.85,0.34,4.26,0,5.28
				c-0.34,1.02,1.87,2.72,2.55,7.49c0.68,4.76,1.62,7.91,1.71,8.42c0.08,0.51,3.06-0.17,2.55,1.03c-0.51,1.19-2.89,1.61-2.89,4.51
				c0,2.89-2.64,4.76-3.07,4.17c-0.42-0.6-2.3-14.73-3.15-19.66c-0.85-4.94-3.4-14.05-3.4-14.05s-0.6,16.09,0.17,20.43
				c0.76,4.34,2.3,15.74,3.32,17.53c1.02,1.79,2.04,8.51,2.81,10.47c0.76,1.96,2.46,1.96,2.21,5.53c-0.26,3.58-2.3,5.53-0.17,13.7
				s3.23,10.98,3.23,14.13s-1.87,2.55-0.17,4.85c1.7,2.3,3.49,6.64,3.07,7.58c-0.43,0.93-1.54-0.26-2.05,1.27
				c-0.51,1.54-1.1,1.96-1.95,1.28c-0.85-0.68-1.28-1.11-1.02,0.09c0.25,1.19,0.51,5.02,0.51,6.29c0,1.28-0.68,1.79,0,1.28
				s2.29-2.21,2.38-1.53c0.08,0.68-0.51,1.7-0.6,3.57c-0.08,1.87,0.26,2.73,0.85,3.41c0.6,0.68,2.22,3.74,2.3,2.89
				c0.09-0.85-1.19-3.57-0.59-3.23c0.59,0.34,0.86-1.54,0.6-2.73s-1.03-2.98-0.52-2.98s2.55-1.44,1.36-3.06
				c-1.19-1.62-2.46-3.15-1.78-3.15s1.1-2.47,1.53-2.47c0.42,0,1.07-4.59,0.62-5.95c-0.45-1.37-2.58-5.79-1.98-6.05
				c0.59-0.25,0.59-2.29,0.59-4.68c0-2.38-0.51-26.98-0.51-34.55c0-7.58,0.6-11.83,0.26-12c-0.34-0.17-1.88-1.7-1.54-2.47
				c0.35-0.76,3.41-4.42,2.39-11.57c-1.02-7.15-1.62-11.92-0.43-17.71c1.19-5.78,0.09-11.91-0.51-17.53c-0.59-5.61,0-7.91-1.02-8.08
				c-1.02-0.17-1.96,0.59-2.98-1.45c-1.02-2.04-2.72-3.57-2.55-3.91c0.17-0.34,4.51-2.13,5.1-1.79c0.6,0.34,0.77,1.79,1.45,1.28
				c0.68-0.52,1.45,0.34,0.94-1.45c-0.51-1.79-2.56-5.87-1.53-10.73c1.02-4.85,0.93-11.06,0.59-12.76c-0.34-1.7,0.09-2.13,0.09-3.58
				c0-1.44,0.17-1.36-1.02-2.97c-1.2-1.62-2.22-5.45-1.88-5.45s2.81,3.06,2.81,1.7c0-1.36-1.28-15.83-1.53-19.83
				c-0.26-4,0.17-7.4-0.17-7.49c-0.34-0.08-4.17-0.85-3.92-2.47c0.26-1.61,3.83-0.17,4.17-1.36c0.35-1.19,0.09-11.49-0.76-17.79
				c-0.85-6.29-1.28-12.08-0.43-14.72c0.85-2.64-4.68-10.81-4.25-11.32c0.42-0.51,4.34-1.36,4.68-0.76
				c0.34,0.59,2.21,4.42,2.38,3.06c0.17-1.36-0.17-6.47-0.51-9.02c-0.34-2.55-2.3-13.02-2.64-14.04c-0.34-1.02-1.27-2.39-0.51-2.9
				c0.77-0.51,2.21-3.83,1.28-3.83c-0.94,0-1.96-1.53-1.96-2.38s0.77-3.06,0.94-4.26c0.17-1.19-1.19-4.51-1.87-6.29
				c-0.69-1.79-12.86,2.72-12.86,4.68s1.11,8.42,1.11,10.47c0,2.04-1.79,1.61-1.79,1.36c0-0.26,1.62-0.51-2.12-8.43
				c-3.75-7.91-16.52,5.96-15.75,6.47s4.34,67.15,4.34,77.62c0,10.47,0,30.38-1.79,34.21c-1.78,3.83,0,9.19-1.78,3.83
				c-1.79-5.36-3.83-25.53-3.83-44.17s-1.53-37.53-2.81-46.72c-1.28-9.2-4.34-50.56-5.87-59.49c-1.54-8.94-1.28-25.79-1.03-25.02
				c0.26,0.76,5.62,28.85,7.15,37.27c1.54,8.43,21.96-26.04,22.47-33.7c0.51-7.66-3.57-48.77-1.27-46.98
				c2.29,1.79,7.65,18.38,7.65,9.96c0-8.43-1.02-92.17-1.78-88.85c-0.77,3.32-6.39,10.47-7.41,9.95c-1.02-0.51-0.76-8.68-1.02-15.06
				c-0.25-6.38-12.51-26.04-13.02-22.72s-2.55,24.25-1.79,37.27c0.77,13.03,2.56,24,2.56,24s-3.07,0.51-3.58-1.53
				s-2.3-29.1-2.3-46.47c0-17.36,0.26-28.59-0.25-31.4s-0.77-25.79-3.32-36.51c-2.55-10.72-5.62-14.3-4.85-16.34
				c0.76-2.04,3.57-1.53,4.59-0.26c1.03,1.28,7.66,30.13,8.69,42.13c1.02,12,1.27,10.72,1.53,7.66c0.25-3.06,2.13-13.45,1.53-37.02
				c-0.4-15.85-1.26-33.85-1.68-43.98c2.22-0.78,4.29-1.41,4.66-1.04c0.76,0.76,2.13,2.13,2.81,2.13c0.68,0,3.09-1.28,3.12,0.25
				c0.03,1.53,4.88,10.89,4.45,11.49c-0.42,0.6-1.53,1.96-2.98,1.02c-1.44-0.93-4.42-2.81-4.76-2.55c-0.34,0.25-0.85,0.93-0.43,1.96
				c0.43,1.02,4.12,11.15,3.72,14.97c-0.4,3.83-2.61,12.86-3.21,14.98c-0.59,2.13-1.28,2.81-0.68,2.98c0.6,0.17,1.79,0.34,2.04,2.22
				c0.26,1.87,1.71,4.17,0.77,4.17c-0.94,0-2.04-1.03-1.36,0.51c0.68,1.53,3.95,6.29,2.44,8.51c-1.51,2.21-4.06,9.02-4.23,10.04
				c-0.17,1.02-1.19-9.53-1.19-8.77c0,0.77-0.34,12.26,0.25,14.22c0.6,1.95,22.81,13.19,22.73,9.02
				c-0.09-4.17,0.08-15.58-0.43-16.77s-1.02-3.83-0.68-4c0.34-0.17,2.81-1.28,1.62-5.87c-1.19-4.6-4.77-25.19-3.32-25.79
				c1.45-0.59-0.09-10.38,1.19-12.34c1.28-1.96,2.04-0.68,1.79-4.59c-0.26-3.92-0.51-7.49-1.11-8c-0.59-0.52-2.13-2.56-1.19-2.73
				c0.94-0.17,2.3-1.44,2.13-3.23c-0.17-1.79-1.7-6.64-1.02-6.56c0.68,0.09,3.83,2.9,8.42,0.18c4.6-2.73,6.98-4,8.85-4
				c1.88,0,3.75-0.69,4.09-0.26c0.34,0.43,0.34,2.98-0.85,3.23c-1.19,0.26-2.22,2.13-4.17,2.39c-1.96,0.25-3.24,0.93-3.24,0.93
				s1.28,1.79,2.22,1.62c0.93-0.17,5.7-2.64,5.7-2.3c0,0.34,0.68,2.73,0.93,2.21c0.26-0.51,1.88-1.78,2.98-1.78
				c1.11,0,2.04-0.43,2.47-0.43c0.43,0,1.11-2.81,1.11-2.81s0.85-0.59,1.44-0.17c0.6,0.43,10.22-3.66,11.83-3.06
				c1.62,0.6,0.09,2.64,1.45,2.47c1.36-0.17,11.49-2.9,13.19-2.3c1.7,0.6,5.7,2.21,5.62,2.89c-0.09,0.68-2.21,1.19-5.28,2.05
				c-3.06,0.85-6.72-1.28-8.51-0.94c-1.79,0.34-10.64,3.49-10.13,3.57c0.51,0.09,4.51,3.32,5.37,2.64c0.85-0.68,6.21-2.64,6.46-2.47
				c0.26,0.17,2.73,3.24,3.75,2.73c1.02-0.51,6.21-1.62,6.3-2.98c0.08-1.36,0.68-2.3,0.68-2.3s1.95,0.17,2.04,0.43
				c0.08,0.25,5.53,0.17,6.64,0.08c1.1-0.08,7.83-2.3,5.36-1.87c-2.47,0.43-4.77,1.7-6.81,1.02c-2.04-0.68-2.55-2.89-1.7-3.66
				c0.85-0.76,2.47-0.51,3.83-0.51c1.36,0,4.85-0.94,7.4-0.68c2.56,0.26,3.49,0.94,5.19,0c1.71-0.94,1.54-1.79,3.07-0.85
				c1.53,0.93,5.45,1.19,5.19,0.68c-0.26-0.51,1.7-1.53,2.13-1.53c0.42,0,2.64-0.43,2.64,0c0,0.42,1.53,2.13,6.04,2.13
				s5.36-2.3,13.87-3.32c8.51-1.03,15.06-0.85,16.51-1.28c1.45-0.43,3.15-1.79,4-0.85c0.85,0.93,2.72,1.19,1.28,1.53
				c-1.45,0.34-2.3,0.6-3.92,1.36c-1.61,0.77-2.81,1.62-0.17,1.53c2.64-0.08,6.13-0.25,8.34-0.85c2.22-0.59,3.92-0.51,5.02,0.6
				c1.11,1.11,6.22,1.02,8.77,0.76c2.55-0.25,3.23-0.42,3.66-1.27c0.43-0.85,0.85-1.87,1.79-2.04c0.93-0.17,2.81-0.77,3.57-0.26
				c0.77,0.51,2.55,2.98,6.98,3.06c4.43,0.09,9.02-0.68,12.85-2.55c3.83-1.87,17.79-0.77,20.94-0.08c3.15,0.68,5.78-0.69,6.98,0.17
				c1.19,0.85,6.8,0.85,8.25,0.76c1.45-0.08,0.94-1.1,0-1.1c-0.93,0-4-0.26-4.08-1.11c-0.09-0.85,4.08-0.94,5.61-0.94
				c1.54,0,2.64,0.34,4.94-0.08c2.3-0.43,6.21-1.7,6.21-1.28c0,0.43-4.08,2.04-5.61,2.72c-1.54,0.69-3.41,1.62-2.47,1.62
				c0.93,0,2.3,0.09,5.78-0.68c3.49-0.77,12.94-2.47,13.96-2.47s8.85,0.26,8.68,0.51c-0.17,0.26,1.11,0.51,3.32,0.51
				s9.53-0.93,11.15-0.93s2.3,0.42,3.83,0.42c1.53,0,2.47-2.81,3.92-2.38c1.44,0.43,6.63,2.04,8.59,2.04c1.96,0,6.21,0.09,5.62-0.42
				c-0.6-0.51-3.49-2.05-1.7-2.22c1.78-0.17,1.19-0.59,3.06,0.17c1.87,0.77,3.23,0.6,8.43,0.09c5.19-0.51,7.91-0.34,8.76-0.6
				c0.85-0.25,1.36-1.02,1.36-1.02s-5.27-0.08-4-0.25c1.28-0.17,3.41-0.68,2.9-1.28c-0.51-0.59-0.51-1.79,0.42-1.87
				c0.94-0.09,9.02-4.17,7.49-4.17S1879.67,329.46,1877.37,329.8z M1482.13,319.67c1.37,0.85,2.18,1.04,3.92,1.02
				c0.67,0,1.27,0.87,1.8,1.57c0.01,0.35,0.02,0.7,0.03,1.04c-1.32,0.39-2.83,1.08-4.38-0.16c-2.22-1.77-3.92-3.3-3.92-3.3
				S1480.77,318.82,1482.13,319.67z M1361.92,316.01c2.34,0.81,7.45-0.21,8.68-0.13c1.24,0.09,0.04,1.07-1.19,1.19
				c-1.23,0.13-1.79,0.39-4.6,0.6c-2.8,0.21-3.27-0.6-3.27-0.6C1361.03,316.22,1359.58,315.2,1361.92,316.01z M1365.2,319.88
				c2.81-0.29,7.74-1.44,8.04-1.32c0.3,0.13-1.7,2.47-4.34,3.15c-2.64,0.68-1.92-0.28-8.26,0.31s-11.78,1.52-14.25,0.59
				c-2.47-0.94-3.53-1.71-3.87-2.13c-0.53-0.66-0.85-2.51,2.72-1.11c3.57,1.41,6.68,1.15,10.55,0.43
				C1359.67,319.07,1362.39,320.18,1365.2,319.88z M1328.67,317.37c-0.52-0.38-3.9,2.43-5.3,1.15c-1.41-1.28-1.34-0.89-3.7,0.51
				c-2.37,1.41-6.86,3.63-9.26,2.81c-2.4-0.81-2.62,0.51-2.62-0.45c0-1.08,1.6-2.36,4.02-2.42c2.43-0.07,3.52,0.7,3.45-2.17
				c-0.06-2.87-1.4-5.3,2.3-4.09c3.7,1.22,5.36-0.44,9.19,0.39c3.83,0.83,6.83,1.72,6.06,0.38c-0.76-1.34-4.4-6.38-3.06-5.75
				c1.34,0.64,4.15,4.28,7.4,3.2c3.26-1.09,3.71-2.37,4.22-0.9c0.51,1.47,3.51,3.9,5.68,3.19c2.17-0.7,2.87-1.72,4.47-0.89
				c1.59,0.83,3.06,0.19,1.66,1.53c-1.41,1.34-4.22,1.53-2.3,1.79c1.91,0.25,7.47-0.19,5.49,0.77c-1.98,0.95-2.68,2.55-5.49,1.4
				c-2.81-1.15-6.83-0.96-9.19-1.15c-2.36-0.19-3.39-0.83-4.6,0.38C1335.88,318.27,1329.18,317.76,1328.67,317.37z M1383.79,324.45
				c-2.42,0.23-2.64,2.07-5.83,2.28c-3.19,0.22-2.81-0.12-3.4,0.39c-0.6,0.51,3.32,1.4,4.72,1.87c1.41,0.47-2.42,1.23-5.44,1.15
				c-3.03-0.09-8.64,2.68-12,3.32c-3.37,0.64-8.64,1.15-11.2-0.51c-2.55-1.66-6.63,2.76-9.19,0.59c-2.55-2.17-2.59-1.83-5.15-0.81
				c-2.55,1.03,0.73-2.29,0.94-3.31c0.21-1.03-1.02-0.18-2.04-1.24s2.78-2.89,3.74-3.4c1.85-0.98,1.11,0.89,1.07,1.95
				c-0.05,1.07,1.78,0.17,4.12-0.12c2.34-0.3,2.3,0.59,5.11-0.47c2.81-1.07-0.17,2.38-1.53,3.83c-1.36,1.45,3.44-0.64,4.38-1.19
				c0.94-0.56,0.94,0.76,2.17,1.95c1.24,1.2,5.49,0.86,8.68,0.53c3.19-0.32,1.87-1.29,0.48-2.19c-1.4-0.89-1.29-1.53,1.44-0.59
				c2.72,0.94,3.49-1.19,5.87-2.68c2.38-1.49,2.68-1.58,6.3-0.77c3.61,0.81-0.64-1.79-0.6-3.01c0.04-1.23,2.43,0.59,4.9,1.18
				c2.46,0.6,3.44-0.55,4.46-1.78c1.02-1.24,3.62-0.69,5.66,0.17C1393.5,322.44,1386.22,324.22,1383.79,324.45z M1480.07,335.56
				c-2.62-0.06-1.15-0.06-3.32-0.76c-2.17-0.69-10.85,2.42-14.55,2.3c-3.7-0.13-5.87,0.38-6.96,0.89c-1.09,0.51-1.15-1.6-1.15-1.92
				c0-0.31-1.72,0.2-8.3,0c-6.57-0.19-9.76-1.08-11.39-1.02c-1.62,0.07-1.69,0.77-3.54,0.32c-1.85-0.44-2.24-1.4-3.07-2.36
				c-0.83-0.96,1.09-0.32,2.88-0.83c1.78-0.51,1.27-0.51-0.9-0.89c-2.17-0.39-0.96,0-5.55,3.06c-4.6,3.07-10.98,1.85-13.98,1.6
				c-3-0.26-0.77-1.85-2.49-2.11c-1.72-0.25-4.79,0.45-9.13,0.26c-4.34-0.2-11.49,0-12.06-0.45c-0.58-0.45,1.08-2.11,2.04-2.81
				c0.96-0.7,4.73-0.32,6.07-0.45c1.34-0.12-1.03,1.03-0.9,1.34c0.13,0.32,7.79-1.53,9.32-2.33c1.53-0.8,1.85,1.06,3.58,2.02
				c1.72,0.95,1.14,0.44,4.02-0.26c2.87-0.7,4.72-0.32,4.85-0.7c0.13-0.39-2.62-0.51-4.73-0.51c-2.1,0,2.69-3.26,3.77-4.73
				c1.09-1.46,2.11,0.77,5.62,1.28s0.89,1.66,2.42,2.11c1.53,0.44,0.96-0.71,0.51-1.79c-0.44-1.09,0.32-0.51,1.41-0.58
				c1.08-0.06,11.04,0.52,13.21,1.76c2.17,1.25,3.06-0.73,3.38-1.5c0.32-0.77,1.98-0.51,3.13-0.19c1.15,0.32,3.77-0.77,4.92-1.63
				c1.15-0.86,1.21,0.93,1.21,1.95c0,1.02,5.17,0.44,5.97,0.38s-1.89,3.77-4.38,4.39c-2.48,0.63,3.96-0.56,7.09-1.33
				c3.13-0.76,4.34-0.76,6.45-0.76c2.1,0,2.93,0.45,8.29,0.76c5.37,0.32,7.52,1.36,8.56,4.28
				C1483.07,336.33,1482.69,335.63,1480.07,335.56z M1480.77,329.59c-1.02-0.22-1.36-0.06,1.19-1.59c2.56-1.52,2.53-2.21,4.26-2.54
				c0.5-0.1,1.12-0.3,1.71-0.56c0.04,0.88,0.07,1.73,0.09,2.56C1485.29,328.38,1481.47,329.73,1480.77,329.59z M1484.18,346.29
				c0.84,0.05,2.68,0.33,4.32,0.41c0.02,0.46,0.02,0.92,0.04,1.39C1486.2,347.53,1482.83,346.19,1484.18,346.29z M1509.57,95.33
				c0.48-0.85,0.9-3.57,1.33-2.72c0.43,0.85,0.68,3.23,0.6,3.74c-0.09,0.51-0.04,3.12-0.6,2.3
				C1510.04,97.38,1509.1,96.18,1509.57,95.33z M1507.15,89.63c1.11,0,1.11,12.59,2.05,30.64c0.93,18.04-0.17,22.55-0.17,24.85
				c0,2.3-1.36-12.26-1.88-32.94C1506.64,91.5,1505.69,89.63,1507.15,89.63z M1499.07,341.97c0.43,0,0.94-0.85,1.45,0
				c0.51,0.85-0.17,4.08,0,5.7c0.17,1.62-1.35,1.54-1.45,0.68C1498.87,346.64,1498.64,341.97,1499.07,341.97z M1494.81,281.54
				c-1.08-0.65,1.11-2.21-1.7-12.93c-2.81-10.73-2.72-23.66-1.96-22.3c0.77,1.36,0,14.3,3.66,22.3
				C1498.47,276.61,1496.94,282.82,1494.81,281.54z M1497.37,321.88c1.02,1.02,1.44-0.54,1.53,1.05c0.08,1.59-0.29,2.25-0.77,1.34
				C1497.37,322.82,1496.35,320.86,1497.37,321.88z M1497.88,333.54c-0.5-3.25-0.51-5.27-0.51-5.27s1.22-0.6,1.46,0
				c0.24,0.59-0.33,4.08,0,5.27C1499.15,334.73,1498.2,335.66,1497.88,333.54z M1516.13,489.71c-0.25,4.09-3.44-16.08-5.1-31.15
				c-1.66-15.06-6.13-48.76-7.28-66.51c-1.15-17.74-4.08-37.91-4.84-39.06c-0.75-1.15,1.78-2.04,1.8-0.64
				c0.03,1.66,4.19,28.09,4.32,30.77c0.12,2.68,0.76-2.3,0.89-3.58c0.13-1.27,6.13,45.07,6,60.9
				C1511.79,456.27,1516.39,485.63,1516.13,489.71z M1525.71,816.69c0.11,24.53,3.06,32.17,3.06,40.51c0,8.34,2.73,26.22,1.53,20.43
				c-1.19-5.79-3.22-26.79-4.59-38.47C1524.01,824.69,1525.67,809.14,1525.71,816.69z M1576.77,772.44
				c0.68-0.17,2.56-0.51,2.38,2.04c-0.17,2.55,2.39,10.38,0,9.7c-0.17-0.05-0.24-0.53-0.41-1.06
				C1577.82,780.19,1576.19,772.58,1576.77,772.44z M1575.58,829.29c-1.7-1.36-2.55-1.87-1.87-4.6c0.68-2.72,1.87-14.13,1.87-14.13
				V829.29z M1573.47,801.54c-0.61-2.38-2.49-33.53-3.17-43.91c-0.68-10.39-2.38-21.62-1.87-20.94s4.87,19.92,6.1,37.28
				C1575.75,791.33,1573.47,801.54,1573.47,801.54z M1568.34,675.2c1.79,1.15,5.52,4.73,3.27,4.98c-2.77,0.32-3.27-3.32-3.27-3.32
				S1566.54,674.05,1568.34,675.2z M1548.81,329.05c1.73,0.71,6.58,0.02,5.24,0.49c-1.34,0.47-5.94,0.66-7.02,0.73
				C1546.07,330.32,1547.09,328.35,1548.81,329.05z M1547.03,335.44c-0.65-0.1-1.09-2.24-0.26-1.85c0.83,0.38,6.38,2.48,5.87,2.48
				C1552.13,336.07,1547.92,335.56,1547.03,335.44z M1560.26,346.99c-0.42,0.51-2.13-0.43-3.32,0c-1.19,0.43-3.23-0.17-5.1,1.02
				c-0.55,0.35-1.63,0.93-2.85,1.58c-0.16-4.09-0.23-6.58-0.13-6.6c0.34-0.09,4.76,0.77,7.32,1.53c2.55,0.77,3.18,1.45,3.46,1.28
				C1559.92,345.63,1560.69,346.48,1560.26,346.99z M1697.92,324.65c-0.38,0.51-6.51-0.13-6.51,0.77c0,0.89-2.3,3.44,0,2.42
				c2.3-1.02,5.11-2.3,4.72-1.4c-0.38,0.89-4.72,3.83-6.76,2.68c-2.04-1.15-3.58-3.54-4.6-3.05s-15.06,0.62-15.06,0.62
				s-1.15,3.59-5.11,2.69c-3.96-0.9-8.04,0.12-7.91,0.76c0.12,0.64-1.28,0.13-3.07-1.02c-1.78-1.15-8.17-2-9.83-2.53
				c-1.66-0.54-1.02,3.29-7.27,1.63c-6.26-1.66-16.85,3.11-19.92,2.2c-3.06-0.92-4.98-0.03-6.38,1.38c-1.41,1.4-0.13,3.32-5.11,1.79
				c-4.98-1.54-12.76-1.66-14.04-2.17c-1.28-0.52-1.4-1.28,6.38-1.28c7.79,0,8.94,0.89,10.34,0c1.41-0.9,4.47-0.94,1.66-1.68
				c-2.81-0.75-17.74,0.48-20.04,0c-2.3-0.49-2.94-2.02-1.02-2.02c1.91,0,10.85-2.94,14.81-1.28c3.95,1.66,13.27,3.7,20.17,2.04
				c6.89-1.66,24.89-4.21,26.93-3.44c2.05,0.76,5.24,2.29,8.68,1.66c3.45-0.64,11.24-1.15,14.56-1.15c3.32,0,18.2-0.61,21.44-1.03
				c1.66-0.21,3.07-1.02,3.83,0C1699.58,324.27,1698.3,324.14,1697.92,324.65z"/>
			<path class="st2" d="M1464.82,349.61c1.34-0.51,4.02-1.66,3.45-1.85c-0.57-0.19-3.89-0.26-5.36,0.19
				c-1.47,0.45-0.77,1.44-3.19,1.01s-4.66-3.05-2.43-2.99c2.23,0.06,2.62-0.26,4.53-0.32c1.91-0.06,5.68,0.44,7.34,0.32
				c1.66-0.13,4.91-1.98,5.55-1.28s2.49,2.68,1.53,2.94c-0.96,0.26-0.51-0.57-3.77,0.83c-3.26,1.4-6.26,2.11-7.98,2.23
				S1464.82,349.61,1464.82,349.61z"/>
		</g>
		<g>
			<path d="M1978.26,991.88c-0.09-0.27-0.17-0.55-0.25-0.84c-0.51-2.04,0-4.98,0-6.32c0-1.34-1.02-0.57-1.66-4.15
				c-0.64-3.57-0.64-8.11-1.4-9.7c-0.77-1.6-2.43-3.96-1.98-3.96s7.02-0.57,7.72-1.02c0.7-0.45-2.81-3.77-4.09-4.21
				c-1.28-0.45,1.98,2.49,2.23,3.13c0.26,0.64-7.34,0.51-10.02,0.19c-2.68-0.32-11.11-0.89-15.83-0.32
				c-4.72,0.57-16.66-0.64-18.51-1.21c-1.85-0.57-6.32-0.45-7.15,0.19c-0.83,0.64-0.51-1.34-1.85-1.47
				c-1.34-0.13-0.57,3.06-0.51,3.83c0.06,0.77-2.43,4.53-1.98,5.04c0.45,0.51,2.45,2.91,3.26,2.17c0.7-0.64,1.6-0.57,2.87-1.47
				s5.81,0.64,7.02,2.23c1.21,1.6,4.85,4.91,3.89,5.04c-0.96,0.13-5.3,7.21-8.04,7.53c-1.94,0.23-2.89,2.58-3.28,4.09l-52.27-1.29
				c0.02-1.5,0.39-2.92,1.36-3.62c1.15-0.83,2.55-1.66,2.3-4.02s-1.15-6.96,1.34-6.89c2.49,0.06,6.77,3.64,6.77,4.72
				s-0.32,2.36,0.45,2.62c0.77,0.26,1.34,1.09,0.89,1.79c-0.45,0.7-0.26,3.06,0.16,2.87c0.42-0.19,6.8-3.96,5.33-4.98
				c-1.47-1.02-2.62-1.79-2.23-3.96c0.38-2.17-0.64-3.97-1.98-4.92c-1.34-0.95-3.96-3.44-3.57-3.82c0.38-0.38,1.53-3.7,0.38-5.94
				c-1.15-2.23-0.45-3.7-0.45-3.7s4.85,1.47,9.26-0.19c4.4-1.66,3.83-4.28,3.51-4.28s-1.02,3.06-5.87,3.7s-7.53-0.96-8.36-1.34
				c-0.83-0.38-1.91-2.3-4.28-3.13c-2.36-0.83-5.94-3-7.28-3s-3.19,0.89-8.11,0c-4.92-0.89-4.76-1.91-10.65-2.49
				c-5.88-0.57-11.37-1.28-13.22-0.32c-1.85,0.96-3.26,2.55-4.6,2.55s-2.81,0.38-3.38-0.06c-0.57-0.45-1.66-2.87-2.36-2.36
				s-0.83,1.85-1.53,1.85c-0.7,0-2.43,1.6-4.15,3.57c-1.72,1.98-2.43,2.43-3,2.11s-2.55-2.43-2.36-1.6c0.19,0.83,1.66,3,0.38,3.7
				s-0.96,1.47-3.26,0.89s-4.92-2.74-7.28-6.19c0,0,1.53,5.3,6.64,8.11c0.7,1.47-0.19,3.96,0.26,4.66s2.43-0.45,2.49,0
				c0.06,0.45,0.77,2.94,1.47,2.43s1.79-1.79,6.06-2.43s6.26-3.38,6.77-3.57s2.04,0.45,1.4,1.4c-0.64,0.96,0.77,3.57,1.66,5.62
				c0.89,2.04,0.26,5.94-1.4,7.85c-1.66,1.91-0.89,2.3-1.28,3.26c-0.31,0.79-3.16,4.53-4.35,7.97l-54.43-1.35
				c0.49-0.99,0.76-1.54,1.34-2.6c0.83-1.53,1.02-1.72,1.6-3.96c0.57-2.23-0.77-2.62-0.7-3.51s1.15-15.57,1.02-18.64
				c-0.13-3.06-1.6-3.96-1.72-4.53s0.26-6.06,1.47-8.43c1.21-2.36-0.13-4.21,0-5.62s1.47,0.19,1.98,0.96s0.83,3.51,0.83,7.53
				c0,4.02,1.21,7.02,2.17,11.43c0.96,4.4,4.28,7.34,5.11,7.79c0.83,0.45,0.57-2.55-1.08-5.74c-1.66-3.19-3.7-7.21-4.4-9.83
				c-0.7-2.62-0.13-7.53-1.02-11.17c-0.89-3.64-7.4-10.21-10.15-13.6c-2.74-3.38-16.72-6.89-17.62-7.72s-1.91-2.87-4.21-6.19
				s-4.34-3.77-18.26-8.94c-13.91-5.17-25.66-15.38-27.77-15.96c-2.11-0.57-2.11-2.3-3.32-3.13s0.06-1.79-1.28-2.62
				s-1.79,3.57-1.85,4.79c-0.06,1.21-1.72,1.02-3,2.43c-1.28,1.4-2.11,3.06-3.51,5.49c-1.4,2.43-4.02,5.81-4.53,6.77
				c-0.51,0.96,0.32,1.4,1.6,1.72s3.57-1.02,4.53-1.72c0.96-0.7,1.66-0.96,3.7-1.02c2.04-0.06,5.81-2.55,7.28-2.3
				c1.47,0.26,23.49,16.79,26.3,19.72c2.81,2.94,4.47,6.13,3.64,11.04c-0.83,4.91,0.89,6.51,1.34,7.47
				c0.45,0.96,1.34,3.13,1.28,6.26c-0.06,3.13,0.77,2.36,0.83,7.53c0.06,5.17-1.28,6.57-1.4,9.32c-0.13,2.74-1.53,9.32-1.53,11.62
				c0,2.3-0.7,2.94-1.4,4.4c-0.7,1.47-0.7,2.3-0.89,4.53c-0.12,1.45-1.91,3.4-3.48,5.26l-45.15-1.12c-0.23-1.78-0.6-3.99-0.6-5.89
				c0-3.96-4.3-11.57-4.26-14.72c0.04-3.15,3.32-4.51,3.32-8.94s-0.13-8.38,0.55-8.09c0.68,0.3,3.96,7.62,7.83,10.68
				c3.87,3.06,4.68,3.57,5.45,2.89c0.77-0.68-2.13-1.19-6.3-5.28c-4.17-4.09-5.79-8.6-7.15-13.7c-1.36-5.11-7.23-11.66-14.3-15.57
				c-7.06-3.91-10.3-2.89-16.09-0.85s-9.19-0.85-11.32-0.85c-2.13,0-4.17-0.17-4.6-0.68s-3.15-1.19-7.06,0
				c-3.91,1.19-10.38,4.43-12.17,4.6s-3.91,2.72-6.38,7.74c-2.47,5.02-2.3,12.94-1.19,18.64c-0.68,2.3-4.09,4-6.89,4.51
				c0.68,0.6,2.81,1.02,7.4-1.7c0,4.51-1.53,5.53-6.21,12.34c-4.68,6.81-0.77,9.53,0,9.7c0.77,0.17,1.79-0.94,1.79-0.94
				c-0.68-1.15-2.43-1.4-1.02-3.79c1.4-2.38,6.64-7.45,9.15-10.47s1.57-9.96,1.7-10.94c0.13-0.98,3.36-5.11,5.15-5.96
				c1.79-0.85,2.85-1.57,4.09-1.57c1.23,0,4.64,1.23,6.94,2.98s4,6.13,3.36,8.17s-3.62,9.02-5.06,10.68
				c-1.45,1.66-0.13,5.66,0.04,7.74c0.13,1.55-2.54,5.49-4.01,7.82l-68.1-1.69l-12.7-34.05c2.7-2.86,5.21-5.92,7.44-9.19
				c21.11-30.98,27.15-52.65,27.15-52.65l-2.68-1.14c0,0-2.04,2.68-3.7,4.72c-1.66,2.04-44.81,21.83-106.34,20.94
				c-1.53-9.45-1.53-9.45-1.53-9.45l1.28-3.45c0,0-5.87-4.47-12.13-5.87c-6.26-1.4-10.09-3.32-10.09-3.32l-2.68-16.34h-175.06
				l-11.74,16.34l-18.55,6.47l-4.94,18.55c0,0-59.57-3.23-69.79-6.47c-10.21-3.23-28.77-18.21-28.77-18.21
				c0.51-0.34-0.15-2.96-1.3-2.77c-1.15,0.19-1.98,0.96-1.85,1.98c0.13,1.02,9.45,35.55,21.7,53.68c1.02,1.51,2.15,3.03,3.37,4.55
				l-17.8,35.87l-59.61,0.82v21.7h954.38V993.2L1978.26,991.88z M1969.2,977.56c0.96,0.06,4.98,6.13,5.87,8.11
				c0.67,1.49-0.47,4.55-1.21,6.1l-3.67-0.09c-0.47-1.63-1.38-3.85-1.5-4.6c-0.19-1.21-0.57-0.57-1.02-2.23
				C1967.22,983.18,1968.24,977.5,1969.2,977.56z M1950.82,987.65c0.19-1.15,0.83-1.6,1.04-2.11s-0.15-1.02-0.27-1.6
				c-0.13-0.57,0.64-3.51,1.02-4.02c0.38-0.51,1.47,0.19,3.89-0.06s4.53-1.09,5.23-1.02c0.7,0.06,2.87,7.34,4.85,9
				c1.35,1.13,1.54,2.62,1.57,3.79l-17.31-0.43C1950.87,989.79,1950.72,988.23,1950.82,987.65z M1933.52,988.16
				c0.7-0.51,1.02-0.89,2.81-1.34c1.79-0.45,0.83-0.89,4.4-2.43s5.43-4.72,6.26-4.79c0.83-0.06,2.04,5.62,2.36,6.45
				c0.23,0.61-1.53,3.39-2.48,5.05l-15.39-0.38C1932.17,989.66,1933.07,988.49,1933.52,988.16z M1846.07,978.9
				c0.26-0.45,5.74-4.02,6.89-4.28s3.77,1.4,8.62,1.28c4.85-0.13,6.64-2.81,7.21-2.11s4.72,6.7,5.55,7.66
				c0.62,0.71-2.96,4.67-4.81,7.73l-21.91-0.54c-0.24-1.24-0.21-2.74,0.55-3.67c1.15-1.4,1.4-3.96,0.45-3.89
				C1847.67,981.14,1845.82,979.35,1846.07,978.9z M1838.48,982.92c1.34-1.85,3-1.53,3.26-1.21s2.23,1.59,2.23,4.21
				c0,0.83,0.04,1.75,0.1,2.63l-3.73-0.09C1839.25,986.87,1837.44,984.35,1838.48,982.92z M1775.22,965.18
				c0.77,0.13,0.13,12.26-0.13,13.47s0.64,2.04,0.64,3.32c0,0.99-1.82,3.36-2.68,4.83l-5.11-0.13c-0.69-1.39-2.31-3.77-2.36-4.19
				c-0.06-0.57,0.32-1.6,1.02-2.3C1767.31,979.48,1774.46,965.05,1775.22,965.18z M1733.29,982.86c-0.19-0.77,0.06-1.4,1.15-2.68
				c1.09-1.28,1.79-2.94,1.72-3.64s1.34-3.83,2.55-7.72c1.21-3.89,2.36-7.21,3.06-7.02s10.79,12.19,11.23,13.91
				c0.45,1.72,2.17,2.3,3.7,3.06c1.53,0.77,5.43,3.77,5.43,2.94c0-0.83-0.83-3.38-0.89-4.28s-1.34,0.19-2.94-0.06
				c-1.6-0.26-7.91-10.79-10.79-14.43s-2.3-6.19-1.72-9.51s0.57-8.94,1.02-10.09c0.45-1.15,1.66,1.85,8.17,2.3
				c6.51,0.45,5.43-1.15,5.87-1.4c0.45-0.26,1.53,2.23,3.51,4.6s7.6,10.47,7.6,11.68s-6.51,15.57-7.09,16.47s-0.19,2.81-0.57,4.4
				c-0.38,1.6-0.51,1.15-0.89,2.3c-0.23,0.68-0.73,1.82-1.04,2.84l-28.38-0.7C1733.82,984.67,1733.4,983.31,1733.29,982.86z
				 M1676.39,974.05c0.77,0.21,0.85,2.34,1.36,4.55c0.39,1.68,0.53,3.98,0.59,5.84l-3.13-0.08c0.22-2.29,0.16-5.82,0.07-7.93
				C1675.16,973.46,1675.63,973.84,1676.39,974.05z M1644.6,963.84c0.6-3.66,1.96-6,2.77-6.6c0.81-0.6,4.77,1.36,8,3.02
				c3.23,1.66,11.7,0.43,12.3,0.3c0.6-0.13,2.13,4.09,2.55,4.64c0.43,0.55-0.3,2.81-1.45,4.21c-1.15,1.4,0.72,7.23,0.68,8.94
				c-0.03,1.33-2.93,4.11-4.15,5.77l-19.46-0.48c-0.69-0.95-1.67-2.12-1.88-3.46C1643.58,977.67,1644.01,967.5,1644.6,963.84z
				 M1635.54,978.61c0-2.21-0.04-4-0.34-5.66c-0.3-1.66,1.96-3.83,2.38-3.79c0.43,0.04,0.72,4.64,1.32,6.85
				c0.6,2.21-0.26,3.23-1.02,4.38c-0.52,0.78-0.76,2.04-0.88,3.03l-0.49-0.01C1636.31,981.78,1635.54,979.98,1635.54,978.61z
				 M1146.85,981.53l14.02-29.02c0.37,0.37,0.74,0.73,1.13,1.1l-12.45,27.89L1146.85,981.53z M1163.54,955.05
				c3.5,3.19,7.47,6.3,11.89,9.24l-2.27,16.88l-21.42,0.29L1163.54,955.05z M1177.29,965.49c1.02,0.65,2.06,1.29,3.14,1.93
				l-5.09,12.6L1177.29,965.49z M1182.17,968.42c1.08,0.61,2.18,1.22,3.31,1.81l-2.64,10.81l-5.8,0.08L1182.17,968.42z
				 M1184.91,981.01l2.4-9.85c3.06,1.54,6.27,2.99,9.64,4.34l-1.63,5.36L1184.91,981.01z M1198.83,976.23
				c3.16,1.21,6.44,2.32,9.87,3.34l-0.28,1.12l-10.99,0.15L1198.83,976.23z M1210.62,980.12c0.62,0.17,1.24,0.34,1.86,0.51l-2,0.03
				L1210.62,980.12z M1490.51,979.79c2.47-0.82,5.65-1.96,9.32-3.44l0.17,3.67L1490.51,979.79z M1501.8,975.55
				c1.18-0.49,2.39-1.01,3.65-1.57l0.61,6.2l-4.05-0.1L1501.8,975.55z M1507.37,973.11c6.24-2.87,13.19-6.53,19.99-11.06l5,18.78
				l-24.29-0.6L1507.37,973.11z M1532.59,958.36c3.79-2.83,7.46-5.94,10.86-9.36l12.09,32.4l-16.93-0.42L1532.59,958.36z
				 M1156.18,947.47c1,1.18,2.07,2.35,3.19,3.52l-14.76,30.56l-5.38,0.07L1156.18,947.47z"/>
			<g>
				<path class="st3" d="M1079.89,780.74h6.44c1.93,0,3.38-1.5,3.38-3.38v-23.5h6.81v23.5c0,6.86-3.38,10.1-10.01,10.1h-6.63V780.74
					z"/>
				<path class="st3" d="M1145.27,753.29c23.12,0,23.12,34.64,0,34.64S1122.15,753.29,1145.27,753.29z M1145.27,760.2
					c-13.44,0-13.44,20.77,0,20.77S1158.71,760.2,1145.27,760.2z"/>
				<path class="st3" d="M1204.44,788.16l-13.91-34.31h7.75l4.46,11.18l2.44,6.96l2.4-6.72l4.51-11.42h7.75l-13.91,34.31H1204.44z"
					/>
				<path class="st3" d="M1249.05,787.46v-33.6h16.82v6.72h-10.1v6.72h8.84v6.72h-8.84v6.72h10.67v6.72H1249.05z"/>
				<path class="st3" d="M1304.55,787.46h-6.72v-34.31h1.79l16.97,19.74V753.9h6.77v34.26h-1.79l-17.01-18.99V787.46z"/>
				<path class="st3" d="M1356.02,787.46v-33.6h16.82v6.72h-10.1v6.72h8.84v6.72h-8.84v6.72h10.67v6.72H1356.02z"/>
				<path class="st3" d="M1404.1,778.25c3.85,2.73,8.04,2.82,9.59,2.68c1.97-0.14,3.67-1.55,3.48-3.38
					c-0.14-1.93-1.6-2.77-3.48-3.43c-5.26-1.93-9.96-4.61-9.96-10.25s3.9-9.96,9.49-10.25c1.74-0.09,4.04-0.09,8.37,1.41l-0.85,6.49
					c-3.71-1.5-5.83-1.46-6.86-1.41c-2.4,0.14-3.48,1.88-3.34,3.76c0.19,1.88,1.83,2.73,3.76,3.38c5.22,1.93,9.73,4.93,9.73,10.29
					c0,5.59-3.85,9.87-10.15,10.2c-1.88,0.14-6.06-0.09-10.62-2.44L1404.1,778.25z"/>
				<path class="st3" d="M1504.35,752.63h0.71l14.15,34.83h-7.57l-1.36-3.62h-11.14l-1.32,3.62h-7.61L1504.35,752.63z
					 M1507.78,777.54l-3.06-8.74l-3.15,8.74H1507.78z"/>
				<path class="st3" d="M1559.01,787.46H1549v-33.6h10.01C1581.38,753.85,1581.38,787.46,1559.01,787.46z M1555.72,760.57v20.16
					h3.29c13.06,0,13.06-20.16,0-20.16H1555.72z"/>
				<path class="st3" d="M1617.62,788.16l-13.91-34.31h7.75l4.46,11.18l2.44,6.96l2.4-6.72l4.51-11.42h7.75l-13.91,34.31H1617.62z"
					/>
				<path class="st3" d="M1662.22,787.46v-33.6h16.83v6.72h-10.1v6.72h8.83v6.72h-8.83v6.72h10.67v6.72H1662.22z"/>
				<path class="st3" d="M1717.73,787.46h-6.72v-34.31h1.79l16.97,19.74V753.9h6.77v34.26h-1.79l-17.01-18.99V787.46z"/>
				<path class="st3" d="M1774.74,787.46v-26.88h-8.37v-6.67h23.45v6.67h-8.37v26.88H1774.74z"/>
				<path class="st3" d="M1820,787.46v-33.6h6.72v33.6H1820z"/>
				<path class="st3" d="M1858.68,778.25c3.85,2.73,8.04,2.82,9.59,2.68c1.97-0.14,3.67-1.55,3.48-3.38
					c-0.14-1.93-1.6-2.77-3.48-3.43c-5.26-1.93-9.96-4.61-9.96-10.25s3.9-9.96,9.49-10.25c1.74-0.09,4.04-0.09,8.37,1.41l-0.85,6.49
					c-3.71-1.5-5.83-1.46-6.86-1.41c-2.4,0.14-3.48,1.88-3.34,3.76c0.19,1.88,1.83,2.73,3.76,3.38c5.22,1.93,9.73,4.93,9.73,10.29
					c0,5.59-3.85,9.87-10.15,10.2c-1.88,0.14-6.06-0.09-10.62-2.44L1858.68,778.25z"/>
				<path class="st3" d="M1914.89,787.46v-26.88h-8.37v-6.67h23.45v6.67h-8.37v26.88H1914.89z"/>
				<path class="st3" d="M1968.33,752.63h0.71l14.15,34.83h-7.57l-1.36-3.62h-11.14l-1.32,3.62h-7.61L1968.33,752.63z
					 M1971.76,777.54l-3.05-8.74l-3.15,8.74H1971.76z"/>
				<path class="st3" d="M2012.28,778.25c3.85,2.73,8.04,2.82,9.59,2.68c1.97-0.14,3.67-1.55,3.48-3.38
					c-0.14-1.93-1.6-2.77-3.48-3.43c-5.26-1.93-9.96-4.61-9.96-10.25s3.9-9.96,9.49-10.25c1.74-0.09,4.04-0.09,8.37,1.41l-0.85,6.49
					c-3.71-1.5-5.83-1.46-6.86-1.41c-2.4,0.14-3.48,1.88-3.34,3.76c0.19,1.88,1.83,2.73,3.76,3.38c5.22,1.93,9.73,4.93,9.73,10.29
					c0,5.59-3.85,9.87-10.15,10.2c-1.88,0.14-6.06-0.09-10.62-2.44L2012.28,778.25z"/>
			</g>
			<path class="st3" d="M1409.05,651.34l-75.87-231.06c-1.62-4.93-4.73-9.06-8.73-11.96c-4.01-2.89-8.9-4.56-14.09-4.56
				c-10.35,0-19.53,6.62-22.79,16.44l-76.74,231.07c-0.73,2.19-1.07,4.4-1.07,6.55c0,11,8.9,20.66,20.7,20.66
				c9.65,0,18.15-6.35,20.89-15.6l13.02-43.98h89.9l13.1,44.01c2.75,9.24,11.24,15.57,20.88,15.57h1.15
				C1403.48,678.48,1413.44,664.72,1409.05,651.34z M1275.31,581.97l33.89-114.47l34.08,114.47H1275.31z"/>
			<path class="st3" d="M1513.71,408.01h-59.49c-12.13,0-21.96,9.83-21.96,21.96v222.64c0,12.12,9.83,21.95,21.96,21.95h59.49
				c51.75,0,93.7-41.95,93.7-93.7v-79.15C1607.41,449.96,1565.46,408.01,1513.71,408.01z M1565.03,583.42
				c0,29.75-24.12,53.87-53.88,53.87h-38.04V446.82h38.04c29.76,0,53.88,24.12,53.88,53.87V583.42z"/>
			<path class="st3" d="M1637.03,657.8V426.61c0-11.59,9.39-20.98,20.98-20.98h0c9.85,0,18.92,5.35,23.68,13.96l96.41,174.29V425.86
				c0-11.17,9.06-20.23,20.23-20.23l0,0c11.17,0,20.23,9.06,20.23,20.23v232.09c0,11.34-9.19,20.53-20.53,20.53l0,0
				c-10.18,0-19.55-5.53-24.47-14.44l-95.17-172.28V657.8c0,11.42-9.26,20.68-20.68,20.68l0,0
				C1646.29,678.48,1637.03,669.22,1637.03,657.8z"/>
		</g>
	</g>
	<g>
		<g>
			<path class="st4" d="M448.52,374.56v20.17c0,0-18.2-2.04-41.62,3.8v123.35l-19.4,15.07V404.98
				c-10.91,4.61-22.16,11.19-32.69,20.52v-25.15c0,0,10.32-9.31,32.69-16.74v-63.68c7.65-4.09,19.4-5.88,19.4-5.88v64.44
				C418.63,376.13,432.46,374.56,448.52,374.56z"/>
			<polygon points="324.96,616.21 318.8,608.32 459.64,498.37 518.94,557.4 511.89,564.49 458.84,511.69 			"/>
			<path d="M327.75,663.07c0,0,34.21-22.47,66.13-38.3V575.5l-66.13,50.81v15.57l53.36-31.15l-53.36,40.09V663.07z"/>
			<path d="M405.63,619.29v-52.47l51.83-41.11l47.74,42.13v14.81C505.2,582.65,452.22,594.78,405.63,619.29z"/>
			<path d="M733.4,672.35L733.4,672.35c1.57,0.24,3.06-0.75,3.43-2.29c4.61-18.83,28.17-132.14-46.02-227.33
				c-81.19-104.17-187.4-126.64-274.72-110.81v26.04c0,0,135.83-30.13,236.43,70.47c97.6,97.6,83.68,205.55,78.34,240.45
				C730.6,670.55,731.74,672.09,733.4,672.35z"/>
			<path d="M378.05,368.69v-26.04c0,0-121.79,30.27-171.57,157.22c-40.34,98.1-7.91,192.57,0.26,210.44
				c1.53,4.09,6.77,1.53,5.11-3.06c-1.66-4.6-33.66-95.44,9.7-196.09S357.37,376.35,378.05,368.69z"/>
			<path d="M507.5,489.71c0,0,10.21-23.74,28.6-9.19c13.53-8.68,24.77-1.79,29.36,3.57c-16.34-4.85-20.68,4.34-24,11.74
				C541.46,495.84,525.63,471.07,507.5,489.71z"/>
			<path d="M581.88,493.29c0,0,12.43-25.7,30.64-9.53c14.98-9.36,23.15-2.96,28.77,2.1c-14.13-3.29-21.79,5.7-24.51,12.53
				C608.49,480.78,590.39,483.75,581.88,493.29z"/>
			<path d="M561.03,460.18c0,0,7.66-15.83,20.85-5.36c7.74-7.23,17.53-0.68,19.83,2.55c-11.15-4.51-16.34,3.4-17.79,8.6
				C583.92,465.97,575.5,447.75,561.03,460.18z"/>
			<path class="st4" d="M647.92,717.29c39.49-60.26,43.92-188.26,43.92-188.26c-56.17,26.56-146.05,37.79-266.9,95.32
				c-120.85,57.53-230.13,145.7-230.13,145.7l9.88,11.92c282.38-184.94,397.02-171.24,397.02-171.24
				C459.39,616.87,212.52,791.5,212.52,791.5l7.49,9.87l-18.73,25.19c63.66-63.66,168.51-21.78,220.26-42.21
				c32-14.3,62.3-41.19,113.7-57.19s89.87,13.62,135.83,8.17c45.96-5.45,69.11-44.94,69.11-44.94S704.09,716.27,647.92,717.29z
				 M383.92,768.52l75.06-27.57C458.98,740.95,431.74,780.45,383.92,768.52z M316.01,768.52h-20.68
				c112.59-59.74,172.17-96.13,312.25-109.79C418.13,700.61,316.01,768.52,316.01,768.52z"/>
			<path d="M309.88,800.69c0,0,68.42,21.45,111.57,3.57c43.15-17.87,91.66-96,203.49-57.7c0,0-84.26-14.81-138.89,32.17
				C431.41,825.71,385.45,838.48,309.88,800.69z"/>
			<path d="M492.69,800.18c0,0,48-74.15,179.23-29.42C565.46,758.79,538.14,772.09,492.69,800.18z"/>
		</g>
		<g>
			<path d="M120.12,633.04l1.12,12.57l-83.32,7.41l-1.12-12.57L120.12,633.04z"/>
			<path d="M120.3,605.46c-0.09,5.56-2.12,10.26-6.1,14.09c-3.98,3.83-8.7,5.7-14.18,5.62l-45.66-0.72
				c-5.56-0.09-10.26-2.12-14.09-6.1c-3.83-3.98-5.7-8.73-5.62-14.24c0.09-5.56,2.12-10.25,6.1-14.06
				c3.98-3.81,8.73-5.67,14.24-5.58l9.55,0.15l-0.21,13.08l-9.81-0.16c-2-0.03-3.73,0.65-5.17,2.05c-1.45,1.4-2.19,3.1-2.22,5.11
				c-0.03,2,0.65,3.72,2.06,5.14c1.4,1.42,3.1,2.15,5.11,2.18l45.79,0.72c2,0.03,3.72-0.64,5.14-2.02c1.42-1.38,2.15-3.07,2.18-5.07
				s-0.64-3.73-2.02-5.17c-1.38-1.45-3.06-2.19-5.06-2.22L83.89,598l-0.11,7.01l-12.68-0.2l0.32-20.09l29.24,0.46
				c5.56,0.09,10.25,2.12,14.06,6.1S120.39,599.99,120.3,605.46z"/>
			<path d="M124.19,544.02l-4.27,34.12l-83.01-10.38l1.57-12.52l70.55,8.82l2.7-21.6L124.19,544.02z"/>
			<path d="M122.5,540.06l-81.41-19.53l8.38-34.93l12.33,2.96l-5.44,22.66l22.2,5.33l3.97-16.55l12.33,2.96L90.9,519.5l22.2,5.33
				l5.44-22.66l12.33,2.96L122.5,540.06z"/>
			<path d="M126.06,453.9c5.49,1.95,9.64,5.11,12.43,9.48c1.91,2.9,2.76,6.3,2.53,10.21c-0.12,2.09-0.64,4.39-1.57,6.89
				c-1.73,4.63-4.3,8.04-7.73,10.23c-2.83,1.84-6.13,2.9-9.91,3.18c-3.78,0.28-7.81-0.24-12.07-1.54l3.39-11.56
				c4.76,1.2,8.52,1.23,11.29,0.08c2.08-0.84,3.42-2.19,4.02-4.06c0.88-2.62,0.38-5.16-1.51-7.62c-0.91-1.24-2.5-2.29-4.75-3.13
				c-3.26-1.21-7.04-0.94-11.36,0.82c-3.08,1.51-7.71,3.78-13.87,6.8c-5.26,2.5-9.7,4.01-13.31,4.51c-4.03,0.49-8.03,0-12-1.48
				c-7.14-2.66-11.65-7.08-13.53-13.24c-1.11-3.79-0.85-7.87,0.79-12.25c1.57-4.21,3.85-7.47,6.85-9.77
				c2.33-1.79,5.08-2.92,8.24-3.37c3.16-0.46,6.51-0.2,10.04,0.79l-2.16,12.09c-3.34-0.86-6.18-0.88-8.53-0.05
				c-1.7,0.6-2.93,1.93-3.69,3.97c-0.81,2.17-0.46,4.17,1.03,6.01c1.2,1.49,2.95,2.67,5.24,3.52c3.59,1.34,7.81,1.16,12.67-0.55
				c1.85-0.64,4.18-1.77,6.96-3.39c3.32-1.9,5.6-3.11,6.85-3.65c4.01-1.83,7.73-3.01,11.15-3.54c1.62-0.25,3.07-0.4,4.37-0.44
				C121.12,452.77,123.84,453.12,126.06,453.9z"/>
			<path d="M152.08,445.62l-5.52,11.35l-75.22-36.59l5.52-11.35L152.08,445.62z"/>
			<path d="M147.64,415.64l14.74,12.72l-6.91,11.17l-63.66-56.1l9.13-14.76l78.52,32.08l-6.98,11.28l-17.9-7.6L147.64,415.64z
				 M112.64,386.19l25.59,21.32l4.92-7.95L112.64,386.19z"/>
			<path d="M187.58,360.08l12.53,14.9l-8.6,9.94l-53.96-65.49l11.36-13.13l72.43,44.13l-8.68,10.03l-16.47-10.35L187.58,360.08z
				 M157.69,325.45l21.88,25.11l6.12-7.07L157.69,325.45z"/>
			<path d="M242.08,305.6c3.63,4.15,5.28,8.98,4.95,14.48c-0.34,5.5-2.56,10.05-6.69,13.65l-14.92,13.05l-55.12-63.02l14.92-13.05
				c4.15-3.63,8.97-5.24,14.45-4.83c5.48,0.41,10.02,2.68,13.62,6.8L242.08,305.6z M226.69,329.08l5.73-5.01
				c1.51-1.32,2.3-2.98,2.39-4.97c0.09-2-0.51-3.73-1.8-5.21l-28.83-32.97c-1.32-1.51-2.97-2.34-4.97-2.48
				c-1.99-0.15-3.73,0.42-5.2,1.71l-5.73,5.01L226.69,329.08z"/>
			<path d="M269.01,312.02l-58.39-61.74l11.06-7.25l44.55,48.76l-26.93-60.32l11.06-7.26l33.16,78.29L269.01,312.02z"/>
			<path d="M297.83,293.23l-35.73-75.71l32.48-15.33l5.41,11.47l-21.07,9.94l9.74,20.65l15.4-7.27l5.41,11.47l-15.4,7.27l9.74,20.65
				l21.07-9.94l5.41,11.47L297.83,293.23z"/>
			<path d="M325.1,190.01l33.12,48.47l-17.18-53.58l12.02-3.85l25.56,79.72l-12.91,4.14l-32.9-45.75l16.37,51.05l-12.02,3.85
				l-25.56-79.72L325.1,190.01z"/>
			<path d="M380.96,187.27l-13.23,2.27l-2.15-12.5l38.82-6.66l2.15,12.5l-13.16,2.26l12,69.94l-12.44,2.13L380.96,187.27z"/>
			<path d="M436.01,251.71l-12.58,0.93l-6.16-83.43l12.58-0.93L436.01,251.71z"/>
			<path d="M484.19,230.05c-0.06,5.83-1.7,10.77-4.92,14.83c-2.12,2.75-5.06,4.66-8.83,5.72c-2.02,0.57-4.36,0.82-7.03,0.75
				c-4.94-0.13-9-1.46-12.19-3.99c-2.66-2.07-4.74-4.85-6.23-8.34c-1.49-3.49-2.31-7.46-2.46-11.92l12.04-0.56
				c0.41,4.89,1.61,8.46,3.6,10.7c1.47,1.69,3.18,2.52,5.15,2.48c2.76-0.02,5-1.32,6.71-3.9c0.88-1.27,1.35-3.11,1.41-5.51
				c0.09-3.47-1.4-6.97-4.47-10.48c-2.43-2.42-6.08-6.06-10.94-10.91c-4.08-4.16-6.94-7.87-8.59-11.12
				c-1.78-3.66-2.61-7.6-2.5-11.83c0.2-7.61,2.9-13.32,8.12-17.1c3.22-2.28,7.17-3.36,11.84-3.24c4.49,0.12,8.32,1.22,11.47,3.3
				c2.45,1.62,4.41,3.85,5.87,6.7c1.46,2.84,2.3,6.09,2.52,9.75l-12.14,1.89c-0.27-3.44-1.18-6.13-2.73-8.08
				c-1.12-1.41-2.77-2.14-4.95-2.2c-2.31-0.06-4.1,0.92-5.35,2.93c-1.02,1.62-1.56,3.66-1.63,6.1c-0.1,3.83,1.45,7.76,4.64,11.81
				c1.21,1.54,3.03,3.37,5.47,5.48c2.87,2.52,4.76,4.29,5.67,5.29c3.03,3.2,5.36,6.33,6.97,9.4c0.76,1.45,1.37,2.77,1.83,3.99
				C483.65,225.01,484.21,227.7,484.19,230.05z"/>
			<path d="M507.78,180.86l-13.32-1.62l1.53-12.59l39.1,4.76l-1.53,12.59l-13.25-1.61l-8.57,70.45l-12.53-1.52L507.78,180.86z"/>
			<path d="M542.55,239.4L535,257.34l-12.76-3.13l33.72-77.86l16.86,4.13l-6.29,84.58l-12.89-3.16l1.71-19.38L542.55,239.4z
				 M559.76,197.01l-12.39,30.92l9.08,2.22L559.76,197.01z"/>
			<path d="M633.65,271.8c-2.29,5.02-6.01,8.51-11.16,10.47c-5.15,1.96-10.21,1.8-15.19-0.47l-18.04-8.22l34.72-76.18l18.04,8.22
				c5.02,2.29,8.47,6.01,10.35,11.17c1.88,5.16,1.68,10.23-0.59,15.21L633.65,271.8z M605.92,267.45l6.93,3.16
				c1.82,0.83,3.66,0.87,5.52,0.13c1.85-0.74,3.19-2.01,4-3.79l18.17-39.85c0.83-1.82,0.9-3.67,0.22-5.55
				c-0.69-1.88-1.92-3.22-3.7-4.03l-6.93-3.16L605.92,267.45z"/>
			<path d="M631.54,293.5l44.35-71.01l30.46,19.03l-6.72,10.76l-19.76-12.34l-12.1,19.37l14.44,9.02l-6.72,10.76l-14.44-9.02
				l-12.1,19.37l19.76,12.34L662,312.53L631.54,293.5z"/>
			<path d="M750.33,275.66c4.7,3.96,7.2,8.59,7.5,13.9c0.21,5-1.54,9.7-5.23,14.1l-7.82,9.3c-3.55,4.22-8.07,6.59-13.53,7.11
				c-5.47,0.52-10.3-0.99-14.48-4.51l-5.57-4.69l-20.29,24.11l-9.65-8.13l53.87-64L750.33,275.66z M743.12,295.95
				c1.4-1.67,2.03-3.44,1.89-5.3c-0.15-1.87-1.05-3.5-2.72-4.91l-5.82-4.9l-17.24,20.48l5.82,4.9c1.53,1.29,3.29,1.84,5.28,1.65
				c1.99-0.19,3.63-1.05,4.92-2.58L743.12,295.95z"/>
			<path d="M736.19,351.13l-16.41,10.47l-8.72-9.83l72-44.9l11.52,12.98l-53.25,66.02l-8.81-9.92l12.42-14.97L736.19,351.13z
				 M774.45,326.04l-27.77,18.4l6.2,6.99L774.45,326.04z"/>
			<path d="M763.65,418.77l-19.16-28.55l69.46-46.62l7.03,10.48l-59.04,39.62l12.13,18.07L763.65,418.77z"/>
			<path d="M771.72,430.43l-5.41-10.83l73.72-34.88l7.77,15.54l-47.91,35.14l57.8-15.37l7.47,14.93l-73.72,34.88l-5.41-10.83
				l46.32-21.92l-51.02,12.52l-4.35-8.71l40.96-32.34L771.72,430.43z"/>
			<path d="M795.48,488.77l76.2-37.62l3.68,12.7l-59.72,28.21l65.58-7.97l3.68,12.71l-84.59,8.64L795.48,488.77z"/>
			<path d="M806.47,535.49l-2.67-12.33l81.75-17.72l2.67,12.33L806.47,535.49z"/>
			<path d="M808.96,545.21l83.07-10.38l4.45,35.64l-12.59,1.57l-2.89-23.12l-22.66,2.83l2.11,16.89l-12.59,1.57l-2.11-16.89
				l-22.66,2.83l2.89,23.12l-12.59,1.57L808.96,545.21z"/>
			<path d="M896.41,637.2l-0.33,13.24l-83.3-15.15l0.3-12.01l46.19-6.06l-45.84-7.85l0.3-12.07l83.97-11.93l-0.33,13.21l-44.95,5.5
				l44.63,7.18l-0.33,13.21l-44.91,5.49L896.41,637.2z"/>
		</g>
		<g>
			<path class="st4" d="M65.57,702.42l3.93-2.35l-2.44-10.62l-4.57-0.4l-1.61-6.99l29.41,3.5l1.81,7.87l-24.94,15.99L65.57,702.42z
				 M72.92,689.91l1.64,7.14l10.26-6.1L72.92,689.91z"/>
			<path class="st4" d="M85.75,716.79c3.42,0.41,5.85,2.26,6.71,5.11l-6.06,1.81c-1.17-3.91-3.79-5.98-6.67-5.12l-8.93,2.67
				l-1.79-5.97l19.05-5.7l1.79,5.97L85.75,716.79z"/>
			<path class="st4" d="M89.92,750.31c-2.51,0.7-4.88,0.39-7.07-0.85c-2.25-1.27-3.84-3.19-4.79-5.81c-1.06-2.91-1.01-5.6,0.15-8.14
				c1.16-2.55,3.14-4.35,5.96-5.38c2.82-1.02,5.46-0.9,7.98,0.31s4.28,3.24,5.34,6.15c0.95,2.62,0.96,5.11,0.09,7.52
				c-0.92,2.38-2.54,4.13-4.92,5.2l-2.14-5.9c1.69-1.07,2.44-3.01,1.76-4.89c-0.84-2.32-3.34-3.33-5.93-2.39
				c-2.59,0.94-3.9,3.33-3.05,5.65c0.7,1.92,2.51,2.93,4.5,2.66L89.92,750.31z"/>
			<path class="st4" d="M109.01,765.47l2.54,5.73l-18.18,8.05l-2.54-5.73l2.41-1.07c-2.52-0.64-4.27-2.14-5.31-4.47
				c-1-2.26-0.96-4.55,0.18-6.81s3.08-4.02,5.82-5.24c2.74-1.21,5.31-1.45,7.75-0.78s4.16,2.19,5.16,4.44
				c1.03,2.33,0.96,4.63-0.25,6.93L109.01,765.47z M93.85,767.6c0.49,1.11,1.31,1.87,2.47,2.21c1.16,0.34,2.34,0.25,3.62-0.32
				c1.28-0.57,2.15-1.38,2.67-2.47c0.49-1.07,0.48-2.18-0.02-3.29c-0.49-1.11-1.31-1.86-2.43-2.22c-1.17-0.38-2.36-0.29-3.64,0.28
				s-2.15,1.38-2.65,2.5C93.35,765.38,93.36,766.49,93.85,767.6z"/>
			<path class="st4" d="M133.65,794.41l3.14,5.43l-24.13,13.96l-3.14-5.43l2.29-1.32c-2.57-0.37-4.48-1.67-5.75-3.87
				c-1.24-2.14-1.45-4.42-0.55-6.79c0.89-2.37,2.63-4.33,5.22-5.83s5.12-2.01,7.62-1.6c2.5,0.41,4.37,1.73,5.61,3.87
				c1.28,2.21,1.45,4.51,0.49,6.92L133.65,794.41z M111.89,802.16c0.61,1.05,1.5,1.71,2.69,1.93c1.19,0.22,2.35,0,3.57-0.7
				s1.98-1.6,2.39-2.74c0.37-1.12,0.24-2.22-0.37-3.27s-1.5-1.71-2.65-1.95c-1.21-0.25-2.37-0.03-3.59,0.67s-1.98,1.6-2.37,2.78
				C111.15,800.01,111.28,801.11,111.89,802.16z"/>
			<path class="st4" d="M135.53,833.4l-8.13-12.06c-1.88,1.79-2.38,3.92-1.17,5.71c0.96,1.43,2.55,2.06,4.23,1.69l3.57,5.3
				c-2.12,0.72-4.26,0.7-6.49-0.11c-2.23-0.81-4-2.22-5.36-4.23c-1.73-2.57-2.34-5.18-1.83-7.94c0.51-2.75,1.99-4.98,4.48-6.66
				c2.49-1.68,5.08-2.2,7.82-1.63c2.74,0.56,4.94,2.11,6.67,4.67s2.34,5.18,1.83,7.94s-2.05,4.97-4.57,6.67
				C136.21,832.99,135.88,833.21,135.53,833.4z M130.67,819.47l4.38,6.5c1.31-1.5,1.42-3.41,0.36-4.97
				C134.34,819.41,132.74,818.89,130.67,819.47z"/>
			<path class="st4" d="M171.64,847.63l4.31,5.08l-21.27,18.03l-5.45-6.43l8.53-18.64l-14.16,12l-4.31-5.08l21.27-18.03l5.47,6.46
				l-8.56,18.61L171.64,847.63z"/>
			<path class="st4" d="M181.62,870.03c2.17,2.21,3.24,4.67,3.24,7.47c0,2.8-1.05,5.21-3.19,7.31c-2.14,2.1-4.6,3.14-7.4,3.08
				c-2.8-0.05-5.24-1.17-7.41-3.38c-2.17-2.21-3.24-4.67-3.24-7.47c0-2.8,1.05-5.26,3.2-7.36s4.6-3.08,7.4-3.03
				S179.45,867.82,181.62,870.03z M177.65,873.93c-0.85-0.87-1.88-1.29-3.06-1.23c-1.23,0.06-2.31,0.56-3.31,1.54
				c-2.03,1.99-2.19,4.62-0.46,6.38c0.85,0.87,1.88,1.29,3.09,1.2s2.28-0.59,3.28-1.57c1-0.98,1.52-2.04,1.63-3.25
				C178.9,875.83,178.5,874.79,177.65,873.93z"/>
			<path class="st4" d="M201.38,904.3l-10.85-9.68c-1.38,2.2-1.34,4.38,0.27,5.82c1.29,1.15,2.98,1.37,4.51,0.59l4.77,4.25
				c-1.88,1.22-3.95,1.72-6.32,1.49s-4.43-1.16-6.24-2.78c-2.31-2.06-3.54-4.45-3.73-7.24c-0.19-2.79,0.7-5.32,2.7-7.56
				c2-2.24,4.38-3.38,7.18-3.51c2.8-0.13,5.31,0.82,7.62,2.88c2.31,2.06,3.54,4.45,3.73,7.24c0.19,2.79-0.76,5.33-2.78,7.59
				C201.94,903.73,201.68,904.03,201.38,904.3z M193.24,892l5.85,5.22c0.9-1.77,0.53-3.66-0.88-4.91
				C196.78,891.03,195.09,890.92,193.24,892z M212.02,887.96l-8.4,0.7l-3.54-3.16l7.26-1.72L212.02,887.96z"/>
			<path class="st4" d="M224,934.4l1.38-4.37l-8.87-6.33l-3.68,2.73l-5.84-4.17l24.32-16.89l6.57,4.69l-8.05,28.5L224,934.4z
				 M221.2,920.17l5.97,4.26l3.63-11.36L221.2,920.17z"/>
			<path class="st4" d="M263.02,929.25c0.79,2.54,0.44,5-0.96,7.38l-5.52-3.37c1.2-2.04,0.57-4.24-1.57-5.55
				c-1.91-1.16-3.83-1.02-4.75,0.48c-1.37,2.25,1.77,4.4,4.57,7.19c1.92,1.97,3.54,3.75,3.7,6.43c0.05,1.34-0.32,2.71-1.17,4.11
				c-1.42,2.32-3.44,3.62-6.06,3.84c-2.67,0.24-5.43-0.5-8.34-2.28c-2.84-1.73-4.66-3.87-5.54-6.42c-0.88-2.55-0.61-5.1,0.88-7.61
				l5.69,3.47c-1.2,2.04-0.43,4.47,2.11,6.02c2.17,1.33,4.39,1.23,5.33-0.31c1.3-2.21-1.83-4.3-4.59-7.15
				c-1.9-2-3.56-3.72-3.72-6.39c-0.07-1.31,0.3-2.67,1.13-4.04c1.4-2.29,3.36-3.62,5.9-3.95c2.54-0.33,5.17,0.34,7.88,1.99
				C260.55,924.65,262.23,926.7,263.02,929.25z"/>
			<path class="st4" d="M280.08,936.98c3.66,1.88,6.06,4.59,7.21,8.1c1.15,3.51,0.81,7.11-1.04,10.7c-1.86,3.63-4.58,6.01-8.1,7.13
				c-3.52,1.12-7.12,0.75-10.79-1.12l-9.07-4.65l12.71-24.81L280.08,936.98z M270.07,956.44c1.92,0.98,3.8,1.09,5.7,0.4
				c1.9-0.69,3.36-2.1,4.44-4.2c1.04-2.03,1.32-4.04,0.78-5.98c-0.55-1.94-1.75-3.37-3.67-4.35l-3.1-1.59l-7.24,14.13L270.07,956.44
				z"/>
			<path class="st4" d="M319.27,954.7l5.83,2.32l-10.32,25.9l-5.83-2.32l0.98-2.45c-2.25,1.3-4.55,1.46-6.92,0.52
				c-2.29-0.91-3.87-2.57-4.64-4.99c-0.77-2.42-0.61-5.02,0.5-7.81c1.11-2.79,2.78-4.75,5-5.97c2.22-1.23,4.5-1.35,6.8-0.43
				c2.37,0.94,3.93,2.64,4.66,5.13L319.27,954.7z M306.96,974.25c1.13,0.45,2.24,0.42,3.31-0.15s1.85-1.46,2.37-2.76
				c0.52-1.3,0.57-2.49,0.18-3.63c-0.4-1.11-1.19-1.89-2.31-2.34c-1.13-0.45-2.24-0.42-3.29,0.11c-1.11,0.55-1.88,1.45-2.4,2.75
				c-0.52,1.3-0.57,2.49-0.14,3.65C305.05,973.01,305.83,973.8,306.96,974.25z"/>
			<path class="st4" d="M338.79,969.43c2.96,0.91,5.08,2.56,6.41,5.02s1.56,5.08,0.68,7.95c-0.88,2.87-2.54,4.95-5.03,6.24
				c-2.49,1.29-5.17,1.47-8.13,0.56s-5.08-2.56-6.42-5.02c-1.34-2.46-1.58-5.13-0.71-8s2.57-4.9,5.05-6.19
				C333.15,968.71,335.83,968.52,338.79,969.43z M337.17,974.75c-1.16-0.36-2.27-0.23-3.27,0.38c-1.06,0.64-1.76,1.59-2.17,2.93
				c-0.83,2.71,0.28,5.11,2.64,5.83c1.16,0.36,2.27,0.23,3.28-0.42c1.02-0.65,1.72-1.61,2.13-2.94c0.41-1.34,0.36-2.52-0.12-3.63
				C339.17,975.82,338.33,975.1,337.17,974.75z M342.29,962.56l6,1.84l-7.34,4.15l-4.53-1.39L342.29,962.56z"/>
			<path class="st4" d="M372.14,981.3c0.96,1.76,1.2,3.78,0.66,6.05l-3.02,12.78l-6.34-1.5l2.8-11.85c0.5-2.1-0.48-3.83-2.38-4.28
				c-2.02-0.48-3.66,0.63-4.16,2.73l-2.8,11.85l-6.34-1.5l4.74-20.1l6.34,1.5l-0.63,2.67c1.87-1.74,4.05-2.29,6.55-1.7
				C369.63,978.45,371.16,979.58,372.14,981.3z"/>
			<path class="st4" d="M398.32,977.44l6.19,1.03l-4.59,27.5l-6.19-1.03l0.44-2.6c-1.92,1.75-4.14,2.39-6.65,1.97
				c-2.44-0.41-4.33-1.7-5.59-3.89c-1.26-2.2-1.67-4.78-1.17-7.74c0.49-2.96,1.71-5.23,3.62-6.9s4.12-2.27,6.55-1.87
				c2.51,0.42,4.4,1.75,5.65,4.03L398.32,977.44z M390.44,999.16c1.2,0.2,2.28-0.07,3.2-0.84c0.93-0.78,1.5-1.82,1.73-3.2
				c0.23-1.38,0.03-2.55-0.59-3.59c-0.63-1-1.56-1.6-2.76-1.8c-1.2-0.2-2.28,0.07-3.19,0.8c-0.96,0.77-1.53,1.81-1.77,3.19
				c-0.23,1.38-0.03,2.55,0.63,3.59C388.31,998.36,389.24,998.96,390.44,999.16z"/>
			<path class="st4" d="M430.33,1001.23l-14.47-1.44c0.18,2.59,1.5,4.33,3.65,4.54c1.72,0.17,3.21-0.65,4-2.18l6.36,0.63
				c-0.8,2.09-2.18,3.72-4.23,4.93c-2.05,1.2-4.26,1.67-6.68,1.43c-3.08-0.31-5.48-1.51-7.28-3.66c-1.8-2.15-2.56-4.72-2.27-7.7
				c0.3-2.99,1.55-5.31,3.73-7.07c2.18-1.75,4.77-2.46,7.85-2.15c3.08,0.31,5.48,1.51,7.28,3.66s2.52,4.75,2.22,7.78
				C430.45,1000.44,430.41,1000.84,430.33,1001.23z M416.5,996.08l7.8,0.78c-0.32-1.96-1.72-3.27-3.6-3.45
				C418.8,993.21,417.37,994.12,416.5,996.08z"/>
			<path class="st4" d="M459.35,991.65l-0.08,5.28l-4.31-0.07l-0.23,14.6l-6.27-0.1l0.23-14.6l-3.61-0.06l0.08-5.28l3.61,0.06
				l0.08-5.24l6.27,0.1l-0.08,5.24L459.35,991.65z"/>
			<path class="st4" d="M473.98,990.58c3.09-0.14,5.64,0.71,7.73,2.57c2.09,1.87,3.17,4.26,3.31,7.26c0.13,3-0.73,5.52-2.64,7.57
				c-1.91,2.05-4.37,3.12-7.46,3.26c-3.09,0.14-5.64-0.71-7.73-2.57s-3.21-4.3-3.35-7.3c-0.13-3,0.77-5.48,2.68-7.53
				S470.89,990.72,473.98,990.58z M474.23,996.13c-1.21,0.05-2.21,0.54-2.96,1.46c-0.78,0.96-1.12,2.09-1.06,3.49
				c0.13,2.84,1.98,4.72,4.44,4.6c1.21-0.06,2.21-0.54,2.95-1.5c0.74-0.96,1.08-2.09,1.02-3.49s-0.5-2.5-1.33-3.38
				C476.49,996.47,475.45,996.08,474.23,996.13z"/>
			<path class="st4" d="M504.33,980.81l6.23-0.7l3.08,27.71l-6.23,0.7l-0.29-2.62c-1.37,2.21-3.33,3.43-5.86,3.71
				c-2.45,0.27-4.63-0.45-6.44-2.22s-2.91-4.14-3.24-7.12c-0.33-2.98,0.22-5.5,1.6-7.62s3.34-3.31,5.79-3.58
				c2.53-0.28,4.71,0.48,6.53,2.33L504.33,980.81z M502.68,1003.85c1.21-0.13,2.17-0.69,2.85-1.69s0.94-2.16,0.79-3.55
				s-0.67-2.46-1.55-3.29c-0.88-0.79-1.94-1.11-3.15-0.98s-2.17,0.68-2.85,1.65c-0.72,1.01-0.98,2.16-0.83,3.55
				c0.15,1.39,0.67,2.46,1.59,3.28C500.41,1003.66,501.47,1003.98,502.68,1003.85z"/>
			<path class="st4" d="M529.6,985.54c3.05-0.55,5.69-0.05,8,1.53c2.31,1.58,3.71,3.8,4.24,6.76c0.53,2.95,0,5.57-1.62,7.85
				s-3.92,3.67-6.97,4.22c-3.05,0.55-5.69,0.05-8-1.53c-2.31-1.58-3.76-3.84-4.29-6.79c-0.53-2.95,0.04-5.53,1.66-7.82
				S526.56,986.09,529.6,985.54z M530.59,991.01c-1.2,0.21-2.12,0.83-2.74,1.83c-0.65,1.05-0.84,2.22-0.59,3.6
				c0.5,2.79,2.58,4.41,5.02,3.98c1.2-0.21,2.12-0.83,2.73-1.87c0.61-1.04,0.8-2.22,0.55-3.59s-0.83-2.41-1.77-3.18
				C532.86,991.05,531.78,990.8,530.59,991.01z"/>
			<path class="st4" d="M554.04,980.49c2.4-0.59,4.48-0.48,6.34,0.34c1.86,0.82,3,2.19,3.45,4.06l-5.48,1.34
				c-0.47-1.24-1.71-1.89-3.2-1.52c-1.33,0.33-2.11,1.26-1.88,2.19c0.15,0.62,0.55,0.94,1.58,1.01c1.04,0.12,1.45,0.14,3.21,0.08
				c1.89-0.01,2.95,0.02,4.73,0.53c1.78,0.51,3.01,1.74,3.47,3.64c0.45,1.83,0.01,3.5-1.31,5.05c-1.34,1.6-3.26,2.69-5.73,3.29
				c-2.55,0.62-4.8,0.51-6.74-0.33c-1.93-0.8-3.15-2.15-3.62-4.06l5.82-1.42c0.49,1.2,1.82,1.82,3.45,1.42
				c1.41-0.34,2.27-1.29,2.03-2.27c-0.18-0.74-0.98-1.04-2.16-1.08c-0.72,0.01-1.06-0.03-2.02,0c-0.49,0-0.85,0-1.12,0.03
				c-4.27,0.02-6.76-1.39-7.43-4.15c-0.45-1.83-0.05-3.49,1.19-5.03C549.84,982.14,551.64,981.08,554.04,980.49z"/>
			<path class="st4" d="M600.09,979.53c0.68,2.52,0.35,4.88-0.92,7.07c-1.29,2.24-3.23,3.81-5.86,4.73
				c-2.92,1.03-5.61,0.95-8.15-0.23c-2.54-1.19-4.32-3.19-5.32-6.02s-0.84-5.47,0.39-7.98c1.24-2.51,3.28-4.25,6.21-5.28
				c2.63-0.92,5.12-0.91,7.52-0.01c2.37,0.95,4.11,2.58,5.16,4.97l-5.92,2.08c-1.06-1.71-2.99-2.47-4.88-1.81
				c-2.33,0.82-3.37,3.3-2.45,5.91s3.29,3.93,5.62,3.11c1.92-0.68,2.95-2.48,2.71-4.47L600.09,979.53z"/>
			<path class="st4" d="M615.92,961.48l5.76-2.47l7.83,18.27l-5.76,2.47l-1.04-2.43c-0.67,2.51-2.19,4.25-4.53,5.25
				c-2.27,0.97-4.56,0.91-6.81-0.26s-3.98-3.12-5.17-5.88c-1.18-2.76-1.39-5.32-0.68-7.76c0.7-2.43,2.24-4.13,4.51-5.11
				c2.34-1,4.65-0.9,6.93,0.34L615.92,961.48z M617.86,976.66c1.12-0.48,1.88-1.29,2.24-2.44c0.36-1.15,0.28-2.34-0.27-3.62
				s-1.35-2.16-2.44-2.7c-1.07-0.5-2.18-0.5-3.29-0.02c-1.12,0.48-1.88,1.28-2.25,2.4c-0.39,1.17-0.31,2.35,0.24,3.64
				c0.55,1.29,1.35,2.16,2.47,2.68C615.64,977.13,616.75,977.14,617.86,976.66z"/>
			<path class="st4" d="M647.22,949.57c2.32,1.01,4.17,2.81,5.54,5.48s1.77,5.25,1.23,7.73c-0.54,2.48-1.95,4.28-4.15,5.4
				c-2.27,1.16-4.57,1.22-6.93,0.14l1.2,2.35l-5.55,2.84l-12.71-24.81l5.55-2.84l4.85,9.47c0.5-2.55,1.89-4.38,4.16-5.55
				C642.61,948.65,644.9,948.56,647.22,949.57z M645.53,964.15c1.08-0.55,1.79-1.41,2.07-2.59c0.28-1.18,0.12-2.35-0.52-3.6
				c-0.64-1.25-1.5-2.06-2.61-2.53c-1.1-0.43-2.21-0.35-3.29,0.2c-1.08,0.55-1.79,1.41-2.08,2.55c-0.31,1.19-0.15,2.37,0.49,3.62
				c0.64,1.25,1.5,2.06,2.65,2.51C643.34,964.77,644.45,964.7,645.53,964.15z"/>
			<path class="st4" d="M677.69,942.64l-12.47,7.48c1.69,1.97,3.79,2.58,5.64,1.47c1.48-0.89,2.2-2.44,1.91-4.13l5.48-3.29
				c0.61,2.16,0.47,4.29-0.46,6.48c-0.93,2.19-2.43,3.88-4.51,5.13c-2.66,1.59-5.3,2.06-8.02,1.41c-2.72-0.65-4.87-2.25-6.42-4.83
				c-1.54-2.57-1.93-5.19-1.22-7.9c0.71-2.71,2.36-4.82,5.02-6.42c2.66-1.59,5.3-2.06,8.02-1.41s4.86,2.31,6.42,4.92
				C677.31,941.94,677.52,942.28,677.69,942.64z M663.52,946.76l6.72-4.03c-1.42-1.38-3.33-1.59-4.95-0.62
				C663.65,943.09,663.04,944.67,663.52,946.76z"/>
			<path class="st4" d="M693.06,921.22c1.88,0.45,3.48,1.58,4.76,3.42l7.2,10.39l-5.16,3.57l-6.67-9.63
				c-1.18-1.71-3.05-2.13-4.59-1.05c-1.64,1.14-1.91,3.03-0.73,4.74l6.67,9.63l-5.16,3.57l-11.32-16.34l5.16-3.57l1.5,2.17
				c-0.03-2.46,0.98-4.38,3.01-5.78C689.41,921.17,691.2,920.8,693.06,921.22z"/>
			<path class="st4" d="M720.26,898.22l5.39-4.61l9.3,31.74l-5.39,4.61l-2.94-11.75l-19.57-8.71l5.46-4.67l11.94,5.99L720.26,898.22
				z"/>
			<path class="st4" d="M743.59,874.12l3.78,3.68l-3.01,3.09l10.46,10.18l-4.37,4.49L740,885.38l-2.51,2.58l-3.78-3.68l2.51-2.58
				l-3.76-3.65l4.37-4.5l3.76,3.65L743.59,874.12z"/>
			<path class="st4" d="M761.14,856.66l8.78,7.64c1.9,1.65,2.9,3.67,2.95,6.05c0.08,2.41-0.81,4.65-2.64,6.75
				c-1.83,2.1-3.95,3.32-6.34,3.57c-2.37,0.28-4.53-0.4-6.43-2.06l-8.78-7.64l4.09-4.7l8.78,7.64c1.54,1.34,3.44,1.23,4.7-0.22
				c1.26-1.45,1.08-3.32-0.46-4.66l-8.78-7.64L761.14,856.66z M749.76,857.56l4.12-4.73l0.81,8.39l-3.11,3.58L749.76,857.56z"/>
			<path class="st4" d="M779.01,832.2l4.29,3.08l-2.52,3.5l11.85,8.53l-3.66,5.09l-11.85-8.53l-2.11,2.93l-4.29-3.08l2.11-2.93
				l-4.25-3.06l3.66-5.09l4.25,3.06L779.01,832.2z"/>
			<path class="st4" d="M792.11,816.37l3.36-5.3l16.78,10.66l-3.36,5.3l-2.23-1.42c0.86,2.45,0.59,4.74-0.77,6.89
				c-1.32,2.08-3.25,3.32-5.76,3.63s-5.05-0.33-7.58-1.94c-2.53-1.61-4.15-3.61-4.94-6.02c-0.79-2.41-0.49-4.68,0.83-6.76
				c1.37-2.15,3.32-3.37,5.91-3.63L792.11,816.37z M802.29,827.8c0.65-1.03,0.83-2.12,0.47-3.28s-1.09-2.09-2.27-2.84
				c-1.18-0.75-2.34-1.02-3.53-0.85c-1.16,0.19-2.08,0.82-2.73,1.84c-0.65,1.03-0.83,2.12-0.5,3.26c0.34,1.19,1.07,2.12,2.25,2.87
				c1.18,0.75,2.34,1.02,3.56,0.82C800.72,829.45,801.63,828.83,802.29,827.8z"/>
			<path class="st4" d="M815.55,777.28c1.91-0.51,3.91-0.24,5.99,0.84l12.85,6.72l-3.22,6.09l-11.96-6.25
				c-1.76-0.92-3.43-0.48-4.3,1.16c-0.87,1.64-0.28,3.26,1.48,4.18l11.96,6.25l-3.22,6.09l-11.96-6.25
				c-1.76-0.92-3.43-0.48-4.3,1.15c-0.87,1.64-0.28,3.26,1.48,4.18l11.96,6.25l-3.2,6.06l-19.42-10.15l3.2-6.06l2.97,1.55
				c-1.64-2.27-1.83-4.65-0.52-7.13c1.27-2.4,3.66-3.72,6.35-3.53c-1.62-2.21-1.85-5-0.5-7.55
				C812.19,779.02,813.64,777.79,815.55,777.28z"/>
			<path class="st4" d="M831.62,750.1c2.48-0.73,5.1-0.53,7.92,0.67c2.82,1.2,4.82,2.96,6.02,5.25c1.2,2.29,1.28,4.63,0.29,6.95
				c-1.02,2.4-2.78,3.95-5.34,4.65l2.48,1.05l-2.49,5.86l-26.21-11.12l2.48-5.86l10,4.24c-1.28-2.32-1.39-4.68-0.37-7.07
				C827.41,752.4,829.14,750.83,831.62,750.1z M839.84,762.63c0.48-1.14,0.48-2.28-0.07-3.38c-0.55-1.1-1.45-1.92-2.76-2.48
				c-1.32-0.56-2.53-0.64-3.7-0.27c-1.14,0.39-1.96,1.17-2.44,2.31c-0.48,1.14-0.48,2.28,0.04,3.36c0.54,1.14,1.43,1.96,2.75,2.52
				c1.32,0.56,2.53,0.64,3.72,0.23C838.53,764.56,839.35,763.77,839.84,762.63z"/>
			<path class="st4" d="M831.24,734.93c-0.83,2.18-2.85,3.2-4.96,2.46c-2.11-0.74-2.95-2.75-2.12-4.93
				c0.81-2.14,2.88-3.15,4.91-2.44C831.17,730.76,832.05,732.79,831.24,734.93z M832.34,738.85l2.34-6.2l20.59,7.18l-2.34,6.2
				L832.34,738.85z"/>
			<path class="st4" d="M834.79,708.45l4.16,7.34l-1.38,4.54l-4.61-5.88L834.79,708.45z M854.08,711.27l-4.25,13.91
				c2.57,0.34,4.54-0.62,5.17-2.68c0.5-1.65,0-3.28-1.35-4.35l1.87-6.11c1.89,1.19,3.22,2.87,4,5.12c0.78,2.25,0.8,4.51,0.09,6.83
				c-0.9,2.96-2.55,5.08-5.01,6.42c-2.46,1.34-5.13,1.59-8,0.71c-2.87-0.88-4.91-2.56-6.2-5.05c-1.29-2.49-1.48-5.17-0.57-8.13
				c0.9-2.96,2.55-5.08,5.01-6.42c2.46-1.34,5.15-1.54,8.06-0.65C853.33,711,853.71,711.12,854.08,711.27z M846.32,723.82l2.29-7.5
				c-1.98-0.07-3.54,1.05-4.09,2.85C843.96,721.01,844.56,722.59,846.32,723.82z"/>
			<path class="st4" d="M850.88,684.15c1.82-1.01,3.92-1.26,6.26-0.71l13.25,3.08l-1.53,6.58l-12.29-2.85
				c-2.18-0.51-3.96,0.51-4.42,2.48c-0.49,2.1,0.67,3.79,2.85,4.3l12.29,2.85l-1.53,6.58l-20.84-4.84l1.53-6.58l2.77,0.64
				c-1.81-1.93-2.39-4.19-1.78-6.78C847.93,686.76,849.1,685.17,850.88,684.15z"/>
		</g>
	</g>
</g>
</svg>
