<?xml version="1.0" encoding="utf-8"?>
<!-- Generator: Adobe Illustrator 24.1.2, SVG Export Plug-In . SVG Version: 6.00 Build 0)  -->
<svg version="1.1" id="Layer_1" xmlns="http://www.w3.org/2000/svg" xmlns:xlink="http://www.w3.org/1999/xlink" x="0px" y="0px"
	 viewBox="0 0 841.89 595.27" style="enable-background:new 0 0 841.89 595.27;" xml:space="preserve">
<style type="text/css">
	.st0{fill:#DADADA;}
	.st1{opacity:0.2;fill:#FFFFFF;}
	.st2{fill:#373735;}
	.st3{fill:#1D1D1B;stroke:#000000;stroke-width:0.75;stroke-miterlimit:10;}
	.st4{stroke:#1D1D1B;stroke-width:3;stroke-miterlimit:10;}
	.st5{fill:none;stroke:#1D1D1B;stroke-width:2;stroke-miterlimit:10;}
	.st6{fill:none;stroke:#1D1D1B;stroke-width:4;stroke-miterlimit:10;}
	.st7{fill:none;stroke:#1D1D1B;stroke-width:2;stroke-linecap:round;stroke-miterlimit:10;}
</style>
<rect x="255.7" y="67.22" class="st0" width="447.32" height="400.97"/>
<path d="M754.52,68.14v0.51c-0.58,0.32-0.83-0.38-1.09-0.57c0-0.32-0.45-0.64,0.06-0.83C754.13,67.12,754.39,67.63,754.52,68.14z"/>
<path d="M751.13,77.87l0.32,0.51L751.13,77.87z"/>
<path d="M752.98,80.43c0.19,0.45-0.77,0.83-0.77,0.26C752.21,80.3,752.79,79.92,752.98,80.43z"/>
<path d="M745.05,83.24c-0.19,0.19-0.64,0.32-0.9,0.19C744.15,83.05,744.79,82.92,745.05,83.24z"/>
<rect x="798.49" y="89.32" class="st1" width="0.06" height="0.32"/>
<path class="st1" d="M797.97,89.96c0.51,0.7-0.38,0.06-0.32,0.77c0.26-0.83-0.32,0.19-0.58-0.38c0.32-0.45,0.32,0.19,0.7,0
	l0.06-0.77l0.19,0.38H797.97z"/>
<polygon class="st1" points="799.64,90.09 799.38,89.9 799.57,89.9 "/>
<path class="st1" d="M800.85,90.73c-0.06,0.26-0.13,0.13-0.32,0H800.85z"/>
<polygon class="st1" points="797.21,91.18 797.65,91.05 797.33,91.31 "/>
<polygon class="st1" points="797.85,91.95 797.59,91.56 797.85,91.82 "/>
<path class="st1" d="M797.59,92.2l0.19,0.26L797.59,92.2z"/>
<path class="st1" d="M799,92.27l-0.26,0.32L799,92.27z"/>
<path class="st1" d="M798.8,92.84l0.19,0.32L798.8,92.84z"/>
<g>
	<circle class="st0" cx="475.01" cy="263.67" r="139.4"/>
	<g>
		<g>
			<g>
				<g>
					<path class="st2" d="M626.56,262.55c-0.15,1.4,1.93,0.9,2.31,1.11C628.35,261.28,626.02,262.62,626.56,262.55z"/>
					<polygon class="st2" points="619.94,240.21 620.86,240.47 618.21,237.56 					"/>
					<path class="st2" d="M615.18,219.74c-1.41,1.48-0.78,3.24,0.22,5.15c1.03,1.9,2.24,4.02,2.04,5.99l-0.66,0.78l3.18,1.03
						c-0.76-2.19-1.85-4.64-2.91-6.89C615.99,223.54,615.17,221.43,615.18,219.74z"/>
					<path class="st2" d="M618.55,206.32c-1.02,1.19-2.04-1.93,0.6,2.72c0.04-0.3,0.1-0.4,0.15-0.59
						C619.11,208.01,618.87,207.4,618.55,206.32z"/>
					<path class="st2" d="M619.3,208.45C620.25,210.59,619.83,206.61,619.3,208.45L619.3,208.45z"/>
					<path class="st2" d="M614.39,198.88l2.39,2.28c0.49-0.92-0.48-3.51,0.48-2.83C615.32,195.71,614.87,196.68,614.39,198.88z"/>
					<path class="st2" d="M610.81,197.4c0.4,0.38,0.79,0.77,1.15,1.17C612.16,198.18,612.11,197.74,610.81,197.4z"/>
					<path class="st2" d="M614.34,201.14l-2.38-2.56c-0.34,0.65-1.37,1.17,0.99,1.22C611.89,199.99,613.07,200.15,614.34,201.14z"/>
					<path class="st2" d="M614.62,203.07c0.01,1.85,0.33,4.05-1.95,1.76c1.32,2.52,2.43,3.4,2.95,2.97
						c0.25-0.21,0.34-0.75,0.21-1.56C615.69,205.43,615.35,204.33,614.62,203.07z"/>
					<path class="st2" d="M611.32,219.85c-0.1,0.78-0.2,1.55-0.36,2.34l1.65,1.43c-0.41-0.36-0.46-1.42-0.54-2.33
						C611.99,220.38,611.83,219.62,611.32,219.85z"/>
					<path class="st2" d="M606.88,181.19c-0.75,0.24-1.16,1.94-1.87,2.64c0.66,0.47,1.28,0.97,1.9,1.47
						C606.81,184.02,606,181.93,606.88,181.19z"/>
					<path class="st2" d="M605.01,183.83l-2.9-2.11C603.58,184.29,604.39,184.43,605.01,183.83z"/>
					<path class="st2" d="M607.02,198.68c1.66,1.15,3.15,2.43,4.74,3.69c-1.73-1.58-3.42-3.13-5.24-4.58L607.02,198.68z"/>
					<path class="st2" d="M599.6,170.37c0.86,0.16,1.7,0.35,2.55,0.53l-2.08-0.62l-2.12-0.56L599.6,170.37z"/>
					<path class="st2" d="M593.97,163.81c2.06,0.16,0.59-3.09,2.27-2.51c-1.78-1.64-4.03-2.38-6.08-2.95
						C591.92,159.34,593.14,161.05,593.97,163.81z"/>
					<path class="st2" d="M586.88,157.27c0.91,0.45,2.05,0.74,3.28,1.08C589.21,157.83,588.16,157.43,586.88,157.27z"/>
					<path class="st2" d="M599.26,176.81c0.23-0.47,0.92-1.57,0.24-3.41l-0.97,2.32C598.75,176.05,599,176.43,599.26,176.81z"/>
					<path class="st2" d="M598.5,175.8l0.03-0.08c-0.78-1.19-1.31-2.02-1.55-2.37C597.17,173.66,597.63,174.4,598.5,175.8z"/>
					<path class="st2" d="M599.44,177.08c-0.07-0.1-0.12-0.18-0.18-0.27C599.16,177.03,599.15,177.14,599.44,177.08z"/>
					<path class="st2" d="M604.72,190.25c-2.01-1.1-5.05-3.82-4.73,0.39C601.93,191.08,601.73,188.64,604.72,190.25z"/>
					<path class="st2" d="M598.18,179.91c0.53,1.04,0.99,2.12,1.49,3.17c0.44-0.36,0.79-1.34,1.8-0.86
						C600.36,181.45,599.3,180.65,598.18,179.91z"/>
					<polygon class="st2" points="596.64,178.92 598.18,179.91 597.58,178.76 					"/>
					<path class="st2" d="M589.54,163.14c-0.85-0.27-1.56-0.71-2.23-1.24c-0.68-0.52-1.35-1.12-2.05-1.75
						c0.53,0.88,1.15,1.71,1.73,2.55c0.59,0.84,1.21,1.64,1.86,2.39C589.53,164.86,591.02,164.74,589.54,163.14z"/>
					<path class="st2" d="M593.91,169.3c-0.1-0.05-0.21-0.14-0.31-0.19C593.59,169.39,593.65,169.56,593.91,169.3z"/>
					<path class="st2" d="M571.81,147.42c0,0.16-0.02,0.33-0.02,0.49c0.1-0.08,0.19-0.16,0.29-0.24L571.81,147.42z"/>
					<path class="st2" d="M588.76,165.6c0.67,1.41,1.65,1.74,2.73,1.98c-0.91-0.72-1.79-1.53-2.65-2.49
						C588.53,165.19,588.37,165.3,588.76,165.6z"/>
					<path class="st2" d="M582.49,154.21c0.27,0.87,0.65,1.76,1.05,2.7C583.5,155.87,583.09,154.01,582.49,154.21z"/>
					<path class="st2" d="M593.75,168.34c0.07,0.04,0.15,0.07,0.22,0.12C594.01,167.78,593.88,167.97,593.75,168.34z"/>
					<path class="st2" d="M593.75,168.34c-0.73-0.42-1.51-0.58-2.26-0.76c0.7,0.61,1.41,1.14,2.12,1.53
						C593.61,168.87,593.67,168.58,593.75,168.34z"/>
					<path class="st2" d="M559.03,154.78c0.7-0.71,2.05-0.86,3.39-0.37c0.67,0.25,1.34,0.64,1.89,1.23c0.54,0.6,0.99,1.36,1.24,2.28
						c3.32,0.92,6.15-5.26,6.23-10c-0.64,0.61-1.12,1.15-4.55-0.04c0.34,1.54,4.12,6.76,0.82,6.27c-1.97-1.06-2.57-1.73-2.79-2.45
						c-0.21-0.72-0.04-1.47-0.57-2.55c-0.04,1.54-1.71,1.37-3.51,1.28c-1.79-0.12-3.8-0.02-4.48,1.7c1.27,0.35,2.49,0.8,3.73,1.23
						C560.14,153.85,558.54,153.74,559.03,154.78z"/>
					<path class="st2" d="M576.64,152.42l1.2,0.81c-0.93-1.4-1.28-2.74-1.91-5.33c-2.46-0.86-3.31-0.61-3.85-0.21
						c1.71,1.62,3.46,3.19,5.12,4.86L576.64,152.42z"/>
					<path class="st2" d="M582.46,157.68c-2.29,0.67-5.39-0.93-5.52,2.13c1.53,1.33,2.29,1.58,3.05,1.55
						c0.74-0.01,1.42-0.24,2.61,0.33c-4.99-4.45,2.2,0.57-0.28-3.8c1.18,0.7,2.09,1.5,2.94,2.25c-0.65-1.06-1.23-2.14-1.72-3.23
						c0.01,0.08,0.01,0.14,0.01,0.21l0.03,0.02l-0.03,0.02c0.01,0.4-0.04,0.58-0.16,0.24c-0.03,0-0.1-0.05-0.13-0.07
						C583.02,157.5,582.74,157.6,582.46,157.68c-1.03-1.74,0.19-0.63,0.8-0.36c0.09-0.06,0.2-0.09,0.29-0.16c0-0.01,0-0.03,0-0.04
						c-0.91-0.7-1.88-1.35-2.84-1.98l-2.87-1.92C578.66,154.45,580.05,155.59,582.46,157.68z"/>
					<path class="st2" d="M594.27,190.09c0.06-0.26,0.19-0.34,0.32-0.43C594.14,189.45,593.91,189.42,594.27,190.09z"/>
					<path class="st2" d="M593.97,187.2c0.5,0.23,1.44,0.09,2.07,1.48c0.16,1.44-0.88,0.54-1.45,0.97c0.98,0.44,3,1.9,2.38-1.09
						l-0.49-0.23c-0.75-2.55-0.35-6.9,0.14-6.68C595.43,183.39,594.64,184.73,593.97,187.2z"/>
					<path class="st2" d="M588.58,172.54c-1.37-1.23-2.85-2.35-4.3-3.49l0.37,3.28l0.77-0.82
						C587.04,174.13,587.66,172.78,588.58,172.54z"/>
					<path class="st2" d="M572,146.17l2.03-1.25c-1.52,0.08-3.09,0.26-4.61,0.41L572,146.17z"/>
					<path class="st2" d="M566.01,141.81l1.4-1.41c-0.76-0.08-1.54-0.13-2.31-0.2L566.01,141.81z"/>
					<path class="st2" d="M365.27,328.63l1.18,0.92C365.97,329.07,365.6,328.8,365.27,328.63z"/>
					<path class="st2" d="M360.55,319.64l-0.99,0.21C360.26,320.03,360.71,320.02,360.55,319.64z"/>
					<path class="st2" d="M395.1,134.54c-3.01-0.27-6.96-1.14-5.47,0.55l1.83,1.4C392.69,135.24,393.93,134.73,395.1,134.54z"/>
					<path class="st2" d="M338.8,236.34c0.25-0.17,0.5-0.34,0.76-0.51c-0.61-0.68-1.18-1.32-1.69-1.9
						C338.17,234.66,338.43,235.48,338.8,236.34z"/>
					<path class="st2" d="M347.35,239.54l-1.86,2.47C346.08,241.48,346.7,240.68,347.35,239.54z"/>
					<path class="st2" d="M404.21,366.95c0.85-0.29,1.7-0.59,2.56-0.93C404.71,364.65,404.99,366.16,404.21,366.95z"/>
					<path class="st2" d="M496.53,113.93c-1.96-1.11-3.59-1.67-5.04-1.96C493.89,113.53,495.62,115.64,496.53,113.93z"/>
					<path class="st2" d="M343.12,336.28c0.85,0.69,1.45,0.84,1.85,0.58C344.14,336.15,343.48,335.84,343.12,336.28z"/>
					<path class="st2" d="M485.42,111.47c0.36,0.24,0.71,0.38,1.07,0.59c1.56-0.23,3.14-0.46,5-0.09
						C489.74,110.82,487.59,110.14,485.42,111.47z"/>
					<path class="st2" d="M580.33,334.7c0.16-0.07,0.29-0.19,0.46-0.24C580.57,334.26,580.45,334.43,580.33,334.7z"/>
					<path class="st2" d="M622.57,283.5c0.05,0.69-0.09,1.78-0.19,2.81C622.59,285.84,622.68,284.99,622.57,283.5z"/>
					<path class="st2" d="M540.97,125.56C542.46,126.12,541.31,125.44,540.97,125.56L540.97,125.56z"/>
					<path class="st2" d="M543.73,136.59c-0.4,0.07-0.76,0.23-1.03,0.66C543.06,136.84,543.4,136.64,543.73,136.59z"/>
					<path class="st2" d="M470.22,124.7c-0.04,0-0.08,0-0.12,0C470.54,125.11,470.46,125.04,470.22,124.7z"/>
					<path class="st2" d="M542.66,127.51c-0.41-0.51-0.91-1.02-1.51-1.49C541.37,126.31,541.82,126.78,542.66,127.51z"/>
					<path class="st2" d="M542.83,126.44c0.44,0.34,0.8,0.58,1.14,0.82C544.31,127.03,544.25,126.74,542.83,126.44z"/>
					<path class="st2" d="M538.92,124.76c0.84,0.34,1.56,0.78,2.23,1.26c-0.22-0.26-0.28-0.42-0.18-0.46
						C540.54,125.4,539.92,125.17,538.92,124.76z"/>
					<path class="st2" d="M492.45,395.32c0.1,0.06,0.21,0.09,0.32,0.17C494.02,394.42,493.44,394.64,492.45,395.32z"/>
					<path class="st2" d="M380.22,175.71c0.03-0.06,0.01-0.12,0.03-0.18c-0.06,0.03-0.14,0.07-0.19,0.09L380.22,175.71z"/>
					<path class="st2" d="M378.26,180.35c-0.7-3.29,0.29-4.02,1.8-4.73c-1.89-1.03-3.82-2.06-5.73-3.04
						C375.6,175.22,376.91,177.81,378.26,180.35z"/>
					<path class="st2" d="M380.07,347.84l-0.67-3.75c5,0.89,5.94,3.63,6.04-0.42c-1.34,1.05-2.55,1.01-3.7,0.43
						c-1.15-0.59-2.28-1.69-3.29-2.89c-1.03-1.18-2.07-2.36-3.21-3.01c-1.09-0.69-2.3-0.86-3.75,0.03l-0.1-2.6
						c0.31,0.54,0.69,0.39,0.99,0.93c0.24-5.24-5.84,0.22-8.09-5.04c-0.58-1.93-0.35-3.61,0.98-2.88l-3.6-2.88
						c-0.5-1.16,0.68-1.44,1.18-0.31c-1.22-1.81-2.32-3.69-3.5-5.55l0.2-0.04c-1.39-0.35-3.73-1.63-4.82-2.31
						c0.19-1.95,1.01,0.48,1.6-0.26c-0.99-0.89-2.04-1.78-3.01-2.72c0.54-1.04,1.48-1,2.37-0.42c0.93,0.57,1.83,1.67,2.23,2.87
						c2.39-2.94,1.71-3.39,0.49-4.21c-1.15-0.82-2.88-2.04-2.3-6.09c0.64,0.96,1.35,1.89,2.02,2.82c1.42-1.71,1.51-2.98,1.49-4.42
						c-0.02-1.43-0.29-2.99,0.27-5.08c-0.46,0.59-1.31,2.79-2.38,4.53c-1.07,1.73-2.36,2.99-3.78,1.41
						c0.14-1.23-0.12-2.65-2.07-4.26c2.3-0.73,1.18-2.52,0.34-4.96l3.14-0.66c-0.83-1.18-1.58-1.63-2.37-1.94
						c-0.79-0.31-1.62-0.47-2.5-1.11c-0.4-3.11,1.87-4.23,3.82-5.33c-0.17-2.41-1-1.42-1.99-0.49c-0.99,0.93-2.12,1.81-2.93-1.04
						c0.12-1.07,0.1-2.03-0.05-2.95c-0.11-0.92-0.32-1.8-0.64-2.7c-0.64-1.79-1.74-3.65-2.84-6.08c0.88-3.01,1.99,0.36,2.82-0.76
						l-2.74-2.4c0.01-0.64,0.81-0.48,1.21-0.39c-1.1-2.13-3.21,0-4.18-3.48c-1.75-0.43-0.57-2.3,0.68-4.51
						c1.31-2.23,2.46-4.75,0.63-7.01c0.99-1,1.92,0.63,3.18,0.37c-1.09-2.97-1.47-4.28-1.97-5.46c-0.49-1.19-1.03-2.24-2.48-4.92
						c0.87-1.3,1.72-2.59,2.69-3.83c-2.91,2.64-5.03-1.63-6.68-5.68c-1.34,0.9-2.51,1.69-3.11,2.27c-0.23-2.03-0.45-4.08-0.53-6.13
						c0.67-0.59,1.61,0.25,2.7,1.46c-0.17-0.44-0.34-0.87-0.51-1.21c1.62-1.78,3.17-0.28,4.59,1.51c-0.77,0.54-1.59,1.07-2.39,1.59
						c1.65,1.79,3.55,3.44,5.44,3.5c-0.3-0.42-0.49-1.16-0.53-1.94c0.45,0.45,0.88,0.77,1.22,0.67c0.37-0.12-0.26-0.82-0.84-1.86
						l3.76-0.46l-1.32-0.6l1.88-3.19c0.61-1.06,1.34-2.07,2-3.09c-0.52-1.44-1.16-2.9-1.78-4.42c-0.57-1.5-1.14-3.06-1.61-4.71
						c-0.24-0.83-0.44-1.68-0.62-2.56c-0.16-0.88-0.24-1.77-0.28-2.7c-0.06-1.85,0-3.87,0.55-5.97c1.53,2.96,3.74,2.08,6.54,3.42
						c-1.97,0.36-2.2,2.01-2.25,3.95c-0.01,0.98,0,2.02-0.06,3.06c-0.04,1.05-0.22,2.08-0.71,3.02c1.02-1.96,2.26-1,2.58-0.32
						c-0.22-2.66-0.15-5.27-0.18-7.98c1.14,0.56,1.72,0.37,2.23-0.12c0.51-0.49,1-1.28,1.87-1.94c-2.59-0.35-2.78-1.94-2.33-3.92
						c0.11-0.49,0.26-1.01,0.43-1.53c0.19-0.51,0.38-1.03,0.57-1.54c0.37-1.02,0.67-2.01,0.68-2.88c1.57,0.62,2.76,2.06,0.72,5.15
						c2.62-0.98,1.89-2.77,1.13-4.67c-0.79-1.9-1.5-3.85,0.91-4.83c-0.42,0.82-0.9,1.12-0.33,1.85c-0.12-1.29,0.74-2.94,1.7-4.03
						c0.97-1.08,2.11-1.54,2.39-0.65l-0.46,0.78c0.94-1.19,2.03-2.74,3.08-4.46c1.09-1.69,2.24-3.48,3.13-5.28
						c0.92-1.78,1.73-3.45,2.08-4.95c0.35-1.5,0.31-2.78-0.34-3.63c0.46,0.31,3.42,3.88,3.88,4.71c-1.41-5.72-2.57-11.73-3.25-17.84
						c0.96,1.64,3.69,3.25,5.88,5.14c2.19,1.89,3.87,4.03,2.93,6.51c0.68-0.33,1.43-0.71,2.14-1.38c0.72-0.67,1.38-1.66,2.03-3.13
						c-1.05,0.27-5.49-2.04-4.75-3.23c2.8,0.15,3.62,0.11,4.49-0.07c0.88-0.15,1.72-0.53,4.57-0.7c-1.63,0.37-4.24-4.94-2.28-6.4
						c0.28,0.89,3.83,4.16,3.59,5.16c0.1-1.33,0.22-2.67,0.35-4.03c0.14-1.35,0.34-2.66,0.52-4.01c-0.53,1.71,2.79,3.87,4.75,4.35
						c-0.57-0.25,0.41-0.99,1.64-1.84c1.25-0.82,2.79-1.68,3.24-2.35l-2.73,0.34c2.89-1.51,3.02-4.12,3.3-6.68
						c0.13-1.3,0.26-2.61,0.73-3.83c0.48-1.2,1.27-2.35,2.8-3.11c-0.14,1.42,1.99,7.1,5.17,6.09c-0.06-1.6-0.38-5.51,0.1-9.55
						c0.47-4.01,1.63-8.43,4.11-10.7l1.79,1c1.21-1.23,2.44-2.5,3.73-3.65c-0.63,2.52-1.89,6.84-3.16,10.98
						c-0.65,2.05-1.23,4.22-1.81,6.09c-0.57,1.9-1.12,3.54-1.6,4.81c2.75,0.04,1.51,1.4,4.61-0.35c1.8,0.81-0.65,2.96-1.51,3.5
						c2.57-0.94,5.09-1.91,7.7-2.66c-0.86-1.46,0.21-2.87,1.36-4.24c1.17-1.3,2.41-2.54,1.75-3.78c-2.45,2.13-4.69,4.54-6.91,6.79
						c-0.89-1.44-0.75-4.12,0.45-6.73c0.6-1.29,1.44-2.63,2.55-3.66c1.11-1.03,2.45-1.85,3.95-2.28c1.92,0.68,1.03,6.03,1.58,7.01
						c0.15-0.66,1.25-1.76,2.47-2.47c1.21-0.73,2.49-1.23,2.88-0.92l-1.8,2.51c1.76,0.07,2.66-1.41,3.76-2.7
						c1.1-1.28,2.44-2.26,4.78-1.28c0.69-0.07,1.95,0.65,2.99,1.25c1.05,0.59,1.87,0.94,1.75-0.05c-3-3.25-6.57-14.6-5.61-17.77
						c0.3,0.06,2.5,0.5,4.83,1.11c1.16,0.29,2.37,0.68,3.41,1.11c1.04,0.41,1.9,0.84,2.4,1.23c1.46,1.27,0.85,3.2,0.25,5.07
						c-0.61,1.88-1.21,3.69-0.01,4.79c-0.09-0.92,0.96-2.25,1.42-2.71c1.58,0.51-0.11,2.91,2.93,1.94c0.01-3.45,6.48-0.53,1.08-3.04
						c1.5-0.68,2.36-0.61,3.3-0.45c0.93,0.17,1.93,0.38,3.77,0.2c-0.68-1.05-0.04-2.98,1.25-4.8c1.28-1.8,3.2-3.59,4.86-4.08
						c-0.16,0.87,0.63,1.98,1,2.49c1.69,0.03,3.18,0.15,4.56,0.3c1.38,0.2,2.65,0.47,3.9,0.71c1.25,0.25,2.48,0.46,3.78,0.69
						c1.3,0.25,2.67,0.46,4.22,0.59c0.51,0.85,3.35,2.1,1.95,3.45c0.92-0.5,1.85-1.54,3.74-1.38c3.22,3.38-4.2-0.07-1.88,3.79
						c0.44-1.91,5.11-2.19,7.96-2.85c-0.15-1.56-1.67-2.05-3.52-1.89c-1.85,0.16-3.98,0.82-5.37,1.27c0.22-2.1,1.61-4.1,3.89-5.7
						c1.14-0.79,2.5-1.53,4.02-2.04c1.51-0.5,3.2-0.85,4.98-1.03c2.8-0.06,3.22,0.83,3.1,1.53c-0.13,0.73-0.81,1.38-0.29,1.2
						c2.42,0.75,4.26,0.79,5.79,0.52c1.52-0.21,2.74-0.74,3.9-1.22c1.16-0.48,2.27-0.89,3.56-0.86c1.28,0.03,2.72,0.63,4.53,2.03
						c2.34,3.63-1.62,5.1-1.54,7.17c-2.2-0.2-3.61-1.15-4.86-2.11c-1.26-0.92-2.35-1.91-3.78-2.26l3.12,2.21
						c-1.58,0.48-4.49,0.36-5.79-0.82c0.5,0.77,1.74,1.47,3.42,2.14c0.84,0.34,1.79,0.66,2.8,1.01c1.01,0.37,2.08,0.77,3.19,1.18
						c1.11,0.41,2.27,0.8,3.4,1.26c1.13,0.48,2.25,0.98,3.33,1.5c2.18,0.99,4.13,2.22,5.59,3.5c1.58-0.28,4.1-0.16,3.57-1.59
						l-2.36-0.65c-1.15-2.9,5.45-0.82,3.06-3.02c1.85-0.04,3.84-0.04,5.88,0.27c1.02,0.17,2.04,0.43,3.04,0.86
						c0.97,0.47,1.92,1.11,2.8,1.97l-0.77,3.1c0.37-0.82-1.76-3.12-3.36-2.95c1.18-0.12,2.25,1.7,3.45,3.2
						c0.6,0.76,1.26,1.43,1.99,1.79c0.72,0.38,1.54,0.42,2.53-0.14c-0.55-1.18-1.09-2.41-1.7-3.55c1.87,0.17,4.08,0.24,6.29,0.58
						c1.09,0.19,2.2,0.42,3.18,0.88c0.98,0.46,1.88,1.07,2.62,1.89c0.12-3.62-0.98-0.29-1.54-5c-0.1,2.56-2.42,1-4.58-0.4
						c-1.08-0.7-2.12-1.38-2.83-1.47c-0.71-0.07-1.05,0.39-0.74,1.93c-0.28-2.55-1.27-3.61-2.39-4.68
						c-1.13-1.06-2.37-2.14-3.45-4.63c-0.35,0.96,0.42,2.39-2.63,0.26c-0.28,0.19-0.8,0.34-1.12,0.43
						c-0.09-0.08-0.12-0.11-0.19-0.18c0.05,0.07,0.08,0.13,0.13,0.2c-0.21,0.06-0.24,0.08,0.05,0.07c0.58,0.79,0.97,1.59,0.96,2.22
						c-1.34,0.63-3.24,0.24-5.13-0.18c-1.9-0.4-3.74-0.92-4.86-0.77c-1.74-1.31,1.27-0.7,0.65-2.16c-1.11,0.14-2.23,0.31-3.35,0.53
						c0.63-2.17-3.95-5.57,1.31-4.91l-4.28-1.79c-2.12-2.12-5.6-3.81-8.1-3.61c-1.99-1.08-6.01,0.88-3.7-0.3
						c-1.23-0.1-2.45-0.23-3.68-0.3l-3.68-0.14l0.06-0.56c-3.44-1.02-7.26-0.66-11.03-0.88c-3.82-0.02-7.6-0.61-11.52-2.86
						c-1.22,0.19-2.46,0.41-3.88,0.48c-1.43,0.13-3.04,0.1-5.03-0.27l-0.76-1.96c-1.56,0.26-3.89-0.14-6.02-0.41
						c-2.13-0.26-4.05-0.38-4.66,0.72c-0.91-1.24-2.34-1.86-4.05-2.1c-0.86-0.12-1.78-0.14-2.75-0.1c-0.96,0.06-1.97,0.24-2.98,0.42
						c-2.03,0.4-4.1,0.87-6,1.38c-1.9,0.51-3.64,0.9-5.05,0.92l0.28,2.53c-0.47,0.07-0.93,0.14-1.39,0.24
						c-0.45,0.11-0.91,0.24-1.36,0.37c-0.9,0.27-1.81,0.59-2.72,0.95c-0.92,0.36-1.85,0.76-2.82,1.2c-0.96,0.46-1.95,1-3,1.56
						l0.87,2.08c-1.64,1.44-4.17,1.66-7.01,2.04c-1.43,0.17-2.94,0.31-4.48,0.56c-1.52,0.29-3.03,0.72-4.47,1.34
						c0.08-0.95,1.65-1.33,2.88-1.26c-2.19-0.5-4.16-0.15-5.97,0.61c-1.78,0.82-3.37,2.12-4.91,3.4c-1.55,1.26-2.96,2.7-4.51,3.73
						c-1.54,1.04-3.19,1.7-5.1,1.77c-1.07,1.55-2.25,1.92-3.57,2.02c0.13-0.08,0.24-0.19,0.3-0.31c-0.16,0.06-0.39,0.19-0.62,0.32
						c-0.85,0.03-1.74,0.06-2.64,0.21c0.89,0.08,1.69,0.09,2.32-0.02c-1.11,0.69-2.61,2.04-3.94,3.54l-2.02-1.57
						c-0.12,0.11-0.23,0.18-0.34,0.3c-2.12,0.31-0.65,1.78,1.2,2.74c-0.61,0.84-1.04,1.77-1.27,2.63c-1.73-1.16-2.58-0.15-3.49,0.86
						c-0.46,0.51-0.93,1.01-1.55,1.26c-0.61,0.26-1.36,0.29-2.4-0.21c0.1,1.21-1.57,3-3.02,4.98c-1.38,2.06-2.52,4.29-1.48,6.2
						c-0.41-0.37-1.01-0.21-0.27-0.9c-1.93,0.97-3.77,2.11-4.3,4.27l-2.77-1.59l-0.23,3.07l-0.11,3.09
						c-3.24,0.69-4.88,0.85-4.64-2.82c-0.52,1.86-0.95,3.08-1.31,4c-0.34,0.93-0.64,1.54-0.92,2.12c-0.55,1.16-1.06,2.22-1.49,5.52
						l-1.36-1.47c-1.22,1.67-1.11,5.82-3.16,5.79c-1.43,0.34-2.97,1.67-4.67,3.57c-0.42,0.48-0.86,0.98-1.28,1.53
						c-0.41,0.56-0.83,1.15-1.26,1.76c-0.85,1.23-1.73,2.55-2.64,3.92c-3.45,5.62-6.97,12.17-10.9,16.96
						c3.15,0.12,1.96,1.09,0.54,2.36c-1.39,1.28-3.07,2.88-1.05,3.91c-1.53,0.14-2.88,1.43-3.29-0.81c-0.12,0.78-0.3,1.48-0.51,2.13
						c-0.2,0.65-0.4,1.26-0.64,1.82c-0.47,1.13-1.01,2.1-1.45,3.05c-0.92,1.88-1.35,3.7-0.09,6.25c-1.52,0.3-1.58-1.82-2.54-1.45
						c0.15,0.57,0.62,2.21-0.35,2.62c-0.96,0.4-0.87-1.18-1.18-2.3c-0.38,1.56-0.42,2.83-0.2,3.88c0.26,1.06,0.76,1.89,1.42,2.57
						c1.32,1.35,3.27,2.07,5.16,2.74c-1.26,1.28-1.92,2.33-2,3.39c-0.03,1.06,0.51,2.13,1.6,3.45c-1.47,0.8-3.13,2.36-2.92-1.47
						c-0.15,0.52-0.46,1.57-0.84,2.85c-0.19,0.65-0.38,1.35-0.56,2.09c-0.15,0.74-0.29,1.5-0.4,2.26c-0.44,3.02-0.44,5.84,1.19,6.1
						c-0.86,0.59-0.46,2.95-0.14,3.53c-0.15,1.18-0.27,2.1-0.37,2.88c-0.1,0.78-0.14,1.42-0.19,2.06c-0.09,1.28-0.12,2.56-0.03,4.9
						l0.55-1.29c3.77,1.87,0.85,3.84,1.41,7.58l-0.4-0.09c-0.67,2.17-0.79,3.5-0.79,4.38c0.01,0.89,0.2,1.34,0.38,1.78
						c0.18,0.45,0.34,0.89,0.3,1.76c-0.02,0.44-0.09,0.99-0.22,1.7c-0.11,0.71-0.28,1.59-0.54,2.7l2.32-0.74
						c2.61,0.09,2.08,1.98,1.24,4.5c-0.77,2.5-1.76,5.67-0.36,7.91l1.02-2.01c1.07,1.15-0.22,3.28-1.79,5.6
						c-1.57,2.3-3.45,4.81-3.34,6.24c-0.26,0.71-0.98-0.74-1.5-1.5c-0.95,7.96,3.29,0.13,5.46,5.15c-1.32,1.46-4.53-0.02-3.72,3.65
						c-0.35,1.09,1.82,3.27,3.9,5.78c1.1,1.24,2.17,2.57,2.9,3.96c0.36,0.69,0.64,1.4,0.79,2.13c0.17,0.71,0.23,1.43,0.12,2.17
						c0.74-1.54,1.5-3.02,3.42-1.14c0.5,0.82,0.73,1.94,0.89,3.2c0.07,0.64,0.14,1.29,0.2,1.96c0.09,0.66,0.18,1.33,0.3,1.99
						c0.48,2.61,1.31,5.08,4.02,5.56c-0.07,0.6-0.27,0.93-0.55,1.1c1.22,1,2.72,2.89,4.43,4.45c1.7,1.57,3.43,2.9,4.82,3.01
						c-1.39,1.72-1.15,3.35-0.2,4.93c0.96,1.57,2.63,3.07,4.38,4.35c1.73,1.3,3.36,2.54,4.28,3.68c0.92,1.14,1.04,2.28-0.42,3.52
						c1.05,1.09,2.06,2.21,3.13,3.26l3.26,3.13l-0.72,0.37c1.79,2.31,3.52,3.36,5,3.95c1.51,0.56,2.84,0.61,4.21,0.58
						c0.64,1.25-0.55,1.15-0.91,1.37c2.66,3.31,4.2,5.12,6.15,6.12c1.93,1.01,4.06,1.52,8.02,1.94l-0.85,2.44
						c0.6-0.02,1.37,0.61,2.33,1.6c0.96,1,2.18,2.25,3.58,3.63c0.7,0.68,1.46,1.39,2.26,2.07c0.83,0.65,1.71,1.27,2.63,1.84
						c1.84,1.15,3.86,2.08,6.05,2.35c-0.2,0.21-0.58,0.56-1.33,0.57c4.8,0.89,9.06,4.81,13.29,7.53c4.18,2.76,8.2,4.24,11.19,0.49
						c2.14-0.01,4.32-0.25,6.44-0.4c-3.65-1.4-3.06-2.25-1.94-3.06c1.13-0.8,2.78-1.56,1.5-2.7c1.49,0.15,3.13,1.32,3.98,2.4
						c0.86,1.03,0.9,2.03-0.95,1.77l-0.44-0.59c-2.56,4.3,8.91,3.88,8.09,6.88c7.63,1.42,15.17,2.79,22.73,3.8
						c1.9,0.21,3.79,0.42,5.67,0.63c1.89,0.15,3.77,0.23,5.65,0.32c0.94,0.03,1.88,0.1,2.82,0.09c0.94-0.02,1.87-0.04,2.8-0.06
						c1.86-0.08,3.73-0.08,5.56-0.3c-0.7-1.14-1.38-2.27-2.05-3.45c1.68-0.09,3.35-0.27,5.02-0.4c1.42,0.68,2.18,2.61-1.48,2.92
						c1.08,0.91,2.57,0.28,3.75-0.67c1.19-0.93,2.04-2.3,2.03-2.69c3.59,0.11,3.13,1.28,1.98,2.39c-1.15,1.11-2.98,2.16-1.88,2.01
						l2.93-0.8l-0.74-0.3c1.07-0.95,1.58-1.82,2.36-2.53c0.39-0.36,0.85-0.66,1.48-0.94c0.62-0.29,1.42-0.54,2.49-0.74
						c2.85,0.09,1.9,1.88,3,1.77c0.05,0.25,0.45,0.29,1.67-0.28c2.12-0.44,4.23-0.97,6.35-1.45l-3.29-2.07
						c2.34-2.12,5.78-1.52,2.03-3.82c2.75,1.79,8.6,0.38,13.92-1.81c1.35-0.5,2.62-1.14,3.84-1.71c1.22-0.57,2.37-1.11,3.4-1.59
						c2.04-0.98,3.59-1.72,4.37-1.66c0.64-0.92,1.33-1.72,2.08-2.42c0.73-0.74,1.51-1.41,2.35-2.01c1.67-1.22,3.61-2.2,5.67-3.42
						c-1.33,0.14-3.61-2.26-0.01-4.09c0.6,1.6,1.39,2.31,2.34,2.49c0.94,0.18,2.06-0.15,3.21-0.69c2.32-1.08,5.07-2.61,7.85-1.8
						c-2.17-0.33,0.08-2.34,2.02-4.33c0.99-0.98,1.82-2.05,2.05-2.84c0.22-0.8-0.21-1.35-1.83-1.46c2.95-1.84,1.78,1.78,4.82,1.23
						c0.57-0.94,1.26-1.77,1.96-2.63c0.7-0.85,1.48-1.66,2.31-2.43c0.83-0.78,1.73-1.51,2.64-2.27c0.89-0.77,1.82-1.54,2.78-2.31
						c0.95-0.78,1.95-1.53,2.89-2.36c0.94-0.83,1.88-1.69,2.8-2.57c1.88-1.74,3.55-3.74,4.98-5.92c-0.6-0.66-2.72-0.14-2.4-2.66
						c2.3-0.5,4.49-1.14,6.77-1.79c0.42-0.97-0.34-2.08-0.64-3.11c-0.15-0.51-0.17-1,0.12-1.45c0.28-0.46,0.88-0.88,2.03-1.24
						c-0.91,0.04-2.25,0.07-1.76-1.22c1.79-1.81,3.49-3.74,4.9-5.86c0.73-1.05,1.42-2.12,2.1-3.2c0.67-1.09,1.24-2.24,1.83-3.37
						c0.58-1.14,1.15-2.29,1.7-3.45l1.47-3.57c0.47-1.2,0.98-2.38,1.41-3.6l1.26-3.66c0.9-2.42,1.62-4.89,2.46-7.33
						c0.89-2.42,1.6-4.9,2.55-7.31l0.72-1.81c0.22-0.61,0.45-1.22,0.69-1.82c0.48-1.21,1-2.42,1.56-3.62
						c0.59-1.2,1.13-2.41,1.74-3.62c0.61-1.21,1.27-2.42,2-3.62c-2.18,2.5-2.01,0.61-1.7-1.49c-0.64,1.3-2.14-0.36-3.36-0.27
						c1.45-2.62,2.95-5.31,4.33-8.07c-1.59-0.94-1.47-3.22-1.34-5.42c0.08-1.1,0.09-2.18-0.1-3.05c-0.18-0.87-0.57-1.52-1.35-1.76
						l0.5,2.7c-1.83-1.86-3.91-0.67-6.18,0.77c-2.32,1.45-4.8,3.13-7.16,2.7c0.99,0.99,1.04,2.07,0.66,3.21
						c-0.42,1.14-1.32,2.32-2.15,3.56c-0.86,1.24-1.56,2.55-1.91,3.94c-0.32,1.4-0.1,2.91,1.13,4.67c-1.19,1.1-1.32-1.39-2.53-0.91
						c1.8,1.85,1.75,3.74,0.11,6.8l-0.41-0.49c-0.11,0.58-0.22,1.13-0.32,1.67c-0.12,0.53-0.28,1.04-0.42,1.54
						c-0.29,0.99-0.6,1.91-0.92,2.78c-0.61,1.76-1.41,3.3-2.26,4.85c-0.84,1.55-1.73,3.11-2.84,4.8c-1.08,1.71-2.18,3.62-3.6,5.81
						l2.48,0.26c-1.22,1.93-2.09,2.05-3.05,2.74c2.18,3.9,2.78-5.67,5.43-1.91c-1.42,0.21-2.54,1.21-3.51,2.6
						c-0.98,1.38-1.95,3.08-2.86,4.79c-0.88,1.72-1.97,3.28-3.06,4.43c-1.11,1.13-2.31,1.78-3.76,1.47
						c-1.87,2.85,2.88,0.6,0.99,3.48l-1.74-0.04l1.13,1.78c-0.73,0.88-1.68,1.27-2.56,1.37c-0.88,0.1-1.69-0.1-2.23-0.43
						c0.44-0.35,0.6-1.45,0.84-1.97c-1.56,0.68-2.59,2.39-3.38,4.02c-0.79,1.62-1.46,3.08-1.97,3.31c0.9-0.67,1.83-1.32,2.73-2.01
						c-1.15,2.03-2.53,4.08-4.1,6.05c-1.62,1.92-3.25,3.93-5.05,5.76c-0.88,0.94-1.74,1.89-2.57,2.85c-0.88,0.92-1.73,1.85-2.54,2.8
						c-1.58,1.95-3.16,3.8-4.39,5.88l1.25,0.4c-0.5,0.77-0.95,1.4-1.38,1.91c-0.44,0.49-0.85,0.87-1.24,1.17
						c-0.78,0.61-1.47,0.91-2.19,1.19c-0.73,0.28-1.47,0.58-2.42,1.08c-0.95,0.5-2.07,1.26-3.5,2.58l0.08-0.38
						c-0.59,1.84-2.07,3.4-3.92,4.45c0.93-2.15-4.42-0.19-3.05-2.79c-0.63,0.75-1.16,1.34-1.6,1.82c-0.43,0.49-0.77,0.89-1.02,1.22
						c-0.51,0.68-0.71,1.11-0.81,1.56c-0.1,0.45-0.1,0.91-0.23,1.65c-0.13,0.73-0.37,1.76-1.03,3.25l-1.91-1.1
						c-0.38,1.14-0.52,1.93-0.96,2.71c-0.45,0.77-1.19,1.59-2.92,2.6c1.15-1.39,0.26-1.76-0.59-2.23c-0.86-0.46-1.67-1.01-0.51-2.68
						c-2.27-0.09-3.93,0.39-5.3,1.12c-1.38,0.69-2.47,1.58-3.46,2.4c-1.96,1.67-3.64,2.79-6.31,0.56c-0.93,3.02,0.93,3.15,2.87,2.71
						c1.95-0.39,3.84-1.54,3.07-0.62c1.12,0.46,0.74,1.64-0.27,2.77c-1.02,1.09-2.71,2.08-4.03,2.26c-1.29,0.38-2.86-0.81-4.87-1.94
						c-1-0.56-2.1-1.08-3.33-1.34c-0.61-0.13-1.26-0.2-1.95-0.18c-0.69-0.01-1.42,0.06-2.2,0.26c0.63-0.12,0.58-0.51,1.2-0.63
						c-1.32-0.37-2.35,0.32-3.49,0.94c-0.57,0.31-1.16,0.59-1.82,0.71c-0.66,0.09-1.39,0.01-2.21-0.39
						c-1.07,3.34-3.77,0.49-3.63,4.49l5.75-1.96c-1.56,0.8-2.93,2.49-4.71,3.83c-1.76,1.33-3.97,2.14-6.94,1.41
						c0.36-0.85,1.92-2.11,2.98-2.83c-1.77-0.98-3.05,1.22-4.88,0.14c0.06-1.96,1.82-2.38,3.97-2.77c1.07-0.19,2.25-0.35,3.35-0.69
						c1.09-0.4,2.1-0.95,2.84-1.85c-0.99-0.69-2.49,0.36-3.67,0.9c-1.18,0.54-1.96,0.7-1.38-1.53c-0.88,2.86-2.5,2.89-4.31,2.79
						c-1.83-0.19-3.84-0.54-5.89,1.71l0.15-2.39c-0.65,0.45-2.02,1.6-3.29,1.57c0.73-1.04,1.44-2.09,2.14-3.13
						c-1.66,1.35-3.37,0.82-5.01,0.14c-1.65-0.64-3.23-1.63-4.88-0.93c3.42,0.06,3.81,0.77,3.7,1.7c-0.1,0.94-0.74,2.13,0.77,2.95
						c-4.39,1.58-5.67-0.08-6.94-1.89c-0.65-0.9-1.3-1.94-2.38-2.69c-1.08-0.77-2.58-1.22-4.95-1.16c1.28-0.2,4.67,1.79,2.58,2.75
						c-0.89-0.33-1.92-0.71-2.83-1.28c-0.91-0.57-1.71-1.21-2.18-1.9c-3.12-0.15-2.98,0.49-2.4,1.3c0.58,0.81,1.63,1.8,0.18,2.35
						c-1.75-3.1-3.26,0.68-6.27,1.11l0.42-2.38c-0.86-0.35-1.55-0.54-2.11-0.61c-0.56-0.1-0.98-0.07-1.33,0.04
						c-0.69,0.22-1.04,0.77-1.36,1.32c-0.65,1.1-1.23,2.17-4.29,0.51c1.2-0.87,2.38-1.74,3.53-2.62c-1.17,0.01-2.37,0.08-3.55,0.04
						l1.37-2.47c-2.02,0.5-3.3,0.51-4.47,0.22c-1.17-0.3-2.23-0.92-3.82-1.9c0.28,1.89-1.81,4.01-4.99,3.01
						c-1.62-2.11,1.94-1.68-2.49-3.05c0.76-0.51,1.57-1.11,2.31-1.22c0.74-0.1,1.43,0.23,2.01,1.59c0.46-0.68,1.46-1.1,1.91-1.77
						c-1.68-2.23-5.33-2.39-6.88-2.95c0.55,0.31,1.2,0.71,1.43,1.17c-1.22,0.11-2.45,0.25-3.69,0.33l-3.71,0.15
						c-0.58-1.26,0.49-1.57,1.52-1.89c-1.31-0.33-2.66,0.36-4.52-0.36c1.32-1.53,2.09-3.36,4.95-3.1c-2.18-0.14-4.31-0.47-6.49-0.76
						c0.01-0.94-1.7-3.52-0.65-3.79c-1.17-1.35-3.42-1.53-5.82-1.88c-2.32-0.45-4.87-0.96-6.3-2.91c-0.41,0.18-1,0.2-1.96-0.14
						c-0.81-0.71-1.53-1.51-2.23-2.31c-0.67-0.83-1.32-1.68-2.06-2.46c-0.73-0.78-1.55-1.48-2.51-2.08
						c-0.95-0.63-2.07-1.14-3.48-1.47c0.05-1.52,0.08-2.98,0.21-4.51c-1.67-1.05-1.75,0.41-2.08,1.72c-0.33,1.3-0.92,2.46-3.83,0.6
						c-2.13-1.25-1.93-2.09-1.24-2.86c0.68-0.75,1.8-1.42,1.59-2.36c-1.42-0.21-3.5-0.44-5.35-1.27c-1.84-0.85-3.36-2.4-3.7-4.95
						C378.66,345.8,379,346.99,380.07,347.84z M353.74,306.05c0.39,0.38,1.11,0.89,1.59,1.44c0.51,0.54,0.78,1.13,0.25,1.72
						c-1.49-0.02-2.01-0.36-2.14-0.91C353.32,307.75,353.63,306.97,353.74,306.05z M345.07,229.75c0.57,0.93-0.05,1.95-1.24,3.03
						C343.86,231.8,344.16,230.75,345.07,229.75z M524.3,120.87c-0.06,0.02-0.1,0.04-0.15,0.07
						C522.04,119.24,522.78,119.88,524.3,120.87z M528.88,123.66c0.61-0.12,0.7-0.45,0.61-0.84c-0.56,0.44-1.67,0.04-2.87-0.6
						C526.76,122.93,527.23,123.59,528.88,123.66z M510.71,408.4l-1.13-0.39C511.63,406.82,511.16,407.58,510.71,408.4z"/>
					<path class="st2" d="M346.36,239.15c-0.45,0.2-0.9,0.19-1.36,0.18C345.33,239.79,345.79,239.88,346.36,239.15z"/>
					<path class="st2" d="M403.74,367.12c0.03,0.05,0.07,0.07,0.11,0.11c0.15-0.07,0.27-0.17,0.37-0.27L403.74,367.12z"/>
					<path class="st2" d="M452.6,136.07c-0.98-0.18-1.57-0.52-2-0.91C450.66,135.75,451.18,136.17,452.6,136.07z"/>
					<path class="st2" d="M555.89,132.48c-1.07-0.46-2.18-0.83-3.28-1.23c1.5,0.73,1.75,1.46,2.25,2.25
						C555.09,132.98,554.96,131.93,555.89,132.48z"/>
					<path class="st2" d="M569.52,161.52c0.53,0.1,0.72,0.64,1.25,0.73l0.68-0.9C569.98,160.05,568.39,159.78,569.52,161.52z"/>
					<path class="st2" d="M554.22,140.93c-0.44,0.92-0.14,1.51,0.53,1.98c0.34,0.24,0.77,0.44,1.25,0.65
						c0.47,0.22,0.98,0.46,1.5,0.7c-0.12-0.07-0.23-0.13-0.33-0.23c1.08-0.97,0.99-1.62,0.31-2.11
						C556.8,141.45,555.5,141.2,554.22,140.93z"/>
					<path class="st2" d="M557.97,144.52c0.63,0.33,1.24,0.7,1.74,1.18C560.6,144.93,559.15,145.01,557.97,144.52z"/>
					<path class="st2" d="M535.57,124.94c0.81,0.94,1.7-2.08,1.95-1.06c1.11-0.92-0.95-0.99-2.48-0.65
						c-0.76,0.16-1.41,0.46-1.46,0.76C533.52,124.29,534.04,124.62,535.57,124.94z"/>
					<polygon class="st2" points="552.08,147.5 552.8,144.98 550.66,146.01 					"/>
					<path class="st2" d="M537.98,137.23l2.82,2.23c0.15-0.4,0.66-0.41,1.25-0.32C540.15,138.06,538.23,136.52,537.98,137.23z"/>
					<path class="st2" d="M542.05,139.13c0.98,0.57,1.93,1.09,2.69,1.04C544.18,139.89,543,139.28,542.05,139.13z"/>
					<path class="st2" d="M547.67,145.56l-0.6-1l-2.04-1.39C545.92,143.98,546.83,144.71,547.67,145.56z"/>
					<path class="st2" d="M502.18,124.56l-3.93,0.03c-0.52,0.78,0.41,1.48,1.87,1.39C501.13,125.55,502.6,125.48,502.18,124.56z"/>
					<path class="st2" d="M511.7,133.88c-0.82-0.77-0.74-1.33-1.07-2.28l-0.91,2.97L511.7,133.88z"/>
					<path class="st2" d="M501.12,132.07c-0.55,0.78-5.63,1.51-1.09,2.12C500.54,133.39,504.28,133.41,501.12,132.07z"/>
					<polygon class="st2" points="445.42,128.8 446.34,128.54 445.15,123.59 					"/>
					<path class="st2" d="M406.15,158.29c4.09-1.16-0.88-3.19,3.09-3.88c0.2-1.56-3.25,0.57-2.95-0.84
						C404.83,156.01,403.35,156.1,406.15,158.29z"/>
					<path class="st2" d="M406.29,153.57c0.24-0.39,0.47-0.83,0.69-1.36C406.52,152.88,406.35,153.27,406.29,153.57z"/>
					<path class="st2" d="M626.39,272.35c0.45-1.03,0.79-2.07,1.19-3.11l-1.76,1.97C626.03,271.59,626.2,271.97,626.39,272.35z"/>
					<path class="st2" d="M622.82,266.24l3.26-0.68l-2.89-1.89C623.32,264.36,623.56,265.72,622.82,266.24z"/>
					<path class="st2" d="M357.79,297.18l-0.8,0.03c-0.7,0.61-0.6,1.21-0.4,2.41L357.79,297.18z"/>
					<polygon class="st2" points="369.71,329.79 369.44,329.24 367.57,331.77 					"/>
					<path class="st2" d="M390.82,349.99c-0.78-0.87-2.19-1.41-2.91-2.35C390.01,349.13,388.5,352.81,390.82,349.99z"/>
				</g>
			</g>
		</g>
	</g>
</g>
<g>
	<path class="st3" d="M453.73,289.43h-4.85c-6.55,0-9.83-2.2-9.83-6.6v-22.3c0-1-0.55-1.85-1.64-2.55c-1.09-0.7-2.41-1.06-3.96-1.06
		h-4.85c0,0,0,8.86,0,17.09c0,0.55,0,1.1,0,1.65c-0.15,4.77-1.15,9.77-0.15,13.77c1,1,3,0,4-1c-0.75,2-1.75,3-2.9,3.39
		c-0.57,0.2-1.19,0.24-1.82,0.18c-4.28-4.57-11.28,3.43-14.28-3.57c1,1,3,2,4,1c1-3,0-7-0.04-10.97c0-0.77,0-1.57,0-2.4
		c0-11.88,0-29.91,0-40.18c0-0.69,0-1.34,0-1.95c0.04-2.5,1.04-4.5,0.04-6.5c-1-1-3,0-4,1c5.4-5.4,11.61-2.7,17.9-2.16
		c0.7,0.06,1.4,0.09,2.1,0.08c7.99-0.92,16.99,0.08,16.79,10.1c0,0.56,0,1.35,0,2.26c0,0.6,0,1.25,0,1.92s0,1.35,0,2.02
		c0.2,3.78,0.2,7.78-3.82,11.11c-0.5,0.31-1.06,0.61-1.67,0.88c-1.22,0.55-2.64,1.04-4.27,1.45c6.51,1.76,9.76,4.56,9.76,8.4v20.89
		c0,1.61,1.07,2.42,3.21,2.42h0.27V289.43z M422.97,289.3c0.48-2.87,0.48-4.87,0.38-7.81c0-0.59-0.01-1.18-0.03-1.77
		c-0.05-1.74-0.15-3.51-0.32-5.44c0-0.49,0-0.99,0-1.5c0-11.52,0-27,0-36.43c0-0.74,0-1.44,0-2.11c0.44-1.84,1.44-4.84,0.44-6.84h-3
		c-1,2,0,4-0.24,6.4c0,0.62,0,1.27,0,1.96c0,10.17,0,28.04,0,39.95c0,0.47,0,0.94,0,1.39c0.24,4.3-0.76,8.3,1.27,12.01
		C422.23,289.21,422.97,289.3,422.97,289.3z M439.05,251.69c0,0,0-6.08,0-11.55c0.01-0.5,0.01-0.99,0.02-1.48
		c0.38-5.23,1.38-12.23-5.6-10.68c-0.51-0.13-1.01-0.3-1.5-0.45c-1.45-0.47-2.77-0.84-3.52-0.09c-1,2,0,5,0.15,7.62
		c0,0.51,0,1.03,0,1.57c0,8,0,18.67,0,18.67h4.85c1.55,0,2.87-0.35,3.96-1.06S439.05,252.69,439.05,251.69z M444.65,249.18
		c0,0,0-4.76,0-8.93c0-0.46,0.01-0.92,0.01-1.37c-0.21-4.46,1.79-10.46-4.21-11.46c4,4,2,8,1.42,11.6
		c-0.01,0.43-0.01,0.86-0.02,1.29c0,4.78,0,10.09,0,10.09c0,1.85-0.73,3.33-2.18,4.44C442.99,253.48,444.65,251.59,444.65,249.18z
		 M447.45,288.24c-1.87-0.67-2.8-1.96-2.8-3.87v-21.33c0-2.4-1.66-4.3-4.98-5.67c1.46,1.11,2.18,2.58,2.18,4.4v21.82
		C441.85,286.28,443.72,287.83,447.45,288.24z"/>
	<path class="st3" d="M504.93,289.43c0,0-8.9,0-14.24,0c-0.76,0-1.45,0-2.04-0.03c-2.2,1.03-3.2,0.03-2.2-1.97c0,0,1,0,2.05,0.33
		c0.88,0.04,1.75,0.04,1.75,0.04s0-9.07,0-18.87c0-0.47,0-0.94,0-1.41c-0.8-8.09-0.8-15.09,0.2-23.09c-4,7-3,14-3.84,21.01
		c-0.08,0.49-0.16,0.98-0.25,1.47c-0.25,1.4-0.49,2.81-0.74,4.19c-0.08,0.46-0.16,0.92-0.24,1.37c-1.93,8.95-1.93,20.95-10.93,15.95
		c-3-2-4-10-4.38-15.39c-0.09-0.44-0.18-0.89-0.28-1.34c-0.65-3.15-1.33-6.42-1.97-9.55c-0.11-0.55-0.22-1.09-0.33-1.62
		c-1.03-5.1-3.03-10.1-3.03-16.1c-1,5-1,11-0.24,15.52c0.01,0.52,0.01,1.04,0.03,1.56c0,12.08,0,26.29,0,26.29h3.48v1.63h-10.45
		v-1.63h3.48c0,0,0-11.7,0-24.76c-0.01-0.57-0.02-1.14-0.03-1.71c-0.28-6.9-1.28-12.9,0.03-19.85c0-0.49,0-0.97,0-1.44
		c0-1.18,0-2.3,0-3.35c0-0.53,0-1.03,0-1.52c-0.31-2.74-0.31-4.74-0.31-7.74c0,0-1,1-1.43,0.53c-0.87,0.02-1.74,0.02-1.74,0.02
		v-1.63c0,0,0.93,0,2.32-0.05c6.33-2.84,10.33-1.64,12.55,1.77c0.32,0.49,0.6,1.02,0.85,1.59c0.86,2.37,1.42,4.89,1.85,7.46
		c0.11,0.64,0.21,1.29,0.3,1.94c-0.69,8.37,3.31,15.37,4.34,23.1c0.11,0.71,0.21,1.42,0.31,2.12c0.2,1.41,0.38,2.83,0.56,4.25
		c0.14,0.7,0.27,1.36,0.39,1.97c0.71,0.93,0.71,2.93,0.71,4.93c1-1,1-3,1.21-5.45c0.12-0.67,0.24-1.4,0.37-2.17
		c0.2-0.7,0.39-1.4,0.58-2.09c1.85-7.3-0.15-15.3,3.59-22.42c0.24-0.57,0.42-1.19,0.55-1.83c1.21-5.78-0.58-13.29,5.81-15.56
		c0.64-0.25,1.29-0.47,1.95-0.66c1.1-0.31,2.23-0.52,3.35-0.55c0.56-0.01,1.13,0.02,1.69,0.09c0.91,0.64,3.91,0.64,4.91,1.64
		c-7,0-3,9-4,14.19c0,0.76,0,1.55,0,2.36c0,0.51,0.01,1.02,0.01,1.54c-0.01,6.91,1.99,12.91,0.01,20.22
		c-0.01,0.56-0.01,1.12-0.02,1.67c0,0.58,0,1.16,0,1.73c0,6.29,0,11.29,0,17.24c0,0.51,0,0.95,0,1.31c0,0.72,0,1.11,0,1.11h3.48
		V289.43z M479.16,286.17c-1.7-4.74-2.7-10.74-3.59-16.55c-0.12-0.56-0.24-1.14-0.37-1.71c-0.12-0.58-0.25-1.16-0.37-1.75
		c-0.08-0.52-0.18-1.03-0.27-1.56c-0.05-2.59-0.57-4.88-1.21-7.13c-0.16-0.56-0.32-1.12-0.49-1.69c-1.4-4.35-2.4-8.35-2.77-12.55
		c-0.11-0.6-0.22-1.21-0.34-1.81c-0.46-2.41-0.92-4.77-1.42-6.92c-0.14-0.69-0.29-1.37-0.44-2.04c-0.43-2.03-0.93-4.03-1.43-6.03
		c-1,0-3,0-3,1c0,3.33,1.39,5.97,2,8.81c0.13,0.57,0.22,1.14,0.26,1.74c1.73,2.45,0.73,5.45,1.71,8.12c0.17,0.55,0.28,1.1,0.36,1.63
		c0.2,1.33,0.19,2.59,0.31,3.73c0.12,1.13,0.38,2.14,1.12,2.98c1.23,2.98,0.23,5.98,1.82,8.35c0.11,0.55,0.23,1.09,0.34,1.64
		c0.33,1.56,0.66,3.1,0.98,4.59c0.11,0.5,0.21,0.99,0.32,1.48c1.77,4.93,0.77,10.93,4.95,15.75
		C478.39,286.17,479.16,286.17,479.16,286.17z M495.85,287.8c0,0,0-10.75,0-23.13c0-0.54,0-1.08,0-1.63
		c0.6-4.61,0.6-8.61,0.26-13.59c-0.08-0.57-0.16-1.15-0.23-1.74c-0.01-0.54-0.01-1.08-0.03-1.62c0-3.04,0-5.89,0-8.39
		c0-0.84,0-1.63,0-2.39c-2-1.58,1.14-4.62-0.65-6.75c-0.36-0.43-0.91-0.81-1.75-1.15c0,1,0,2-0.01,2.74
		c-0.01,0.85-0.04,1.66-0.1,2.5s-0.15,1.71-0.28,2.68c0,0.75,0,1.54,0,2.37c0,2.08,0,4.4,0,6.88c0,0.5,0,1,0,1.5
		c0.05,0.54,0.09,1.09,0.12,1.64c1.28,5.68-1.72,12.68-0.12,18.53c0,0.53,0,1.06,0,1.58c0,10.99,0,19.95,0,19.95H495.85z"/>
	<path class="st3" d="M545.4,281c0.04,4.02-2.68,5.53-5.7,6.52c-0.6,0.2-1.22,0.38-1.83,0.55c-6.79,3.99-13.24,3.49-19.88,0.09
		c-0.6-0.31-1.21-0.64-1.82-1c-8.71-2.73-6.71-12.73-4.99-19.33c0.02-0.52,0.03-1.05,0.04-1.58c0-0.53,0-1.08,0-1.62
		c0-0.55,0-1.1,0-1.66c0.21-4.99,0.23-10.35,0.06-16.1c-0.02-0.65-0.04-1.31-0.08-1.99c-0.43-4.35-0.96-9.91,0.62-14.04
		c0.22-0.59,0.49-1.16,0.81-1.68c1.91-2.87,4.87-4.55,8.15-5.23c0.66-0.13,1.34-0.23,2.04-0.28c7,0.71,15.14-0.91,19.46,5.34
		c0.39,0.57,0.74,1.2,0.48,1.67c-4.31-0.24-6.31,1.76-8.31,4.76c4-1,9-3,12,1c-1-1-3-1-5-1c3,0,3,3,3,5c1,4-4,7-8,6
		c-7-2-7-11-2.25-15.56c0.25-0.6,0.44-1.21,0.38-1.79c-0.06-0.59-0.37-1.15-1.12-1.65c-4-2-9-2-11.07,2.58
		c-0.16,0.59-0.24,1.22-0.2,1.87c0.04,0.65,0.18,1.33,0.45,2.01c0.02,0.6,0.03,1.18,0,1.73c-0.03,0.55-0.1,1.06-0.23,1.53
		c0,0.7,0,1.45,0,2.24c0,7.92,0,20.1,0,29.83c-0.02,0.75-0.04,1.48-0.07,2.2c0.11,5.03,0.11,9.03,0.11,14.03
		c0.17,0.67,0.47,1.28,0.88,1.82c2.04,2.71,6.62,3.68,9.12,1.18c2-3,1-7,1.15-10.22c0-0.53,0-1.08,0-1.65c0-2.27,0-4.8,0-7.26
		c0-0.25,0.14-0.46,0.47-0.65c6.38-0.22,11.38-8.22,5.38-10.22c-1-1,0,5-4,5c1,0,1-1,2-1c-2,3-7,3-7,1c-2-7,2-16,11-12
		c4,2,4,8,3.6,12.17c0.09,0.6,0.18,1.2,0.28,1.79c0.4,2.38,0.82,4.8,0.83,7.21c0,0.72-0.03,1.44-0.11,2.16
		c-0.61,1.67-0.61,2.67-0.84,4.39C545.3,280.3,545.4,281,545.4,281z M518.69,286.76c-5.23-6.33-2.23-13.33-1.88-20.34
		c0-0.42,0-0.85,0-1.27c0-1.28,0-2.6,0-3.92c0-0.55,0-1.11,0-1.66c-0.36-3.13-0.36-7.13,0-9.88c0-0.53,0-1.05,0-1.57
		c0-0.52,0-1.02,0-1.52c0-0.5,0-1,0-1.48c0.4-3.55-0.62-7.22-0.47-10.7c0.03-0.7,0.11-1.39,0.25-2.08c0.86-0.9,0.86-2.9,1.86-3.9
		c-1,0-2,1-3.21,2.03c-0.38,0.49-0.69,1.02-0.94,1.6c-1.78,3.98-0.68,10.08-0.29,14.05c0,0.52,0,1.05,0,1.58
		c0.44,4.74,0.44,8.74,0,13.73c0,0.58,0,1.16,0,1.73c0,0.97,0,1.93,0,2.87c-0.01,0.47-0.02,0.94-0.04,1.39
		c-2.52,6.02-2.52,15.02,3.24,18.61C517.67,286.28,518.16,286.52,518.69,286.76z M538.71,236.56c-4.26,3.87,5.74,3.87,1.74,6.87
		c-4,2-7,1-8-3s1-8,4.99-9.74c1.08-0.43,1.72-0.75,2.16-1.04c-0.51-1.69-1.82-2.8-4.16-2.22c0.33,0.33,0.56,0.69,0.7,1.08
		s0.21,0.78,0.23,1.2c-3.93,3.73-8.93,12.73,0.07,15.73c5,1,9-6,4.11-9.02C539.5,236.43,538.71,236.56,538.71,236.56z
		 M539.49,282.23c-0.04-1.8-0.04-3.8-0.14-6.12c0.01-0.71,0.02-1.41,0.03-2.1c0.01-1.16,0.01-2.31,0-3.46
		c0-0.58-0.01-1.16-0.01-1.75c3.08-3.36,5.08-6.36,4.08-10.36c-3-6-10-4-12,0c0,2,3,4,5,3c1-1-3-4,0-6c1,0,3,0,4,0
		c4,4,2,11-2.79,13.04c-1.18,0.74-1.2,1.33-1.22,1.9c0,1.72-0.01,3.36-0.03,4.66c-0.01,0.78-0.01,1.53-0.01,2.24
		c0.02,1.06,0.14,2.2,0.18,3.38c0.02,0.59,0.02,1.18-0.01,1.77c-0.12,2.02-0.12,4.02-2.12,5.02c1,0,2,0,2.81-0.73
		c0.4-0.26,0.76-0.57,1.05-0.94c0.29-0.37,0.51-0.8,0.63-1.29C539.36,283.8,539.54,283.05,539.49,282.23z"/>
</g>
<path class="st4" d="M391.89,196.92c0.7-0.51,0.38,1.34,1.54,0.58c0.19-0.26-0.38-0.7,0.13-0.9c2.43,0,4.86-1.92,6.91-3.39
	c-0.26,0.51,0.32,1.28-0.19,1.79c-0.77,0.9-3.07,1.22-1.98,2.82c0.58,1.73,0.19,3.78-0.7,5.38c1.02,2.5,4.1,0.51,5.31,2.94
	c-0.13,0.58-0.58,0.96-1.09,1.15c-1.41,0.51-2.75-0.7-4.03,0.13c0.13,0.64,0.51,1.28,0.26,1.92c-1.02,1.66-1.79,3.71-2.75,4.99
	c-0.71-0.51-0.83-1.6-1.6-1.86c-0.26,0.64-1.34,0.32-1.15,1.28c-0.58,0.38-1.15-0.26-1.54-0.64c-0.83,0.45,0.32,3.26-1.02,2.24
	c-0.7,0.19-0.26-0.9-0.38-1.15c0.19-0.06,0.38-0.26,0.51-0.38c-1.02-1.79-1.09-3.84-2.05-5.63c-1.73,0.06-2.5,1.98-4.16,2.56
	c0-0.51,0.9-0.9,1.09-1.47l-0.06-1.47c-1.79-0.32-1.34-2.05-2.5-2.75c0.32-0.13,0.96,0,1.34-0.26c1.22,0.06,0.32-1.41,1.28-1.66
	c0-0.77-0.96-1.22-1.34-1.86c-0.83,0.13-1.35-0.58-2.11-0.32c-0.77-0.19,0.26-0.77,0.06-1.15c1.54,0.32,3.14,1.28,4.74,0.9
	c-0.13-1.03,1.09,0.13,0.83-0.9l-0.58-0.64c0.32,0,0.58-0.13,0.58-0.51c-0.32-0.45-0.7-0.96-1.15-1.34c0.32-0.06,0.9,0.06,1.15-0.38
	l-0.32-1.09c0.64,0.9,1.54,1.41,2.56,1.47c0.32-0.38-0.32-0.9-0.13-1.02c0.13,0.19,0.38,0.7,0.7,0.7c0.51-1.09,0.77-2.82,0.26-3.84
	c0.13,0.38,0.32-0.13,0.51-0.13C391.18,194.29,391.31,195.77,391.89,196.92z"/>
<path d="M557.79,310.62c0.51,0.51,1.86,0.32,1.98,1.02c-0.39,0.19-0.39,0.58-0.13,0.9c0.38,0.19,0.83-0.13,1.15,0.26
	c-0.51,1.6,0.45,1.41,0.45,3.01c0.51,0.38,1.22-0.06,1.79-0.26c0.06,0.38-0.39,0.13-0.51,0.32c1.66,0.19,3.2-0.7,4.93-0.7
	c-0.32,0.13-0.06,0.77,0,0.77l-3.26,0.9c-1.02,2.88-0.38,5.44,0.77,8.26c0.26,0.83,1.86,0.13,1.28,1.22
	c-1.47,0.77-2.88-1.34-4.1-0.38c-0.89,1.54-2.37,3.01-3.26,4.1c-1.02,0.51-0.77-1.73-1.92-0.64c0,0.32,0.19,0.7-0.06,1.02
	c-0.58-0.19-0.45-1.47-1.41-1.15c-0.38,0.32,0.13,1.02-0.64,1.02c-0.64-0.26,0.13-1.22-0.77-1.34c-1.15-0.9-0.83,0.9-1.66,0.83
	c-0.26-0.32-0.19-0.9-0.06-1.28c-0.38-0.32-1.09-1.02-1.79-1.15c-0.13,0.38-0.51,0.83-0.83,1.02c-0.19-0.83,0.26-1.98-0.32-2.88
	c-0.7-0.64-0.7,0.83-1.34,0.13c0.13-0.51,0.9-0.96,0.77-1.6l-1.15-0.7c-0.06-2.69,1.34-4.8,0.89-7.49c1.09-1.15,1.6-2.69,2.05-4.1
	c0.58,0.32,1.02,0.64,1.66,0.32c0.19-0.38,0.45-0.77,0.64-1.15c0.38-0.06,0.57,0.38,0.96,0.19l0.51-0.9
	c0.64,0.32,1.15,0.9,1.86,0.77c0.64,0.06,0.64-0.64,0.89-1.02C557.53,309.98,557.66,310.36,557.79,310.62z"/>
<path class="st4" d="M519.02,196.26c0.13,1.86,2.62,1.73,3.46,3.33c0.32,0.77-0.9,0.64-0.77,1.41c0.38,0,0.77,0.19,1.09,0.13
	c-0.19,0.32-1.09,0.38-0.83,1.09c0.19,0.64,0.83,1.22,1.28,1.66c-0.26,1.47-3.78,1.79-1.66,3.58c-0.51-0.13-0.83-0.83-1.34-0.64
	c-0.58,0.51,0.77,2.18-0.7,1.98c-0.19-0.19-0.45-0.38-0.64-0.06c-0.64,0.58,0.51,1.41-0.13,1.79c-0.83-0.7-2.05-0.64-2.43-1.79
	c-0.7-0.38-1.21,0.58-1.66,0.64c-1.15,0.06-0.7-1.6-1.79-1.79c-0.64,0.58-1.66,1.02-2.56,0.83c0.64-0.96-0.58-1.15-0.96-1.47
	c1.09-1.47-1.41-2.18-0.64-3.46c-0.32,0.06-0.7,0.38-0.9,0c0.38-0.58,1.47,0,1.34-1.09c-0.19-0.45,0.51-0.96,0-1.41
	c-0.19-0.26-0.9,0.13-0.77-0.38c0.96-0.38,1.47-1.66,2.11-2.56c0.45-0.51,1.09,0.45,1.28-0.45c-0.06-0.38-0.64-0.58-0.45-1.09
	c1.86-0.32,4.48,0.13,6.27-1.41C518.31,195.23,518.76,195.68,519.02,196.26z"/>
<path class="st5" d="M326.82,223.69C424,224,521,224,618.37,223.65"/>
<path class="st5" d="M338.59,292.98C433,293,526,293,620.11,292.97"/>
<polygon class="st6" points="524.51,181.63 436.07,181.63 391.85,258.5 436.07,335.38 524.51,335.38 568.72,258.5 "/>
<path class="st7" d="M344.74,335.89C431,336,518,336,603.54,335.87"/>
<path class="st7" d="M351.11,181.91C436,182,520,182,605.09,181.89"/>
</svg>
